
<svg version="1.0" id="Layer_1" xmlns="http://www.w3.org/2000/svg" xmlns:xlink="http://www.w3.org/1999/xlink" x="0px" y="0px"
	 viewBox="0 0 1080 1080" style="enable-background:new 0 0 1080 1080;" xml:space="preserve">
<style type="text/css">
	.st0{fill:#C6393B;}
	.st1{fill:#FFCC29;}
</style>
<g>
	<path class="st0" d="M529.8,83.5c2.7-1.3,6-0.2,8,1.9c35.7,36,71.2,72.1,106.9,108.2c2.7,2.3,4,6.5,1.8,9.5
		c-2.7,3.5-6.3,6.4-9.4,9.6c-107,105.7-214,211.3-320.9,317c-2.5,2.4-4.9,5.1-7.7,7.3c-2.8,2.2-6.9,1.4-9.2-1.1
		c-35.8-36.2-71.5-72.4-107.3-108.7c-3.2-2.7-3.3-8,0-10.7c110-108.7,220-217.3,330-326C524.5,88.2,526.7,85.2,529.8,83.5
		 M763.8,315.4c2.8-1.7,6.5-0.8,8.6,1.5c35.8,36.2,71.6,72.5,107.3,108.7c3.2,2.7,3.2,8,0,10.7C768,546.6,656.3,656.9,544.6,767.3
		c-2.7,3.2-8,3.4-10.8,0.1c-35.6-36-71.2-72.1-106.9-108.1c-2.7-2.3-4-6.5-1.8-9.5c2.6-3.4,5.9-6,8.8-9.1
		C543.2,532.8,652.4,425,761.5,317.2C762.2,316.5,763,315.9,763.8,315.4 M218,851.6c7.6-4.9,14.4-11,22.5-15.1
		c0.5,21.8,0.1,43.6,0.2,65.4c0.2,4.9-0.7,10.3,1.9,14.7c1.8,2.9,5.4,3.8,8.7,3.7c34.4,0,68.7,0,103.1,0c4.5,0.1,7.3-4.2,8.3-8.1
		c1.4-3.5,1.6-7.9,4.9-10.3c2.9-0.8,4.4,2.2,5.3,4.4c2,4.7,2.6,10.6,7.4,13.5c9.8-10.1,17.9-22.2,29.8-30.1c6.9-4.7,15.4-8,23.9-6.2
		c9,1.8,15.5,10.5,15.9,19.5c0.6,5.8-1.3,11.3-2.9,16.7c4.7,1.1,9.6,0.7,14.4,0.8c4.8,0,9.7,0.3,14.4-0.8c-0.2-1.4,0-2.9-0.9-4.1
		c-3.8-5.6-9.1-9.8-13.7-14.7c0.3-3,2.8-5.2,4.3-7.7c4.3-6,8.2-12.4,12.9-18.2c11.8,12,15.3,29.7,14.2,46
		c-0.7,10.2-1.6,22.2-10,29.2c-9.3,7.3-21.9,6.5-33.1,6.3c-8.1-0.2-13.8-6.9-17.1-13.6c-6.5,8.1-16.8,12-26.9,12.8
		c-12.4,1.1-25.9-0.9-35.8-9.1c-3.4,5.2-8.6,10.2-15.3,9.9c-35.6,0-71.2,0.1-106.8,0c-9,0.1-19.1-1.2-25.4-8.4
		c-7.1-7.9-7.2-19.2-7.1-29.2c-0.4-20-1.1-40.1-3.1-60.1C211.3,855,215.6,853.6,218,851.6 M410.4,909.1c-7.3,3.4-13.4,8.8-19.1,14.4
		c10.8,0.1,21.9,0.3,32.3-3.2c2-0.8,4.5-1.6,5.6-3.6c0.4-3.3-1.1-7-4.3-8.3C420.3,906.3,414.9,907,410.4,909.1 M505,862.6
		c8.3-8.5,15.7-18,24.6-26c5.4,20.3,5.3,41.5,5.3,62.3c-0.2,9.4,0.6,18.9-1.1,28.3c-1.3,7.4-2.7,14.8-5.5,21.8
		c-1.3,2.8-2.7,5.9-5.4,7.6c-2.1,1-3.9-0.8-4.8-2.6c-2.4-4.8-3.1-10.3-4.2-15.5c-4.3-23.4-7.8-47-11.4-70.6
		C501.7,865.7,503.7,864.1,505,862.6 M879.4,845c4.3-2.9,8.3-6.4,13.1-8.5c0.6,24.7-0.1,49.5,0.4,74.2c0,4.7,3.4,9.5,8.4,9.5
		c7.5,0.1,15,0.8,22.4-0.7c0.3-4.1-3-6.9-5.4-9.7c-2.9-3.2-6.3-6-9.2-9.2c0.3-3,2.8-5.2,4.3-7.7c4.3-6,8.2-12.4,12.9-18.2
		c8.4,8.5,12.8,20.3,14,32.1c0.7,9.1,0.5,18.4-1.3,27.4c-1.3,6.8-4.5,13.8-10.8,17.4c-9.5,5.8-21.2,4.6-31.8,4.6
		c-8.7,0-18.3-2.5-23.6-9.9c-6.1-8.2-5.7-18.9-5.7-28.5c-0.5-19.7-1.1-39.5-3.1-59.1c-0.1-1.4,0.1-3.1,1.4-3.9
		C869.9,851.5,874.7,848.4,879.4,845 M458.6,851.1c4-4.5,8.2-8.8,12.7-12.8c4.5,4.1,9.1,8.2,13.2,12.7c-3.7,4.8-8.4,8.8-12.9,12.8
		C467.1,859.7,462.6,855.6,458.6,851.1 M820.3,851c3.6-4.6,8.1-8.6,12.3-12.7c4.8,3.9,9.2,8.3,13.6,12.7c-4,4.5-8.5,8.7-12.9,12.8
		C828.7,859.7,823.9,855.9,820.3,851 M646,860.7c20.7-6.8,41.3-13.8,62.1-20.4c-0.8,10.1-1.8,20.3-3,30.3
		c-12.5,4.4-25.1,8.5-37.6,12.9c7.3,8.5,14.6,16.8,22.1,25.2c5.6,6.1,13.2,11.4,21.8,11.6c40.3-0.1,80.7-0.1,121,0
		c2,0,5.7-0.5,4.8-3.3c-3.5-6.7-10-11.3-14.9-16.9c5.7-8.5,11.4-17.1,17.5-25.3c10.7,10.6,14.8,26.3,14.4,41
		c-0.2,10.1-0.6,20.9-6.1,29.8c-5.7,8.7-17,10.8-26.6,10.8c-35,0.1-70.1,0-105.1,0.1c-13.1,0.5-24.2-8.4-32.3-17.7
		c-4,7.4-10.6,13.3-18.6,16c-13.8,4.9-28.7,3.7-43.1,3.8c-10.9-0.3-22.3-1.3-31.9-6.8c-7.2-4.1-12-11.5-13.5-19.5
		c-1.9-10-0.9-20.6,2.8-30.2c1.1-2.7,2.4-5.7,5-7.3c2-1.2,5.1-0.4,5.8,2c1.5,4.7,0.2,10,2.3,14.6c1.7,4.5,6.2,7.1,10.6,8.6
		c9.7,3.1,20,2.9,30,2.9c10.1-0.3,20.4-0.1,30.2-2.7c1.9-0.1,2.9-2.5,1.2-3.7c-8.1-9.7-17-18.6-25.6-27.8c1.3-7.8,2.7-15.5,4-23.3
		C643.5,863.6,643.6,861,646,860.7 M182.6,903.6c10.1,7.4,17.2,18.8,18.6,31.3c2.4,19.1,1.1,40.3-10.6,56.3
		c-2.2,2.7-4.4,6.5-8.3,6.4c-12.4,0.1-24.7,0-37,0c-2.3,0-5.1-0.1-6.5-2.2c-1.4-2.4-1.1-6.1,1.7-7.3c12.1-6.1,23.5-13.6,34.4-21.7
		c4-3.2,8.3-6.5,11-11c1.7-2.6-0.1-5.4-1.7-7.5c-4.5-6-10.1-11.2-15.5-16.3C173.4,922.3,177.6,912.8,182.6,903.6 M910.1,980.8
		c3.3-4.8,7.9-8.7,12.2-12.6c5.1,3.4,9.2,8.2,13.6,12.4c-4.2,4.2-8.3,8.6-12.8,12.5C918.3,989.7,914.2,985.1,910.1,980.8
		L910.1,980.8z"/>
	<path class="st1" d="M303.1,193c35,0,70.1-0.1,105.2,0c-35,34.6-70,69.3-105.1,103.8C303,262.2,303.1,227.6,303.1,193 M645.6,192.9
		c43.3,0.1,86.6,0,129.9,0c0,41.8,0,83.6,0,125.5c-2.7-2.5-5.5-5.5-9.3-6.2c-4.8-1.3-10.1,0.4-13.6,4c-9.9,9.8-19.8,19.5-29.7,29.3
		c-1,1.5-2.9,1.3-4.5,1.3c-69-0.1-138.1,0-207.1,0c43.1-42.6,86.1-85.1,129.2-127.6c3.8-3.9,8.9-7.5,9.5-13.3
		C651,201.1,648.7,196.4,645.6,192.9 M316,539.7c8.8-8.5,17.3-17.5,26.4-25.7c70-0.2,140-0.1,210-0.1
		c-45.2,44.8-90.7,89.5-135.9,134.3c-5.3,5.3-4.6,14,0,19.5c-37.8-0.1-75.6,0-113.4,0c0-38.9,0-77.8,0-116.7c-0.4-1.7,1.5-2,2.6-2.6
		C310,546.6,312.7,542.7,316,539.7 M655.4,667.6c40-39.4,79.9-79,119.9-118.4c0.1,39.5,0,78.9,0.1,118.4
		C735.4,667.6,695.4,667.6,655.4,667.6L655.4,667.6z"/>
</g>
</svg>