<?xml version="1.0" encoding="utf-8"?>
<!-- Generator: Adobe Illustrator 24.3.0, SVG Export Plug-In . SVG Version: 6.00 Build 0)  -->
<svg version="1.0" id="Layer_1" xmlns="http://www.w3.org/2000/svg" xmlns:xlink="http://www.w3.org/1999/xlink" x="0px" y="0px"
	 viewBox="0 0 1080 1080" style="enable-background:new 0 0 1080 1080;" xml:space="preserve">
<style type="text/css">
	.st0{fill:#BE9C39;}
	.st1{fill:#031C45;}
	.st2{fill:#960000;}
</style>
<g>
	<path class="st0" d="M589.8,151c28,19.1,51.4,46.9,59.9,80.2c9,39.1-0.5,81.4-23.5,114c-7.4,10.1-16.3,19-25.8,27.1
		c-28.7,24.6-63.1,42.1-89.8,69.3c-11.5,12-22.2,25.4-28.1,41.1c-9,23-8.9,49.9,2.3,72.1c-30-21.8-50.7-56-55.2-92.9
		c-1.1-9.7-1.5-19.6,0.2-29.3c4.1-25.8,14.2-50.9,30.8-71.1c7-8.3,14.6-16.2,23.1-22.9c17.5-14.1,37.6-24.5,56.6-36.4
		c21.3-14.5,39.5-33.9,51.1-56.9c8.9-17.6,13.2-37.7,11.6-57.4C601.5,174.7,595.4,162.8,589.8,151 M557.4,483.6
		c25.4-6.1,52.5,14.7,54.9,40.4c0.6,10.4-1,21.4-6.9,30.3c-9.1,14.5-26.7,23.8-43.9,21.4c-8.2-0.6-16.3-3.4-22.8-8.5
		c-14.9-11.4-22.5-31.9-17.8-50.1C525.3,500,540.5,487.3,557.4,483.6L557.4,483.6z"/>
	<path class="st1" d="M571,419.1c7.3-2.9,15.3-4.5,23.1-2.9c14.9,2.9,27.2,12.8,41.8,16.5c6.2,1.6,12.8,1.7,19.1,0.3
		c8.3-2.4,13.8-9.5,19.3-15.7c-3.8,12.9-8.3,27.1-20.1,35c-9.2,5.4-20.4,7.5-30.9,5.4c-15.2-2.8-28.3-11.4-42.8-16.1
		c-11.8-3.3-23.6,1.8-34.2,6.6C550.8,436,558.8,424.4,571,419.1 M626.7,464.2c11.4-4,24.3-4.1,35.6,0.4c11.6,4.8,21.4,14,26.3,25.6
		c5.4,12.4,6.8,26.2,6.9,39.6c0.4,14.5,4.9,29.6,15.4,40.1c6.3,5.1,14.2,7.6,21.4,11.3c-17.6,6.7-39.4,5-53.6-8.1
		c-6.2-6.4-12-13.6-14.9-22.1c-6.7-19-3.7-39.8-10.2-58.8c-2.2-6.2-5.2-12.3-10.2-16.8C638.4,470.9,632.4,467.8,626.7,464.2
		 M339.4,480.4c34.8-7.7,72.8,6.4,95.7,33.4c13.8,16.4,23.8,35.5,36.1,52.9c9,12.7,19.5,24.7,32.9,33c5.4,3.1,10.8,6.5,16.8,8.3
		c13.4,4.1,27.7,2,41.3,0.1c-12.3,13.2-27.6,23.9-44.8,29.4c-13.9,4.6-29,5.2-43.3,2.6c-19-3.7-36.1-14.3-49.6-27.8
		c-9.5-9.5-17.5-20.4-24-32.1c-8.7-15.3-16.7-31.7-30-43.8c-14.8-14.4-34.6-24.4-55.5-25c-11-0.4-22,2.6-31.5,8
		C298.1,501.8,316.8,486.2,339.4,480.4 M655.1,544.5c9.9,16.1,14.8,35.5,12.7,54.4c-1.6,15-8.5,29.2-18.5,40.5
		c-16.3,18-39.9,27.4-63.3,31.9c-16.4,3.6-32.5,10.3-45.3,21.5c-7.5,6.4-13.4,14.6-17.6,23.4c-4.1,9.7-3.6,20.5-5,30.9
		c-9.3-15.4-17.3-32.7-16.6-51.1c1.6-31.2,23.3-59.7,52-71.4c18.9-7.6,39-11.8,57.6-20.3c13.1-5.9,25.3-14.4,34-26
		C652.1,568.4,653.6,556.1,655.1,544.5 M444.3,760.9c2.5-2.2,5.1-4.3,7.8-6.3c0.1,10.8-0.1,21.5,0.1,32.3c-0.2,2.7,2,5,4.7,5
		c3.9,0.2,8.2,0.6,11.8-1.3c2.9-1.7,1.9-5.9,4.3-8c3.5,1.3,1.5,7,5.1,8.5c3.7,1.6,8,1,11.9,0.8c3.1,0,6.5-1.7,6.9-5
		c0.5-1.6,1.1-5.7,3.5-3.5c1.1,2.8,0.9,7,4.4,8.1c4.7,1.2,9.7,0.4,14.6,0.7c-2-2.7-3.4-6.3-1.7-9.5c2.3-4.6,6.3-8.8,11.3-10.4
		c6-1.7,11.7,3.4,13.2,8.9c-5.3-1.3-10.9-2.8-16.2-0.9c-1.6,0.5-3.8,1.7-3.3,3.8c1.3,3.4,4.6,6,8.2,6.2c4.7,0.3,9.4-0.1,14.1-0.6
		c-1.5,2.9-3,5.7-4.6,8.5c-10.6,0.2-20.9,3.6-31.5,3.3c-3.9,0.1-7.3-2.1-9.7-5c-3.7,5.9-11.3,5.3-17.3,4.9c-3.5-0.1-6.5-2.3-8.6-4.9
		c-2,2.5-4.8,4.9-8.2,4.9c-4.1,0.1-8.2,0.5-12.2-0.4c-4.2-1.3-6.5-5.8-6.5-10C445.8,780.9,445.4,770.9,444.3,760.9 M550.8,761
		c2.6-2.2,5.2-4.5,8-6.4c0,13.1,0.1,26.2,0,39.3c-0.6,3.3-1.6,7-4.2,9.3C553,789.1,552,775,550.8,761 M487.4,772.6
		c1.4-1.7,3-3.3,4.6-4.8c1.5,1.5,3.1,3,4.6,4.5c-1.5,1.6-3,3.2-4.5,4.7C490.5,775.5,489,774,487.4,772.6 M497.4,772.3
		c1.5-1.5,3.1-3,4.6-4.5c1.5,1.5,3.1,3,4.6,4.6c-1.5,1.6-3.1,3.2-4.6,4.7C500.4,775.5,498.9,773.9,497.4,772.3 M594.4,774.5
		c1.7-2.1,3.5-4.1,5.3-6.1c1.5,6,2.4,12.1,3.7,18.1c0.6,2.3,1.6,5.4,4.4,5.4c3.6,0.3,7.3,0.5,10.8-0.4c3.7-1.4,2.2-6.6,5.3-8.3
		c2.7,1.7,1.8,5.6,4,7.8c1.8,1.3,4.5,1.3,6.4,0.3c2.9-1.7,1.6-6.6,4.7-7.9c2.1,0.6,1.7,3.4,2.5,5.1c0.5,3.5,5.1,4.4,7.7,2.7
		c2.6-2,1.5-6.6,4.7-8c2.7,2.2,1.3,7.3,5.2,8.4c4.1,0.7,8.5,0.7,12.6,0.1c3.8-1,2.9-5.8,5.1-8.2c2.8-0.2,2.4,3.5,3.4,5.3
		c0.7,3.5,5.4,4,7.9,2.3c2.7-1.9,1.3-6.9,4.9-7.7c2.3,2.3,1.1,6.7,4.3,8.2c2.5,1,7.2,0.9,7.2-2.6c-0.6-2-1.9-3.7-3.1-5.4
		c1.4-2.2,2.8-4.3,4.3-6.4c3,4.3,4.4,9.6,3.2,14.8c-0.8,4.5-3.8,9.8-9,9.6c-3.3,0.3-5.8-2.2-7.6-4.6c-1.8,2.4-4.2,5-7.5,4.6
		c-3.2,0.2-5.5-2.3-7.3-4.6c-3.8,5.9-11.6,4.8-17.6,4.5c-2.9-0.2-4.7-2.5-6.4-4.5c-1.8,2.5-4.4,5-7.7,4.6c-3.2,0.2-5.3-2.4-7.1-4.6
		c-1.7,2.2-3.8,4.7-6.9,4.6c-3.4,0.4-6-2.1-7.8-4.6c-3.7,5.7-11.1,4.8-17,4.5c-4.5-0.3-6.5-5-7.9-8.6c-1,1.6-1.9,3.2-2.9,4.8
		c-4.7-0.4-10.9,0.4-14.2-3.7c-0.4-3.2,0.8-6.6,2.5-9.3c3-3.1,7.1-4.9,11-6.7C595.2,777,594.6,775.3,594.4,774.5 M587.4,787.9
		c3.4,1.8,7.4,1.8,11.2,1.9c-0.7-2.4-1.3-4.8-2-7.2C593.4,784,590.1,785.4,587.4,787.9 M394.9,778.9c2.7-2.5,7.2-3.5,10.4-1.4
		c2.7,1.8,4,5,4.3,8.1c-4.5-1.5-10-2.3-14.1,0.7c-1.8,1.4-4,3.1-4,5.6c3.8,4.5,11.9,0.9,15.1,6.2c2.2,6.2-0.2,13.9-5.9,17.5
		c-5.8,3.7-13,4.3-19.8,4.1c-4.8-0.1-10.2-1.5-13.1-5.7c-3.1-4.5-2.7-10.3-1.2-15.3c1-3,1.7-6.5,4.4-8.5c2.5,0,1.9,2.6,1.4,4.2
		c-1,3.5-2.7,7.3-0.9,10.8c1.9,3.8,6.5,4.9,10.4,5.2c6.1,0.2,12.5-0.2,18.3-2.5c1.4-0.6,3.6-2.2,2.7-4c-4.3-2.4-10-0.8-14.1-3.8
		c-3-2.4-2.3-6.7-1.2-9.9C389.1,786,391.5,782,394.9,778.9 M752.2,782.1c3-4.1,9.8-4.5,13.1-0.6c3.1,3.7,4,8.8,3.6,13.5
		c-0.2,4-3.9,7.3-7.9,7.1c-3.7,0.4-6.7-2.2-8.7-4.9c-1.1,1.2-2,2.7-3.5,3.4c-3.3,1.6-7.4,0-10.7,1c-0.6,6.8-3.2,14.2-9,18.2
		c-5.2,0.2-10.6-0.1-15.4-2.2c6.4-2.6,12.3-6.3,17.2-11.2c1.5-1.5,2.3-3.4,3.2-5.2c-4.1-0.2-8.3,0.3-12.2-1.2
		c-2.8-1.2-3.5-4.5-3.1-7.2c0.6-4.2,2.2-8.2,5-11.4c2.2-2.6,6.5-2.7,9-0.4c3.2,2.7,4.3,7,5.3,10.9c3.8-0.1,7.8,0.4,11.5-0.6
		C749.9,788.2,749.8,784.6,752.2,782.1 M757.4,784.2c-1.6,3-0.1,6.8,1.6,9.4c1,1.8,4.1,2.5,5,0.2c0.9-3.3-0.5-6.9-2.7-9.3
		C760.5,783.4,758.2,782.8,757.4,784.2 M723.4,790.8c2.2,2.6,6.1,1.1,9,1.2c-1.4-2-3-4.2-5.6-4.6
		C724.9,786.9,722.8,788.7,723.4,790.8 M426.2,790.5c1.2-2.7,2.5-5.3,3.8-8c9.8,7.6,9.7,23.3,2.1,32.5c-1.4,1.5-2.7,3.8-5,3.8
		c-5,0.2-10-0.4-14.7-2c7.2-3.4,15.1-7,19.5-14C434.5,797.8,429.2,793.7,426.2,790.5 M470.2,808c1.7,1.6,3.4,3.3,5.1,5
		c-1.7,1.7-3.4,3.4-5.1,5.1c-1.7-1.7-3.4-3.4-5-5C466.9,811.3,468.5,809.6,470.2,808L470.2,808z"/>
	<path class="st2" d="M817.3,753.1c6.7,2.2,13.7,3.4,20.7,4.3c6.6,0.7,12.5-3.4,18.9-4c1.8,0.6,1.3,2.9,0.8,4.2
		c-1.7,3.3-5.2,5.1-8.4,6.7c-5.2,2.3-10.7,4.2-16.5,4.7c-5.2,0.5-10-2.1-15.1-2.4c-2.6,0.6-3.6,3.8-5.9,4.9c-3,0.3-3.2-3.6-2.6-5.7
		C810.9,761.1,813.7,756.7,817.3,753.1 M325.5,789.9c5.6-5.1,11.5-10,17.7-14.4c0.4,22.1,0.1,44.3,0.2,66.4c0.1,4.4-0.5,9.1,1,13.3
		c1.4,3.9,5.6,5.9,9.4,6.2c110,0,220.1,0,330.1,0c2.1-0.1,4.4-0.2,6.3-1.3c1.6-1.3,1-3.6,1.1-5.3c-0.4-7,3-13.7,8-18.4
		c6.6-6.3,17.8-6.8,25-1.2c5.9,4.8,8.9,12.2,10.4,19.5c1,6.2,1.7,12.8-0.4,18.8c-2.6,7.5-10.7,12.2-18.5,11.6
		c-8,0.1-14.8-5.5-18.8-12c-3.1,6-9.3,10.7-16.3,10.3c-109.3,0-218.6,0-327.9,0c-7.4,0.4-14.9-3.4-18.7-9.8
		c-4.5-7.1-4.5-15.8-4.5-23.8C329.1,829.8,327.8,809.8,325.5,789.9 M711.2,842.3c-2.4,0.8-3.4,3.3-3.5,5.7
		c-0.5,5.9,1.5,11.7,4.5,16.7c1.6,2.6,4.3,5.1,7.7,4.8c2.6,0,4.6-2.2,5-4.6c1.6-6.7-1.3-13.5-5.2-18.8
		C717.9,843.4,714.6,841.1,711.2,842.3 M838.9,777.9c1-0.9,2.3-1.5,3.6-1.9c0.2,28.6,0,57.3,0.1,85.9c0.5,7.7-3,14.8-5.9,21.7
		c-0.8,1.7-1.6,3.5-3.3,4.5c-1.5-5.5-1.5-11.3-2.1-17c-2.4-26.9-4.9-53.9-7.2-80.8C829,786.2,833.9,782,838.9,777.9 M252.1,833.6
		c3.9-3.9,7.7-7.8,11.6-11.6c3.9,3.8,7.6,7.7,11.5,11.5c-3.8,4.1-7.8,7.9-11.7,11.8C259.8,841.4,256,837.5,252.1,833.6 M783.5,839.9
		c0.7,0.4,1.3,0.8,2,1.3c9.8,9.5,15.7,23,15.3,36.7c0.2,15-5.6,30.1-16.2,40.7c-2.2,2-4.2,5.2-7.6,4.9c-11.4-0.2-23.2-0.5-33.9-5
		c2.6-1.8,5.7-2.6,8.6-3.9c9.8-4.3,18.8-10.2,26.9-17.1c4.3-3.8,8.4-8.1,10.5-13.6c1.2-3.1,1.1-6.6-0.6-9.4
		c-3.4-6.2-8.3-11.5-13.7-16.1C777.6,852.2,780.6,846,783.5,839.9 M293.3,843.7c0.9,0.7,1.8,1.4,2.4,2.3
		c8.4,12.3,14.9,26.6,14.4,41.8c-0.1,10.6-2.7,22-10.6,29.5c-8.1,7.7-19.6,10-30.4,11c-10.5,0.7-21.7,1.4-31.6-3.1
		c-9.1-3.9-15.6-12.8-17-22.5c-1.6-9.4,1.2-18.6,4.1-27.5c1.6-4.3,3-9,6.4-12.3c1.4-1.5,4.4-1.7,5.5,0.3c1.7,3.5-0.4,7.3-1.3,10.8
		c-2.5,7-4.7,15-1.4,22.1c2.9,6.7,10.3,9.7,17.1,10.6c10.5,1.3,21.3,0.9,31.7-1.3c6-1.5,12.6-3.3,16.5-8.4c2.8-3.8,1.6-8.8-0.4-12.6
		c-3.9-7.7-8.8-15-14.8-21.1C287,856.7,290,850.2,293.3,843.7L293.3,843.7z"/>
</g>
</svg>
