<svg viewBox="0 0 48 48" fill="none" xmlns="http://www.w3.org/2000/svg">
<path d="M6.72164 0C2.69048 0 0 2.68997 0 6.72036V41.2796C0 45.31 2.69048 48 6.72164 48H41.2784C45.3095 48 48 45.31 48 41.2796V6.72036C48 2.68997 45.3095 0 41.2784 0L6.72164 0Z" fill="#752D1E"/>
<path d="M2.0247 6.81155C2.0247 3.93009 3.93996 2.0152 6.82196 2.0152H41.1872C44.0692 2.0152 45.9844 3.93009 45.9844 6.81155V12.9574C45.9844 19.6778 43.5858 23.6079 39.3631 23.6079C32.0669 23.6079 23.2385 14.4894 15.8419 14.4894C10.1782 14.4894 5.28064 18.228 2.0247 26.3891V6.81155ZM45.9935 41.1793C45.9935 44.0608 44.0783 45.9757 41.1963 45.9757H6.82196C3.93996 45.9757 2.0247 44.0608 2.0247 41.1793V35.0334C2.0247 28.3131 4.42333 24.383 8.64602 24.383C15.9422 24.383 24.7707 33.5015 32.1672 33.5015C37.8309 33.5015 42.7285 29.7629 45.9935 21.6018V41.1793ZM6.72164 0C2.69048 0 0 2.68997 0 6.72036V41.2796C0 45.31 2.69048 48 6.72164 48H41.2784C45.3095 48 48 45.31 48 41.2796V6.72036C48 2.68997 45.3095 0 41.2784 0H6.72164V0Z" fill="#D99D2A"/>
</svg>
