<?xml version="1.0" encoding="utf-8"?>
<!-- Generator: Adobe Illustrator 25.3.1, SVG Export Plug-In . SVG Version: 6.00 Build 0)  -->
<svg version="1.1" id="Layer_1" xmlns="http://www.w3.org/2000/svg" xmlns:xlink="http://www.w3.org/1999/xlink" x="0px" y="0px"
	 viewBox="0 0 1080 1080" style="enable-background:new 0 0 1080 1080;" xml:space="preserve">
<style type="text/css">
	.st0{fill:#CF9D2A;}
	.st1{fill:#522D1D;}
</style>
<g>
	<path class="st0" d="M101.5,0h874.4c15.2,6.7,30.4,14.1,45,21.9c23.6,13.5,39.9,37.7,49.5,62.4c10.7,28.7,7.3,59.6,7.9,89.4
		c0,258.7,0,517.3,0,776c0,46.1-22.5,96.2-66.4,115.3c-30.4,16.3-66.4,12.9-99.5,12.9c-226.6,0-453.8,0-680.4,0
		c-45.5,0.6-92.2,5.6-137.2-2.8c-52.3-14.1-94.5-64.7-92.8-119.8c-0.6-275.5,0-551.6,0-827.2C1.4,104,7.6,78.7,22.2,59
		C41.3,31.5,71.7,14.1,101.5,0 M94.7,47.8C54.8,68,30.6,113,31.7,156.9c0.6,142.8,0,285.1,0,427.9C46.9,564,57.6,541,71.1,519
		c30.4-48.4,65.8-95,111.3-130.5c59-48.4,138.9-72.5,215.4-59c61.3,15.2,116.4,46.7,172.1,74.8c76.5,41,151.8,84.9,233.4,115.3
		c46.1,14.6,97.8,28.7,144.5,9.6c42.2-15.7,68.6-57.4,81-99c9.6-36,18.6-72.5,18-110.2c0-58.5,0-116.4,0-174.9
		c0.6-58.5-52.3-111.3-110.8-110.8c-249.1,0.6-498.8,0-748.5,0C156,35.4,122.3,30.9,94.7,47.8 M998.9,580.9
		c-33.7,52.9-77,100.7-130.5,134.4c-55.1,33.2-122,49.5-185.6,37.1c-68.6-15.7-129.9-51.7-192.3-83.8
		c-86.6-45.5-173.2-97.8-269.9-117.5C174.6,540.4,120,550,88.5,587.6c-37.1,41-46.1,99-55.1,151.8c-3.4,60.7,0,122-1.7,183.3
		c-2.2,47.2,25.3,95,68.6,115.3c27,13.5,57.9,9.6,86.6,9.6c236.2,0,472.4,0,708.5,0c24.7-0.6,50.6,2.2,74.8-6.2
		c45.5-16.9,78.7-64.1,75.9-113c-0.6-141.1,1.1-281.7-0.6-422.9C1027.6,529.2,1015.8,556.7,998.9,580.9L998.9,580.9z"/>
	<path class="st1" d="M94.7,47.8c28.1-16.9,61.3-12.4,92.2-12.9c249.7,0,498.8,0,748.5,0c58.5-0.6,111.3,52.9,110.8,110.8
		c0,58.5,0,116.4,0,174.9c0.6,37.7-8.4,74.2-18,110.2c-12.4,41.6-38.2,83.2-81,99c-47.2,19.1-98.4,5.1-144.5-9.6
		c-81.5-30.4-156.9-74.2-233.4-115.3c-55.7-28.1-110.8-59.6-172.1-74.8c-75.9-13.5-155.8,10.7-215.4,59
		c-45.5,35.4-81,82.1-111.3,130.5c-13.5,21.9-24.2,45-39.4,65.8c0-142.8,0.6-285.1,0-427.9C30.6,113,54.8,68,94.7,47.8 M998.9,580.9
		c16.9-24.2,28.7-51.7,46.7-75.9c1.7,141.1,0,281.7,0.6,422.9c2.8,48.9-30.4,96.7-75.9,113c-24.2,8.4-50,5.6-74.8,6.2
		c-236.2,0-472.4,0-708.5,0c-29.2-0.6-59.6,3.9-86.6-9.6C57,1017.8,28.9,970,31.7,922.2c1.1-61.3-1.7-122.6,1.7-183.3
		c9-52.9,18-110.2,55.1-151.8c32.1-37.1,86-47.2,132.1-36.6C318,570.8,404,622.5,490.6,668c62.4,31.5,123.7,67.5,192.3,83.8
		c63.5,11.8,130.5-3.9,185.6-37.1C921.9,682.1,965.2,634.3,998.9,580.9"/>
</g>
</svg>
