<?xml version="1.0" encoding="utf-8"?>
<!-- Generator: Adobe Illustrator 24.3.0, SVG Export Plug-In . SVG Version: 6.00 Build 0)  -->
<svg version="1.0" id="Layer_1" xmlns="http://www.w3.org/2000/svg" xmlns:xlink="http://www.w3.org/1999/xlink" x="0px" y="0px"
	 viewBox="0 0 607 570.2" style="enable-background:new 0 0 607 570.2;" xml:space="preserve">
<style type="text/css">
	.st0{fill:#015BAA;}
</style>
<g>
	<path class="st0" d="M281.5,62.9c9.4-1.5,19.1,0.6,27.5,5c14,7.6,23.6,22.9,23.6,38.9c0.8,18.8-11.9,36.8-29.5,43.1
		c-11.4,4.2-24.5,3.7-35.3-1.8c-10.2-4.9-18.3-13.8-22.4-24.4c-4.4-11.6-3.9-25,1.6-36.1C253.5,74.3,266.8,64.7,281.5,62.9
		 M202.6,130.6c6.3-0.8,12.8-0.6,18.7,2c10.4,4.1,18.4,13.6,20.6,24.6c3.3,14.4-4.4,30.2-17.6,36.8c-11.7,6.4-27.2,4.6-37.3-4.1
		c-11-8.9-15.2-25-9.9-38.1C181.2,140.9,191.3,132.7,202.6,130.6 M361.5,130.4c10.1-1.4,20.8,1.7,28.1,8.8c9.7,8.9,13.4,23.6,8.8,36
		c-3.1,8.7-9.9,15.9-18.3,19.6c-10.5,4.8-23.5,3.5-33-3.2c-10.4-7.2-16.3-20.5-14.1-33C335.1,144.4,347.3,132.4,361.5,130.4
		 M282.6,175.5c10.5-1.6,21.6,2.2,29,9.8c9.3,9.3,12.3,24.2,7.3,36.3c-4.2,10.5-14.1,18.6-25.3,20.7c-6.9,0.8-14.2,0.6-20.5-2.6
		c-9.6-4.6-16.9-13.8-18.9-24.3c-1.3-7.2-0.5-15,3-21.5C262,184.1,271.8,177.1,282.6,175.5 M216.6,220.5c8.9-1.4,18.4,3.1,22.9,10.9
		c6,9.6,3,23.2-6.1,29.6c-6.4,4.8-15.5,5.6-22.8,2.3c-7.8-3.6-13.2-11.9-13-20.6C197.2,231.9,205.9,222,216.6,220.5 M349.5,221
		c10.9-3.2,23.6,3.5,27,14.3c3.9,10-1,22.3-10.4,27.3c-8.5,4.9-20,3-26.9-3.9c-5.5-5.6-7.9-14.2-5.7-21.7
		C335.4,229.3,341.8,223,349.5,221 M280.6,266.4c13-4.7,28.6,5.5,29.3,19.4c1.4,11.2-7.1,22.4-18.2,24.3c-8.5,1.7-17.8-2-22.7-9.2
		c-4.9-6.8-5.5-16.3-1.4-23.6C270.5,272.3,275,268.1,280.6,266.4 M226.6,311.4c6.1-3,14.1,0.9,15.6,7.5c2.1,6.9-4,14.3-11,14.1
		c-5.3-0.1-10.3-4.1-11.1-9.4C219.1,318.7,222,313.5,226.6,311.4 M340.5,311c6.3-2.3,13.8,2.2,14.7,8.9c1.7,7.6-6.2,15-13.6,12.8
		c-5-1-8.8-5.8-8.8-10.9C332.6,317,335.9,312.5,340.5,311 M284.6,333.4c5-1.3,10.9,1,13,5.9c3,5.7,0,13.7-6.3,15.7
		c-6.5,2.6-14.5-2.3-15-9.3C275.5,340.2,279.3,334.6,284.6,333.4 M182.9,387c2.5-2.5,5.2-4.7,8.3-6.6c2.4,0.5,2.1,3.5,2.4,5.4
		c0.1,10.4,0.1,20.7,0.2,31.1c0.1,3.8-1.4,7.3-2.9,10.7c-0.5,1.7-2.3,2.2-3.7,3.1c-2.5-8.8-2.3-17.9-3.2-26.9
		C184,398.1,182.7,392.6,182.9,387 M349.1,389.6c8.4-3.4,16.9-6.6,25.7-8.9c-1,3.9-1.8,7.8-3.2,11.5c-5.9,2.7-12.4,3.9-18.4,6.4
		c3.5,3.9,7.3,7.5,10.9,11.2c3.2,3.1,6.6,6.3,11,7.3c7.7,0.8,15.5-0.1,22.7-3.1c-2.7-0.9-5.5-2.2-8.5-2.1c-2.9,1.3-5.1,4.6-8.7,3.6
		c-0.6-6.5,3.9-13.8,10.6-14.7c5.8,0.4,10.7,3.8,16.1,5.8c4.2,1.8,8.9,2.2,13.4,2.4c-2,3.4-4.1,6.7-6.1,10.1
		c-10.6,0.2-18.7,8.5-29.1,9.8c-4,0.5-8.1,0.7-12,0.2c-5.1-1.3-9.1-5.1-12.8-8.7c-2.3,3.6-5.3,7.2-9.7,8.2
		c-5.2,1.2-11.3,1.6-15.9-1.6c-4.4,3.8-10.9,3.3-15.1-0.6c-3.9,3.1-9.2,3.8-13.8,2.2c-2.2-0.9-3.8-2.8-6-3.9
		c-9.8,5.3-21.2,6.5-32,4.7c-4.3-0.8-8.9-2.9-10.7-7.2c-2.4-5.4-1.4-12.1,2.2-16.8c1.1-1.8,3.4-0.8,5.1-1c0.3,3.3-1.4,6.6-0.3,9.8
		c3.2,4,8.9,3.8,13.4,3.9c6.1-0.2,12.5-0.6,18.1-3.2c3.5-1.6,5.7-4.8,8.9-6.9c4,1.5,2.3,5.9,2.2,9c2.6,0.2,5.3,0.3,8,0.2
		c0.7-3.8,1.5-8.1,4.6-10.8c4.1-3.3,10.9-2.7,14.1,1.5c2.2,2.8,3,6.4,5.4,9c5,0.7,10.2,0.6,15.1-0.9c-2.8-5.6-7.7-9.6-12.4-13.4
		c0.7-3.4,1.1-6.9,2-10.3C345.4,391.1,347.3,390.4,349.1,389.6 M326.5,411.2c-0.5,3.4,0,7.1,2.7,9.5
		C332.4,417.8,329.3,413.2,326.5,411.2 M460,391.7c9.6-4.7,19.8-8.1,30.1-11c-1.1,4-2.2,8-3.3,12c-6.2,1.6-12.3,3.8-18.3,6
		c5.6,5.8,10.7,12.1,17.4,16.6c4.1,3,9.4,2.1,14.2,1.9c-1.4-2.2-3-4.4-4.7-6.4c2.1-3.5,4.3-7,6.7-10.2c2.3,3.6,5,7.3,5.3,11.7
		c0.5,4.7-0.2,9.9-3.4,13.5c-3.7,3.9-9.6,4.1-14.7,3.6c-5.7-1-9.9-5.3-13.8-9.2c-3.5,7.3-11.9,9.9-19.4,10
		c-7.8-0.1-16.3,1.1-23.4-2.9c-7.4-4.2-7.3-15.2-2.6-21.4c1.2-1.9,3.6-1.4,5.5-1.4c0,3.1-1.2,6.2-0.8,9.3c2.3,3.8,7.3,4.1,11.2,4.4
		c7.8,0,15.9,0.7,23.5-1.9c-2.8-5.6-7.7-9.7-12.4-13.6C458.1,399,457.7,394.7,460,391.7 M112.5,388.5c2.8-2.6,5.6-5.4,9-7.1
		c0.4,1.6,0.9,3.1,1.1,4.7c0.9,10.4,0.7,20.8,1.3,31.2c6.1,0.5,12.2,0.3,18.3,0.3c2.4-0.1,5.2,0.1,7.2-1.5c1.4-2.1,1.7-4.8,2.5-7.2
		c1.5,0,3.1,0.1,4.6,0.1c1,2.6,0.8,6.3,3.4,8c4.1,1.1,8.4,0.5,12.5,0.3c-1.5-2.2-3.1-4.4-4.7-6.4c2.3-3.3,4.4-6.6,6.5-10
		c3.6,4.1,6.2,9.3,5.7,14.9c0.2,5.3-2.4,11.1-7.6,13c-6,1.9-13.3,1.9-18.1-2.8c-2.9,2-6.2,4-9.9,3.9c-6.7,0-13.3,0.3-20-0.2
		c-4.6-0.3-8.8-4.1-9.2-8.8C114.5,410,114.2,399.2,112.5,388.5 M235.9,388c2.5-2.5,5.2-4.8,8.3-6.6c2.3,0.2,2,2.9,2.4,4.6
		c0.4,9.9,0.1,19.9,0.3,29.8c0.2,5.9-1.6,12.2-6,16.3c-2.6-5.5-2.5-11.7-3.1-17.7C237.3,405.7,236.2,396.8,235.9,388 M508.4,388.1
		c2.5-2.3,4.9-4.9,7.7-6.8c2.5,0.5,2.1,3.5,2.4,5.5c0.4,10.1,0.7,20.2,1.2,30.2c4.2,0.4,8.4,0.4,12.6,0.1c-1.5-2.2-3-4.4-4.6-6.5
		c2-3.1,3.8-6.3,5.9-9.4c0.3,0,0.9,0,1.2,0c3,3.5,5,8,5,12.7c0.2,4.8-1,10.5-5.3,13.3c-4.2,2.7-9.4,2.3-14.2,2.1
		c-4.7-0.2-9.2-4-9.5-8.8C510.3,409.7,509.8,398.9,508.4,388.1 M170.6,382.3c2.2,2.1,4.4,4.2,6.7,6.3c-2.1,2.1-4.1,4.2-6.2,6.3
		c-2.1-2.1-4.3-4.2-6.4-6.3C166.6,386.5,168.6,384.4,170.6,382.3 M492.4,388.1c2-2,3.9-4,5.8-6.1c2.2,2,4.4,3.9,6.4,6.1
		c-1.7,2.4-3.9,4.3-5.9,6.5C496.6,392.4,494.5,390.3,492.4,388.1 M272.4,399.5c1.5-2.3,3.7-4.2,5.6-6.2c1.6,1.6,3.2,3.2,4.8,4.8
		c1.5-1.6,3-3.2,4.6-4.8c2.1,2,4.1,4,6.1,6.1c-2.1,1.8-3.9,3.8-6.2,5.4c-1.7-1.3-3-3.1-5-3.9c-1.5,1.3-2.9,2.8-4.2,4.3
		C276.2,403.2,274.2,401.5,272.4,399.5 M82.6,405.7c2-2.1,4-4.2,5.9-6.3c2.3,2.1,4.5,4.2,6.6,6.3c-2.1,2.1-4.1,4.2-6.1,6.4
		C86.8,410,84.7,407.8,82.6,405.7 M220.4,410.6c2.1-3.4,4.3-6.9,6.6-10.2c3.4,4.3,6,9.7,5.5,15.4c-0.3,4.3-1.7,9.2-5.7,11.6
		c-4.4,2.6-9.8,1.9-14.7,2c-0.7,6.4-3.4,12.8-8.3,17.1c-2,1.9-5,1.1-7.5,0.9c-4.1-0.7-8.8-0.5-11.8-3.7c3.8-3,8.7-4,12.6-6.8
		c3-2.2,5.8-4.8,7.7-8c-0.8-3.7-4-6.2-6.4-8.9c1.6-4.1,3.4-8.1,5.3-12c2.4,3.4,4.5,7.5,8.6,9.2c4.2,0.8,8.4,0.3,12.6,0.1
		C223.5,414.8,222,412.7,220.4,410.6 M103.6,408.3c6.3,7.2,10,16.9,8.7,26.5c-0.6,4.5-3.5,8.5-7.5,10.5c-6,3.1-12.9,3.5-19.5,3.1
		c-5.5-0.3-10.9-3.6-12.8-8.9c-2.5-7.2-0.3-15.4,4.4-21.1c1.2-2,3.4-0.4,5.2-0.1c-0.2,5.4-5.5,11.7-0.8,16.4
		c4.9,3,11.1,1.9,16.5,1.5c3.3-0.4,9-1.8,7.7-6.2c-1.7-3.9-4.5-7-7.2-10.2C100.1,415.9,101.8,412.1,103.6,408.3 M141.3,439.5
		c1.6-1.6,3.1-3.1,4.7-4.7c1.9,2,3.8,4,5.8,6c-2,2-4,3.9-6,5.8c-1.5-1.5-2.9-3-4.4-4.5c-1.4,1.5-2.8,3.1-4.3,4.6
		c-2-1.9-4.1-3.9-6.1-5.9c2-1.9,4-3.9,6-5.8C138.4,436.5,139.8,438,141.3,439.5 M212.2,440.6c1.6-2.3,3.8-4.1,5.8-6
		c1.5,1.6,3,3.2,4.5,4.7c1.6-1.6,3.1-3.1,4.6-4.7c2,2,4,4,6,6c-2,1.9-3.9,3.8-5.9,5.6c-1.6-1.6-3.2-3.1-4.8-4.7
		c-1.5,1.6-3,3.2-4.5,4.7C216,444.4,213.9,442.7,212.2,440.6 M519.5,441.1c2-2,3.9-4,5.9-6.1c2.2,1.9,4.4,3.9,6.6,5.9
		c-2,2.2-4,4.4-5.9,6.6C523.7,445.4,521.6,443.3,519.5,441.1 M153,464.2c2.5,0,4.9,0,7.4,0c0,8.3,0,16.7,0.1,25
		c3-3.8,6-7.5,8.9-11.3c2.8,0,5.5,0,8.3,0c-3.9,4.6-7.7,9.3-11.6,13.9c4.2,5.9,8.4,11.8,12.5,17.7c-3,0-5.9,0-8.9,0
		c-3-4.8-6-9.5-9.2-14.1c-0.1,4.7-0.1,9.5-0.1,14.2c-2.4,0-4.9,0-7.4-0.1C153,494.4,153,479.3,153,464.2 M254,464.2c2.5,0,5,0,7.5,0
		c0,8.3-0.1,16.7,0.1,25c3-3.7,5.9-7.5,8.9-11.2c2.8-0.1,5.5-0.1,8.3,0c-3.8,4.6-7.7,9.2-11.5,13.8c4.1,6,8.3,11.9,12.5,17.7
		c-3.4-0.5-8.3,1.8-10.2-2.1c-2.7-4-5.2-8.1-8-12c-0.1,4.7-0.1,9.4-0.1,14.2c-2.5,0-5,0-7.5,0C254,494.4,254,479.3,254,464.2
		 M473.7,466.3c2.5-0.9,5.5,0.8,5.6,3.6c0.6,3.5-4.2,6.2-6.8,3.6C469.7,471.7,470.8,467.2,473.7,466.3 M66.7,471.6
		c4.1-3.1,9.5-2.8,14.3-2.5c5.1,0.4,10.1,4.3,10.3,9.7c0.6,3.9-1.9,7.2-4.4,9.9c2.2,1.9,4.5,3.9,5.3,6.8c1.3,4.9-0.7,10.8-5.4,13.1
		c-6.3,3-13.9,2-20.2-0.4C66.7,496,66.6,483.8,66.7,471.6 M74.4,474.5c-0.1,3.9-0.1,7.9-0.1,11.8c3-0.4,6.8,0.1,8.8-2.6
		c1.4-2.9,1.1-7.5-2.2-9C78.8,474.2,76.6,474.5,74.4,474.5 M74.4,491.2c0,4.3,0,8.7,0,13c3.4,0.2,8,1,9.8-2.7
		c0.7-2.4,0.9-5.1-0.2-7.4C81.9,491,77.7,491.5,74.4,491.2 M194,469.5c2.6,0,5.3,0,7.9-0.1c0,5.5,0,11,0,16.5c3.7,0,7.3,0,11,0
		c0-5.5,0-11,0-16.5c2.6,0,5.2,0,7.8,0c0,13.4,0,26.7,0,40.1c-2.6,0-5.2,0-7.8,0c0-5.8,0-11.6,0-17.5c-3.7,0-7.3,0-11,0
		c0,5.8,0,11.6,0,17.4c-2.6,0-5.3,0-7.9,0C194,496.2,194,482.9,194,469.5 M354.9,471.7c2.3-1.3,4.9-1.9,7.4-2.7c0,3,0,5.9,0.1,8.9
		c1.7,0,3.4,0,5.1,0c0,1.8,0,3.6,0,5.4c-1.7,0-3.4,0-5.1,0c0.1,6.6-0.2,13.3,0.2,19.9c1.7,0.3,3.3,0.7,5,1c-0.1,1.9-0.2,3.8-0.3,5.6
		c-2.8,0.1-5.9,0.8-8.4-0.8c-2.9-1.7-4-5.2-4-8.3c-0.1-5.8,0-11.6,0-17.4c-1.2,0-2.4,0-3.5-0.1c0-1.8,0-3.6,0-5.4
		c1.2-0.1,2.3-0.1,3.5-0.2C354.8,475.8,354.7,473.7,354.9,471.7 M385.4,469.5c2.6,0,5.2,0,7.9,0c0,13.3,0,26.7,0,40
		c-2.6,0-5.3,0.1-7.9,0.1C385.4,496.2,385.4,482.9,385.4,469.5 M124.4,479.2c5.8-1.8,12.3-3,18.2-0.8c3.4,1.2,5.4,4.8,5.3,8.4
		c0.1,7.6,0,15.2,0,22.9c-2.5,0-4.9,0-7.4,0c-0.1-7.9,0.3-15.8-0.2-23.7c-1.1-3.9-5.8-2.6-8.8-2.8c-0.2,8.8,0,17.7-0.1,26.5
		c-2.5,0-5-0.1-7.5-0.1C124.2,499.4,123.6,489.3,124.4,479.2 M398.5,479.2c5-2,10.4-2.3,15.6-1.9c-0.4,2-0.9,4.1-1.3,6.1
		c-2.3-0.2-4.7-0.3-7-0.3c-0.1,8.8,0,17.7,0,26.5c-2.5,0-4.9,0-7.3,0C398.4,499.5,398.3,489.3,398.5,479.2 M484.3,479.4
		c5.4-2,11.6-3.4,17.1-0.8c3.4,1.6,4.6,5.6,4.7,9.1c0.4,6.9,0.3,13.8-0.2,20.7c-5.8,2-12.3,3-18.1,0.7c-6.3-3-6.9-13-1.2-16.8
		c3.7-2.9,8.6-3.2,13-4.2c-0.6-1.6-1-3.3-2.2-4.6c-3.8-1.3-7.8,0.1-11.5,1.2C485.4,482.9,484.8,481.2,484.3,479.4 M493,494.8
		c-3.4,1.4-3.9,6.4-1.9,9.1c2.4,1.3,5.2,1.1,7.8,1.1c0.2-4,0.2-8,0-12C496.9,493.5,494.9,493.9,493,494.8 M511,479.3
		c5.4-1.8,11.4-2.9,17.1-1.4c3.9,1,6.9,4.9,6.8,8.9c0.1,7.6,0,15.2,0,22.8c-2.5,0-5,0-7.5,0c0-7.3,0.1-14.6,0-21.9
		c0.1-2-1.3-4.5-3.6-4.6c-1.8-0.2-3.6-0.1-5.4-0.1c-0.1,8.8-0.1,17.7-0.1,26.5c-2.5,0-4.9,0-7.4,0C511,499.5,511,489.4,511,479.3
		 M97.4,479.5c5.3-2,11.6-3.5,17-1c3.7,1.8,5,6.3,5,10.2c-0.1,6.3,0.2,12.7-0.1,19c-1.7,1.8-4.4,1.9-6.6,2.4
		c-4.6,0.6-9.8,0.8-13.6-2.3c-4.4-3.8-4.2-11.3,0-15.1c3.8-3.3,9-3.6,13.7-4.6c-0.6-1.6-1.2-3.4-2.4-4.7c-3.8-1.1-7.7,0.1-11.4,1.4
		C98.5,483,98,481.2,97.4,479.5 M105,495.5c-2.3,2-2.6,5.6-0.9,8.1c2.4,1.8,5.5,1.4,8.3,1.3c0-4,0-8,0-12
		C109.9,493.7,107.1,494,105,495.5 M227.7,482.3c4.3-6.7,15.9-7,19.9,0.1c2.2,3.5,2.3,7.8,2.4,11.8c-6.1,1-12.3,1.6-18.3,3
		c1,2.5,1.9,5.5,4.7,6.6c3.7,1.2,7.6-0.2,11.1-1.4c0.6,1.9,1.2,3.8,1.7,5.7c-4.3,1.8-9,3-13.6,2c-3.9-0.6-7.4-3.2-8.9-6.8
		C223.7,496.6,223.8,488.5,227.7,482.3 M234.9,483.4c-2.5,2-2.8,5.3-3.6,8.2c4,0,7.9-1,11.8-1.6c-0.5-2.2-0.7-4.9-2.7-6.4
		C238.7,482.6,236.6,482.8,234.9,483.4 M280.9,479.8c6.1-3.3,14.2-3.8,20.3,0c4.1-2.2,9.1-3.5,13.7-1.8c3.6,1.2,6.1,5,6,8.8
		c0.1,7.6,0,15.2,0,22.8c-2.4,0-4.9,0-7.3,0c0-7,0-13.9,0-20.9c0.1-2-0.4-4.1-2-5.4c-2.3-0.5-5-0.6-6.8,1.1
		c-0.5,8.4,0,16.8-0.2,25.2c-2.5,0-5,0-7.5-0.1c-0.1-7.9,0.3-15.8-0.1-23.6c-0.6-3.9-5.6-2.8-8.5-2.9c-0.2,8.8-0.1,17.7-0.1,26.5
		c-2.5,0-5,0-7.5,0C280.9,499.6,280.6,489.7,280.9,479.8 M326.2,479.4c5.2-1.9,11.1-3.3,16.4-1.1c3.4,1.2,5.2,5,5.3,8.4
		c0.2,7.2,0.1,14.4,0,21.6c-5.8,2-12.4,3.2-18.2,0.7c-6.2-2.8-6.8-12.3-1.7-16.4c3.8-3.1,8.9-3.5,13.4-4.6c-1-1.7-1.1-4.8-3.6-4.9
		c-3.4-0.6-6.8,0.6-10,1.6C327.2,483,326.7,481.2,326.2,479.4 M333.8,495.4c-2.4,1.5-2.1,4.7-1.9,7.2c1.9,3,5.8,2.5,8.8,2.4
		c0.1-4,0.1-8,0.1-12.1C338.4,493.6,335.9,494.1,333.8,495.4 M415.9,479.4c4.8-1.7,10-3,15.1-1.6c4,1,6.7,5,6.7,9.1
		c0.2,7.2,0.1,14.3,0,21.5c-5.7,2-12.2,3.1-18,0.9c-6.7-2.6-7.1-13.3-1.3-17.1c3.7-2.6,8.4-3.1,12.7-4c-0.7-1.6-1.1-3.3-2.2-4.6
		c-3.8-1.1-7.8,0.2-11.4,1.2C417,482.9,416.4,481.1,415.9,479.4 M423.6,495.3c-2.2,1.7-2.5,4.8-1.7,7.3c1.6,3.2,5.7,2.4,8.6,2.5
		c0.2-4,0.2-8.1,0.1-12.1C428.2,493.6,425.7,494,423.6,495.3 M442.6,479.3c5.5-1.9,11.6-2.9,17.4-1.4c3.8,1,6.5,4.8,6.5,8.7
		c0.1,7.6,0,15.2,0,22.9c-2.5,0-5.1,0-7.6,0c-0.1-7.8,0.3-15.7-0.1-23.5c-0.9-4-5.8-2.9-8.8-3c-0.2,8.8-0.1,17.6-0.1,26.5
		c-2.4,0-4.9,0-7.3-0.1C442.6,499.5,442.5,489.4,442.6,479.3 M471.4,477.9c2.5,0,5,0,7.5,0c0,10.6,0,21.1,0,31.7c-2.5,0-5,0-7.5,0
		C471.5,499,471.5,488.4,471.4,477.9L471.4,477.9z"/>
</g>
</svg>
