<?xml version="1.0" encoding="utf-8"?>
<!-- Generator: Adobe Illustrator 24.3.0, SVG Export Plug-In . SVG Version: 6.00 Build 0)  -->
<svg version="1.0" id="Layer_1" xmlns="http://www.w3.org/2000/svg" xmlns:xlink="http://www.w3.org/1999/xlink" x="0px" y="0px"
	 viewBox="0 0 1080 1080" style="enable-background:new 0 0 1080 1080;" xml:space="preserve">
<style type="text/css">
	.st0{fill:#2F3394;}
</style>
<g>
	<path class="st0" d="M518.8,126.1c6.2-4.7,13.6-8.4,21.6-8c7.7,0,15,3.9,20.2,9.4c9,9.3,18.7,18,27.7,27.3
		c7.2,6.1,13.4,13.3,20.4,19.6c1.1,1,2.1,2.2,3.1,3.5c-18.8,0.8-37.7-0.1-56.5,0.4c-5.7,0.6-11.5,0.3-17.2,0.4
		c-29.6,29.6-59.2,59.2-88.9,88.9c-7.9,7.8-15.5,15.9-23.7,23.3c-16.2,16.2-32.4,32.4-48.6,48.6c0-24.7,0-49.4,0-74.2
		c10.8-10.2,21-21,31.7-31.4c9.5-8.5,17.8-18.1,27.4-26.5c11.2-11.5,23.1-22.3,34.2-33.8c10.8-9.6,20.5-20.3,30.9-30.2
		C507.3,137.8,512.7,131.6,518.8,126.1 M298.8,200.1c8.5,0,17-0.1,25.5,0.1c7.6,0.8,15.3,0.3,23,0.4c18.7,0.1,37.3-0.2,56,0.1
		c-5.7,7.3-13,13-19.4,19.6c-10.5,10.8-21.7,20.7-32.1,31.6c-0.2,18.6,0.5,37.2-0.5,55.8c0,30.7,0,61.3,0,92
		c-0.1,9.3,0.4,18.7-0.5,28c-0.1,16.7,0,33.5,0,50.2c-17.7-17.6-35.3-35.3-53-53c0.2-14.1-0.5-28.2,0.5-42.3c0-29.7,0-59.3,0-89
		c0.2-11-0.4-22,0.5-32.9C298.9,240.5,298.8,220.3,298.8,200.1 M540.7,213.9c4.2-4,8.2-8.2,12.4-12.3c76.1,0,152.2,0,228.3,0
		c0,34.4,0,68.8,0,103.2c-10.6-9.4-20.2-20-30.4-29.8c-7.5-6.5-14.2-13.9-21.3-20.8c-57.7,0-115.5,0-173.2,0
		c-18.7-0.1-37.5,0.3-56.2-0.2c5.2-6,11-11.2,16.5-16.9C525.1,229.8,532.3,221.2,540.7,213.9 M642.8,277.7c24.9-0.3,49.9,0,74.8-0.1
		c8.3,8.6,17.2,16.5,25.6,25.1c6.4,6.3,12.5,12.9,19.3,18.8c14,14,28,28,42,42c11.8,10.9,22.8,22.5,34.2,33.7
		c6.6,5.7,12.4,12.2,18.8,18.2c7.5,7.9,11.9,19.8,8.1,30.4c-2.7,7.9-9.3,13.2-15.3,18.6c-14.8,14.8-29.6,29.6-44.4,44.4
		c0-17.7,0.1-35.5,0-53.2c-0.7-6.6-0.4-13.2-0.5-19.8c-6.9-5.8-12.6-12.9-19.6-18.7c-9.6-9.8-19.7-18.9-29.2-28.7
		c-7.2-6.1-13.3-13.3-20.4-19.5c-4.8-4.5-9.3-9.4-14.1-13.9c-7.2-6.1-13.3-13.4-20.4-19.5c-9.4-9.7-19.4-18.6-28.8-28.2
		c-7.5-6.5-13.9-14.1-21.5-20.5C648.3,283.8,645.1,281.1,642.8,277.7 M521.9,301.2c37.9-4.7,77.7,6.3,107.4,30.6
		c27.8,22.2,46.8,55.5,50.3,91.1c4.4,38.1-9.2,77.5-35.3,105.4c-25.2,27.4-61.6,44.1-98.8,45.3c-6.7-0.2-13.4,0.3-20-0.4
		c-23.5-2.2-46.5-10.3-66.1-23.4c-28-18.8-49.4-47.9-57.3-80.9c-3.9-14.7-4.4-30.1-3.2-45.3c3.6-37.8,24.5-73.2,55.1-95.5
		C473.6,313.4,497.4,304.2,521.9,301.2 M219.5,418.7c17.8-17.7,35.4-35.5,53.2-53.1c0.4,18.3,0,36.7,0.2,55
		c0.6,5.9,0.5,11.8,0.5,17.7c7.6,7.8,15.8,15,23.4,22.9c6.1,5.2,11.5,11.1,17.3,16.7c7.1,6.2,13.3,13.5,20.5,19.6
		c8.7,9,18,17.3,26.7,26.2c6.3,5.3,11.8,11.5,17.8,17.2c5.5,4.8,10.4,10.3,15.7,15.3c6.5,5.4,11.9,12,18.3,17.5
		c4.8,4.3,9.1,9.1,13.8,13.5c3.1,2.7,6.3,5.4,8.8,8.6c-0.1,0.3-0.3,0.9-0.4,1.2c-24.5,0.2-49.1,0-73.6,0.1c-3.1-3.1-6.2-6.3-9.6-9.2
		c-8-7.6-15.4-15.9-23.8-23.2c-11-11-22-22-33-33c-15.8-14.5-30.1-30.6-46-45c-7.7-7.7-15.2-15.5-23.3-22.8
		c-6.1-5.5-11.3-12.3-13.5-20.4C210.3,434.8,213,425,219.5,418.7 M723.8,393.4c13.5,13.7,27.8,26.6,41.4,40.3
		c4.1,3.9,8.7,7.4,12.1,11.9c1.1,3.2,0.4,6.7,0.6,10c0.2,10.3-0.4,20.7,0.5,31c0.1,10,0,20,0,29.9c1,12.7,0.2,25.4,0.5,38
		c1,12.3,0.2,24.7,0.5,37c1,12.3,0.2,24.7,0.5,37c1.1,13.8-0.1,27.7,0.7,41.5c-6.4,0-12.8-0.1-19.2,0c-13.3,1-26.8,0.2-40.1,0.6
		c-14.7,1.2-29.4-0.5-44.1,1c-0.2-0.4-0.6-1-0.8-1.4c11.2-11.3,22.8-22.4,33.6-34.1c5.6-5.6,11.2-11.2,16.9-16.9
		c0-4.9,0.1-9.8-0.4-14.7c-0.4-13,0.4-26-0.6-39c0-9.7,0-19.3,0-29c-1-12.7-0.2-25.4-0.5-38c-1.2-14.3,0.3-28.7-0.9-43.1
		c-0.1-10.3,0.1-20.6-0.1-30.9C723.4,414.2,724,403.8,723.8,393.4 M663.2,573.5c12.7-13.6,26.1-26.4,39.1-39.6
		c0.1,9.2-0.4,18.5,0.5,27.7c0.1,15.4,0,30.8,0,46.3c-12.6,12.5-25.1,25.1-37.7,37.6c-9.9,10.1-20.4,19.6-30.2,29.8
		c-7.6,8-16.1,15.2-23.8,23.2c-11.9,11.8-23.5,23.8-35.7,35.3c-7,6.3-12.6,14.5-21.2,18.7c-7.7,3.9-17.4,4.7-25.2,0.6
		c-4.3-1.7-7.3-5.5-10.8-8.4c-10-9.7-19.9-19.4-30-28.9c-6.3-6.7-13.4-12.5-19.6-19.3c24.3-1.6,48.7-0.3,73-1.4
		C582.1,654.6,622.6,614,663.2,573.5 M295.3,564.3c6,5.8,11.6,11.9,17.9,17.4c11.5,11.4,22.9,22.9,34.3,34.3c56.2,0,112.5,0,168.7,0
		c6.3,0,12.7-0.2,19,0.4c13.8,0.3,27.7-0.3,41.5,0.3c-7.2,7.8-15.2,14.9-22.8,22.4c-5.2,5.5-11.2,10.2-16.3,15.8
		c-4.5,4.8-9.5,8.9-14.1,13.6c-31.1,0-62.2,0-93.3,0c-3.3,0-6.6-0.5-10-0.5c-41.7,0-83.4,0-125,0
		C295.3,633.5,295.3,598.9,295.3,564.3 M1055.3,782.5c12.7-8.7,25.6-17.4,37.5-27.2c-0.8,5.5-4.7,9.8-8.1,13.9
		c-3.8,3.5-8.2,6.3-12.4,9.5c-18.3,13.2-36.9,26-56.1,37.8c-5.5,3.2-10.7,6.9-16.5,9.5c3-5.9,7.4-11.3,13-14.9
		C1026.9,801.5,1041.2,792.1,1055.3,782.5 M835.4,784.7c8.4-7.3,16-15.3,24.2-22.7c-0.7,5.3-4.1,9.7-6.7,14.2
		c-3.6,5-8.5,8.9-12.8,13.3c-13.8,13.1-28.8,24.7-43.9,36.2c-3.4,2.6-6.4,5.6-10.2,7.5c1.7-5.4,4.3-10.6,8.6-14.3
		C808,807.2,822.1,796.5,835.4,784.7 M600.9,813.1c3.2-2.7,7.6-2.6,11.5-2.3c5.5,0.5,11,1.7,16.2,3.6c1.6,0.4,1.8,2.4,1.1,3.7
		c-2.2,4.3-6.3,7.3-10.8,9c-7.3,2.8-14.6,6-21.1,10.4c2.7,3.1,6.1,5.8,7.9,9.5c1.2,4-1.3,8.3-4.4,10.7c-3.9,2.5-8.4-1.4-12.5,0.2
		c-3.8,1.5-7.1,4.3-9.3,7.8c-3,6-5,12.4-7.5,18.6c-0.4,1.4-1.8,2-2.9,2.7c0-4.6,1.7-8.9,1.6-13.5c-0.2-4-4.1-7.6-8.1-6.5
		c-3.7,1.3-5.5,5.1-7.9,8c-1.8,2.4-4.4,4.3-6.1,6.8c-3,7.8-5.7,16.3-11.8,22.4c-5.3,3.6-12,4.9-18.3,5.4c4.2-3.9,9.5-6.3,13.8-10
		c4.4-3.4,8.1-7.7,10.6-12.8c-4.4,0.8-9.8,1.8-13.2-1.9c-2.7-2.6-1.7-6.6-0.4-9.6c2-4.9,4.2-10,8.2-13.6c2.4-2.4,6.4-1.4,8.5,0.9
		c2.3,2.2,3,5.4,3.9,8.3c4.8-2.7,7.8-7.3,11-11.6c2.1-2.9,5.5-5.2,9.2-4.4c3.2,0.4,4.9,3.4,6.5,5.9c3.1-5.3,7.6-9.6,11-14.6
		c3-7,8.2-13.1,14.5-17.4c4.8-3.3,10.3-5.2,15.4-7.9c-4.8-1.2-9.6-2.3-14.5-2.3c-4,0.5-6.1,4.6-9.4,6.6
		C594.5,820.4,597.3,816.1,600.9,813.1 M302.1,843.3c2-5.8,3.9-11.6,6.7-17.1c0.1,3.2-0.3,6.3-0.7,9.4c-0.8,6.6-0.3,13.2-0.6,19.9
		c-0.2,4.6,0.5,9.6,3.5,13.4c3.2,3.9,9,4.1,13.6,2.9c4.3-1,6.3-5.3,9.9-7.4c2.6-0.5,5.5,0.5,8-0.7c3-1.5,4.7-4.4,6.6-7
		c1.5-0.2,3.5,0.5,4.6-0.8c2.4-2.2,2.5-6.3,5.5-7.8c-0.9,7.4-3.2,16.5-10.9,19.4c-3.1,1.4-5.1,4.4-8.1,6c-2.9,1.8-6.5,0.9-9.4,2.5
		c-5.2,4.1-7.4,11.4-13.5,14.4c-4.4,2.2-9.8,1-13.5-1.9c-2.8,6.8-6.1,13.8-12.1,18.3c-3.1,2.3-7.3,3.8-11,2.4
		c-3.2-1.7-4.7-5.3-5.2-8.7c1.2-1,2.8-1.8,3.5-3.4c2.6-5.5,2.5-11.7,2.6-17.7c-0.1-12.2,0.2-24.8,4.7-36.3c1.1-3,2.1-6.2,4.2-8.7
		c-2.7,13.5-1.9,27.3-2.5,40.9c-0.3,8.5-3,16.9-7.4,24.2c4.3-0.3,9-0.6,12.5-3.4c4.4-3.5,5.8-9.3,6.4-14.6
		C300.5,868.9,297.9,855.7,302.1,843.3 M993.3,838.6c1.8-4.6,3.7-9.2,6.5-13.3c-0.8,8.2-3.2,16.2-4.4,24.4c-1.9,9.5-2.7,19.3-2.9,29
		c0,3.5,0.5,7.3,3.1,9.9c1.9,2,5.3,2.6,7.7,0.9c3.2-2.3,2.9-7.2,6.3-9.4c0.1,6.9-1.8,13.8-4.5,20.1c-2,4.3-5.3,9.3-10.6,9.4
		c-4.5,0.1-7.5-4.1-8.6-8.1c-2.3-8.8-0.5-17.9,0.2-26.8c-4.8,6.2-9.2,13-15.6,17.8c-13.1,11.2-30.3,16.1-47,18.5
		c-11.6,1.7-23.4,1.9-35.1,0.9c-6-0.7-12.5-2.1-16.6-6.9c-2.3-2.6-2.8-6.2-2.6-9.5c0.3-5.2,1-10.5,2-15.6c0.1-1.2,1-2.1,1.8-2.9
		c1.2,3.7,1.2,8.7,5.2,10.7c7.2,3.7,15.4,4.4,23.3,5.1c11.6,1,23.3-0.2,34.9-1.8c10.3-1.5,20.8-3.6,30.1-8.5
		c7.3-3.6,14.6-8.3,18.2-15.8C989,858,989.8,847.8,993.3,838.6 M1025.8,841.7c1.4-5.1,3.1-10.3,6.1-14.8c-1.4,16.9-4.8,33.6-5,50.6
		c0,4.1,0.4,8.9,3.9,11.6c2.6,2.2,7.1,1.5,8.7-1.6c1.7-2.4,1.7-5.9,4.6-7.3c0.1,6.8-1.8,13.4-4.3,19.6c-2,4.3-5,9.2-10.2,9.7
		c-4,0.5-7.3-2.8-8.6-6.4c-2.7-7.2-1.6-15.1-0.8-22.5C1021.7,867.7,1023.2,854.6,1025.8,841.7 M252.7,832.9c0.8-1.3,1.9-3.1,3.6-2.9
		c4.1,0.6,8.5,2.1,11.4,5.2c1.9,1.9,1.4,4.9,0.4,7.1c-2.2,4.5-5.8,8.4-10.4,10.6c-8.6,4.6-17.3,9.9-22.2,18.6
		c3.3,2.6,7.6,3.3,11.2,5.5c3.3,2.4,2.8,6.9,2.6,10.5c-1.4,14.1-6.6,28.2-16.4,38.7c-6.9,7.2-16.5,12.4-26.7,11.8
		c-7.3-0.1-15-3.6-18.2-10.4c-4.3-8.7-2.7-18.9-0.5-27.9c2.6-10.2,6.7-19.9,11.7-29.2c1.9-3.4,3.4-7.1,6.2-10
		c-1,5.1-3.9,9.6-5.9,14.3c-4,9-7.8,18.6-7.7,28.6c0,6.9,4.9,13.2,11.5,14.9c14.3,3.8,30.5-2.7,39-14.7c1.5-2.4,3.1-5.2,2.7-8.1
		c-3.9-3.8-10.2-2.9-14.2-6.6c-2.5-2.3-2.4-6.1-2.1-9.3c1.3-7.6,5.7-14.2,10.7-19.9c3.1-3.7,7.2-6.4,10.1-10.3
		c-1.2-1-2.4-1.9-3.6-2.9C248.2,842,250.3,837.4,252.7,832.9 M157.6,844.8c1.9-3.8,2.7-8.2,5.8-11.3c-2.4,13.3-2.9,26.8-4.3,40.3
		c-0.9,9.8-3.7,19.4-8.6,27.9c-0.8,1.5-2.1,2.5-3.3,3.6c4-14.2,5-29,5.9-43.7C153.3,855.7,155,850,157.6,844.8 M369.9,846.3
		c2.1-4.3,3.1-9.2,6.3-12.8c-2.4,13.9-2.9,28-4.4,42.1c-0.9,8.9-3.7,17.6-8,25.5c-0.9,1.7-2.3,3-3.7,4.3c3.8-13.6,5-27.7,5.8-41.7
		C366.1,857.6,367.3,851.7,369.9,846.3 M81,847.2c2.3-4.5,3.3-9.8,6.7-13.7c-2.3,13.6-2.9,27.3-4.2,41c-0.9,9.4-3.7,18.6-8.3,26.8
		c-0.8,1.6-2.1,2.8-3.6,3.7c3.4-11.2,4.5-22.9,5.4-34.5C77.4,862.7,77.5,854.5,81,847.2 M777.1,853.1c2-7,4.7-14,8.8-20
		c-1.9,15.1-1.1,30.5-2.9,45.6c-0.7,9-3.6,18.1-9.2,25.4c-5.6,7.5-17.1,8-21.1,16.9c-2.9,6.6-5.2,14.7-12.5,17.7
		c-6.2,1.9-12.9,2.3-19.4,2.3c1.2-4.2,5.6-5.8,8.9-8c6.8-4.2,15.2-7.2,19.1-14.8c3.2-6.1,6.3-12.8,12.1-16.9
		c4.3-3.5,10.7-4.5,13.5-9.5C777.4,879,775,865.9,777.1,853.1 M470.6,837.8c2.4-1.5,5.1-2.5,8-2.5c-1.1,5.6-3.6,10.9-6.3,16
		c-9.6-1.1-18,5.5-24,12.3c-1.6,2.3-4.5,5.1-3.1,8.1c2.8,3.4,7.9,3.2,11.2,6c2.8,2.9,2.1,7.3,1.9,11c-1.4,11.9-5.3,23.6-12.5,33.2
		c-5,6.8-11.9,12.3-19.9,15c-8.4,2.5-18.7,2-25.3-4.4c-5.6-5.6-6.6-14.2-5.9-21.7c1.8-16.5,8.9-31.8,16.9-46.1
		c0.8-1.5,1.9-2.7,3.1-3.8c-1.9,6.9-5.9,13-8.4,19.7c-2.9,7.7-5.8,15.7-5.3,24c0.3,6.3,4.8,11.9,10.7,13.7c9.2,2.9,19.4,1,27.7-3.8
		c6-3.4,11.5-8.2,14.2-14.7c0.5-1.6,1.4-3.8-0.3-4.9c-4.6-3.2-12.2-2.3-14.9-8.1c-1.9-6.1,0.6-12.5,3.3-18
		C448,855.9,458.4,845.3,470.6,837.8 M721.9,838.2c2.5-1.4,5.3-3.5,8.4-2.6c-0.8,5.6-3.5,10.7-6.1,15.7c-9.9-1-18.4,5.8-24.4,12.9
		c-1.5,2.1-4,4.8-2.6,7.6c2.9,3.3,7.9,3.2,11.1,6c2.8,2.9,2.1,7.3,1.9,11c-1.6,14.2-7,28.3-17.2,38.6c-6.1,6-14.1,10.6-22.8,10.9
		c-7.5,0.5-15.9-1.9-20.1-8.5c-4.6-7.1-4.4-16-2.9-24.1c2.6-14.6,9-28.2,16.2-41c0.8-1.5,1.9-2.7,3.1-3.8
		c-1.8,6.6-5.6,12.5-8.1,18.9c-3,7.9-6.1,16.2-5.6,24.8c0.3,6.5,5.2,12.3,11.5,14c13,3.5,27.4-1.7,36.5-11.4
		c2.7-3.1,5.5-6.8,5.3-11.1c-4-4.7-12.3-2.8-15.6-8.6c-2-4.6-0.6-10,1.1-14.5C697.6,858.4,708.8,846.4,721.9,838.2 M1011.6,839.4
		c4.6,2.3,10,6.3,9.1,12.1c-1.5,4.9-5,9.2-9.4,11.6c-3.8-2.1-6.7-5.3-10.3-7.6C1004.5,850.2,1008,844.8,1011.6,839.4 M743.7,858.1
		c3.5-5.4,7-10.8,10.7-16.1c3.6,2,7.6,4.5,8.8,8.7c1.2,4.1-1.6,7.9-4,10.9c-1.6,1.7-3.3,3.8-5.8,4C750,863.3,747,860.5,743.7,858.1
		 M59.4,856.6c1.2-3,1.9-6.2,4.2-8.6c-2,15.9-2.4,32.2-7.4,47.6c-4.1,12.8-10.4,25.3-20.5,34.3c-7.6,7-18,11.1-28.3,10.2
		c-8.6-0.8-16.9-6.4-19.8-14.7c-2.8-8-1.6-16.6,0.2-24.7c2.5-10.2,6.6-20.1,12-29.1c-0.1,4.3-2.2,8.1-3.7,12
		c-2.1,5.5-4.1,11.1-4.6,17c-0.6,6.7,2.7,13.9,8.8,17.1c9.7,5.5,21.9,4.2,31.7-0.3c8.7-3.8,15-11.5,19.4-19.7
		c3.9-7.8,4.4-16.6,4-25.2C55.2,866.9,57.6,861.7,59.4,856.6 M134.5,861.8c3.9-2.2,3.8-8.1,8.2-9.8c-0.6,6.7-2.6,13.7-6.7,19.1
		c-3.9,5.2-11.5,5.5-15.1,11c-4,6.6-4.7,15.1-10.2,20.9c-4.7,4.9-12,4.7-18.3,6c-1.8,0.3-6.3,1.1-4.5-2c7.4-6.9,17.6-10.8,24.1-18.7
		c4-6.1,5.9-13.5,11-19C126.2,865.9,130.6,864.2,134.5,861.8 M830.5,869.9c3.6-5.2,6.3-10.9,9.8-16.1c3.7,3.6,7.6,7.2,10.1,11.8
		c1.6,2.9-0.5,6-1.6,8.6c-1.8,3.1-3.4,6.7-6.5,8.6c-4.2,0.4-8.5-0.2-12.5,1.4c-5.2,2.2-9.8,6-13.1,10.6
		c-6.2,8.7-11.4,18.4-19.7,25.3c-6.6,5.5-14.1,10.6-22.5,12.9c1.6-3.7,5.1-5.8,8.2-8.2c5.6-4,11-8.3,15.5-13.5
		c6.6-7.7,10.9-17,17-25.1C819.4,880.1,825,875,830.5,869.9 M514.1,860.3c0.5-0.4,1.5-1.2,2-1.6c-1.4,11.9-3.7,23.7-7.5,35
		c-1.5,4.1-3.4,8.6-7.5,10.5c-6,2.9-12.5,4.9-19.2,5.4c1.9-4.1,6.1-6.3,9.4-9.2c5.2-4.4,11.1-8.6,14.2-14.9
		C509.2,877.5,510.8,868.6,514.1,860.3 M17.5,881.8c2.5-4.2,4.9-8.4,7.7-12.5c4,3,9.6,5.8,10.5,11.3c-0.4,5.8-4.7,10.6-9.2,13.9
		c-3.2-3.3-7-5.9-10.3-9C15.8,884.1,17,883,17.5,881.8 M605,920.3c3.3-5.5,7-10.8,10.5-16.2c4.5,2.1,9.6,5.8,9.3,11.4
		c-1.2,5.1-4.9,9.8-9.5,12.3C611.4,926,608.7,922.4,605,920.3 M121.3,947c3.2-5.1,6.4-10.2,9.9-15c4,2.3,8.9,5.5,8.7,10.7
		c-0.5,3.8-3.1,7-5.6,9.9c-1.1,1-2.3,2.5-3.9,2.2c-3.4-2.3-6.5-5-9.6-7.6c-1.9,3.3-4.1,6.8-7.5,8.8c-3.9-1.4-6.8-5.1-10.4-7.3
		c3.3-5.2,6.6-10.5,10.3-15.5c2.9,1.9,6.2,3.7,7.8,7C122.2,942.1,121.5,944.7,121.3,947 M1031.5,939.4c4.5,2.4,10,6.3,9.1,12.1
		c-1.5,4.8-4.9,9.2-9.3,11.5c-3.9-1.7-6.8-5.3-10.4-7.5C1024.4,950.1,1027.9,944.8,1031.5,939.4L1031.5,939.4z"/>
</g>
</svg>