<svg xmlns="http://www.w3.org/2000/svg" viewBox="0 0 512 512"><path d="M51,224C63.74,213.7,76.2,206.3,90.69,203.32c35.52-7.29,64.95,3.76,88.12,31,33.9,39.92,33.87,102.22.49,142.21-38.91,46.63-110.57,48-151.6,2.79C9.39,359.19.21,335.36.11,308.22-.07,257.55,0,206.87.05,156.2c0-18.28,10-28.09,28.39-28.19,5.63,0,11.31.39,16.89-.16,5-.48,5.78,1.35,5.75,5.83-.21,27.21-.11,54.43-.12,81.64Zm103,82.34a56.46,56.46,0,0,0-4.87-24.67c-8.09-18.45-21.64-30.77-42-33.36-20.53-2.61-37,5.9-48.2,22.8-14.21,21.37-15,44.11-2.4,66.49,15.85,28.16,50,35.57,74.73,16.47C146.7,342.14,153.58,325.69,153.93,306.35Z" style="fill:#317fe1"/><path d="M511.85,271.61c0,18.31.14,36.62,0,54.92-.44,47.08-39,85.26-86.71,85.92-46.71.65-86.78-36.25-88.11-82.82-1.14-40.09-.41-80.24-.64-120.37,0-3.62,1.49-4.39,4.62-4.32,7,.16,14.1-.1,21.14.21,15.36.68,25.31,10.83,25.4,26.27.18,31.91-.06,63.83.15,95.75.13,19.59,12.6,34.13,31,36.89,22.86,3.43,42.07-13.22,42.22-37,.18-30.74,0-61.49,0-92.23,0-20.11,9.55-29.71,29.75-29.84,4.93,0,9.9.34,14.79-.11,5.52-.5,6.57,1.77,6.5,6.85-.29,19.94-.12,39.89-.12,59.84Z" style="fill:#317fe1"/><path d="M142.16,119.64A20.29,20.29,0,0,1,122,139.73c-11,0-20.24-9.32-20.17-20.17a20.18,20.18,0,0,1,40.36.08Z" style="fill:#070707"/><path d="M266.31,412.4H247.56a2.82,2.82,0,0,1-2.82-2.82V157.49a29.64,29.64,0,0,1,29.63-29.63H290.3a5.64,5.64,0,0,1,5.64,5.65V382.76A29.63,29.63,0,0,1,266.31,412.4Z" style="fill:#317fe1"/></svg>