<?xml version="1.0" encoding="utf-8"?>
<!-- Generator: Adobe Illustrator 24.3.0, SVG Export Plug-In . SVG Version: 6.00 Build 0)  -->
<svg version="1.0" id="Layer_4" xmlns="http://www.w3.org/2000/svg" xmlns:xlink="http://www.w3.org/1999/xlink" x="0px" y="0px"
	 viewBox="0 0 500 500" style="enable-background:new 0 0 500 500;" xml:space="preserve">
<style type="text/css">
	.st0{fill:#008A9F;}
	.st1{fill:#4B4B4B;}
</style>
<g>
	<path class="st0" d="M315.1,76c19.3-10.8,42.1-18,64.3-14c0,9,0.4,65.9,0.4,65.9c-1.7,1.3-4,0.8-5.9,1.3
		c-15.3,2.8-29.8,9.1-43.4,16.6c-26.7,15.1-50,35.7-70.8,58.2c-25.4,28.6-52.3,56.7-84.6,77.6c-22.5,14.6-49,24.8-76.2,23.3
		c-21.8-2-43.1-11.4-59.1-26.4c-14.3-13.4-23.1-32.5-24-52.1c-0.6-5.6-0.8-10-0.1-15.4c1.5-19.1,7.4-38.6,20.7-52.9
		c17.8-19.5,45.2-27.4,70.9-27c35.7,0.9,68.8,17.8,96.7,39c2.2,0.8,0.5,3-0.3,4.1c-4.3,6.5-8.4,13.1-12.7,19.6
		c-21-14.6-44.2-27-69.6-31.8c-15.2-2.7-31.6-2.5-45.5,4.8c-17.5,8.9-28.4,27.7-30.8,46.8c-1.3,8.5,0.3,17.1,4,24.8
		C57,255.4,72.9,269,91.6,272c7.7,1.4,15.6,0.2,23.2-1.4c14.7-2.6,29-7.8,41.8-15.7c13.9-8.6,25.8-19.9,36.5-32.2
		c16.2-18.9,29.5-40.1,41.9-61.6C255.2,127.5,280.8,95.8,315.1,76z"/>
	<path class="st0" d="M379.4,130.4c22.9-1.8,47.2,0.6,67,13.2c20.3,12.5,33.2,34.8,37.1,58c1.5,6.3,0.9,12.6,0.9,19.1
		c-1.7,22.7-10.4,45.7-27.3,61.5c-14.6,13.8-34.5,20.9-54.3,22.6c-18.5,1.2-36.8-3.6-53.9-10.4c-34-14.1-64.3-35.7-92-59.7l-0.3-1.1
		c6.6-7.1,13.4-14.1,20.3-21c3.5,2.2,7.7,6.2,11.6,9c20.1,15.5,41.1,30,63.8,41.3c8.5,3.9,17.3,7.9,26.7,9.1
		c9-0.4,17.9-3.5,25.3-8.8c13.5-9.9,18.1-30,10.7-44.9c-7-13.3-21.9-19.5-35.8-22.9C379.2,190.9,379.4,133.5,379.4,130.4z"/>
</g>
<g>
	<path class="st1" d="M366.1,396.3v11h34.1c4.7,0,13.9-5.2,13.9-15.5v-14.4h-10.4v12.1c0.2,3.6-3.8,6.9-8.5,6.9H366.1z"/>
	<circle class="st1" cx="391.1" cy="420.9" r="7.8"/>
	<circle class="st1" cx="332.2" cy="373.8" r="7.8"/>
	<rect x="366.1" y="339.3" class="st1" width="12" height="52.5"/>
	<path class="st1" d="M357.9,378.6v16.9c-0.6,6.2-6.7,10.9-11.6,10.9h-25.4L292,377.1c-1.3-1.5-1.4-4.3-0.1-6
		c0.3-0.3,30.9-31.8,30.9-31.8h14.9l-33.5,35l21.6,22.6l15.9-0.1c4.4,0,7.2-3.1,7.2-5.7v-12.6L357.9,378.6z"/>
	<path class="st1" d="M303.6,396.4l10,10.9h-74c-4.6,0-13-5.5-13-13.4v-15.2h9.8v12c0,3.4,2,6,5.5,6L303.6,396.4z"/>
	<path class="st1" d="M170.7,396.8l-7.5,10.5h49.7c0,0,2-3.5,1.8-10.5H170.7z"/>
	<path class="st1" d="M133.4,341.8c-6.2,0.3-12.5,5.7-12.5,11.5v10.7c0,0,9.6,0.1,10.1,0c1.5-0.4-2-12.4,5.7-12.1l13.7-0.1v-10
		H133.4z"/>
	<g id="XMLID_1_">
		<g>
			<path class="st1" d="M149.7,369.8c4.7,0,16,3.9,16,16.9c0,22.5-15.4,21.1-15.4,21.1s-46.9,0-49.2,0c-8.1,0-14.6-6.4-14.5-11
				l-0.8-32.2h9.8c0,0,0,22,0,23.1c0.1,4.2,1.6,9,6.6,9.1c1.4,0,45.2,0.4,46.9,0c1.6-0.4,6.9-1.8,6.8-8c-0.1-6-2.8-8-6.1-8.1
				c-1.6-0.1-29.1,0-29.1,0l0.1-10.8H149.7z"/>
		</g>
	</g>
	<path class="st1" d="M171,354.5h9c10.1,0,34.5,4.9,34.5,28.9v9.8h-11.6l0-7.6c0-8.5-6.1-19.7-23.2-19.7H171V354.5z"/>
</g>
</svg>