<?xml version="1.0" encoding="utf-8"?>
<!-- Generator: Adobe Illustrator 24.3.0, SVG Export Plug-In . SVG Version: 6.00 Build 0)  -->
<svg version="1.0" id="Layer_1" xmlns="http://www.w3.org/2000/svg" xmlns:xlink="http://www.w3.org/1999/xlink" x="0px" y="0px"
	 viewBox="0 0 1080 1080" style="enable-background:new 0 0 1080 1080;" xml:space="preserve">
<style type="text/css">
	.st0{fill:#701E72;}
</style>
<g>
	<path class="st0" d="M338.2,120.6c37.5-2.3,75.4,14.8,98.7,44.1c23.4,28.3,31.9,67.9,22.9,103.5c-8.4,34.5-33.4,64.5-65.7,79.2
		c-20.9,9.7-44.6,13.1-67.4,9.6c-36.7-5.3-70.2-29.1-87.3-62c-11.8-21.6-16.1-47.1-12.8-71.4c2.9-22.8,12.9-44.6,27.9-62
		C275.3,137.4,306.3,122.2,338.2,120.6 M561.6,125.9c1.1-2,2.1-4.1,3.4-5.9c-37.1,171.7-74.3,343.3-111.5,515
		c-7.7,35.3-15.2,70.7-23,106c-65.5,0-130.9,0-196.4,0C343.4,536,452.4,330.9,561.6,125.9 M586.2,120.4c23,0,46,0,69,0
		c-37.8,174-75.4,348.1-113.1,522.2c-7,32.8-14.3,65.5-21.2,98.3c-23.1,0-46.1-0.1-69.2,0C496.6,534.1,541.3,327.2,586.2,120.4
		 M677.2,120.4c65.5,0,131,0,196.4,0c-110.2,207-220.5,414-330.6,621.1c2.8-15.5,6.6-30.7,9.8-46.1
		C594.2,503.7,635.8,312.1,677.2,120.4 M683.3,538.5c23.1-24,56.9-37.1,90.1-35.4c25.9,1.2,51.3,11.2,71,27.9
		c16.4,13.7,28.9,32,35.9,52.1c7.8,22.6,8.6,47.6,2.1,70.6c-9.7,35.4-36.8,65.5-71.1,78.8c-25.8,10.3-55.3,11-81.6,2
		c-26.9-9-50-28-64.4-52.4C654.6,664,648.8,643,649,621.9C648.7,591,661.3,560.2,683.3,538.5 M663.4,819.3c3-3.8,6.5-7.1,10-10.5
		c3.4,2.6,6.3,5.7,9.4,8.7c2.9-2.7,5.3-5.8,8.4-8.3c1.4-0.2,2.1,1.3,3.2,2c2.7,2.7,5.5,5.2,8,8.1c-3.4,3.4-6.9,6.8-10.4,10.1
		c-3.2-2.7-6.1-5.8-9-8.7c-2.9,2.9-6,5.8-8.9,8.7C670.3,826.3,666.8,822.7,663.4,819.3 M416.7,817c1.3-1,2.9-1.6,4.5-2
		c0.2,21.8,0,43.7,0.1,65.5c0.1,3.3,0.5,7.2,3.4,9.3c2.1,1.6,4.9,1.6,7.4,1.6c30.3-0.1,60.7,0,91,0c2.6,0,5.6-0.4,7.3-2.6
		c2.9-3.7,3-8.7,5.3-12.7c0.8-1.7,3.2-2.4,4.5-0.9c4.1,4.6,3,12.4,8.8,15.6c7.4-7.7,13.6-16.7,21.9-23.5c7-5.9,15.7-11.1,25.1-10.1
		c7.4,0.5,13.7,6.3,15.8,13.4c1.9,6.6,0.6,13.6-1.9,19.8c5.4,1.6,11.5,1.5,16.8-0.3c5.8-2.2,5.5-9.3,8-14.1c1.2-2.9,5.8-3.6,7.6-0.9
		c1.7,3.1,1.8,6.8,3,10.1c1,3.4,4.4,5.4,7.7,5.8c5.3,0.6,10.7,0.2,16,0.2c7.7-0.2,15.7,0.1,23.2-1.8c2.5-0.5,3.7-2.9,3.2-5.2
		c-7.5,1.2-15.4,2.2-22.9,0.4c-5-1.2-9.3-5.2-10-10.4c-1.2-9.4,1.6-18.9,6.5-26.9c2.8-4.5,7.4-8.7,13-8.6c7.5-0.5,14.3,4.4,18,10.7
		c7.6,12.5,9.5,27.8,7.8,42.1c-1.1,8.7-4.4,17.5-11.1,23.5c-7.2,6.6-17.1,9-26.6,9.3c-5.7,0.1-11.5,0.4-17.2-0.2
		c-5.6-0.6-10.1-4.6-13-9.2c-3,4.8-8,8.6-13.7,9.2c-5.4,0.4-10.8,0.6-16.2-0.1c-6.4-1.2-10.7-6.7-13.3-12.2
		c-6.7,8.6-18,11.9-28.5,12.1c-10.1,0.2-21-1.8-28.8-8.7c-3.2,4.9-8,9.5-14.3,9.1c-31.3,0.1-62.6,0-93.9,0c-8-0.2-16.7,0.1-23.5-4.7
		c-6.9-4.7-9.5-13.5-9.8-21.5c-0.3-19.7-0.7-39.5-2.6-59.1c-0.1-2.7-1.4-6.4,1.4-8.1C403.4,826.4,410.1,821.7,416.7,817
		 M675.7,865.4c5.1,2,11,2.2,16.1,0.3c-1.6-3.8-5.7-6.3-9.7-6.3C678.8,859.3,675.4,861.8,675.7,865.4 M576.8,881
		c-6.8,3.1-12.4,8.2-17.7,13.4c9.7,0.1,19.7,0.3,29-2.8c2.1-0.8,4.5-1.5,5.7-3.5c0.3-3-1-6.3-3.7-7.6
		C585.9,878.5,580.9,879.1,576.8,881 M734.4,822.6c2.5-2.7,4.8-5.7,7.8-7.8c5.8,22,4.7,45,4.9,67.6c0.3,10.3-1.6,20.6-4.4,30.5
		c-1.5,4.2-2.9,9-6.7,11.7c-2.3,0.9-3.9-1.5-4.7-3.3c-2.1-5-2.8-10.4-3.9-15.7c-3.8-21.3-7-42.8-10.2-64.2
		C722.9,835.1,728.7,828.8,734.4,822.6 M977.1,818.5c1.9-1.5,4.1-2.7,6.3-3.8c0.8,17.9,0.1,35.8,0.3,53.7c0.1,5.3-0.4,10.7,0.4,16
		c0.5,3.5,3.3,6.6,6.9,6.8c5,0.3,10.1,0.1,15.1,0.1c2-0.2,4.6,0.2,5.7-1.9c-0.1-2.1-1.6-3.6-2.8-5.1c-3.4-4-7.2-7.6-11-11.1
		c1.8-4,4.7-7.3,7-10.9c3-4.2,5.7-8.7,9-12.6c8.2,8.3,12.3,20.1,13,31.6c0.3,9.7,0.2,19.7-3.2,28.8c-1.9,5.3-6.2,9.6-11.4,11.6
		c-8.4,3.4-17.6,2.5-26.4,2.5c-7.9-0.1-16.6-2.8-21.1-9.8c-5.4-8-4.6-18-4.7-27.2c-0.5-17.3-1-34.7-2.8-52c-0.2-1.5,0.1-3.3,1.5-4.1
		C964.9,826.9,971.1,822.8,977.1,818.5 M266,817.1c1.1-1.2,2.5,0.2,3.3,1c3.3,3.3,7,6.3,9.9,10c-4,3.8-7.7,8-12,11.4
		c-3.9-3.7-7.8-7.6-11.7-11.3C258.5,824,262.5,820.7,266,817.1 M922.7,821.9c2.1-1.7,3.5-4.8,6.3-5.3c3.5,2.8,6.5,6.1,9.8,9.1
		c0.8,0.8,2.6,2.2,1.1,3.3c-3.5,3.7-7.2,7.1-10.8,10.6c-4-3.5-7.9-7.3-11.5-11.2C917.9,825.6,921,824,922.7,821.9 M863,832.1
		c14.3-4.7,28.5-9.5,42.9-14.1c-0.7,9.3-1.6,18.7-2.8,28c-11.4,3.9-22.9,7.8-34.4,11.7c6.7,7.7,13.4,15.4,20.2,23
		c5.2,5.7,12.2,10.5,20.2,10.6c6.4,0.1,12.8,0.1,19.1,0c1.8,0.1,3.5-0.6,5-1.7c-2.8-6.8-9-11.4-14.1-16.3c4.7-8.3,10.4-15.9,16-23.6
		c8.2,8.3,12.3,20.1,13.1,31.6c0.3,9.1,0.2,18.5-2.6,27.2c-1.5,5-4.7,9.5-9.3,12c-7,4-15.3,4-23.1,4c-11.9,0.3-22-7.7-29.4-16.3
		c-3.3,6.4-8.8,11.5-15.5,14.2c-10.4,4.3-22,4.2-33,4.1c-11.6,0.1-23.6-0.1-34.4-4.8c-7.4-3.2-13-10.2-14.8-18.1
		c-2.3-10.1-1.2-21,2.9-30.6c1.2-2.5,3-5.8,6.3-5.5c2.7,0.1,3.5,3.4,3.6,5.6c0.1,4.9,0.3,10.7,4.3,14.2c5.6,4.5,13.1,5.4,20.1,6.1
		c9.7,0.5,19.4,0.3,29.1-0.3c5.1-0.5,10.5-0.7,15.2-2.9c-3.3-5.9-8.6-10.3-12.9-15.4c-3.9-4.2-7.9-8.3-11.8-12.5
		c1.6-8.3,2.4-16.8,4.6-24.9C852.3,835.3,857.8,834,863,832.1 M619.1,845.5c3.3-3.5,6.5-6.9,10.1-10.2c3.3,2.7,6.2,5.8,9.4,8.7
		c2.8-3,5.6-5.9,8.6-8.7c3.8,3.2,7.3,6.7,10.9,10.2c-3.2,3.4-6.4,6.9-9.9,9.9l-0.9,0.2c-3.1-2.5-5.7-5.6-8.7-8.3
		c-2.9,2.6-5.5,5.6-8.5,8.2l-0.9,0C625.6,852.4,622.2,849.1,619.1,845.5 M341.1,867.5c4.4-8.9,8.1-18.1,12.9-26.7
		c7.7,2.8,13.7,8.7,19,14.7c7.9,9,13,20.8,12.8,32.9c0.1,9.5-1.6,20-8.5,27.1c-6.4,6.8-16.2,8.8-25.1,8.6c-7.9,0-16.6-1.5-22.3-7.5
		c-4.8-5.2-5.9-12.6-5.5-19.3c0.3-5.7,1.5-11.4,4.2-16.5c1-2.5,4.7-3.6,6.3-1.1c2.2,3.7,2.3,9.2,6.6,11.3c5.6,2.2,11.7,1.7,17.6,1.8
		c4.1-0.3,8.8,0.1,11.9-3.2c-3.4-6.1-9.7-9.9-15.3-13.7C351,872.8,346,870.1,341.1,867.5 M158.8,859.2c2.3-3.2,4.2-6.7,7.1-9.4
		c4.5,5.1,8,11.1,10.1,17.5c3.3,10,3.2,20.7,2.2,31c-0.9,7.5-2.8,16-9.3,20.8c-7.4,5.4-17,5.4-25.7,5.3c-2.5,0.2-4.5-1.2-6.3-2.8
		c0.1,10.2-2.5,21.2-10,28.5c-7.5,7.5-18.4,10.1-28.7,10.7c-11.5,0.5-23.9-0.3-33.9-6.8c-6.8-4.3-11.1-11.9-12-19.8
		c-1.2-10.8,1.4-21.6,5.3-31.6c1.4-3.1,3.5-7.5,7.6-7.1c3.4,0.2,3.8,4.1,3.7,6.7c0.3,5.8-3.1,11.6-0.9,17.3c2.6,6,9.6,8,15.6,9
		c10.3,1.4,21,1.3,31-1.8c3.4-1.2,7.4-2.9,8.6-6.6c0.9-2.8-0.9-5.4-2.5-7.5c-3.5-4.3-7.7-7.8-11.9-11.3c4.2-7.9,8-16,12.4-23.8
		c5.6,4.9,10.6,11.4,18.1,13.4c6.9,0.5,13.9,0.3,20.9,0.1c1.9,0.2,4-1.6,2.7-3.6c-3.5-5.5-8.6-9.9-13.4-14.3
		C152.1,868.3,155.8,863.9,158.8,859.2 M257.6,873.4c4.5-8.3,10.5-15.7,15.8-23.5c3,2.2,4.9,5.5,6.8,8.6c4.8,8.5,6.8,18.3,6.7,28
		c0,8.4-0.5,17-3.7,24.9c-2.1,5.2-6.8,9.2-12.1,11c-7.7,2.9-16.1,2-24.1,2.1c-1.1,12.7-3.9,26.2-12.8,35.9c-1.9,2.4-5.2,1.7-7.9,1.8
		c-10.9-0.2-21.9,0.2-32.9-0.2c-4.4-0.2-5.5-7.3-1.4-8.7c10.1-5,19.8-10.7,29.1-17c4.4-3.2,9.2-6.3,11.9-11.2
		c-7-0.4-14.5,0.4-21-2.5c-6.7-3.3-8.4-11.5-8.1-18.2c0.3-11.1,2.5-22.9,9.4-32c5.2-7.2,16.5-7.8,23-2c6,5.4,8.2,13.4,9.9,21
		c7.4-0.1,14.8,0.2,22.2-0.2c1.9,0.2,3.9-1.7,2.7-3.6C267.4,882.1,262.4,877.8,257.6,873.4 M218.1,892.3c-1.8,1-1.7,3.2-1.9,5
		c5,2.1,10.9,2.1,16,0.4C230,892.5,223.1,889.5,218.1,892.3 M78.8,869.5c3.5-4,7.2-7.9,11.3-11.4c4.1,3.7,8,7.6,12,11.4
		c-3.6,4.3-7.6,8.2-11.9,12c-3.8-3.7-7.8-7.2-11.3-11.1L78.8,869.5 M1008.5,936.7c0.8-0.7,2.1-2.3,3.2-1c3.9,3.4,7.5,7.1,11.2,10.7
		c-3.7,4.2-7.8,7.9-11.8,11.8c-4.2-3.7-8.3-7.6-12-11.8C1002,943,1005.3,939.9,1008.5,936.7 M146,946.5c3.2-3.6,6.6-7,10.1-10.3
		c3.2,2.8,6.3,5.8,9.4,8.8c2.9-3,5.7-6,8.7-8.8c3.9,3.2,7.2,6.9,10.8,10.3c-3.4,3.6-6.8,7.2-10.6,10.4c-3-2.9-6-5.8-8.9-8.7
		c-3,2.9-5.8,6.1-9.1,8.7C152.9,953.5,149.2,950.2,146,946.5L146,946.5z"/>
</g>
</svg>
