<svg viewBox="0 0 48 48" fill="none" xmlns="http://www.w3.org/2000/svg">
<path fill-rule="evenodd" clip-rule="evenodd" d="M0 18.4603C7.6613 16.9797 16.1238 16.7229 25.8796 17.8508C34.0724 26.6222 37.9844 34.0111 40.7682 41.2914C30.5577 30.4065 17.7556 22.0332 0 18.4603Z" fill="#4DA2E7"/>
<path fill-rule="evenodd" clip-rule="evenodd" d="M9.71829 10.9131C17.5511 9.83366 22.717 10.1332 30.6134 11.3113C35.2087 15.2701 42.5295 23.1499 45.3133 30.4302C35.1028 19.5453 28.2771 14.0585 9.71829 10.9131Z" fill="#82BEEE"/>
<path fill-rule="evenodd" clip-rule="evenodd" d="M14.6313 6C22.6112 6.1734 27.1874 6.7151 35.0839 7.8932C38.8135 11.2993 42.6802 15.1215 47.3861 21.4673C35.1782 10.8801 33.1902 9.1453 14.6313 6Z" fill="#A6D0F3"/>
</svg>
