<?xml version="1.0" encoding="utf-8"?>
<!-- Generator: Adobe Illustrator 24.3.0, SVG Export Plug-In . SVG Version: 6.00 Build 0)  -->
<svg version="1.0" id="Layer_4" xmlns="http://www.w3.org/2000/svg" xmlns:xlink="http://www.w3.org/1999/xlink" x="0px" y="0px"
	 viewBox="0 0 500 500" style="enable-background:new 0 0 500 500;" xml:space="preserve">
<style type="text/css">
	.st0{fill:#B01117;}
	.st1{fill:#00AEC5;}
</style>
<path class="st0" d="M491.1,413.6c-2.2,0-26.2,0-26.2,0s0-53.5,0-54.4c0-0.9-13.1,11.2-13.1,11.2v45.1c0,0,1,14.6,19.7,14.6
	s6.5,0,9,0C482.2,430.1,493.3,413.6,491.1,413.6z"/>
<path class="st0" d="M447.2,414.6c-2.2,0-22.6,0-22.6,0s-5-2.4-8.5-9.9c-1.9-4.1-1.3-8.9-8.3-19.3c0,0-3.2-3.6,2.2-4.8l22.1-6.1
	c0,0,13.4-18.9,9.5-17.5c-10.2,3.7-46.8,11.4-46.8,11.4L383.2,387c0,0,20.3,5,21.5,13.5c1.3,9.5-5.7,14.6-5.7,14.6
	s-50.6-0.4-52.1-0.4c-1.4,0-16.1,15.5-14.1,15.5c2,0,61.6,0,62.6,0c1,0,11.8-13.2,11.8-13.2s10,15.5,23.4,14.4
	c0.5,0,6.4-0.5,6.4-0.5S449.3,414.6,447.2,414.6z"/>
<path class="st0" d="M245.8,430.8c-1.2-0.1,12.4-16,12.4-16h20.4l13.8-18.6c0,0,2.2-3,5.5,0c0,0,3.2,16.9,10.9,18.8
	c0,0,4.4,1.9,19.5-0.5c0,0,6.1-0.1,6.1-11.4c0-11.3-21.7-15.5-21.7-15.5l9.5-18.9c0,0,27.1-2.8,47.1-11.7c2.5,1.2-5.3,16.6-6.7,17.2
	c-1.4,0.5-11.1,4.6-25.8,6.9c0,0,24.3,23-11.8,48.1c0,0-26.7,9.8-33.7-17.5c0,0-14.4,19.3-15.7,19.3
	C274.5,431,247,430.9,245.8,430.8z"/>
<path class="st0" d="M205.4,431c-2.4-0.4,13.1-16.9,13.1-16.9h24c0,0,16.3-18.2-16.5-26.5c0,0,8-10.2,10-11.6
	c1.9-1.5,47.1,11.3,2.7,55C238.7,431,207.9,431.4,205.4,431z"/>
<path class="st0" d="M211,414.3c1.7,0-11.1,16.9-12,16.9c-0.9,0-54.3,0.1-54.3,0.1s-4-12.2-7.6-0.3c0,0-29.9,6.5-36-16.7
	c0,0-1-3.2-2.9,0L83.7,431c0,0-28.3,0-29,0c-0.7,0,11.9-16.6,13.1-16.6c1.2,0,20.5,0.1,20.5,0.1l14.8-18.3c0,0,4.2-2,4.7,2.9
	c0,0,0.2,23.6,28.7,14.9c16.9-19.7-11.8-25.6-13.5-26.6c-1.6-1.1,9-18.3,9-18.3s44.4-11.5,46.2-12c1.8-0.5-3.3,16.6-7.5,17.8
	c-4.2,1.3-24,4.5-24,4.5s-4.2,0.5-1.5,4.2c0,0,18.4,13.2,4.5,30.7C149.8,414.3,209.3,414.3,211,414.3z"/>
<path class="st0" d="M19.6,396.1c0,0-20.6,22.3,8.6,34c8.7,3.5,19.3,0.7,19.3,0.7s13.4-12.2,17.7-19.1c5.1-8.2-0.8-17.2-9.8-24.3
	c0,0,16.9-8,15.7-12.1c0,0-23.3-2.1-33.2,18.2c0,0,3,3.2,8.4,4.1c5.5,0.9,17.2,10,3.6,16.9c-11.2,5.7-36.3-4.2-27.9-16.4
	C23.4,396,21.8,394,19.6,396.1z"/>
<rect x="179.2" y="379.9" transform="matrix(0.7071 -0.7071 0.7071 0.7071 -218.5939 243.8161)" class="st0" width="11.6" height="11.6"/>
<rect x="170.5" y="393.1" transform="matrix(0.707 -0.7072 0.7072 0.707 -230.4068 241.5753)" class="st0" width="11.6" height="11.6"/>
<rect x="187" y="393.1" transform="matrix(0.7071 -0.7071 0.7071 0.7071 -225.5769 253.2158)" class="st0" width="11.6" height="11.6"/>
<rect x="430.5" y="389.9" transform="matrix(0.707 -0.7072 0.7072 0.707 -152.0126 424.5377)" class="st0" width="11.6" height="11.6"/>
<rect x="465.8" y="436.7" transform="matrix(0.707 -0.7072 0.7072 0.707 -174.7799 463.1426)" class="st0" width="11.6" height="11.6"/>
<path class="st0" d="M326.5,362.1c0,0,40.7-12.6,41.9-12.7c1.2-0.1-1.3,4.1-1.3,4.1s-40.3,11.7-41.3,12.4
	C324.8,366.6,326.5,362.1,326.5,362.1z"/>
<path class="st0" d="M137.2,362.8c0,0,40.7-12.6,41.9-12.7c1.2-0.1-1.3,4.1-1.3,4.1s-40.3,11.7-41.3,12.4
	C135.5,367.3,137.2,362.8,137.2,362.8z"/>
<path class="st0" d="M337.8,273.8c-4.9,0-84.1,0-88,0c-3.9,0-57.5-91.3-57.5-96.2c0-5,23.5-36.8,21.1-37.1c-3.6-0.4-36.6,0-36.6,0
	s-47.1,77.6-47.1,80.5c0,2.8,45.7,83.7,47.1,83.7c1.4,0,33.7,0,35.8,0c2,0-46.1-79.3-45.5-82.1c0.5-2.1,5.7-11.3,7.9-14
	c2.2-2.7,55.7,96.1,59.1,96.1c6.1,0,89.2,0,89.2,0S342.7,273.8,337.8,273.8z"/>
<path class="st0" d="M289.2,56.5c2.5,4.2,42.6,72.5,44.6,75.9c2,3.3-49.6,95.8-53.8,98.4c-4.3,2.5-43.6-1.6-42.7,0.6
	c1.5,3.4,18.5,31.5,18.5,31.5s90.8,1.3,93.3-0.1c2.5-1.4,49-81.9,48.3-83.1c-0.7-1.2-17.1-29.1-18.1-30.8c-1-1.8-45,80-47.7,80.8
	c-2.1,0.7-12.6,0.8-16.1,0.3c-3.5-0.6,54.6-96.8,52.9-99.7c-3.1-5.3-45.2-76.9-45.2-76.9S286.8,52.3,289.2,56.5z"/>
<path class="st0" d="M125.9,205.3c2.5-4.2,42.6-72.5,44.6-75.9c2-3.3,107.8-3.3,112.1-0.8c4.3,2.5,19.8,38.9,21.2,37
	c2.2-2.9,18.5-31.5,18.5-31.5s-43-80-45.5-81.4c-2.5-1.4-95.4-3-96.1-1.8c-0.7,1.2-17.1,29.1-18.1,30.8c-1,1.8,91.8,0.4,93.8,2.4
	c1.6,1.5,6.9,10.6,8.1,13.9c1.2,3.3-111.1-0.7-112.8,2.3c-3.1,5.3-45.2,76.9-45.2,76.9S123.4,209.5,125.9,205.3z"/>
<path class="st0" d="M214.6,304.7"/>
<path class="st1" d="M286.6,178.7c0-19.3-15.6-35-35-35c-19.3,0-35,15.6-35,35c0,19.3,15.6,35,35,35
	C270.9,213.7,286.6,198,286.6,178.7z"/>
</svg>
