<?xml version="1.0" encoding="utf-8"?>
<!-- Generator: Adobe Illustrator 24.3.0, SVG Export Plug-In . SVG Version: 6.00 Build 0)  -->
<svg version="1.0" id="Layer_1" xmlns="http://www.w3.org/2000/svg" xmlns:xlink="http://www.w3.org/1999/xlink" x="0px" y="0px"
	 viewBox="0 0 527 538.6" style="enable-background:new 0 0 527 538.6;" xml:space="preserve">
<style type="text/css">
	.st0{fill:#FFFFFF;}
	.st1{fill:#5613A2;}
	.st2{fill:#FF0087;}
</style>
<g>
	<path class="st0" d="M98.5,483.6c1.9,0.3,3.7,0.7,5.5,1.2c-0.1,1.1-0.2,2.2-0.3,3.3c-1.9,0.3-3.7,0.7-5.6,0.9
		C98.2,487.3,98.4,485.4,98.5,483.6 M342.6,483.7c2-0.1,4.2-0.5,5.8,1.1c-0.6,2.7-3.5,3.1-5.9,2.8
		C342.5,486.3,342.5,485,342.6,483.7 M223.2,484.4c1.1,2.3,1.6,4.8,2.1,7.3c-1.4,0-2.9-0.1-4.3-0.1
		C221.7,489.1,222.4,486.7,223.2,484.4 M127.4,485.8c2.7,0.1,1.8,4.1,2.7,6c-1.3,0-2.7,0-4,0C126.5,489.8,126.9,487.8,127.4,485.8
		 M370.8,491.6c0.4-2.3,1.1-4.5,2.2-6.5c0.8,2.1,1.4,4.3,2,6.5C373.6,491.6,372.2,491.6,370.8,491.6 M342.6,490.7
		c2.4,0.1,4.8,0.6,6.6,2.2c-1,2.7-3.9,3.6-6.5,3.7C342.6,494.7,342.6,492.7,342.6,490.7L342.6,490.7z"/>
	<path class="st1" d="M205.8,93.4c15.4-10.6,33.5-17.5,52.2-18.7c14.6-0.7,29.6-0.2,43.7,4.2c29.1,7.8,55.6,25.5,73.5,49.7
		c-6.1-3.6-11.8-7.9-18.1-11.1c-15.6-7.8-32.6-13-50-14.2c-9.8-1.6-19.6,0.2-29.2,1.3c-13.2,2.6-26.3,7-37.8,14.1
		c-13.3,8.7-25.2,19.9-33.4,33.7c-14.9,24.5-18.8,55-12.1,82.8c1.8,7.7,4.5,15.2,7.3,22.6c-9.9-11.7-18.1-24.7-23.8-38.9
		c-8-19.8-11.1-41.6-8.4-62.7c2.2-16.1,8.2-31.8,18.1-44.8C193.2,104.7,198.9,98.3,205.8,93.4 M162.9,115.4c4-3.7,7.6-7.9,12.3-10.7
		c-2.2,4-5.1,7.6-7.3,11.7c-4.9,10.1-9.9,20.4-12.3,31.5c-2.1,8.4-3.8,17-4.1,25.7c0.1,8.7-0.4,17.5,1.6,26
		c4,24.2,16.3,47.1,35,63.1c16.9,14,38,23.2,60,24.6c5.2,0.4,10.4,1,15.6,0.1c11-0.8,22-2.9,32.4-6.7c3.8-1.3,7.3-3.1,11.1-4.1
		c-9.7,9.5-21.6,16.4-33.7,22.5c-19.9,9.6-42.4,13.7-64.4,11.4c-12.6-1-25.1-4.5-36.2-10.6c-9.3-5.6-18.4-12-25.5-20.3
		c-6.8-8.7-13.1-17.9-16.7-28.4c-10.1-27.3-9-58,0.6-85.3C138.1,147,148.8,129.6,162.9,115.4 M256.4,129.9
		c24-10.6,51.6-14.7,77.2-7.7c16.1,4.6,31.6,12.5,43,25c11.4,11.4,19,26.2,23.4,41.6c11.3,43.1-2.8,90.7-32.8,123.1
		c-5,5-9.9,10.3-15.9,14.2c19.7-28.4,29-64.7,22.1-98.9c-4.5-23.1-16.6-44.9-34.7-60.1c-19-16.9-44.7-24.7-69.8-25
		c-13.8,1-27.6,3.2-40.6,8.1c-2.5,1-4.9,2-7.5,2.8C231.3,143.1,243.3,135.3,256.4,129.9 M325,171.5c6,5.6,10.6,12.5,14.8,19.5
		c9.2,15.5,16,32.7,18.5,50.7c2.6,21.3,0.8,43.8-9,63.2c-6.4,12.3-15.3,23.5-26.8,31.4c-11,8.6-24.2,13.8-37.7,17.1
		c-12.8,1.9-25.8,3.6-38.7,1.5c-22.8-1.8-44.5-11.1-63.4-23.7c-8-5.1-14.9-11.7-21.5-18.5c-2.6-2.9-5.6-5.5-7.5-9
		c9.5,5.5,19,11.3,29.5,15c17.6,7.1,36.9,10.1,55.8,8.6c19.8-1.5,39-8.9,55.2-20.3c13.1-10,24.2-22.9,31.3-37.8
		c7.4-15.3,10.7-32.5,10.6-49.4c-0.6-13.3-3-26.6-7.8-39.2C327.3,177.4,326,174.5,325,171.5 M466.1,332.6c4.1-3,7.3-7,11.3-10.1
		c-0.4,2.4-1.3,4.7-2.7,6.7c-8,10.7-18.2,19.4-29,27.1c-7.3,5.7-14.8,11.2-22.2,16.7c-3,2.1-6,4.4-9.4,6c1.4-3.4,3.3-6.7,6.2-9.2
		c7.4-6.4,14.9-12.5,22.8-18.2C451.1,345.7,458.4,338.9,466.1,332.6 M162.3,384.9c1.2-3.1,3-5.9,4.7-8.8c2,1.9,4.8,3.6,5.1,6.6
		c-0.2,3.4-1.9,6.4-4.1,8.8C166,389.6,161.5,388.5,162.3,384.9 M408,389.5c1.3-2.6,2.4-5.4,4.4-7.5c-2.2,13-6.5,26.2-4.3,39.5
		c0.7,2.5,3.3,4.5,6,4.5c2.8-1.4,3.2-5.1,4.9-7.5c0.4,5.4-1.2,10.8-3.6,15.5c-1.4,3-5.1,5.3-8.3,3.7c-2.6-0.6-3.8-3.3-4.4-5.6
		c-1.3-6.2,0.2-12.6,0.2-18.8c-4.2,4.2-7.1,9.6-12,13.1c-15.1,11.9-35.2,14.2-53.8,13.3c-3.9-0.3-8.7-0.3-11.1-3.9
		c-2.5-3.9-1.9-8.8-1.7-13.2c0.2-1.9,0.2-4.5,2.5-5.2c0.8,2.7,0.7,6.5,3.8,7.8c5.5,2.3,11.7,2.3,17.6,2.1
		c11.3,0.1,22.5-1.8,33.1-5.6c8.2-2.7,16.4-7.6,20.6-15.5C404.8,401.1,405.1,394.8,408,389.5 M428.3,401.8
		c0.8-6.5,3.2-12.7,6.6-18.2c-1,8.6-2.7,17.1-3.4,25.7c-0.4,4.3-1.1,9,0.9,13c1,2.1,3.3,3,5.6,3.1c2.8-1.4,2.3-5.3,5-6.9
		c-0.3,5.7-1.7,11.4-4.8,16.2c-2,3.3-7.5,4-9.7,0.7c-2.4-2.6-2.5-6.4-2.7-9.7C425.9,417.6,427.3,409.7,428.3,401.8 M419.4,385.4
		c2,1.7,5.4,3.1,5.1,6.2c-0.1,3-1.7,5.6-4.2,7.2c-1.8-1.5-3.7-2.8-5.6-4.2C416,391.5,417.6,388.4,419.4,385.4 M140.6,394
		c1.6-2.6,2.5-6,5.6-7.1c-0.3,3-2,7.6,1.9,9.1c1.7-1.3,2.4-3.5,3.5-5.2c5.4,3,3.7,10,0.9,14.3c-2.1,3.1-5.8,6.4-9.8,5.2
		c-2.5-0.4-3.4-3-4.7-4.8c-1.9,1.8-3.6,3.9-5.9,5.1c-1.9,1.1-5.2,0.9-5.3,3.9c-1.8,13.9-6.2,27.9-14.8,39.1
		c-6.3,7.1-15.2,12.4-24.9,12.1c-4.6-0.4-9.8-1.3-12.7-5.3c-3.2-4.2-3.6-9.7-3.5-14.7c0.3-10.6,4.5-20.5,9.6-29.6
		c0.6-1.1,1.7-1.8,2.7-2.6c-0.1,5.2-3.6,9.4-5.1,14.2c-2,5.8-3.8,12.8-0.3,18.3c2.3,4,7.1,5.1,11.3,5.7c5.2,0.7,10.2-1.2,15.1-2.9
		c9.3-4.9,15.4-14.6,17.2-24.8c1.4-6.2-0.2-12.6,1.2-18.8c1-3.5,5.4-2.2,8.1-2.8C135.5,402.3,138.4,397.8,140.6,394 M250.3,399.8
		c1.5-3.9,1.9-8.4,4.8-11.6c-0.7,10.4-0.1,20.9-1.2,31.3c-0.5,4.8-2.4,9.3-4.2,13.8c-1,2.4-2.1,5.1-4.5,6.5c0.7-5.1,2-10.1,2.6-15.2
		C249.2,416.4,247.3,407.8,250.3,399.8 M304.6,402.1c1.6-4.6,2.4-9.8,5.4-13.8c0.2,8.5,0.2,16.9-0.6,25.4c0.1,7.6-2.4,14.9-5.5,21.7
		c-0.7,1.6-1.9,2.8-3.1,4c0.6-6.9,2.2-13.8,2.8-20.7C303.9,413.1,302.6,407.4,304.6,402.1 M232.8,408.2c1.5-4.2,3.1-8.5,6.3-11.8
		c-1.7,14.5-1.8,29.6-7.8,43.2c-5,10.3-13,20.3-24.5,23.4c-6.9,1.1-15.3,2-20.7-3.4c-4.7-4.3-5.2-11.1-4.9-17.1
		c1.2-10.7,5.6-20.7,11.1-29.9c0.5-1.3,1.7-1.9,2.9-2.3c-2.3,9.1-8.8,17.1-8.6,26.9c0.1,4.5,2.4,9.4,7,10.8c14.5,5.3,32-3.6,37-18.1
		C233.2,423,230.3,415.3,232.8,408.2 M286,408.5c3.5-2,5.3-5.8,8.4-8.2c-0.4,4.9-2,9.8-4.6,14c-3,4.6-9.6,4.7-12.5,9.5
		c-3.5,5.8-3.8,14.1-10.2,17.7c-4.7,1.8-10,3.7-15.1,2.3c5.3-6.3,14-8.7,18.9-15.4c2.8-4.4,4.1-9.7,6.9-14.1
		C279.7,411.4,283.1,410.2,286,408.5 M165.5,410.1c0.9-2.3,0.8-5.8,3.6-6.7c-0.4,8.2-2.5,16.4-5,24.2c-1.3,3.7-3,7.6-6.6,9.5
		c-4.5,2.3-9.4,4.3-14.5,4.4c2.4-4.7,7.7-6.9,11.3-10.6C160.4,425.5,163.6,417.8,165.5,410.1 M210.6,411.8c2.9,2.4,7.1,4.5,7.1,8.8
		c-0.7,3.8-2.2,7.9-5.5,10.1c-2.9-1.6-5.6-3.7-7.8-6.3C205.6,419.9,208.4,416,210.6,411.8 M92.3,426.4c2-4.4,3.9-8.9,6.7-12.9
		c3.3,2.5,8.1,5.7,6.5,10.6c-1.1,3-2.4,7.8-6.1,8.1C96.9,430.5,94.7,428.3,92.3,426.4 M134.2,442.7c2,1.6,4.4,3,5.5,5.4
		c0.7,3.9-1.2,8-4.4,10.1c-1.8-1.3-3.6-2.6-5.4-3.9c-1.4,1.8-2,5.2-4.7,5.3c-2.4-0.7-4.1-2.8-6.1-4.2c1.2-3.8,3.3-7.3,5.3-10.8
		c2.1,1.6,4.1,3.4,5.9,5.3C131.6,447.5,132.9,445.1,134.2,442.7 M291.5,445.9c3-0.7,5.3,2.7,6.4,5.1c0.1,3-1.1,6.1-3.3,8.2
		c-2.3,2.6-4.4-1.7-6.6-2.6c-2,1.4-2.2,4.9-4.9,5.2c-2.3-0.8-4.4-2.4-6-4.3c0.6-3.7,2.6-7.3,5.1-10.1c2.8,0.4,4.3,3.3,5.9,5.4
		C289.1,450.4,290,448,291.5,445.9 M428.4,445.4c2.3,1.5,5.4,3.3,5.7,6.3c-0.1,3.4-1.9,6.7-4.8,8.5c-2-1.6-4-3.2-6-4.8
		C424.8,452,426.3,448.6,428.4,445.4 M337.1,480.8c5.4-0.9,11.5-1.3,16.2,1.8c2.1,2.3-0.2,5-2.2,6.4c2.9,1.3,5.4,4.7,2.9,7.6
		c-4.7,3.9-11.3,2.9-17,3.1C337.1,493.3,336.9,487,337.1,480.8 M342.6,483.7c0,1.3-0.1,2.6-0.1,3.9c2.3,0.3,5.2,0,5.9-2.8
		C346.8,483.2,344.5,483.6,342.6,483.7 M342.6,490.7c0,2,0.1,4,0.1,6c2.7-0.2,5.5-1,6.5-3.7C347.4,491.2,345,490.7,342.6,490.7
		 M76.4,481c1.9,0,3.8,0,5.7-0.1c0.2,6.2,0,12.5,0.1,18.8c-2,0-4,0-5.9,0C76.5,493.5,76.2,487.2,76.4,481 M92.5,481
		c5.2-0.4,11.2-1.6,15.8,1.4c3,2.4,1.2,6.3-1.4,8.2c2.1,2.7,2.9,6,4,9.1c-2.2,0-4.4-0.1-6.6-0.2c-0.7-2.4-1.5-4.8-2.3-7.2
		c-1.3,0-2.6,0-3.9,0c0,2.5,0,5,0,7.5c-1.9-0.1-3.8-0.2-5.8-0.2C92.6,493.4,92.4,487.2,92.5,481 M98.5,483.6
		c-0.1,1.8-0.3,3.6-0.4,5.5c1.9-0.3,3.7-0.6,5.6-0.9c0.1-1.1,0.2-2.2,0.3-3.3C102.2,484.3,100.4,483.9,98.5,483.6 M124.3,480.8
		c2.6,0,5.2,0,7.8,0c2.4,6.3,4.7,12.6,6.9,18.9c-2.2,0-4.4,0-6.6-0.1c-0.5-1.6-1.1-3.2-1.6-4.8c-1.8,0-3.6,0-5.4,0
		c-0.6,1.5-1.1,3.1-1.6,4.7c-2.1,0.1-4.2,0.2-6.4,0.2C119.9,493.5,121.8,487,124.3,480.8 M127.4,485.8c-0.5,2-0.8,4-1.3,6
		c1.3,0,2.7,0,4,0C129.2,489.9,130.1,485.9,127.4,485.8 M147.5,480.9c2.2,0,4.4-0.1,6.6-0.1c2.7,3.6,4.8,7.7,7.8,11.1
		c0.1-3.7,0-7.4,0.2-11.1c1.6,0,3.3,0,4.9,0c0.1,6.2,0.1,12.5,0,18.8c-1.9,0-3.8,0.2-5.6,0c-3.3-3.8-5.2-8.6-8.8-12.2
		c0.1,4.1,0.3,8.2,0.3,12.2c-1.8,0-3.7,0-5.5-0.1C147.7,493.4,147.5,487.1,147.5,480.9 M188.9,480.6c5.8-0.1,11.7-0.2,17.5,0.1
		c-0.3,1.4-0.2,2.9-1.3,3.9c-3,3.7-6,7.3-9,11c3.4,0,6.7,0,10.1,0.1c0,1.3-0.1,2.6-0.1,4c-6.1,0.1-12.1,0.1-18.2,0
		c0.2-3.7,3-6.3,5.3-8.9c1.8-2.1,3.5-4.4,5.2-6.6c-3.1,0-6.2,0-9.3,0C188.9,483.2,188.9,481.5,188.9,480.6 M219.4,480.7
		c2.6,0.2,6.1-1.1,8.2,0.5c2.4,6.1,4.9,12.1,6.6,18.5c-1.9,0-3.9,0-5.8-0.2c-1.4-1.1-1.7-3.2-2.5-4.8c-1.8,0-3.7,0-5.5,0
		c-0.5,1.6-1.1,3.1-1.6,4.7c-2,0.1-4.1,0.2-6.1,0.3C214.5,493.2,217.1,487.1,219.4,480.7 M223.2,484.4c-0.8,2.4-1.5,4.8-2.2,7.2
		c1.4,0,2.9,0.1,4.3,0.1C224.8,489.1,224.4,486.6,223.2,484.4 M243.4,480.7c2.6-0.1,5.1-0.2,7.7-0.2c1.3,3.8,2.7,7.5,3.8,11.3
		c2.4-3.2,2.5-7.5,4.6-10.9c2.5-0.6,5-0.3,7.6-0.4c0.3,6.4,1.2,12.8,1.4,19.2c-1.8,0-3.7,0-5.5,0c-0.2-4.1-0.7-8.2-1.2-12.3
		c-2,3.6-2.5,8-4.7,11.5c-1.6,0.2-3.2,0.1-4.7,0c-1.1-3.3-2.2-6.7-3.4-10c-0.3,0.1-0.9,0.4-1.1,0.5c-0.3,3.4-0.1,6.8-0.4,10.2
		c-1.8,0.1-3.5,0.2-5.3,0.2C242.1,493.4,243,487.1,243.4,480.7 M278.3,480.6c1.9,0.1,3.8,0.1,5.8,0.1c0,6.3,0.1,12.6-0.1,18.9
		c-1.9-0.1-3.8-0.1-5.7-0.1C278.2,493.2,278.1,486.9,278.3,480.6 M294.4,480.6c2.2,0,4.4-0.5,6.5,0.1c2.9,3.5,5,7.6,7.8,11.1
		c0-3.8-0.1-7.6,0-11.4c1.8,0,3.5,0,5.3,0.1c-0.1,6.4,0,12.7,0,19.1c-1.8-0.1-3.7,0-5.5-0.3c-3.8-3.3-5.1-8.7-8.9-12
		c0,4.1,0.2,8.2,0.4,12.2c-1.8,0-3.6,0-5.4,0C294.5,493.2,294.2,486.9,294.4,480.6 M369.1,480.4c2.6,0,5.3,0.1,7.9,0.1
		c2.1,6.3,4.9,12.4,6.5,19c-2,0-4.1,0-6.1,0c-0.5-1.6-1-3.2-1.5-4.7c-1.9-0.1-3.8-0.3-5.6-0.3c-1.3,1.2-1.2,3.2-1.7,4.8
		c-2.1,0.2-4.3,0.3-6.4,0.4C364.4,493.3,366.5,486.8,369.1,480.4 M370.8,491.6c1.4,0,2.8,0,4.2,0c-0.6-2.2-1.2-4.4-2-6.5
		C371.9,487.1,371.2,489.3,370.8,491.6 M392.2,480.3c2.2,0.1,4.6-0.4,6.7,0.4c3.1,3.1,4.5,7.6,8,10.3c-0.3-3.5-0.6-7-0.6-10.5
		c1.9,0,3.8,0,5.8,0c0.1,6.4,0.1,12.7-0.1,19.1c-1.8,0-3.7,0.1-5.5-0.1c-3.5-3.3-5.2-8.1-8.5-11.6c-0.3,3.9-0.2,7.8-0.1,11.6
		c-1.9,0-3.7,0-5.6,0C392.1,493.1,392.2,486.7,392.2,480.3 M422.3,480.4c1.9-0.1,3.9-0.1,5.8-0.1c0.1,2.5,0.2,5,0.3,7.5
		c2.1-2.4,3.8-5,6-7.3c2.2-0.6,4.5-0.2,6.7-0.2c-1.7,3-4.2,5.4-6.7,7.7c2.4,3.8,5.4,7.4,7.3,11.5c-2.4-0.1-4.7-0.2-7-0.4
		c-1.4-2.7-3-5.4-4.7-7.9c-2.4,2.1-1.8,5.4-2,8.2c-1.9,0-3.8,0-5.7-0.1C422.2,493.1,422.2,486.8,422.3,480.4L422.3,480.4z"/>
	<path class="st2" d="M255.5,163.1c23.8-3.8,50,9.5,59,32.2c5.5,12.9,5.1,28.2-1,40.8c-2.8,7.2-8.5,12.8-13.9,18.1
		c-19.9,17.1-52.2,17.4-72.1,0.1c-5.2-4.9-10.3-10.2-13.3-16.8c-6.6-13.3-7.1-29.7-0.7-43.2C220.9,177.5,237.7,165.9,255.5,163.1
		L255.5,163.1z"/>
</g>
</svg>
