<?xml version="1.0" encoding="utf-8"?>
<!-- Generator: Adobe Illustrator 24.3.0, SVG Export Plug-In . SVG Version: 6.00 Build 0)  -->
<svg version="1.0" id="Layer_1" xmlns="http://www.w3.org/2000/svg" xmlns:xlink="http://www.w3.org/1999/xlink" x="0px" y="0px"
	 viewBox="0 0 524.9 663.1" style="enable-background:new 0 0 524.9 663.1;" xml:space="preserve">
<style type="text/css">
	.st0{fill:#157215;}
	.st1{fill:#AA7346;}
	.st2{fill:#040605;}
</style>
<g>
	<path class="st0" d="M268.3,43.3c29.1,29.1,58.2,58.2,87.4,87.4c3.5,3.6,7.2,7,10.5,10.7c-24.7,0.5-49.3,0.1-74,0.2
		c-40.4,0-80.8,0.1-121.2-0.1c1.5-2.7,3.9-4.6,6-6.7c28-28,56-56,84-84C263.4,48.4,265.9,45.9,268.3,43.3 M169.7,141.9
		c0.2,2.4,0.3,4.8,0.2,7.2c-0.1,62.5,0.1,125.1-0.2,187.6c-32.6-32.4-65.1-64.9-97.5-97.5C104.9,207,137.3,174.5,169.7,141.9
		 M366.2,184.2c0.1-14.3-0.2-28.7,0.2-43c29.8,30.4,60.2,60.2,90.2,90.4c2.5,2.7,5.7,5,7.6,8.3c-3.6,2.8-6.6,6.3-9.9,9.4
		c-19,19-38,38-57,57c-10.2,10.4-20.8,20.3-30.6,31c-0.3-1.4-0.4-2.8-0.5-4.2C366.2,283.4,366.2,233.8,366.2,184.2 M170.9,337.9
		c64.8-0.2,129.5-0.1,194.3-0.1c-1.7,2.2-3.5,4.2-5.5,6.1c-23.6,23.6-47.3,47.3-70.9,70.9c-6.5,6.7-13.4,13-19.6,20
		c-0.4,0-1.2,0.1-1.6,0.1C235.5,402.4,202.9,370.4,170.9,337.9L170.9,337.9z"/>
	<path class="st1" d="M231.9,170.8c13.8-7.4,29.7-10.5,45.2-8.8c5.5,1.1,11.1,2,16.4,3.9c1.1,0.5,2.2,1,3.4,1.5
		c2.3,0.8,4.4,1.9,6.7,2.5l-0.1,0.7c1.1,0.4,2.2,0.8,3.3,1.3c3,2.1,6.1,3.9,9.1,6.1c2,1.9,4.2,3.6,6.3,5.3c0.6,0.7,1.3,1.4,1.9,2.1
		c2.6,2.9,5,6.1,7.7,8.9c0,0.4-0.1,1.1-0.2,1.5l1-0.1c0.8,1.7,1.9,3.2,3.1,4.6c0,0.4-0.1,1.1-0.2,1.5l1.3,0.1
		c-0.1,0.5-0.2,1.5-0.3,2l1.6-0.1c-0.2,0.5-0.5,1.5-0.6,2h1.5c-0.1,0.5-0.4,1.5-0.5,2l1.1,0c0.7,2.8,2.3,5.2,2.4,8.1l0.6,0
		c1.5,6.1,3.5,12.1,3.3,18.4c0,5.3,0.3,10.6-0.3,15.8c-0.9,4.6-1.9,9.3-3.5,13.8c-0.5,1.6-1,3.2-1.5,4.8l-0.6,0
		c-0.3,2.6-1.8,4.9-3,7.2c-0.4,1-0.9,2-1.3,3c-0.4,0.4-1.2,1.1-1.6,1.5c-0.1,0.5-0.5,1.4-0.6,1.8c-1.7,2.2-3.6,4.3-4.9,6.7l-0.5-0.2
		c-3.1,4.3-7,8.3-11.4,11.3l0.1,0.5c-2.5,1.5-4.8,3.4-7.5,4.7c-0.3,0.4-1,1-1.3,1.4c-1.1,0.4-2.2,0.8-3.3,1.1c0,0.2-0.1,0.6-0.1,0.8
		c-2.9,1.6-6.3,2-8.9,4c-0.7,0.1-2,0.3-2.6,0.4c-11.5,4.8-24.3,4.6-36.6,3.5c-7.3-1.6-14.6-3.4-21.3-6.9c-2.2-0.9-3.9-2.7-6.4-2.9
		l0.2-0.7c-2.2-1-4.2-2.2-6.3-3.5l0.3-0.5c-1.5-0.7-2.7-1.7-3.9-2.7c-0.9-0.6-1.9-1.3-2.7-2.1c-0.7-0.7-1.4-1.3-2.1-2
		c-0.6-0.7-1.3-1.4-1.9-2.1c-1-0.5-1.6-1.4-1.8-2.5l-0.5,0.2c-0.8-1.5-1.9-2.7-3.1-3.9c-0.3-1.3-1.2-2.2-2.5-2.6
		c0.1-0.3,0.3-0.9,0.4-1.2c-2.1-0.9-2.6-3.4-4.1-4.9c0-0.4,0.1-1.1,0.1-1.4l-1.2-0.1c0.1-0.5,0.2-1.5,0.3-1.9l-1.5,0.1
		c0.1-0.5,0.4-1.5,0.5-2l-1.3-0.2c0.1-0.5,0.3-1.4,0.3-1.9l-1,0c-5.1-13.4-8-28-5.6-42.3c1.1-5.3,2.1-10.6,4.1-15.6
		c1.9-5.3,4.5-10.3,7.5-15.1c1.5-1.9,2.8-3.9,4-6l0.5,0.1c1.4-2.6,3.7-4.5,5.7-6.6c2.5-2.4,4.6-5.1,7.6-6.8l-0.2-0.5
		C224.4,175.6,227.8,172.7,231.9,170.8 M243.4,510.5l0.2,0c-0.1,0-0.1,0.1-0.2,0.2L243.4,510.5 M408,520.1c-0.6-1.1,0.2-3.5,1.7-2.6
		c0.4,1.1,0.2,2-0.8,2.9L408,520.1 M97.4,594.5c0.3,0.3,0.9,0.9,1.2,1.2c-0.7,1.6-1.4,3.1-1.9,4.8l-0.6,0
		C96.7,598.5,97,596.4,97.4,594.5L97.4,594.5z"/>
	<path class="st2" d="M501.9,412.9c2.8-2.1,5.2-4.7,8.5-6c-0.5,4.6-4.3,7.6-7,11c-4.3,5.3-10.2,8.9-15.5,13
		c-16,12.1-32.5,23.6-48.8,35.4c-5.9,4.2-11.3,9.1-17.1,13.5c1.9-6.7,7.1-11.9,12.1-16.5C456.1,445.8,479.6,430.1,501.9,412.9
		 M227.8,432.4c2.2-1.7,4-4.2,6.9-4.5c-2.3,6.4-7,11.5-11.9,15.9c-6.1,5.5-13.5,9.7-21.6,10.9c-5.4,0.9-10.7-1.9-16.1-0.6
		c-3.3,0.6-6,2.6-8.9,4.2c1.4-6.8,6.8-12,12.4-15.6c4.6-3,10.3-0.7,15.3-1.1C212.9,441.8,221.2,438,227.8,432.4 M153.3,446.1
		c4.2,0.8,8.9,3.4,9.4,8.1c0.2,5.1-3.3,9.2-6.4,12.8c-3.2-2.1-6.7-3.9-9.7-6.2c-0.1-0.4-0.2-1.3-0.3-1.7
		C148.2,454.5,151,450.4,153.3,446.1 M276.5,472.7c7.9-8.9,15.4-18.3,23.6-27c-0.9,5.7-3.3,11.2-6.6,15.9
		c-13.7,16.2-28,32-41.4,48.4c5.5,0.8,12.5,2.2,14.6,8.1c1.6,11.9-2.6,24.1-9.9,33.5c-2.4,2.9-4.8,6.2-8.6,7.4
		c-3.6,1.2-8,1.7-11.1-1c-2.7-2.5-3.5-6.5-3.9-10c-0.9-7.7,0.6-15.3,1.7-22.9c1.6-11.1,3.2-22.2,4.8-33.3c0.5-4.2,2.3-8,3.7-11.9
		c1.1-2.8,1.7-6,3.8-8.3c0.5,5.5-1.1,11-1.5,16.5c-0.7,7.4-2.3,14.8-2.3,22.3l0,0.2c0-0.1,0.1-0.1,0.2-0.2
		C254.9,498.3,265.5,485.3,276.5,472.7 M244.3,528c-4.1,2.4-3,8.2-0.2,11.1c4.4,3.8,11.8,2.8,15.3-1.7c1.6-2.9,0.1-6.6-2.8-8
		C252.9,527.5,248.3,526.8,244.3,528 M449.6,479.2c0.5-1.2,1.4-2.1,2.2-3c0,2.2-0.1,4.3-0.5,6.4c-2.3,13.5-5.5,26.8-6.3,40.5
		c-0.1,3.6-0.3,7.4,1.2,10.8c1.7,3.4,6.4,4.7,9.6,2.7c1.3-1.2,2.3-2.7,3.5-4c0,7.7-2,15.7-6.8,21.8c-2.5,3.5-8,3.1-10.8,0.3
		c-2-2.3-2.6-5.4-2.9-8.4c-1.3-13.5,2-26.9,3.9-40.2C443.9,496.9,445.9,487.8,449.6,479.2 M194.2,477.8c0.2,3.6-0.5,7.2-0.9,10.8
		c-1.6,13.6-2.2,27.2-4.7,40.7c-1.2,6.1-3.6,12-7.6,16.9c1.5-16.1,3.2-32.1,4.9-48.1C188.1,491.1,191.2,484.4,194.2,477.8
		 M423.5,494.3c2.3-4.7,4.9-9.2,7.5-13.7c4.2,0.9,9,3.6,9.3,8.4c0,4.7-3,8.9-6.2,12.1C430.2,499.5,426.5,497.2,423.5,494.3
		 M111.1,493.1c6.1-0.7,6.8-8,9.5-12.3c1.8,6.4-1.3,13-4.3,18.6c-1.8,3.6-5.8,4.7-9.3,5.7c-4,18.1-10.5,36.1-21.5,51.2
		c-7.5,9.9-18.2,17.8-30.4,20.3c-8,1.5-17.3-0.1-23-6.5c-3.4-3.7-4.4-8.7-5.4-13.4l-0.5,1.2v-13.3c2-9.1,4.9-18,9.2-26.3
		c0.9-1.6,2.1-2.9,3.2-4.2c-0.4,3.8-2.3,7.2-3.8,10.6c-2.7,7.1-4.6,15.5-0.9,22.7c2.7,6,9,9.5,15.4,10.1
		c12.3,1.1,25.3-2.2,34.7-10.6c10.2-9,14.4-22.8,15.5-36c0.6-5.1,0-10.3,1.2-15.3C102.6,491.9,107.7,494,111.1,493.1 M420.2,483
		c0.1,1.1,0.1,2.2-0.2,3.2c-2.7,11.5-5.1,23.1-5.7,34.9c-0.2,5,0.1,10.4,3.1,14.6c1.2,1.8,3.4,3.1,5.6,2.4c2.8-0.8,4.5-3.4,6.6-5.3
		c-0.7,8-2.1,16.9-7.9,22.9c-4.6,4.4-12.1,0.5-13.2-5.3c-1.9-10,0.3-20.1,0.4-30.1c1-0.8,1.3-1.8,0.8-2.9c-1.5-0.9-2.4,1.5-1.7,2.6
		c-5.1,7.3-10.4,15.1-18.6,19.2c-8.9,4.2-17.7,9-27.3,11.7c-18.7,5.5-38.5,8.3-57.9,5.5c-4.7-1.1-10.1-2.3-13.1-6.4
		c-2.1-8.9-2.4-18.7,1.5-27.1c0.9,3.3,1.8,6.8,4.1,9.5c2.8,3.4,7.1,5.1,11.4,5.6c13.7,1.9,27.7,2.4,41.5,0.4
		c9.4-1.4,18.5-4.2,27.6-6.9c7.7-2.2,15.2-5.2,22-9.5c3.5-2.3,7.1-5.1,9-9C413.1,503.4,414.1,492.2,420.2,483 M151.4,487.5
		c3.4-1,7.9-1.1,10,2.3c4.2,7.8,5.1,17.8,1.3,26c-3.1,6.1-7.6,11.5-13,15.6c-5.8,4.2-13.8,5.7-17.7,12.3
		c-3.6,6.2-5.6,13.5-10.8,18.5c-6.8,6.3-16.4,8.3-25.4,8.3c2-3.6,5.8-5.5,9.1-7.7c6.3-4.2,12.7-8.6,17.8-14.3
		c4.7-5.2,5.6-12.6,10.1-18c5.5-7.5,14.6-10.8,23-13.9c2.6-0.8,2.9-3.6,2.9-5.9c-3.9-2.3-8.4,1.3-12.3-0.9c-3.2-1.1-4.5-4.8-3.4-7.8
		C144.7,496.8,148.1,492.1,151.4,487.5 M61.6,515.3c1.5-5,4.9-9.3,7.3-14c3.7,1,7.8,2.9,9,6.9c1.3,5.5-2.7,10.2-6,14.1
		C68.4,520,64.1,518.6,61.6,515.3 M216.3,532.3c0.9-2.4,1.5-5.2,3.6-6.9c0.2,5.5-2.5,10.5-3.9,15.7c-2.3,8.9-6.4,17.5-12.9,24.1
		c-4.7,4.9-12.1,4.7-18.4,4.6c0.9-1.4,2-2.7,3.5-3.5c6.7-4.1,13.5-8.5,18.2-15C210.5,545.5,213.9,539.1,216.3,532.3 M441,584
		c2.1-4,4.4-7.9,6.6-11.8c3.9,1.2,8.5,3.3,9.1,7.9c0.4,5-2.9,9.4-6.2,12.9c-3.2-1.4-6.1-3.5-9.1-5.4
		C440.1,586.9,440.4,585.1,441,584 M80.4,600.4c2.3-4.8,5-9.3,7.6-13.9c4.2,0.8,8,3.4,9.5,7.5l-0.1,0.4c-0.4,2-0.7,4-1.3,5.9
		c-1.5,2.4-3,4.9-5.2,6.8C87.1,605.5,83.5,603.2,80.4,600.4 M98.6,595.6c1.8-3,3.6-6,5.3-9.1c3.9,0.9,8.4,3.1,9.1,7.5
		c0.8,5.3-2.9,9.6-6,13.4c-3.5-2.2-7.7-3.7-10.3-7C97.2,598.8,97.9,597.2,98.6,595.6L98.6,595.6z"/>
</g>
</svg>
