<?xml version="1.0" encoding="utf-8"?>
<!-- Generator: Adobe Illustrator 24.3.0, SVG Export Plug-In . SVG Version: 6.00 Build 0)  -->
<svg version="1.0" xmlns="http://www.w3.org/2000/svg" xmlns:xlink="http://www.w3.org/1999/xlink" x="0px" y="0px"
	 viewBox="0 0 612 792" style="enable-background:new 0 0 612 792;" xml:space="preserve">
<style type="text/css">
	.st0{fill-rule:evenodd;clip-rule:evenodd;fill:url(#SVGID_1_);}
	.st1{fill-rule:evenodd;clip-rule:evenodd;fill:#202D14;stroke:#373435;stroke-width:0.216;stroke-miterlimit:22.9256;}
	.st2{fill-rule:evenodd;clip-rule:evenodd;fill:#EFF1BF;}
</style>
<g id="Layer_1">
</g>
<g id="_x23_Layer_3">
	<g>
		<linearGradient id="SVGID_1_" gradientUnits="userSpaceOnUse" x1="51.8001" y1="231.7213" x2="570.0068" y2="568.2486">
			<stop  offset="0" style="stop-color:#B6762A"/>
			<stop  offset="0.63" style="stop-color:#F1EF9A"/>
			<stop  offset="1" style="stop-color:#B6762A"/>
		</linearGradient>
		<path class="st0" d="M289.2,215.6l-0.4-21.6h33.3l-0.1,21.6l22.4,0l0,43.4l43.7,0l23.3,27.4l-12.1,0.4L388,303.8l8.4,0.1l0,15.4
			l15.5,0.1l0.1,20.6l15.4-0.1v28c8-0.2,13.6,2.5,16.5,11.4c15.1-1,24,17.5,28.6,36.5l-10.6-4.7l-36.3-0.2l-3.4,7l15.5-0.1l0.2,13.7
			l12,0l0.1,15.7l-12.3,0l0,10.3l-19,0.2l0,6.7l-15.5,0.2l0,77.9l-65.7,0l-0.1,31l-13.8,0l0,24.2l-36.4,0v-24.2l-13.8,0l0-31.1
			l-65.8-0.1l0.2-77.9l-15.6,0l0.2-6.9l-19.3,0l-0.1-10.4l-11.9-0.1l-0.1-15.5l12,0l0.1-13.7l16.8,0l-3.2-7.1l-34.1-0.2
			c-4.9,0.6-9.2,2.3-13.5,5.6c2.5-14.8,7.3-35.3,28.3-36.9c1.8-6.5,6-12.2,16.2-11.7l-0.2-27.7l15.8,0.1l-0.1-20.7l15.4-0.1
			l0.1-13.8l8.5,0l-11.9-18.9l-11.9,0l24.1-26h43.1l0-44.7L289.2,215.6z"/>
		<polygon class="st1" points="302.9,364.4 303,381.9 285.7,371.3 285.7,284.9 273.7,266.7 273.5,224.3 296.1,224.3 296.1,201.8 
			315.1,201.9 315,224.6 337.7,224.6 337.7,266.7 325.6,284.8 325.6,371.2 309.9,381.7 310.1,364.3 315.1,358.8 315.3,234.7 
			296.2,234.7 296.2,359.2 		"/>
		<polygon class="st1" points="220,276.2 225.2,269.3 268.4,269.2 278.8,288.3 278.9,378.1 301.2,392.1 301.3,452.6 275.3,452.6 
			275.4,395.5 247.6,369.2 247.5,302.2 232,276.2 		"/>
		<polygon class="st1" points="221.7,286.6 228.8,286.6 241,307.3 240.8,367.8 234,367.8 233.9,307.3 		"/>
		<polygon class="st1" points="220.1,350.6 226.8,350.6 226.9,367.8 220,367.9 		"/>
		<path class="st1" d="M154.3,402.3c1.3-5.8,5.1-11.9,10.3-13.6l11.8-0.1c-0.8-5.2,0.8-9,5.6-12l62.1-0.2l22.6,22.6l0,53.7
			l-20.7-0.1l-32.9-50L154.3,402.3z"/>
		<polygon class="st1" points="197.4,411.2 207.8,411.1 235.5,452.5 223.5,452.6 		"/>
		<polygon class="st1" points="192.3,435.4 192.5,442.1 207.9,442.2 202.5,435.3 		"/>
		<polygon class="st1" points="391.1,276.2 385.9,269.3 342.8,269.2 332.3,288.3 332.3,378.1 309.9,392.1 309.8,452.6 335.8,452.6 
			335.7,395.5 363.5,369.2 363.6,302.2 379.1,276.2 		"/>
		<path class="st1" d="M457.1,402.2c-1.3-5.8-5.1-11.9-10.3-13.6l-11.8-0.1c0.8-5.2-0.8-9-5.6-12l-62.1-0.2l-22.7,22.8l0.1,53.5
			l20.7-0.1l32.9-50L457.1,402.2z"/>
		<polygon class="st1" points="414.3,411.2 403.9,411.2 376.2,452.6 388.2,452.7 		"/>
		<polygon class="st1" points="418.8,435.4 418.9,442.2 403.5,442.3 408.6,435.4 		"/>
		<polygon class="st1" points="282.2,542.5 282.3,565.1 296.2,565.1 296.1,589.2 315.3,589.2 315.2,565.1 329,565.1 328.9,542.7 
			315.1,542.7 315,556.2 296.2,556.3 296,542.6 		"/>
		<polygon class="st1" points="214.8,461.3 215,533.8 396.4,533.9 396.4,461.3 		"/>
		<polygon class="st1" points="384.3,350.6 391.1,350.6 391.2,367.8 384.2,367.9 		"/>
		<polygon class="st1" points="389.6,286.6 382.4,286.6 370.2,307.3 370.4,367.8 377.2,367.8 377.3,307.3 		"/>
		<g>
			<path class="st2" d="M363.1,508.2v0.9c0,1.6,0.4,2.7,1.3,3.3c0.5,0.3,1.1,0.5,1.9,0.5c0.6,0,1.1-0.6,1.5-1.8
				c0.1-0.3,0.2-0.6,0.3-0.9c0.1-0.3,0.2-0.5,0.4-0.5c0.2,0,0.3,0.2,0.3,0.6c0,0.2,0,0.4-0.1,0.7c-0.1,0.3-0.1,0.6-0.2,0.8
				c-0.5,2.3-1.2,4-2,5.3c-0.8,1.3-1.6,1.9-2.5,1.9c-1.3,0-2.2-0.6-2.7-1.7c-0.5-1.2-0.8-2.6-0.8-4.4L363.1,508.2z"/>
			<path class="st2" d="M367.8,527.4c0.1,0.4,0,0.8-0.1,1.2c-0.1,0.4-0.4,0.9-0.7,1.5c-0.3,0.6-0.7,1.1-1.2,1.5
				c-0.3,0.3-0.6,0.5-0.8,0.5c-0.1,0-0.4-0.2-0.8-0.5c-0.4-0.3-0.8-0.6-1.1-0.9c-0.3-0.3-0.6-0.5-0.9-0.7c-0.2-0.2-0.4-0.4-0.4-0.6
				c0.2-0.5,0.4-0.9,0.5-1.2c0.4-0.8,0.7-1.5,0.9-1.9c0.4-0.6,0.7-1.2,1.1-1.8c0.1-0.1,0.2-0.3,0.4-0.5c0.1,0.1,0.2,0.2,0.4,0.3
				c0.1,0.1,0.3,0.2,0.5,0.3c0.8,0.7,1.4,1.2,1.7,1.5C367.5,526.5,367.7,526.9,367.8,527.4z"/>
			<path class="st2" d="M363.1,508.2c-0.3,1-0.6,2-1,3c-0.4,1-1,1.6-1.6,1.6c0-0.5,0.2-2.5,0.7-6c0.4-3.6,0.8-6.3,1.1-8.2
				c0-0.2,0.4-0.9,1-2.4c0.6-1.4,1.1-2.5,1.4-3.2c0.1,0,0.2-0.1,0.2-0.1c0,0.1,0,0.4-0.1,0.9l-0.2,1.5l-1,7.1
				c-0.2,1.4-0.3,2.7-0.4,3.7C363.1,507,363.1,507.8,363.1,508.2z"/>
			<path class="st2" d="M351.5,508.2v0.9c0,1.6,0.4,2.7,1.3,3.3c0.5,0.3,1.1,0.5,1.9,0.5c0.6,0,1.1-0.6,1.5-1.8
				c0.1-0.3,0.2-0.6,0.3-0.9c0.1-0.3,0.2-0.5,0.4-0.5c0.2,0,0.3,0.2,0.3,0.6c0,0.2,0,0.4-0.1,0.7c-0.1,0.3-0.1,0.6-0.1,0.8
				c-0.5,2.3-1.2,4-2,5.3c-0.8,1.3-1.6,1.9-2.5,1.9c-1.3,0-2.2-0.6-2.7-1.7c-0.5-1.2-0.8-2.6-0.8-4.4L351.5,508.2z"/>
			<path class="st2" d="M356.1,482.5c0.1,0.4,0,0.8-0.1,1.2c-0.1,0.4-0.4,0.9-0.7,1.5c-0.3,0.6-0.7,1.1-1.2,1.5
				c-0.3,0.3-0.6,0.5-0.8,0.5c-0.1,0-0.4-0.2-0.8-0.5c-0.4-0.3-0.8-0.6-1.1-0.9c-0.3-0.3-0.6-0.5-0.9-0.7c-0.2-0.2-0.4-0.4-0.4-0.6
				c0.2-0.5,0.4-0.9,0.5-1.2c0.4-0.8,0.7-1.5,0.9-1.9c0.4-0.6,0.7-1.2,1.1-1.8c0.1-0.1,0.2-0.3,0.4-0.5c0.1,0.1,0.2,0.2,0.4,0.3
				c0.1,0.1,0.3,0.2,0.5,0.3c0.8,0.7,1.4,1.2,1.7,1.5C355.8,481.7,356,482.1,356.1,482.5z"/>
			<path class="st2" d="M351.5,508.2c-0.1,0.5-0.2,0.9-0.4,1.4c-0.1,0.5-0.3,1-0.6,1.6c-0.3,0.6-0.6,1-0.9,1.2
				c-0.3,0.3-0.6,0.3-0.7,0.2c0-0.9,0.1-1.9,0.2-3c0.1-1.1,0.2-1.9,0.3-2.2l0.1-0.6c0-0.1,0-0.2-0.1-0.2c0,0-0.1,0-0.2,0.1
				c-0.2,0.2-0.4,0.5-0.8,1c-0.8,1-1.3,1.7-1.7,2.2c-1.2,1.5-2.7,2.8-4.5,4.1c-1.8,1.3-3.7,2.3-5.8,3c-2,0.7-4.4,1.4-6.9,1.9
				c-2.6,0.5-5.3,0.8-8.1,0.8h-0.9c-1.7,0-3.1-0.1-4.2-0.3c-1.7-0.3-2.9-0.8-3.5-1.5c-0.6-0.7-0.9-1.8-0.9-3.3
				c0-1.2,0.1-2.5,0.3-3.8c0.2-1.3,0.4-2,0.8-2c0.1,0,0.2,0.4,0.3,1.1c0.1,0.8,0.4,1.4,0.9,2c1.1,1.2,3.7,1.7,7.9,1.7
				c2.3,0,4.1-0.1,5.5-0.2c6.6-0.5,11.9-2.1,16.1-4.6c2-1.1,3.5-2.5,4.6-4c0.8-1.2,1.5-2.6,2-4.3l0.8-3.3c0.1-0.3,0.5-1.3,1.3-3
				c0.5-1,0.9-1.7,1-2c0.2-0.3,0.4-0.5,0.6-0.8c0,0.3,0,0.6,0,0.9c-0.2,0.8-0.3,1.5-0.4,2l-1.3,6.1c-0.2,1.7-0.4,3.2-0.5,4.5
				C351.6,506.5,351.5,507.5,351.5,508.2z"/>
			<path class="st2" d="M356.4,487.4c0.9-0.9,2.8-2.5,5.7-4.7c2.6-2,5.1-4,7.7-6c1.8-1.5,3.6-3,5.3-4.5c1.2-1.1,2.8-2.5,4.8-4.4
				c3-2.8,4.5-4.2,4.5-4.3c0,0.2,0,0.4-0.1,0.5c-0.1,0.5-0.5,1.4-1.1,2.4c-0.6,1.1-1.2,1.9-1.6,2.4c-0.6,0.8-1.3,1.6-2.1,2.4
				c-0.7,0.8-1.3,1.4-1.8,1.8c-0.6,0.6-1.6,1.5-3.1,2.7c-1.1,0.9-2.7,2.3-4.9,4.1c-1.5,1.2-2.9,2.3-4.1,3.2
				c-1.6,1.2-3.2,2.4-4.8,3.5l-4.2,3.1c-0.6,0.5-1.2,0.9-1.7,1.3c-0.5,0.4-0.9,0.6-0.9,0.4c0.3-0.8,0.7-1.6,1.1-2.3
				C355.4,488.5,355.9,487.9,356.4,487.4z"/>
			<path class="st2" d="M302.9,509.7c0.8-0.8,1.3-1.4,1.5-1.6c0.6-0.7,1.1-1.5,1.5-2.5c0.4-0.9,0.8-2.2,1.1-3.9
				c0.3-1.6,0.5-2.9,0.5-3.7c0-1,0-2.1,0-3.3c0-1.1,0.1-2.3,0.2-3.5c0-1.1,0.1-1.8,0.1-2c0-0.2,0-0.4-0.1-0.5
				c-0.1,0-0.2,0.1-0.3,0.1l-2.2,5.1c-0.2,0.3-0.3,0.9-0.3,1.5c0,0.7-0.1,1.5-0.1,2.3l0.1,3.9c0,1.6-0.2,2.8-0.6,3.7
				c-0.2,0.4-0.4,0.8-0.7,1.1c-0.3,0.3-0.5,0.6-0.7,0.7V509.7z"/>
			<path class="st2" d="M310.1,484.6c0.9-0.9,2.8-2.5,5.7-4.7c2.6-2,5.1-4,7.7-6c1.8-1.5,3.6-3,5.3-4.5c1.2-1.1,2.8-2.5,4.8-4.4
				c3-2.8,4.5-4.2,4.5-4.3c0,0.2,0,0.4-0.1,0.5c-0.1,0.5-0.5,1.3-1.1,2.4c-0.6,1.1-1.2,1.9-1.6,2.4c-0.6,0.8-1.3,1.6-2.1,2.4
				c-0.7,0.8-1.3,1.4-1.8,1.8c-0.6,0.6-1.6,1.5-3.1,2.7c-1.1,0.9-2.7,2.3-4.9,4.1c-1.5,1.2-2.9,2.3-4.1,3.2
				c-1.6,1.2-3.2,2.4-4.8,3.5l-4.1,3.1c-0.6,0.5-1.2,0.9-1.7,1.3c-0.5,0.4-0.9,0.6-0.9,0.4c0.3-0.8,0.7-1.6,1.1-2.3
				C309.1,485.7,309.5,485.1,310.1,484.6z"/>
			<path class="st2" d="M302.8,509.7l-0.4,0.3c-0.7,0.3-1.1,0.6-1.4,0.7c-0.2,0.1-0.4,0.2-0.7,0.4c-0.2,0.2-0.5,0.4-0.8,0.7
				c-0.2,0.1-0.4,0.2-0.7,0.2c-0.3,0-0.6,0.1-0.8,0.3c-0.2,0.1-0.6,0.4-1.1,0.8c-0.5,0.4-0.9,0.7-1.2,0.8c-0.2,0-0.4,0-0.7,0
				c-0.3,0-0.6,0-0.9-0.1c-0.7,0-1.6,0.8-2.7,2.5c-1.1,1.7-2.4,2.5-4,2.5c-1.8,0-3.1-1-3.8-3.1c-0.1-0.3-0.2-0.8-0.3-1.5
				c-0.1-0.7-0.1-1.2-0.1-1.6l2.5-4.5c0,1.2,0.2,2.2,0.7,3c0.7,1.2,1.9,1.8,3.6,1.8c0.9,0,1.7-0.2,2.4-0.7c0.8-0.6,1.7-1.2,2.6-1.9
				c0.5,0.1,1,0.1,1.6,0.1c0.5,0,1-0.2,1.4-0.7c0.2-0.3,0.5-0.5,0.8-0.8c0.2,0.2,0.4,0.2,0.7,0.1c0.5-0.2,0.9-0.5,1.3-0.9
				c0.2-0.3,0.4-0.6,0.6-0.9c0.3,0.1,0.6,0.2,0.8,0.1c0.2-0.1,0.3-0.1,0.4-0.2c0.1,0.2,0.2,0.4,0.2,0.6c0.1,0.2,0.1,0.4,0.1,0.7
				c0,0.2,0,0.3-0.1,0.5C303,509.3,302.9,509.5,302.8,509.7z"/>
			<path class="st2" d="M293.9,483.3c0.1,0.4,0.1,0.8-0.1,1.2c-0.1,0.4-0.4,0.9-0.7,1.5c-0.3,0.6-0.7,1.1-1.2,1.5
				c-0.3,0.3-0.6,0.5-0.8,0.5c-0.1,0-0.4-0.2-0.8-0.5c-0.4-0.3-0.8-0.6-1.1-0.9c-0.3-0.3-0.6-0.5-0.9-0.7c-0.2-0.2-0.4-0.4-0.4-0.6
				c0.2-0.5,0.4-0.9,0.5-1.2c0.4-0.8,0.7-1.5,0.9-1.9c0.4-0.6,0.7-1.2,1.1-1.8c0.1-0.1,0.2-0.3,0.4-0.5c0.1,0.1,0.2,0.2,0.4,0.3
				c0.1,0.1,0.3,0.2,0.5,0.3c0.8,0.7,1.4,1.2,1.7,1.5C293.7,482.4,293.9,482.8,293.9,483.3L293.9,483.3z M300.1,483L300.1,483
				c0.1,0.4,0,0.8-0.1,1.2c-0.1,0.4-0.4,0.9-0.7,1.5c-0.3,0.6-0.7,1.1-1.2,1.5c-0.3,0.3-0.6,0.5-0.8,0.5c-0.1,0-0.4-0.2-0.8-0.5
				c-0.4-0.3-0.8-0.6-1.1-0.9c-0.3-0.3-0.6-0.5-0.9-0.7c-0.2-0.2-0.4-0.4-0.4-0.6c0.2-0.5,0.4-0.9,0.5-1.2c0.4-0.8,0.7-1.5,0.9-1.9
				c0.4-0.6,0.7-1.2,1.1-1.8c0.1-0.1,0.2-0.3,0.4-0.5c0.1,0.1,0.2,0.2,0.4,0.3c0.1,0.1,0.3,0.2,0.5,0.3c0.8,0.7,1.4,1.2,1.7,1.5
				C299.9,482.1,300.1,482.5,300.1,483L300.1,483z M297,475.8L297,475.8c-0.1-0.5-0.3-0.9-0.5-1.2c-0.3-0.3-0.8-0.8-1.7-1.5
				c-0.2-0.1-0.4-0.2-0.5-0.3c-0.1-0.1-0.2-0.2-0.4-0.3c-0.2,0.2-0.3,0.4-0.4,0.5c-0.4,0.6-0.7,1.2-1.1,1.8c-0.2,0.4-0.5,1-0.9,1.9
				c-0.1,0.3-0.3,0.7-0.5,1.2c0,0.2,0.1,0.3,0.4,0.6c0.2,0.2,0.5,0.5,0.9,0.8c0.3,0.3,0.7,0.6,1.1,0.9c0.4,0.3,0.7,0.5,0.8,0.5
				c0.2,0,0.5-0.2,0.8-0.5c0.5-0.5,0.9-1,1.2-1.5c0.3-0.6,0.5-1.1,0.7-1.5C297.1,476.6,297.1,476.2,297,475.8z"/>
			<path class="st2" d="M285.9,508.2c-0.3,1-0.6,2-1,3c-0.4,1-1,1.6-1.6,1.6c0-0.5,0.2-2.5,0.7-6c0.4-3.6,0.8-6.3,1.1-8.2
				c0-0.2,0.4-0.9,1-2.4c0.6-1.4,1.1-2.5,1.4-3.2c0.1,0,0.2-0.1,0.2-0.1c0,0.1,0,0.4-0.1,0.9l-0.2,1.5l-1,7.1
				c-0.2,1.4-0.3,2.7-0.4,3.7C286,507,285.9,507.8,285.9,508.2z"/>
			<path class="st2" d="M280.1,511.4l-0.8,2.1c-0.4,0.8-0.8,1.5-1.3,2.2c-0.5,0.7-0.9,1.1-1.2,1.3c-0.3,0.2-0.9,0.5-1.8,0.8
				c-0.4,0.2-0.9,0.3-1.3,0.5c-1,0.3-1.6,0.5-1.9,0.6c-0.9,0.3-1.6,0.4-1.9,0.4l-0.2-0.1c0-0.3,0.7-0.8,2.2-1.7l2.3-1.6
				c0.4-0.3,0.8-0.6,1.3-1c0.5-0.4,1-0.9,1.5-1.4c0.5-0.6,0.9-1.2,1.1-1.8c0-0.1,0-0.2,0.1-0.3l-1.6,0.1c-0.7,0-1.3-0.2-1.8-0.7
				c-0.5-0.4-0.7-0.9-0.6-1.5c0-0.3,0.1-0.7,0.3-1.1c0.2-0.4,0.5-1.2,1.1-2.3c0.4-0.7,0.7-1.3,1.1-1.9c0.5-0.7,1-1,1.5-1
				c0.8,0,1.5,0.3,2.1,1c0.6,0.7,0.9,1.4,0.9,2.4c0,0.5,0,0.9-0.1,1.4c-0.1,0.5-0.1,0.9-0.2,1.2c-0.1,0.3-0.2,0.8-0.3,1.2
				C280.4,510.6,280.3,511,280.1,511.4z"/>
			<path class="st2" d="M269.9,503.7c0,0.5-0.1,1.2-0.3,2.3c-0.2,1.1-0.4,2-0.6,2.8l-0.7,2.8c-0.4,1.1-0.7,1.9-1,2.4
				c-0.4,0.7-0.7,1.3-1,1.8c-0.3,0.5-0.6,0.8-0.9,1.1c-0.3,0.3-0.9,0.6-1.6,1l-2.2,0.9c-0.2,0.1-0.7,0.2-1.4,0.3
				c-0.7,0.2-1.2,0.2-1.4,0.2c-0.2,0-0.3-0.1-0.4-0.2c0-0.1,0-0.3,0.1-0.5c0.2-0.3,0.7-0.8,1.5-1.4c0.8-0.6,1.6-1.2,2.4-1.8
				c0.9-0.8,1.6-1.4,2-1.9c0.6-0.7,1.2-1.4,1.8-2.4c0.1-0.2,0.3-0.6,0.5-1.2c0.2-0.6,0.6-1.6,1.1-2.9l0.7-2.1
				c0.1-0.3,0.2-0.7,0.4-1.1c0.2-0.4,0.4-0.7,0.6-0.7C269.8,503.3,269.9,503.5,269.9,503.7z"/>
			<path class="st2" d="M258.3,504.1c0,0.5-0.1,1.2-0.3,2.3c-0.2,1.1-0.4,2-0.6,2.8l-0.7,2.8c-0.4,1.1-0.7,1.9-1,2.4
				c-0.4,0.7-0.7,1.3-1,1.8c-0.3,0.5-0.6,0.8-0.9,1.1c-0.3,0.3-0.9,0.6-1.6,1l-2.2,0.9c-0.2,0.1-0.7,0.2-1.4,0.3
				c-0.7,0.2-1.2,0.2-1.4,0.2c-0.2,0-0.3-0.1-0.4-0.2c0-0.1,0-0.3,0.1-0.5c0.2-0.3,0.7-0.8,1.5-1.4c0.8-0.6,1.6-1.2,2.4-1.8
				c0.9-0.8,1.6-1.4,2-1.9c0.6-0.7,1.2-1.4,1.8-2.4c0.1-0.2,0.3-0.6,0.5-1.2c0.2-0.6,0.6-1.6,1.1-2.9l0.7-2.1
				c0.1-0.3,0.2-0.7,0.4-1.1c0.2-0.4,0.4-0.7,0.6-0.7C258.2,503.8,258.3,504,258.3,504.1z"/>
			<path class="st2" d="M262.4,491c0.1,0.4,0,0.8-0.1,1.2c-0.1,0.4-0.4,0.9-0.7,1.5c-0.3,0.6-0.7,1.1-1.2,1.5
				c-0.3,0.3-0.6,0.5-0.8,0.5c-0.1,0-0.4-0.2-0.8-0.5c-0.4-0.3-0.8-0.6-1.1-0.9c-0.3-0.3-0.6-0.5-0.9-0.7c-0.2-0.2-0.4-0.4-0.4-0.6
				c0.2-0.5,0.4-0.9,0.5-1.2c0.4-0.8,0.7-1.5,0.9-1.9c0.4-0.6,0.7-1.2,1.1-1.8c0.1-0.1,0.2-0.3,0.4-0.5c0.1,0.1,0.2,0.2,0.4,0.3
				c0.1,0.1,0.3,0.2,0.5,0.3c0.8,0.7,1.4,1.2,1.7,1.5C262.1,490.1,262.3,490.5,262.4,491z"/>
			<path class="st2" d="M253.9,486c-0.1,0.5-0.2,0.9-0.4,1.4c-0.2,0.4-0.4,1.1-0.8,1.9c-0.4,0.8-0.6,1.2-0.7,1.4
				c-0.3,0.5-0.6,0.7-0.8,0.7c-0.2-0.1-0.3-0.2-0.5-0.3c-0.1-0.1-0.3-0.1-0.4-0.1c-0.5,0-1.1,0.2-1.9,0.6c-0.8,0.4-1.6,1-2.5,1.7
				c-1.1,0.9-1.9,1.8-2.4,2.5c-0.5,0.7-0.8,1.2-0.8,1.5c0,0.3,0.1,0.6,0.4,1l1.1,0.5c0.3,0.1,0.5,0.2,0.8,0.3
				c0.2,0.1,0.4,0.2,0.6,0.3c0.6,0.4,1,1.3,1,2.5c0,1.7-0.3,3.7-1,6c-0.7,2.3-1.6,4.2-2.7,5.9c-0.6,0.8-1.2,1.5-2,2.3
				c-0.8,0.8-1.6,1.4-2.5,2c-1.7,1.1-3.6,1.6-5.8,1.6c-2.6,0-4.4-0.8-5.6-2.4c-0.6-0.8-1-1.7-1.3-2.6c-0.2-0.9-0.4-1.8-0.4-2.6
				c0-1,0.1-2.1,0.2-3c0.2-1,0.4-2,0.7-3c0.5-1.6,1.1-3.2,1.9-4.7c0.7-1.5,1.3-2.7,1.7-3.6l1.4-2.8c0.2-0.3,0.3-0.6,0.5-0.9
				c0.2-0.3,0.3-0.5,0.4-0.5c0.3,0,0.4,0.2,0.4,0.5c0,0.3,0,0.5-0.1,0.6c-0.2,0.6-0.4,1.1-0.6,1.4c-0.1,0.4-0.4,1-0.9,1.9
				c-0.2,0.5-0.6,1.2-1.1,2.3c-0.2,0.5-0.5,1.1-0.7,1.6c-1.2,2.9-1.7,5.1-1.7,6.6c0,1.5,0.6,2.8,1.7,3.7c1.1,0.9,2.8,1.4,4.8,1.4
				c1.7,0,3.4-0.4,5-1.2c1.2-0.6,2.2-1.3,3-2.1c0.8-0.8,1.4-1.6,1.8-2.3c0.4-0.7,0.6-1.4,0.6-2c0-0.3-0.3-0.6-0.8-0.8
				c-0.6-0.2-1-0.3-1.2-0.3c-0.2-0.1-0.5-0.2-0.8-0.3c-0.6-0.3-1.1-0.6-1.4-1c-0.3-0.4-0.5-1-0.5-1.7c0-1.1,0.4-2.5,1.1-4.3
				c0.8-1.7,1.8-3.4,3.2-5.1c1.1-1.4,2.1-2.5,3.1-3.3c0.5-0.4,1.1-0.9,1.9-1.5c0.8-0.6,1.5-1,2.2-1.4c0.9-0.5,1.6-0.8,2.1-0.9
				c0.2,0.1,0.3,0.2,0.4,0.3C253.9,485.8,253.9,485.9,253.9,486z"/>
		</g>
	</g>
</g>
</svg>
