<svg xmlns="http://www.w3.org/2000/svg" viewBox="0 0 512 512"><path d="M153.57,0q32.06,0,64.11,0c12.2,9.1,24.51,18.06,37.24,26.42C247.33,17.86,239.11,9.85,232.15.75c10.43,0,20.93-1,31.33.22,5.78,3.7,8.83,10.21,13.49,15.09-1.64-5.17-3.68-10.18-5.62-15.25,7.41-.14,14.87-.89,22.28,0,3,.12,3.69,3.56,4.7,5.78,4.55,12.51,9.78,24.75,14.28,37.29-14,5.53-25.28,16.33-33.62,28.67C237.17,48.37,194.81,25.16,153.57,0M65.2,2.22c15.22,0,30.43,0,45.64,0a20.9,20.9,0,0,1,9.8,2.42c52.1,23.9,104.54,47.07,156.53,71.21-7.08,14.2-8.6,30.5-7.15,46.12-68.47,17.64-136.53,36.8-204.95,54.68-.07-16.43,0-32.88,0-49.32,43.17-5.24,86.11-12.21,129.34-16.87-13.22-2.45-26.72-2.18-40.07-3.37-29.62-1.75-59.19-4.2-88.84-5.34C64.6,88,65,74.2,65.28,60.44c36,5,72.07,9.33,108.07,14.19a256.86,256.86,0,0,0,27.66,3c-45-12.77-90-26-135-38.76-2.2-12.1-.5-24.41-.78-36.61M306,2.27c7.1-.08,14.22-.13,21.32.32a55.24,55.24,0,0,0,4,12.63,96.78,96.78,0,0,1,.25-13q9.5-.07,19-.15c-.12,5.33-.58,10.63-.7,16,2.76-4.87,3.89-10.4,5.36-15.74,7.48-.12,15-.09,22.46-.08C373.48,15.76,367.57,28.65,363,42a81.08,81.08,0,0,0-47.71.19c-2.73-13.4-6.41-26.58-9.32-39.94m81.48.28c8.82-.52,17.65-.29,26.5-.29-6.73,13.13-15.66,24.94-22.53,38,12.15-12.31,23.42-25.46,35.35-38,6.59,0,13.17,0,19.76-.09.31,6,1.33,12.06,0,18-.13,1.43-1.44,2.21-2.37,3.1C431.62,33.4,419,43.38,406.38,53.38c14.13-4.91,26.58-13.44,40.49-18.87.17,9.36.18,18.73,0,28.08-14.91,4.75-29,12-44.26,15.59C394.77,63,382.07,50.1,366,43.81c5.52-14.56,14.77-27.25,21.42-41.26m17,79C418.77,79,432.63,74.36,447,72q.09,9.45-.23,18.9c-7.62,2-15.25,4-22.84,6.11,7.62,2,15.41,3.21,23.08,5,0,6.29,0,12.57-.11,18.88-5.46.25-10.93.43-16.38.82,5.33,2.82,11,4.86,16.61,7.13-.25,8.38-.05,16.77-.37,25.15q-21.5-8.8-42.85-17.94c6.91-17.29,6.7-37,.55-54.45m-339.2,124c69-26.27,137.45-53.78,206.27-80.43,4.11,16.37,14.44,30.8,28,40.69q-51.22,86.82-102.37,173.68c-8.31,14.29-16.43,28.7-25.47,42.54-17.95,1-35.93.44-53.89.18,36-54.14,74.3-106.77,110.1-161-28.38,28-56.35,56.4-84.64,84.5-26.14,25.88-52.75,51.29-78,78-.13-28.2-.69-56.42.2-84.61,3.88-4,8.44-7.12,12.83-10.48q53.15-41.61,106.3-83.21c6.18-4.84,12.65-9.38,18.1-15.06-25,13.43-50.85,25.41-76.09,38.48-20.41,10.38-40.83,20.77-61.45,30.74-.09-18-.32-36,.12-54M402.08,140c14.8,9.16,30.09,17.54,44.61,27.15.67,8.52.26,17.07.09,25.6-9.26-4-18.18-8.74-27.09-13.46,8.35,12.81,18.7,24.24,26.81,37.21,1.15,10.86.23,21.84.36,32.74-15.2-11.4-27.51-26.12-42.49-37.79,13.11,25.18,28.85,48.93,42,74.09,1.33,28.89.46,57.87.49,86.81a14.08,14.08,0,0,1-1.42,7.42C417,311.7,389,243.45,360.19,175.53c8-3.92,16.44-7.33,23.29-13.16,7.75-6,13.27-14.25,18.6-22.34m-99,28.07c15.76,9.5,35,11.89,53,8.6,17,68.54,36.45,136.42,53.27,205-14.09-.61-28.25,1.16-42.3-.67-8.23-38.33-16.14-76.74-24.1-115.13-1.31-6.09-2.24-12.28-4.44-18.12.13,5.47.5,11,.23,16.46-.7,13.4-.36,26.83-.64,40.24-.34,25.63-.93,51.24-1,76.87-14.44.38-28.9.8-43.34,0,2.49-42.69,6.31-85.27,9-127.94l1.38-.52-1.28-.49c-13.47,42.64-24.64,86-37.2,128.86-17.41,1-34.85.36-52.28.37,6.66-17.73,14.12-35.15,21.57-52.56,22.9-53.59,44.82-107.58,68.13-161Z" style="fill:#f29200"/><path d="M413.37,423.55a85.46,85.46,0,0,1,23.46-9.77c-1.52,3.5-2.27,8-5.64,10.19-14.66,5.49-29,12.4-41,22.63,5.83,4.14,12.73,6.29,18.95,9.73,11.36,5.78,20.86,14.38,30.83,22.16,6,5,14.27,2.84,21.12,1.17-.75-3.44-3.05-6.14-5.36-8.67,1.64-2.82,3.37-5.59,5.24-8.26,3.54,4,4.81,9.59,4.23,14.79-.77,4.64-2.78,10-7.57,11.71s-10.34,2.24-15.36.78c-3.31-.92-6-3.16-8.62-5.24-5.86-4.7-11.39-9.79-17.12-14.62.07,3.42.24,7.1-1.6,10.15-1.41,2.66-4,4.39-6.62,5.64-5.19,2.64-11,3.7-16.66,4.69a170.2,170.2,0,0,1-33.14,2.24c-7.7-.3-16.56-.78-22.24-6.72-4.89-5.65-3.64-14.21.15-20.1a8.71,8.71,0,0,1,5-4.38c-1.05,4.15-3.58,8.13-2.91,12.57,1.14,4.13,5.55,6,9.27,7.15,11.38,3,23.3,2.41,34.93,1.53,8.11-.78,16.45-1.53,23.94-5,2.06-1,4.25-2.51,4.65-4.91.27-2-1.46-3.42-2.71-4.69-5.77-5.12-13.26-7.7-19.32-12.44-3.21-2.56-3.43-7.08-3.38-10.85-.11-2.17,1.24-4,2.82-5.3,7.41-6.55,16-11.54,24.71-16.19M64.82,438.26c-.88-4.43,3.23-7.34,5.72-10.31,2.46,16.18,2.07,32.64,4.37,48.84.48,3.2,3.94,5,7,4.73,9.86-.22,19.76.57,29.59-.47,4.1-.52,5.86-4.84,8.74-7.24,1.57,2.5,2.23,6.3,5.54,7.09,4.08.88,8.66,1.34,12.49-.63,5.78-4.14,6.6-12.23,12.16-16.58,3.44-2.45,9.41-2.14,11.43,2A28,28,0,0,1,165,479.16c-.21,3.47-3.19,5.82-5.79,7.71-5.63-.76-10.45-4-15.87-5.45-2.08,3.08-3.6,7.1-7.26,8.63-6.31,1.61-13.94,1-18.61-4.07a16.89,16.89,0,0,1-10.61,4.68c-8.55.21-17.11,0-25.65.1-3,.07-6.25-.37-8.43-2.58-2.8-2.75-3.41-6.82-3.85-10.54-1.18-13.15-2.57-26.27-4.07-39.38M149.59,473c2.42,2,5.54,2.88,8.47,3.89-.2-3.34-2.2-7.17-5.85-7.53-1.41.65-3.33,1.82-2.62,3.64m71.59-33.95c-1.12-4.72,2.77-8.31,6-11.05,1.19,13.74,2,27.52,3.18,41.27a46.61,46.61,0,0,0,1,8.25,6,6,0,0,0,5.43,3.87c5.29.4,10.61,0,15.92.12,6.51-.1,13.13.56,19.54-.91s12.82-3.8,19.34-5.25a79.39,79.39,0,0,0-14.73-4.69c-4.55-.88-9.08.53-13.56,1.27.94-4.25,3.5-8.34,7.62-10.09,4.79-2,10.2-.84,14.9.86,4.71,1.86,9.42,3.77,14.3,5.17,7.92,2.05,16.16,2,24.28,1.88a76.09,76.09,0,0,1-2.76,8.34c-9.87,0-20.16-.49-29.5,3.27-8.82,3.24-17,9-26.65,9.29-8.54.25-17.09-.06-25.63.12-3.32-.14-7.1.4-9.88-1.81-3.17-2.41-4.27-6.52-4.64-10.3-1.48-13.2-2.45-26.45-4.15-39.61m245.29-1.6c0-4,3.55-6.75,6-9.56a83.26,83.26,0,0,1,1.36,13.39c.95,11.58,1.47,23.2,2.8,34.75.15,3.31,3.41,5.6,6.56,5.47,8.28,0,16.84.72,24.81-2.07a40,40,0,0,0-5.39-8.51,37.31,37.31,0,0,1,5.29-8.2A20.19,20.19,0,0,1,511.55,479c-.83,3.91-2.64,8.14-6.54,9.84-5.64,2.55-12,1.71-18.05,1.9-3.5-.25-7.33.57-10.52-1.21-3.29-2-5-5.82-5.36-9.53-1.66-14.18-2.6-28.44-4.61-42.58M266.85,452.33a50.15,50.15,0,0,1,5.58-7.91,38.69,38.69,0,0,1,8,4.9,37.81,37.81,0,0,1-5.74,7.93c-2.54-1.78-5.19-3.39-7.88-4.92M18.38,454.17a21.08,21.08,0,0,1,3.73-3.88c.88,7.38,1.76,14.76,3,22.09.58,2.95,1.18,6.32,3.74,8.26,1.77,1.34,4.12.74,6.16.82,9-.11,18.3,1.32,26.76-2.43a79,79,0,0,0-5.75-8.41,47.79,47.79,0,0,1,5.79-7.89,22,22,0,0,1,3.37,16.45c-.85,4.26-3.19,8.79-7.6,10.19-6.78,2.25-14,1.09-21,1.36-4-.12-8.6.71-11.91-2-3.13-2.73-3.35-7.15-4.08-10.95-2.05,1.68-3.88,4-6.63,4.56-4.74.19-9.72-.1-13.94-2.47a18.08,18.08,0,0,1,7.81-14.42c2.92-2.22,6.41-3.56,9.28-5.83,1-1.6.49-3.73,1.29-5.43M7.88,471.66c3.17,3.22,7.67,1.24,11.47.72q-.32-3.76-.76-7.52c-3.95,1.55-8,3.32-10.71,6.8M438.78,461c1.83-2.76,3.81-5.42,5.85-8l8.05,5a96,96,0,0,1-5.57,8c-2.79-1.67-5.54-3.36-8.33-5m-404,3.33a79.3,79.3,0,0,1,5.52-8.07,52.46,52.46,0,0,1,8.31,5.1c-1.82,2.6-3.63,5.22-5.6,7.73-2.72-1.64-5.45-3.24-8.23-4.76m167,2.28c1.61-2.93,4.26-6,7.91-5.86,3.71.61,5.74,4.24,6.91,7.48,5.62,15.25-2.35,33-15.82,41.22A20.13,20.13,0,0,1,176,505.23c5-.27,10.1.72,15.07-.31,6.83-1.72,12.55-6.21,17.43-11.11a24,24,0,0,0,5.67-9.13c-3,.86-6,2.22-9.17,2a8.23,8.23,0,0,1-7-7.63c-.37-4.46,1.73-8.6,3.78-12.41m2.45,9.48c2.47,2,5.85.93,8.29-.55-1.51-1.91-2.79-4.26-5.14-5.24a3.83,3.83,0,0,0-3.15,5.79M175.74,462.2c4.21,2.11,6.76,6.42,8,10.8A29.78,29.78,0,0,1,177,500.91c-4.54,5.13-10.75,10-18,9.42-5.53-.92-11.57-2.53-15-7.34,4.66-.2,9.34,2.3,13.92.58,8-2.57,14.88-8,20.11-14.48a7.25,7.25,0,0,0,1.16-7.66c-1.71-3.92-4.93-6.88-7.53-10.19a80.47,80.47,0,0,1,4.06-9M97.49,494c2.59,1.62,5.19,3.25,7.84,4.8-1.34,2.36-2.79,4.67-4.22,7-2.81-1-5.31-2.69-8-4-1.27,1.63-2.25,3.46-3.35,5.2a73.54,73.54,0,0,1-8.26-4.86,69.86,69.86,0,0,1,4.95-7.38,38.09,38.09,0,0,1,6.77,4.25c1.46-1.64,2.89-3.31,4.26-5M486,503.14c.53-3.27,3.56-5.49,5.42-8.09q3.9,2.59,7.87,5.09c-1.76,2.7-3.58,5.35-5.49,7.95-2.63-1.62-5.46-2.94-7.8-4.95" style="fill:#163d8a"/></svg>