<?xml version="1.0" encoding="utf-8"?>
<!-- Generator: Adobe Illustrator 24.3.0, SVG Export Plug-In . SVG Version: 6.00 Build 0)  -->
<svg version="1.0" id="Layer_1" xmlns="http://www.w3.org/2000/svg" xmlns:xlink="http://www.w3.org/1999/xlink" x="0px" y="0px"
	 viewBox="0 0 764.6 673.9" style="enable-background:new 0 0 764.6 673.9;" xml:space="preserve">
<style type="text/css">
	.st0{fill:#F29200;}
	.st1{fill:#163D8A;}
</style>
<g>
	<path class="st0" d="M296.8,44.3c19.2,0,38.3,0,57.5,0c10.9,8.2,22,16.2,33.4,23.7c-6.8-7.7-14.2-14.9-20.4-23
		c9.4,0,18.8-0.9,28.1,0.2c5.2,3.3,7.9,9.2,12.1,13.5c-1.5-4.6-3.3-9.1-5-13.7c6.6-0.1,13.3-0.8,20,0c2.7,0.1,3.3,3.2,4.2,5.2
		c4.1,11.2,8.8,22.2,12.8,33.4c-12.6,5-22.7,14.6-30.1,25.7C371.8,87.6,333.8,66.8,296.8,44.3 M217.6,46.2c13.6,0,27.3,0,40.9,0
		c3.1-0.1,6,0.9,8.8,2.2c46.7,21.4,93.8,42.2,140.4,63.9c-6.3,12.7-7.7,27.4-6.4,41.4c-61.4,15.8-122.4,33-183.8,49
		c-0.1-14.7,0-29.5,0-44.2c38.7-4.7,77.2-11,116-15.1c-11.9-2.2-24-2-35.9-3c-26.6-1.6-53.1-3.8-79.7-4.8c-0.8-12.3-0.4-24.7-0.2-37
		c32.3,4.5,64.6,8.4,96.9,12.7c8.2,1.2,16.5,2.4,24.8,2.7c-40.4-11.5-80.7-23.3-121.1-34.8C216.3,68.2,217.8,57.2,217.6,46.2
		 M433.5,46.3c6.4-0.1,12.8-0.1,19.1,0.3c0.8,3.9,1.9,7.7,3.6,11.3c-0.1-3.9-0.2-7.8,0.2-11.6c5.7-0.1,11.4-0.1,17-0.1
		c-0.1,4.8-0.5,9.5-0.6,14.3c2.5-4.4,3.5-9.3,4.8-14.1c6.7-0.1,13.4-0.1,20.1-0.1c-3.7,12.1-9,23.7-13.1,35.7
		c-13.9-4.2-29-4.2-42.8,0.2C439.4,70.1,436.1,58.3,433.5,46.3 M506.6,46.5c7.9-0.5,15.8-0.3,23.8-0.3c-6,11.8-14,22.4-20.2,34
		c10.9-11,21-22.8,31.7-34c5.9,0,11.8,0,17.7-0.1c0.3,5.4,1.2,10.8,0,16.1c-0.1,1.3-1.3,2-2.1,2.8c-11.2,9.1-22.5,18.1-33.8,27
		c12.7-4.4,23.8-12.1,36.3-16.9c0.1,8.4,0.2,16.8,0,25.2c-13.4,4.3-26,10.8-39.7,14c-7-13.6-18.4-25.2-32.8-30.8
		C492.3,70.5,500.6,59.1,506.6,46.5 M521.8,117.4c12.8-2.3,25.3-6.5,38.2-8.6c0.1,5.7,0,11.3-0.2,17c-6.8,1.8-13.7,3.6-20.5,5.5
		c6.8,1.8,13.8,2.9,20.7,4.5c0,5.6,0,11.3-0.1,16.9c-4.9,0.2-9.8,0.4-14.7,0.7c4.8,2.5,9.9,4.4,14.9,6.4c-0.2,7.5,0,15-0.3,22.6
		c-12.8-5.3-25.6-10.7-38.4-16.1C527.5,150.7,527.3,133.1,521.8,117.4 M217.6,228.6c61.8-23.6,123.3-48.2,185-72.1
		c3.7,14.7,13,27.6,25.1,36.5c-30.6,51.9-61.1,103.9-91.8,155.7c-7.5,12.8-14.7,25.7-22.8,38.1c-16.1,0.9-32.2,0.4-48.3,0.2
		c32.3-48.5,66.6-95.7,98.7-144.4c-25.5,25.1-50.5,50.6-75.9,75.8c-23.4,23.2-47.3,46-70,70c-0.1-25.3-0.6-50.6,0.2-75.9
		c3.5-3.5,7.6-6.4,11.5-9.4c31.8-24.9,63.5-49.8,95.3-74.6c5.5-4.3,11.3-8.4,16.2-13.5c-22.5,12.1-45.6,22.8-68.2,34.5
		c-18.3,9.3-36.6,18.6-55.1,27.6C217.4,260.8,217.2,244.7,217.6,228.6 M519.7,169.8c13.3,8.2,27,15.7,40,24.3
		c0.6,7.6,0.2,15.3,0.1,23c-8.3-3.6-16.3-7.8-24.3-12.1c7.5,11.5,16.8,21.7,24,33.4c1,9.7,0.2,19.6,0.3,29.4
		c-13.6-10.2-24.7-23.4-38.1-33.9c11.8,22.6,25.9,43.9,37.6,66.4c1.2,25.9,0.4,51.9,0.4,77.9c0.1,2.3-0.2,4.6-1.3,6.7
		c-25.5-61.1-50.6-122.3-76.4-183.2c7.2-3.5,14.7-6.6,20.9-11.8C510,184.5,514.9,177.1,519.7,169.8 M430.9,195
		c14.1,8.5,31.4,10.7,47.5,7.7c15.2,61.5,32.7,122.3,47.8,183.8c-12.6-0.6-25.3,1-37.9-0.6c-7.4-34.4-14.5-68.8-21.6-103.2
		c-1.2-5.5-2-11-4-16.3c0.1,4.9,0.4,9.8,0.2,14.8c-0.6,12-0.3,24.1-0.6,36.1c-0.3,23-0.8,45.9-0.9,68.9c-12.9,0.3-25.9,0.7-38.9,0
		c2.2-38.3,5.7-76.5,8.1-114.7l1.2-0.5c-0.3-0.1-0.9-0.3-1.1-0.4c-12.1,38.2-22.1,77.1-33.4,115.6c-15.6,0.9-31.3,0.3-46.9,0.3
		c6-15.9,12.7-31.5,19.4-47.1C390.4,291.3,410,242.9,430.9,195L430.9,195z"/>
	<path class="st1" d="M597.1,433.8c9.7-5.7,20.1-10.4,31-12.9c-2,4.6-3,10.6-7.5,13.5c-19.4,7.3-38.4,16.4-54.3,29.9
		c7.7,5.5,16.8,8.3,25.1,12.9c15,7.6,27.6,19,40.8,29.3c8,6.6,18.9,3.8,27.9,1.6c-1-4.6-4-8.1-7.1-11.5c2.2-3.7,4.4-7.4,6.9-10.9
		c4.7,5.3,6.4,12.7,5.6,19.6c-1,6.1-3.7,13.2-10,15.5c-6.5,2.1-13.7,3-20.3,1c-4.4-1.2-7.9-4.2-11.4-6.9
		c-7.8-6.2-15.1-12.9-22.7-19.3c0.1,4.5,0.3,9.4-2.1,13.4c-1.9,3.5-5.3,5.8-8.8,7.5c-6.9,3.5-14.5,4.9-22,6.2
		c-14.5,2.6-29.2,3.2-43.8,3c-10.2-0.4-21.9-1-29.4-8.9c-6.5-7.5-4.8-18.8,0.2-26.6c1.5-2.6,3.6-4.9,6.6-5.8
		c-1.4,5.5-4.7,10.8-3.8,16.6c1.5,5.5,7.3,7.9,12.3,9.5c15.1,4,30.8,3.2,46.2,2c10.7-1,21.8-2,31.7-6.6c2.7-1.3,5.6-3.3,6.1-6.5
		c0.4-2.6-1.9-4.5-3.6-6.2c-7.6-6.8-17.5-10.2-25.6-16.5c-4.2-3.4-4.5-9.4-4.5-14.4c-0.2-2.9,1.6-5.3,3.7-7
		C574.2,446.5,585.6,439.9,597.1,433.8 M135.9,453.2c-1.2-5.8,4.3-9.7,7.6-13.6c3.3,21.4,2.7,43.2,5.8,64.6c0.6,4.2,5.2,6.6,9.2,6.3
		c13-0.3,26.1,0.8,39.1-0.6c5.4-0.7,7.8-6.4,11.6-9.6c2.1,3.3,2.9,8.3,7.3,9.4c5.4,1.2,11.5,1.8,16.5-0.8
		c7.6-5.5,8.7-16.2,16.1-21.9c4.5-3.2,12.4-2.8,15.1,2.6c2.8,5.5,4.3,11.7,4.2,17.8c-0.3,4.6-4.2,7.7-7.7,10.2
		c-7.5-1-13.8-5.3-21-7.2c-2.8,4.1-4.8,9.4-9.6,11.4c-8.4,2.1-18.4,1.3-24.6-5.4c-3.9,3.5-8.8,6.1-14.1,6.2
		c-11.3,0.3-22.6,0-33.9,0.1c-3.9,0.1-8.3-0.5-11.2-3.4c-3.7-3.6-4.5-9-5.1-13.9C139.7,487.9,137.9,470.6,135.9,453.2 M248,499.2
		c3.2,2.7,7.3,3.8,11.2,5.1c-0.3-4.4-2.9-9.5-7.7-10C249.7,495.2,247.1,496.8,248,499.2 M342.8,454.3c-1.5-6.2,3.7-11,7.9-14.6
		c1.6,18.2,2.7,36.4,4.2,54.6c0.3,3.6,0.4,7.4,1.3,10.9c1.1,3,4,5.1,7.2,5.1c7,0.5,14,0,21.1,0.2c8.6-0.1,17.4,0.7,25.9-1.2
		c8.6-2,17-5,25.6-6.9c-6.3-2.7-12.8-4.8-19.5-6.2c-6-1.2-12,0.7-17.9,1.7c1.2-5.6,4.6-11,10.1-13.4c6.3-2.7,13.5-1.1,19.7,1.1
		c6.2,2.4,12.5,5,18.9,6.8c10.5,2.7,21.4,2.6,32.1,2.5c-1,3.8-2.2,7.4-3.7,11c-13.1,0-26.7-0.6-39,4.3
		c-11.7,4.3-22.5,11.9-35.3,12.3c-11.3,0.3-22.6-0.1-33.9,0.2c-4.4-0.2-9.4,0.5-13.1-2.4c-4.2-3.2-5.7-8.6-6.1-13.6
		C346.3,489.2,345,471.7,342.8,454.3 M667.4,452.2c0.1-5.3,4.7-8.9,7.9-12.7c1.3,5.8,1.5,11.8,1.8,17.7c1.3,15.3,1.9,30.7,3.7,46
		c0.2,4.4,4.5,7.4,8.7,7.2c11,0,22.3,1,32.8-2.7c-1.7-4.1-4.5-7.7-7.1-11.3c1.8-3.9,4.2-7.5,7-10.8c4.5,6.1,6.6,14.1,4.9,21.6
		c-1.1,5.2-3.5,10.8-8.7,13c-7.5,3.4-15.9,2.2-23.9,2.5c-4.6-0.3-9.7,0.8-13.9-1.6c-4.4-2.7-6.6-7.7-7.1-12.6
		C671.2,489.7,670,470.9,667.4,452.2 M403.2,471.9c2.2-3.7,4.5-7.3,7.4-10.5c3.8,1.6,7.3,4,10.6,6.5c-1.9,3.9-4.8,7.2-7.6,10.5
		C410.3,476,406.8,473.9,403.2,471.9 M74.4,474.3c1.3-2,3.2-3.5,4.9-5.1c1.2,9.8,2.3,19.5,4,29.2c0.8,3.9,1.6,8.4,5,10.9
		c2.3,1.8,5.4,1,8.1,1.1c11.8-0.2,24.2,1.7,35.4-3.2c-2.3-3.9-4.9-7.6-7.6-11.1c2.4-3.6,4.6-7.4,7.7-10.4c4.1,6.4,6.1,14.2,4.5,21.8
		c-1.1,5.6-4.2,11.6-10.1,13.5c-9,3-18.6,1.4-27.9,1.8c-5.2-0.2-11.4,0.9-15.8-2.7c-4.2-3.6-4.4-9.5-5.4-14.5
		c-2.7,2.2-5.1,5.4-8.8,6c-6.3,0.2-12.9-0.1-18.4-3.3c0.1-7.5,4.1-14.9,10.3-19.1c3.9-2.9,8.5-4.7,12.3-7.7
		C74.1,479.4,73.4,476.5,74.4,474.3 M60.5,497.4c4.2,4.3,10.1,1.6,15.2,1c-0.3-3.3-0.6-6.6-1-10C69.5,490.5,64.1,492.8,60.5,497.4
		 M630.7,483.4c2.4-3.7,5-7.2,7.7-10.6c3.6,2.2,7.1,4.4,10.7,6.6c-2.3,3.7-4.7,7.2-7.4,10.6C638,487.8,634.4,485.5,630.7,483.4
		 M96.1,487.8c2.1-3.8,4.7-7.2,7.3-10.7c3.9,1.9,7.5,4.2,11,6.7c-2.4,3.5-4.8,6.9-7.4,10.2C103.4,491.9,99.7,489.8,96.1,487.8
		 M317.1,490.8c2.1-3.9,5.6-8,10.5-7.8c4.9,0.8,7.6,5.6,9.1,9.9c7.4,20.2-3.1,43.7-20.9,54.5c-10.5,6.1-24.9,3.6-32.8-5.6
		c6.6-0.4,13.4,1,19.9-0.4c9-2.3,16.6-8.2,23.1-14.7c3.4-3.4,5.9-7.6,7.5-12.1c-4,1.1-7.9,2.9-12.1,2.7c-5-0.5-9-5.2-9.3-10.1
		C311.6,501.3,314.4,495.8,317.1,490.8 M320.3,503.3c3.3,2.7,7.7,1.2,11-0.7c-2-2.5-3.7-5.6-6.8-6.9
		C320.8,495.6,318.2,500.3,320.3,503.3 M282.6,484.9c5.6,2.8,9,8.5,10.7,14.3c3.7,12.8,0,27.2-9,36.9c-6,6.8-14.2,13.3-23.8,12.5
		c-7.3-1.2-15.3-3.3-19.8-9.7c6.2-0.3,12.4,3,18.4,0.8c10.6-3.4,19.7-10.6,26.6-19.2c2.4-2.8,3.1-6.8,1.5-10.1
		c-2.3-5.2-6.5-9.1-10-13.5C278.8,492.8,280.7,488.8,282.6,484.9 M179.1,527c3.4,2.2,6.9,4.3,10.4,6.3c-1.8,3.1-3.7,6.2-5.6,9.2
		c-3.7-1.3-7-3.5-10.6-5.3c-1.7,2.2-3,4.6-4.4,6.9c-3.8-1.9-7.4-4.1-10.9-6.4c2-3.4,4.1-6.7,6.5-9.8c3.2,1.5,6.1,3.5,9,5.6
		C175.4,531.5,177.3,529.3,179.1,527 M693.2,539.1c0.7-4.3,4.7-7.3,7.2-10.7c3.4,2.3,6.9,4.5,10.4,6.7c-2.3,3.6-4.7,7.1-7.3,10.5
		C700.1,543.5,696.3,541.8,693.2,539.1 M141.9,569.7c3.1-1.4,6.3,1.4,6.3,4.5c0.4,3.9-5.5,6.1-7.7,3
		C138.4,575,138.8,570.8,141.9,569.7 M182,574.5c4.6-1.9,9.2-4,14.1-5.2c0,16,0,31.9,0,47.9c0,3.1,0.4,6.1,1,9.2
		c2,0.1,4,0.2,6.1,0.4c-4.1,3.2-9.2,4.6-14.1,6c-0.1-1.8-0.1-3.5-0.2-5.3c-3.6,2.7-7.7,5.2-12.4,5c-5.4-0.2-10-4.1-12.5-8.7
		c-5.2-10-2.3-23.5,6.5-30.6c5.3-4.1,12.9-4.1,18.5-0.6c-0.4-5.3,0.6-10.8-1-15.9C186.1,575.7,184,575.2,182,574.5 M177.8,593.6
		c-10.6,6.3-10.2,23.1-1.8,31c3.9,4,13,1.8,12.8-4.4c-0.1-6.3,0.4-12.7-0.4-19C187.8,596.4,182.7,592,177.8,593.6 M228.8,575.5
		c3.7-3.4,8.8-4.5,13.4-6.4c1.6,18.4-0.6,36.9,1.2,55.3c0.3,3,4.3,1.7,6.4,2.3c-4.4,2.9-9.2,5.1-14.5,5.8c-0.1-1.5-0.1-2.9-0.2-4.4
		c-3.8,2.5-8.1,4.7-12.8,4.2c-5.1-0.5-9.1-4.2-11.5-8.5c-6.1-10.9-1.8-26.2,9-32.4c4.8-2.7,10.5-1.4,15.4,0.4
		c0.1-5.4,0.1-10.8-0.4-16.2C232.8,575.7,230.8,575.6,228.8,575.5 M224.8,593.6c-6.2,2.3-8.2,9.6-8,15.6c-0.4,6.4,2.1,13.6,8.1,16.6
		c3.4,2,8.2,0.4,10.1-2.9c0.6-6.9,0.3-13.8,0.2-20.7C235.3,597.2,230,591.9,224.8,593.6 M254.1,574.4c4.6-1.9,9.1-4,13.9-5.1
		c0.1,18.6-0.3,37.3,0.2,55.9c-0.4,3.6,4,4.1,6.3,5.6c-6.8,0.6-13.7,0.4-20.5-0.1c2.1-1.4,5.8-1.4,6.2-4.4c1.2-8,0.2-16.1,0.5-24.1
		c-0.3-8.5,0.9-17.1-0.8-25.5C258.1,575.8,256,575.2,254.1,574.4 M681.8,575.5c4.3-3.1,9.4-4.9,14.5-6.3c0.7,12.8,0,25.6,0.4,38.4
		c5-3.7,10.1-7.4,14-12.3c-0.6-1.4-1.2-2.9-1.7-4.3c5.9,0.1,11.8-0.4,17.6,0.9c-9.6,1.1-15.7,9.1-22.8,14.7
		c4.9,6.1,10.1,12.1,15.3,18.1c2.3,3.2,6.6,3.7,9.5,6.1c-6.8,0.5-13.6,0.2-20.4,0.2c0.8-1.2,1.6-2.5,2.4-3.7
		c-4.1-6.2-9.1-11.6-14-17.2c0,6-0.1,11.9,0.2,17.8c2,0.9,4.1,1.8,6.1,2.7c-2.8,0.8-5.6,0.9-8.5,0.5c-4.2-0.6-8.5,1.1-12.5-0.8
		c2-0.8,4.2-1.2,6-2.4c2-6.3,1.1-13.1,1.2-19.7c-0.4-10.9,1-22-1.2-32.8C685.9,575.5,683.9,575.5,681.8,575.5 M50.2,572.8
		c6-0.4,11.9-0.2,17.9-0.2c7.2,14.6,12.9,30,20.8,44.2c6.9-14.7,14-29.4,20.8-44.1c5.7-0.1,11.5-0.5,17.1,0.3
		c-2.2,0.8-4.4,1.3-6.5,2.4c-1.8,0.8-1.8,3.1-2.1,4.8c-0.7,8.4-0.1,16.8-0.2,25.2c0.1,7.7-0.7,15.6,1.1,23.2c2.6,0.5,5.2,1,7.8,1.8
		c-4.1,1.3-8.3,1.3-12.5,0.8c-4.6-0.7-9.4,1.3-13.7-0.6c2.7-1.1,6.6-0.9,8.2-3.7c0.9-13.8,0.8-27.8,0.1-41.6c-2.4,3.4-4,7.3-5.7,11
		c-4.8,9.9-9.4,19.9-14.1,29.8c-0.9,1.9-2.1,3.7-3.6,5.2c-7.3-15.9-14.9-31.6-21.6-47.7c-1.4,10.2-0.4,20.5-0.7,30.8
		c0.1,4.5-0.5,9.4,1.5,13.6c2,1.7,5.1,1.4,7.5,2.3c-1.6,0.5-3.2,1.2-4.9,1c-5.8-0.6-11.7,0.7-17.4-0.9c3.2-1.1,8.6-0.8,9-5.2
		c0.3-14.3,0.1-28.7,0.1-43c-0.1-2.1,0.3-4.7-1.6-6.1C55.5,574.5,52.7,573.8,50.2,572.8 M347.1,572.7c14.9-0.5,29.9,0.1,44.8-0.2
		c0.7,4.7,0.9,9.4,0.5,14.1c-3.7-2.5-3-9.1-8.1-9.9c-6.7-1.1-13.6-0.3-20.4-0.5c0,7.5,0,14.9,0,22.4c5.2,0,10.4,0.5,15.5-0.3
		c4.6-0.1,4.6-5.6,6.4-8.7c1,7.2,0.7,14.5,0.6,21.8c-1.8-2.6-2.4-6.3-5-8.2c-5.6-1.8-11.7-0.8-17.5-0.8c0.2,7.7-0.5,15.4,0.4,23.1
		c0.3,2.4,3.4,1.9,5.1,2.1c5.5-0.2,11.2,0.8,16.4-1c5.3-2.1,6.4-8.5,11-11.5c-1,5.5-2.4,10.9-5,15.9c-12.5,0.2-25,0.2-37.5,0.1
		c-2.5,0-4.9-0.1-7.4-0.6c2.6-1.2,7-1.1,8-4.4c0.4-16.4,0.9-32.9-0.2-49.4C353.1,574.4,349.6,574.1,347.1,572.7 M533.2,573
		c3.4-0.8,6.8-0.5,10.3-0.5c8,0.1,16-0.3,24,0.4c6.7,0.6,13.9,4.5,15.7,11.4c2.1,6.5-1.6,13.7-7.6,16.6c4.4,2.3,9.8,5,10.9,10.3
		c2.1,7.5-2.7,15.5-9.8,18.1c-7.4,2.7-15.5,1.3-23.2,1.6c-6.8-0.3-13.7,0.8-20.4-0.7c2.6-1.1,6.4-0.5,8.2-3.1c1.2-2.8,0.7-6,0.9-9
		c-0.2-13.3,0.3-26.6-0.2-39.9C541.6,574,536.1,574.4,533.2,573 M550.7,576.6c0.1,7.4,0,14.9,0.1,22.3c6,0.6,12.4,1.3,18-1.3
		c6.3-3.6,6.5-13.4,1.2-18C564.9,574.8,557.1,575.2,550.7,576.6 M550.7,603c0.2,8,0,15.9,0.2,23.9c7.1,1.1,15.6,2.4,21.7-2.5
		c5.7-4.3,5.1-13.7-0.5-17.8C566.1,601.9,557.9,602.4,550.7,603 M489.9,584.6c1.4-2.2,2.7-4.5,4.2-6.7c0.2,4.3,0.2,8.7,0.1,13
		c3,0.2,6.1,0.1,9,0.7c0.3,0.7,0.8,2.1,1.1,2.8c-3.3,0.1-6.7,0.2-10,0.3c0.2,9.2-0.7,18.5,0.5,27.7c0.1,1.5,0.8,3.7,2.8,3.7
		c3,0.1,5.5-1.9,8.1-2.9c-1.1,2.5-2.2,5.2-4.5,6.8c-3.2,2.5-8.4,2.9-11.5,0.1c-2.2-2.3-2.5-5.8-2.6-8.8c-0.2-8.9,0.1-17.7-0.1-26.6
		c-2.4-0.1-4.8-0.2-7.3-0.4C483.1,591.1,487.4,588.7,489.9,584.6 M133.9,595c4.2-2.6,8.9-4.3,13.8-5.1c0,12.9-1.1,25.9,0.6,38.8
		c2,0.5,4,1,5.9,1.6c-4.1,1.8-8.5,0.3-12.7,0.9c-2.7,0.3-5.4-0.1-8-0.5c2.4-1.3,6.5-1.7,6.3-5.3c0.8-8.8,0.6-17.8-0.2-26.6
		c0.1-3.2-3.8-2.2-5.8-2.5C133.8,595.9,133.8,595.3,133.9,595 M286.6,596.4c5.8-7.7,18.8-8.9,25.2-1.5c3,3.2,3.5,7.7,3.7,11.8
		c-9,0.1-17.9,0.1-26.9,0c-1.2,9.8,7.9,21.2,18.4,17.9c4.6-0.8,5-6.5,9-8.3c-0.7,4.6-2.7,9.1-6.2,12.3c-4.6,4.4-12,5.2-17.6,2.3
		c-5-2.5-8.5-7.5-9.4-13C281.2,610.5,282,602.4,286.6,596.4 M288.3,603.4c6,0.2,12,0.2,18.1,0.1c-0.3-4.5-2.8-9.9-7.8-10.2
		C292.8,592.8,289.4,598.5,288.3,603.4 M409.4,594.1c4.4-4.5,11.3-4.8,17.1-3.6c3.5,0.6,7,3.1,7.4,6.9c1.6,9.8,0.2,19.8,1.1,29.7
		c2.2-1,4.4-2,6.6-2.9c-1.6,4.7-6,8.8-11.2,8.2c-2.7-0.8-2.7-4.1-3.7-6.2c-4,3.7-9.5,7.8-15.2,5.8c-7.3-2.2-8.6-13-3.1-17.8
		c5.4-4.8,12.5-6.9,19.1-9.8c-0.4-2.8-0.4-5.8-1.7-8.4c-2.5-3.7-9.1-3.9-11.2,0.2c-1,2.4-0.6,5.1-0.8,7.7c-1.8,0.3-3.5,0.7-5.3,0.6
		C405.5,601.7,406.7,596.7,409.4,594.1 M414.3,615.1c-3.3,3.5-1.7,10.2,3.1,11.6c3.8,0.3,6.9-2.1,9.8-4.2c0.1-4.8,0.1-9.6,0-14.4
		C422.7,609.9,417.7,611.3,414.3,615.1 M454.6,591.1c5.7-2.8,12,1.2,17.9-0.6c0.1,4.5,1.2,9.2-1.1,13.4c-1.6-3.4-2.8-7.5-6.3-9.6
		c-3-1.8-7.3-2-9.8,0.7c-1.9,1.6-2.2,4.9-0.4,6.7c5.5,5.9,15.2,6.2,19.4,13.5c3.6,6-0.6,13.8-6.7,16.1c-6.3,2.7-13-1.1-19.4,0.4
		c-0.1-4.8-0.2-9.5,0-14.3c3.1,3.5,4.5,8.9,9.2,10.8c3.6,1.8,9.1,0.8,10.8-3.2c1-2.1-0.2-4.5-1.6-6c-4.5-4.9-12-5.5-16.4-10.6
		C445.9,603.1,448.3,593.8,454.6,591.1 M600.1,595.8c5.1-7.2,16-7.4,23.2-3.4c2.7,2.1,3.3,5.7,3.4,8.8c0.4,8.5-0.2,17,0.3,25.5
		c2.4-0.8,4.8-1.7,7.2-2.5c-2.2,4.1-5.7,8.3-10.8,8.2c-3-0.2-3.6-3.8-4.8-5.9c-3.8,3-8.1,6.7-13.3,5.8c-7.7-0.9-10.9-11.7-5.8-17.2
		c5.2-5.6,12.9-7.8,19.8-10.5c-0.2-2.5-0.1-5.1-0.9-7.5c-1.6-4.5-8.8-5.6-11.4-1.6c-1,2.8-1.2,5.9-1.9,8.8c-1.8,0-3.7-0.1-5.5-0.1
		C599.2,601.6,598.3,598.4,600.1,595.8 M606.4,615.1c-3.4,3.4-1.7,10.2,3,11.6c3.8,0.5,6.9-2.2,9.9-4c-0.1-4.8,0-9.5-0.1-14.3
		C614.6,609.8,609.8,611.5,606.4,615.1 M635.2,596c4.1-3.5,9.4-5,14.5-6.3c0,2.4,0.1,4.8,0.1,7.2c4.1-3.1,8.2-7.2,13.7-7.1
		c5.1-0.2,9.2,4.4,9.8,9.2c1.2,9-0.4,18.1,0.8,27.1c0.2,2.8,3.8,2.9,5.7,4.1c-6.1,1.9-12.3,0.7-18.5,0.5c1.9-1.6,5.2-2.6,5-5.5
		c-0.2-8.3,0.8-16.8-0.6-25c-0.3-3.3-4-5.3-7.1-4.5c-3.3,0.8-6.7,2.6-8.7,5.4c-0.1,9.1-0.6,18.2,0.5,27.2c2.3,0.6,4.6,1.3,6.9,2
		c-4.8,1.8-9.8,0-14.7,0.8c-2.2,0.4-4.4-0.2-6.5-0.9c1.7-0.6,3.5-1.2,5.3-1.8c1.8-10.6,0.8-21.3,0.6-32
		C639.6,596.4,637.4,596.2,635.2,596L635.2,596z"/>
</g>
</svg>
