<?xml version="1.0" encoding="utf-8"?>
<!-- Generator: Adobe Illustrator 24.3.0, SVG Export Plug-In . SVG Version: 6.00 Build 0)  -->
<svg version="1.0" id="Layer_1" xmlns="http://www.w3.org/2000/svg" xmlns:xlink="http://www.w3.org/1999/xlink" x="0px" y="0px"
	 viewBox="0 0 380.2 399.6" style="enable-background:new 0 0 380.2 399.6;" xml:space="preserve">
<style type="text/css">
	.st0{fill:#940509;}
	.st1{fill:#FECB05;}
</style>
<g>
	<path class="st0" d="M208.6,56c7-2.3,13.9-5.7,21.5-5.7c1.7-0.3,1.7,1.9,2.2,3c2.2,8.1,5.2,15.9,7,24c-0.6,1.6-2.7,1.2-4,1.5
		c-16.3,1.9-32.4,6.8-46.9,14.6c-16.2,9.1-29.9,23.3-36.5,40.9c-5.1,11.6-6.7,24.4-6.4,37c-0.4,12.4,3,24.4,7.4,35.9
		c-7.5-13.5-12.1-28.6-14.2-43.8c-0.4-10.6-1-21.3,1.8-31.6c2.3-12.3,8-23.8,15.2-34C169,79.4,187.7,64.9,208.6,56 M205.6,107
		c3.9-0.5,7.6,0.9,11.4,1.5c25.3,4.9,49.1,19.6,63.1,41.6c14,22.6,19.3,50,16.6,76.2c-0.8,9.1-3.4,17.8-6.2,26.4
		c-0.4,1.9-2.6,1.1-3.9,1c-8.7-2-17.3-4.7-26-7c7.8-16.1,13.5-33.6,14-51.5c0.3-10.5-0.6-21.3-4.4-31.2
		c-6.9-20.5-22.9-36.6-41.1-47.5c-4.4-2.1-8.8-4.1-13.3-6C212.4,109.2,208.6,109,205.6,107 M194.4,132.5c10.4-2.1,22-0.7,30.6,5.9
		c10.5,7.3,16.2,20.4,15.4,33c-1,6.5-2.5,13.3-6.6,18.6c-7.2,9.9-19.3,16.8-31.8,15.8c-18.1,0.3-34.7-15.3-35.9-33.3
		c-1.3-11.5,3.1-23.4,11.6-31.2C182.6,137.1,188.2,133.8,194.4,132.5 M196.4,134.8c-9.8,2.1-18.9,8.4-23.5,17.4
		c-3,5.9-4.9,12.5-4.3,19.1c1.1,8.1,4.3,16.2,10.4,21.9c9.4,9.4,24.7,12.7,37,7.2c8.5-3.1,15.2-10.2,18.7-18.4
		c7.5-16-0.4-36.9-16.4-44.2C211.8,134.3,203.9,133.1,196.4,134.8 M89.1,197.3c5-4.7,9.1-10.2,14-14.9c4.3,4.7,7.9,10,12.5,14.5
		c14.4,15.8,33.2,28.7,54.6,32.7c23.6,4.5,48.2-3,67.5-16.6c7.7-5.4,13.7-12.7,20.1-19.6c-6,10.2-14.1,18.9-22.6,27.1
		c-14.5,13.6-33.4,22.3-53.1,24.5c-9.4,0.1-19,0.9-28.3-1.3c-7.9-1.5-15.8-3.4-23.2-6.6c-15-5.2-28.7-14-40.1-25
		c-2.5-2.4-5.1-4.8-7.1-7.7C84.5,201.5,87.1,199.6,89.1,197.3 M106.8,277c3.6-3.3,6.4-7.3,10.1-10.6c-1.1,5.9-5.4,10.2-9.3,14.4
		c-6.9,6.9-13.8,13.8-21.5,19.8c0.7-3.3,2.6-6.1,5-8.4C96.2,287.1,101.6,282.2,106.8,277 M65.5,282.4c1.6,0.2,3.8,0.3,4.3,2.3
		c1.1,2.8-0.7,5.5-2.5,7.4c-1.4-1-2.8-2.1-4.2-3.1C63.7,286.8,64.6,284.6,65.5,282.4 M156.4,293.5c1.2-2.3,2.4-4.6,3.6-7
		c1.6,1.6,3.2,3.1,4.8,4.7c1-1.6,1.4-3.8,3.3-4.7c3.7,1.8,2.8,5.9,2.2,9.2c-2.4,0.7-4.6-0.3-6.3-1.9c-1.3,1.1-2.6,2.2-3.9,3.3
		C158.9,295.9,157.6,294.7,156.4,293.5 M59.1,297.5c1.3-2.3,2.3-5,4.6-6.4c1,1.5,2.1,2.9,3.2,4.3c-0.8,2.1-2,4.1-3.1,6.1
		C62,300.5,60.5,299.1,59.1,297.5 M70.2,290.8c1.4,1.3,3.8,2.3,3.6,4.5c0.2,2.3-1.5,4.1-2.6,5.9c-1.5-1.4-4.5-2.3-3.8-4.9
		C67.9,294.3,69.2,292.6,70.2,290.8 M238.2,312.4c-0.4-5,0.7-9.9,3.3-14.2c0.2,3.7,0.1,7.4,0.1,11.2c0.1,3.7-2.3,6.7-3.5,10
		c0.7,2.5,2.4,4.6,3.3,7c-0.6,7.1-3.5,14.5-9.2,19c-3,2.6-7.3,3.2-11,2.2c-3.5-1.7-6.2-5.3-5.8-9.3c-0.8-8.1,4.4-14.7,6.8-22
		c0.4-0.2,1.3-0.5,1.7-0.7c-1.4,6.4-6.3,11.9-5.5,18.7c0,3,2.7,5.8,5.8,5.6c4.7,0.7,9.7-0.9,13-4.4c0.9-1,1.7-2.6,1.2-4
		c-1.6-1.8-3.8-3-4.9-5.1C233.5,321.2,238.6,317.7,238.2,312.4 M245.8,320.6c1.2-7.2,0.8-15.2,5.1-21.6c-0.3,6.8-1.8,13.5-1.9,20.3
		c0.5,1.4,0.4,3.5,2.2,3.9c1.2-1.1,2.2-2.3,3.3-3.4c3.2,3.7,0.1,11.4-5,11.2C245.3,329.3,245.2,324.4,245.8,320.6 M147.2,305.1
		c0.4-1.7,1-3.5,2.3-4.8c0.3,6.4-2.1,12.6-1.4,19c0.1,2.3,2,4,4,4.7c2.3,0.3,3.8-1.8,5.5-3c1.5-1.6,3.9-1.7,5.9-2.3
		c-0.3-3,0-6.1,1.6-8.7c0.8,1,1.6,2.1,2.4,3.2c0.5,0,1.5-0.1,2-0.2c0.8-1.7,1.5-3.3,2.3-5c0.3,1.4,0.6,2.9,0.9,4.3
		c2.9,0.2,4.7-2.1,6.5-4c-1.3,3.9-3.2,8-6.8,10.2c-2.2,1.1-4.7,1-7.1,1.3c-2.2,1.5-4.1,3.4-6.7,4.3c-3.7,1.2-4.2,7.3-8.6,6.9
		c-2.5,0.3-4.4-2.3-4.6-4.6C145,319.2,145.5,312.1,147.2,305.1 M188.4,302.3c0.3-0.2,0.9-0.5,1.2-0.6c-1.3,7.8-1,16.2-4.8,23.3
		c-0.7,1.7-1.7,3.3-3.3,4.3c1.2-4.9,2.7-9.9,3-15C184.8,310.1,186.9,306.3,188.4,302.3 M83.2,306.1c-0.3-1.8,1-3.3,1.7-4.9
		c1.9,1.1,3.5,2.7,4.4,4.7c0.8,4.5-1.5,8.9-4.2,12.4c-2.4,3.2-3.2,7.7-6.7,10.2c-3.2,1.6-6.7,2.2-10.2,2.6c3.5-2.3,7.1-4.4,10.5-6.8
		c0.9-1,1.7-2.1,2.5-3.2c-1.3-0.2-2.6-0.5-3.9-0.7c-2.9-0.5-1.1-3.9-0.6-5.6c1.1-1.7,2.3-4.7,4.8-3.8c1.4,0.7,2.5,1.9,3.7,2.9
		c0.4-0.7,1.1-2,1.5-2.7C87.3,308.8,84.4,307.8,83.2,306.1 M322.9,313.7c2.1-4.3,5.1-7.9,8.3-11.4c1,1.4,2,2.8,2.9,4.3v3.9
		c-2.7,1.6-5.8,2.1-8.6,3.3c-4,4.2-4.7,10.8-9.4,14.4c-3,1.9-6.6,2.4-10,3c4.1-3.1,8.9-5.2,12.3-9.2c-1.7-0.6-3.3-1.2-5-1.8
		c-0.3-3.9,1.6-7.3,4.5-9.8C319.5,311.6,321.2,312.6,322.9,313.7 M112.3,316.6c3.3-5.1,7.6-10,13.4-12.1c-0.1,2.8-0.2,7.2-3.7,7.7
		c-4.6,0.6-7.6,4.6-10,8.2c2.2,1.1,4.9,2.3,5.3,5c0,6.5-2.4,12.9-6.5,17.9c-2.8,2.9-6.7,5.3-10.9,4.9c-3.8,0.2-7-2.8-8.2-6.2
		c-0.5-3.7-0.3-7.5,0.9-11.1c1.8-5.5,4-11,7.4-15.8c-0.9,7.8-7.7,14.4-5.4,22.6c4.5,3.2,11.1,3.4,15.6-0.1c2.4-1.4,3.3-4.2,4.6-6.5
		c-1.8-1.2-3.7-2.1-5.2-3.6C108.6,323.7,110.3,319.8,112.3,316.6 M171.8,307.9c1.1-2.4,3.2-3.5,5.8-3.4c0.2,0.8,0.6,2.2,0.8,3
		C176.2,307.5,174,307.7,171.8,307.9 M61.5,313.8c2.6-2,5.2-4,7.7-6.2c-0.6,2.3-0.9,4.7-2.3,6.7c-2.4,3-6.7,4.1-8.2,7.8
		c-1.3,2.5-2,5.6-4.5,7.3c-2.4,1.6-5.4,1.5-8.1,1.8V330c3.1-2.1,6.6-3.7,9.2-6.5C57.9,320.6,58.2,316.2,61.5,313.8 M297.7,313
		c2.7-1.7,5.3-3.7,8.4-4.7c-0.6,2.2-1.6,4.5-4.1,4.8c-3.2,0.4-4.1,4.2-7.1,4.9c-5.5,1.3-9.3,6.3-14.9,7.4c-3.3,0.4-5,3.5-7.7,5.2
		c-2.1,1.2-4.4,0.1-6.6-0.2c-2.6-0.8-5,1.1-7.5,1.6c2-3.9,5.2-7.2,9.2-9c2.6-0.6,5.3,0.4,8-0.1c5-1.7,9.9-3.4,14.8-5.4
		c0.7-2.2,1.5-4.4,2.4-6.6C294.1,312.1,295.7,314,297.7,313 M136.9,310.6c0.5,0.3,1,0.6,1.6,0.9c-1.7,4.4-1.9,9.2-3.8,13.5
		c-1.9,4-6.4,5.6-10.4,6.2c0.1-0.6,0.4-1.7,0.5-2.2c2.7-1.9,5.6-3.7,7.6-6.4C134.9,319.1,135.8,314.7,136.9,310.6 M203.5,311.7
		c1.3-1.9,4.5-1.2,5,1.1c0.8,4.4-0.7,8.8-2.5,12.7c-1.7,3.4-5.9,4.5-9.4,4.8c2.3-3.2,6-5,8.4-8.1c-1.4-1.1-4.1-1.2-4.4-3.3
		C200.5,316.3,201.9,313.8,203.5,311.7 M148.4,345.3c0.7-2.6,2.2-4.8,3.6-7.1c1.2,1.6,2.7,3.2,3.3,5.1c-0.4,2.1-1.2,4-1.9,6h-2.3
		C150.2,348,149.1,346.8,148.4,345.3L148.4,345.3z"/>
	<path class="st1" d="M196.4,134.8c7.4-1.7,15.3-0.5,22,3c16,7.3,23.9,28.2,16.4,44.2c-3.5,8.2-10.2,15.3-18.7,18.4
		c-12.2,5.5-27.6,2.2-37-7.2c-6.1-5.7-9.3-13.7-10.4-21.9c-0.6-6.6,1.3-13.2,4.3-19.1C177.5,143.2,186.7,137,196.4,134.8
		 M77.3,320.5c1.3,0.3,2.6,0.5,3.9,0.7c-0.8,1.1-1.6,2.1-2.5,3.2C78.3,323,77.8,321.8,77.3,320.5L77.3,320.5z"/>
</g>
</svg>
