<?xml version="1.0" encoding="utf-8"?>
<!-- Generator: Adobe Illustrator 24.3.0, SVG Export Plug-In . SVG Version: 6.00 Build 0)  -->
<svg version="1.0" id="Layer_1" xmlns="http://www.w3.org/2000/svg" xmlns:xlink="http://www.w3.org/1999/xlink" x="0px" y="0px"
	 viewBox="0 0 1080 1080" style="enable-background:new 0 0 1080 1080;" xml:space="preserve">
<style type="text/css">
	.st0{fill:#F25920;}
</style>
<g>
	<path class="st0" d="M249,163h582v582.4c-194,0.1-388,0.1-582,0V163 M332.2,246.3c0,138.8-0.1,277.6,0.1,416.3
		c138.5,0,277,0.1,415.5,0c0-138.8,0.1-277.5-0.1-416.3C609.2,246.3,470.7,246.3,332.2,246.3 M528,376.2c4-1.5,7.8-3.5,12-4.5
		c4.3,1.1,8.4,3.1,12.6,4.7c38.9,15.5,77.7,31.2,116.6,46.6c19.9,8.2,39.9,16.2,59.9,24.1c0.9,0.5,2.6,0.7,2.4,2.1
		c0.1,29.2,0,58.5,0,87.8c-11.9-3.9-23.2-9.2-34.9-13.6c-51.4-20.7-102.8-41.1-154.2-61.8c-3.9-1.4-7.6,1.2-11.1,2.6
		c-29,11.7-58,23.2-87,34.8c-32,12.5-63.7,25.9-95.8,38c0-29.6,0-59.2,0-88.8c5.3-2.6,10.9-4.6,16.5-6.6c20.8-8.6,41.7-17,62.7-25.2
		C461,403,494.5,389.5,528,376.2 M771.4,813.5c5.8,0.1,11.5,0.1,17.3,0c0.2,18.2,0,36.4,0.1,54.6c0.2,3,0.2,7.3,3.7,8.5
		c4.7,1.4,9.7,0.8,14.5,0.5c2.8,0,5.5-2.1,5.4-5.1c0.4-8.8-0.1-17.7,0.1-26.5c6.2,0,12.3,0,18.5,0v30.9c-1.8,6.2-4.6,12.8-10.7,15.8
		c-4.8,3.1-10.7,3.3-16.3,3.1c-7.2-0.2-14.7,0.7-21.5-2c-5.8-2.1-10.4-7.5-11.1-13.7c-0.8-12.9-0.6-25.9-0.6-38.8
		C770.9,831.8,770.4,822.6,771.4,813.5 M365.6,820.6c3.2-3,6.4-7.4,11.3-7c6.7,0.1,13.4-0.6,20,0.8c-9.2,10.3-19.6,19.6-29.1,29.6
		c-0.8,0.8-1.4,1.8-1.8,2.9c2.6,3.7,6.2,6.5,9.2,9.8c5,5.4,10.3,10.4,15.3,15.7c1.7,1.7,3.3,3.6,5.5,4.7c4.6,0.6,9.3,0.4,13.9,0.3
		c3.3,0.1,6-3,5.6-6.2c0.1-8.5,0-17,0-25.5c6,0,12,0,18-0.1c0.2,9.2-0.2,18.4,0.2,27.6c0,2.5,1.4,5.3,4.1,5.5
		c2.5,0.1,7.1,1.2,7.3-2.6c0.5-10.1,0-20.3,0.2-30.5c5.9,0.1,11.7,0.1,17.6,0c0.6,9.1,0,18.3,0.3,27.4c0.1,1.3,0,2.8,1.1,3.7
		c2.5,2.9,6.7,1.7,10,1.9c0.6-11,0.2-22,0.1-33c6,0,12,0,18-0.1c0.5,9.8-0.4,19.7,0.4,29.5c0.4,5,6.5,4.3,10,4.5
		c4.4-0.4,9.9,1.1,13.5-2c2.3-6.8-0.4-14.3,1.8-21.2c1.9-5.6,7.1-9.7,12.9-10.5c5.3-0.4,10.6,0,15.9-0.2c4.1,0,8.3-0.4,12.1,1.4
		c5.4,2.4,9.6,8,9.5,14c0.1,6.7,0,13.4,0,20.1c0.2,4.8-2.1,9.6-5.8,12.7c-4.5,3.5-10.5,3.6-15.9,3.5c-5-0.1-10,0.2-15-0.3
		c-4-0.4-7.5-2.7-11-4.6c-3.1,1.9-6.3,4-10,4.4c-9.2,1-19.4,1-27.2-4.9c-4.7,2.8-9.8,5.6-15.5,4.9c-5.2,0.2-9.5-3.3-14.3-4.6
		c-4.6,1.9-8.9,5-14.1,4.6c-5.8,0.7-11-2.1-16-4.7c-3.5,1.6-7,3.4-11,3.3c-24.7-0.1-49.4,0-74,0c-4.2,0-8.3-0.7-12.5-1.2
		c-3.4,11.6-13,22.4-25.6,23.3c-7.7,0.3-15.3,0.1-23,0.1c-7,0-13.7-3.2-18.6-8c-5.8-5.3-8.6-12.8-10.3-20.3v-43.7
		c6.1-0.1,12.2-0.1,18.3,0c0.2,14.1-0.1,28.2,0.1,42.3c-0.3,6,5.4,10.5,10.8,11.4c5.9,0.5,11.9,0.1,17.8,0.2
		c6.8,0.4,13.6-5.6,13.5-12.6c0-13.8-0.1-27.7,0-41.6c5.9,0.1,11.8,0.1,17.7,0c0.6,9-0.3,18.1,0.5,27.1c0.7,4.3,5.8,4.8,9.3,4.7
		c10.8-0.2,21.7,0.2,32.5-0.3c-3.3-4.5-7.5-8.1-11.4-12.1c-6-6.1-12.2-12.1-18.2-18.3C348.1,837.7,357.1,829.4,365.6,820.6
		 M536.5,860.6c-3.6,2.1-2.6,6.9-2.8,10.4c-0.1,3.3,0,8,3.7,9.4c4.1,0.4,8.2,0,12.3,0.1c3.9-3.9,2.5-9.6,2.6-14.6
		c0.2-2.7-1.7-5.5-4.5-5.8C544.1,859.6,540.1,859.2,536.5,860.6 M686.4,815.5c2.2-2.5,5.6-1.8,8.6-1.9c5.8,0.1,11.6-0.2,17.4,0.2
		c-2.3,3.8-5.8,6.6-8.9,9.7c-6.8,6.9-13.7,13.6-20.5,20.5c-0.7,1-2.8,2.5-1.2,3.7c8.5,8.9,17.5,17.4,26.1,26.3
		c1.5,1.3,2.8,3.3,5,3.2c5.7,0.1,11.4,0,17.1,0c3.2,0.1,5.5-3.3,5.3-6.3c0.2-8.5-0.1-17,0-25.6c6,0.1,12.1,0,18.1,0.1
		c0.1,7.8,0,15.6,0.1,23.4c0,4.9,0.4,10-1.8,14.6c-2.9,7-10,12-17.7,11.8c-40.3,0-80.7,0-121,0c-5.5,0-11.3,0.5-16.3-2.1
		c-6.1-3.5-10-10.4-10.3-17.4c-0.2-7.5-0.2-14.9-0.1-22.3c6,0.2,12,0.1,18,0c0.1,7.4-0.4,14.9,0.3,22.3c1.6,1.7,4.2,1.3,6.3,1.4
		c24.5-0.3,49,0.2,73.5-0.3c-2.9-4.2-6.9-7.6-10.4-11.2c-5.9-6.1-12.1-11.9-17.9-18c-1.1-0.7-0.8-1.8,0.1-2.5
		C666.5,835.6,676.3,825.3,686.4,815.5 M280.1,829.4c5.5,0,11.1,0,16.7,0c0,5.7,0,11.5,0,17.2c-5.6-0.1-11.1-0.1-16.7,0
		C279.4,840.8,279.5,835.1,280.1,829.4 M709.7,829.6c5.9-0.3,11.9-0.2,17.8-0.1c-0.3,5.7-0.3,11.4-0.1,17.1c-6,0-11.9,0-17.8,0
		C709.8,840.8,709.7,835.2,709.7,829.6 M792.6,900.6c5.6,0,11.1-0.1,16.7,0.1c0.1,5.7,0.3,11.4-0.1,17c-5.6,0-11.2,0-16.8,0
		C792.4,912,792.2,906.3,792.6,900.6L792.6,900.6z"/>
</g>
</svg>
