<?xml version="1.0" encoding="utf-8"?>
<!-- Generator: Adobe Illustrator 24.3.0, SVG Export Plug-In . SVG Version: 6.00 Build 0)  -->
<svg version="1.0" id="Layer_1" xmlns="http://www.w3.org/2000/svg" xmlns:xlink="http://www.w3.org/1999/xlink" x="0px" y="0px"
	 viewBox="0 0 567.4 512.6" style="enable-background:new 0 0 567.4 512.6;" xml:space="preserve">
<style type="text/css">
	.st0{fill:#289925;}
	.st1{fill:#1F1A17;}
</style>
<g>
	<path class="st0" d="M272.7,83.7c30.8-5.6,63.8,4.8,86.2,26.5c-15.6,18.1-28.6,38.6-38.3,60.4c-1.9,4.3-3.4,8.9-5.8,13
		c-6.9-13.2-16-25.5-28.4-34c-9.7-6.7-21.2-10.8-33-11.3c-1.7-0.1-3.3,0.4-5,0.8c2.3,4.8,5.4,9.2,7.2,14.2
		c5.4,13.9,7.8,28.8,12.1,43.1c3.9,13.7,9.5,27.1,18.1,38.6c7.2,9.7,16.4,17.9,26.6,24.4c1.5,1,4.1,2.5,5,0
		c1.2-5.6,1.4-11.4,2.6-17.1c6.3-32.4,20.1-63.2,39.2-90.1c15.7-21.8,35.4-41.4,59.9-53c2.6-1.1,5.2-2.8,8.1-2.6
		c0,3.3-2.5,5.8-3.6,8.8c-7.4,16.2-11.2,33.7-15.6,50.8c-5.6,22.3-10.8,45-20.8,65.8c-10.5,21.9-28.3,40.4-50.3,50.9
		c-21.7,10.5-47,13.8-70.5,8.3c-22.7-5.2-43.4-18.7-57.4-37.3c-12.8-16.7-20-37.5-20.5-58.5c-0.6-22.7,6.8-45.5,20.6-63.4
		C224.4,101.8,247.6,87.8,272.7,83.7L272.7,83.7z"/>
	<path class="st1" d="M517.4,315.4c1.3-1.2,2.8-2.2,4.5-3c-3.2,9.6-11.2,16.4-19,22.4c-8.9,7.1-18,13.8-26.7,21.2
		c-0.7,0.3-2.1,0.9-2.8,1.2c1.6-4.2,4-8.2,7.5-11.2C492.7,335.3,505.8,326.2,517.4,315.4 M104.9,336.7c1.3-4,3.3-7.8,5.8-11.1
		c-1,10.5-1.3,21.2-4.1,31.5c-2.9,11.5-9,22.8-19.1,29.5c-1.2,1-3.1,1.7-3.2,3.5c-0.8,6.4-1.4,13.1-4.5,19c-2,3.8-3.3,8.5-7.2,10.9
		c2.4-9.6,4.4-19.3,6.2-29.1c-5.6,0.8-12,1.6-17-1.7c-5.5-3.5-7.8-10.4-7.6-16.6c0.5-8.7,3.7-16.9,7.5-24.6c1.7-3.3,3.5-6.6,5.9-9.4
		c-0.5,7-5.4,12.7-7.1,19.4c-1.6,5.5-1.6,12.4,2.9,16.5c4.5,3.6,10.8,3.7,16.3,2.9c9.8-1.4,18.1-8.6,22.1-17.4
		C104.9,352.5,102.4,344.2,104.9,336.7 M455.5,345.3c1.1-4.6,3.8-8.6,6-12.7c2.7,2.1,6.3,4.1,6.8,7.8c0,4.1-2.1,8.1-5.4,10.6
		C460.1,349.7,457.6,347.6,455.5,345.3 M367.6,333.4c2.5,1.9,5.6,3.7,6.4,7c0.1,4.1-2.3,7.6-5.2,10.2c-2.4-1.9-4.7-3.8-6.9-5.8
		C363.6,341,365.5,337.2,367.6,333.4 M374.2,344.4c1.7-4.1,3.5-8.1,6-11.8c2.2,2,5.4,3.8,6,7c0.4,4.1-2.3,7.5-4.8,10.4
		C379,348.2,376.6,346.3,374.2,344.4 M329.3,345.2c1.1-4.2,3.5-8,5.7-11.7c2.5,2.2,6.1,4.2,6.1,8c-0.4,3.5-2.1,6.8-4.9,9
		C333.6,349.3,331.3,347.3,329.3,345.2 M148.9,360.4c1.1-8.7,3.7-17.4,8.8-24.7c-0.7,9.5-1.4,19.1-4,28.3c-2.4,5.4-4.2,11.6-9,15.5
		C145.7,373.1,147.9,366.9,148.9,360.4 M296.2,349.2c1.7-4.2,3.2-8.4,5.8-12.1c-0.2,4.7-0.9,9.3-1.4,13.9c-0.9,7-1.2,14.2-4.3,20.7
		c-1.9,3.8-3.3,8.1-6.9,10.7c1.1-6.4,3.3-12.5,4.2-19C294.5,358.7,294.3,353.7,296.2,349.2 M234.5,349.6c1.8-3.8,3.3-7.7,5.7-11.1
		c3.8,1.3,7.8,5.6,5.9,9.9c-0.8,2.7-2.7,4.9-4.6,6.9C239.2,353.5,236.8,351.6,234.5,349.6 M76.6,351.4c1.8-4.4,3.9-8.8,6.6-12.7
		c2.9,2.1,6.9,3.9,7.7,7.8c0.8,4.5-3,7.8-5.6,10.9C82.3,355.6,79.4,353.5,76.6,351.4 M276.3,353.4c3.5-4.3,4.9-9.9,8.7-14
		c-0.8,5.9-3.8,11.3-6.6,16.4c-3.1,5.6-7.7,10.4-13.3,13.4c-4.5,2.4-9.9,4.4-11.9,9.6c5.6,0.3,11.1-0.8,16.7-1.1
		c-3.3,6.5-8.8,11.4-13.8,16.4c-2.5,2.8-6.5,3.3-9.5,5.6c-3.3,2.4-7.3,3.8-10.4,6.5c-1.9,1.7-4.5,1.5-6.9,1.7
		c-4.3,3.9-7.3,9.5-13.2,11.4c-4.8,2-9.7-0.1-14.6-0.3c-3.9-0.1-6.7,2.9-9.9,4.6c0.4-3.3,2.6-6,4.5-8.5c3.2-3.9,7.2-7.6,12.3-8.6
		c4.5-1,9,1.8,13.6,0.4c3.5-1,5.9-4,8.9-5.6c2-0.7,4.3-0.5,6.4-0.9c1.4-0.9,2.5-2.2,3.7-3.4c0.7,0.1,2,0.3,2.6,0.4
		c1.1-1.1,2.1-2.2,3.1-3.3c0.6,0,1.8-0.1,2.4-0.1c1.1-1.5,2.3-3.1,4.3-3.3c3.5-0.7,5.1-4.2,7-6.8c-4.3-0.1-8.7,0.4-12.9-0.6
		c-1.1-2.8,1.6-5.4,3-7.6C257.4,366.2,269.3,362.5,276.3,353.4 M201.5,354.4c3.3-0.6,7.1,0.5,9.9,2.3c2,2.2,0.5,5.7-1,7.8
		c-3.4,3.9-7.5,7.3-10.6,11.4c-4.5,5.6-5.8,13.1-10.2,18.7c-0.1-2.7,1.4-5.6,0.1-8.1c-4.3-2-9.7-2.2-13.8,0.3
		c-3.9,2.3-6.9,5.7-9.8,9.2c-5.5,7.1-10.9,14.4-17.7,20.3c-5.8,4.5-12.2,8.3-19.3,10.2c5.6-5.5,13.1-8.2,18.8-13.6
		c6.3-6.1,11.7-13.1,16.4-20.6c4.4-7.3,10.3-14.3,18.4-17.5c4.2-1.8,9-1,13.1,0.8c1.7-2.2,3.3-4.4,5-6.6c-1.7-0.9-5.1-0.8-5-3.4
		C196.7,361.5,198.8,357.6,201.5,354.4 M494.9,388.4c1.6-11,1.9-22.7,8.5-32.2c-0.8,13.5-5.5,26.8-3.8,40.4c0.1,2.7,2.1,5.2,4.9,5.1
		c4.4,0.9,4.6-5.3,6.4-7.8c0.3,6.5-1.2,13.4-5.6,18.4c-1.6,1.8-4.2,3.5-6.7,2.4c-3.5-1.6-4.8-5.6-5-9.2
		C493.4,399.8,494.3,394.1,494.9,388.4 M472.5,359c0.6,0.6,1.1,1.2,1.7,1.8c-1.5,9.9-3.6,19.7-3.9,29.7c0,3.1,0,6.2,1.3,9.1
		c1.2,2,3.8,2.3,6,2.2c2.6-1.8,3-5.3,4.4-7.9c0.4,6.5-1.2,13.4-5.6,18.4c-1.6,1.8-4.3,3.4-6.7,2.3c-3.4-1.6-4.7-5.6-4.9-9.1
		c-0.2-6,0.9-12,1-18c-4,4.2-5.9,10-10.5,13.7c-12.3,10.7-28.6,15.9-44.7,16.8c-8.1,0.4-16.8,1.4-24.3-2.4
		c-3.7-1.9-3.5-6.7-3.5-10.3c0.1-4.1,0.5-8.1,1.6-12.1c0.8,2.6,1.1,5.3,2.4,7.7c2,2.4,5.3,3,8.2,3.6c18.8,2.6,38.3-1,55.4-9.2
		c7.9-3.7,14.3-10.8,16.4-19.3C468.1,370.2,470.2,364.5,472.5,359 M369,371c1.3-4.1,3.7-7.8,6.3-11.2c2.8,0.7,5.7,1.9,6.9,4.8
		c3.3,7.2,0.3,15.6-4.2,21.6c-2.6,3.7-7.2,4.7-10.5,7.5c-4.2,4.4-4.6,11.7-10.1,14.8c-4,1.8-8.6,2.3-12.9,2
		c-0.2-0.2-0.7-0.7-0.9-0.9c4.4-4.4,10.9-6.1,15.3-10.5c3-2.6,4.5-6.4,6.5-9.7c2.6-5.3,9.3-6.1,12.8-10.6c-0.7-1-1.5-2-2.2-3
		c-1.9,0-4,0.8-5.9,0C368.6,374.8,368.5,372.6,369,371 M342.5,365.5c2.1-2.2,6.8-2.4,7.7,1c1.1,7.1-3.4,13.7-8.4,18.3
		c-3.6,3.6-8.7,4.8-13.6,4.4c-2.1,6.3-2.9,13-5.3,19.2c-3.6,9.6-9.7,18.5-18.5,24.1c-5.9,3.5-13.7,5.3-19.9,1.9
		c-6.6-4-8.4-12.5-7.5-19.7c1.5-10,5.4-19.8,11.6-27.8c-0.2,5.4-3.7,9.7-5.2,14.7c-1.3,4-2.4,8.4-1.6,12.6c1,4.5,5.3,7.5,9.7,8
		c7.1,0.7,14.7-0.6,20.3-5.4c7.9-6.1,11.2-16.6,11.2-26.3c0.1-3.6-0.2-7.6,2.1-10.6c1.5-1.9,4.2-0.7,6.2-0.8
		C335,374.6,338.1,369.4,342.5,365.5 M334.4,379.1c5.1-0.6,9.7-3.3,13.1-7.1c-1.6-0.7-3.2-1.8-5-1.7
		C338.5,371.8,336.5,375.7,334.4,379.1 M126.3,379.5c1.6-1.8,3.1-3.6,4.7-5.3c-0.8,4.7-2.2,9.3-4.7,13.3c-2.4,3.5-6.9,4.1-10,6.8
		c-5.7,5.3-5,14.9-11.9,19.3c-4.4,2.5-9.9,3.5-14.8,2.3c4.8-4.8,11.3-7.5,16.3-12c4.7-4.3,5.3-11.1,9-16
		C117.9,384,123.2,383.2,126.3,379.5 M104.6,427.2c2.6,2,5.9,3.8,6.7,7.3c0.5,4.5-2.2,8.6-5.4,11.4c-3.1-2.3-6.3-4.6-8.4-7.9
		c-0.4,3.6-2.4,6.5-5.2,8.7c-2.5-2-5-4-7.4-6.1c1.9-4.3,3.9-8.6,6.4-12.6c3.3,2.5,7.2,5.3,6.9,10c0.4-0.2,1.1-0.5,1.5-0.7
		C100.9,433.7,102.7,430.4,104.6,427.2 M490.4,444.4c1.2-4.7,3.6-8.9,6.5-12.8c3,2.3,7.6,4.4,7.5,8.8c0.2,4.2-3.3,7.1-5.8,9.9
		C495.8,448.4,492.9,446.7,490.4,444.4L490.4,444.4z"/>
</g>
</svg>
