<?xml version="1.0" encoding="utf-8"?>
<!-- Generator: Adobe Illustrator 24.3.0, SVG Export Plug-In . SVG Version: 6.00 Build 0)  -->
<svg version="1.0" id="Layer_1" xmlns="http://www.w3.org/2000/svg" xmlns:xlink="http://www.w3.org/1999/xlink" x="0px" y="0px"
	 viewBox="0 0 568.1 449.3" style="enable-background:new 0 0 568.1 449.3;" xml:space="preserve">
<style type="text/css">
	.st0{fill:#00A652;}
	.st1{fill:#F7941F;}
	.st2{fill:#231F20;}
</style>
<g>
	<path class="st0" d="M238.7,152.2c15.3-15,30.3-30.3,45.6-45.3c5.8,5.6,11.4,11.4,17.1,17c3.5-2.8,6.9-5.9,11.2-7.5
		c0,5.9-1.2,12.1,1.2,17.8c1.6,4.1,5,6.9,8,9.9c13.5,13.6,27.1,27,40.5,40.6c-5.5,6.1-11.9,11.5-17.3,17.7c3.2,3.1,6,6.6,7.5,10.9
		c-7.8-0.7-17-1.5-23.1,4.5c-15.2,14.9-30.1,30-45.2,45c-5.9-5.6-11.8-11.2-17.1-17.2c14.1-14.6,28.6-28.8,42.9-43.3
		c5.6-5.9,14.3-8.4,22.2-6.5c4.1,0.7,7.6,3,11.2,4.9c-13.9-14.5-28.5-28.3-42.5-42.7c-5.3-5.6-7.3-13.8-5.7-21.2
		c0.7-3.7,2.6-6.9,4.1-10.2c-13.8,13.6-27.3,27.4-41.1,41.1c-4.2,4.2-10,6.8-16,6.8c-11.5,0.4-22.2-7.6-26.4-18
		C223.5,157.1,232.6,158.1,238.7,152.2 M206,184.7c5.8-5.6,11.3-11.4,17.2-17c14.7,14.3,29.1,28.9,43.6,43.3
		c6.1,5.9,8.3,15.2,6,23.3c-2.3,8.7-9,15.6-17.1,19.1c0.3-7.7,1.6-16.8-4.4-22.9c-11.9-12.1-24-24-36-36.1
		C212.3,191.2,208.8,188.3,206,184.7L206,184.7z"/>
	<path class="st1" d="M278.5,160.2c6.8-1.3,14.2,0,19.9,4.2c8.4,5.9,12.4,17.3,9.6,27.1c-3.1,11.4-14.9,19.9-26.8,18.3
		c-12.1-1-22.4-11.9-22.6-24.1C257.9,173.8,266.9,162.4,278.5,160.2L278.5,160.2z"/>
	<path class="st2" d="M416.4,234.5c4.2-0.2,8.5,0.5,12.5,1.5c2.9,0.7,4.7,3.7,4.1,6.5c-0.8,5.4-4.9,9.6-8.9,13
		c-8.5,7-21.4,6.4-28.4,15.4c3.9,0.2,9.9-0.9,11.6,3.8c1.1,5.4-1.2,11.1-5.5,14.5c-5.6,4.6-12.5,7.6-19.6,9.4
		c-4.9,1.1-8.6,4.7-12.7,7.2c-28.4,18.9-60.3,33.9-94.4,37.9c-15.9,1.5-31.9,2-47.9,1c-9.9-0.8-20-1.9-29.2-5.8
		c-4.8,8.9-8.1,18.8-15.1,26.4c-2.5,2.5-5.8,5.8-9.6,4.1c-0.6-3.8,2.6-6.4,4.7-9c9.4-10.1,14.1-23.4,20.8-35.2
		c1.3-2.3,3.6-4.1,6.3-4c5.2,0,9.9,2.9,15,3.6c18.1,3.1,36.6,3.5,54.9,2.2c26.2-1.8,52.1-8.9,75.4-21c4.7-2.7,10.2-5.2,12.8-10.3
		c4.1-7.5,7.7-15.3,12.8-22.1c1.7-2.1,3.6-4.5,6.4-4.8c2.8-0.3,5.2,1.6,7.5,2.9c5.2-7.8,13.3-12.9,21.5-17.1
		c-1.4-0.2-2.9-0.3-4.3-0.4C409,247.2,412.1,240.4,416.4,234.5 M377.1,279.7c-4.5,5.1-7.7,11.2-10.4,17.4c5.4-2.1,10.2-5.5,14.9-9
		c2.2-1.9,5.4-4.7,4-7.9C384.1,276.8,379.3,276.9,377.1,279.7 M392.1,280.6c-4.7,4.2-7.8,9.8-10.9,15.2c7.2-2.3,14.5-5.6,19.4-11.6
		c1.3-1.3,2-3.9,0.1-5.1C398.1,276.8,394.4,278.7,392.1,280.6 M474.6,273.1c9.9-9.2,19.1-19,28.7-28.5c-3,9.1-9.4,16.5-16.1,23.1
		c-9,8.7-18.4,16.9-27.9,25.2c-3.3,2.8-6.5,5.9-10.3,8c1.1-4.4,4.1-8,7.3-11C462.3,284.1,468.5,278.6,474.6,273.1 M152.2,270.2
		c1.3-1.9,2.3-4.1,4.1-5.6c2.6,0.1,4.7,2.8,5.4,5.1c0.1,3.3-2.6,5.8-4.7,8c-1.9-1.3-3.6-2.7-5.4-4c-1.1,2.2-2.6,4.2-4.4,5.9
		c-1.9-1.5-4.6-2.6-5.5-4.9c1.3-3.2,3.1-6.3,5.4-8.9C148.9,267.2,150.6,268.7,152.2,270.2 M133.6,274.8c2.8,0.7,5.3,3,5.7,5.9
		c-0.5,3.1-2.6,5.6-5,7.5c-1.7-1.3-3.3-2.6-4.9-3.9c-1.5,1.8-2.4,5-5.1,5.4c-2-1-3.6-2.6-5.2-4c1.4-3.2,3.2-6.4,5.3-9.2
		c2.1,1.1,3.9,2.6,5.6,4.2C131.1,278.7,132.4,276.8,133.6,274.8 M443.6,320.1c1.9-6.3,3.2-13.4,7.9-18.3c-1.3,9-3.9,17.8-4.4,26.9
		c-0.1,3-0.5,6.3,0.8,9.1c1,2,3.9,3.3,5.9,1.8c1.5-1.6,2.3-3.7,3.7-5.4c0.2,4.2-1.1,8.3-2.8,12c-1.3,2.5-3.4,5.4-6.6,5.3
		c-2.9,0.1-4.9-2.7-5.4-5.3c-1.2-5.6,0-11.4,0.3-17.1c-3.5,3.7-6.1,8.2-10.2,11.2c-9.5,8.1-22.2,11-34.3,12.5
		c-7.1,0.3-14.6,1.1-21.4-1.3c-3.6-1.2-4.6-5.5-4.4-8.9c0.2-3.4-0.1-7.2,1.9-10.1c0.5,3.9,2.5,8,6.9,8.5c13.2,2.1,27,0.8,39.9-3.1
		C430.5,334.9,440.4,329.8,443.6,320.1 M471.4,331.8c1.4-9.9,1.7-20.6,7.4-29.3c-0.4,10.7-3.3,21.3-3.1,32.1
		c-0.1,3.2,2.9,6.8,6.3,5.2c1.8-1.6,2.6-4,4.2-5.6c-0.2,5.4-1.6,11.1-5.1,15.3c-2.1,2.6-6.7,2.7-8.4-0.3
		C469.6,344,471,337.6,471.4,331.8 M161.2,311.6c1.2-2.9,2-6.3,4.6-8.3c-0.3,6.1-0.9,12.3-0.8,18.4c0,6.4-0.8,13-4.1,18.6
		c-0.6,1.2-1.7,2-2.7,2.7c0.4-3.8,1.4-7.5,1.5-11.4C159.9,325,158.7,318.1,161.2,311.6 M89.7,327.9c1.2-8.1,2-16.7,6.6-23.6
		c-0.1,10.5-3.2,20.8-2.9,31.4c0.1,4.7,4.9,8.8,9.6,7.1c3.6-0.7,4.3-5.2,7.2-6.9c2,0.2,3.9,0.8,5.8,1.2c3.4-4.7,5.7-10.8,11.3-13.3
		c2-1.1,5.2-0.4,5.7,2.1c0.8,3.5-1.2,6.8-2.2,10c3.9-2.2,6.4-6,9.7-8.9c2.2-0.4,4.5,0,6.8-0.1c0-1.7,0.6-4.2-1.4-5.1
		c-2.2-0.2-4.6,0.8-6.5-0.5c-2.1-2.3,0-5.2,0.8-7.5c1.2-2.4,2.6-5.9,5.9-5.6c4.4,1.2,6.6,6.3,6.4,10.6c-0.5,4.9-2.6,9.8-5.7,13.6
		c-1.8,2.5-5.1,0.5-7.5,1.2c-2.5,1.9-4.5,4.4-7.2,6.1c-3.9,2.3-8.3,3.9-12.7,5.3c-3.8,1.2-7.9,0.2-11.4-1.4c-3.1,3.4-4.9,8.6-10,9.5
		c-4.1,0.9-8.4-1.9-9.2-5.9C87.8,340.7,89,334.2,89.7,327.9 M124.7,329.2c-2.8,1.9-4.4,5.1-6,8c4.7-0.1,8.7-2.9,11.4-6.5
		C128.5,329.5,126.6,328.4,124.7,329.2 M458,316.6c0.7-3.6,2.7-6.9,5-9.7c2.3,1.4,5,3.1,5.8,5.9c-0.7,2.9-2.1,6.2-4.7,7.8
		C461.9,319.6,459.7,318.4,458,316.6 M75.4,321.6c3.8,1.7,7.2,4.8,8.1,9.1c1.5,11-7.4,22.4-18.8,22.5c4-4.5,10-7.1,13.1-12.5
		c-1.1-3.9-5-5.9-7.5-8.9C72,328.4,73.7,324.9,75.4,321.6 M473.4,366.7c1.4-3.5,2.7-7.3,5.7-9.7c2,1.6,4.4,3.2,5.4,5.7
		c-0.4,3.2-2.5,5.9-4.5,8.3C477.8,369.7,475.6,368.3,473.4,366.7L473.4,366.7z"/>
</g>
</svg>
