<svg width="48" height="48" viewBox="0 0 48 48" fill="none" xmlns="http://www.w3.org/2000/svg">
<path fill-rule="evenodd" clip-rule="evenodd" d="M16.2753 10.5665C15.6056 11.3119 15.4029 11.7524 15.3673 12.5386C15.3265 13.4441 15.3783 13.5834 16.3744 15.2538C17.1669 16.5832 17.3336 16.6959 17.9155 16.2986C18.0557 16.2029 18.3683 15.9888 18.6098 15.823C19.6719 15.0937 21.0933 14.5381 22.4589 14.3189C23.6409 14.1291 23.6535 14.0941 23.1954 12.2471C22.8036 10.666 22.7162 10.4673 22.1699 9.91431C21.4289 9.16466 20.3776 8.87394 19.0389 9.04973C17.9534 9.19225 17.0788 9.67236 16.2753 10.5665ZM24.8473 12.1564C24.3529 14.0685 24.3725 14.1275 25.5643 14.3189C27.1493 14.5735 28.7027 15.2387 29.9476 16.1959C30.4398 16.5747 30.8427 16.5601 31.1111 16.1546C32.7775 13.6351 33.0471 12.4539 32.2408 11.2058C31.19 9.57974 29.5466 8.81497 27.6163 9.05351C26.0402 9.24896 25.4188 9.94493 24.8473 12.1564ZM9.36653 21.4117C9.80382 22.3393 10.3886 22.7022 12.1756 23.1539C14.0485 23.6273 14.1703 23.5951 14.3067 22.5945C14.5173 21.05 15.1624 19.4864 16.1364 18.1598C16.759 17.3118 16.7126 17.2171 15.2416 16.3374C13.4341 15.2564 12.8509 15.1041 11.8384 15.449C9.65985 16.1916 8.37136 19.2997 9.36653 21.4117ZM32.7816 16.3374C31.3169 17.2136 31.2629 17.3213 31.8745 18.1488C32.8397 19.4547 33.4838 21.0169 33.7187 22.6235C33.8604 23.5925 33.9763 23.6216 35.8312 23.1567C37.8999 22.6381 38.5798 22.1015 38.8777 20.7529C39.5272 17.8149 37.126 14.7747 34.6412 15.389C34.2361 15.4888 33.9924 15.6132 32.7816 16.3374ZM9.93769 25.8296C7.42606 28.3534 10.4005 33.6737 13.6731 32.5102C14.0703 32.3687 16.2349 31.1012 16.364 30.9342C16.5866 30.6461 16.525 30.3524 16.1319 29.8243C15.1911 28.5616 14.505 26.8905 14.3026 25.3691C14.1735 24.3988 14.0213 24.3578 12.2507 24.8139C10.6298 25.2314 10.458 25.3066 9.93769 25.8296ZM33.7228 25.3287C33.4875 26.9672 32.8545 28.5126 31.8673 29.8584C31.2573 30.69 31.3052 30.781 32.834 31.6922C35.1205 33.0544 36.0652 33.0405 37.5545 31.6224C39.5609 29.7112 39.4592 26.2152 37.3704 25.2835C37.1285 25.1758 34.4834 24.4674 34.3552 24.4762C34.3388 24.4772 34.2522 24.51 34.1632 24.5489C33.8958 24.6654 33.7916 24.8502 33.7228 25.3287ZM15.8652 33.59C14.9972 35.101 15.1753 36.3239 16.4521 37.616C18.3866 39.5742 21.7576 39.4283 22.7291 37.3444C22.8693 37.0431 23.5118 34.5852 23.5115 34.3509C23.5109 33.9937 23.2488 33.8083 22.5978 33.7043C20.9588 33.4422 19.4443 32.8184 18.1915 31.8889C17.7229 31.5415 17.423 31.4546 17.1574 31.5892C17.0438 31.647 16.4805 32.519 15.8652 33.59ZM25.5113 33.687C24.3867 33.8534 24.3637 33.9235 24.83 35.7687C25.2256 37.3333 25.3326 37.5743 25.8668 38.1043C28.0059 40.2257 32.6689 38.2916 32.6761 35.2797C32.678 34.5208 32.3898 33.8803 31.1872 31.971C30.8414 31.4218 30.5058 31.3748 29.9533 31.7983C28.7109 32.7509 27.0426 33.4602 25.5113 33.687Z" fill="#FF7F31"/>
<path d="M24 0C17.8376 0 12.7329 4.56461 11.8855 10.4943C15.0932 7.5817 19.3422 5.80723 24 5.80723C28.6578 5.80723 32.9068 7.5817 36.1145 10.4943C35.2671 4.56461 30.1624 0 24 0Z" fill="#37389A"/>
<path d="M10.5115 11.883C7.65097 15.1013 5.91107 19.3479 5.91107 24C5.91107 28.6521 7.65097 32.8987 10.5115 36.117C4.57344 35.2771 0 30.1684 0 24C0 17.8316 4.57344 12.7229 10.5115 11.883Z" fill="#37389A"/>
<path d="M48 24C48 17.8316 43.4266 12.7229 37.4885 11.883C40.3492 15.1013 42.0891 19.3479 42.0891 24C42.0891 28.6521 40.3492 32.8987 37.4885 36.117C43.4266 35.2771 48 30.1684 48 24Z" fill="#37389A"/>
<path fill-rule="evenodd" clip-rule="evenodd" d="M23.2193 15.0273C17.5777 15.4486 13.7217 21.1778 15.3931 26.655C17.6336 33.9953 27.5691 35.3069 31.6138 28.7963C35.5316 22.4896 30.6442 14.4726 23.2193 15.0273ZM23.2885 28.8268C23.336 28.9512 23.3237 31.0314 23.2751 31.0616C23.1342 31.149 21.4657 28.9386 21.5586 28.7876C21.6105 28.7036 23.2557 28.741 23.2885 28.8268ZM29.7134 28.8002C29.8402 29.0056 28.2192 30.2666 27.1771 30.7734C26.3618 31.1696 26.3242 31.1555 26.7209 30.6033C27.0959 30.0809 27.4956 29.4224 27.6735 29.0328L27.8037 28.7481H28.7425C29.342 28.7481 29.6931 28.767 29.7134 28.8002ZM19.9131 28.7481H19.1035C18.4509 28.7481 18.2936 28.7613 18.2936 28.8163C18.2936 29.1342 20.7257 30.9409 21.1534 30.9409C21.2194 30.9409 21.1496 30.8155 20.751 30.2175C20.5155 29.8641 20.2304 29.3889 20.1179 29.1617L19.9131 28.7481ZM25.4301 28.7481H24.7119V29.7681C24.7119 30.5653 24.7253 30.7824 24.774 30.7611C24.9626 30.6795 26.2355 28.8887 26.1749 28.7903C26.1606 28.767 25.8255 28.7481 25.4301 28.7481ZM23.2945 24.7736C23.3094 24.8351 23.3154 25.435 23.3079 26.1066L23.2939 27.3278L20.8346 27.3544L20.7083 26.9391C20.4785 26.1849 20.2361 24.8289 20.3095 24.7098C20.3277 24.6802 20.9101 24.6614 21.803 24.6614H23.267L23.2945 24.7736ZM18.3151 27.3526C18.8778 27.3526 19.3381 27.3359 19.3381 27.3152C19.3381 27.2946 19.2719 27.0159 19.1913 26.696C19.059 26.1721 18.9148 25.3252 18.879 24.8609L18.8656 24.6862L17.7428 24.6731C17.1254 24.6656 16.6048 24.6749 16.586 24.6937C16.4433 24.8369 16.7649 26.2062 17.1258 26.9914L17.292 27.3526H18.3151ZM26.8881 27.3526L27.0472 26.8075C27.252 26.1051 27.3899 25.4188 27.4088 25.0104L27.4234 24.6862L26.1015 24.6731C25.3746 24.6659 24.7644 24.6752 24.7456 24.6937C24.7271 24.7126 24.7119 25.3184 24.7119 26.0402V27.3526H26.8881ZM30.7221 27.3526L30.9006 26.9253C31.1761 26.266 31.5081 24.912 31.4403 24.7236C31.4152 24.6539 28.916 24.6297 28.8748 24.6988C28.8626 24.7194 28.8372 24.8818 28.8184 25.06C28.759 25.6252 28.5912 26.5856 28.4906 26.9375C28.4372 27.1245 28.3936 27.2943 28.3936 27.3149C28.3936 27.3359 28.9175 27.3526 29.5578 27.3526H30.7221ZM23.2885 20.5041C23.3049 20.5475 23.3187 21.1623 23.3187 21.8706C23.3187 22.5787 23.3049 23.1935 23.2885 23.2369C23.2527 23.3305 20.3662 23.3592 20.3089 23.2668C20.1895 23.073 20.7537 20.587 20.9451 20.4649C21.0752 20.3821 23.2557 20.4186 23.2885 20.5041ZM18.3703 20.4252H17.3989L17.2054 20.8115C16.86 21.5011 16.4696 22.9788 16.5663 23.2315C16.5965 23.3104 16.6965 23.3164 17.7309 23.3041L18.8626 23.291L18.9205 22.7677C18.9895 22.144 19.1026 21.5699 19.2707 20.9889C19.3384 20.7544 19.3823 20.5317 19.3677 20.494C19.3468 20.439 19.1492 20.4252 18.3703 20.4252ZM26.8615 20.6246C27.0854 21.0833 27.5085 23.0368 27.429 23.2447C27.4052 23.3065 27.2007 23.3155 26.069 23.3041L24.7366 23.291L24.7235 21.9212C24.716 21.1677 24.7211 20.5224 24.7346 20.4874C24.7536 20.4375 24.9823 20.4261 25.7678 20.4369L26.7765 20.4503L26.8615 20.6246ZM31.4535 23.291L31.4373 23.0915C31.3884 22.4914 31.0788 21.4033 30.7922 20.8235L30.6077 20.4503L28.3324 20.4234L28.3595 20.5613C28.3745 20.6372 28.4446 20.9236 28.5151 21.1979C28.6333 21.656 28.7336 22.2295 28.8294 22.992L28.8667 23.291H31.4535ZM23.3187 17.9323C23.3187 18.4768 23.3049 18.9576 23.2885 19.0009C23.2539 19.091 21.7087 19.1218 21.6541 19.0333C21.5729 18.902 23.1494 16.8378 23.2724 16.9141C23.2984 16.9299 23.3187 17.3764 23.3187 17.9323ZM28.645 19.0796C29.2315 19.0796 29.5435 19.0614 29.5656 19.0255C29.679 18.8416 28.0539 17.583 27.2225 17.2107L27.1898 17.1961C26.7362 16.9928 26.5184 16.8953 26.4801 16.9428C26.4447 16.9865 26.5621 17.1538 26.7879 17.4755L26.8054 17.5005C27.0204 17.807 27.3228 18.2878 27.4774 18.5689L27.758 19.0796H28.645ZM19.9838 19.0796L20.1647 18.7184C20.3289 18.3912 20.943 17.426 21.1111 17.2319C21.1487 17.1886 21.1791 17.127 21.1791 17.0947C21.1791 17.005 21.1439 17.0182 20.5472 17.3306C19.7104 17.7687 18.3252 18.8795 18.4214 19.0353C18.4363 19.0599 18.7939 19.0796 19.2163 19.0796H19.9838ZM25.0767 17.5334C25.511 18.062 26.1191 18.9857 26.0672 19.0377C26.0424 19.0625 25.7328 19.0766 25.3794 19.0688L24.7366 19.0548L24.7219 18.0335C24.7138 17.4862 24.7104 17.2541 24.7734 17.2344C24.8198 17.2199 24.9023 17.3205 25.0455 17.4954L25.0767 17.5334Z" fill="#37389A"/>
<path d="M36.1145 37.5057C35.2671 43.4354 30.1624 48 24 48C17.8376 48 12.7329 43.4354 11.8855 37.5057C15.0932 40.4185 19.3422 42.1929 24 42.1929C28.6578 42.1929 32.9068 40.4185 36.1145 37.5057Z" fill="#37389A"/>
</svg>
