<svg viewBox="0 0 48 48" fill="none" xmlns="http://www.w3.org/2000/svg">
<path fill-rule="evenodd" clip-rule="evenodd" d="M23.1843 0.256947L11.497 6.97006L11.4317 7.00698C10.2976 7.67199 9.53659 8.89913 9.53659 10.3035V33.9475L15.8394 30.3276L15.8028 30.2454L15.8008 30.2395L15.7607 30.1445L15.7231 30.051L15.7177 30.0372L15.6801 29.9412L15.644 29.8448L15.643 29.8408L15.642 29.8398L15.6063 29.7414L15.5717 29.6405L15.5707 29.6375L15.5371 29.5376L15.5039 29.4337L15.5034 29.4318L15.5024 29.4298L15.4935 29.4008L15.4846 29.3727C15.4703 29.3245 15.4559 29.2747 15.4421 29.2255L15.4411 29.224L15.4124 29.1202L15.3842 29.0144L15.3832 29.0109V29.0094L15.3683 28.9499L15.353 28.8908C15.3283 28.7904 15.306 28.689 15.2847 28.5871L15.2842 28.5856L15.263 28.4778L15.2437 28.374V28.371L15.2427 28.3671V28.3646L15.2234 28.2578L15.2065 28.151C15.1838 28.0023 15.1645 27.8546 15.1501 27.7084L15.1496 27.704L15.1393 27.5977L15.1299 27.4845L15.1219 27.3718L15.116 27.2645L15.1155 27.2605V27.259L15.1101 27.1453L15.1066 27.0351V27.0326L15.1046 26.9174L15.1036 26.8042L15.1046 26.6944L15.1066 26.5852L15.1091 26.5113L15.1101 26.4902L15.1145 26.3661L15.119 26.2903L15.1204 26.2736L15.1214 26.2608L15.1284 26.15L15.1467 25.9344L15.1576 25.833L15.1709 25.7174L15.1833 25.6224L15.1996 25.5052L15.215 25.4072L15.2343 25.2911L15.2511 25.199L15.2733 25.0814L15.2921 24.9869C15.303 24.9337 15.3105 24.9007 15.3179 24.8687L15.3372 24.7846L15.3669 24.664L15.3896 24.5744L15.4163 24.4759L15.4248 24.4444L15.4436 24.3765L15.4624 24.3125L15.4826 24.247L15.5108 24.1545L15.54 24.0625L15.5697 23.9729L15.5821 23.9379C15.5999 23.8867 15.6177 23.836 15.639 23.7775L15.6672 23.7031L15.6677 23.7012L15.6726 23.6879C15.6835 23.6598 15.6949 23.6288 15.7137 23.5811L15.7518 23.487L15.7884 23.3974L15.8424 23.2734L15.874 23.2015L15.9181 23.1051L15.9586 23.0179L16.0066 22.9195L16.0527 22.8284L16.1011 22.7339L16.1447 22.6512L16.1724 22.6005L16.1991 22.5508L16.2446 22.4706L16.2486 22.4632C16.2634 22.4371 16.2778 22.411 16.3015 22.3716L16.3466 22.2953L16.3471 22.2939L16.3555 22.2796L16.4055 22.1979L16.452 22.1235L16.5193 22.0172L16.5361 21.9926L16.5925 21.907L16.6504 21.8223C16.7488 21.6781 16.8518 21.5378 16.9577 21.4019L17.0294 21.3099L17.0774 21.2518L17.1105 21.2104L17.1551 21.1563L17.2011 21.1022L17.2437 21.0524L17.2832 21.0067L17.3243 20.9609L17.3802 20.8984L17.4233 20.8511L17.4663 20.8043L17.5143 20.7532L17.5633 20.7015L17.6128 20.6503L17.6469 20.6158L17.7038 20.5582L17.7612 20.5016L17.783 20.4805L17.8419 20.4239L17.9017 20.3677L17.9329 20.3387L17.9933 20.2826L18.0556 20.2265L18.066 20.2176L18.1343 20.1566L18.2051 20.096L18.2125 20.0896L18.214 20.0886C18.2585 20.0502 18.3015 20.0143 18.3391 19.9838C18.3763 19.9533 18.4188 19.9193 18.4663 19.8814C18.6865 19.7076 18.9136 19.5442 19.1491 19.3926L19.1585 19.3857L19.2372 19.336L19.3154 19.2868L19.3263 19.2804L19.4035 19.2336L19.4797 19.1878L19.5029 19.1746L19.5242 19.1623L19.546 19.1499C19.5841 19.1278 19.6202 19.1071 19.6524 19.0894L19.6776 19.0756L19.7508 19.0353L19.8255 18.9954L19.8597 18.9777L19.9369 18.9378L20.0131 18.8989L20.0254 18.893L20.112 18.8507L20.1976 18.8093L20.2006 18.8083C20.2758 18.7729 20.352 18.7379 20.4287 18.705C20.5019 18.673 20.5796 18.6405 20.6613 18.608C21.0616 18.447 21.4757 18.3136 21.9012 18.2122L21.9087 18.2103L22.0027 18.1881L22.0957 18.1674L22.1115 18.164L22.207 18.1443L22.3045 18.1256L22.3099 18.1246L22.4035 18.1069L22.499 18.0907L22.5237 18.0862L22.6157 18.0715L22.7092 18.0582L22.7211 18.0557L22.8176 18.0429L22.9121 18.0306L22.92 18.0296L23.0076 18.0183L23.0071 17.9307V8.45317C23.0071 8.28974 23.0408 8.1593 23.0957 8.06135C23.1432 7.97717 23.207 7.91466 23.2817 7.8743C23.3574 7.83344 23.4445 7.81277 23.5361 7.81277C23.6558 7.81277 23.783 7.84772 23.9027 7.91368L38.4574 16.2832V10.3035C38.4574 8.94196 37.7409 7.74582 36.6622 7.06851L24.8305 0.273683C24.5192 0.0964782 24.261 0.00393789 24.0012 0C23.9952 0 23.9893 0 23.9834 0C23.729 0 23.4792 0.0851568 23.1843 0.256947ZM24.9947 17.9873L25.0848 17.9971L25.0912 17.9981L25.1932 18.0114L25.2941 18.0252L25.3084 18.0281L25.4109 18.0434L25.5133 18.0601L25.5168 18.0611L25.6222 18.0798L25.7271 18.1L25.73 18.1005L25.8339 18.1222L25.9403 18.1448L25.9448 18.1463L25.9745 18.1532L26.0032 18.1596C26.0531 18.1709 26.1031 18.1837 26.1531 18.196H26.1546L26.26 18.2231L26.3658 18.2516L26.3693 18.2526L26.3703 18.2536L26.4302 18.2698L26.4886 18.2866C26.588 18.3161 26.688 18.3471 26.7869 18.3796L26.7899 18.3806L26.8933 18.4155L26.9937 18.451L26.9962 18.452L27.0002 18.4539L27.0022 18.4544L27.1046 18.4918L27.206 18.5302L27.207 18.5307C27.348 18.5854 27.4851 18.6429 27.6192 18.7025L27.6236 18.704L27.7216 18.7493L27.8245 18.7975L27.9265 18.8472L28.0229 18.8955L28.0269 18.8969L28.0284 18.8979L28.1298 18.9501L28.2273 19.0028L28.2293 19.0037L28.3312 19.0594L28.4302 19.115L28.5247 19.1706L28.6192 19.2272L28.7003 19.2774L28.8057 19.3444L28.87 19.3857L28.8834 19.3946L28.8933 19.402L28.9067 19.4103L28.9868 19.4635L29.069 19.5196L29.1654 19.587L29.2486 19.6471L29.3426 19.717L29.4188 19.7746L29.5128 19.8479L29.5905 19.91L29.682 19.9843L29.7538 20.0448L29.8448 20.1226L29.9175 20.1866C29.9581 20.2225 29.9833 20.2452 30.0076 20.2678L30.0714 20.3259L30.1615 20.4125L30.2283 20.4765L30.3 20.5484L30.3738 20.6217L30.4203 20.67L30.4663 20.7202L30.5336 20.7906L30.5984 20.8619L30.6617 20.9323L30.686 20.9609C30.7216 21.0017 30.7572 21.0421 30.7973 21.0898L30.8478 21.1514L30.8493 21.1524L30.8582 21.1637C30.878 21.1873 30.8982 21.2124 30.9309 21.2523L30.9937 21.332L31.0531 21.4088L31.1224 21.5014L31.1343 21.5171L31.1813 21.5801L31.2431 21.6663L31.2985 21.745L31.3599 21.8351L31.4168 21.9207L31.4747 22.0093L31.5247 22.0886L31.5558 22.1378L31.585 22.1856L31.632 22.2648L31.6365 22.2722C31.6518 22.2978 31.6672 22.3234 31.6899 22.3633L31.734 22.4405L31.7345 22.4415L31.7429 22.4558L31.7894 22.5395L31.8305 22.6173L31.8601 22.6724L31.8898 22.7285L31.9022 22.7541L31.9027 22.7551L31.9037 22.7556L31.9487 22.8461L31.9937 22.9387C32.0699 23.0962 32.1407 23.2547 32.206 23.4137L32.2228 23.4541L32.25 23.522L32.2773 23.5914L32.3208 23.7066L32.345 23.7735L32.3668 23.8346L32.3871 23.8917L32.4069 23.9502L32.4331 24.0295L32.4529 24.0905L32.4722 24.1511L32.5128 24.2849L32.5326 24.3539L32.5459 24.4001L32.588 24.5557L32.5954 24.5852L32.6157 24.665L32.634 24.7437L32.6439 24.7846L32.6627 24.8653L32.68 24.9475L32.6825 24.9608L32.7013 25.0504L32.7191 25.1409L32.7211 25.1508V25.1528C32.732 25.2104 32.7419 25.2655 32.7498 25.3127C32.7577 25.36 32.7666 25.4136 32.775 25.4737C32.8161 25.7498 32.8448 26.028 32.8601 26.3061L32.8606 26.3179L32.8651 26.4109L32.8681 26.5025L32.8685 26.5153L32.8705 26.6053L32.872 26.6935V26.7693C32.8725 26.8136 32.872 26.8549 32.8715 26.8913L32.8695 27.0031L32.8666 27.0877L32.8656 27.1256L32.8567 27.2974L32.8562 27.3107L32.8497 27.4072L32.8428 27.5007V27.5042C32.8354 27.5869 32.8275 27.6696 32.8181 27.7528C32.8092 27.832 32.7983 27.9147 32.7864 28.0013C32.726 28.4266 32.635 28.8499 32.5113 29.2674L32.5088 29.2747L32.4806 29.3663L32.4524 29.4574L32.4475 29.4726L32.4168 29.5647L32.3846 29.6582L32.3831 29.6631L32.3515 29.7522L32.3173 29.8433L32.3089 29.8664L32.2758 29.9535L32.2411 30.0407L32.2372 30.0525L32.2001 30.1411L32.1635 30.2297L32.1605 30.2366L32.1263 30.3178L32.203 30.3616L40.4539 35.0999C40.5964 35.1816 40.6924 35.2751 40.7508 35.3726C40.8002 35.4548 40.822 35.5414 40.82 35.6261C40.8186 35.7112 40.7918 35.7964 40.7463 35.8756C40.6859 35.979 40.5929 36.071 40.4757 36.1414L26.0635 44.4085L25.9116 44.4952L26.0635 44.5828L31.1174 47.485C32.3035 48.1668 33.7023 48.1471 34.8314 47.5564L46.6622 40.7606C46.9724 40.5809 47.1822 40.4047 47.3153 40.1827C47.4489 39.9602 47.5029 39.6983 47.4999 39.3503V25.8503C47.488 24.5409 46.8002 23.2709 45.5781 22.569L24.9947 10.747V17.9873ZM2.41934 22.571C1.23379 23.2522 0.550965 24.4676 0.5 25.7351L0.501484 39.3257C0.502969 39.6826 0.55146 39.9518 0.677634 40.1773C0.804304 40.4037 1.00569 40.5804 1.30999 40.7527L12.9977 47.4653L13.0621 47.5027C14.208 48.1471 15.6578 48.1894 16.88 47.4875L37.3119 35.7526L37.4628 35.6649L31.2387 32.0903L31.16 32.0455L31.1066 32.1179L31.1061 32.1189L31.1026 32.1228L31.0398 32.2045L30.9774 32.2838L30.968 32.2951L30.9032 32.3758L30.8374 32.4551L30.8349 32.458L30.8344 32.459L30.7661 32.5393L30.6959 32.6195L30.6939 32.6219L30.6236 32.7012L30.5499 32.7814L30.5479 32.7824L30.5464 32.7844L30.5261 32.8065L30.5059 32.8282C30.4712 32.8651 30.4356 32.9015 30.3995 32.9389L30.398 32.9399L30.3228 33.0167L30.2441 33.094L30.2416 33.0965L30.2406 33.097L30.1966 33.1403L30.1526 33.1826C30.0774 33.254 30.0007 33.3239 29.922 33.3933L29.921 33.3943L29.8379 33.4666L29.7567 33.5355L29.7548 33.537L29.7513 33.5395L29.7498 33.541L29.6657 33.6108L29.5816 33.6793C29.4638 33.7733 29.3441 33.8629 29.2248 33.9485L29.2218 33.951L29.1333 34.0135L29.0398 34.078L28.9453 34.1415L28.8552 34.2001L28.8522 34.2025L28.8507 34.203L28.7543 34.2645L28.6598 34.3226L28.6578 34.3236L28.5588 34.3837L28.4608 34.4408L28.3648 34.4954L28.2684 34.5481L28.203 34.5825L28.1847 34.5924L28.0734 34.6505L28.0051 34.6844L27.9903 34.6913L27.9794 34.6967L27.965 34.7041L27.879 34.7464L27.682 34.8385L27.5885 34.8803L27.3926 34.963L27.2812 35.0073L27.1887 35.0433L27.0779 35.0851L26.9898 35.1166L26.876 35.156L26.7844 35.187C26.7325 35.2042 26.7003 35.2136 26.6682 35.2239L26.586 35.2495L26.4658 35.2845L26.3767 35.3091L26.2778 35.3356L26.2461 35.344L26.1773 35.3617L26.112 35.3775L26.0452 35.3927L25.9502 35.4154L25.8552 35.4356L25.7627 35.4548L25.7261 35.4617C25.6731 35.4725 25.6197 35.4823 25.5578 35.4927L25.4792 35.5055L25.4777 35.506L25.4633 35.5084C25.4331 35.5133 25.401 35.5192 25.35 35.5266L25.2486 35.5414L25.1521 35.5542L25.0373 35.568L25.0175 35.5699L24.9388 35.5783L24.8329 35.5891L24.737 35.5975L24.6276 35.6049L24.5247 35.6113L24.4188 35.6167L24.3243 35.6206L24.21 35.6236L24.1175 35.6251L24.109 35.6246C24.0784 35.6251 24.0487 35.6256 24.0032 35.6256L23.9141 35.6246H23.8958L23.7998 35.6226L23.7122 35.6197L23.585 35.6147L23.5573 35.6123H23.5559L23.5549 35.6128L23.4529 35.6069L23.35 35.599C23.1754 35.5862 23.0017 35.568 22.8305 35.5448L22.7874 35.5389L22.7147 35.5286L22.6405 35.5168L22.5875 35.5089L22.5183 35.4971L22.448 35.4848L22.3837 35.473L22.3243 35.4612L22.2634 35.4493L22.1813 35.4326L22.0556 35.405L21.9868 35.3898L21.9186 35.3731L21.8488 35.3558L21.8018 35.344L21.7231 35.3233L21.6454 35.3022L21.6157 35.2943L21.5366 35.2717L21.4584 35.249L21.4178 35.2362L21.3381 35.2121L21.2585 35.1865L21.2456 35.1826L21.158 35.153L21.0705 35.123L21.0606 35.12L21.0591 35.1196C21.0032 35.0999 20.9507 35.0807 20.9057 35.0634C20.8602 35.0472 20.8097 35.0275 20.7528 35.0049C20.4915 34.903 20.2357 34.7883 19.9858 34.6618L19.975 34.6564L19.8928 34.614L19.8107 34.5712L19.7993 34.5648L19.7201 34.522L19.6425 34.4787L19.6192 34.4649L19.5974 34.4531L19.5766 34.4408C19.5376 34.4191 19.5014 34.3979 19.4703 34.3797L19.4455 34.365L19.3738 34.3216L19.302 34.2773L19.1961 34.2104L19.1239 34.1636L19.113 34.1562L19.0324 34.1026L18.9537 34.0494L18.9512 34.048C18.8824 34.0007 18.8146 33.952 18.7474 33.9027C18.683 33.8555 18.6157 33.8048 18.5465 33.7511C18.206 33.4868 17.8834 33.1964 17.5821 32.8809L17.5771 32.875L17.5108 32.8051L17.446 32.7352L17.4346 32.7233L17.3703 32.6505L17.3055 32.5767L17.3015 32.5722L17.2392 32.5004L17.1773 32.4265L17.1615 32.4068L17.1026 32.335L17.0437 32.2611L17.0363 32.2523L16.9765 32.1755L16.9186 32.0997L16.9141 32.0943L16.8602 32.0244L8.53313 36.8074C8.39112 36.8886 8.26148 36.9251 8.14817 36.927C8.05169 36.928 7.9651 36.9039 7.89187 36.8596C7.81913 36.8158 7.75827 36.7508 7.71176 36.6716C7.65189 36.5687 7.61824 36.4417 7.61577 36.3053L7.62467 19.5811L2.41934 22.571Z" fill="#BA0B22"/>
<path fill-rule="evenodd" clip-rule="evenodd" d="M17 26.7166C17 30.5817 20.1345 33.7166 23.9994 33.7166C27.8655 33.7166 31 30.5817 31 26.7166C31 22.8514 27.8655 19.7166 23.9994 19.7166C20.1345 19.7166 17 22.8514 17 26.7166Z" fill="#FFC730"/>
</svg>
