<?xml version="1.0" encoding="utf-8"?>
<!-- Generator: Adobe Illustrator 24.3.0, SVG Export Plug-In . SVG Version: 6.00 Build 0)  -->
<svg version="1.0" id="Layer_1" xmlns="http://www.w3.org/2000/svg" xmlns:xlink="http://www.w3.org/1999/xlink" x="0px" y="0px"
	 viewBox="0 0 287.3 384.5" style="enable-background:new 0 0 287.3 384.5;" xml:space="preserve">
<style type="text/css">
	.st0{fill:#2C241A;}
	.st1{fill:#FFF6B1;}
	.st2{fill:#E30612;}
	.st3{fill:#F7A70B;}
	.st4{fill:#FEF481;}
</style>
<g>
	<path class="st0" d="M132.2,64.4c2.7-1.9,3.8-5.1,5.1-8c0.9,2.5,1.6,5.3,3.9,7c10.7,8.8,24.9,11.1,36.5,18.5
		c5.3,3.3,10.3,7,14.2,11.9c5.3,6.5,8.1,14.8,13.7,21.1c2.8,3.3,6.5,5.4,9.9,7.9c-3.4,2.5-7.5,3.8-11.5,5.1c2.2,2,5.5,4.7,8.6,2.9
		c0.6-1.5,0.9-3.1,1.5-4.6c1.7-0.7,3.1,0.6,4.5,1.3c0.3,1.6,0.7,3.3,1.1,4.9c4.2,0.7,5.1,5.1,5.5,8.7c-0.5,0.7-1,1.4-1.5,2.1
		c1.3,2.1,2.4,4.3,3.3,6.6c-1.1,2.7-2.1,5.5-3.9,7.8c-0.1,1.1-0.2,2.1-0.3,3.2c3.9,2.6,3.3,7.4,3.2,11.4c2.2-1.9,2.9-5.8,5.8-6.4
		c2.7,1.7,3.2,5.4,3.8,8.2c0.7,2.2-0.8,4.1-1.7,6.1c1.1,1.9,2.9,3.6,2.9,5.9c0.6,2.6-2,3.8-3.5,5.3c-0.6,2-0.5,4.7-2.9,5.4
		c-2.9,1.1-5.1,3.1-6.8,5.7c3.2,0.5,3,3.6,3.8,6c0.9,1.1,2.1,2,3.1,3c1.9-0.6,3.9-2.2,6-1.1c0.4,3.2-0.1,6.6-1.4,9.6
		c0,1.3,1.3,3.1-0.2,3.9c-1.3,0.8-2.8,1.3-4.2,1.9c2.4,2.6,2.6,6.3,1.1,9.5c-1.5,0.5-3,0.6-4.5,0.8c-1.9,4.5-8.5,1.9-10.1,6.7
		c0.4,2.3,0.4,4.7,0.3,7.1c2.2-0.5,4.4-1.1,6.6-1.4c2.4,3-0.1,6.4-1,9.4c-1.1,1.8-2.5,3.4-3.7,5.1c-0.9-0.3-2.8-0.8-3.7-1.1
		c0.1,2.2,0.7,4.3,1.1,6.4c-0.6,1.2-1.7,2.1-2.7,3.1c-0.5,1.7-1,4.3-3.4,3.8c-5.8-0.8-11.2,2.2-15.6,5.8c1.2,1.1,2.7,2.3,2.6,4.1
		c0.6,2.4-1.9,3.6-3.1,5.1c0.4,4.2-4.8,5.7-3.9,10c2.7,0.5,5.5,0.9,8.2,1.5c-0.3,1.2-0.6,2.3-1.1,3.5c-1.1,0.3-2.3,0.6-3.4,0.8
		c-1.2,1-2.3,2.3-3.8,3c-1.1-0.2-2.3-0.5-3.4-0.8c-0.7,3-3.3,4.7-5.6,6.3c-6.2-0.7-13-2.5-18.9,0.4l1.9,0.8
		c-0.4,0.8-1.2,2.4-1.7,3.2c7-1.1,14.7-2.3,21.3,1c-3.6,0.6-7.3,0.4-11,0.8c1.5,2.3,3.3,4.3,5,6.5c-4.4-1-9-1.6-13.6-1.1
		c-4,0.1-8.8,0.9-12.1-1.9c-1.1-1.4,1.3-2.3,1.8-3.4c-4.4-0.4-9.4-0.3-12.2-4.3c-2.6-0.2-5.2-0.5-7.7,0.1c-0.7-0.5-1.4-1-2.1-1.5
		c-2.7,4.3-8,4.2-12.5,4.7c1,1,1.9,2,2.8,3.1c-7.3,5.3-16.9,3.5-25.2,2.3c1.4-1.2,2.8-2.4,4.2-3.6c-3.4-1.9-7.3-2.6-10.5-4.9
		c6.8-0.2,13.7,1.7,20.5,0.4c-0.5-1.3-1.1-2.6-1.6-3.8c1.7-0.6,3.5-1.2,5.3-1c5.3,0.5,10.7,0,15.6-1.9c-8.4-0.8-16.8,1.7-25.3,0.9
		c-10.2-0.2-19-5.9-27-11.7c-2-1.8-4.8-1.4-7.3-1.3c3-4.1,7.8-6.2,12.8-6.6c-0.7-2-1.3-4.1-1.9-6.2c-8.4-3.5-16.3-8.3-22.8-14.6
		c-4-3.6-4.8-9.1-7.1-13.6c-0.9-2.1-3.3-2.5-5.2-3.5c4.1-2.5,9-2.1,13.3-0.4c0.5-3,1.1-6.1,1.6-9.1c-7.1-4.3-13.1-10.3-17.5-17.4
		c-2.5-3.9-2.7-8.6-3.7-13c-0.5-2.7-2.8-4.3-4.6-6.1c4.5-0.6,9.1,0.1,13,2.6c0.8-2.5,1.8-4.9,2.6-7.3c-5.3-4.8-9.6-11.1-10.8-18.3
		c-1.7-7.2,1.2-14.5-0.1-21.8c2.8,3.4,5.5,7,7.9,10.7c1.5-3,3.6-5.8,5.9-8.2c-2.4-3.1-4.3-6.6-4.7-10.6c-1.1-10.2,3.6-19.7,7.5-28.9
		c3.6,1.8,6.6,5.2,5.9,9.6c3-3.5,6.6-6.3,10.4-8.8c-4.1-2.1-8.5-4-11.2-7.9c4.8-1.8,8.2-5.9,11.1-9.9c4.4-6.6,8.2-13.6,13.8-19.3
		c5.9-6.5,13.4-11.3,21.5-14.4C117.1,72.3,125.4,69.6,132.2,64.4 M137.2,62c-7.1,8.8-18.7,11.5-28.7,15.7c-8,3.3-15.3,8.5-20.9,15.1
		c-7.8,8.7-11.8,20.5-21.6,27.4c3.2,2.1,6.6,3.8,9.9,5.6c4.7,2.5,7.6,7.3,12.2,10.1c6.8-10.5,15.6-20,26.7-25.8
		c11.7-6.4,26.2-7.8,38.8-3c14.1,5.1,25,16.3,32.9,28.8c2.9-1.3,5.6-2.9,8-5c4.9-4.4,11.6-5.4,17.5-7.9c-2.8-2-5.7-3.9-7.9-6.5
		c-5.8-6.6-8.6-15.1-14.2-21.7c-5.3-6.5-12.7-11-20.1-14.8C158.7,74.6,145.7,71.5,137.2,62 M125.2,107.9
		c-14.5,4.2-26.2,15-34.3,27.4c-15,23-19.8,51.8-15.5,78.6c3.2,20.1,11.4,39.9,25.9,54.5c24.2,0,48.4-0.4,72.6-1
		c11.2-11.6,18.5-26.5,22.6-42c6.7-25.8,4.9-53.9-6.1-78.2c-6.4-13.9-16.1-26.9-29.5-34.7C150.2,106.3,137.1,104.3,125.2,107.9
		 M72,143.3c3.3-2.5,7.4-3.5,11.5-3.7c-2.3,5.8-5.1,11.4-8.5,16.7c-3.1,4.9-8.4,7.6-13.6,10c0.2,2.2,0.3,4.4,0.5,6.6
		c2.6-1.9,5.3-3.8,8-5.7c-1.2,5.2,1.2,10.6-0.4,15.8c-2.6,8.7-7.8,16.6-8.8,25.7c2.6-3.4,5.3-6.7,7.3-10.5c1.2,3.9-0.7,8.1,0.8,12
		c1.6,4.4,3.1,9,2.3,13.7c-0.4,6.3-3.2,12-4.1,18.2c1,2.8,3.5,4.8,5.1,7.4c1.3-3.9,3.6-7.3,4.7-11.2c2,3.3,3.1,7.1,4.2,10.8
		c1.3,4.2,4,7.9,5.1,12.2c1.7,5.8,1.7,12,0.4,17.9c2.3,1,4.7,2.1,6.9,3.3c-1-4.4-0.1-8.9-1.1-13.2c2.7,1.9,4,4.9,5.9,7.5
		c2.9,3.2,7.4,4.6,9.9,8.1c3.3,5,4.4,11,6.5,16.5c0.5,2.1,3.1,2.4,4.6,3.6c-3.8-2.9-1.9-7.7-2.1-11.7c0.2-3.9,5-2.5,7.6-2.6
		c4.3,0.6,8-2,12-2.5c3.8,0.2,7.1,3,11,2.3c3.2,0.1,7.1-1.3,9.9,0.9c1.2,2.7,1.1,6.1,0.1,8.8c-2.5,1.9-5.1,3.8-7.1,6.2
		c4.5-0.4,7.4-3.6,9.6-7.3c0.3-2,0.3-4.1,1.7-5.7c1.7-1.8,1.6-4.4,2.3-6.6c1.6-1.2,3.4-2.2,4.9-3.4c1.7-1.6,4.4-1.1,5.9-3
		c1.2-1,2.3-3,4.1-2.4c1.6,0.1,1.8,1.9,2.5,3c3.8-3.2,6-7.9,6.2-12.8c-0.3-2.4-1.7-4.5-2.5-6.7c1.7-2.4,3.6-4.8,6.4-6
		c-0.6-2.2-0.7-4.5,1.1-6.2c2.6-2.5,1.9-7.2,5.6-8.6c1.7,2.1,3.3,4.2,5.2,6.1c2.2-2.8,3.4-6.2,3.9-9.7c0.5-4.9-3.7-8.4-4.4-13
		c0.6-2.9,1.4-6,4.5-7.1c-1.1-1.5-2.3-3-3.4-4.6c1.1-1,2.4-1.9,3.7-2.7c0.4-2-0.7-5.1,2-5.7c1.7-0.8,3.1,1.5,4.6,2.2
		c-2.1-4.9-6.9-8.9-6-14.7c-1.1-0.8-2.2-1.7-3.3-2.6c1.3-2.1,1.2-4.5,0.8-6.8c2.6-3.8,1.2-8.3-0.5-12.1c1.2-0.5,2.3-1.6,3.6-1.4
		c1.4,1.1,2.4,2.6,3.6,3.9c1.1-1.5,2.1-3,3.2-4.5c-1.3-1.7-2.6-3.5-4.3-4.8c-2.1-1.7-5.1-1.5-7.4-2.6c-1.2-1.2-2-2.8-2.9-4.2
		c-3.3-2.1-7.5-5.6-5.5-9.9c-1.6-3-3.6-6-4-9.4c-0.4-0.4-0.7-0.8-1.1-1.2c-0.8,0.5-2.5,1.4-3.4,1.9c14,24,17.7,53.2,12.7,80.3
		c-3.8,19.8-12.4,39.3-27.3,53.2c-9.7,9.2-22.7,15.4-36.2,15.2c-14.9,0-28.9-7.8-38.8-18.6c-13.5-14.6-21.2-33.8-24.4-53.2
		c-4.2-26.2,0-54.1,13.7-77c-4.6-2.6-7.5-7.2-11.8-10.1C72.5,132.3,72.4,137.9,72,143.3 M211,133.7c1.4,2.8,4.8,3.2,6.8,5.2
		c1,1.7-0.3,3.7-0.5,5.5c4.1,5,1.5,11.7,1.5,17.5c0.8-0.4,1.6-0.9,2.4-1.3c0.1-1.2,0.3-2.4,0.5-3.6c1.4-2.3,2.6-4.6,3.8-7.1
		c-1-1.9-2.1-3.8-2.8-5.9c0.1-2.6,1.2-5.3-0.2-7.7c-1.3-1.6-3.6-2.4-4.4-4.4c-0.8-1.7-1.5-3.5-2.3-5.2
		C215,129.6,213.8,132.3,211,133.7 M51.5,151.9c-0.1,4.7,1.4,9.6,5.1,12.7c0.9-5.9,0.2-12,1.8-17.9c0.9-4.4,3.7-8.3,3.7-12.8
		c0-2.4-2.1-4.1-3.4-5.9C55.1,135.6,51.7,143.5,51.5,151.9 M191.7,135.3c3.1,1.4,6.6,1.4,9.9,2.1c0-2.9-0.1-5.8-0.5-8.7
		C197.8,130.6,194.9,133.2,191.7,135.3 M202.6,129.1c0.5,3.1,0.5,6.3,0.2,9.4c1.2,1.1,2.4,2.3,3.6,3.5c-0.8,1-1.7,2-2.5,3
		c1,2.4,3.4,3.3,5.5,4.5c0.4,1.4,0.5,2.7,0.7,4.1c2.5,2.7,5.4,5,7.4,8.2c0-4.6,0.7-9.3,0.3-13.9c-3.2-1.9-1.9-5.3-0.9-8.1
		c-2-1.1-4.1-1.9-5.9-3.1c-0.8-1.1-1.2-2.4-1.9-3.6C206.8,131.7,204.6,130.6,202.6,129.1 M62.6,139.8c-3.4,6-3.7,13-4,19.7
		c0.8,1.2,1.7,2.5,2.5,3.8c2.6-3.5,5.4-6.8,7.2-10.8c3.5-7.1,1.7-15.3,4-22.8C68.7,132.7,64.9,135.7,62.6,139.8 M193.4,137.7
		c1.4,2.9,2.8,5.9,4.6,8.6c-0.5,0.9-1,1.9-1.5,2.9c1.7,2.3,3.6,4.3,6,5.8c1.3,2,2.5,4.7,5.3,4.8c3.5,0.5,6.1,3,8.7,5.2
		c-0.9-6.1-8.2-8.2-8.6-14.5c-3-0.9-4.8-3.3-5.5-6.2c0.6-0.6,1.7-1.9,2.2-2.5C201.4,139,197.5,137.8,193.4,137.7 M72.8,145.1
		c-1.1,1.8-1.5,3.9-2.2,5.9c-1.6,4.9-5,8.9-7.9,13.1c2.8-1.4,5.7-2.9,8-5.1c5-4.9,7.6-11.6,10.5-17.8
		C78.2,142,74.8,142.5,72.8,145.1 M220,163.1c-1.6,3.3-3.2,6.6-5.6,9.5c1.2,1.2,2.5,2.3,3.5,3.6c-1.1,1.3-2.6,2.1-3.9,3
		c0.7,2.7,1.9,5.2,2.8,7.8c-0.3,1.4-1.2,2.6-1.9,3.9c1.1,1.4,2.6,2.7,3.3,4.5c0.7,3.4,0.1,6.9,0.4,10.4c1.4-2.5,2.5-5.1,3.3-7.8
		c1-3.9,3.1-7.4,4.8-11c-1.6-2.9-2.4-6.1-0.2-8.9c-3.3-3.4-1.9-8.1-2-12.3C224.1,163.9,221.9,160.8,220,163.1 M49.7,177
		c-1.1,6.5,1.2,13,3.3,19.1c1.2,1.1,2.4,2.2,3.5,3.3c-0.3-12.3,6.3-24.3,2.6-36.6C55.7,167.3,50.8,171.2,49.7,177 M225.8,174.1
		c0.7,1.2,1.5,2.4,2.1,3.8c-0.3,1.4-0.9,2.8-1.3,4.2c0.5,2.2,2.1,4.5,0.8,6.8c-1.6,3.6-3.6,7.2-4.7,11c2.4-2,5.1-3.5,7.7-5.3
		c1-1.7,1.3-3.8,2.7-5.2c0.7-1.1,2.4-1.9,2.3-3.4c-0.7-2.2-2.1-4-2.9-6.1c0.5-1.5,1.2-2.9,1.9-4.3c-0.6-3-1.4-5.9-2.5-8.7
		C230,169.4,228,171.9,225.8,174.1 M43.2,168.2c-0.6,4.8-1.4,9.7-0.8,14.6c0.9,7.3,4.6,14.3,10.5,18.7c-1-5.8-4-11-4.7-16.9
		c-0.5-3.1,0-6.3-0.4-9.4C46.8,172.6,44.8,170.5,43.2,168.2 M207.5,169.3c1,3.5,1.8,7.1,1.7,10.8c-0.5,0.7-0.9,1.4-1.4,2.1
		c0.5,2.1,0.2,4.2-0.6,6.2c1,0.7,1.9,1.3,2.9,2c0.2,2.3-0.3,4.9,1.1,6.9c2.2,3.4,4.2,7,5.4,10.9c0.4-3.5,0.6-6.9,0.4-10.4
		c0-2.8-2.5-4.6-3.5-7c0.5-1.4,1.2-2.7,1.8-4c-1.1-2.8-2.9-5.6-2.4-8.7c0.9-0.9,2-1.6,3.1-2.4C212.9,174,210.2,171.7,207.5,169.3
		 M61.3,177.9c-1.2,9-5.1,18.3-2.1,27.4c2.3-6.8,5.2-13.4,7.9-20c2.1-4.7,1.3-9.9,0.7-14.9C65.2,172.4,61.3,174,61.3,177.9
		 M50.7,217c1.8,8.5,6.9,15.8,12.3,22.5c-0.4-6.2,0.1-12.4,0.1-18.5c-0.2-8-4.7-14.8-8.5-21.6C53.5,205.3,49.3,210.7,50.7,217
		 M62.9,210.9c0.6,4,2.1,8,1.8,12.1c-0.3,6.1-0.6,12.3,0.2,18.4c2.8-7.7,5.6-15.9,4.4-24.1c-1.1-4.5-3.1-8.9-3-13.6
		C64.8,205.8,62.5,208,62.9,210.9 M216.2,209.9c0.2,1.3,0.4,2.6,0.5,3.9c-2,1.6-4,3.1-5.8,4.9c0.9,1.2,1.8,2.3,2.6,3.5
		c-1.2,0.6-2.4,1.2-3.6,1.8c0.8,4.9,2.3,9.8,2.5,14.8c-0.7,2.9-2.9,5.1-4,7.9c5.2-2.4,7.4-8.2,10.1-12.9c1.5-1.9,4-2.7,5.4-4.7
		c-0.1-1.7-0.5-3.3-0.5-5c1.2-1,2.5-1.8,3.6-2.8c1.2-2.9,1.4-6.1,1.8-9.2c-2.7-1.9-3.8-4.9-4.1-8.1
		C221.8,205.8,219.1,208,216.2,209.9 M206.4,212.5c0.8,1.5,3.1,3.1,1.9,5c-1.5,2.1-3,4.1-4.1,6.4c1.6,3.6,3.9,6.9,4.6,10.9
		c0.5,5.1-2.1,9.8-4.8,13.9c3.2-2.5,5-6.3,6.6-9.9c0.3-5.4-2.1-10.4-2.3-15.7c0.8-0.6,1.7-1.1,2.6-1.6c-0.6-1.1-1.2-2.1-1.8-3.2
		c1.9-2,3.8-3.9,6-5.6c-0.7-3-2.1-5.9-4.7-7.8C209,207.5,210,211.4,206.4,212.5 M40.8,208.8c2.7,6.3,2.2,13.9,6.6,19.5
		c4.2,5.6,9.1,11.1,15.4,14.3c-5.6-8.7-13-16.9-13.9-27.7C49.4,210.4,43.9,209.9,40.8,208.8 M230.5,212.9c-0.5,3.1-1.1,6.2-1.7,9.3
		c-1.3,0.9-2.6,1.8-3.9,2.7c0.3,2.1,1.6,5.1-0.8,6.4c-2.8,1.9-5.3,4.1-6.4,7.4c2.4-0.6,5.2-0.8,7.2-2.6c1.6-1.7,3.9-2,6.1-2.4
		c0.6-3-0.6-5.7-2-8.2c1.7-1.1,3.5-2.1,5.3-3.1c-0.3-0.5-0.9-1.6-1.2-2.1c1.5-2.8,1.9-5.9,2.2-8.9
		C233.6,211.7,232,212.3,230.5,212.9 M63.9,241.7c0,5.9-3.4,12-0.6,17.6c3.7,7.4,9.9,13.1,15.9,18.6c-1.6-5.4-2.2-11-3.1-16.5
		C74.5,253.6,69,247.5,63.9,241.7 M73.9,250.8c1,3.7,3.2,7,3.8,10.8c0.8,5,1.5,10,2.6,14.9c1.7,0.5,3.3,1,5,1.5
		c1-7.3,0.8-15.1-2.8-21.7c-2.5-4.5-3.9-9.5-5.4-14.4C75.8,244.7,73.4,247.5,73.9,250.8 M192.9,256c-2,1.8-4.1,3.5-5.8,5.6
		c0.8,2.1,2.1,4.1,2.2,6.4c-0.2,3.1-1.3,6.1-2,9.1c4.4-3.8,3.2-10.1,6.8-14.4c-0.6-1.1-1.2-2.2-1.9-3.3c1.4-2.2,2.4-4.7,3.8-6.9
		c1.6-0.4,3.2-0.5,4.9-0.7c0.5-1.2,1.7-2.3,1.4-3.7c-1.4-2.1-3.1-4-4.7-6C196.9,247,192.2,250.6,192.9,256 M207.9,248.2
		c-2.8,0.8-4.6,3.3-6.9,5c-1.4,0.4-2.8,0.4-4.2,0.6c-0.8,2-1.7,3.9-2.8,5.8c0.7,1.1,1.4,2.1,2.1,3.2c-4,3.3-2.7,9-5.8,12.8
		c-2.7,4.1-6.8,7-9.4,11.2c4.4-2.7,7.3-7.2,11.7-10c3.3-2.1,6.2-4.7,9-7.5c0-1.7-0.2-3.4,0.3-5c2.6-1.2,5.5-0.3,8.3-0.6
		c0.6-3.3,0.5-6.7,1.2-9.9c0.4-2.1,2.9-2.1,4.4-2.9c0.1-2.3,0.2-4.6,0.2-6.9C213.5,245.5,210.9,247.4,207.9,248.2 M212.8,253.7
		c-0.5,3.5-0.3,7.2-1.6,10.6c-2.3,1.8-5.5,0.6-8.1,0.8c-0.1,1.8,1.1,4.1-0.6,5.4c-5.1,5.5-12.2,8.7-17,14.6c2.9-1,6-1.9,8-4.4
		c4.6-4.8,11.2-8.2,18-7.2c1-2,2.2-3.9,3.3-5.9c-0.1-2.4-1.3-5.1,0.4-7.2c1.2-0.1,2.5,0.1,3.7,0.1c2.5-2.8,3.9-6.2,4.8-9.8
		c-0.3-0.2-0.9-0.6-1.2-0.8C219.1,250.5,216,252.3,212.8,253.7 M51.7,253.3c4.2,5.4,4.5,13.1,10,17.6c6.1,5.2,12.9,9.9,20.5,12.6
		c-2.6-3.7-6.4-6.4-9.5-9.6C67.8,269,63,263.7,60.8,257C60,253,54.8,253.9,51.7,253.3 M102.3,269.5c1.6,1.4,3.3,2.7,4.9,4.1
		c19.5,0.2,39-0.5,58.5-0.5c3.1,0.1,4.9-2.9,7.2-4.6C149.4,268.9,125.8,269.6,102.3,269.5 M108.6,274.8c2.6,1.4,4.9,4,8,3.7
		c14.7-0.1,29.4-0.1,44.1-0.9c2.1-0.8,3.8-2.3,5.6-3.5C147.1,274.3,127.9,274.8,108.6,274.8 M94.3,274.1c0.1,2.7-0.4,5.7,1.2,8.1
		c1.2,1.8,3,3,4.5,4.5c4.7,4.2,7.7,9.9,12.7,13.8c-1.3-4.7-2.6-9.4-4.9-13.7c-1.7-3.4-5.3-5-8.1-7.1C97.5,278.2,96,276.1,94.3,274.1
		 M81.6,278.7c1.5,3.7,2.6,7.6,3.8,11.4c1.2,4.2,5.2,6.7,8.8,8.5c7.5,3.6,15.7,5.2,23.7,7c-3.1-1.8-6.2-3.6-8.7-6.2
		c-4.9-5-8.5-11.5-14.8-15.1C90.3,282.1,86,280.2,81.6,278.7 M117,279.6c12.9,6.4,28.9,6.2,41.5-0.8
		C144.7,279.1,130.9,279.6,117,279.6 M171.1,283.8c-1.8,1.4-3.7,2.6-5.6,3.9c-0.3,2.7-1.1,5.4-2.9,7.5c-0.6,3.1-1.9,6-3.6,8.7
		c2-1.2,4.2-2.2,5.8-3.9c1.2-1.7,1.8-3.7,2.6-5.6c1.2-0.2,2.4-0.4,3.6-0.5c0.6-1.8,0.7-4.1,2.5-5.1c1.4-1,3.2-0.2,4.7-0.2
		c0.5-1.1,1.1-2.2,1.6-3.3c-0.2-2.2-0.3-4.3-0.6-6.4C176.6,280.7,174.5,283.4,171.1,283.8 M180.9,283.4c1.4,0.3,1.8-0.2,1.4-1.6
		C180.9,281.5,180.5,282,180.9,283.4 M180,288.1c-0.4,1.1-0.9,2.2-1.3,3.3c-1.2-0.7-2.4-1.4-3.6-2.2c-1.9,1.5-2.5,3.9-3,6.2
		c-1.2,0.1-2.4,0.1-3.6,0.2c-1,2.3-1.7,4.9-3.8,6.4c-4,3.5-9.5,4.1-14.4,5.7c4.3-0.1,8.7-0.1,12.9-1.2c4.3-1.6,8.4-4.1,12.9-5
		c0.7,1.2,1.3,2.3,2,3.5c3.3-0.5,3-3.9,4.5-6.2c2.1,0,4.3,1.7,6.3,0.6c0.7-2.5,1.5-5,3.6-6.8c0.1-2.8,2.1-4.8,4-6.6
		c-0.2-0.8-0.6-2.5-0.9-3.3C190.6,284.7,185.6,287.6,180,288.1 M127.7,291.8c-3,0.2-6-0.1-9-0.1c-0.1,3.3-0.2,6.6-0.2,10
		c3.6,1.6,7,3.6,10.1,5.9c0.9-1,1.7-1.9,2.6-2.9c-3.1-3.4-6.3-6.8-9.7-10c0.3-0.3,0.8-0.8,1.1-1.1c1.8,1.8,3.6,3.6,5.4,5.4
		c2.4-1.2,4.9-2.6,7.7-2.6c3.6,0,7,1.2,10.3,2.4c2.6-1.3,5-2.9,7.6-4.1c-1.2,2.6-3.8,3.8-6.2,5.1c-1.9,0.9-2.7,3-3.9,4.7
		c1.1,0.8,2.2,1.7,3.4,2.5c3.2-2.8,6.3-5.8,9.6-8.5c0.4-2.3,0.1-4.6,0.1-6.9c-3.3-0.4-6.7-0.1-10,0c-3.5,0.3-6.6-2-9.9-2.4
		C133.6,289.9,130.8,291.6,127.7,291.8 M75.3,296c6.9,3.5,12.7,9,20,11.6c10.1,4,21.1,1.7,31.7,1.3c-7.7-1.7-15.6-2.7-23.2-5
		c-7-2.1-14.4-4.8-19.2-10.7C81.4,293.6,78.2,294.6,75.3,296 M129.1,300.3c0.9,1.1,1.8,2.1,2.8,3.2c3.6-0.2,7.3-0.8,10.9,0.1
		c0.6-1.2,1.3-2.4,1.9-3.5C139.7,298,133.8,297.1,129.1,300.3 M183.3,300.6c-0.4,1.9-0.3,4.6-2.7,5.2c-2.4,1.3-4.4-0.8-5.8-2.4
		c-4.2,1.5-8.1,3.9-12.4,5.1c-4.6,0.8-9.2,0.5-13.8,1.4c5.4,0.5,10.8,1.1,16.2,2.2c5.5-0.5,11.1-0.9,16.5,0.9
		c2.4-1.7,4.1-4.1,5.6-6.6c1.3,0.2,2.5,0.6,3.8,0.9c2-2,4.6-3.3,7.3-4.2c-2.7-0.5-5.3-1.1-8-1.6
		C187.6,301.4,185.4,301.1,183.3,300.6 M134.2,304.5c-1.2,0.9-2.4,1.8-3.5,2.7c0.8,2.7,1.6,5.5,3.6,7.7c2.4-0.3,4.9-0.2,7.4-0.2
		c1.9-1.9,2.6-4.6,3.6-7c-1.7-1.3-3.5-2.5-5.3-3.6C138.1,304.8,136.1,305,134.2,304.5 M144,311.9c5.6,2.4,11.8,2.2,17.8,2.2
		c0-0.3,0.1-0.9,0.1-1.2c-4.3-1-8.7-1-13.1-1.5C147.2,311.1,145.6,311.2,144,311.9 M111.3,313.6c1.4,2.4,3.1,4.6,5.4,6.2
		c3.4-2,7.5-1.6,11.2-2.7c1.8-0.9,4-2.7,3-5C124.5,314,117.9,313.6,111.3,313.6 M143.2,313.8c0.7,1.7,1.4,3.7,3.3,4.4
		c3.8,1.2,8.1,0.3,11.4,2.8c2.1-1.5,4.1-3.3,5.7-5.4C156.8,315.3,150,315.2,143.2,313.8 M97.4,318.1c1.7,1,3.5,1.8,5,3.1
		c-0.4,1.1-0.9,2.1-1.5,3.2c6.5,0.3,13.5,1.6,19.5-1.7c-2.7-1.3-5.4-2.8-7.8-4.7C107.6,319.2,102.5,318.8,97.4,318.1 M161.7,319.8
		c-2.5,1.6-5.3,2.8-8.1,3.9c6.9,2.2,14.1-0.2,21.1,1.1c-1.4-2-2.8-4.2-0.4-6.1C170.1,319,165.9,319.7,161.7,319.8L161.7,319.8z"/>
	<path class="st1" d="M137.2,62c8.5,9.5,21.5,12.6,32.7,17.9c7.4,3.8,14.7,8.3,20.1,14.8c5.6,6.7,8.4,15.2,14.2,21.7
		c2.2,2.6,5.1,4.5,7.9,6.5c-5.9,2.5-12.6,3.5-17.5,7.9c-2.4,2.1-5.1,3.7-8,5c-7.9-12.4-18.8-23.7-32.9-28.8c-12.6-4.7-27-3.4-38.8,3
		c-11.2,5.8-19.9,15.4-26.7,25.8c-4.6-2.7-7.5-7.5-12.2-10.1c-3.3-1.9-6.7-3.5-9.9-5.6c9.8-6.9,13.8-18.7,21.6-27.4
		c5.7-6.6,12.9-11.8,20.9-15.1C118.5,73.5,130.1,70.8,137.2,62 M135.9,68.6c0.1,0.5,0.3,1.6,0.4,2.1c1.3-0.6,2.5-1.1,3.8-1.7
		C138.7,68.8,137.3,68.7,135.9,68.6 M135.7,87.4c1.1,1,2.3,1.8,3.5,2.7c-1.3,3.8-5.7,6.5-9.7,5.1c-3.5-3.2-0.6-8.2-0.1-12.1
		c-2.1,4.1-3,9-2.1,13.6c0.8,3.2,4.9,3.7,7.4,2.2c3.8-2.5,5.5-7.4,4.8-11.7c-1-1.7-2.3-3.1-2.8-5.1c3.8,0.3,4.4-3.1,4.4-6
		c-0.7,0.5-2.1,1.4-2.8,1.9c-0.3-2.1-0.6-4.2-0.8-6.3C136.9,76.9,136.4,82.2,135.7,87.4 M119.4,77.6c-0.5,4.9,1.2,9.6,2.7,14.2
		C122.3,87,120.7,82.3,119.4,77.6 M105,85.6c0.3,4.8,2.2,9.2,4.3,13.4C108.9,94.3,107,89.9,105,85.6 M170.8,88.7
		c0.4,0.5,1.2,1.5,1.6,2c1.9-0.8,3.1-2.3,2.8-4.6C173.7,86.9,172.3,87.8,170.8,88.7 M114.6,93.8c-0.1,3-1.7,5.5-2.8,8.2
		c1.2-1.2,3.4-2,3.4-4c0.2-3.6,1.5-7,1.7-10.6C115.7,89.3,114.7,91.4,114.6,93.8 M141.7,94.8c1.7,2.5,4.5,3.8,7.2,5
		c5.8,2.5,12.7,4.1,18.6,1c-1.3,2.5-3.8,4.9-3.4,7.9c2,1.6,3.8-0.8,5.5-1.6c-0.5-0.3-1.6-1-2.1-1.3c-0.3-4.7,4.2-8,6.8-11.5
		c5.5,0.4,10.9,1.7,16.4,2.5c-3.6-2.9-8.5-2.7-12.9-3.2c-4.9-0.9-7.3,4.4-10.7,6.8c-8.5,0-18.2-2.4-23.6-9.4
		C142.8,92.3,142.1,93.5,141.7,94.8 M99.1,92c0.7,3.8,3.8,6.6,4.7,10.2c0.1,4.3-3.8,9-8.4,8.2c-2.6-1.9-2.9-5.3-4.1-8.1
		c0.7,3.3,1.3,6.9,3.4,9.6c1.1,1.5,3,2.7,4.8,2.1c3.5-0.9,5.6-4.7,5.5-8.1C105,100.7,102.6,95.8,99.1,92 M120.8,99.5
		c-1.2-0.1-2.4-0.3-3.6-0.4c-0.1,1.4-0.2,2.7-0.4,4.1c1,0.1,2,0.1,3,0.2c0.1-0.7,0.4-2.2,0.6-2.9c0.8,0.2,2.4,0.6,3.2,0.7
		c0.2-0.9,0.6-2.6,0.8-3.4c-0.7-0.4-2.1-1.1-2.8-1.4C121.4,97.2,121,98.7,120.8,99.5 M174.4,111.4c1.8-0.1,3.4-0.8,5-1.4
		c-0.8-1-1.5-2-2.3-2.9c1.8-3.3,4.1-6.3,6-9.5C179.2,101.2,174.8,105.7,174.4,111.4 M95.8,100.3c0,1.3,0,2.6,0.1,3.9
		c1.1,0,2.2,0.1,3.3,0.1c0-1.3,0-2.7-0.1-4C98,100.3,96.9,100.2,95.8,100.3 M172.1,117c1.1-0.5,2.2-1,3.3-1.7c0-1.1-0.1-2.2-0.2-3.3
		C173.3,113.2,170.5,114.2,172.1,117L172.1,117z"/>
	<path class="st2" d="M135.9,68.6c1.4,0.1,2.8,0.2,4.2,0.3c-1.3,0.6-2.5,1.2-3.8,1.7C136.2,70.2,136,69.1,135.9,68.6 M135.7,87.4
		c0.7-5.2,1.3-10.5,1.8-15.8c0.3,2.1,0.5,4.2,0.8,6.3c0.7-0.5,2.1-1.4,2.8-1.9c0,2.9-0.7,6.3-4.4,6c0.4,1.9,1.8,3.4,2.8,5.1
		c0.7,4.4-1,9.3-4.8,11.7c-2.4,1.6-6.6,1-7.4-2.2c-0.9-4.5,0-9.5,2.1-13.6c-0.5,3.9-3.4,8.9,0.1,12.1c4,1.4,8.3-1.4,9.7-5.1
		C138,89.2,136.8,88.4,135.7,87.4 M119.4,77.6c1.4,4.6,2.9,9.3,2.7,14.2C120.6,87.3,118.9,82.6,119.4,77.6 M105,85.6
		c2,4.3,3.9,8.6,4.3,13.4C107.2,94.8,105.3,90.4,105,85.6 M170.8,88.7c1.4-0.9,2.9-1.8,4.4-2.6c0.3,2.2-0.8,3.7-2.8,4.6
		C172,90.2,171.2,89.2,170.8,88.7 M114.6,93.8c0.1-2.3,1.1-4.5,2.3-6.4c-0.1,3.6-1.4,7-1.7,10.6c0,2-2.2,2.8-3.4,4
		C112.9,99.3,114.5,96.7,114.6,93.8 M141.7,94.8c0.4-1.3,1.1-2.5,1.7-3.8c5.4,7,15.1,9.4,23.6,9.4c3.4-2.4,5.9-7.7,10.7-6.8
		c4.4,0.5,9.3,0.3,12.9,3.2c-5.5-0.8-10.9-2.1-16.4-2.5c-2.6,3.5-7.1,6.8-6.8,11.5c0.5,0.3,1.6,1,2.1,1.3c-1.8,0.8-3.5,3.2-5.5,1.6
		c-0.4-3.1,2.2-5.4,3.4-7.9c-5.9,3.1-12.8,1.5-18.6-1C146.3,98.5,143.4,97.3,141.7,94.8 M99.1,92c3.5,3.8,5.9,8.8,6,14
		c0.1,3.5-2,7.2-5.5,8.1c-1.9,0.6-3.8-0.6-4.8-2.1c-2.1-2.8-2.7-6.3-3.4-9.6c1.2,2.7,1.6,6.2,4.1,8.1c4.6,0.8,8.5-3.9,8.4-8.2
		C102.9,98.5,99.8,95.8,99.1,92 M120.8,99.5c0.2-0.8,0.6-2.3,0.8-3.1c0.7,0.4,2.1,1.1,2.8,1.4c-0.2,0.9-0.6,2.6-0.8,3.4
		c-0.8-0.2-2.4-0.6-3.2-0.7c-0.2,0.7-0.4,2.2-0.6,2.9c-1-0.1-2-0.1-3-0.2c0.1-1.4,0.2-2.7,0.4-4.1C118.4,99.3,119.6,99.4,120.8,99.5
		 M174.4,111.4c0.4-5.7,4.8-10.2,8.8-13.9c-2,3.2-4.3,6.2-6,9.5c0.8,1,1.5,2,2.3,2.9C177.8,110.6,176.2,111.3,174.4,111.4
		 M95.8,100.3c1.1,0,2.2,0,3.3,0c0,1.3,0.1,2.7,0.1,4c-1.1,0-2.2-0.1-3.3-0.1C95.8,102.9,95.8,101.6,95.8,100.3 M172.1,117
		c-1.6-2.7,1.2-3.8,3-5c0.1,1.1,0.3,2.2,0.2,3.3C174.3,115.9,173.2,116.4,172.1,117 M125.6,149.9c1.3,2.6,2.5,6.5,6,6.5
		c2.6,0.5,4.2-1.9,5.9-3.4c1.4,1.6,2.7,3.9,5.2,3.5c3.2-0.2,4.2-3.6,5.7-5.8c1,3.1,0.5,7.4-2.9,8.8c-2.7,1.4-5.7,0.1-8.4-0.8
		c-4,1.8-8.9,1.9-11.9-1.8C125.3,154.6,125.4,152.3,125.6,149.9 M132,163.9c1.6-1.7,3.6-3.1,5.4-4.6c1.6,1.6,3.8,2.8,5,4.8
		c0.2,16.2-0.6,32.4-0.5,48.5c14.8-12,17.4-35.6,6.6-51.1c5.6,4.1,9.7,10.1,12,16.6c3.4,9.6,2,20.6-3.3,29.2
		c-2.9,5-7.1,8.9-11.5,12.5c5,2.1,10.4,2.5,15.8,2.6c-6.5,3.8-14.2,2.4-21.3,2.6c-0.9,1.6-1.8,3.3-2.8,4.9c-1.2-1.6-2.3-3.5-3.8-4.9
		c-6.8-0.8-15.1,1.6-20.6-3.7c5.2,0.4,10.7,0.8,15.6-1.5c-6.1-5.8-12.2-12-14.7-20.3c-5.1-13.4,0-29.9,12-37.9
		c-11.6,15-8.9,39.3,6.7,50.6C132.6,196.2,131.7,180.1,132,163.9 M100.7,178.8c4.5-8.6,12.8-15,21.9-18c-7.1,7-14.5,14.7-16.6,24.8
		c-2.7,11.3,1.7,22.4,5.6,32.7C99.5,209.8,93.9,192.3,100.7,178.8 M152.6,161c9,3.3,17.1,10,21.2,18.8c6.4,13.6,0.2,31.1-12.3,38.9
		c2.6-6.6,5.9-13.1,6.8-20.3c1.6-8.6-0.6-17.6-5.3-24.9C160.2,168.8,156.1,165.2,152.6,161L152.6,161z"/>
	<path class="st3" d="M211,133.7c2.8-1.4,4-4.2,4.8-7c0.8,1.7,1.5,3.5,2.3,5.2c0.8,2.1,3,2.8,4.4,4.4c1.4,2.4,0.3,5.1,0.2,7.7
		c0.7,2.1,1.8,3.9,2.8,5.9c-1.1,2.4-2.3,4.8-3.8,7.1c-0.2,1.2-0.3,2.4-0.5,3.6c-0.8,0.4-1.6,0.9-2.4,1.3c0-5.8,2.6-12.5-1.5-17.5
		c0.2-1.8,1.6-3.8,0.5-5.5C215.8,136.9,212.4,136.5,211,133.7 M51.5,151.9c0.1-8.5,3.6-16.4,7.2-23.9c1.3,1.8,3.3,3.4,3.4,5.9
		c0,4.6-2.8,8.5-3.7,12.8c-1.5,5.9-0.8,12-1.8,17.9C52.9,161.5,51.4,156.6,51.5,151.9 M193.4,137.7c4.1,0.1,8.1,1.3,11.2,4.1
		c-0.6,0.6-1.7,1.8-2.2,2.5c0.7,3,2.5,5.4,5.5,6.2c0.4,6.2,7.7,8.4,8.6,14.5c-2.6-2.2-5.2-4.7-8.7-5.2c-2.8-0.1-4-2.8-5.3-4.8
		c-2.4-1.5-4.3-3.5-6-5.8c0.5-1,1-1.9,1.5-2.9C196.2,143.6,194.8,140.6,193.4,137.7 M72.8,145.1c2-2.5,5.4-3.1,8.4-3.9
		c-2.9,6.2-5.5,12.9-10.5,17.8c-2.3,2.2-5.2,3.6-8,5.1c2.9-4.2,6.3-8.2,7.9-13.1C71.3,149,71.7,146.9,72.8,145.1 M225.8,174.1
		c2.2-2.2,4.1-4.7,6-7.2c1.1,2.8,1.9,5.7,2.5,8.7c-0.7,1.4-1.4,2.8-1.9,4.3c0.8,2.1,2.3,3.9,2.9,6.1c0.1,1.5-1.5,2.2-2.3,3.4
		c-1.5,1.4-1.7,3.5-2.7,5.2c-2.6,1.7-5.3,3.2-7.7,5.3c1.2-3.8,3.1-7.3,4.7-11c1.2-2.2-0.3-4.6-0.8-6.8c0.5-1.4,1-2.8,1.3-4.2
		C227.3,176.5,226.6,175.3,225.8,174.1 M43.2,168.2c1.6,2.2,3.6,4.4,4.6,7c0.4,3.1,0,6.3,0.4,9.4c0.7,5.9,3.7,11.1,4.7,16.9
		c-5.9-4.4-9.6-11.4-10.5-18.7C41.8,178,42.6,173.1,43.2,168.2 M207.5,169.3c2.7,2.3,5.5,4.6,8.5,6.6c-1.1,0.8-2.1,1.5-3.1,2.4
		c-0.5,3.1,1.2,5.9,2.4,8.7c-0.6,1.3-1.3,2.6-1.8,4c1.1,2.4,3.5,4.2,3.5,7c0.2,3.5,0,7-0.4,10.4c-1.2-3.9-3.1-7.5-5.4-10.9
		c-1.4-2-0.9-4.6-1.1-6.9c-1-0.7-2-1.3-2.9-2c0.8-2,1.1-4.1,0.6-6.2c0.4-0.7,0.9-1.4,1.4-2.1C209.2,176.5,208.5,172.9,207.5,169.3
		 M61.3,177.9c0-3.9,3.9-5.5,6.5-7.5c0.6,4.9,1.4,10.1-0.7,14.9c-2.7,6.6-5.6,13.2-7.9,20C56.2,196.2,60.1,186.9,61.3,177.9
		 M62.9,210.9c-0.4-2.9,1.9-5.1,3.4-7.3c0,4.7,1.9,9.1,3,13.6c1.2,8.3-1.7,16.5-4.4,24.1c-0.8-6.1-0.5-12.3-0.2-18.4
		C65,218.8,63.5,214.9,62.9,210.9 M206.4,212.5c3.6-1.1,2.6-5.1,4.2-7.6c2.6,1.9,4,4.7,4.7,7.8c-2.2,1.6-4.2,3.5-6,5.6
		c0.6,1.1,1.2,2.1,1.8,3.2c-0.9,0.5-1.8,1.1-2.6,1.6c0.1,5.3,2.6,10.4,2.3,15.7c-1.7,3.6-3.4,7.4-6.6,9.9c2.7-4.2,5.3-8.8,4.8-13.9
		c-0.7-3.9-3-7.3-4.6-10.9c1.1-2.3,2.6-4.3,4.1-6.4C209.5,215.6,207.1,214.1,206.4,212.5 M40.8,208.8c3.1,1.2,8.6,1.6,8.1,6.1
		c0.9,10.7,8.4,19,13.9,27.7c-6.4-3.2-11.3-8.6-15.4-14.3C43,222.7,43.5,215.1,40.8,208.8 M230.5,212.9c1.6-0.6,3.2-1.1,4.8-1.7
		c-0.3,3.1-0.7,6.2-2.2,8.9c0.3,0.5,0.9,1.6,1.2,2.1c-1.8,1-3.6,2-5.3,3.1c1.4,2.5,2.6,5.3,2,8.2c-2.2,0.4-4.5,0.7-6.1,2.4
		c-1.9,1.9-4.7,2-7.2,2.6c1.1-3.3,3.7-5.5,6.4-7.4c2.5-1.4,1.1-4.3,0.8-6.4c1.3-0.9,2.6-1.8,3.9-2.7
		C229.3,219,229.9,216,230.5,212.9 M73.9,250.8c-0.5-3.3,1.9-6.1,3.3-8.9c1.5,4.9,2.9,9.9,5.4,14.4c3.6,6.6,3.8,14.4,2.8,21.7
		c-1.7-0.5-3.3-0.9-5-1.5c-1.1-4.9-1.8-9.9-2.6-14.9C77.1,257.8,74.9,254.5,73.9,250.8 M192.9,256c-0.7-5.4,3.9-8.9,4.8-13.9
		c1.5,2,3.3,3.9,4.7,6c0.2,1.4-0.9,2.5-1.4,3.7c-1.6,0.2-3.3,0.2-4.9,0.7c-1.4,2.2-2.4,4.7-3.8,6.9c0.6,1.1,1.2,2.2,1.9,3.3
		c-3.5,4.2-2.4,10.6-6.8,14.4c0.7-3,1.8-6,2-9.1c-0.1-2.3-1.4-4.3-2.2-6.4C188.8,259.4,190.9,257.7,192.9,256 M212.8,253.7
		c3.2-1.4,6.3-3.2,9.8-3.7c0.3,0.2,0.9,0.6,1.2,0.8c-0.8,3.6-2.3,7.1-4.8,9.8c-1.2-0.1-2.5-0.2-3.7-0.1c-1.7,2.1-0.6,4.8-0.4,7.2
		c-1.1,2-2.3,3.9-3.3,5.9c-6.8-1.1-13.5,2.3-18,7.2c-2.1,2.4-5.1,3.4-8,4.4c4.8-5.9,11.9-9.1,17-14.6c1.7-1.3,0.4-3.6,0.6-5.4
		c2.7-0.2,5.9,0.9,8.1-0.8C212.5,260.9,212.3,257.2,212.8,253.7 M51.7,253.3c3.1,0.6,8.2-0.3,9.1,3.7c2.2,6.7,7,12,11.9,16.9
		c3.1,3.2,6.9,5.9,9.5,9.6c-7.6-2.7-14.4-7.4-20.5-12.6C56.2,266.4,56,258.7,51.7,253.3 M94.3,274.1c1.7,2,3.2,4.1,5.4,5.6
		c2.9,2.2,6.5,3.7,8.1,7.1c2.3,4.3,3.6,9,4.9,13.7c-5-3.9-8-9.7-12.7-13.8c-1.5-1.4-3.3-2.7-4.5-4.5
		C93.9,279.8,94.4,276.8,94.3,274.1 M171.1,283.8c3.4-0.4,5.5-3.1,8.1-5c0.3,2.1,0.4,4.3,0.6,6.4c-0.6,1.1-1.1,2.2-1.6,3.3
		c-1.6,0-3.3-0.8-4.7,0.2c-1.8,1-1.8,3.4-2.5,5.1c-1.2,0.2-2.4,0.4-3.6,0.5c-0.8,1.9-1.4,3.9-2.6,5.6c-1.6,1.7-3.8,2.7-5.8,3.9
		c1.7-2.7,3-5.6,3.6-8.7c1.8-2.1,2.6-4.8,2.9-7.5C167.4,286.5,169.2,285.2,171.1,283.8 M75.3,296c3-1.3,6.1-2.3,9.4-2.8
		c4.8,5.9,12.1,8.6,19.2,10.7c7.6,2.4,15.5,3.3,23.2,5c-10.5,0.4-21.5,2.7-31.7-1.3C87.9,305,82.1,299.5,75.3,296 M183.3,300.6
		c2.2,0.5,4.4,0.9,6.6,0.8c2.6,0.6,5.3,1.1,8,1.6c-2.7,0.9-5.2,2.2-7.3,4.2c-1.2-0.3-2.5-0.7-3.8-0.9c-1.5,2.5-3.2,4.9-5.6,6.6
		c-5.4-1.7-11-1.4-16.5-0.9c-5.3-1.2-10.7-1.7-16.2-2.2c4.6-0.8,9.2-0.6,13.8-1.4c4.3-1.2,8.2-3.5,12.4-5.1c1.5,1.6,3.4,3.7,5.8,2.4
		C183,305.2,182.9,302.5,183.3,300.6L183.3,300.6z"/>
	<path class="st4" d="M202.6,129.1c1.9,1.6,4.2,2.7,6.3,4c0.8,1.1,1.2,2.5,1.9,3.6c1.9,1.2,4,2.1,5.9,3.1c-1,2.8-2.3,6.1,0.9,8.1
		c0.4,4.7-0.3,9.3-0.3,13.9c-1.9-3.2-4.8-5.6-7.4-8.2c-0.2-1.4-0.4-2.8-0.7-4.1c-2.1-1.2-4.5-2.1-5.5-4.5c0.8-1,1.7-2,2.5-3
		c-1.2-1.2-2.3-2.3-3.6-3.5C203.2,135.3,203.1,132.2,202.6,129.1 M62.6,139.8c2.2-4.2,6.1-7.1,9.7-10.1c-2.3,7.4-0.5,15.6-4,22.8
		c-1.8,3.9-4.6,7.3-7.2,10.8c-0.8-1.3-1.6-2.5-2.5-3.8C58.9,152.8,59.2,145.8,62.6,139.8 M220,163.1c1.8-2.3,4.1,0.8,4.4,2.7
		c0.1,4.2-1.3,8.9,2,12.3c-2.2,2.8-1.3,6,0.2,8.9c-1.7,3.6-3.8,7.1-4.8,11c-0.7,2.7-1.8,5.3-3.3,7.8c-0.2-3.4,0.3-7-0.4-10.4
		c-0.7-1.7-2.1-3-3.3-4.5c0.6-1.3,1.6-2.5,1.9-3.9c-0.9-2.6-2.1-5.2-2.8-7.8c1.3-0.9,2.8-1.7,3.9-3c-1.1-1.3-2.3-2.4-3.5-3.6
		C216.8,169.8,218.4,166.5,220,163.1 M49.7,177c1.1-5.9,6-9.7,9.4-14.2c3.7,12.3-2.9,24.3-2.6,36.6c-1.1-1.1-2.3-2.2-3.5-3.3
		C51,190,48.6,183.6,49.7,177 M50.7,217c-1.4-6.2,2.8-11.7,3.9-17.6c3.8,6.7,8.3,13.5,8.5,21.6c-0.1,6.2-0.6,12.4-0.1,18.5
		C57.6,232.8,52.5,225.4,50.7,217 M216.2,209.9c2.9-1.8,5.6-4.1,8.5-5.9c0.3,3.2,1.5,6.2,4.1,8.1c-0.4,3.1-0.6,6.3-1.8,9.2
		c-1.2,1-2.5,1.8-3.6,2.8c0,1.7,0.4,3.3,0.5,5c-1.4,2-3.9,2.8-5.4,4.7c-2.6,4.7-4.9,10.5-10.1,12.9c1.1-2.8,3.3-5,4-7.9
		c-0.2-5-1.7-9.9-2.5-14.8c1.2-0.6,2.4-1.2,3.6-1.8c-0.9-1.2-1.8-2.3-2.6-3.5c1.8-1.8,3.8-3.3,5.8-4.9
		C216.6,212.4,216.4,211.1,216.2,209.9 M63.9,241.7c5.2,5.8,10.6,11.9,12.2,19.8c0.9,5.5,1.6,11.1,3.1,16.5
		c-6-5.5-12.3-11.2-15.9-18.6C60.5,253.7,63.9,247.6,63.9,241.7 M207.9,248.2c3-0.8,5.6-2.7,8.1-4.4c0,2.3-0.1,4.6-0.2,6.9
		c-1.5,0.9-4,0.9-4.4,2.9c-0.8,3.3-0.7,6.6-1.2,9.9c-2.8,0.2-5.7-0.6-8.3,0.6c-0.5,1.6-0.3,3.4-0.3,5c-2.8,2.8-5.7,5.4-9,7.5
		c-4.4,2.8-7.3,7.3-11.7,10c2.6-4.2,6.7-7.1,9.4-11.2c3.2-3.8,1.8-9.5,5.8-12.8c-0.7-1.1-1.4-2.2-2.1-3.2c1.1-1.9,2-3.8,2.8-5.8
		c1.4-0.2,2.8-0.2,4.2-0.6C203.3,251.5,205.1,249,207.9,248.2 M81.6,278.7c4.4,1.5,8.7,3.4,12.8,5.6c6.2,3.6,9.9,10,14.8,15.1
		c2.5,2.6,5.6,4.4,8.7,6.2c-8-1.8-16.2-3.4-23.7-7c-3.7-1.9-7.6-4.3-8.8-8.5C84.1,286.3,83.1,282.4,81.6,278.7 M180.9,283.4
		c-0.4-1.4,0.1-1.9,1.4-1.6C182.7,283.2,182.2,283.8,180.9,283.4 M180,288.1c5.6-0.5,10.6-3.3,15.7-5.4c0.2,0.8,0.6,2.5,0.9,3.3
		c-2,1.8-3.9,3.8-4,6.6c-2.1,1.8-2.8,4.3-3.6,6.8c-2,1.1-4.2-0.6-6.3-0.6c-1.4,2.2-1.1,5.7-4.5,6.2c-0.7-1.1-1.3-2.3-2-3.5
		c-4.6,0.9-8.6,3.4-12.9,5c-4.2,1.1-8.6,1-12.9,1.2c4.9-1.6,10.4-2.2,14.4-5.7c2.1-1.6,2.7-4.2,3.8-6.4c1.2-0.1,2.4-0.1,3.6-0.2
		c0.5-2.3,1.1-4.6,3-6.2c1.2,0.7,2.4,1.4,3.6,2.2C179.2,290.3,179.6,289.2,180,288.1 M127.7,291.8c3.2-0.2,6-1.9,9.1-2.5
		c3.4,0.5,6.4,2.7,9.9,2.4c3.3-0.1,6.7-0.4,10,0c0.1,2.3,0.4,4.6-0.1,6.9c-3.3,2.7-6.4,5.7-9.6,8.5c-1.1-0.8-2.2-1.7-3.4-2.5
		c1.2-1.6,1.9-3.8,3.9-4.7c2.4-1.3,5-2.5,6.2-5.1c-2.6,1.2-5.1,2.8-7.6,4.1c-3.3-1.2-6.8-2.4-10.3-2.4c-2.8,0-5.2,1.4-7.7,2.6
		c-1.8-1.8-3.6-3.6-5.4-5.4c-0.3,0.3-0.8,0.8-1.1,1.1c3.4,3.2,6.5,6.5,9.7,10c-0.9,1-1.7,1.9-2.6,2.9c-3.1-2.3-6.6-4.3-10.1-5.9
		c0-3.3,0.1-6.7,0.2-10C121.6,291.8,124.6,292,127.7,291.8 M134.2,304.5c1.9,0.5,3.9,0.3,5.8-0.4c1.8,1.2,3.5,2.4,5.3,3.6
		c-1,2.4-1.7,5.1-3.6,7c-2.5,0-4.9-0.2-7.4,0.2c-1.9-2.2-2.8-5-3.6-7.7C131.8,306.3,133,305.4,134.2,304.5 M111.3,313.6
		c6.5,0,13.2,0.4,19.5-1.5c1,2.3-1.2,4.1-3,5c-3.7,1.1-7.8,0.7-11.2,2.7C114.4,318.2,112.7,316,111.3,313.6 M143.2,313.8
		c6.8,1.4,13.6,1.5,20.4,1.8c-1.6,2.1-3.6,3.8-5.7,5.4c-3.3-2.5-7.7-1.6-11.4-2.8C144.6,317.5,144,315.4,143.2,313.8 M97.4,318.1
		c5,0.7,10.2,1.1,15.2,0c2.4,1.9,5.1,3.4,7.8,4.7c-6,3.3-13,2-19.5,1.7c0.5-1.1,1-2.1,1.5-3.2C100.9,319.9,99.1,319,97.4,318.1
		 M161.7,319.8c4.2-0.1,8.4-0.8,12.6-1.1c-2.4,1.9-1,4.1,0.4,6.1c-7-1.4-14.2,1-21.1-1.1C156.4,322.6,159.1,321.4,161.7,319.8
		L161.7,319.8z"/>
</g>
</svg>
