<?xml version="1.0" encoding="utf-8"?>
<!-- Generator: Adobe Illustrator 24.3.0, SVG Export Plug-In . SVG Version: 6.00 Build 0)  -->
<svg version="1.0" id="Layer_1" xmlns="http://www.w3.org/2000/svg" xmlns:xlink="http://www.w3.org/1999/xlink" x="0px" y="0px"
	 viewBox="0 0 258.5 354.3" style="enable-background:new 0 0 258.5 354.3;" xml:space="preserve">
<style type="text/css">
	.st0{fill-rule:evenodd;clip-rule:evenodd;fill:#050008;}
	.st1{fill-rule:evenodd;clip-rule:evenodd;fill:#981210;}
</style>
<g>
	<path class="st0" d="M121,94.4c-1.8-12.5-4-16.5-11.5-27.1c10-14.8,15.7-35.3,19.7-52.6c4.1,17.5,9.5,37.6,19.7,52.6
		c-7.5,10.6-9.6,14.6-11.5,27.1C132.4,89.7,126.1,89.7,121,94.4L121,94.4z"/>
	<path class="st1" d="M117.3,218.6v-60.2c-29.4-12-33.4-30.7-33.4-57.8c11.9,4.8,16.2,10.1,21.6,18.8c1.5-8,3.4-13.9,7.8-20.4
		c14.2,14.5,13.6,56.9,13.6,63.4c0,22.3,0,44.6,0,66.9H26.4c0-50.1,0-100.2,0-150.2c0-14.5,3.1-37.8,21.1-41.1l4.7,6.4
		c-17.3,6.1-16.4,28.9-16.4,44.1v130H117.3L117.3,218.6z"/>
	<path class="st0" d="M92.4,99.1c-9-12.2-15.5-3.9-15.2,12.4c-5.9-47.5-17-71.6-42.2-92c32.9,6.1,59,29,77.5,73.7
		C105,89.6,94.3,89.1,92.4,99.1L92.4,99.1z"/>
	<path class="st0" d="M81.7,36.7c0.4-8.7,4.3-20.9,0.8-27c-3.3-5.7-10.2-3-13.2-0.2C61,7.3,55,15.3,59.7,21.2
		C65,27.9,73.1,28.1,81.7,36.7L81.7,36.7z"/>
	<path class="st1" d="M115.1,41.6L104.4,64c-6-9.7-10.6-15.6-18.3-23.3c3.1-8.8,5.6-19.3,5.8-28.3C98.3,22.8,106,32.9,115.1,41.6
		L115.1,41.6z"/>
	<path class="st0" d="M115.9,34.6c-3.6-7.2-13.3-14.9-17.2-22.5c-2.2-4.3-0.6-11.3,10.3-9.5c2.4-4.1,10.8-3.2,12.6,1.8
		C125.2,14,119.2,26.7,115.9,34.6L115.9,34.6z"/>
	<path class="st1" d="M141.2,218.6v-60.2c29.4-12,33.4-30.7,33.4-57.8c-11.9,4.8-16.2,10.1-21.6,18.8c-1.5-8-3.4-13.9-7.8-20.4
		c-14.2,14.5-13.6,56.9-13.6,63.4c0,22.3,0,44.6,0,66.9h100.6c0-50.1,0-100.2,0-150.2c0-14.5-3.1-37.8-21.1-41.1l-4.7,6.4
		c17.3,6.1,16.4,28.9,16.4,44.1v130H141.2L141.2,218.6z"/>
	<path class="st0" d="M166,99.1c9-12.2,15.5-3.9,15.2,12.4c5.9-47.5,17-71.6,42.2-92c-32.9,6.1-59,29-77.5,73.7
		C153.5,89.6,164.2,89.1,166,99.1L166,99.1z"/>
	<path class="st0" d="M176.7,36.7c-0.4-8.7-4.3-20.9-0.8-27c3.3-5.7,10.2-3,13.2-0.2c8.4-2.2,14.3,5.8,9.7,11.7
		C193.4,27.9,185.4,28.1,176.7,36.7L176.7,36.7z"/>
	<path class="st1" d="M143.4,41.6L154.1,64c6-9.7,10.6-15.6,18.3-23.3c-3.1-8.8-5.6-19.3-5.8-28.3C160.2,22.8,152.5,32.9,143.4,41.6
		L143.4,41.6z"/>
	<path class="st0" d="M142.6,34.6c3.6-7.2,13.3-14.9,17.2-22.5c2.2-4.3,0.6-11.3-10.3-9.5c-2.4-4.1-10.8-3.2-12.6,1.8
		C133.3,14,139.3,26.7,142.6,34.6L142.6,34.6z"/>
	<path class="st0" d="M235.4,341.5c0.1,0.8-0.1,1.9-0.8,3.2c-0.8,1.6-1.6,2.4-2.3,2.4c-0.5-0.4-1.2-1-2.2-1.7
		c-1-0.7-1.4-1.2-1.4-1.5l0.1-0.3c0.3-0.6,0.8-1.7,1.5-3.3c0.2-0.4,0.6-1.2,1.4-2.4l0.3-0.3c0.2,0.2,0.5,0.4,1,0.7
		c0.9,0.6,1.4,1.1,1.6,1.4C234.9,340.3,235.2,340.9,235.4,341.5L235.4,341.5L235.4,341.5z M20.9,310c0,0.2,0.1,0.4,0.1,0.8
		c0,0.8-0.3,1.6-0.8,2.4c-1.1,1.6-1.9,2.4-2.4,2.5c-0.1,0-0.3-0.1-0.6-0.3c-1.1-0.7-1.6-1.2-1.7-1.2c-0.7-0.5-1.1-0.7-1.2-0.7
		c-0.5-0.3-0.7-0.6-0.8-1l1.6-3.6c0.5-0.9,0.9-1.6,1.3-2.1l0.4-0.6c0.3,0.1,0.8,0.4,1.4,0.8c0.8,0.6,1.3,1.1,1.7,1.4
		C20.5,308.8,20.9,309.4,20.9,310L20.9,310L20.9,310z M31.2,313.9c-0.5,2-0.8,3.5-1.2,4.5c-2.5,7.7-6.7,13.1-12.4,16.3
		c-2.3,1.2-4.8,1.8-7.7,1.8c-3.2,0-5.6-1-7.4-3c-1.7-2-2.6-4.6-2.6-7.8c0-5.1,2.2-11.3,6.5-18.8c0.5-0.9,0.9-1.3,1.2-1.2
		c0.1,0.1,0.1,0.3,0.1,0.8c-0.1,0.5-0.2,0.9-0.3,1.3l-2.5,5.5c-1.2,2.7-1.8,5-1.8,6.9c0,5.4,3,8.1,8.9,8.1c6.3,0,11.4-2.9,15-8.6
		c1.2-1.8,1.8-3.9,1.8-6.2L29,308c0.1-1.5,0.5-3.4,1.3-5.5l1.5-3c0.4-0.8,0.7-1.4,1-1.6c0.3,0.3,0.4,0.6,0.3,1l-0.4,2.7l-0.4,3.8
		C32.4,307.8,32,310.6,31.2,313.9L31.2,313.9L31.2,313.9z M42,310.2l0-0.2v-1.6c0-2.9,0.2-5.8,0.7-8.9c0.3-1.5,0.7-4.5,1.4-8.9
		c0.5-3,0.7-5.1,0.7-6.5c0.1-0.3,0-0.5-0.1-0.5c-0.1,0-0.2,0.1-0.2,0.1l-3.1,7.8l-1.1,7.3l-0.6,5.7c-0.5,5.1-0.8,8.8-0.8,11
		l-0.1,0.1c0,5.3,1.7,8,5.1,8c1.3,0,2.4-0.5,3.3-1.5c1.2-1.9,2-3.4,2.6-4.3c1.4-2.2,2.5-3.3,3.3-3.3c0.4,0,0.9,0.2,1.5,0.7
		c1.2,0.9,4.1,1.6,8.7,2.1c3.7,0.4,6.8,0.6,9.4,0.6l0,0l0-0.1v0.1c9.4,0,18.5-1.2,27.6-3.7c5.3-1.4,11.7-4,19.3-7.8
		c5-2.5,9.8-5.3,14.3-8.5l12.7-8.8c1.4-1,3.2-1.9,5.6-2.6c1.3-0.4,2.5-1.7,3.6-3.7c0.6-1,0.9-1.7,1-2.1c0.1-0.2-0.1-0.4-0.3-0.4
		c-1.2,0.3-2,0.6-2.4,0.9c-1.8,0.4-6.7,3.2-14.6,8.4c-5.1,3.3-8.4,5.4-9.8,6.2c-8.8,5-17.4,8.7-25.8,11c-5.2,1.4-11,2.4-17.4,3
		c-3.8,0.3-7,0.5-9.7,0.5h-2.3c-0.8,0-1.4,0-1.8-0.1l0-0.1c-1.8,0-4.5-0.4-8.1-1.2c-3.6-0.8-6.2-1.2-7.7-1.2c-1.5,0-3.3,1.6-5.4,4.8
		c-0.8,1.1-1.3,1.8-1.5,2.1c-0.7,0.6-1.7,1-2.9,1C44,315.6,42.4,313.8,42,310.2L42,310.2z M74.8,344c0.1,0.8-0.1,1.9-0.8,3.2
		c-0.8,1.6-1.6,2.4-2.3,2.4c-0.5-0.4-1.2-1-2.2-1.7c-1-0.7-1.5-1.2-1.5-1.5l0.1-0.3c0.3-0.6,0.8-1.7,1.5-3.3
		c0.2-0.4,0.6-1.2,1.4-2.4l0.3-0.3c0.2,0.2,0.5,0.4,1,0.7c0.9,0.6,1.4,1.1,1.6,1.4C74.4,342.8,74.7,343.4,74.8,344L74.8,344
		L74.8,344z M67.7,344.4c0.1,0.8-0.1,1.9-0.8,3.2c-0.8,1.6-1.6,2.4-2.3,2.4c-0.5-0.4-1.2-1-2.2-1.7s-1.5-1.2-1.5-1.5l0.1-0.3
		c0.3-0.6,0.8-1.7,1.5-3.3c0.2-0.4,0.6-1.2,1.4-2.4l0.3-0.3c0.2,0.2,0.5,0.4,1,0.7c0.9,0.6,1.4,1.1,1.6,1.4
		C67.3,343.2,67.6,343.8,67.7,344.4L67.7,344.4L67.7,344.4z M141.2,307c0,1.3-0.3,3.3-1,6.1l-0.8,3.4c-0.7,2.2-1.3,3.6-1.8,4.4
		c-0.9,1.5-2,2.5-3.4,3l-2.5,1c-1.1,0.5-2.2,0.7-3.2,0.7c-0.2,0-0.4-0.1-0.4-0.3c-0.1-0.4,0.5-1.2,1.9-2.3c0.5-0.4,1.4-1.1,2.8-2.1
		c1.8-1.4,3.3-3.1,4.4-5.1c0.3-0.5,0.9-2.1,1.8-4.9l0.8-2.5c0.5-1.4,0.8-2.1,1.1-2.1C141.1,306.7,141.2,306.9,141.2,307L141.2,307
		L141.2,307z M152.3,313l-0.1,0.3L152.3,313l0.1,1c0,3,1.2,4.6,3.7,4.6c0.8,0,1.5-1.1,2.1-3.2c0.1-0.4,0.3-0.6,0.4-0.6
		c0.2,0,0.3,0.2,0.3,0.7c0,0.3-0.1,0.9-0.3,1.7c-1.2,5.7-2.9,8.6-5.1,8.6c-2.7,0-4-2.4-4-7.3l0,0c0,0-0.1,0-0.1,0
		c0-3.2,0.7-8.8,2-17c0.3-1.2,1.2-3.5,2.8-6.7l0.3-0.1c0,0.1,0,0.5-0.1,1.1l-0.3,1.8l-1.2,8.4C152.5,308.8,152.3,311.2,152.3,313
		L152.3,313L152.3,313z M162.4,340.7c0,1-0.3,1.9-0.9,2.8c-1,1.4-1.9,2.1-2.6,2.1c0,0-0.6-0.6-1.8-1.7c-1.2-1.1-1.7-1.7-1.7-1.8
		c0-0.2,0.6-1.3,1.7-3.2c1-1.7,1.6-2.6,1.8-2.6c0.2,0,0.6,0.3,1.4,1C161.7,338.7,162.4,339.8,162.4,340.7L162.4,340.7L162.4,340.7z
		 M155.6,340.7c0,1-0.3,1.9-0.9,2.8c-1,1.4-1.9,2.1-2.6,2.1c0,0-0.6-0.6-1.8-1.7c-1.2-1.1-1.7-1.7-1.7-1.8c0-0.2,0.6-1.3,1.7-3.2
		c1-1.7,1.6-2.6,1.8-2.6c0.2,0,0.6,0.3,1.4,1C154.9,338.7,155.6,339.8,155.6,340.7L155.6,340.7L155.6,340.7z M158.8,349.4
		c0,1-0.3,1.9-0.9,2.8c-1,1.4-1.9,2.1-2.6,2.1c0,0-0.6-0.6-1.8-1.7c-1.2-1.1-1.7-1.7-1.7-1.8c0-0.2,0.6-1.3,1.7-3.2
		c1-1.7,1.6-2.6,1.8-2.6c0.2,0,0.6,0.3,1.4,1C158.1,347.4,158.8,348.5,158.8,349.4L158.8,349.4L158.8,349.4z M222.4,283.8
		c1.2-1.3,3.7-3.4,7.2-6.2l10-7.9c1.9-1.5,4.2-3.5,6.9-5.9c0.7-0.7,2.8-2.6,6.2-5.9c3.6-3.4,5.5-5.3,5.8-5.7c0,0.3-0.1,0.5-0.2,0.7
		c-0.7,3.1-3.5,7.1-8.5,12c-2.3,2.3-5.7,5.3-10.4,9.1c-0.2,0.2-4.1,3.1-11.5,8.9l-5.4,4.2c-2.2,1.7-3.3,2.5-3.4,2.3
		C220,287.1,221.1,285.2,222.4,283.8L222.4,283.8L222.4,283.8z M219.9,275.4c0.1,0.8-0.1,1.9-0.8,3.2c-0.8,1.6-1.6,2.4-2.3,2.4
		c-0.5-0.4-1.2-1-2.2-1.7c-1-0.7-1.4-1.2-1.4-1.5l0.1-0.3c0.3-0.6,0.8-1.7,1.5-3.3c0.2-0.4,0.6-1.2,1.4-2.4l0.3-0.3
		c0.2,0.2,0.5,0.4,1,0.7c0.9,0.6,1.4,1.1,1.6,1.4C219.5,274.2,219.8,274.8,219.9,275.4L219.9,275.4L219.9,275.4z M215.9,311.6v1.1
		c0,3.4,1.4,5.1,4.1,5.1c0.9,0,1.7-1.2,2.3-3.6c0.2-0.5,0.3-0.7,0.5-0.7c0.3,0,0.4,0.3,0.4,0.8c0,0.4-0.1,1-0.3,1.9
		c-1.4,6.4-3.3,9.5-5.8,9.5c-3,0-4.5-2.7-4.5-8.2l0,0c0-0.7,0.1-2.1,0.3-4l0.4-3.8c0-0.2,0-0.3-0.1-0.3c-0.2-0.1-0.7,0.6-1.6,1.8
		c-0.3,0.5-0.9,1.4-1.9,2.6c-3.4,4.5-8.3,7.8-14.8,10.1c-5.5,1.9-11.5,2.9-18,2.9h-1.2c-5.2,0-8.6-0.8-10-2.5
		c-0.8-1-1.2-2.4-1.2-4.3c0-5.1,0.4-7.7,1.3-7.7c0.3,1.1,0.8,2.5,1.5,4.2c1.4,1.5,4.8,2.3,10.2,2.3c2.9,0,5.2-0.1,7.1-0.2
		c6.9-0.6,12.8-2,17.7-4.3c6.5-3,10.4-7.3,11.8-12.8l1.1-4.4c0.1-0.3,0.6-1.6,1.7-3.9c0.4-0.9,1.1-2.1,2.1-3.7v1.2
		c-0.1,0.2-0.2,1.1-0.5,2.6l-1.6,8.1c-0.2,1-0.4,3-0.7,6C216,309.1,215.9,310.5,215.9,311.6L215.9,311.6L215.9,311.6L215.9,311.6z
		 M227.8,318.2c0-3.2,0.7-8.8,2-17c0.3-1.2,1.2-3.5,2.8-6.7l0.3-0.1c0,0.1,0,0.5-0.1,1.1l-0.3,1.8l-1.2,8.4c-0.4,3-0.6,5.4-0.6,7.1
		v1c0,3,1.2,4.6,3.7,4.6c0.8,0,1.5-1.1,2.1-3.2c0.1-0.4,0.3-0.6,0.4-0.6c0.2,0,0.3,0.2,0.3,0.7c0,0.3-0.1,0.9-0.3,1.7
		c-1.2,5.7-2.9,8.6-5.1,8.6C229.1,325.5,227.8,323.1,227.8,318.2L227.8,318.2z"/>
</g>
</svg>
