<svg viewBox="0 0 48 48" fill="none" xmlns="http://www.w3.org/2000/svg">
<path fill-rule="evenodd" clip-rule="evenodd" d="M44.8426 47.9999H24.7592V28.3585C25.028 25.193 25.5042 22.2776 26.6721 20.1966C27.3663 20.5862 28.6054 22.3089 28.975 25.6422C29.881 24.0062 30.9843 22.1721 32.9861 21.0089C33.121 24.6193 32.9061 25.9931 31.8943 28.5065C30.4739 32.0351 26.565 32.8566 26.565 32.8566V46.1941H43.0368C43.0368 35.339 43.2416 24.4819 43.0351 13.6287C43.0316 13.5198 43.0255 13.4113 43.0165 13.3027C42.9666 12.7786 42.8427 12.2654 42.6374 11.7801C42.1323 10.5859 41.167 9.61252 39.9816 9.09342L39.98 9.09272C40.3378 8.54462 40.7035 8.05132 41.0653 7.60922C41.7131 7.93862 42.3083 8.37022 42.8227 8.88462C43.5496 9.61142 44.1111 10.4996 44.4527 11.4693C44.7123 12.2064 44.8377 12.9803 44.8426 13.761V47.9999ZM23.2408 47.9999H3.15739V13.761C3.16229 12.9803 3.28769 12.2064 3.54729 11.4693C3.88889 10.4996 4.45039 9.61142 5.17729 8.88462C5.69169 8.37022 6.28689 7.93862 6.93469 7.60922C7.29649 8.05132 7.66219 8.54462 8.01999 9.09272L8.01839 9.09342C6.83299 9.61252 5.86769 10.5859 5.36259 11.7801C5.15729 12.2654 5.03339 12.7786 4.98349 13.3027C4.97449 13.4113 4.96839 13.5198 4.96489 13.6287C4.75839 24.4819 4.96319 35.339 4.96319 46.1941H21.435V32.8566C21.435 32.8566 17.5261 32.0351 16.1057 28.5065C15.0939 25.9931 14.879 24.6193 15.0139 21.0089C17.0157 22.1721 18.119 24.0062 19.025 25.6422C19.3946 22.3089 20.6337 20.5862 21.3279 20.1966C22.4958 22.2776 22.972 25.193 23.2408 28.3585V47.9999ZM31.5896 1.22852C31.573 1.39282 31.5505 1.55662 31.5218 1.71972C31.4816 1.94822 31.4301 2.17452 31.3682 2.39802C30.8588 4.23762 29.6748 5.80252 28.3902 7.17782C28.1517 7.43312 27.908 7.68352 27.662 7.93152C27.4303 8.16502 27.1963 8.39632 26.9626 8.62772C27.3445 9.74832 27.7852 10.8486 28.2797 11.9242C28.4813 12.3626 28.6923 12.7963 28.9111 13.2261C29.5316 12.2663 30.2176 11.3487 30.9598 10.4813C31.5255 9.82032 32.125 9.18702 32.7568 8.58782C32.2781 7.67892 32.0036 6.67222 31.8289 5.66252C31.5762 4.20112 31.5271 2.71002 31.5896 1.22852ZM16.4104 1.22852C16.427 1.39282 16.4495 1.55662 16.4782 1.71972C16.5184 1.94822 16.5699 2.17452 16.6318 2.39802C17.1412 4.23762 18.3252 5.80252 19.6098 7.17782C19.8483 7.43312 20.092 7.68352 20.338 7.93152C20.5697 8.16502 20.8037 8.39632 21.0374 8.62772C20.6555 9.74832 20.2148 10.8486 19.7203 11.9242C19.5187 12.3626 19.3077 12.7963 19.0889 13.2261C18.4684 12.2663 17.7824 11.3487 17.0402 10.4813C16.4745 9.82032 15.875 9.18702 15.2432 8.58782C15.7219 7.67892 15.9964 6.67222 16.1711 5.66252C16.4238 4.20112 16.4729 2.71002 16.4104 1.22852Z" fill="#B27D53"/>
<path fill-rule="evenodd" clip-rule="evenodd" d="M42.9816 4.55519C39.8092 6.84139 36.0985 11.8376 35.6612 17.095C35.3051 21.3773 34.5734 23.2484 34.027 24.0496C34.2691 22.6058 34.2676 20.6425 33.9965 19.0596C33.3902 19.3279 32.384 19.9462 31.4627 20.8622C31.3482 20.4876 30.4081 18.5632 27.3112 19.4166C27.4602 18.9371 27.6245 18.4628 27.8073 17.9947C28.2446 16.875 28.774 15.7915 29.383 14.7543C29.3871 14.7476 29.391 14.7409 29.3948 14.7341C30.0504 13.6199 30.7978 12.5594 31.6213 11.565C32.3216 10.7192 33.0792 9.91889 33.8903 9.17739C33.9146 9.15859 33.9375 9.13769 33.9589 9.11489C34.5498 8.57909 35.1689 8.07449 35.8145 7.60629C37.6222 6.29539 39.6634 5.24999 41.8507 4.75539C42.2248 4.67089 42.6019 4.60509 42.9816 4.55519ZM5.0184 4.55519C8.1908 6.84139 11.9015 11.8376 12.3388 17.095C12.6949 21.3773 13.4266 23.2484 13.973 24.0496C13.7309 22.6058 13.7324 20.6425 14.0035 19.0596C14.6098 19.3279 15.616 19.9462 16.5373 20.8622C16.6518 20.4876 17.5919 18.5632 20.6888 19.4166C20.5398 18.9371 20.3755 18.4628 20.1927 17.9947C19.7554 16.875 19.226 15.7915 18.617 14.7543C18.6129 14.7476 18.609 14.7409 18.6052 14.7341C17.9496 13.6199 17.2022 12.5594 16.3787 11.565C15.6784 10.7192 14.9208 9.91889 14.1097 9.17739C14.0854 9.15859 14.0625 9.13769 14.0411 9.11489C13.4502 8.57909 12.8311 8.07449 12.1855 7.60629C10.3778 6.29539 8.3366 5.24999 6.1493 4.75539C5.7752 4.67089 5.3981 4.60509 5.0184 4.55519ZM25.9178 19.8861C25.5705 19.6322 25.021 19.176 23.9873 19.1792C22.9535 19.1825 22.4173 19.6411 22.0822 19.8861C21.8242 18.2621 20.7575 16.314 19.8203 14.4305C20.2411 13.635 21.4992 10.869 21.8349 9.82179C22.7264 7.04109 23.5043 3.63249 24 1.79459C24.4764 3.63759 25.2548 7.16369 26.1651 9.82179C26.5214 10.8622 27.7589 13.635 28.1797 14.4305C27.2425 16.314 26.1758 18.2621 25.9178 19.8861ZM32.9307 3.22739C33.1706 1.32319 35.3218 1.18269 36.6483 1.62689C38.5545 2.26529 39.212 4.04589 37.6809 5.03469C36.942 5.51189 36.1482 5.90119 35.4297 6.40259C34.8262 6.82379 34.2441 7.27519 33.6843 7.75299L33.6753 7.73329C33.0306 5.66069 32.7967 4.29069 32.9307 3.22739ZM15.0693 3.22739C14.8294 1.32319 12.6782 1.18269 11.3517 1.62689C9.4455 2.26529 8.788 4.04589 10.3191 5.03469C11.058 5.51189 11.8518 5.90119 12.5703 6.40259C13.1738 6.82379 13.7559 7.27519 14.3157 7.75299L14.3247 7.73329C14.9694 5.66069 15.2033 4.29069 15.0693 3.22739ZM25.4581 2.33879C25.2372 0.834591 26.8115 -0.146709 27.9376 0.0179909C28.6777 0.126191 30.6863 0.639091 30.1217 2.36189C29.9016 3.03359 29.5741 3.66849 29.1897 4.26089C28.5167 5.29789 27.6728 6.20649 26.8074 7.08359C26.7224 7.16879 26.6372 7.25379 26.552 7.33869C26.2173 6.21039 25.9412 5.06489 25.7213 3.90869C25.6221 3.38719 25.5352 2.86379 25.4581 2.33879ZM22.5419 2.33879C22.7628 0.834591 21.1885 -0.146709 20.0624 0.0179909C19.3223 0.126191 17.3137 0.639091 17.8783 2.36189C18.0984 3.03359 18.4259 3.66849 18.8103 4.26089C19.4833 5.29789 20.3272 6.20649 21.1926 7.08359C21.2776 7.16879 21.3628 7.25379 21.448 7.33869C21.7827 6.21039 22.0588 5.06489 22.2787 3.90869C22.3779 3.38719 22.4648 2.86379 22.5419 2.33879Z" fill="black"/>
</svg>
