<?xml version="1.0" encoding="utf-8"?>
<!-- Generator: Adobe Illustrator 24.3.0, SVG Export Plug-In . SVG Version: 6.00 Build 0)  -->
<svg version="1.0" id="Layer_1" xmlns="http://www.w3.org/2000/svg" xmlns:xlink="http://www.w3.org/1999/xlink" x="0px" y="0px"
	 viewBox="0 0 449.3 561.6" style="enable-background:new 0 0 449.3 561.6;" xml:space="preserve">
<style type="text/css">
	.st0{fill:#FFFFFF;}
	.st1{fill:#F0C239;}
</style>
<g>
	<path class="st0" d="M328.5,280.7c-4.3-6.1,1.7-16.7,9.5-15.2c-1.4,2.7-5.2,1.8-6.9,4c-1.4,1.7-1.1,4.4,0.1,6.2
		c1.4,1.4,3.5,1.7,5.2,2.4C334.4,280,331.6,282.7,328.5,280.7 M333.6,270.9c0.4-1.1,1.8-1.3,2.7-2c0,1.8,0,3.5,0.1,5.3
		c2.6,0,3.5-2.5,4.4-4.5c2.7-0.3,5.5-0.2,8.2,0.5c-3.7,1.9-7.3,4.1-11.2,5.6C335.6,275.6,332.4,273.5,333.6,270.9L333.6,270.9z"/>
	<path class="st1" d="M51.8,42.9c49.4-0.4,98.7-0.1,148.1-0.2c26.7,0.1,53.4-0.2,80.1,0.2c-0.4,2.7-1,5.3-1.5,8
		c-75.1,0.1-150.2,0.1-225.3,0C52.7,48.2,52.2,45.6,51.8,42.9 M54,55.2c5.3-0.3,10.6-0.2,15.9-0.2c64.3,0,128.7,0,193,0
		c5,0,9.9-0.1,14.9,0.2c-3.8,23.4-7.4,46.8-11.1,70.2c-8.3-0.3-14.3-8.3-15.1-16c2.2-3.3,5.3-6,6.4-9.9c1-3.9,1.2-8,2.2-11.9
		c1-4.6,3.6-8.6,4.8-13.1c-1.6,0.6-3.1,1.3-4.4,2.4c-4.3,3.7-8.4,7.7-11.8,12.3c-5.1-5.5-10.3-11.2-16.4-15.6
		c-0.3,3.9,2.6,7,3.6,10.6c2.2,5.4,1.5,11.6,3.9,17c1.3,3,3.8,5.3,5.4,8.2c-0.4,6.8-5.1,13.4-11.6,15.6c-6.3,1.5-13.8,0.9-18.5-4
		c-3.5-3.1-3.5-8.6-7.5-11.2c-1.4,6.9,3.3,13.3,8.9,16.9c9.6,6,24,2.8,29.3-7.5c2.7-3.5,1.8-8.1,2-12.2c0.8,0.8,1.8,1.4,2.4,2.4
		c-0.3,3-1.2,6.3,0.6,9c2.9,6,8.9,9.7,15.1,11.4c-0.3,2-0.6,3.9-0.8,5.9c-51.4,0.3-102.8,0-154.2,0.1c-14.7-0.1-29.4,0.3-44.2-0.2
		c-0.3-2-0.6-4-0.9-6.1c5.1-2.3,10.2-5.3,12.8-10.4c2.1-3,1.6-6.9,0.8-10.3c0.9-0.5,1.7-1,2.6-1.6c-0.1,3.6-0.8,7.4,1.2,10.7
		c3.2,7.1,10.8,12,18.6,11.7c10.4,0.7,21.3-8.6,20.4-19.4c-0.6,0.2-1.9,0.7-2.6,0.9c-1.7,6.1-5.6,12.1-12,14
		c-5.1,1-11.1,1.2-15.5-2.1c-4.9-3.3-7.5-9-8.1-14.8c2.4-1.8,4.7-4,5.8-7c2.3-5.2,1.7-11,3.6-16.3c1.2-3.8,3.4-7.2,4.4-11.1
		c-1.5,0.6-2.9,1.2-4.1,2.3c-4.6,4.1-8.8,8.4-12.9,13c-4.5-5.6-9.4-11.3-15.8-14.8c0.8,4.6,3.3,8.6,4.5,13.1
		c1.1,4.2,1.2,8.6,2.4,12.7c1.1,3.6,4.2,6.1,6.2,9.2c-0.7,7.3-5.9,14-13.1,16.1C61.4,102,57.5,78.6,54,55.2 M79.9,63.1
		c-0.9,4.1-0.1,8.3-0.3,12.5c-1.4-2.8-1.7-6.2-3.8-8.5c-0.9-0.1-2.6-0.2-3.4-0.2c-0.1,4.8,3.5,8.3,6.3,11.7c1.1-0.5,2.1-1,3.2-1.6
		c0.7-3.8,2-7.6,1.8-11.6C83.7,63.3,81.3,63.6,79.9,63.1 M120.7,65.3c0.1,4.1,1.2,8.1,1,12.2c0.6,0,1.8,0.1,2.5,0.1
		c-0.1-4.1,0.7-8.2,0.9-12.3C125.1,62.7,120.8,62.8,120.7,65.3 M162.9,63.4c-1.3,4.5,0.1,9.2,1,13.6c1.1,0.5,2.2,0.9,3.3,1.4
		c3-3.2,6.4-6.8,6.3-11.4c-0.9,0-2.8-0.1-3.7-0.1c-1.3,3.2-2.4,6.4-3.7,9.6c0.1-4.3,0.5-8.5,0.4-12.8
		C165.3,63.6,164.1,63.5,162.9,63.4 M205.1,63.2c-1.6,4.7,0.7,9.5,0.7,14.2c1.6-0.1,3.8,1.3,5-0.4c2.4-2.8,4.5-6,5.4-9.6
		c-0.9-0.2-2.7-0.7-3.6-0.9c-2,3.1-2.9,6.7-4.3,10.1c-0.2-3.8,0.6-7.5,0.8-11.2C208.8,63.4,206.5,63.6,205.1,63.2 M246.3,63.7
		c-0.3,4.5,0.8,8.9,1.7,13.3c1.1,0.6,2.1,1.2,3.2,1.7c2.9-3.3,5.7-6.9,6.8-11.2c-1.1-0.4-2.2-0.9-3.3-1.3c-2.2,2.8-2.9,6.3-4.5,9.5
		c-0.4-4.2,0.7-8.4-0.2-12.5C248.8,63.4,247.6,63.6,246.3,63.7 M83.4,78.1c4-2.2,6.4-6.6,7-11c-0.9-0.1-2.8-0.4-3.7-0.5
		C85,70.2,83.4,74,83.4,78.1 M113.6,67.3c1.3,4.3,3.4,9,7.6,11.1c-0.6-4.2-1.6-8.4-4-12C116.3,66.7,114.5,67.1,113.6,67.3 M127.7,68
		c-1.7,3.2-2.5,6.9-3.1,10.5c4.2-2.3,6.7-6.9,7.6-11.5C130.8,67.2,128.4,66.1,127.7,68 M155.5,67.2c0.8,4.3,3.1,8.7,7,10.9
		c0.2-4.1-1.5-7.9-3.3-11.4C158.3,66.8,156.4,67,155.5,67.2 M197.6,67c1,4.2,2.9,9.8,7.5,10.9c-0.7-3.4-1.4-6.8-3-9.8
		C201.4,66.2,199,67.2,197.6,67 M239.4,67.1c0.8,4.4,3.1,8.8,7.1,11c0-4.1-1.4-7.9-3.3-11.5C242.2,66.8,240.4,67,239.4,67.1
		 M68.2,68.9c-0.7,1.1-1.4,2.3-2,3.4c3.2,3.6,6.8,6.8,11.1,9C75.2,76.5,72.6,71.8,68.2,68.9 M92.4,69.6c-2.6,3.7-5.6,7.2-6.7,11.6
		c3.6-2.4,7.3-4.9,10.1-8.4c0.1-1.1,0.1-2.3,0.1-3.4C94.7,69.5,93.5,69.5,92.4,69.6 M108.2,69.4c0,1.9,0.4,3.7,1.3,5.3
		c-1,0-2,0-3.1,0c1.7,4.3,3.9,8.4,5,12.9c0.9,4,1,8.1,2.2,12c1,3.7,3.7,6.5,6.2,9.3c2-0.4,4-0.5,5.9-0.1c2-1.9,4.2-3.9,5.4-6.5
		c2.2-4.5,2.1-9.7,3.3-14.6c1.1-4.6,3.6-8.8,4.9-13.3c-6.9,3-11.2,9.5-16.4,14.7c-4-5-9.4-8.9-13.2-14.1c2.8,1.6,5.2,3.8,7.8,5.8
		c0-0.6,0-1.8,0.1-2.3c-1.7-3.1-3.7-6.2-6.2-8.8C110.3,69.6,109.3,69.5,108.2,69.4 M134.2,69.5c-2.7,3.4-5.3,6.8-6.9,10.9
		c3.8-1.4,7-4.1,9.6-7.1c1.1-1.1,0.1-2.6-0.1-3.9C136.2,69.4,134.9,69.5,134.2,69.5 M150.2,69.4c-0.1,0.7-0.4,2-0.5,2.7
		c0.7,1,1.4,2,2.2,3.1c-1.4-0.3-2.8-0.6-4.1-0.9c2,5,4.7,9.9,5.8,15.2c0.8,3.6,0.5,7.5,2.1,10.9c1.4,3.6,4.3,6.2,5.7,9.8
		c-0.9,6.5-5.4,12.4-11.6,14.7c-5.6,1.3-12.2,1.2-16.8-2.8c-4.3-3.1-5.5-8.6-8.1-13c-0.8,1.9-1.7,3.9-1,5.9c2,6.6,7.6,12,14.2,13.9
		c6,1.2,12.6,0.7,17.6-3c4.4-2.6,6.4-7.6,9-11.8c2.3,4.5,4.7,9.4,9.2,12c4.9,3.4,11.2,3.8,16.9,2.9c6.7-1.6,12.4-6.7,14.7-13.2
		c0.7-2.8,0.2-5.6,0.1-8.5c1.6,0.6,3.6,2.4,4.9,0.4c5.2-4.1,6.4-10.9,7.1-17.1c0.6-5.8,3.5-10.9,5.6-16.2c-1.1,0.1-2.2,0.2-3.2,0.4
		c0.5-1.2,1.1-2.4,1.6-3.6c-0.3-0.5-0.8-1.4-1.1-1.8c-0.6,0-1.8-0.1-2.3-0.1c-2.8,3.3-5.5,6.8-6.8,11c3-1.4,5.5-3.5,8.3-5.3
		c-0.7,2.1-2.5,3.4-4,4.9c-3.2,2.8-6.1,6-8.8,9.2c-3.6-4.2-7.9-7.7-11.2-12.1c2.3,1.4,4.5,2.9,6.8,4.2c-1.3-4.5-4.4-7.9-7-11.7
		c-1.2,0-2.3-0.1-3.5-0.1c0.1,2.1,0.7,4.1,1.6,5.9c-1.3-0.6-2.6-1.3-3.9-1.9c1.4,4.4,3.8,8.4,5.1,12.8c1.6,5,1.1,10.6,3.5,15.5
		c1.3,2.9,3.9,4.9,5.2,7.8c-0.8,7.6-6.7,15.1-14.6,15.9c-4.4,0.4-9.2,0.3-13-2.3c-4.7-2.7-7.2-7.9-8.4-13c-0.4-2,1.8-3.1,2.9-4.5
		c3.7-3.8,4.3-9.3,5.1-14.3c0.6-6,3.5-11.3,5.7-16.8c-1.1,0.1-2.2,0.2-3.2,0.4c0.6-1.3,1.2-2.5,1.8-3.8c-1.1-0.6-2.1-2.1-3.5-1.5
		c-3.6,3-5.9,7.2-7.6,11.5c2.9-1.9,5.7-4,8.5-6.1c0,0.4,0.1,1.2,0.1,1.6c-4.8,3.5-9.1,7.6-12.5,12.5c-4-4.8-8.9-8.8-12.9-13.6
		c3,1.7,5.6,3.9,8.4,5.8c-1.2-4.5-4.4-7.9-7-11.7C152.3,69.5,151.3,69.5,150.2,69.4 M234,69.4c0,1.2,0,2.3,0,3.4
		c2.8,3.4,6.5,6,10.2,8.4c-1-4.5-4.4-7.9-6.8-11.7C236.3,69.5,235.1,69.5,234,69.4 M252.7,81.2c4.1-2.4,7.8-5.4,10.9-8.9
		c-0.7-1.1-1.4-2.3-2-3.4C257.2,71.7,254.7,76.5,252.7,81.2 M77.1,81.1c1,2.2,2.6,4,4.5,5.4c1.1-1.4,2.4-2.7,3.2-4.3
		c-0.4-1.2-0.9-2.5-2-3.3C80.6,78.4,78.9,80.1,77.1,81.1 M120.8,78.6c-0.3,1.5-1.5,2.9-1.1,4.5c0.9,1.4,2.1,2.5,3.2,3.8
		c1.2-1.8,3.5-3.3,3.4-5.6C125.5,78.8,122.9,78.8,120.8,78.6 M160.5,82.1c1.2,1.4,2.4,2.8,3.6,4.3c1.6-1.3,3-2.7,4.5-4.1
		c-1.3-1.4-2.2-4.1-4.6-3.3C162.3,79,161.7,81.1,160.5,82.1 M204.4,79.7c-2.6,2.2,0.3,5,1.7,6.9c1.6-1.4,3.1-2.8,4.5-4.3
		C209.5,80,206.8,77.3,204.4,79.7 M245.9,80.2c-2.1,2.4,0.9,4.5,2.2,6.3c1.5-1.4,3-2.9,4.4-4.3C251.2,80,248,77.1,245.9,80.2
		 M68.1,140.2c1.9-0.1,3.8-0.3,5.8-0.3c55.7,0,111.3,0,167,0c7.6,0.2,15.2-0.4,22.8,0.4c0.1,0.7,0.3,2.1,0.3,2.8
		c-65.4,0.1-130.9,0.1-196.3,0C67.9,142.4,68.1,141,68.1,140.2 M68.3,145.7c65.1,0,130.2-0.1,195.3,0c-7.9,48.7-15.3,97.5-23,146.2
		c-3.8,18.3-5.4,37.8,0.8,55.8c3.7,11.6,12.5,21.7,23.9,26.1c8.8,3.4,17.1,8.5,23.1,15.8c3.3,4.1,5.8,9.1,5.3,14.5
		c-0.1,5-4.1,9.4-8.8,10.7c-4.8,0.9-10,1-14.6-1.1c-11.4-4.2-24.8-6.4-36-0.4c-7.2,3.5-12.2,11.5-11,19.6
		c1.9,12.6,13.1,22.8,25.6,24.4c54.5,0.1,109.1-0.1,163.7,0.1c0,3.2,0,6.5,0,9.7c-18.2,0.6-36.4,0.1-54.6,0.2
		c-105.8-0.1-211.6,0.1-317.3-0.1c-0.1-3.3-0.1-6.6,0.1-9.9c45.8,0,91.5,0,137.2,0c5.2-0.1,10.5,0.4,15.7-0.6c-1-0.6-2-1-3-1.3
		c-23.2-2.9-44.5-15.8-59.1-33.9c-16.3-19.9-25-44.8-29.9-69.8C90.2,283.2,79.6,214.4,68.3,145.7 M154,202.1
		c-0.1,8.9-0.4,17.9-0.2,26.8c4.2-0.9,8.5-1.5,12.8-1.8c2.8-7.4,5.2-14.9,8-22.2c0.9-2.2,1.4-5.1-0.5-6.9c-3.3-3-8.1-2.4-12.2-2.4
		C158.2,195.6,153.7,197.9,154,202.1 M131.1,206.4c-1.8,2.2-1.1,5.2,0.1,7.4c3.3,6.6,6.5,13.4,9.8,20c3.8-1.3,7.3-3.2,10.9-4.9
		c-0.4-8.8,0-17.6-0.6-26.4c-0.6-3.9-5.3-3-8.1-2.7C138.8,200.9,134.1,202.7,131.1,206.4 M181.1,200.2c-2.5,1.1-3.1,3.9-4,6.2
		c-2.4,6.9-5.3,13.6-7.4,20.6c3.8,0.9,7.6,1.8,11.4,2.5c4.5-4.7,8-10.2,12.3-15.1c2-2.4,4.6-5.4,3.2-8.8
		C193.8,200.3,186.5,197.7,181.1,200.2 M197.4,213.6c-4.9,5.2-9,11.2-13.5,16.7c2.5,2.4,4.9,5,7.1,7.7c5.7-2.9,11.3-5.9,16.9-9
		c3.1-1.7,6-5,5.6-8.8c-1.1-3.8-3.8-7.3-7.2-9.3C203,209.7,199.5,211.2,197.4,213.6 M117.9,216.2c-3.6,3.2-4.7,8-4.9,12.6
		c5.9,5.6,12.4,10.4,18.2,16.1c2.6-2.9,5.1-6,7.7-8.9c-2.7-8-7.1-15.2-10.5-22.8C124.8,213.4,120.9,213.9,117.9,216.2 M101.3,243.7
		c2.6,2.7,6.3,3.8,9.6,5.5c5.3,2.3,10.2,5.6,15.8,7.1c1.3-3,2.4-6,3.5-9.1c-4.5-4.3-9.4-8.1-14-12.2c-2.2-1.7-4.3-4.1-7.2-4.4
		C102.3,229.5,98.3,238.6,101.3,243.7 M150.9,234.1c-3.8,1.8-3.4,6.9-2,10.1c2.3,5.4,6.2,10.4,11.2,13.5c3.1-0.3,5.8-2,8.8-3
		c-0.3-5.3-2.8-10.2-2.6-15.5c0-2.6-0.1-5.1-0.4-7.7C160.8,231.7,155.6,232.1,150.9,234.1 M169.6,232.8c-0.5,7.2-1.4,15.6,3.4,21.6
		c3.3,0.6,6.8,0.2,10.1,0.1c0.2-5.1,1.9-10,4.3-14.4C183.6,234.4,176.2,232.2,169.6,232.8 M132.4,250.6c-1.2,3.6,2.3,6.5,4.8,8.4
		c5,3.2,10.5,6.6,16.7,6.6c1.7-1.7,3-3.7,4.4-5.6c-3.1-3.3-6.6-6.1-9.1-9.9c-2.3-3.4-4.1-7.1-6.2-10.6
		C137.6,240.8,134.3,245.8,132.4,250.6 M99.4,249.6c-3,1.9-3.8,5.6-4.1,8.9c-0.3,2.2-0.1,5,2.1,6.3c6,2.4,12.6,2.1,18.8,3.5
		c3.1,0.7,6.2,1.1,9.3,1.6c0.1-3.5,0.3-7,0.4-10.5c-6.2-3-12.5-5.7-18.8-8.4C104.6,250.2,102,248.8,99.4,249.6 M130.7,257
		c-1.9,5.4-1.6,11.3-0.4,16.8c0.7,2.6,1.8,5.4,4.2,6.8c6.5,0.7,12.9-1.1,19.4-1.3c-0.1-3.7-0.2-7.5-0.1-11.2
		C145.3,266.4,136.7,263.6,130.7,257 M162.7,262c-4.5,3.5-5.9,9.7-4.7,15.1c0.8,3.7,3.3,6.5,5.8,9.2c4.5,4.8,8.7,10,13.2,14.8
		c16.9,17.6,33.5,36.4,42.8,59.2c6.7,17.1,8.3,35.7,8.1,53.9c3.3-2.3,6.7-4.7,10.7-5.6c5.5-1.7,11.3-1.3,16.9-0.6
		c-3.8-8.6-5.3-17.8-7.9-26.7c-5.7-18.5-12.3-37-22-53.9c-11.5-18.2-26.1-34.4-36.7-53.3c-2.9-5-4.5-10.7-5.8-16.3
		C176.3,257.1,168.6,257.7,162.7,262 M100.4,271.6c-3,2.9-2.8,7.5-2.2,11.3c1,3.2,4.9,3,7.6,3.1c8.4-0.4,16.8-0.3,25.2-0.3
		c-2-4.3-4.3-8.5-5.6-13c-5.8-1.1-11.7-1.4-17.6-1.9C105.4,270.7,102.7,270.3,100.4,271.6 M138,283.3c-3.6,4.4,1.9,11.7,7.2,10.4
		c5.6-0.6,11-2.4,16.6-3.2c-2.4-3-4.6-6.1-7.3-8.9C148.9,281,143.5,283.1,138,283.3 M115.9,289c-4,0.4-8.2,0.2-11.9,2.1
		c-1.8,0.5-1.6,2.6-1.3,4c0.8,3.1,3,5.8,5.7,7.5c10.1-0.8,20-3.6,29.7-6.4c-2.4-2.8-4.3-6-6.4-9.1
		C126.3,287.1,121.1,288.6,115.9,289 M147.3,295.8c-1.6,0.5-3.7,1.4-3.4,3.4c0.2,4.5,4.9,8.9,9.5,7.4c6-1.6,12.1-2.8,17.9-5.2
		c-2.2-3.1-4.7-6-7.3-8.7C158.4,293.3,152.9,294.7,147.3,295.8 M119.6,304c-2.6,0.9-6,0.9-7.6,3.5c-0.6,3.3,1.5,6.7,4.3,8.3
		c2.4,1.8,5.3,0,7.8-0.5c7.2-2.4,14.5-4.2,21.8-6.4c-3.1-2.4-5.5-5.6-6.6-9.5C132.6,300.3,126.2,302.7,119.6,304 M159.3,307.5
		c-2,0.7-5.1,1.4-5,4.1c-0.6,3.3,2.2,6.2,5.1,7.3c2.9,0.1,5.6-1.3,8.4-1.9c4.8-1.5,9.8-2.2,14.4-4.4c-2.8-2.7-4.8-6.4-8.3-8.3
		C168.8,304.6,164.1,306.3,159.3,307.5 M130.4,316.4c-2.7,0.8-6,0.9-8,3.3c-1.6,4.3,2.6,9.9,7.2,8.5c8.6-2.4,17.3-4.8,25.8-7.6
		c-3.6-1.9-5.2-5.6-5.8-9.5C143.1,312.6,136.8,314.6,130.4,316.4 M165.7,320c-3.1,2.3-1.7,7.5,1.2,9.4c2.8,1.1,5.9,0.3,8.8-0.4
		c5.2-1.6,10.5-3.2,15.8-4.7c-2.1-3.4-4.8-6.4-7.8-9.1C177.7,316.8,171.7,318.3,165.7,320 M135.1,329.3c-4.1,0.6-3.8,5.9-1.8,8.5
		c1.9,2.8,5.7,2.1,8.5,1.4c7.5-2.2,15-4.4,22.5-6.6c-2.6-2.7-4.4-6-5.7-9.5C150.7,324.4,142.9,327.2,135.1,329.3 M173.9,332.2
		c-1.8,3.1-0.6,7.9,2.9,9.2c2.5,0.9,5.1-0.2,7.5-0.8c5.4-1.8,11-3,16.3-5.2c-2.3-3.1-4.9-6.1-7.6-8.9
		C186.5,328,180,329.7,173.9,332.2 M141.5,341.8c-0.1,2.6-1,5.7,1,7.8c1.9,2.6,5.5,1.8,8.2,1.3c7.7-2.1,15.2-4.7,23-6.7
		c-3-2.7-4.9-6.2-6.6-9.7C158.4,336.6,150,339.3,141.5,341.8 M182.1,343.6c-0.9,3.3-0.9,7.2,2.2,9.4c3.1,1.1,6.4,0.3,9.4-0.9
		c4.8-1.8,10-2.6,14.6-4.9c-1.7-3.4-3.7-6.6-5.9-9.7C195.6,339.5,188.9,341.8,182.1,343.6 M150.3,353.6c-1.7,3.3-0.6,7.9,2.9,9.5
		c3.4,0.8,6.6-0.9,9.8-1.7c6.1-2,12.4-3.3,18.4-5.7c-2.7-2.8-4.2-6.4-4-10.3C168.4,348.3,159.1,350.3,150.3,353.6 M190.4,355.6
		c-3.8,2-1.9,7.3,0.9,9.4c3.1,1.4,6.5,0.3,9.5-0.8c4.1-1.5,8.4-2.5,12.5-3.8c0.2-0.3,0.7-1,0.9-1.3c-0.9-3.5-2.9-6.5-4.5-9.6
		C203.3,351.7,196.7,353.3,190.4,355.6 M161.2,364.3c-1.6,0.6-3.8,0.9-4.6,2.7c-1.3,2.8,0.5,6,2.7,7.7c2.1,1.3,4.7,0.5,7,0
		c7.4-2.3,14.9-4.4,22.4-6.5c-2.7-3-4.7-6.6-4.5-10.8C176.7,360.1,168.9,362.1,161.2,364.3 M199,367.2c-2,0.6-4.9,1.4-4.7,4
		c-0.7,4.4,4.1,8.9,8.4,7c5.4-1.8,10.8-3.5,16.2-5.2c-0.5-3.7-1.6-7.2-3.1-10.6C210,363.5,204.6,365.7,199,367.2 M165.2,377.4
		c-4.4,1.1-3.4,7.9-0.1,9.8c2.7,1.3,5.8,0.4,8.5-0.3c7.2-2.2,14.5-4.3,21.8-6.4c-1.5-1.3-3.3-2.5-4.4-4.3c-0.8-1.8-0.8-3.8-1.2-5.8
		C181.5,372.4,173.4,375.3,165.2,377.4 M199.6,381.9c-2.8,3.7,0.4,10.6,5.4,9.6c5.9-0.7,11.2-3.5,17-4.7c-0.5-3.8-1.4-7.5-2.1-11.3
		C213.1,377.8,206.2,379.3,199.6,381.9 M171.1,390.2c-1.7,0.7-4.2,0.9-4.4,3.1c-0.8,3.4,1.4,8.1,5.3,8c3.4-0.1,6.7-1.5,10-2.3
		c5.5-1.8,11.2-3,16.6-5.3c-2.6-2.8-4.3-6.4-4.2-10.3C186.6,385.9,178.9,388,171.1,390.2 M205.7,394.1c-1.5,0.7-3.8,1.2-3.7,3.3
		c-1.1,4.3,3.3,9,7.7,7.5c4.7-1.3,9.2-3.1,13.8-4.5c-0.4-3.8-1-7.5-1.6-11.2C216.6,391.1,211.1,392.4,205.7,394.1 M175,403.4
		c-2,0.7-5.3,1.1-5.1,3.9c-0.6,3.2,1.7,6.2,4.4,7.6c2.4,0.3,4.6-0.7,6.9-1.3c7.1-2.3,14.4-4.1,21.5-6.5c-3.4-2.3-5.1-6-5.2-10
		C189.9,398.7,182.6,401.6,175,403.4 M206.1,408.4c-5.9,1.9-1.8,11.8,3.8,10.8c4.7-1,9-3.1,13.6-4.4c0.1-3.9,0.2-7.8,0.1-11.6
		C217.8,404.9,211.9,406.4,206.1,408.4 M182.4,415.7c-3.8,1.1-7.7,1.8-11.2,3.9c0.3,2.3-0.3,5.1,1.4,7c1.5,1.5,3.6,2.9,5.7,2.1
		c8.8-2.5,17.6-5.1,26.4-7.8c-1.5-1-3.1-1.8-4.3-3.2c-1.1-2-1.2-4.4-1.6-6.5C193.3,412.2,187.9,414.2,182.4,415.7 M206.5,422.7
		c-4.6,2-2,8.8,1.8,10.2c3.2,0.8,6.4-0.8,9.4-1.8c1.3-0.6,3.1-1,3.4-2.7c0.8-3.7,1.4-7.4,2.7-10.9
		C218.2,419.5,212.1,420.5,206.5,422.7 M174.7,432.1c-5.4,2.2-1.7,10.6,3.2,10.6c1.8,0,3.5-0.7,5.2-1.2c7.2-2.4,14.7-3.8,21.7-6.8
		c-3.6-2-5-5.7-5.2-9.6C191.3,427.1,183.1,430,174.7,432.1 M290.5,251.7c8.6-5.6,19.2-7.1,29.2-5.9c3.7,0.5,7.3,1.9,10.4,4
		c-2.9,1.6-4.9,4.3-6.7,7.1c-3.8,0.7-4.2-4.9-7.6-5.6c-4.5-0.7-9,0.8-13,2.7c-3,1.5-6.1,4.3-5.6,7.9c0.8,4.9,3.9,9.4,8.3,11.8
		c1.2,0.6,3.1,2.1,1.3,3.2c-4.8,4.5-9.3,10.8-7.3,17.7c0.9,3.2,4.7,2.7,7.3,3.3c-0.1,0.8-0.2,1.6-0.3,2.4c-2.2,1.1-4.2,2.4-6.3,3.7
		c1,4.1,4.5,6.5,7.9,8.6c-2.2,0.2-4.5,0.4-6.7,0.6c0.3,2.2,0.2,4.8,2,6.5c2,2.7,5.5,3.3,8.6,3.8c-1.6,1.3-4.4,2-4.3,4.5
		c2.1,4.7,8.1,3.3,12.2,3.7c-1,1.5-2,3.1-2.9,4.7c3.8,1.1,7.7,1.3,11.6,1.8c2.7,22.3,4.1,44.6,6.7,66.9c0.5,6.7,0.8,13.4,2.3,19.9
		c-6.1-2.3-12.4-4-19-4.4c-6.7-1.5-13.6-1.6-20.4-1.8c2.2-7.1,3.5-14.8,1.3-22.1c-2.2-7.5-7.5-13.8-14.1-17.8
		c-11.2-7-25.4-9.2-34.6-19.3c-6.1-6.1-7.9-15.1-8-23.4c0.5-19.3,7.8-38,18.4-54C268.9,270.5,278.5,259.5,290.5,251.7 M332.2,253.4
		c2.6-1.5,6-0.5,8,1.6c5.2,5,13.2,7.5,16,14.7c-4.4-3-8.8-5.8-13.4-8.5c-3.2-2.6-7.8-3.1-11.7-1.8c-5.2,3.1-7.6,9.1-12.1,13
		c-2.9,1.6-6.7,1.4-9.8,0.3c-4.4-2.4-7.8-7.2-8.2-12.2c2.5-3.3,6.4-6,10.8-5.4c4.3-0.1,6.8,4,9.3,6.8
		C325.5,260,328.3,256,332.2,253.4 M324.1,277.2c0.1-6.7,5.2-15.1,12.8-14.2c2.4-0.2,3.5,2.2,4.8,3.7c4.8,0.1,10,1.2,12.5,5.8
		c-4,0.5-8.4,0.6-11.8,3.2c-3.7,2.3-5.6,6.5-9.3,8.8C328.7,286.1,323.4,282,324.1,277.2 M328.5,280.7c3,2,5.8-0.6,7.9-2.6
		c-1.8-0.7-3.8-1.1-5.2-2.4c-1.2-1.8-1.5-4.4-0.1-6.2c1.8-2.2,5.6-1.3,6.9-4C330.3,264,324.3,274.5,328.5,280.7 M333.6,270.9
		c-1.2,2.6,2,4.8,4.2,4.9c3.9-1.5,7.5-3.7,11.2-5.6c-2.7-0.6-5.5-0.8-8.2-0.5c-0.9,2-1.8,4.5-4.4,4.5c-0.1-1.8-0.1-3.5-0.1-5.3
		C335.4,269.5,334,269.8,333.6,270.9 M305,284.2c3.4-4.9,9-7.8,14.6-9.3c-2.7,14-0.5,29.2,7.4,41.2c3,4.7,7.4,8.2,11.3,12
		c-2.7,3.8-6.9,6.1-11.5,6.5c-0.4-0.3-1.2-0.9-1.6-1.2c0.8-2.4,1.8-4.6,2.7-6.9c-4.4,0.7-8.6,1.8-13.1,2c2.2-3.5,5.6-6.6,5.3-11
		c-3.8,1.5-7.9,2.2-11.9,1c3-3,7.3-5.3,7.8-9.9c-3.5-0.4-7-0.9-10.5-1.6c3-4,7.2-7.8,7-13.3c-3.2,0.1-6.4,0.1-9.5-0.6
		C303.4,290.1,303.1,286.8,305,284.2 M346.3,276.6c3.4-1.7,7.3-1.2,10.9-1c-4,1.3-8.8,0.6-12.1,3.7c-4.7,4-3,11.4-7.3,15.7
		c-2.4,2.9-6.4,2.7-9.7,2.1c0.1-2.3-0.7-5,1.1-6.8c2.5-2.8,6-4.7,8.8-7.1C340.7,281,343.1,278.2,346.3,276.6 M352.5,278.5
		c7-2.8,13.6,2.3,20.5,2.9c-0.3,3.2-1,6.3-2.1,9.2c-3.3-2.2-4.6-6.3-7.7-8.7C360.2,279.4,356.1,279.4,352.5,278.5 M349.9,285.2
		c3.5-2.8,9.4-3.2,12.5,0.5c2.4,2.6,3.3,6.1,4,9.5c-4.4,1-8.7,2.2-13,3.5c-4.9,1.5-10.2,1.1-15.2,1.4
		C342.8,295.7,344.8,289.1,349.9,285.2 M354.5,301.9c4.8-0.6,8.9-3.3,13.4-4.7c-1.6,4.7-4.3,9-7.7,12.6c-1.8-1.8-3.2-4.7-6.2-4.4
		c-6-0.2-12.8-0.7-18,2.9c-3.9,3.2-1.9,9.8,2.8,11c3.6,0.7,7.5,0.9,11.2-0.1c3.3-2,5.4-5.4,8.9-7.3c-1.8,3.9-5,7.2-5.9,11.5
		c-0.7,2.1-0.8,4.7-2.4,6.4c-2.2,2.7-6.2,2.2-9.1,1.1c-1.4-2-1.5-4.5-2.6-6.7c-2.7-2.3-6.1-4-7.7-7.2c-2.2-3.6-1.6-9.1,2.3-11.2
		C339.9,302.1,347.6,303.5,354.5,301.9 M338.5,310.2c4.4-2.5,9.7-2.2,14.4-0.9c2,0.3,0.8,2.8,0.9,4.1
		C349,311,343.8,310.4,338.5,310.2 M244.1,419.3c8.8-4.6,19.2-2.2,28.2,0.6c5.3,2,11.1,1.2,16.6,2.1c8,1.6,16.2,1.1,24.2,2.8
		c7.9,0.4,15.7,1.5,23.2,4c5.7,2.1,11.8,2.4,17.8,2.2c4.7,0.2,8.2-4,12.9-4.2c3-0.5,5.5,2.1,8.6,1.8c2,0.1,4.3-0.5,5.9,1.1
		c1.6,2.2,2.5,4.9,4.1,7.1c2.7,2,6.6,2.4,8.6,5.4c2.3,3.4,4.1,7,5.4,10.9c-0.9,0.1-2.6,0.1-3.5,0.2c-4.7-5.3-9.5-10.5-13.9-16.1
		c-1.2-1.5-2.6-2.9-4.2-4.1c0.2,2.5,1.1,4.8,2,7.2c-2.8-2.5-5.2-5.3-8-7.9c-1.3-1.6-3.6-1-5.4-1.2c-0.6,4.9,5,7.5,4.8,12.3
		c-4.9-0.3-8.7-3.8-13.2-5.3c-5.5-1.9-11.4-2.4-17.3-2.4c-4.2,0.1-7.8-2.4-11.8-3.5c-8.4-2.3-17-3.2-25.7-3.6
		c-9.5-1.5-19.1-0.7-28.6-1.2c-6.8-0.2-13.1-3.4-19.9-3.6c-3.7,0.5-7.7,1.3-10.5,4c-3.8,4.2-2.8,11,0.7,15c3.3,3.7,8.3,5.1,13,5.9
		c9.5,0.9,19.1-0.1,28.7,0.2c9.7,0.2,19.3-1.5,29-1.3c6.9-0.4,13.7,0,20.6,0.3c-0.3-0.5-0.8-1.6-1.1-2.1c-5.2-2.3-10.9-2.6-16.5-2.7
		c-15.6-0.3-31.3-0.3-46.9-0.2c-5.3,0.1-11.7,1.4-15.8-2.9c-2.3-1.9-3-6-0.6-8.1c6.5-2.2,13.5-0.5,20.1,0.2
		c10,2.1,20.4,0.7,30.5,2.7c8.7,0.9,17.4,2.4,25.9,4.5c11.2,2.4,24,0.7,33.5,8.4c2.7,2.6,6.2,3.9,10,3.6c0.1-2.7,0.3-5.3,0.6-8
		c3.3,0.8,6.4,2,9.6,3.1c3.9,1.4,6,5.2,7.5,8.7c-44.4,0.6-88.9,0-133.4-0.1c-7.2-0.8-15-2-20.6-7c-5.2-4.4-7.1-12.1-5.2-18.6
		C235.5,424.5,239.7,421.3,244.1,419.3 M40.3,472.2c0.5-2.6,3.6-2,5.6-2.3c113.3,0,226.7,0,340,0c8.9,0.2,17.8-0.6,26.6,0.6
		c0,0.6,0.1,1.8,0.1,2.4c-122.6,0.2-245.2,0-367.7,0.1C43.4,472.8,41.5,473.3,40.3,472.2 M361.9,481.1c1.3,0.1,2.6,0.2,3.9,0.4
		c0.7,1.9,0.8,3.9,0.3,5.9c-1.8-0.1-3.6-0.1-5.4-0.2C360,485,360.6,482.9,361.9,481.1 M71.4,483.7c3.4-0.1,6.8-0.1,10.2-0.1
		c0.3,8.1-0.6,16.2,0.6,24.2c5.5,0.9,11.2,0.8,16.8,0.4c12.9,0.3,25.9,0.7,38.8-0.1c0-0.7-0.1-2-0.2-2.7c-1.8-0.9-3.5-2.1-5.6-1.9
		c-11-0.1-22,0.1-33.1,0c-3-0.2-6.7,0.1-8.5-2.8c-2.4-3.5-0.9-8-0.8-11.9c-0.8,0.6-1.3,1.5-1.3,2.5c-0.2,3.6,0.3,7.2,0.9,10.7
		c-7.8-2.2-6.4-13.5-0.5-17.1c3.4-2.9,7.9-0.8,11.8-0.5c-0.8,1.8-1.7,3.7-1.9,5.7c0.9,1.7,2.4,3.2,4.4,3c11.4,0.3,22.7-0.2,34.1,0.2
		c4.3,0.1,8.2,2.8,10.4,6.4c1.8,5.2,0.9,10.8,1.1,16.1c-2.8,0.3-5.7,0.7-8.6,0.6c-16-0.1-32,0-48,0c-6,0-12.1,0.4-17.9-1.4
		c-2.3-0.9-2.9-3.6-2.7-5.8C71.3,500.7,71.3,492.2,71.4,483.7 M379.3,483.6c3.4,0,6.9,0,10.3,0c0.2,7.9-0.1,15.8,0.1,23.7
		c5,1.5,10.2,1.3,15.3,0.6c0.4-4.9,0.3-9.7,0.2-14.6c3.3-0.1,6.7-0.1,10-0.1c0.1,7.6,0.4,15.2-0.2,22.8c-6.4,0.8-12.8,0.4-19.1,0.5
		c-4.4,0.1-8.9-0.2-13.2-1.2c-3.3-0.5-3.4-4.5-3.9-7C378.5,500,378.5,491.8,379.3,483.6 M168.7,483.8c3.5-0.2,7-0.2,10.5,0
		c0.4,8-0.1,15.9,0.3,23.9c2.1,0.2,4.2,0.5,6.4,0.7c0.5-5.1,0.5-10.2-0.1-15.2c3.3,0,6.7,0,10,0.2c1.6,4.7,1.4,9.7,1.4,14.6
		c1.6,0.1,3.1,0.1,4.7,0.2c0.6-5,0.5-10.1-0.5-15.1c3.5,0,6.9,0,10.4,0.3c1.1,4.7,0.7,9.5,0.8,14.3c1.8,0,3.6,0,5.4,0
		c0-4.9,0.2-9.8-0.5-14.6c3.3,0.1,6.8-0.4,10,0.6c1.4,1.8,1.1,4.2,1.2,6.4c0,5.2-0.1,10.5,0,15.7c-6.2,0.9-12.4,0.5-18.6,0.6
		c-10.4-0.1-20.7,0.2-31.1-0.1c-3.7-0.5-9.4-0.3-10-5.2C168.1,502.1,168.5,492.9,168.7,483.8 M232,483.8c3.4-0.2,6.9-0.2,10.3,0
		c0.3,7.8,0.1,15.6,0.1,23.5c6.6,1.2,13.3,0.5,19.9,0.5c0.1-4.8,0.1-9.6,0-14.4c3.4-0.2,6.8-0.2,10.2-0.1
		c-0.1,7.5-0.1,15.1-0.1,22.6c-6.5,1-13.1,0.5-19.6,0.6c-6,0-12.1,0.4-17.9-1.4c-2.6-1.1-3.1-4.3-3.1-6.8
		C231.9,500.1,231.9,492,232,483.8 M297.7,487.1c2.2-2.6,5.8-2.3,8.8-3.1c-1.6,2.9-2.9,6.2-0.4,9c12,0.5,23.9-0.1,35.9,0.2
		c4.6-0.1,9.1,2.5,11.3,6.5c1.1,2.5,0.9,5.3,1.2,7.9c3.6,0.2,7.1,0.2,10.7,0c0.1-4.8,0.1-9.6,0-14.4c3.5-0.1,6.9-0.1,10.4,0
		c-0.1,7.5,0,15.1-0.1,22.6c-5.2,0.6-10.5,1-15.7,0.3c-1.9-0.2-3.4-1.6-4.9-2.7c-1.2,1.6-2.8,3.2-5,3c-15.7,0.1-31.4-0.1-47,0
		c-3.3,0-6.6-0.2-9.9-0.6c0-2.5,0-5,0-7.5c10.3,0.1,20.6-0.2,30.9,0c6.6-0.4,13.2,0.2,19.8-0.7c0-0.6-0.1-1.8-0.1-2.4
		c-1.8-0.9-3.5-2.1-5.6-2c-11-0.1-22.1,0-33.1,0c-3,0-6.4-0.2-8.3-2.8C292.8,496.8,294.5,490.6,297.7,487.1 M44.3,493.4
		c5.5-0.5,11.1-0.7,16.6-0.2c3.6,0.2,6.3,3.7,6.6,7.2c0.4,5.2,0.1,10.3,0.1,15.5c-6.5,0.9-13.1,0.6-19.7,0.5
		c-2.5-0.3-5.3-0.3-7.3-1.9c-1.5-2.4-1.1-5.3-1.5-7.9c6.2,1.8,12.8,1.3,19.2,0.9c-0.4-1.5-0.9-3.1-2.6-3.6
		c-3.8-0.9-7.8-0.2-11.5,0.7C44.2,500.9,44.2,497.2,44.3,493.4 M155.3,493.2c3.3-0.2,6.6-0.2,9.9-0.1c0.2,7.4,0.2,14.8,0.1,22.2
		c0.2,4.1-3.2,7.1-6.6,8.8c-3.4,1.9-7.5,1.3-11.1,0.4c2-1.6,4.1-2.9,5.8-4.8c1.9-2.4,2-5.5,2-8.4
		C155.4,505.2,155.3,499.2,155.3,493.2 M248.1,519.2c2.4-0.4,4.8,0,6.8,1.6c1.7-1.4,4.7-3.1,6.2-0.7c1.5,1.8-0.1,3.6-1.3,4.9
		c-1.8,0.4-3.4-0.8-4.9-1.6c-2,1.2-4.2,1.7-6.5,1.6C248.2,523.1,248.1,521.1,248.1,519.2 M263.7,519c1.5,0,3,0,4.5,0
		c0.5,2,0.5,4-0.3,6c-1.3,0-2.7,0.1-4,0.2C262.5,523.2,262.4,521,263.7,519 M400,519.3c1.9-0.1,3.9-0.1,5.8,0c0,1.9-0.1,3.8-0.2,5.7
		c-1.8-0.2-4.5,1-5.3-1.2C399.5,522.4,400.1,520.7,400,519.3 M40.4,535.7c124.1-0.1,248.1,0,372.1,0c0,1,0,2,0,3.1
		c-124.1,0-248.1,0.1-372.2,0C40.4,537.7,40.4,536.7,40.4,535.7L40.4,535.7z"/>
</g>
</svg>
