<svg viewBox="0 0 48 48" fill="none" xmlns="http://www.w3.org/2000/svg">
<path fill-rule="evenodd" clip-rule="evenodd" d="M24 33C27.3115 33 30 35.6885 30 39C30 42.3115 27.3115 45 24 45C20.6885 45 18 42.3115 18 39C18 35.6885 20.6885 33 24 33ZM43.3688 31.4694H4.63139C1.71992 28.2209 0 24.2141 0 19.8814C0 15.7982 1.52747 12.0046 4.14019 8.86217H17.4267C12.6687 10.9244 9.40335 15.1541 9.40335 20.0323C9.40335 24.0416 11.6091 27.613 15.0366 29.9028H32.9634C36.3909 27.6128 38.5966 24.0416 38.5966 20.0323C38.5966 15.1541 35.3313 10.9244 30.5733 8.86217H43.8598C46.4724 12.0046 48 15.7982 48 19.8814C48 24.2141 46.28 28.2208 43.3688 31.4694ZM25.4242 25.6073H11.9724C17.084 23.6603 20.6523 19.2695 20.6523 14.1701C20.6523 9.29192 17.3869 5.0621 12.6289 3H25.9154C28.5282 6.14248 30.0556 9.93604 30.0556 14.0192C30.0556 18.3518 28.3358 22.3586 25.4242 25.6073Z" fill="#173576"/>
</svg>
