<?xml version="1.0" encoding="utf-8"?>
<!-- Generator: Adobe Illustrator 24.3.0, SVG Export Plug-In . SVG Version: 6.00 Build 0)  -->
<svg version="1.0" id="Layer_1" xmlns="http://www.w3.org/2000/svg" xmlns:xlink="http://www.w3.org/1999/xlink" x="0px" y="0px"
	 viewBox="0 0 676.1 412.6" style="enable-background:new 0 0 676.1 412.6;" xml:space="preserve">
<style type="text/css">
	.st0{fill:#004B7F;}
</style>
<g>
	<path class="st0" d="M288.9,37.5c25.8-0.2,51.6,0,77.4-0.1c1.7-0.2,3.3,0.5,4.8,1.2c0.3,1.6,1,3.1,2,4.3c6.8,9.3,11.2,20.1,14.9,31
		c6.5,25.1,2.9,53.2-11.9,74.8c-1.7,2.6-3.2,6.5-6.9,6.6c-23.8-0.2-47.6,0.1-71.4-0.1c3.3-1.8,7.2-2.3,10.5-4.1
		c10.6-5.2,19.9-13.8,24.8-24.6c5-8.7,6.6-18.9,7.4-28.8c0.5-6-0.8-12-2.8-17.6c-3.5-8-7.6-15.9-13.5-22.4
		C314.9,47.5,302.1,41.1,288.9,37.5 M252.1,69.6c17.4,0,34.7,0.4,52.1-0.3c8.4,0.2,16.7-0.5,25.1,0c-3.2,2-6.8,3-10.1,4.6
		c-14.1,7-27.1,17.6-33.8,32.1c-9.8,20.9-4.8,47.9,12.7,63.1c3.9,4.4,8.7,8.2,14,10.8c30.3,0.2,60.5,0,90.8,0.1
		c-0.1-0.6-0.3-1.9-0.4-2.5c0.2,0.7,0.5,2.1,0.6,2.8c10.5-6.2,19.9-14.6,25.7-25.5c6.9-12.1,8.2-26.8,4.5-40.1
		C429,98.2,416.8,84.5,402,76c-3.8-2.1-7.5-4.5-11.8-5.4c-0.4-0.4-1.1-1.1-1.4-1.5c16.1,0,32.3,0.4,48.5-0.3
		c8.6,0.1,17.2-0.5,25.9-0.2c4.8,6.1,8.3,13,12.3,19.6c0.4,1.5,0.9,3,1.7,4.4c4.1,10.7,6.6,21.9,7.1,33.3
		c0.2,17.4-4.1,34.9-13.1,49.8c-0.5,1.3-2.6,2.8-0.5,4c-3.8,0.4-5.2,5-7.2,7.7c-4.1,0.6-8.2,0.3-12.3,0.3c-65.4,0-130.7,0-196,0
		c-16-17.9-25.7-41.9-24.5-66.1c0.3-11.9,4.3-23.4,9.6-34C243.6,81.4,247.3,75,252.1,69.6 M251.4,187C252,187.5,252,187.5,251.4,187
		 M331.6,207.5c5.7-8.7,16.2-14.1,26.6-13.6c4,0,7.8,1.3,11.6,2.2c5.4,3.1,10.5,6.8,13.6,12.4c4.1,6.6,5.5,14.8,3.9,22.4
		c-0.4,1.8-1,3.6-0.5,5.4c-2.6,1.7-3.4,5-5.4,7.2c-5.4,6.6-13.4,11.8-22.2,11.6c-8.2,0.7-16.6-2-22.6-7.7
		C325.2,237.9,323.4,219.6,331.6,207.5 M218.2,302.8c6.3-2.4,11.7-6.7,17.7-9.8c0,0.4,0,1.3,0,1.7c-2.4,2-5,3.5-7.7,5
		c-4.8,2.5-9.1,5.7-13.9,8.1C213.8,305.2,216.7,304.4,218.2,302.8 M205.5,315.3c10.3-5.7,20.1-12.3,30.5-17.9c0,2.7,0,5.5-0.4,8.2
		c-3.5,1-6.4,3.3-9.5,5c-6.9,4-13.6,8.5-20.6,12.4C205.4,320.5,205.4,317.9,205.5,315.3 M297.7,315.3c10.3-5.9,20.3-12.2,30.6-18
		c0,2.4,0,4.8,0,7.2c-5.3,3.1-10.5,6.5-15.8,9.5c-1.7,0.9-3.3,2.2-4.3,3.9c-1.7-0.7-2.9,0.7-4.1,1.5c-2,1.5-4.3,2.4-6.6,3.4
		C297.6,320.3,297.7,317.8,297.7,315.3 M371.4,300.1c4.3,0,8.6-0.1,12.9,0c0.9-0.2,1.8,0.3,2.5,0.8c-0.8,5.2-0.3,10.5-0.4,15.8
		c0.1,9.5-0.3,19,0.3,28.5c5.1,2.1,10.9,2.7,16.2,1.2c1.6-0.3,2.6-1.8,3.4-3.1c-4.5,0.6-9.1,0.9-13.5-0.7c0.2-5.2-0.5-10.4,0-15.5
		c4.6-5.7,12-7.3,18.9-7.9c1,0.2,2,0.3,3.1,0.4c2.1,0.5,4.1,1.2,6.2,1.8c-0.6,7.5-0.1,14.9-0.2,22.4c0.3,2.6-2.5,3.9-4.3,5.2
		c-7,4.9-16.1,5.4-24.3,3.9c-3.6-0.6-6.7-2.5-9.6-4.5c-3.7,1.9-7.3,3.8-11.1,5.5C371.3,336,371.3,318.1,371.4,300.1 M399.2,327.8
		c-0.2,3.9-0.1,7.8-0.2,11.8c2.1,0.5,4.3,0.3,6.5,0c0.4-4.5,0.2-8.9,0.2-13.4C403.5,326.5,401.4,327.1,399.2,327.8 M267.6,300.8
		c4.6-0.2,9.3-0.1,14-0.1c-0.1,14.3,0.1,28.7-0.1,43c3.2,3.2,8.4,4.4,12.7,2.8c1.5-0.6,3-1.9,2.9-3.6c0.5-5.6,0.3-11.3,0.3-16.9
		c4.6-2.4,9.1-5.2,13.5-8c0.3,7,0,13.9,0.4,20.9c0,2.6,0.4,5.5-1.4,7.6c-2.9,3.6-7,6.5-11.7,6.8c-6.8,1.2-14.5-0.2-19.1-5.6
		c-3.7,2.2-7.7,3.9-11.6,5.6C267.7,335.8,267.7,318.3,267.6,300.8 M404.6,301.2c4.6-2.3,10.6,1.5,10.5,6.5c0.4,3.2-2.1,5.5-4.2,7.4
		c-1.9,0.2-3.8,0.5-5.7,0.7c-2.5-2.2-4.9-4.6-5.3-8.1C400.8,305.2,401.8,302.2,404.6,301.2 M563.4,300.6c4.4,0,8.9,0.1,13.3-0.1
		c0.4,14.7-0.3,29.5,0.4,44.2c3.6,2.6,8.7,3.1,12.1,0c-0.3-6.3-0.1-12.6-0.1-18.9c5,0,9.9-0.1,14.9,0.1c-0.2,6.4,0.3,12.9-0.3,19.3
		c-3.3,5.1-9.3,8.4-15.4,7.9c-5.4,0.3-11.5-0.8-14.9-5.4c-3.4,1.8-6.5,4.3-10,5.8c-26,0.2-52,0-78,0.1c-4.8,0.2-10.1-3.7-9.5-8.9
		c0.2-6.5,0.4-13,0.3-19.5c4.8,0,9.6,0,14.5,0c0,6.5,0,13,0,19.5c24.2,0.1,48.4,0,72.6,0C563.7,330.1,563,315.4,563.4,300.6
		 M588.7,307.8c0.8-2.4,2-4.8,3.5-6.9c3.3-0.1,7.6-1.1,9.9,2.1c4.3,4.1,1,12.3-5,12.2C592.6,315.9,589.5,311.8,588.7,307.8
		 M615.9,300.7c4.6,0,9.1,0,13.7,0c-0.1,14.5,0.1,29-0.1,43.5c3.2,3.5,8.7,3.6,12.4,0.8c-0.1-6.3,0-12.7-0.1-19
		c4.9-0.1,9.8-0.1,14.7-0.1c0,6.4,0.2,12.8,0,19.1c-2.1,4-6.4,6.5-10.6,8c-6.9,0.7-15,0.8-19.8-5.1c-3.4,2-6.7,4.1-10.2,5.9
		C616,336,615.8,318.3,615.9,300.7 M138.8,301.4c4.6,0,9.2,0,13.8,0c0,14.5,0,29,0,43.5c-4.4,3.5-9.2,6.6-13.8,9.7
		C138.7,336.9,138.8,319.1,138.8,301.4 M525,309.4c4-0.1,8.1,0.4,12.1-0.5c0.3,0.3,0.9,0.9,1.2,1.3c-0.7,1-1.4,1.9-2.1,2.9
		c-2,0-4,0.1-5.9,0.1c-0.9,2.4-0.7,5.9-3,7.5c-4.1,0.3-8.2,0-12.4,0.1c0.3-1.2,0.6-2.5,0.9-3.7c2-0.1,4.2,0.4,6.2-0.4
		c0.9-1.7,1-3.7,1.4-5.6C523.8,310.7,524.6,309.8,525,309.4 M79.4,320.7c0.8-5.8,8.5-9.3,13.3-5.6c3.4,1.8,4,5.8,4.3,9.3
		c-1.7,2.5-3.5,5.4-6.7,6.3C84.6,332.7,77.9,326.6,79.4,320.7 M205.1,325.9c4.9-2.6,9.5-5.5,14.3-8.1c0.1,9-0.1,18,0.1,27
		c-5.7,9.6-18.4,11.4-28.4,9c-2.7-0.9-6-1.4-7.1-4.4c-1.3,4.2-5.4,6.4-9.5,7.1c-5.9,1.6-12.5,0.5-17.3-3.4
		c4.8-0.3,11.6-0.7,13.1-6.3c1-6.1,0.1-12.3,0.5-18.5c-0.3-0.4-1.1-1.3-1.4-1.7c5.4-1.8,11.8,1.2,16.8-2l-2,1.9
		c0.6-0.1,1.8-0.3,2.4-0.5c-2.1,1.5-2,4.4-2,6.7c0.1,4.3-0.2,8.6,0.2,12.9c4,4.9,11.7,5.2,17,2.4c2.1-0.9,3.2-3.1,3.2-5.2
		C205.1,337.2,204.9,331.6,205.1,325.9 M109.4,320.2c4.8,0,9.6,0,14.4,0c0.1,8.2-0.4,16.4,0.3,24.6c-11.7,8.7-26.9,12.7-41.4,10.3
		c-5.7-0.3-10.7-3.4-16.1-5c-0.3-0.4-1-1.2-1.3-1.6c-4.4,1.3-8.2,4.4-12.7,5.3c0-9.3,0-18.5,0-27.8c4.7,0,9.3-0.1,14,0
		c-0.1,5.9,0,11.8,0,17.8c10.6,6.8,24.1,6.7,35.9,3.6c2.3-0.7,4.5-1.7,6.7-2.8C109,336.5,108.8,328.3,109.4,320.2 M438.6,325.3
		c5,0,10,0,15,0c-0.2,7.2,0.3,14.5-0.2,21.8c-6.1,8.4-20.3,9-26.9,1c3.9-0.5,8.9,0.8,12-2.2C438.8,339,438.4,332.1,438.6,325.3
		 M237.7,326c5,0.7,10.1,0.2,15.1,0.4c0,8,0,16,0,24c-4.2,4.6-10.4,7.5-16.7,6.9c-3.8,0-9-0.7-10.7-4.4c3.7-1.8,9.2,0.6,12.1-3.2
		c1.3-3.1,0.6-6.7,0.8-10C238.2,335.1,239.1,330.4,237.7,326 M334.6,332.5c4.6-4.5,11-7.8,17.6-7.1c3.2,0.4,6.6,0.8,9.7,1.9
		c0.8,2.3,0.1,5,0.3,7.5c-0.2,5.5,0.4,11.1-0.3,16.5c-6.5,2.1-13.3,2.9-20.1,2.9c-0.4,0.9-0.8,1.7-1.2,2.6c-0.1-0.8-0.2-2.3-0.2-3.1
		c-1.7-0.6-5.2,0.5-5.7-1.9C334.6,345.3,334.8,338.9,334.6,332.5 M340.7,334.6c-0.3,4.9,0,9.9-0.1,14.9c2.2,0,4.5-0.1,6.7-0.6
		c0-5.7,0-11.4,0-17.1C345.1,332.3,341.7,332.1,340.7,334.6 M631,365.8c-0.4-4,3.2-7.9,7.3-7.7c1.9-0.1,3.6,0.8,5.3,1.4
		c1,1.8,1.8,3.6,2.5,5.5c-0.2,1.2-0.4,2.3-0.5,3.5c-2.3,3.6-6.7,5.3-10.8,3.7c-0.3,0.3-0.8,0.9-1.1,1.2
		C633.6,370.6,630.9,368.6,631,365.8L631,365.8z"/>
</g>
</svg>
