<svg xmlns="http://www.w3.org/2000/svg" viewBox="0 0 512 512"><path d="M273.57,20.75C282.5,10,295.34,2.82,309,0c-4.47,4.27-9.94,8.38-10.7,15-1.83,10.4,6,18.93,12.94,25.58C337.38,66.73,363.38,93,389.6,119.11c8,7.83,15.56,16.41,20.17,26.71,5.35,11.44,7.58,24.91,3.63,37.14-3.67,13.38-15.3,24.53-29.19,26.57-10,2.12-20.07-.53-29.56-3.53-8.29-2.71-17.72-3-25.56,1.19-9.51,4.72-16.76,12.72-24.41,19.88q-49.77,50-99.53,100c-16.32,16.47-33.75,32.76-55.31,42.08A112.27,112.27,0,0,1,107,378.63c4.4,7.94,9.81,16.21,18.83,19.33,12.47,4.1,26,.57,37.55-4.63,23.07-11.07,43-27.62,60.78-45.87q44.22-44.07,88.5-88.08c13.22-13.82,30-26.43,49.73-27.57,25.71-2.56,51.1,16.16,57.62,40.89-4.83-4.71-10.71-9.07-17.8-8.84-11.87,0-21.1,8.56-28.72,16.7-37.25,37-74,74.44-111.46,111.17,4.57,4.22,10.22,7.79,16.64,7.82,10.27.94,19.65-4.92,26.58-12Q339,353.5,373,319.56c8.64-8.64,17-17.9,27.67-24.05,9.94-5.92,21.82-9.77,33.44-7.67,21.55,4.18,38.53,24.07,41.2,45.53-3.66-3.95-7.24-8.92-13-9.5-9.07-1.54-16.74,4.6-22.79,10.53q-43.11,42.87-86.05,85.91c-20.48,19.54-54.88,21.41-77.38,4.22a52.61,52.61,0,0,1-18.73-27.69c-17.64,17.62-39.49,31.72-64,37.22-20.92,5.33-44,3.33-63-7.16S97.83,397.64,92.28,377c-16.86-3.93-32.63-13.34-42.56-27.74-11.93-17.34-15.54-39.72-11.25-60.18,4-21.13,14.4-40.45,27.15-57.53,2.62-3.38,4.95-7.22,8.75-9.43,5.86-8.38,13.33-16.91,23.82-19.1a35.63,35.63,0,0,1,27.35,3.7c-5-8.82-6.75-19.67-3-29.28,3.64-11.46,13.77-20.33,25.38-23,7.89-1.12,16.49-1.21,23.59,2.95,15.29,7.22,23.31,26.6,17.61,42.52A35.94,35.94,0,0,1,158.36,224c-7,.84-13.79-1.74-20.1-4.52a38.76,38.76,0,0,1,2.62,28.15A35.66,35.66,0,0,1,118,270.52c-10.19,3-21.88,1.64-30.56-4.68a34.75,34.75,0,0,1-15-28.34c-.35-4.54,1.49-8.85,1.75-13.33l-1.27.17c-15,21.18-28.58,44.81-31.2,71.15-1.37,13.3,3.92,28.35,16.35,34.77,12.19,7.51,27.47,5.7,40.31,1,19.32-7.39,36.46-19.58,51.6-33.51Q203.62,244,257.28,190.17c14.81-14.34,35.76-23.83,56.66-20.34,15.28,1.78,26.31,13.5,39.22,20.57,4.84,2.19,11,5.62,16,1.86,2.39-1.33,1.72-4.38,1.57-6.62-2.27-7.61-7.93-13.54-13.38-19.06q-36.63-36.51-73.28-73c-10-9.86-18.33-22-21.23-35.93-2.53-13.13,2.14-26.86,10.73-36.87Z" style="fill:#009aae"/><path d="M63.41,463.23l5.09-.3c.22,11.11,0,22.22.22,33.33-7.69.06-16,1.43-22.68-3.38l.11,3.57c-10.27-.3-20.53.06-30.78-.13C6.88,496.69-.18,488.37,0,480.21c-.07-3.88,2.31-7.11,4-10.4,1,.83,3.06,2.47,4.11,3.29-4.78,5.61-3.07,15,4.21,17.39,9.63.89,19.34.07,29,.39,0-4.74,0-9.46,0-14.18,1.23.08,3.7.22,4.94.32.36,3.62-.29,7.89,2.6,10.7,3.4,4.66,9.72,2.73,14.63,3.19-.15-9.23-.08-18.44-.08-27.68m8.42-.07,5.24-.09c.29,7.8-1.14,15.92.81,23.51,2.7,6.12,10.17,3.83,15.4,4.24-.11-4.64-.18-9.29-.24-13.91,1.27,0,3.79,0,5.06,0-.64,6.45,2.67,13.37,9.62,14.29,0-4.71-.15-9.42-.24-14.12l5.09-.28c-.69,6.61,3,13,9.62,14.67.08-4.85,0-9.69,0-14.52,1.32,0,4-.06,5.27-.06q0,9.87.06,19.79c-5.18,0-10.37-.77-14.68-3.87,0,1-.09,2.92-.11,3.88A28.44,28.44,0,0,1,98.28,493c0,.84-.2,2.51-.28,3.35-8.1-.54-19,2.58-24-6-4.24-8.34-1.53-18.24-2.21-27.21m216.51-.06c1.35,0,4.07,0,5.42,0,0,11.07-.13,22.13,0,33.2-16-.39-31.93.13-47.91,0-3.72.35-6.73-2-9.75-3.7.05,1,.2,2.88.27,3.85-4.88.13-9.82-.41-13.91-3.31-1.82,6.56-10.2,2.23-14.47.28-.47.67-1.42,2-1.9,2.62-5.59.72-11.26.13-16.85-.15L186,492.38c-.46,1-1.41,3.05-1.87,4.05-5.6-.2-11.32.5-16.8-.76-6.07-2.06-8-8.58-11-13.47a19.56,19.56,0,0,0-5.49,1.32c0,1.6-.06,3.2-.1,4.81l2.57,2.42c1.35.05,4,.2,5.4.26-.13,1.45-.41,4.34-.55,5.77-4-.57-9-.7-11-4.9-4.9-6.35,1.58-17.32,9.57-15,5.16,1.43,6.37,7.24,9.1,11.13,3.38,4.36,9.51,2.41,14.25,2.86-.11-4.5-.33-9-.19-13.45,1.25-.25,3.78-.69,5-.91.09,4.86.6,10.33,4.83,13.52,4.09,1.19,8.4.71,12.6.87-.06-4.86-.08-9.71,0-14.54,6.63-1.27,4.64,5.61,6.48,9.49,1.49,3.12,4.89,4.53,8.08,5.2q-.14-7.05-.35-14.08l5.22-.15c-.69,6.69,2.79,12.89,9.42,14.77.09-5,.07-10,.17-15l4.85.39c.05,5.05.79,11.92,6.61,13.5a167.07,167.07,0,0,0,27.12-.22c-2-2.47-3.69-5.2-6.2-7.17-4.33-1.38-9-.67-13.43-.8-.19-1.82-.38-3.64-.54-5.46,5.85.15,12.46-1.23,17.57,2.45,3.92,2.9,5.5,7.95,9.25,11,3.94.74,8,.48,12,.61-.12-9.29,0-18.58-.15-27.87m9.34-.07,5.15.22c0,11,0,22.05.07,33.09l-5.22-.08c.08-11.07.06-22.16,0-33.23m145.86,15.34c6.32-5.16,12.21-10.77,18.09-16.38.77,1.21,2.27,3.6,3,4.81-3.36,2.88-6.72,5.78-10.09,8.62,5.11,3.64,9.57,8.58,9.48,15.29,4.29.09,8.58.13,12.89.19,0-4.69-.09-9.35-.13-14l4.93-.21q.36,9.76.53,19.55c-17.25.11-34.53.29-51.79-.06-12-1.65-17.32-18.24-8.42-26.68,6.12,3.68-1.3,9.22,1,14.23,1.54,3.31,4.44,6.95,8.41,7,9.33.37,18.65.15,28,0-.82-6.26-6.67-12-13.17-8.82l-2.75-3.48m28.76-14.91c2.28.09,4.59.18,6.91.29-.06,1.25-.15,3.7-.19,4.94l-7-.07c.06-1.3.2-3.88.28-5.16m12.87-.47c1.32.15,4,.48,5.3.65.11,7.27-.71,14.62.43,21.83,1.8,7.19,10.31,5.11,15.79,5.39,0-4.68-.1-9.35-.11-14h5.29c0,6.5,0,13,.13,19.51-7.19-.45-15.27,1.69-21.68-2.51-8.12-8.06-4-20.68-5.15-30.84M14.49,466.48c5.24,0,10.5,0,15.74,0,.11,1.28.33,3.82.43,5.09-5.43.18-10.87.2-16.31.16.05-1.74.09-3.47.14-5.22M166,466.3q3.47.1,6.95.28c0,1.71,0,3.43,0,5.16h-7.26c.11-1.82.22-3.64.35-5.44m188-.06a67.68,67.68,0,0,1,7.08.63c.15,1.21.47,3.64.63,4.87l-7.86-.07c0-1.36.12-4.07.15-5.43m43,.19c5.33.05,10.65.07,16,.07,0,1.73,0,3.44,0,5.19q-8.06,0-16.09,0c0-1.76.07-3.53.11-5.27m-262.73,10.4c1.3,0,3.9,0,5.2.06-.33,7.61.5,15.29-.46,22.89-1.16,6.89-7.44,11.77-14.25,12.22,0-1.24.07-3.73.09-5,3.58-1.39,7.86-2.84,8.79-7.1,1.45-7.58.29-15.42.63-23.09m197.15.09,5-.05c-.11,5.05,1.17,10,4.81,13.6,2.23-7,8-14.51,16.2-13.62,9.38.85,14.79,10.68,14,19.41-9,0-18.12.38-27.17-.05-3-.06-5.36-2.18-7.91-3.48,2.25,9-4.61,19.33-14.23,18.94-11.35.55-18.45-14.31-12.41-23.39,2.14-4.82,7.21-6.84,11.91-8.22.17,1.4.48,4.18.65,5.58-2.62,1-5.8,1.48-7.32,4.16-4.7,5.24-1.58,14.94,5.31,16.35,4.39,1.3,8.73-2.06,10.8-5.71,1.05-7.78.29-15.69.33-23.52M346,490.41a121.71,121.71,0,0,0,20.65.1c-2.5-3.22-4.77-7.68-9.28-8.11-5.52-1.07-8.4,4.46-11.37,8M377.92,477l4.92-.21c.49,3.65,0,7.84,2.64,10.82,2.34,3.92,7.4,3,11.24,3.62-.29-4.11-1.32-9.16,2.44-12.09,4.08-4.39,11.85-2.57,14.06,2.86,1.71,4.55.91,9.56,1.23,14.34-10.43-1.19-22.52,3.21-31.49-3.75,1.89,9.3-4.52,18.78-14.18,19.39-.07-1.21-.22-3.62-.3-4.81,3.9-1.65,8.55-3.68,9.2-8.45.91-7.21.19-14.49.24-21.72m24.41,5.54c-.22,1.87-1.37,3.82-.67,5.72.86,3.45,5.21,2.1,7.77,2.95a31.45,31.45,0,0,0-2-9.14l-5.13.47m96.91,19.35c2.43,0,4.9,0,7.35,0-.18,1.32-.57,3.94-.76,5.24l-6.74-.22c0-1.69.09-3.38.15-5.06Z" style="fill:#5d5d5e"/></svg>