<svg viewBox="0 0 48 48" fill="none" xmlns="http://www.w3.org/2000/svg">
<path fill-rule="evenodd" clip-rule="evenodd" d="M5.97283 41.1385C4.15453 40.6981 2.40183 39.5394 1.03703 37.199C-1.36707 33.076 0.946326 29.0071 2.56393 26.2216C-2.39077 36.5545 4.30513 39.7162 12.2331 32.7572C12.2331 32.7572 21.9412 23.0373 24.6541 20.3211C25.9084 19.0653 27.7771 18.2329 29.6363 18.4494C32.411 18.7726 34.2759 20.3551 35.3979 20.8361C36.134 21.1518 36.8017 20.6904 36.5483 20.0789C36.2903 19.4562 35.7411 18.7919 34.7013 17.7507C31.6171 14.6621 27.8322 11.0606 27.8322 11.0606C25.6314 8.94263 24.7547 7.01434 24.875 5.1194C25.0657 2.1162 27.8554 0.32901 29.7377 0.25C28.5942 1.6112 28.6931 2.77402 29.363 3.6213C29.363 3.6213 39.933 14.2061 40.1938 14.4672C41.531 15.8063 43.2504 21.3919 38.3612 22.8512C37.7723 23.027 37.1855 23.0157 36.5181 22.8226C34.7787 22.3192 32.1454 21.8404 30.3506 23.6056C27.112 26.7907 16.724 37.2934 15.8188 38.1577C14.9136 39.022 12.1832 41.1694 8.28033 41.3471C9.21513 44.6564 13.7358 44.2211 19.0356 39.5691C19.0356 39.5691 28.7437 29.8492 31.4565 27.1331C32.7109 25.8772 34.5673 25.2332 36.4387 25.2614C37.811 25.2821 38.8101 25.6475 39.5722 26.197C41.1198 27.3129 41.6719 28.3755 41.8946 29.5603C40.0937 28.5152 38.9479 28.6523 37.1531 30.4175C34.5552 32.9726 27.715 39.8505 25.1102 42.4718C25.1242 42.7472 25.2139 42.9949 25.4403 43.168C26.2393 43.7789 28.0772 43.7909 28.9453 42.9218C32.0331 39.8301 36.7184 35.1392 38.4741 33.3814C39.7284 32.1255 41.3561 31.3826 43.2276 31.4109C44.5998 31.4316 45.1138 31.7422 45.8759 32.2916C47.4235 33.4075 47.7772 34.8576 48 36.0424C46.3746 34.8944 45.4823 35.3758 44.1706 36.6658C42.273 38.5321 38.1119 42.705 34.9913 45.8405C33.9059 46.9311 31.0771 48.335 27.8784 47.2018C26.0764 46.5634 24.8576 44.6454 24.0802 43.519C23.8642 44.2975 13.4109 52.5485 7.37583 43.6585C6.78556 42.789 6.36157 41.9904 5.97283 41.1385ZM9.79393 21.3509C9.49213 20.8 9.32043 20.1677 9.32043 19.4955C9.32043 17.3615 11.0505 15.629 13.1815 15.629C15.3125 15.629 17.0426 17.3615 17.0426 19.4955C17.0426 21.6294 15.3125 23.362 13.1815 23.362C12.5103 23.362 11.8788 23.19 11.3286 22.8878C11.6304 23.4388 11.8021 24.0711 11.8021 24.7433C11.8021 26.8773 10.072 28.6098 7.94103 28.6098C5.81003 28.6098 4.07993 26.8773 4.07993 24.7433C4.07993 22.6093 5.81003 20.8768 7.94103 20.8768C8.61233 20.8768 9.24372 21.0487 9.79393 21.3509Z" fill="#00BBE6"/>
</svg>
