<?xml version="1.0" encoding="utf-8"?>
<!-- Generator: Adobe Illustrator 24.3.0, SVG Export Plug-In . SVG Version: 6.00 Build 0)  -->
<svg version="1.0" id="Layer_1" xmlns="http://www.w3.org/2000/svg" xmlns:xlink="http://www.w3.org/1999/xlink" x="0px" y="0px"
	 viewBox="0 0 367.2 412.6" style="enable-background:new 0 0 367.2 412.6;" xml:space="preserve">
<style type="text/css">
	.st0{fill:#009AAE;}
	.st1{fill:#5D5D5E;}
</style>
<g>
	<path class="st0" d="M207.1,54.3c5.9-7.1,14.3-11.8,23.2-13.6c-2.9,2.8-6.5,5.5-7,9.9c-1.2,6.8,3.9,12.4,8.5,16.8
		c17.2,17.2,34.2,34.4,51.4,51.5c5.2,5.1,10.2,10.8,13.2,17.5c3.5,7.5,5,16.4,2.4,24.4c-2.4,8.8-10,16.1-19.2,17.4
		c-6.5,1.4-13.2-0.4-19.4-2.3c-5.4-1.8-11.6-1.9-16.8,0.8c-6.2,3.1-11,8.3-16,13c-21.8,21.9-43.6,43.7-65.3,65.7
		c-10.7,10.8-22.1,21.5-36.3,27.6c-8.8,3.9-18.5,6-28.1,6.2c2.9,5.2,6.4,10.6,12.4,12.7c8.2,2.7,17,0.4,24.6-3
		c15.1-7.3,28.2-18.1,39.9-30.1c19.3-19.3,38.8-38.5,58.1-57.8c8.7-9.1,19.7-17.4,32.6-18.1c16.9-1.7,33.5,10.6,37.8,26.8
		c-3.2-3.1-7-6-11.7-5.8c-7.8,0-13.9,5.6-18.9,11c-24.5,24.3-48.6,48.9-73.2,73c3,2.8,6.7,5.1,10.9,5.1c6.7,0.6,12.9-3.2,17.4-7.8
		c14.8-14.9,29.7-29.8,44.5-44.7c5.7-5.7,11.1-11.7,18.2-15.8c6.5-3.9,14.3-6.4,22-5c14.1,2.7,25.3,15.8,27,29.9
		c-2.4-2.6-4.8-5.9-8.6-6.2c-5.9-1-11,3-15,6.9c-18.9,18.8-37.6,37.6-56.5,56.4c-13.4,12.8-36,14-50.8,2.8
		c-5.9-4.5-10.3-11-12.3-18.2c-11.6,11.6-25.9,20.8-42,24.4c-13.7,3.5-28.9,2.2-41.4-4.7c-12.4-6.8-21.2-19.2-24.9-32.7
		c-11.1-2.6-21.4-8.8-27.9-18.2c-7.8-11.4-10.2-26.1-7.4-39.5c2.6-13.9,9.4-26.6,17.8-37.8c1.7-2.2,3.2-4.7,5.7-6.2
		c3.9-5.5,8.8-11.1,15.6-12.5c6-1.7,12.6-0.7,17.9,2.4c-3.3-5.8-4.4-12.9-2-19.2c2.4-7.5,9-13.3,16.7-15.1
		c5.2-0.7,10.8-0.8,15.5,1.9c10,4.7,15.3,17.5,11.6,27.9c-2.9,8.6-11.1,15.2-20.2,15.8c-4.6,0.6-9-1.1-13.2-3
		c2.8,5.7,3.6,12.4,1.7,18.5c-2.2,7-8,12.8-15,15c-6.7,1.9-14.4,1.1-20.1-3.1c-6.1-4.1-9.8-11.3-9.9-18.6c-0.2-3,1-5.8,1.1-8.8
		c-0.2,0-0.6,0.1-0.8,0.1c-9.9,13.9-18.8,29.4-20.5,46.7c-0.9,8.7,2.6,18.6,10.7,22.8c8,4.9,18,3.7,26.5,0.6
		c12.7-4.8,23.9-12.9,33.9-22c23.5-23.5,47-47,70.5-70.6c9.7-9.4,23.5-15.6,37.2-13.3c10,1.2,17.3,8.9,25.7,13.5
		c3.2,1.4,7.3,3.7,10.5,1.2c1.6-0.9,1.1-2.9,1-4.3c-1.5-5-5.2-8.9-8.8-12.5C246.1,134,230,118,214,102c-6.5-6.5-12-14.5-13.9-23.6
		C198.4,69.8,201.5,60.8,207.1,54.3L207.1,54.3z"/>
	<path class="st1" d="M91.3,350.5c0.7,0,2.1-0.1,2.7-0.2c0.1,6,0,12,0.1,17.9c-4.1,0-8.6,0.8-12.2-1.8l0.1,1.9
		c-5.5-0.2-11.1,0-16.6-0.1c-4.6,0.2-8.4-4.3-8.3-8.7c0-2.1,1.2-3.8,2.1-5.6c0.5,0.5,1.6,1.3,2.2,1.8c-2.6,3-1.6,8.1,2.3,9.4
		c5.2,0.5,10.4,0,15.6,0.2c0-2.6,0-5.1,0-7.6c0.7,0,2,0.1,2.7,0.2c0.2,1.9-0.2,4.2,1.4,5.8c1.8,2.5,5.2,1.5,7.9,1.7
		C91.2,360.4,91.3,355.4,91.3,350.5 M95.8,350.4c0.7,0,2.1,0,2.8,0c0.2,4.2-0.6,8.6,0.4,12.7c1.4,3.3,5.5,2.1,8.3,2.3
		c-0.1-2.5-0.1-5-0.1-7.5c0.7,0,2,0,2.7,0c-0.3,3.5,1.4,7.2,5.2,7.7c0-2.5-0.1-5.1-0.1-7.6c0.7,0,2-0.1,2.7-0.1
		c-0.4,3.6,1.6,7,5.2,7.9c0-2.6,0-5.2,0-7.8c0.7,0,2.1,0,2.8,0c0,3.5,0,7.1,0,10.6c-2.8,0-5.6-0.4-7.9-2.1c0,0.5,0,1.6-0.1,2.1
		c-2.7,0-5.4-0.6-7.7-1.9c0,0.4-0.1,1.4-0.2,1.8c-4.4-0.3-10.2,1.4-12.9-3.2C94.7,360.6,96.2,355.2,95.8,350.4 M212.3,350.4
		c0.7,0,2.2,0,2.9,0c0,6-0.1,11.9,0,17.9c-8.6-0.2-17.2,0.1-25.8,0c-2,0.2-3.6-1.1-5.2-2c0,0.5,0.1,1.6,0.1,2.1
		c-2.6,0.1-5.3-0.2-7.5-1.8c-1,3.5-5.5,1.2-7.8,0.1c-0.2,0.4-0.8,1.1-1,1.4c-3,0.4-6.1,0.1-9.1-0.1c-0.4-0.5-1.3-1.4-1.8-1.9
		c-0.3,0.6-0.8,1.6-1,2.2c-3-0.1-6.1,0.3-9-0.4c-3.3-1.1-4.3-4.6-5.9-7.2c-1,0.1-2,0.3-3,0.7c0,0.9,0,1.7-0.1,2.6
		c0.3,0.3,1,1,1.4,1.3c0.7,0,2.2,0.1,2.9,0.1c-0.1,0.8-0.2,2.3-0.3,3.1c-2.1-0.3-4.8-0.4-5.9-2.6c-2.6-3.4,0.9-9.3,5.1-8.1
		c2.8,0.8,3.4,3.9,4.9,6c1.8,2.4,5.1,1.3,7.7,1.5c-0.1-2.4-0.2-4.8-0.1-7.2c0.7-0.1,2-0.4,2.7-0.5c0,2.6,0.3,5.6,2.6,7.3
		c2.2,0.6,4.5,0.4,6.8,0.5c0-2.6,0-5.2,0-7.8c3.6-0.7,2.5,3,3.5,5.1c0.8,1.7,2.6,2.4,4.4,2.8c-0.1-2.5-0.1-5.1-0.2-7.6
		c0.7,0,2.1-0.1,2.8-0.1c-0.4,3.6,1.5,6.9,5.1,8c0.1-2.7,0-5.4,0.1-8.1c0.6,0,2,0.2,2.6,0.2c0,2.7,0.4,6.4,3.6,7.3
		c4.8,0.3,9.8,0.4,14.6-0.1c-1.1-1.3-2-2.8-3.3-3.9c-2.3-0.7-4.8-0.4-7.2-0.4c-0.1-1-0.2-2-0.3-2.9c3.2,0.1,6.7-0.7,9.5,1.3
		c2.1,1.6,3,4.3,5,5.9c2.1,0.4,4.3,0.3,6.5,0.3C212.4,360.4,212.4,355.4,212.3,350.4 M217.4,350.3c0.7,0,2.1,0.1,2.8,0.1
		c0,5.9,0,11.9,0,17.8c-0.7,0-2.1,0-2.8,0C217.4,362.3,217.4,356.3,217.4,350.3 M295.9,358.6c3.4-2.8,6.6-5.8,9.7-8.8
		c0.4,0.7,1.2,1.9,1.6,2.6c-1.8,1.6-3.6,3.1-5.4,4.6c2.8,2,5.2,4.6,5.1,8.2c2.3,0.1,4.6,0.1,6.9,0.1c0-2.5-0.1-5-0.1-7.5
		c0.7,0,2-0.1,2.6-0.1c0.1,3.5,0.2,7,0.3,10.5c-9.3,0.1-18.6,0.2-27.9,0c-6.5-0.9-9.3-9.8-4.5-14.4c3.3,2-0.7,5,0.5,7.7
		c0.8,1.8,2.4,3.7,4.5,3.8c5,0.2,10,0.1,15.1,0c-0.4-3.4-3.6-6.5-7.1-4.8C297,360,296.2,359.1,295.9,358.6 M311.4,350.6
		c1.2,0.1,2.5,0.1,3.7,0.2c0,0.7-0.1,2-0.1,2.7c-1.3,0-2.5,0-3.8,0C311.2,352.7,311.3,351.3,311.4,350.6 M318.3,350.3
		c0.7,0.1,2.1,0.3,2.9,0.4c0.1,3.9-0.4,7.9,0.2,11.8c1,3.9,5.6,2.8,8.5,2.9c0-2.5-0.1-5-0.1-7.6c0.7,0,2.1,0,2.9,0
		c0,3.5,0,7,0.1,10.5c-3.9-0.2-8.2,0.9-11.7-1.3C316.7,362.6,318.9,355.8,318.3,350.3 M64.9,352.2c2.8,0,5.6,0,8.5,0
		c0.1,0.7,0.2,2.1,0.2,2.7c-2.9,0.1-5.9,0.1-8.8,0.1C64.9,354.1,64.9,353.1,64.9,352.2 M146.5,352.1c1.2,0,2.5,0.1,3.7,0.1
		c0,0.9,0,1.9,0,2.8c-1.3,0-2.6,0-3.9,0C146.3,354.1,146.4,353.1,146.5,352.1 M247.7,352.1c1.3,0.1,2.6,0.1,3.8,0.3
		c0.1,0.6,0.2,2,0.3,2.6c-1.4,0-2.8,0-4.2,0C247.6,354.3,247.7,352.8,247.7,352.1 M270.8,352.2c2.9,0,5.7,0,8.6,0c0,0.9,0,1.9,0,2.8
		c-2.9,0-5.8,0-8.7,0C270.8,354.1,270.8,353.1,270.8,352.2 M129.4,357.8c0.7,0,2.1,0,2.8,0c-0.2,4.1,0.3,8.2-0.2,12.3
		c-0.6,3.7-4,6.3-7.7,6.6c0-0.7,0-2,0-2.7c1.9-0.8,4.2-1.5,4.7-3.8C129.8,366.1,129.2,361.9,129.4,357.8 M235.5,357.8
		c0.7,0,2,0,2.7,0c-0.1,2.7,0.6,5.4,2.6,7.3c1.2-3.8,4.3-7.8,8.7-7.3c5.1,0.5,8,5.7,7.6,10.4c-4.9,0-9.8,0.2-14.6,0
		c-1.6,0-2.9-1.2-4.3-1.9c1.2,4.8-2.5,10.4-7.7,10.2c-6.1,0.3-9.9-7.7-6.7-12.6c1.1-2.6,3.9-3.7,6.4-4.4c0.1,0.8,0.3,2.2,0.4,3
		c-1.4,0.5-3.1,0.8-3.9,2.2c-2.5,2.8-0.8,8,2.9,8.8c2.4,0.7,4.7-1.1,5.8-3.1C235.9,366.3,235.5,362,235.5,357.8 M243.4,365.1
		c3.7,0.4,7.4,0.3,11.1,0.1c-1.3-1.7-2.6-4.1-5-4.4C246.5,360.2,245,363.2,243.4,365.1 M260.6,357.9c0.7,0,2-0.1,2.7-0.1
		c0.3,2,0,4.2,1.4,5.8c1.3,2.1,4,1.6,6.1,2c-0.2-2.2-0.7-4.9,1.3-6.5c2.2-2.4,6.4-1.4,7.6,1.5c0.9,2.5,0.5,5.1,0.7,7.7
		c-5.6-0.6-12.1,1.7-16.9-2c1,5-2.4,10.1-7.6,10.4c0-0.6-0.1-1.9-0.2-2.6c2.1-0.9,4.6-2,4.9-4.6
		C260.9,365.7,260.5,361.8,260.6,357.9 M273.7,360.8c-0.1,1-0.7,2.1-0.4,3.1c0.5,1.9,2.8,1.1,4.2,1.6c-0.1-1.7-0.4-3.3-1.1-4.9
		C275.8,360.7,274.4,360.8,273.7,360.8 M325.9,371.3c1.3,0,2.6,0,4,0c-0.1,0.7-0.3,2.1-0.4,2.8c-1.2,0-2.4-0.1-3.6-0.1
		C325.8,373.1,325.8,372.2,325.9,371.3L325.9,371.3z"/>
</g>
</svg>
