<?xml version="1.0" encoding="utf-8"?>
<!-- Generator: Adobe Illustrator 24.3.0, SVG Export Plug-In . SVG Version: 6.00 Build 0)  -->
<svg version="1.0" id="Layer_1" xmlns="http://www.w3.org/2000/svg" xmlns:xlink="http://www.w3.org/1999/xlink" x="0px" y="0px"
	 viewBox="0 0 1080 1080" style="enable-background:new 0 0 1080 1080;" xml:space="preserve">
<style type="text/css">
	.st0{fill:#29166F;}
</style>
<g>
	<path class="st0" d="M222,109.1c69,0,138,0,207,0c0,97.8,0.1,195.7-0.1,293.5c3.4-13.1,8.6-25.8,16.2-37
		c12.2-18.1,29.6-32.8,49.8-41.3c33.9-14.7,75-11,105.6,9.7c24.1,15.8,41.8,41.1,47.9,69.3c0.3-55.7,0-111.5,0.1-167.2
		c-0.2-7.7,0.3-15.4-0.2-23.1c-4.6-17.4-12.7-34.3-25.2-47.4c-14.7-15.7-35.6-24.3-56.7-26.7c-15-1.9-30.1-0.7-45,0.9
		c35.6-17.5,74.8-27,114.3-29.9c16.9-1.5,33.9-0.6,50.8-0.9c43.7-0.7,87.2,17.2,118.2,47.9c27.5,26.6,45.4,62.9,49.5,101
		c1.2,9.3,0.8,18.8,0.9,28.2c0,151.7,0,303.3,0,455c-68.8,0-137.7,0-206.5,0c0-56.7,0-113.3,0-170c-0.1-39.5,0.3-79-0.2-118.5
		c-8,38.1-37.8,70.5-74.9,82.2c-30.6,10-65.5,6.2-92.9-10.8c-25.8-15.6-44.8-41.8-51.5-71.2c0,56.4,0,112.9,0,169.3
		c0.1,5.1-0.3,10.3,0.2,15.4c4.1,15,10.7,29.4,20.4,41.6c11.2,14.3,27.4,24.2,44.9,28.9c18.4,5,37.9,5.1,56.7,2.6
		c0.6,0.4,1.2,0.9,1.9,1.3c-14.4,6.3-29,12.4-44.2,16.5c-23.2,6.6-47.2,10.7-71.3,12.1c-15,1.1-30,0.4-45,0.6
		c-38.4,0.8-76.8-12.3-106.7-36.3c-25-20-44.6-47-54.7-77.5c-4.3-12.3-7-25.2-8.2-38.2c-1.3-18-0.9-36-0.9-54
		C222,393,222,251,222,109.1 M554.5,710.4C554.7,710.7,554.7,710.7,554.5,710.4 M813,806.5c15.8-12.3,29.9-26.5,44.1-40.6
		c-2.1,10.5-10,18.2-16.9,25.8c-9.1,9-18.9,17.2-29,25c-10.9,8.6-21.8,17.1-32.8,25.5c-2.6,16.2-7.2,32.4-6.2,49
		c0.4,2.2,0.8,4.9,2.9,6.2c2,1.5,5.3,2.6,7.1,0.3c1.5-2.7,2.1-5.8,4-8.3c1,5.4-1.2,10.6-2.7,15.7c-1.6,4.2-3.8,9.5-8.8,10.5
		c-3.9,0.2-7.2-2.9-8.2-6.5c-2.8-8.8-0.7-18,0-26.9c-4.7,5.9-8.5,12.6-14.5,17.4c-12.3,10.6-28.6,15.4-44.4,17.5
		c-9,0.8-18,1.3-27-0.1c-3.7-0.8-7.8-1.9-9.8-5.4c-2.2-3.8-1.9-8.3-1.8-12.5c0.3-3.9,0.2-8.2,2.8-11.4c1.1,3.1,2.2,6.2,3.2,9.2
		c4.2,3,9.3,3.8,14.4,4.2c18.4,0.7,37.3-0.9,54.2-8.6c10.7-4.5,20.6-12.8,23.8-24.4c1.7-6.9,3.3-13.9,7-20
		c3.9-5.9,5.4-13.3,10.8-18.2C794,821.4,803.6,814.1,813,806.5 M608.8,847.4c0.5-1.2,1.4-2,2.3-2.8c-1.7,13.1-4,26.1-5.1,39.3
		c-0.3,4.7,0.1,9.8,2.9,13.8c2.3,2.6,6.3,3.4,9.6,2.6c5.9-0.9,6.9-8.3,12.2-10.1c1.9,0.7,3.8,1.3,5.8,1.9c4.6-5.2,7-12.1,12.2-16.9
		c1.8-1.7,4.2-2.4,6.4-3.2c2.1,0.9,5.1,1,5.9,3.5c1.1,7.1-2.4,13.9-6.8,19.2c-4.3,5.7-11.2,10.1-18.5,9.5c-3.2,0.1-6.2-1.4-9-2.7
		c-3.4,3.7-5.5,8.3-9.3,11.5c-4.3,3.7-11.9,3.5-15.1-1.5c-3.4-5-3.5-11.5-3-17.3c0.7-10.3,2.3-20.5,3.9-30.7
		C604,857.8,606.5,852.6,608.8,847.4 M648.8,881.2c-3.7,2.8-5.8,7.1-7.9,11.1c5.9-0.3,11.1-3.5,14.8-7.9c0-0.8-0.1-2.3-0.2-3.1
		C653.3,881,650.8,879.7,648.8,881.2 M803.6,850.1c0.9-2,1.6-4.2,3.5-5.4c-1.7,12.5-3.8,25-4.9,37.6c-0.2,4.3-0.7,8.9,1.1,13.1
		c1.2,2.6,4.3,3.8,7,3.7c3.1-1.4,3.4-5.2,4.5-8c0.5-0.3,1.4-0.8,1.8-1.1c0.1,5.8-1.8,11.3-3.7,16.6c-1.6,3.8-3.9,8.3-8.4,9
		c-3.6,0.1-6.7-2.5-7.9-5.8c-2.1-6-1.9-12.4-1.3-18.6c0.8-9.3,2.3-18.6,3.7-27.9C799.7,858.6,801.8,854.4,803.6,850.1 M787,849.5
		c3.6,2.6,8.3,5.5,8.5,10.6c-0.7,4.7-3.3,9-7,12c-3.2-2.4-6.5-4.7-9.1-7.8C781.8,859.3,784,854.2,787,849.5 M341.4,852.6
		c0.7,5.2-0.9,10.3-1.2,15.5c-1.5,10.3-1.6,21-6.4,30.5c-2.3,4.4-3.8,9.9-8.3,12.7c-0.7-1.8,0.2-3.6,0.5-5.3
		c2.9-9.6,4.9-19.5,5.7-29.5c0.4-5.4,3-10.1,5-15C338.1,858.3,339.6,855.3,341.4,852.6 M406.1,853c0.2,0.4,0.7,1.3,1,1.7
		c-1.8,10.8-2.4,21.7-4.3,32.5c-1,5.7-3.5,10.9-6.1,16c-1.7,3.1-2.9,6.8-6.3,8.3c0.8-7.3,3.6-14.2,4.7-21.5c1.8-7.4,1-15.2,4.1-22.3
		C401.3,862.9,403.1,857.6,406.1,853 M523.2,867.9c2.3-5.1,3.8-10.6,7.4-15.1c0.6,3.7-0.4,7.4-0.7,11.2c-0.9,7.6-1.7,15.1-2.9,22.7
		c-1.3,7.6-5.1,14.5-8.6,21.2c-0.8,1.8-2.4,2.8-4,3.8c0.8-7.3,3.6-14.2,4.7-21.4C520.8,882.8,520.1,874.9,523.2,867.9 M462.8,870.8
		c2-5.4,4.7-10.5,7.7-15.4c3.8,2.6,7.4,5.7,8.7,10.2c-1.5,4.3-2.8,10.4-7.7,12C468.3,875.8,465.6,873.2,462.8,870.8 M446.8,871.7
		c2.1-5.3,4.5-10.5,7.7-15.3c3.7,2.6,8,5.6,8.3,10.6c-0.5,4.6-3.3,8.6-6.3,12C452.9,877.1,449.8,874.5,446.8,871.7 M579.8,860.5
		c3.2,3.5,7.3,6.4,9.2,11c2.2,5.3,1.9,11.2,0.5,16.7c-3,12.3-12.3,23.1-24.4,27.2c1.8-5.6,7.3-8.6,10.7-13.2
		c2.7-3.6,5.7-7.6,5.7-12.3c-1-5.5-5.6-9.3-9.6-12.7C574.2,871.6,576.6,865.8,579.8,860.5 M375.2,874.6c4.4-2.2,6.7-6.8,10.3-10
		c-0.3,5.7-2.4,11.2-5.4,16.1c-2.6,4.4-8.1,5-11.7,8.1c-7,6.2-6.2,17.6-14.2,22.9c-4.8,2.7-10.4,3.7-15.9,3.7
		c-0.5-0.3-1.4-0.9-1.8-1.2c5.6-6.3,14-9.2,20-15.2c4.1-4.8,5.3-11.2,8.6-16.6C367.5,878.8,371.4,876.6,375.2,874.6 M320.1,873.1
		c0.2,0.4,0.7,1.3,1,1.7c-2,11.1-1.5,22.5-4.6,33.5c-3.3,14.6-10.8,28.8-23.3,37.5c-7.2,5.4-16.9,7.3-25.6,5.4
		c-7.5-1.7-12.8-8.8-13.8-16.2c-1.6-12.1,2.9-23.9,8.1-34.5c2.3-4.2,4-8.8,7.8-11.9c0.2,5.1-2.9,9.4-4.8,14
		c-3.1,6.7-6.3,14.2-4.2,21.7c1.1,4.6,4.5,8.6,9.2,9.8c9.9,2.5,21.2,0.4,29.2-6.1c4.5-3.6,8.3-8.3,10.8-13.5
		c3.6-8.8,0.7-18.6,3.5-27.5C314.7,881.8,317.6,877.4,320.1,873.1 M500.2,888.8c4.1-2.1,6.4-6.2,9.2-9.7c0.9,5.5-1.9,10.7-4.5,15.3
		c-5,8.2-13.9,12.7-22.7,15.5c-11.5,3.6-23.6,5-35.6,5.6c-7.6,0.2-15.3,0.1-22.6-2.1c-5-1.4-10.1-5.7-9.6-11.4
		c0.4-6.4,1.3-13,3.8-19c2.4,3.5,1.1,9,5.3,11.2c5.2,2.9,11.3,3.4,17.2,4c8.6,0.9,17.3,0.2,25.9-0.4
		C478.1,896.7,489.9,894.5,500.2,888.8 M554.8,896.2c3.8-3.8,5-9.6,9.3-13.1c-0.7,16.7-14.6,31.1-30.9,33.7c0.9-2,2.1-3.9,3.9-5.2
		C543.2,906.8,549.3,901.8,554.8,896.2 M279.8,903.7c2.3-5.3,4.7-10.4,7.9-15.2c4.4,2.5,9.2,5.7,9.9,11.2c-1.1,4.4-3.8,8.4-7.4,11.2
		C286.3,909.3,283.1,906.2,279.8,903.7 M792.7,960.2c2.3-5.1,4.6-10.2,7.6-15c3.6,2.5,7.8,5.3,8.6,10c-0.6,4.9-3.1,9.7-7.2,12.5
		C798.6,965.3,795.6,962.9,792.7,960.2 M375.9,948.5c3.2,2.3,6.9,4.5,8,8.6c0.9,5.4-2.5,10.5-6.4,13.9c-3.3-2.2-6.4-4.6-9.3-7.3
		C370.4,958.4,372.7,953.2,375.9,948.5 M352.5,964.7c1.4-5.5,4.5-10.5,7.4-15.4c3.1,2.5,6.9,4.7,8,8.7c1,5.5-2.6,10.5-6.4,13.9
		C358.4,969.7,355.1,967.6,352.5,964.7L352.5,964.7z"/>
</g>
</svg>
