<?xml version="1.0" encoding="utf-8"?>
<!-- Generator: Adobe Illustrator 24.3.0, SVG Export Plug-In . SVG Version: 6.00 Build 0)  -->
<svg version="1.0" id="Layer_1" xmlns="http://www.w3.org/2000/svg" xmlns:xlink="http://www.w3.org/1999/xlink" x="0px" y="0px"
	 viewBox="0 0 1080 1080" style="enable-background:new 0 0 1080 1080;" xml:space="preserve">
<style type="text/css">
	.st0{fill:#FFFFFF;}
	.st1{fill:#AD2F21;}
	.st2{fill:#A6AAAD;}
	.st3{fill:#F69636;}
</style>
<g>
	<path class="st0" d="M733.5,603.9c1.2-1.5,3.1-0.2,4.6-0.1c-0.1,1.4-0.2,2.8-0.3,4.2c-0.6,0.2-1.8,0.6-2.5,0.8
		c-0.7-0.2-2-0.7-2.6-0.9C733,606.7,732.4,604.9,733.5,603.9 M712,603.7c0.9,0,2.7,0,3.6,0c0,1.8,0,3.5,0,5.3
		c-1.2-0.3-2.3-0.8-3.4-1.4C712.1,606.3,712,605,712,603.7L712,603.7z"/>
	<path class="st1" d="M534.9,257.4c15.4-4.9,31.8-6.5,47.9-4.8c15.5,2.3,31.2,5.9,44.6,14.2c9.1,5.5,16.7,14.2,19.1,24.8
		c3.2,15.6-2.5,31.4-10.8,44.4c-4.4,6.1-12.2,8.2-19.2,9.4c-19.2,2-38.3-2.6-56.6-8.3c-12.2-3.7-23.9-9.6-36.8-10.8
		c-15.4-2.2-31.5,1.1-44.8,9.3c-17.8,10.9-30.8,28.1-40.8,46.1c-11.4,20.9-19.5,43.5-25.8,66.4c-5.2,18.7-9.1,37.8-11.8,57
		c-2.2-8.6-1.8-17.6-2.4-26.4c-1.6-49.1,12.1-98.8,39.2-139.8c8.4-12.1,17-24.1,27.3-34.7C483.5,283.6,507.4,266,534.9,257.4
		 M664.9,311.5c2.7,18.3,2.5,36.9,1.4,55.3c-2.8,31.2-11.7,61.9-25.9,89.8c-5.4,10.6-11.6,20.8-18.9,30.2
		c-16.8,24.2-38.3,45.4-63.8,60.3c-19.4,11.4-41.8,17.9-64.3,17.9c-12-0.5-23.9-2.5-35.4-5.9c-14.1-4.2-28.7-11.4-36.3-24.6
		c-4.8-8-5.1-17.7-3.9-26.7c2-9.9,6-19.5,11.8-27.8c4.1-5.1,10.8-6.9,16.9-8.3c22.9-2.8,45.6,3.7,67.1,11c12.3,4.9,25.3,9,38.8,8.4
		c20.2,0,38.9-10.6,52.4-24.9c18.3-19.5,30-44.1,39.1-69C653.9,369.5,660.3,340.6,664.9,311.5 M566.1,641.8c7.1-0.1,14.3-0.1,21.4,0
		c4.4-0.1,8.5,2.6,10.4,6.5c1.2,2.7,1.5,5.6,1.5,8.4c0,27.3,0,54.7,0,82c-0.1,6.5-0.5,13.4-3.9,19.2c-7,12.4-20.8,19-34.2,22
		c-30.7,0.5-61.3-0.4-92-0.2c-11-0.6-22-0.3-33-0.4c-7.2,0-14.6,0.4-21.4-2.1c-2.7-0.9-4.4-3.2-5.9-5.4c-3,5-7.5,9.5-13.3,10.9
		c-4.7,1.5-9.6,1.4-14.4,0.6c-8.3,15.6-20.6,29.5-36.3,37.9c-13.3,7-29.1,9.6-43.9,6.5c-11.5-2-22.5-7.8-30.4-16.4
		c-7.6-8-12.6-18.2-14.9-28.9c-1.1-6.9-0.8-13.9-0.2-20.7c0.7-4.6,1.5-9.5,4.8-13.1c11.6-14,24.2-27.1,37.2-39.8
		c7.1-8,22.3-6.2,27.1,3.5c2.4,5,3.4,10.7,2.4,16.1c-0.3,2.2-2.2,3.6-3.7,5.1c-10.1,9.2-20.1,18.6-29.9,28.2c-1.8,2-4.3,3.9-4.3,6.8
		c-1,8.4,3.1,17.5,10.4,21.8c11.3,0.3,22.6,0,33.9,0.2c7.1,0.9,12-6.1,13.5-12.2c0.2-28.4,0-56.8,0.1-85.3
		c5.1,0.3,10.2,0.9,15.3,0.8c3.5,0.1,7.2,0,10.5,1.2c4.1,1.8,6.8,6.1,7,10.5c0.3,9.7-0.2,19.3,0.2,29c0.4,6.1,6.5,9.6,12,10.3
		c0.7-10.8,0.4-21.5,0.5-32.3c0.4-6.7,0.2-13.3,0.3-20c7.1,0,14.2-0.2,21.4,0.1c5.8,0.2,11.3,5,11.5,11c0.3,10.3-0.1,20.7,0.1,31
		c0,5.7,6,9.6,11.3,9.3c27.3-0.1,54.7,0.1,82,0c-0.1-6.7,0.2-13.5-0.1-20.2c-0.9-3.8-3.4-7.1-5.9-10c-4.1-4.5-11.1-6.8-16.8-3.8
		c-10.4,4.9-17.6,14.3-25.2,22.6c-10.4,2.7-21.6,3.1-32.1,0.3c-2.9-1.4-1.7-5.1-1.1-7.4c3.2-10.8,10.1-20.1,17.8-28.2
		c9.6-10.1,21.8-18.3,35.7-21.2c12.9-1.8,26.8-0.6,38,6.6c11.2,6.7,19.7,17.9,23.4,30.4c0.4,8.9,0,17.9,0.2,26.8
		c-0.4,3.1,2.9,5,5.5,5.6c4.4-0.5,8-5.2,7.6-9.6C566,704.5,566,673.2,566.1,641.8 M615.5,642.4c8.4-0.6,17.6-2.1,25.4,1.9
		c3.3,1.4,5.3,4.9,5.1,8.5c0,15,0,30,0,45c0.7,12,0.2,24,0.4,36c-0.2,6.3,5.8,11.3,11.9,10.8c0.1-17.1-0.1-34.3,0.1-51.4
		c5.9,0.1,12-0.4,17.8,0.9c4.4,0.9,9.2,2,12.3,5.5c1.8,1.9,1.7,4.7,1.8,7.2c0,8,0,16,0,23.9c1.8-0.2,3.5-0.3,5.3-0.4
		c9.7-14.6,21.5-28,35.6-38.6c13.5-10,30.1-17.4,47.2-15.8c14.3,1.5,26.4,11,34,22.8c6.3,9.9,10.7,21.4,10.8,33.2
		c-1.3,12-6.5,23.4-13.8,33c-6,7.7-14.9,14.1-25,13.9c-41.7,0.2-83.4,0-125,0.1c-11.5,0.4-22.8-4.2-31.5-11.6
		c-8.3-7.3-13-18.5-12.5-29.5C615.5,706,615.1,674.2,615.5,642.4 M759.1,716.5c-10.7,8.5-20.9,17.7-30.3,27.5
		c14.2,0.3,28.4,0.1,42.7,0.2c8.3-0.1,15.1-8.2,14.4-16.4C786.2,714.9,768,708,759.1,716.5 M313.8,657.4
		c10.3-2.2,21.4,6.8,20.7,17.4c0.7,9.7-8.5,18.2-18,17.7c-8.8,0-17-7.7-17.1-16.6C298.5,667.1,305.3,658.8,313.8,657.4 M390.3,800.6
		c4.6-6.3,13.6-8.6,20.8-5.6c3.5,1.3,6,4.2,8.5,6.8c2.4-2.5,4.8-5.3,8.2-6.6c7.1-3.1,16.3-1,21,5.3c4.2,5.1,4.7,12.7,2,18.6
		c-3.1,6.4-10.3,10.7-17.4,10c-5.6-0.4-10.4-3.9-13.8-8.1c-2.4,2.6-5,5.3-8.3,6.6c-7,3.3-15.9,0.9-20.6-5.1
		C385.5,816.5,385.4,806.9,390.3,800.6L390.3,800.6z"/>
	<path class="st2" d="M523.8,363.3c7.8-1,16-0.9,23.5,1.7c15.5,5.2,27.7,19.2,30.5,35.3c2.1,10.4,0.2,21.5-4.8,30.9
		c-7.1,13.4-21.3,22.8-36.5,23.9c-8.2,0.7-16.6-0.5-24.1-4.1c-12.7-6-22.5-18-25.5-31.8c-3.2-13,0.1-27.3,8-38
		C501.8,371.9,512.3,365.3,523.8,363.3L523.8,363.3z"/>
	<path class="st3" d="M388.5,586.9c2.2,0,4.3,0.1,6.5,0.1c0.1,6.9-0.4,13.8,0.2,20.6c2.4,2.2,6.2,1,9.2,1c0.2-2.9,0.3-5.7,0.3-8.5
		c2.1,0,4.2,0,6.2,0c0.3,2.7,0.6,5.5,0.9,8.2c4.2,0.6,8.7,1.3,12.8-0.2c0.8-2.6,0.8-5.4,1-8.1c2.1,0,4.1,0,6.2,0
		c0.1,2.8,0.1,5.7,0.3,8.5c1.7,0,3.5,0.1,5.2,0.1c0.1-3.6-0.5-8.4,3.2-10.6c4.7-2.4,10.9-1.4,14.5,2.5c-1,1.7-2,3.4-2.9,5
		c-2.5-1.2-5.1-2.2-7.9-2c0.1,1.5-0.3,3.2,0.6,4.6c3.6,0.9,7.3,0.7,10.9,0.9c0.1,2.1,0.2,4.2,0.3,6.2c-9-0.1-18,0.3-26.9-0.3
		c-3.6-0.1-7.2,0.4-10.8,0.4c-4.4,0.1-8.8-0.7-13.2-0.2c-4,0.2-8.1,0.6-12.1-0.3c-3.1-0.8-4.7-4.1-4.6-7
		C388.4,600.9,388.5,593.9,388.5,586.9 M551.1,587c2.2,0,4.3,0,6.5,0c0.2,6.6,0.2,13.3,0.1,19.9c0,3.3-1.5,7.1-4.9,8.2
		c-2.7,0.5-5.5,0.4-8.3,0.6c-1,2.8-1.7,6.2-4.4,8c-3.7,2.6-8.6,2.1-12.9,2c-3.6,0-7.2-1.6-9.1-4.8c-3-5-2.2-11.1-2.2-16.7
		c2.2,0,4.4,0,6.6,0c0.5,4.5-1.2,9.7,1.6,13.6c3,1.8,6.7,1.5,10.1,1.1c1.2,0,3.8-2,2-3c-2.4-0.7-5-0.5-7.5-0.7
		c-0.2-2.1-0.3-4.2-0.4-6.3c7.4-0.4,15,0.9,22.3-0.8C551.4,601.1,550.6,594,551.1,587 M563.1,587c2.2,0,4.3,0,6.5,0
		c0.5,7.1-0.3,14.2,0.4,21.2c1.4,0.4,2.8,0.5,4.1,0.7c0.5-4.1,0.8-9.1,4.9-11.3c3.4-1,8.2-1.4,10.5,2c4,4.5,2.7,12.9-3,15.4
		c-3.7,1.8-7.4-1.5-11.1-0.2c-2.9,0.8-6.1,1-8.8-0.3c-3.1-1-3.7-4.8-3.7-7.6C563,600.2,562.9,593.6,563.1,587 M581,604.4
		c-0.2,1.3-0.2,2.6-0.2,3.9c1.5,0.1,3,0.2,4.6,0.4c0.1-1.5,1-3.2-0.2-4.6C584.3,602.5,581.8,603,581,604.4 M462.2,588.5
		c2,0,4.1,0,6.1,0c0.1,8.9,0,17.9,0,26.9c-2.1,0-4.1,0-6.2,0C462,606.4,461.9,597.4,462.2,588.5 M417.7,592c1.6-1.3,3.5-0.1,5.2,0.1
		c2.7,1,5.6-2,8,0c1.9,1,1.3,3.4,0.9,5.1c-2.1,2.4-5.1,0.9-7.5-0.1c-2,0.6-4.1,2-6.2,1.1C415.8,597,415.3,593.3,417.7,592
		 M606.2,603.5c1.9-3.8,3.4-8,6.9-10.8c4.8,4.6,9,9.9,13.9,14.5c2.4,2.4,6,1.6,9,1.2c0.3-2.8,0.5-5.6,0.7-8.3c2.1,0,4.2,0.1,6.3,0.1
		c0.2,3.5-1,7.8,2.5,10.1c1-3.3,1.1-6.7,1.2-10.1c2.1,0,4.2,0.1,6.3,0.1c0.3,3.2-1.2,7.9,2.6,9.6c1.9-2.8,1.1-6.4,1.2-9.6
		c2.1,0,4.2,0,6.3,0c0.2,2.8,0.4,5.6,0.7,8.4c3,0.5,6.1,0.5,9.1,0c0.1-2.7,0.1-5.5,0.2-8.2c2.2,0,4.4,0,6.5,0c0.3,3.4-0.9,8,2.9,9.9
		c0.9-3.3,1.1-6.7,1.2-10c2.1,0,4.2,0,6.3,0c0.5,3.1-1.4,8.4,2.6,9.5c2.4-2.5,1.1-6.3,1.3-9.4c2.1,0,4.2,0,6.3-0.1
		c-0.3,4.9,1.8,11.2-2.8,14.7c-2.4,2.2-5.6,1.1-8.3,0.3c-2.3-0.9-4.5,0.9-6.7,1c-2.4-0.5-4.7-2.4-7.2-1.4c-5.6,1.8-11.4-0.2-17.1,1
		c-2.4,0.7-4.7-0.5-7-1c-2.9,0.3-5.6,2.2-8.5,0.8c-4-1.8-8.2,0.5-12.3,0c-2.9,0.2-5.4-1.3-7.9-2.7c-3.2,1.7-7,4.4-10.7,2.6
		C607.1,613.8,604.1,608.2,606.2,603.5 M613.6,602.7c-1.3,2.1-2.3,4.5-1.2,7c1.6-0.1,3.1-0.2,4.7-0.3
		C617.9,606.3,616,604.1,613.6,602.7 M347.2,599.5c3-3.8,8.4-2.3,12.5-2.6c0.1,2,0.2,4.1,0.2,6.1c-2.4,0.1-4.9,0.2-7.3,0.3
		c-0.3,0.7-0.8,2.1-1.1,2.8c3,1.3,7.7,0.7,9.1,4.3c1,4.3,0.3,9.5-3.2,12.4c-3.7,3.6-9.4,2.8-14.1,2.8c-5.5,0-9.9-4.8-10.6-10
		c-0.5-3.8-0.2-7.7-0.1-11.6c2.2,0,4.3,0.1,6.5,0.1c0.1,3.8-0.5,7.7,0.5,11.4c1.7,4.3,7.1,3.9,10.9,3.5c2.3-0.2,5.8-3.5,3.3-5.5
		c-2.8-0.9-5.7-0.9-8.6-1.1C345,608.1,344.2,603.2,347.2,599.5 M488.8,597.4c3.1-0.7,6.7-0.9,9.7,0.3c4.2,4.2,3.5,10.7,3.6,16.2
		c0.3,5-3.3,9.9-8.1,11.3c-3.3,0.8-6.8,0.5-10.2,0.3c-0.1-2.1-0.2-4.2-0.3-6.2c3.9-0.2,8.8,0.8,11.3-3c-3.4-1.5-8.9-1.8-9.6-6.5
		C484.7,605.6,484.3,599.6,488.8,597.4 M491.7,604c0.1,1.4,0.2,2.8,0.3,4.2c1.1,0.2,2.2,0.4,3.3,0.6c0-1.6-0.1-3.2-0.1-4.8
		C493.9,604,492.8,604,491.7,604 M706.9,599.3c1.4-2.2,4.2-2.3,6.5-2.4c2.1,0,4.6,0,6.2,1.7c2.7,2.6,2.5,6.8,3.2,10.2
		c1.3-0.1,2.6-0.3,3.9-0.4c0.4-4,0.8-9.3,5.1-11.1c3.1-0.6,7.1-1,9.5,1.6c4.4,4.3,3.6,12.9-2,15.7c-3.1,2-6.5,0-9.7-0.4
		c-2.3,0.4-4.5,1.2-6.8,1.8c-1.3,2.9-2.7,6-5.5,7.8c-3.8,2.6-8.6,1.8-12.9,1.9c-0.3-2.1-0.6-4.3-0.9-6.4c4.2,0,9,0.5,12-3
		c-2.8-1-5.8-1.6-8.3-3.2C704.2,609.1,704.4,603.4,706.9,599.3 M733.5,603.9c-1.1,1-0.5,2.8-0.7,4.1c0.6,0.2,2,0.7,2.6,0.9
		c0.6-0.2,1.8-0.6,2.5-0.8c0.1-1.4,0.2-2.8,0.3-4.2C736.6,603.7,734.7,602.4,733.5,603.9 M712,603.7c0,1.3,0.1,2.6,0.3,3.9
		c1,0.6,2.1,1.1,3.4,1.4c0-1.8,0-3.6,0-5.3C714.7,603.7,712.9,603.7,712,603.7 M376.7,600.1c2.1,0,4.3,0,6.4,0
		c-0.5,7.5,2.2,16.7-4,22.5c-3.7,4-9.5,3.1-14.4,2.9c-0.1-2.1-0.3-4.3-0.5-6.4c3.9-0.7,9.8,0.9,11.9-3.5
		C377.3,610.5,376.5,605.3,376.7,600.1 M402.9,618.3c2.7,0.1,7-1.2,7.6,2.6c1,4.3-5.1,6.2-7.8,3.5
		C401.6,622.4,402.5,620.3,402.9,618.3L402.9,618.3z"/>
</g>
</svg>
