<?xml version="1.0" encoding="utf-8"?>
<!-- Generator: Adobe Illustrator 24.3.0, SVG Export Plug-In . SVG Version: 6.00 Build 0)  -->
<svg version="1.0" id="Layer_1" xmlns="http://www.w3.org/2000/svg" xmlns:xlink="http://www.w3.org/1999/xlink" x="0px" y="0px"
	 viewBox="0 0 1216.1 1080" style="enable-background:new 0 0 1216.1 1080;" xml:space="preserve">
<style type="text/css">
	.st0{fill:#7CD0F5;}
	.st1{fill:#02AAE8;}
	.st2{fill:#006FB8;}
	.st3{fill:#024B8F;}
</style>
<g>
	<path class="st0" d="M690.2,43.9c1.8-1.7,4.4-5.5,7.1-3.1c20.9,25,36.4,54.8,42.7,86.9c6-2.4,11.2-6.3,17-8.9
		c38.3-19.3,79.4-32.4,121-43c1.3-0.3,2.7-0.5,4.1-0.6c-0.6,19.4-3,38.8-6.6,57.9c-4.3,23.6-10.6,47-19.9,69.2
		c-1.2,3-2.8,5.9-3.3,9.2c46.4,1,91.6,14.4,134,32.6c0.1,0.2,0.3,0.6,0.4,0.8c-29.1,37-60.6,72.6-97.5,102.1c-4.6,3.8-9.6,7-14,11
		c28.4,23.9,48.3,56.5,61.9,90.7c-42.3,17.9-86.1,33-131.7,39.8c1.5,12.8,2.1,25.8,1,38.7c-1.4,13.3-3.9,26.6-7.6,39.4
		c-1,3-1.4,6.3-3.2,9c-24.7-2.2-49.4-5.4-73.5-11.5c-7.5-1.9-15-3.9-22.2-6.8c-1.6-0.6-3.3-0.9-5-1.2c-7.2,14.6-16.8,27.8-28.2,39.3
		c-4.9,4.8-9.5,9.9-15.1,13.9c-1.4,0.8-3,0-4.2-0.8c-18.1-11.8-36-24.3-50.9-40.1c-2.1-2.1-4-4.3-6.3-6.2
		c-14.5,10-31.2,16.2-48.2,20.5c-2,0.4-4,0.6-6,0.8c-8.8-14.3-16.9-29.1-22.4-45c-1.7-3.8-2.1-8.2-4.4-11.8
		c-17,1.8-34.3-0.6-50.6-5.5c-2.6-14.9-2.6-30.2-1.9-45.2c0.5-3.8,0.5-7.6,1.7-11.3c9,2.9,18.3,4.9,27.8,4.5c8,0.4,15.8-0.9,23.7-2
		c-3.4,19.5-5.2,39.9,0.2,59.3c19-1.9,35.1-13.1,50.3-23.8c5.7,19.7,13.9,39,26.6,55.2c1.3,1.6,3.1,3.9,5.4,2.5
		c9.4-6.3,16.3-15.6,22.3-25.1c5.5-7.9,9.2-16.8,13.4-25.4c17.9,18.1,38.6,34,62.2,43.8c1.6,0.7,3.4,0.9,5.1,1.1
		c4.9-11.4,7.9-23.5,8.2-35.9c0.5-12.9,0.1-25.9-2.1-38.7c33.7,8.1,68.8,13.4,103.3,8c-3.1-19.9-13.2-37.9-25.1-53.9
		c-6.2-8.7-13.5-16.4-20.6-24.4c18.8-4.9,37.2-11.3,55.2-18.7c21.2-8.7,41.5-19.6,60.1-33.2c-10.7-10.3-24.2-17.3-37.7-23.2
		c-20.7-8.2-42.2-14.7-64.3-17.8c0-0.4,0.1-1.2,0.2-1.6c12.3-11.8,24.3-23.8,35.1-37c13.6-16.1,26.5-33,36.2-51.7
		c2.6-5,5.6-9.9,7.2-15.3c-10.7-0.7-21.4,0.3-32,1.4c-16.3,1.8-32.2,6.1-48,10.3c-15.1,4.3-30,9.7-44.6,15.5
		c6.7-20.1,11.3-40.8,14.2-61.7c1.2-11.1,2.2-22.4,1-33.6c-0.5-5-0.7-10.2-2.4-15c-16.1,9.3-31.6,19.9-45.4,32.5
		c-17.3,14.8-33.3,31-48,48.3c-3.4-10.7-6-21.6-10.9-31.8c-6.7-15.3-14.8-31.2-28.9-40.9c-9.8,14.2-17.8,29.4-24.5,45.3
		c-6.7,15.9-12.5,32.2-16.6,48.9c-17-13.5-36.9-25.9-59.3-26.2c-2.8,11.6-3.5,23.6-3.2,35.5c0.2,14.7,2.1,29.3,4.6,43.8
		c-18.4-0.7-37.9,0.5-54.3,9.7c-2,0.7-1.5,3.1-1.2,4.7c4.4,17,13.9,32.1,24.3,46.1c1.1,1.8,4.1,3.6,2.6,5.9
		c-15.6,8.9-31.6,19.1-41.2,34.9c5.9,6.5,12.3,12.7,20.1,16.9c7.7,4.9,16.2,8.4,24.6,11.9c-11,15.1-20.7,32.1-23.5,50.8
		c-11.6-4.5-22.2-11.5-32-19.1c-3.8-2.8-7-6.4-10.8-9c4-18.2,11.5-35.6,21.3-51.5c-3.3-5.2-7.5-9.7-10.6-15.1
		c-7.2-11.3-13-23.5-17.8-36c2.7-4.1,5.9-7.9,9.2-11.4c7-7.3,14-14.7,22.2-20.7c3.3-2.4,6.8-4.6,10.1-7c-0.1-4.3-1.3-8.5-2-12.8
		c-3.7-20.4-3.9-41.3-3.3-62c2.5-0.8,4.9-1.9,7.3-3c16.7-7.7,34.9-12.3,53.4-12.7c6.3-32.8,18.8-64,31.9-94.6
		c16.7,1.3,33.1,6.3,48.3,13.2c7.4,3.5,14.2,8.1,20.7,13c8.5-11.3,16.7-22.8,26.2-33.4C644,88.6,656.9,76,669.6,63.3
		C676.4,56.8,683.1,50.1,690.2,43.9L690.2,43.9z"/>
	<path class="st1" d="M694.1,160.8c13.8-12.6,29.3-23.2,45.4-32.5c1.7,4.8,1.9,9.9,2.4,15c1.2,11.2,0.2,22.5-1,33.6
		c-2.9,21-7.5,41.7-14.2,61.7c14.6-5.8,29.4-11.2,44.6-15.5c15.8-4.2,31.7-8.5,48-10.3c10.6-1.1,21.3-2,32-1.4
		c-1.7,5.4-4.6,10.3-7.2,15.3c-9.8,18.7-22.6,35.6-36.2,51.7c-10.8,13.2-22.9,25.2-35.1,37c0,0.4-0.1,1.2-0.2,1.6
		c22.1,3.1,43.6,9.6,64.3,17.8c13.5,5.9,27,12.9,37.7,23.2c-18.5,13.6-38.8,24.5-60.1,33.2c-18,7.3-36.4,13.8-55.2,18.7
		c7.1,8,14.4,15.7,20.6,24.4c11.9,16,22,33.9,25.1,53.9c-34.5,5.4-69.7,0.2-103.3-8c2.2,12.8,2.6,25.8,2.1,38.7
		c-0.3,12.4-3.3,24.6-8.2,35.9c-1.7-0.2-3.5-0.4-5.1-1.1c-23.7-9.8-44.4-25.7-62.2-43.8c-4.2,8.6-7.9,17.5-13.4,25.4
		c-6,9.4-12.9,18.7-22.3,25.1c-2.3,1.3-4.2-0.9-5.4-2.5c-12.7-16.2-20.9-35.5-26.6-55.2c-15.2,10.6-31.3,21.9-50.3,23.8
		c-5.4-19.3-3.7-39.8-0.2-59.3c-7.9,1.1-15.7,2.4-23.7,2c-9.5,0.5-18.8-1.6-27.8-4.5l0-0.2c2.9-18.7,12.5-35.7,23.5-50.8
		c-8.4-3.5-16.9-7-24.6-11.9c-7.8-4.2-14.2-10.3-20.1-16.9c9.6-15.7,25.6-25.9,41.2-34.9c1.4-2.3-1.5-4.1-2.6-5.9
		c-10.4-13.9-19.9-29.1-24.3-46.1c-0.3-1.6-0.8-4,1.2-4.7c16.4-9.2,35.9-10.4,54.3-9.7c-2.4-14.5-4.4-29.1-4.6-43.8
		c-0.4-11.9,0.3-23.9,3.2-35.5c22.4,0.3,42.3,12.6,59.3,26.2c4.1-16.7,9.9-33,16.6-48.9c6.6-15.8,14.7-31.1,24.5-45.3
		c14.1,9.7,22.2,25.6,28.9,40.9c4.9,10.1,7.5,21.1,10.9,31.8C660.8,191.7,676.8,175.5,694.1,160.8 M627,233.8
		c-5,7.4-10.1,14.8-14.3,22.7c-4.5,6.8-7.5,14.5-11.5,21.6c-4.2-6.9-7.3-14.4-12.2-20.9c-6.8-9.7-14.5-18.9-23.9-26.2
		c-5.9,22.2-9.1,45.2-8.1,68.2c-1.7-0.5-3.3-1.2-4.8-2c-12.3-6.9-26-11-40-12.7c-1.6-0.3-3.2-0.2-4.8,0c1.9,6,3.1,12.2,5.2,18.2
		c3.7,12,9.2,23.4,15.5,34.2c-13,0.7-25.8,3.8-37.9,8.2c-3.3,1.5-6.9,2.4-9.7,4.8c7.8,8.2,15.8,16.4,25.5,22.4
		c4,2.8,8.4,4.8,12.4,7.6c-13.8,8.9-25.7,20.5-35.9,33.3c1.2,0.7,2.5,1.4,3.9,1.7c8.8,2.3,17.8,4.4,27,4.7c4.9,0.1,9.8,0,14.6-0.1
		c-2.8,6.4-6.6,12.4-9.1,19.1c-3.4,9.2-7.4,18.5-8.3,28.3c12.6-2.1,24.6-6.7,35.8-12.9c2.8-1.7,5.5-3.5,8.6-4.8
		c-0.4,13-0.4,26.1,2.4,38.8c1,4.6,1.5,9.5,3.5,13.8c3.9-3.2,7.7-6.7,11.2-10.3c9-8.5,15.9-18.9,22.1-29.5c2.5,2.5,3.5,6.1,5.3,9.1
		c7.4,13.6,16.6,26.3,27.5,37.3c1.5,1.5,2.4-1.1,2.8-2.1c5.8-16.9,10-34.6,9.4-52.5c0.3-0.3,0.8-0.8,1.1-1.1
		c18.5,12.5,39.5,21.2,61,27.2c0.3-4.5-1.2-8.9-2.2-13.2c-2.7-11.3-7-22-11.9-32.5c-2.5-5.3-5.9-10-8.3-15.3
		c26.8,1.7,53.6-2.1,79.5-8.6c-0.3-1-0.8-1.9-1.6-2.5c-16.8-16.2-36.5-29.7-58.2-38.3c0.6-1.8,2.5-2.4,4-3.3
		c21.4-10.9,41.1-24.9,59.2-40.7c3.4-2.7,7.1-5.2,9.7-8.7c-19.5-3-39.3-4.1-58.9-2.4c-8.2,0.3-16.3,2.2-24.5,2.8
		c1.5-3.2,3.7-6,5.7-8.9c5-7.6,9.8-15.3,13.7-23.6c5.5-9.8,10.1-20.1,14.2-30.6c1.6-5,4.2-9.7,4.8-14.9c-11.4,5-22.7,10.1-33.5,16.2
		c-14.7,8.4-29.2,17.3-42,28.5c-0.4-4,0.2-7.9,0.7-11.8c1.2-18.7,0.1-37.7-3.9-56c-0.4-2.1-0.7-4.3-1.9-6.1
		C638.8,217.4,633.3,225.9,627,233.8L627,233.8z"/>
	<path class="st2" d="M627,233.8c6.2-7.9,11.8-16.3,18.4-23.9c1.2,1.8,1.5,4,1.9,6.1c4,18.3,5,37.3,3.9,56
		c-0.4,3.9-1.1,7.9-0.7,11.8c12.8-11.2,27.3-20.1,42-28.5c10.8-6.1,22.2-11.2,33.5-16.2c-0.6,5.2-3.2,9.9-4.8,14.9
		c-4.1,10.5-8.8,20.7-14.2,30.6c-3.8,8.2-8.7,16-13.7,23.6c-2,2.9-4.2,5.7-5.7,8.9c8.2-0.6,16.3-2.5,24.5-2.8
		c19.7-1.7,39.5-0.6,58.9,2.4c-2.6,3.5-6.3,6-9.7,8.7c-18.1,15.8-37.8,29.8-59.2,40.7c-1.5,0.9-3.4,1.5-4,3.3
		c21.8,8.6,41.5,22.1,58.2,38.3c0.8,0.6,1.3,1.5,1.6,2.5c-25.9,6.5-52.8,10.3-79.5,8.6c2.4,5.3,5.8,10,8.3,15.3
		c4.8,10.5,9.2,21.2,11.9,32.5c1,4.4,2.5,8.7,2.2,13.2c-21.5-6-42.4-14.7-61-27.2c-0.3,0.3-0.8,0.8-1.1,1.1
		c0.6,17.9-3.6,35.7-9.4,52.5c-0.4,1.1-1.4,3.7-2.8,2.1c-10.9-11-20.1-23.7-27.5-37.3c-1.8-3-2.8-6.6-5.3-9.1
		c-6.2,10.6-13.1,21.1-22.1,29.5c-3.5,3.7-7.2,7.1-11.2,10.3c-2-4.4-2.4-9.2-3.5-13.8c-2.7-12.8-2.8-25.9-2.4-38.8
		c-3,1.3-5.8,3.1-8.6,4.8c-11.2,6.1-23.2,10.8-35.8,12.9c0.9-9.8,4.9-19.1,8.3-28.3c2.5-6.6,6.2-12.6,9.1-19.1
		c-4.9,0-9.8,0.2-14.6,0.1c-9.2-0.3-18.1-2.5-27-4.7c-1.4-0.4-2.7-1.1-3.9-1.7c10.2-12.8,22.2-24.4,35.9-33.3
		c-4-2.8-8.4-4.8-12.4-7.6c-9.7-6-17.8-14.1-25.5-22.4c2.8-2.4,6.4-3.3,9.7-4.8c12.2-4.5,25-7.6,37.9-8.2
		c-6.3-10.8-11.8-22.2-15.5-34.2c-2.1-5.9-3.3-12.2-5.2-18.2c1.6-0.3,3.2-0.3,4.8,0c14,1.7,27.7,5.8,40,12.7c1.5,0.9,3.1,1.5,4.8,2
		c-1-23,2.2-46,8.1-68.2c9.5,7.3,17.1,16.5,23.9,26.2c4.9,6.5,8,14,12.2,20.9c4-7.1,7-14.7,11.5-21.6C617,248.6,622,241.2,627,233.8
		 M601.1,279.9c-7.2,16-12,33-13.6,50.5c-6.1-9.2-13.4-17.8-22.3-24.4c-2.5-1.8-4.8-4.1-7.8-5c0.6,12.9,3.1,25.8,7.9,37.8
		c0.7,2,1.6,4,2.9,5.8c-0.6-0.1-1.8-0.3-2.4-0.4c-11.6-5-24.3-7.4-36.9-6.8c6.9,10.9,15.7,20.8,26.7,27.6c0.1,0.3,0.3,1,0.5,1.4
		c-13.1,1.6-25.7,6.7-36.9,13.5c11.7,5.2,24.3,8.8,37.1,8.7c-0.5,0.6-1,1.2-1.6,1.7c-10.3,7.9-18.9,17.8-25.7,28.7
		c13.3-0.9,26.3-5.3,38-11.7c-6.5,12.5-10.6,26.5-11.5,40.6c11.6-7.8,21.8-17.9,29.2-29.8c0.4,14.4,3.6,28.6,9.2,41.9
		c0.3-0.2,0.9-0.5,1.2-0.7c6.3-13,11-26.9,12-41.4c7.8,13.2,18.9,24.4,31.5,33.2c-0.1-15.4-3.6-30.8-10.1-44.7
		c15.2,7.3,31.9,11.2,48.6,12.1c-8.9-13.7-20.9-25.5-35-33.8c18.4-1.6,36.3-7.4,52.9-15.3c0-0.2,0.1-0.6,0.2-0.9
		c-16.3-6.3-33.9-9.7-51.4-9.1c16.6-10.9,30.1-25.7,42.3-41.2c-15.3,2.5-30.1,7.7-43.9,14.6c-3.4,1.5-6.3,3.9-9.9,5
		c8.9-16.3,14.7-34.3,16.9-52.7c-14.7,12.1-27.7,26.3-37.7,42.5C611,311.3,608,294.9,601.1,279.9L601.1,279.9z"/>
	<path class="st3" d="M231.4,673.4c10.6-5.1,21-10.5,31.6-15.7c0.1,34.8,0,69.5,0,104.2c0,5.2-0.3,10.5,1.7,15.4
		c2.6,7.2,9,12.8,16.5,14.5c4.3,1,8.7,0.5,13,0.6c5.3-0.1,10.9,0.6,15.8-1.7c3.6-1.5,6.2-4.5,8.9-7.2c12.9-13.8,25.4-28,38.3-41.7
		c5.4-6.2,12.9-10.5,21-12c9.5-1.6,19.2,2.4,26.4,8.5c3.7,3.3,7.3,6.8,10.8,10.4c4.5,4.5,9.4,8.5,13.2,13.6
		c8.1,10.5,10.8,24.9,7.3,37.7c-2.9,11.3-10.7,21.1-20.8,26.9c-12.2,6.9-27.7,7.5-40.3,1.3c-8.9-3.9-14.9-11.7-21.7-18.2
		c-2.7-2.7-5.4-5.4-8.1-8c-2.2,2.3-4.4,4.7-6.5,7.1c-9.6,10.7-24.2,16.3-38.4,15.4c-12.9-0.6-26.3,1.9-38.6-3.1
		c-17.7-6.5-30.5-24.5-30.5-43.4C231.4,743.1,230.9,708.3,231.4,673.4 M379.6,766.5c-4.1,1.5-6.4,5.5-9.4,8.4
		c-0.9,1.3-3.3,2.5-2.5,4.4c6,6.2,12.2,12.1,18.2,18.3c5.1,4.7,14.1,3.6,17.7-2.3c2.9-4.1,2.6-10.1-0.7-13.8
		c-3.1-3.5-6.7-6.7-9.9-10.1C389.5,767.8,384.5,764.9,379.6,766.5 M453,673.7c10.7-5.1,21.1-10.9,32-15.7c0,37,0,74,0,111
		c-0.2,12.1,10.1,23.1,22.3,23.5c58.6,0,117.2,0.1,175.8,0c0.3,10.7,0.2,21.4,0,32.1c-61.6-0.1-123.3,0-184.9-0.1
		c-17.9-0.6-34.8-12.5-41.5-29.1c-2.6-6.1-3.8-12.8-3.8-19.4C453,741.9,453,707.8,453,673.7 M912.8,673.6
		c10.7-5.1,21.2-10.8,32-15.7c-0.2,36.7,0,73.4-0.1,110.1c-0.6,10.2,6.4,20.2,16.2,23.3c4.3,1.6,8.9,1.1,13.3,1.1
		c27.2,0,54.3,0,81.5,0c0.1,10.7,0,21.3,0,32c-28.8,0-57.7,0-86.5,0c-6.7-0.1-13.6,0.5-20.1-1.3c-10.8-2.4-20-9.1-26.9-17.5
		c-8.6,7.1-18.2,13.2-29,16.1c-11.6,3.7-23.9,2.5-35.8,2.7c-47.5,0-95,0-142.5,0c0-10.7,0-21.3,0-32c53.5,0,107,0,160.4,0
		c10.4-0.2,20.8-5.1,27.3-13.4c7.2-8.6,9.7-20.2,10.2-31.1C912.8,723.2,912.6,698.4,912.8,673.6 M1071.3,673.5
		c10.7-5.1,21.2-10.4,31.7-15.8c0.5,37.4,0,74.9,0.2,112.3c0.3,11.6,10.3,22,21.9,22.4c24.3,0.1,48.7,0,73,0v32c-27,0-54,0-81.1,0
		c-19.2-0.3-37.2-13.8-43.3-31.9c-3.6-9.8-2.5-20.4-2.7-30.6C1071.3,732.5,1071,703,1071.3,673.5 M175.7,695.8
		c10.6-5.4,21.1-10.9,31.8-16c-0.1,25.4,0,50.8-0.1,76.2c-0.5,17.9-8.3,35.5-21.2,48c-11,10.9-25.7,18.1-41.1,20
		c-5.3,0.7-10.6,0.4-15.9,0.5c-17.7,0-35.4,0-53,0c-8.5-0.1-17.2,0.8-25.5-2c-18.1-5.3-31.8-22.3-33.5-41.1v-68.3
		c10.7-5.1,21.1-10.6,31.8-15.7c0,23.8-0.1,47.7,0,71.5c-0.1,12,10.1,23.2,22.2,23.5c20,0,40,0,60,0c4.4,0,8.8,0.3,13.1-0.8
		c13.3-2.8,24.8-12.9,29.1-25.8c2.1-5.7,2.4-11.9,2.3-18C175.7,730.6,175.7,713.2,175.7,695.8 M810.3,692c6.3-3,12.4-6.6,19-9.2
		c0,6.2-0.1,12.3,0.1,18.5c-6.4,3.2-12.6,6.5-19.1,9.4c5.8,0,12.3,0.1,16.9,4.3c8.4,7.2,6.8,22.5-3,27.9c-8.8,4.5-17.7,9-26.7,13
		c0-6.2,0-12.4,0-18.6c6.4-2.9,12.5-6.6,19-9.1c-5.6-0.2-11.9-0.2-16.4-4.1c-8-6-8-19.4-0.6-25.9C802.5,695.1,806.8,694.1,810.3,692
		 M109.9,698.4c0.9-1.2,2.5-0.9,3.9-1c7.2,7.1,14.3,14.3,21.5,21.5c1.7,1.5,1,4.2-0.6,5.6c-6.2,6.2-12.4,12.3-18.5,18.5
		c-1,1.2-2.5,1.8-3.9,2.5c-1.4-0.7-2.8-1.5-3.8-2.7c-6.1-6.2-12.3-12.4-18.5-18.5c-1.8-1.5-1.9-4.4-0.1-5.8
		C96.5,711.8,103.2,705.1,109.9,698.4 M1005.8,698.4c0.9-1.2,2.4-0.9,3.8-1c7.2,6.9,14.2,14,21.2,21.1c1.8,1.5,1.5,4.3-0.2,5.8
		c-6.6,6.7-13.2,13.4-20,19.9c-0.6,0.3-1.7,0.9-2.3,1.2c-3.1-0.8-4.8-3.5-7-5.6c-5.2-5.2-10.3-10.3-15.5-15.5
		c-1.6-1.3-2.3-4.1-0.5-5.6C992.1,712.1,998.8,705.2,1005.8,698.4 M1141,848.5c1.3-0.1,3-0.5,4.1,0.6c5.2,4.8,10,10,15.1,14.9
		c2.1,2.3,4.6,4.2,6.3,6.9c0.4,1.5,0,3.2-1.3,4.1c-6.8,6.5-13.3,13.3-20,19.9c-1.4,1.4-3.6,1.5-4.9,0c-6.7-6.6-13.3-13.3-19.9-20
		c-1.7-1.3-2-3.8-0.4-5.2C1126.8,862.5,1134.1,855.6,1141,848.5 M125.8,943.3c4.2-13.4,17.3-23.3,31.4-23.8
		c15.1-0.2,30.2,0,45.2-0.1c-5.7,6.1-11.7,11.8-17.6,17.7c-8.9,0.1-17.8,0-26.7,0c-6.6,0-12.6,4.5-15.2,10.5
		c-3.1,7.1-0.6,16.2,5.9,20.5c6.7,5,15.6,2.7,23.3,3.2c11.3-0.8,23.1,3.3,30.4,12.1c10.1,11.4,11.2,29.7,2.4,42.2
		c-5.5,8.4-14.9,14-24.9,15.2h-47.4c0-5.9,0-11.7,0-17.5c14.5,0.1,29,0,43.5,0.1c8.6,0.2,16.4-7,17.1-15.5c1.2-9-6.1-18-15.2-18.7
		c-7.6-0.4-15.3,0.3-22.9-0.4c-8.6-0.8-16.7-5.1-22.4-11.5C124.6,968.4,122,954.9,125.8,943.3 M1000.5,1010
		c0-30.1-0.1-60.2,0.1-90.4c6,0.1,12,0.1,17.9,0c0,24.1,0,48.3,0,72.4c15.5-15.5,31-31.1,46.6-46.6c8.3,0,16.5-0.1,24.8,0
		c-15.4,15.9-31.4,31.1-46.7,47.1c16.2,16,32.3,32.2,48.5,48.4h-25c-16.1-16-32-32.1-48.2-48c0,16,0,32,0,48h-17.8
		C1000.2,1030.7,1000.6,1020.3,1000.5,1010 M694.6,1041c-0.2-39.8-0.2-79.5,0-119.3c14.5,0.1,29.1,0,43.6,0
		c10.6,0.2,20.8,5.7,26.8,14.4c8.9,12.1,8.1,30-1.5,41.4c6.3,4.4,11.8,10.3,14.2,17.8c4.2,11.3,1.8,24.8-6.2,33.9
		c-5.6,6.5-13.6,10.8-22.1,11.8H694.6 M711.7,939.1c0.1,11.2,0.1,22.4,0,33.6c8.8,0.2,17.7,0.1,26.6,0.1c9.2-0.5,16.8-9.5,15.6-18.7
		c-0.8-8.2-8.3-15-16.5-15C728.8,939,720.2,939,711.7,939.1 M711.7,990.1c0.1,11.2,0,22.4,0,33.6c11.5,0,23,0,34.5,0
		c7.7-0.1,14.6-6.2,15.9-13.7c2.1-9.6-6-19.8-15.9-19.9C734.8,990,723.2,990,711.7,990.1 M249.7,945.5c11.2-0.1,22.4,0,33.6,0
		c6.8-0.1,13.8,2,18.8,6.7c5.7,4.9,8.8,12.3,8.7,19.8c0,23,0,46,0,69h-59.9c-7.9-0.9-15.4-5.1-20.4-11.3
		c-9.2-11.1-8.8-28.9,1.2-39.4c5.6-6.4,14-10.2,22.6-10.1c13,0,26-0.1,39,0.1c0-3.3,0.2-6.8-1.4-9.9c-2-4.4-6.7-7.3-11.5-7.2
		c-16,0-32,0-48,0C237.9,957.1,244,951.5,249.7,945.5 M250.2,998.5c-5.1,1.8-9,7-8.7,12.5c0,6.6,6,12.7,12.7,12.5
		c13,0,26,0.1,39-0.1c0-8.6,0.1-17.2,0-25.8c-11,0.2-21.9,0-32.9,0.1C256.9,997.8,253.4,997.4,250.2,998.5 M345.1,945.5
		c25.4,0,50.8,0,76.2,0c4.5,0,9.1,0.5,13.1,2.6c8.7,4.1,14.8,13.3,14.9,22.9c0,23.3,0,46.7,0,70h-17.5c0-20,0-40,0-60
		c0-3.7,0.3-7.6-1.6-10.9c-2.1-3.9-6.4-6.9-10.9-6.8c-7.3,0-14.6,0-21.9,0c-0.1,25.9,0,51.8,0,77.8h-17.6c0-25.9,0-51.8,0-77.7
		c-11.5-0.1-23,0-34.4-0.1c-0.1,25.9,0,51.8,0,77.8h-17.5c0-26.1,0-52.1,0-78.2C333.5,957,339.3,951.2,345.1,945.5 M489.7,945.5
		c11.5-0.1,23-0.1,34.6,0c6.3,0,12.6,1.9,17.5,6c6.4,5.1,9.7,13.4,9.5,21.5c0.1,22.7,0,45.3,0,68h-59.7
		c-14.3-1.2-26.4-13.6-27.3-27.9c-1.7-16.2,11.7-32,28-32.8c13.7-0.2,27.5,0,41.2-0.1c0-3.4,0.3-7-1.5-10.1
		c-2.1-4.3-6.9-7.2-11.7-6.9c-15.8,0-31.7,0-47.5,0C478.2,957,484.1,951.4,489.7,945.5 M482.2,1008.1c-1.9,7.4,4.5,15.4,12.1,15.4
		c13.1,0,26.2,0.1,39.2-0.1c-0.1-8.6,0-17.1,0-25.7c-12.8,0.1-25.5,0-38.3,0C489.2,997.6,483.2,1002,482.2,1008.1 M585.6,945.4
		c12.2,0,24.4,0,36.6,0c5.9,0,12-0.2,17.5,2.3c8.9,4,15.4,13.3,15.3,23.2c0,23.3,0,46.7,0,70h-17.5c-0.1-21.7,0-43.3,0-65
		c0.1-6.5-5.6-12.7-12.2-12.8c-13.2-0.1-26.4,0-39.6,0c0.1,25.9,0,51.8,0,77.7h-17.6c0.2-26-0.3-52,0.2-77.9
		C573.7,956.9,580,951.4,585.6,945.4 M817.7,946.4c1.1-1.4,3-0.8,4.5-0.9c11,0.1,22-0.2,33,0.2c13.1,0.6,24.2,12.4,24.3,25.4
		c0,23.3,0,46.6,0,70h-59.8c-10.1-1.1-19.4-7.5-23.9-16.7c-4.6-9.2-4.3-20.9,1.4-29.7c5.3-9,15.7-14.6,26.1-14.4
		c12.9,0.1,25.8-0.1,38.7,0.1c0.2-4.2,0-8.7-2.7-12.1c-2.4-2.9-6.1-5.1-10-4.9c-16.1,0-32.2,0.1-48.3-0.1
		C806.5,957.6,812.1,951.9,817.7,946.4 M810.3,1011c-0.2,6.8,6.2,12.8,13,12.4c12.9,0,25.8,0.1,38.7-0.1c-0.1-8.6,0.2-17.2-0.1-25.8
		c-13.2,0.3-26.4,0-39.6,0.2C815.6,998.1,809.8,1004.3,810.3,1011 M913.7,945.5c14.2,0,28.4,0,42.6,0c6.5-0.1,13.1,2,18,6.3
		c5.8,5,9.2,12.5,9.1,20.1c0.1,23,0,46,0,69h-17.7c0-21.7,0-43.3,0-65c0.2-6.8-5.7-12.8-12.4-12.8c-13.1,0-26.2,0-39.4,0
		c0.1,25.9,0,51.8,0,77.7h-17.3c-0.4-26.1-0.2-52.2-0.1-78.4C902.4,957,908.1,951.3,913.7,945.5L913.7,945.5z"/>
</g>
</svg>
