<?xml version="1.0" encoding="utf-8"?>
<!-- Generator: Adobe Illustrator 24.3.0, SVG Export Plug-In . SVG Version: 6.00 Build 0)  -->
<svg version="1.0" id="Layer_1" xmlns="http://www.w3.org/2000/svg" xmlns:xlink="http://www.w3.org/1999/xlink" x="0px" y="0px"
	 viewBox="0 0 1080 1080" style="enable-background:new 0 0 1080 1080;" xml:space="preserve">
<style type="text/css">
	.st0{fill:#A7A7A7;}
	.st1{fill:#214B6A;}
</style>
<g>
	<path class="st0" d="M812.1,241h1v594.1l-1,0C812.2,637.1,812.2,439.1,812.1,241 M443.2,427.1c46.4-26.8,100.9-37.7,154.2-35.2
		c0,17.8,0,35.5,0,53.3c0,20.1,0,40.2,0,60.3c-18.5-0.4-37,1.2-55.4,3.6c-27.8,3.9-55.3,10.8-81.3,21.5
		c-31.3,13-60.7,32.2-82.5,58.5c-11.4,13.4-20.4,28.7-27.6,44.8c1.4-20.6,3-41.3,4.6-61.9c0.4-11.7,2.2-23.3,2.5-34.9
		c0.5-9.3,1.9-18.6,2-28c-0.1-2.8,1.1-5.4,2.7-7.6c15.3-23.3,35.5-43.2,57.9-59.6C427.8,436.5,435.4,431.6,443.2,427.1 M302.4,838.2
		C302.9,838.8,302.9,838.8,302.4,838.2L302.4,838.2z"/>
	<path class="st1" d="M649.8,277.8c4.6-7.1,8.4-14.7,12.2-22.2c0.2,40.1,0.1,80.2,0.1,120.3c-17.9,26.2-39.8,49.6-64.7,69.3
		c0-17.8,0-35.5,0-53.3c-53.3-2.5-107.8,8.4-154.2,35.2c-7.8,4.5-15.4,9.4-22.7,14.7c-0.1-20.4,0-40.9-0.1-61.3
		c32.8,2,65.8-1.8,97.6-10c29.1-7.8,57.1-20.2,81.3-38.2C619.4,317.4,636.7,298.9,649.8,277.8 M524.7,523.7
		c13.9-2,28.5,1.4,39.9,9.7c10.6,7.6,18.4,19,21.4,31.7c4.2,14.7,0.9,30.9-7.3,43.6c-8.6,13.5-23.5,22.8-39.4,24.6
		c-12.8,1.7-26.2-1.3-37-8.4c-11.7-7.5-20.5-19.7-23.6-33.3c-3.9-14.7-0.9-30.8,7.4-43.5C494.7,535,509,525.5,524.7,523.7
		 M772.6,641.5c9.9-9.4,19.6-19,29.5-28.5c-3.3,14.5-14.7,25.1-24.7,35.2c-19.4,18.5-41.4,34-62.2,50.8c-2.9,2-5.4,4.9-8.8,6.1
		l-0.4-0.3c2.7-9.8,10.6-16.7,18.2-22.8C740.1,668.3,757.2,655.9,772.6,641.5 M693.1,670.2c2.8-6.1,5.4-12.4,9.2-18
		c4.7,2.8,10.2,6.7,10.2,12.8c-1.1,5.4-3.4,11.3-8.4,14.2C700.1,676.6,696.2,673.7,693.1,670.2 M618.6,697.4
		c9.1-5.6,18.2-11.9,28.9-13.9c-2.2,6.1-5.2,12.5-10.6,16.3c-5,2.4-10.4,3.9-15,7c-13.8,9.7-27.4,19.8-41.2,29.5
		c-17.9,12.3-37.1,22.5-56.9,31.4c-28.5,12.8-59.7,18.4-90.7,19.9c-8.6,0.6-17.2,0.2-25.8-0.4c-11.4-1-22.9-2.4-33.6-6.8
		c-1.4-1-3,0.1-3.5,1.5c-5.4,9.7-9,20.9-17.7,28.3c-3.1,2.7-8.9,5.1-11.7,0.8c1.1-3.4,3.1-6.4,5.6-8.9
		c10.7-10.3,17.5-23.7,24.5-36.7c2.2-4.3,7.4-7.5,12.2-6.1c9,2.3,17.9,4.8,27.2,5.8c19.2,2.8,38.7,0.8,57.9-1
		c12.7-1.8,25.4-3.9,37.7-7.5c19.9-5.7,39-14,57.2-23.9C582.5,722.4,600.1,709.1,618.6,697.4 M328.1,714.9
		c2.5-6.6,4.8-13.5,8.8-19.3c-1,15.2-4.4,30.2-5.7,45.4c-0.4,7.3-1.9,15,1.2,21.9c1.1,2.5,3.8,3.7,6.3,4.1c1.7-3.7,3.2-7.5,4.6-11.3
		c2.7,1,5.3,3.1,5.7,6.1c0.7,7.2-1.4,14.7-5.5,20.7c-2.7,4.1-8.1,6.6-12.9,4.8c-4.9-2.6-8.2-7.8-8.6-13.3c-0.5-5.3-0.3-10.7,0.2-16
		C323.7,743.5,325.4,729.1,328.1,714.9 M704.2,707.3c0.2,0,0.6-0.1,0.8-0.2c0.2,0.3,0.5,0.9,0.6,1.2c-1.5,10.7-4.6,21.1-5.9,31.8
		c-1.5,8.8-1.5,17.8-1.2,26.8c0.5,5,5.1,8.3,9.9,8.7c4.1-2.7,3.9-8.2,6.8-11.6c1.4,3.3,0.2,6.8-0.5,10.1c-1.8,6.2-3.3,12.8-7.5,17.9
		c-3.1,4-9.9,4-13,0.1c-2.7-3-3.4-7.1-4-11c-1.3-8.9,0.9-17.7,1.5-26.5c-5,5.1-8,11.8-13.3,16.7c-13.3,14.2-32.5,21.1-51.2,24.6
		c-14.8,2-30.2,3.7-44.9-0.2c-5.3-1.3-9.3-6.3-9.4-11.8c0-7.5-0.8-15.4,2.5-22.4c3.3,3.5,2.3,9.9,6.8,12.5c4.5,2.6,9.8,3.4,15,3.5
		c9,0.5,18,0.1,27-0.3c17.6-1.9,35.4-6,50.3-15.9c7-4.8,13.4-11.2,16.7-19.1c2.9-6.5,3.5-13.6,5.9-20.2
		C699.3,717,701.4,712,704.2,707.3 M736,734.1c1-9,4.8-17.6,9.4-25.3c0.2,7.2-2,14.1-2.4,21.3c-1.8,11.5-3.6,23.1-3.3,34.8
		c0.1,5.5,4.4,11.2,10.4,10.4c3.5-2.2,3.9-6.6,5.6-10c0.5-0.2,1.4-0.8,1.9-1c-0.2,7.2-2.3,14.3-5,21c-1.9,4-4.3,9.1-9.2,9.6
		c-4.1,0.5-8-1.9-9.6-5.6c-2.3-5.1-2.3-10.9-2.3-16.3C732.1,760,733.8,747,736,734.1 M300.2,767c4.7-1.6,6-7.3,10.2-9.6
		c0.9,3.9-1.2,7.6-2.6,11.1c-3.2,7.5-7.9,15.3-15.9,18.3c-4.1,1.9-8.5-0.2-12.7-0.1c-3.3,0.7-6.3,2.2-9,4.3c-1.6,1.1-3,2.8-5.1,2.2
		c0-5.1,3.5-9.1,6.4-12.9c4.5-5.6,9.9-11.5,17.2-13.1C292.5,767.2,296.6,769,300.2,767 M293.8,823.9c3.2-6.6,5.7-13.6,10.1-19.5
		c4.7,3.2,10.7,7.1,10.6,13.6c-0.5,4.6-2.8,9-5.6,12.7c-1,1.5-3.4,3-5,1.5C300.3,829.7,297,826.9,293.8,823.9 M273,825
		c3.2-6.5,5.6-13.5,10-19.3c4.8,3.1,10.4,7.1,10.8,13.3c-1,6-3.8,12.5-9.4,15.7C280.6,831.5,276.4,828.7,273,825 M746.2,807.2
		c4,3.1,9.5,6.1,10,11.7c0.1,6.1-3.3,12.2-8.2,15.7c-3.7-3.1-8.1-5.5-11.1-9.4C740,819.2,742.4,812.9,746.2,807.2L746.2,807.2z"/>
</g>
</svg>
