<?xml version="1.0" encoding="utf-8"?>
<!-- Generator: Adobe Illustrator 24.3.0, SVG Export Plug-In . SVG Version: 6.00 Build 0)  -->
<svg version="1.0" id="Layer_1" xmlns="http://www.w3.org/2000/svg" xmlns:xlink="http://www.w3.org/1999/xlink" x="0px" y="0px"
	 viewBox="0 0 1080 1080" style="enable-background:new 0 0 1080 1080;" xml:space="preserve">
<style type="text/css">
	.st0{fill:#E8651D;}
	.st1{fill:#4F4F4F;}
</style>
<g>
	<path class="st0" d="M457.4,103.4c28.2-6.4,57.2-9.2,86.1-9.4c23.8,1.1,47.7,3.2,71.1,8.2c19.3,4.3,38.7,8.7,57.4,15.2
		c17.2,5.7,33.6,13.3,49.9,21.1c25.8,13.6,50,30.1,72.7,48.5c24.8,20.2,46.8,43.6,65.5,69.5c10.6,14.7,21.1,29.5,29.5,45.6
		c16.8,30.5,29,63.5,36.6,97.5c7.9,31.5,11.6,64,11.6,96.5c-1.3,27-4.5,53.9-11.1,80.1c-6.6,30.2-16.7,59.7-30.6,87.4
		c-14,28.1-32,54-51.8,78.2c5.2,3.9,11,7.2,15.1,12.3c6.6,8.5,13.3,17.5,15.4,28.3c0.7,4.5,3.2,9.1,1.8,13.7
		c-1.3,4.7-1.7,9.7-4.1,14c-18.3,33.8-33.5,69.2-50.1,103.9c-6.4,13.9-14.2,27.2-24,39c-4.1,4.7-9.4,8-14.5,11.5
		c-18,9.3-37.8,14-57.5,18c-10.3,1.6-21,3.6-31.4,0.9c-11.9-3-24.7-4.6-35-11.8c-5.3-3.9-11.2-7.4-15.2-12.8
		c-3.6-4.9-7.5-9.7-9.8-15.3c-11-4.2-22.1-8-33.5-10.8c-34.7-7.4-71-7.3-105.8,0c-13.8,3.5-27.3,8.1-40.5,13.5
		c-2.9,5-6.4,9.7-9.9,14.4c-4.5,6-10.9,10-16.9,14.3c-5.3,3.7-11.5,5.9-17.8,7.2c-11,2.4-22.1,6-33.5,4.1
		c-15.4-2-30.6-5.7-45.5-10.1c-7.3-2.7-15.3-4.4-21.6-9.4c-5.6-4-11.1-8.3-16-13.2c-8.5-9.8-13.7-21.7-20.2-32.8
		c-18.9-33.8-37.8-67.6-56.7-101.4c-2.1-4.3-2.5-9.2-3.8-13.8c-1.1-3.7,0.1-7.5,0.9-11.1c1.4-5.7,2.4-11.6,4.9-17.1
		c2.6-6.2,7-11.5,10.9-16.9c3-4.1,7.1-7,11.2-9.9c-10.6-11.9-20.3-24.5-29.5-37.5c-28.6-39.7-49-85.2-59.7-132.9
		c-5.8-23.3-9.8-47.1-11-71.1c-2.3-20.4-0.1-40.8,1.8-61.1c2.2-21.1,7.1-41.7,12.2-62.2c9-34.6,23.1-67.9,41.8-98.4
		c16.8-26.8,35.9-52.3,58.3-74.8c19.6-20,41.9-37.1,65.1-52.8c29.9-20,62.9-35.5,97.3-46.1C430.6,109.5,444,106.5,457.4,103.4
		 M507.6,111.5c-27.5,2.2-54.6,7.9-81.1,15.6c-34.5,10.3-67.4,25.6-97.4,45.4c-25.1,16.6-48.7,35.7-69.3,57.7
		c-20.6,21.9-38.6,46.2-53.8,72.2c-18.1,31.3-31.4,65.3-39.4,100.5c-4.3,17.7-7.4,35.8-8.9,53.9c-1.4,17-3,34.2-0.9,51.3
		c1.4,29.3,7,58.4,15,86.6c17.4,61,51.7,116.5,96.4,161.3c-6.7,1.2-13.3,3.3-18.6,7.7c-12.3,8.8-19.3,23.5-20.9,38.3
		c0.4,4.5,1.6,9,4.1,12.9c21.5,38.5,43.1,76.9,64.5,115.4c2.9,5.5,6.2,10.9,11,14.9c4.7,4,9.3,8.2,14.8,11
		c18.4,7.4,37.7,12.3,57.4,14.5c9.8,0.7,19.3-2,28.7-4.3c14.9-4.7,26.9-16.5,33.3-30.6c0.6-2.4,3.3-2.8,5.2-3.8
		c18.7-7.5,38-13.9,57.9-17.2c33.8-5.8,68.7-4.7,102.1,3.3c13.7,3.5,27.1,8,40.1,13.4c3.4,14,14.8,24.7,27.7,30.4
		c6.8,2.9,14.1,4.3,21.3,5.9c8.9,2.1,18,0.5,26.8-0.8c17.7-3.1,35.1-8,51.3-15.7c5.9-3.1,11.1-7.5,15-12.9
		c7.2-9.3,12.7-19.7,17.8-30.3c15.5-32.2,29.7-65,46.2-96.7c2.9-5.9,7.1-11.5,7.4-18.4c-0.6-4.8-2.1-9.5-4.2-13.9
		c-5.2-10.9-13.5-20.8-24.7-25.7c-5.4-1.9-11.1-3.1-16.8-3.6c13.2-13.5,25.1-28.2,36.1-43.6c17.8-24.7,32.5-51.7,43.7-80.1
		c10.7-27.4,17.9-56.2,22.3-85.2c2.2-13.9,2.9-28,4.1-41.9c0.2-31.8-3-63.8-10.5-94.8c-7.5-33.2-19.6-65.3-36-95.1
		c-3-6.4-7-12.2-10.7-18.2c-19-29.9-41.5-57.6-67.8-81.2c-22.3-19.9-46.7-37.6-73-52c-5.5-3.8-11.8-6.2-17.8-9.1
		c-32.6-16.2-67.9-26.5-103.7-32.9c-18.8-3.4-37.8-4.7-56.8-5.8C532.9,109.5,520.3,110.6,507.6,111.5L507.6,111.5z"/>
	<path class="st1" d="M465.1,131.4c23.2-4.8,46.8-6.8,70.5-7.8c11-0.3,22,0.9,33,1.6c58.9,4.5,116.5,23.7,166.6,55
		c50.9,31.8,94,76.1,124,128.2c15.2,26.2,27,54.3,35.2,83.5c9.6,34.1,13.8,69.7,13.7,105c-1.2,17.7-2.4,35.5-5.6,53
		c-10.4,61-37,119-76.1,166.9c-21.3,26.2-46.3,49.5-73.9,69.1c-4.4,3.2-9.2,5.9-13.3,9.6c9.9-0.2,19.4-3,28.9-5.2
		c8.1-2.2,16.2-4.7,24.1-7.4c2.4-4.8,4.6-9.6,7.1-14.4c0.6-1.4,2.3-1.8,3.6-2.3c8.2-3.1,17.9-3.6,25.8,0.7
		c8.5,4.4,14,12.8,17.5,21.5c0.8,2.2,2.2,4.7,0.7,6.9c-16.7,31-31,63.2-45.9,95c-5,10.3-9.6,20.7-15.5,30.5
		c-4.4,7-9.2,14.5-16.8,18.3c-17.6,8.2-36.5,13.8-55.9,15.6c-10.5,1.3-21.1-1.2-30.8-5c-9.6-3.9-18.4-11.5-20.9-21.9
		c-0.9-2.6-0.6-6.3-3.8-7.2c-28.4-12.1-58.7-20.1-89.5-22.4c-46.2-3.7-92.7,6.6-134.9,25.3c-3,7.6-6.7,15.3-12.8,20.9
		c-9.6,9.3-23.4,12.4-36.3,12.7c-18.3-1-36.2-6-53.2-12.6c-5.3-2.1-9.2-6.3-13.5-9.9c-4-3.3-6.1-8.1-8.6-12.5
		c-19.3-34.6-38.7-69.2-58-103.9c-2.5-5.1-6.1-9.7-7.9-15.1c0.1-6.9,3.2-13.5,6.8-19.3c5.2-8.3,14.4-14.2,24.3-14.6
		c4.8-0.3,9.4,1.1,13.9,2.6c1.3,4.3,2.8,8.6,4.3,12.9c12.4,4.4,24.8,8.6,37.2,13c2.9,1,5.8,2.2,8.8,2.8c2-0.4,3.8-1.5,5.6-2.4
		c-50.6-31.7-93.7-75.5-123.8-127.1c-27.8-47.4-44.7-101.2-48.5-156c-0.2-4.8-0.6-9.5-1.1-14.3c-0.7-14.1,0.3-28.1,1.5-42.1
		c5-61.3,26.3-121.1,60.8-172c32.4-48,76.3-88,126.9-116.1C392.2,152.2,428.1,138.9,465.1,131.4 M488.6,139.4
		c-56.2,7.8-110.3,29.4-156.6,62.1c-39.2,27.6-72.7,63.2-97.9,104c-30.4,49-48.3,105.8-51.6,163.4c0,10.3-1.4,20.6-0.4,31
		c1.2,40.6,9.7,81,24.8,118.7c23.6,59,63.7,111.2,114.2,149.7c11,8.6,22.8,15.9,34.5,23.6c1.5-0.5,3.1-1,4.6-1.5
		c-0.1-0.9-0.2-1.7-0.2-2.6c-10.7-5.8-20.5-12.9-30.4-20.1c-27.5-20.5-52-45-72.4-72.6c-40.9-55.1-65.1-122.6-67.5-191.3
		c-0.4-7.7-0.8-15.4-0.1-23.1c1.1-48.6,13-96.8,34.3-140.4c26.8-55.3,68.6-103.1,119.6-137.3c52.2-35.2,114-56,176.9-59.1
		c9.3-0.2,18.6-1.3,27.9-0.3c34,0.6,67.9,6.5,100.2,17.1c86.2,27.8,160.4,90.5,202,170.9c37.1,70.5,48.2,154.1,31,231.8
		c-6.8,31.5-18.1,61.9-33.5,90.2c-28.5,52.9-71.1,98-122,130c1.1,1.1,2.2,2.2,3.4,3.3c22.5-14.1,43.5-30.8,62.3-49.6
		c42.3-41.9,73.7-94.8,90.2-152c9.1-32,13.7-65.2,13.7-98.4c-0.7-12-0.6-24.1-2.2-36c-6-55.2-25.5-108.8-56.2-155
		c-33.7-51-80.8-92.9-135.2-120.8C637,141.7,561.3,129,488.6,139.4 M440.8,159.2c-58.2,17-111.7,49.7-153.6,93.5
		c-45,46.8-76.7,106.4-89.3,170.2c-9.3,46.3-9.1,94.6,1.2,140.8c7.3,32.9,19.3,64.6,35.8,94c29.9,53.3,74.1,98.3,126.6,129.4
		c1.8,1.2,4.1,1.2,6.2,1.5c0.2-2.2,1.8-4.9,0.2-6.9c-2.3-3-5.9-4.4-9.2-5.9c-6.7-2.8-12.4-7.4-18.2-11.7
		c-9.8-7.3-19.9-14.3-29.8-21.4c0.6-1.8,1.1-3.7,1.6-5.6c-6.9-3.9-13.7-8-20-12.9c-7.3-5.7-12.3-13.9-15.6-22.4
		c-1.6-4.1-4.9-7.1-7.9-10.2c-6.7-6.7-13.9-13-20-20.3c2-1.1,4-2.4,6.2-2.8c2.5-0.6,5.5-0.3,7.3-2.4c-8.2-6.5-15.2-14.4-20.7-23.3
		c-10.4-16.4-16.2-35.1-24.5-52.6c-2-4.4-4.6-8.4-6.5-12.9c3.8-0.3,7.7-0.2,11.5-0.1c-2.5-5-6.2-9.3-8.7-14.4
		c-3.2-7.8-5.3-15.9-6.9-24.1c-4.2-20.9-3-42.4-3.1-63.6c1.4,0.4,2.7,0.9,4.1,1.3c1.4-11.2,0.7-22.5,0.2-33.7
		c-0.1-4.1-0.5-8.3,0.8-12.2c3.7-12.3,8.5-24.2,11.6-36.7c1.6-5.3,0-11.6,4.2-15.9c1.6,0.4,3.3,0.7,4.9,1.1
		c1-11.9,2.6-24.1,7.5-35.2c4.7-10.6,12.1-19.7,19.6-28.4c2.2-2.4,3.5-5.4,5.1-8.2c3,0.1,6,0,9-0.3c-0.1-1.4-0.2-2.7-0.3-4.1
		c1.1-0.7,2.6-1.2,2.7-2.8c1.6-6.1,4.1-12.1,7.6-17.4c10.2-15.7,25.7-27,35.6-42.9c1.9,0.1,3.8,0.2,5.7,0.3
		c1.9,5.7,3.6,11.4,5.6,17.1c4.5-3.7,8.3-8.2,12.9-11.8c7-5.8,15.3-10.8,24.6-10.7c1.4,8.1-2.2,16-7.4,22c-3.4,4.4-8.4,8-9.5,13.7
		c5.9,0.1,12.1-0.1,17.3,3.2c-4.2,3.9-10,5.8-13.3,10.7c-9.8,13.6-20.7,26.5-32.8,38.1c-3.5,2.8-3,7.7-4.7,11.4
		c-4.1,10.2-10.1,19.6-16.4,28.6c-7,9.8-14.2,19.5-22.6,28.1c0.4,1.5,0.9,3,1.5,4.5c-5.5,15.2-8.6,31.1-12.1,46.8
		c-2,10.1-4.5,20.2-6,30.4c0.8,0.1,2.5,0.4,3.3,0.6c-3,13.3-2.3,27.1-0.9,40.6c1.6,15.3,3,30.7,2.1,46.1c1.4,0.7,3.8,0.4,4,2.5
		c9,33.8,21.6,67.2,42.8,95.4c4.6,6.6,10.6,12.2,14.6,19.3c4.8,8,9.5,16.3,16.5,22.7c11.6,10.2,26,17,36.5,28.4
		c12,11.8,21.9,25.7,29.2,40.9c12.2-2.3,23.5-7.9,35.7-10.7c32.8-7.5,66.3-12.3,100-12.4c37.5-0.6,74.8,4.3,111.4,12
		c8-13,20.5-22.1,29.7-34.1c4.5-0.7,9.3-1.4,13-4.3c4.2-3,6.6-7.7,8.9-12.1c2.6,0.5,5.2,1.4,7.9,1.2c6.7-4.1,9.3-12.2,15-17.4
		c2.9-2.9,6.7-4.4,10.5-5.4c1.4-11.4,11.7-19.2,13-30.7c1.5,0,3,0.1,4.5,0.2c0.1,0.7,0.2,2.1,0.3,2.8c0.5,0.4,1.4,1.2,1.9,1.5
		c5.2-5.9,9.2-13,10.8-20.8c1.5-0.7,4.1-0.3,4.4-2.4c3.4-9.7,8.4-18.8,9.8-29.1c2.4-2,4.6-4.2,6-7.1c4-7.8,6.6-16.3,9.1-24.7
		c5.1-18.4,9.3-37.1,11.4-56.1c0.8-0.1,2.6-0.3,3.4-0.4c0.2-7.8-1.6-15.4-2.8-23.1c1.6-0.3,3.1-0.7,4.7-1
		c-0.5-11.3-3.8-22.4-1.9-33.7c-1.2-14.6-4.8-29-10.1-42.6c1.3-0.5,2.6-0.9,3.9-1.4c0-7.1-4.9-12.6-9.2-17.7c1.9-0.5,3.8-1,5.7-1.5
		c-7.1-18-18.1-34-27.9-50.5c0.7-1.4,1.5-2.9,2.2-4.3c-7.3-5.7-13.3-12.8-18.8-20.2c0.7-0.9,1.4-1.8,2.1-2.8
		c-7.1-9.3-17.1-15.7-26.5-22.3c-0.6-2.8-0.8-6-2.9-8.2c-3.3-3.7-7.9-5.7-11.8-8.6c-0.1-2.2,0.6-4.8-1-6.6
		c-5.1-7.2-13.3-11.4-20.8-15.6c0.4-0.5,1.1-1.6,1.5-2.2c-4.9-5.8-12-8.8-19-11.3c0-0.9,0-1.9,0-2.8c3-1.9,6-3.9,8.9-6
		c-2.2-8.5-11.1-13.1-12.8-21.8c7.7-0.4,15,2.2,22.4,3.8c-0.9-4.7-1.7-9.4-2.1-14.2c8.5,1.5,14.9,7.6,22,11.9c1.4-2.3,2.7-4.6,3.9-7
		c2.5,1.4,4.9,3,7,5c10.5,9.9,19.6,21.1,29,32c1.8,2.7,5.2,1.9,8,2c3.9,8.9,9.7,18.2,19.6,21.2c3.3,9,8.4,17.1,13.2,25.4
		c1.9,0.4,3.8,0.8,5.7,1.1c2.8,9.2,5.2,20.6,15.1,24.7c1.5,9.3,5,18.2,9.5,26.5c1.9,0.1,3.7,0.2,5.6,0.3c3,8.1,6.2,16.1,7.9,24.6
		c1.8,0.1,3.5,0.2,5.3,0.3c0,10,0.6,20,2.6,29.8c1.4,0.1,2.9,0.2,4.3,0.4c1.2,10.1,2,20.3,2.7,30.5c1.5,0.1,3.1,0.2,4.6,0.2
		c0,10.5,0,21,0,31.4c1.7,0.3,3.5,0.6,5.3,0.9c-0.9,11.6-2.9,23.1-3.8,34.7c1.3,0.3,2.6,0.6,3.9,0.9c-1.9,9.8-4.5,19.4-5.8,29.3
		c0.7,0.3,2,0.8,2.7,1c-0.9,3.8-2.2,7.5-3.5,11.3c-2.6,7.4-4.2,15.1-6.1,22.7c1.2,0.4,2.5,0.8,3.8,1.2c-2,9.6-6.3,18.7-11.4,27.1
		c-2.8,3.9-0.9,8.9-2.5,13.2c-4.3,12.7-12,23.9-19,35.2c-5.2,8.1-10.8,16.2-13.6,25.6c0.6,0.4,1.8,1.2,2.4,1.7
		c-13,17.1-26.2,34.1-41.7,49c-1.7,1.3-0.1,3.4,0,5c-6.2,8.2-14.9,14-24.3,17.9c0.7,1.8,1.6,3.6,2.3,5.4
		c-6.7,4.8-14.5,7.7-21.2,12.4c-1.3,2.2-0.7,5.1-1.1,7.6c-6,4.1-12.2,7.9-18.8,10.9c1.1,1.2,2.2,2.5,3.6,3.5c3.5,0.3,7.3-1.2,10.5,1
		c38.6-23.8,72.1-55.7,98.6-92.4c39.1-54.2,61.9-120.2,64.1-187c1.4-36.9-3.2-74.1-13.8-109.6c-18.1-61.7-54.3-117.8-102.4-160.4
		c-47.9-42.6-107.7-71.6-170.9-82.7C547.7,141,492.5,143.9,440.8,159.2 M702.6,208.6c0.2,5.8,1.2,12.6,7.1,15.4c1-1.4,0.4-5.1,2.7-5
		c2.8,2.8,4.8,6.3,8,8.6C719.9,217.9,711.4,210.8,702.6,208.6 M682.1,218.1c2.8,8.2,9.5,14.4,17.1,18.3c1.5,1,3.3,0.4,4.9,0.3
		c-4.4-4.8-10.3-8.1-14.8-12.8c6.3,0.5,11.9,3.8,17.8,5.9c1.7,0.7,3.6,0.8,5.5,0.5C705.3,221.2,693.2,217.9,682.1,218.1
		 M724.8,217.7c0.1,5.9,1.3,11.9,3.8,17.3c0.5,1.6,2.1,2.2,3.3,3.1c-0.8-3.8-1.9-7.5-2.4-11.3c3.6,3.4,5.6,8.6,10.5,10.6
		c-0.1-2.3,0.2-4.8-0.9-6.9C736.1,224.7,730.5,220.8,724.8,217.7 M710.7,234.9c-0.4,11.1,9.4,18.8,18.2,23.7c-2.3-6.3-6-12-9.2-18
		c4.5,2.4,9.1,5.4,14.4,4.8c-2.6-4.4-6.7-8-11.6-9.5C718.6,235.1,714.6,235.1,710.7,234.9 M745.3,238.3c-0.2,5.8-0.5,11.5-0.3,17.3
		c1.4,0.2,2.9,0.4,4.4,0.6c-0.1-3.2-0.2-6.4-0.2-9.6c4.5,3.1,6.2,9.1,11.2,11.5c-1.3-8-7.3-13.9-12.2-19.8
		C747.2,238.2,746.3,238.2,745.3,238.3 M688.4,241.8c0,1.4,0,2.9,0,4.3c3.6,2,6.6,6.2,11.2,5.5c2-0.1,3.9-0.7,5.8-1.2
		c-2.9-2-6.4-2.8-9.5-4.4c3.4-1.3,6.8-2.3,10.2-3.5C700.8,238.8,693.8,238.1,688.4,241.8 M339.4,253.5c4.3-1.9,8.5-4.2,13-5.7
		c-2,5.4-5.6,10-7.8,15.4c9.4-3.5,13.7-13.5,15.9-22.6C352.7,243.3,343.2,245.3,339.4,253.5 M311.1,253.5
		c-9.8,10.9-20.7,21-28.5,33.4c-3,4.7-5.2,10-6.5,15.5c0.5,0,1.4,0.1,1.9,0.2c0.5-2.1,0.9-4.2,1.4-6.3c1.8,0.2,3.5,0.3,5.3,0.5
		c4.3-5.2,8.8-10.3,13.2-15.3c6.8-7.6,14.9-13.9,24-18.5c-0.2-5.6,0.4-12.1-3.4-16.6C315.4,247.9,313.5,251,311.1,253.5 M706.8,256
		c-0.2,0.9-0.8,2.6-1,3.5c6.6,5.6,12.7,12.3,21.2,15.1c3.2,1.2,6.7,0.7,9.7-0.9c-5-4.6-11.5-6.9-17.3-10.3c3-0.5,6.1-0.8,9.1-1.6
		c-3.3-2.6-6.9-5.1-11.1-6.2C713.9,254.6,710.3,255.4,706.8,256 M735.5,256.1c1.2,3.6,2.7,7.1,4.5,10.5c1.7,3.4,4,7.1,8.3,7.3
		c-1.4-3.8-4.1-6.8-6.4-10.1c4.7,2.8,8.6,6.6,13.1,9.8c1.8,1.5,4.2,1.5,6.4,1.9c-0.3-3.6-1.8-7.2-4.8-9.5
		C750.6,261,743.2,257.6,735.5,256.1 M764.8,274.8c0.7,1.9,2.9,2.4,4.5,3.4c-0.3-3.5-0.9-6.9-1.7-10.2c1.2,0.1,2.3,0.1,3.5,0.2
		c3,5.1,4.4,11.4,9.1,15.3c0.3-8-3.4-15.7-8.1-22c-1.6-2.3-4.1-3.7-6.6-4.9C764.5,262.5,762.2,268.9,764.8,274.8 M312.9,273.3
		c-8.8,7.8-17.3,16.3-23.6,26.3c-2.2,3.4-3.7,7.2-4.5,11.1c3.3-1.3,6.6-2.8,9.4-5c9.7-7.5,14.8-19.2,24.5-26.7
		c1.5-1.3,3.6-0.7,5.4-1c-4.2,6.1-10,10.8-14.9,16.4c-7.4,8.2-15.2,17.2-16.9,28.5c5.6-2.1,10.6-5.6,15.2-9.3
		c5.3-4.1,8.1-10.4,12.9-15c6.8-6.1,10.4-14.7,13.7-23c1.9-5.2,3.7-10.5,3.8-16.1C328.2,261,320.2,267.3,312.9,273.3 M339.8,275
		c-3.3,6.2-7.2,12.2-11,18.1c-4.2,6.8-8.8,13.7-10.5,21.6c1.8-1.1,3.5-2.4,5.1-3.9c9.9-9.2,17.9-20.1,26.6-30.4
		c1.4-1.7,2.5-3.6,3.3-5.6C348.8,274.5,344.3,274.7,339.8,275 M726.3,279.5c2.8,6.9,9.4,11.4,16.3,13.7c2.2,1,4.2-0.5,6-1.7
		c-3.9-3.2-8.6-5.3-13.1-7.4c4.6-0.2,9.2,0,13.8,0.1c-1.6-2.5-3.6-4.6-5.6-6.8C737.8,277.8,732.1,278.8,726.3,279.5 M756.3,279.6
		c1.1,8.9,6.5,16.4,12.4,22.8c2-6.1-3.7-10.5-5.9-15.5c5.2,1.6,8.6,5.8,12,9.8c1.1,0,2.3,0,3.4,0c-1.9-4-3.9-8.1-7.4-11
		C766.7,282.2,761.4,281,756.3,279.6 M785.3,280.3c-0.4,5.1-0.2,10.2,0.4,15.3c0.8-0.2,2.2-0.6,3-0.8c4,2.5,4.8,7.6,7.8,10.9
		c0.5-1.9,1.1-3.9,0.5-5.8c-1.3-6.3-4.6-12.1-8-17.5C788.4,280.9,786.6,280.8,785.3,280.3 M744.6,298c3.7,10,13.2,15.8,21.5,21.6
		c2.1,1.8,5,1.1,7.5,1.1c-4.8-5-11.4-7.9-16.5-12.5c5.5,0.3,10.2,3.1,15,5.4c0.1-1.9,1.6-4.4-0.2-5.9
		C764.4,301.2,754.6,297.2,744.6,298 M777.3,303.7c0.9,5.8,2.6,11.7,6.3,16.3c0.8,1.2,2.3,1.6,3.5,2.2c-1.1-4.1-3.4-7.8-5.1-11.7
		c4.5,2.4,7,7.5,12.2,8.7C793.8,310.4,785.2,305.3,777.3,303.7 M802,305.7c-2.1,7.4-3.3,15.8,0.8,22.8c0.9-2.6,1.5-5.2,1.9-7.9
		c0.6,0,1.8,0,2.5,0c0.5,3,1.3,6,3.8,8C811.6,320.2,809.5,310.4,802,305.7 M247.7,332.1c-6.5,12.8-11.6,26.4-13.6,40.7
		c2.2-0.2,4.4-0.3,6.6-0.5c4.9-14.9,15.4-27,21.9-41.2c2.9-6,3.8-12.7,3.4-19.3C257.1,315.4,252.1,324.1,247.7,332.1 M279.6,322.1
		c-11.1,10.4-20.9,22.4-28.5,35.6c-3.8,7.1-7.9,15.1-6.5,23.4c0.5,1.5,0.6,4,2.7,4.1c10.5-15.2,15.1-33.6,25.3-49
		c0.8-1.2,1.9-2.1,3-3c1.4,6.6-0.8,13.2-4.1,18.9c-5.8,10.1-12.3,19.8-15.5,31.1c-0.4,3.6,0.1,7.3,0.8,10.9c5.9-3.5,9-9.7,12.1-15.5
		c7.7-15,13.2-31.1,17.7-47.3c1.5-5.3,2.5-10.8,2.8-16.3C286,316.8,282.6,319.2,279.6,322.1 M766.3,324.2
		c2.7,7.4,8.6,12.9,14.6,17.6c1.8,1.6,4.3,1.6,6.5,1.7c-4.2-5-10-8.4-14.2-13.4c6.1,1.5,10.2,7.2,16.7,7.5c0.2-3.2-0.7-6.5-3.4-8.4
		C780.8,324.7,773.2,324.7,766.3,324.2 M794,325.9c-0.3,8.2,1.9,16.4,6.3,23.3c0.8,1.4,2.2,2.4,3.4,3.4c0.6-5.9-2.3-11.2-4.7-16.4
		c5.7,1.1,6.6,8.8,11.9,10.3C807.9,338,802.2,330,794,325.9 M816.9,330.6c-1.2,8.8-0.6,17.8-0.1,26.7c0.9,0.3,2.6,1,3.5,1.4
		c-0.1-3.3-0.2-6.6-0.3-9.8c1.2,0,2.4,0,3.7,0c0.4,3.4,0.8,6.8,1.5,10.1c0.5-1.3,1.3-2.5,1.2-4c-0.2-6.7-3.2-12.9-5.7-19
		C819.8,333.9,818.3,332.2,816.9,330.6 M292,335.4c-4.8,4.9-3.5,12.5-6.7,18.2c-4.1,7.4-8.6,14.9-9.4,23.5c1.6,0.5,3.2,1,4.7,1.5
		c11.3-14.2,19.3-30.7,26.7-47.2C302.1,332.3,296.3,332.2,292,335.4 M782.1,348.7c1.5,7,6,12.9,11.8,17.1c3.8,2.6,7.6,5.9,12.5,6
		c-2.2-6.4-8.5-9.7-12.8-14.4c3.3,0.3,6.7,0.9,10,1.3c-2.3-3.5-5.7-6.2-9.3-8.3C790.6,348,786.2,348.5,782.1,348.7 M810.9,356.6
		c-0.2,8.2,1.4,16.7,5.8,23.7c1.4-5.5-1.2-10.9-1.8-16.3c1-0.8,2.1-1.6,3.1-2.5C815.9,359.6,813.5,357.9,810.9,356.6 M831.7,356.3
		c-1.4,6.8-2.4,13.8-1.4,20.7c1.8-1.4,3.7-2.8,5.6-4.2c0.1,3.4,0.1,6.7,0.3,10.1c0.7-0.4,2.1-1.2,2.8-1.6c1.6-8.4-1.2-16.8-4.1-24.6
		C834.1,356.6,832.5,356.4,831.7,356.3 M818.3,364.9c0.3,1.8,0.6,3.5,1,5.3c1.4-0.4,2.8-0.7,4.2-1.1
		C821.8,367.6,820,366.2,818.3,364.9 M797.2,373.3c2.6,10.9,8.9,22.4,19.9,26.6c0.4-8.3-7.9-12.6-12.6-18.2c2.8,0.8,5.4,1.9,8,3.2
		c0.5-0.2,1.5-0.7,2-0.9c-2.3-3.5-4.2-7.7-8.2-9.5C803.3,373.7,800.2,373.6,797.2,373.3 M226.2,384.1c-2.3,19.7-11,37.9-14.4,57.4
		c-1.9,11.9-1.8,25,4.5,35.7c1.3-11.7,0.2-23.5,0.6-35.2c0-3.6,2-6.8,3.5-10c5.6-11.4,11.5-23.1,12.7-35.9
		C233.8,391,231.2,385.7,226.2,384.1 M838.2,403.8c1-0.4,2.9-1.1,3.8-1.5c1.2,1.7,2.4,3.3,3.9,4.8c1-7.5-0.3-15-2.6-22.1
		C838.8,390.2,837.8,397.2,838.2,403.8 M822.6,386.6c-0.5,8.3-0.5,16.8,1.7,24.9c0.9,0,2.7-0.1,3.5-0.1c-0.3-5.2-1.1-10.3-1.4-15.4
		c1.4-0.6,2.8-1.1,4.2-1.7C829.5,390.4,826.5,387.6,822.6,386.6 M236.1,404.4c-6.5,10.5-10.1,22.5-12.1,34.7
		c-2,13.3-3.1,27-0.5,40.3c1.3-0.5,2.5-1,3.8-1.5c0.3-21.5,6.7-42.2,12.2-62.8c0.1-2,2.3-2.3,3.7-3.1c0.9,9.7-1.6,19.2-3.5,28.6
		c-2.5,12.1-5.1,24.4-4.6,36.8c6.6-2.4,9.1-9.6,11.1-15.6c4.4-15.5,5.2-31.8,5.7-47.9c0.6-8,0.6-16,0.7-24
		C245.6,392.4,240.1,398.1,236.1,404.4 M805.1,400.7c0.8,2,1.2,4.4,3,5.8c3.2,2.3,7.1,3.6,10.8,4.9c-0.5-3.5-0.8-7.6-3.9-9.8
		C811.9,400.1,808.4,400.8,805.1,400.7 M830.7,401.4c0.8,3,1,6.5,3.7,8.6c-0.1-2.9-0.5-5.7-1-8.5
		C832.7,401.5,831.4,401.5,830.7,401.4 M261.7,404.1c-1.8,1.2-4.2,2.3-4,4.8c-1.4,13.1-3,26.2-4.5,39.3c-0.7,6.5-1.7,13-1.4,19.5
		c1.6-1.2,3.3-2.5,4-4.5c3.4-8.1,5.1-16.8,7-25.3c2.6-12.2,4.8-24.5,6.7-36.8C266.8,401.9,264.1,402.6,261.7,404.1 M811.4,413.7
		c0.5,1.3,0.9,2.7,1.6,3.9c0.9,2.1,3.5,1.4,5.3,1.8c-1.3-1.8-2.7-3.5-4-5.2C813.5,414.1,812.1,413.9,811.4,413.7 M845.1,434
		c1.2-1.6,2.4-3.2,3.6-4.8c1,0.2,2,0.4,3,0.5c0,2.7,0,5.4,0.3,8.1c0.8-1.1,1.7-2.3,1.5-3.7c0.1-7.2,0.3-14.5-1.7-21.5
		C847.2,418.5,842.8,426.2,845.1,434 M810.5,422.6c0.3,7.3,2.6,14.4,6.2,20.7c0.9-0.1,2.8-0.2,3.7-0.3c-1.5-4.1-3.5-7.9-5.8-11.5
		c1,0,2.9,0,3.9,0c1.3,2,2.4,4,4,5.8c2.3-0.7,2.8-3.1,3.4-5.1C822,427.4,816.3,424.6,810.5,422.6 M830,450.8c0.9-0.9,2.3-1.6,2.4-3
		c1.3-5.8,1-11.7,1.2-17.6c0.7,0.3,2,0.9,2.6,1.2c2.1,4.3,3.2,9.1,4.9,13.6c0.6-0.1,1.8-0.3,2.4-0.4c0.1-1.5,0.7-3,0.2-4.5
		c-1.7-7.1-6.3-13.2-11.7-18C829.4,431.3,827.2,441.2,830,450.8 M847.4,464.7c1.1,0.4,2.3,0.9,3.4,1.3c0.3-1,0.7-2,1-2.9
		c1.1,0.3,2.1,0.7,3.2,1c-0.1,2.6-0.1,5.2,0,7.9c5.7-8.2,4.4-18.5,4-27.8C850.9,447.5,848.3,456.9,847.4,464.7 M833.6,476.2
		c3.5-3.6,5-8.4,5.4-13.2c1.3-0.4,2.6-0.9,4-1.3c-0.8-4.7-1.7-10.3-6.6-12.6C835.1,458.1,834.1,467.1,833.6,476.2 M817.4,451
		c0.2,2.7-0.2,5.6,0.9,8.1c3.6,0.9,7,2.5,10.1,4.5c0-1.8,0-3.5,0-5.2C825,455.5,821.5,452.8,817.4,451 M818.8,460.6
		c1,4,1.7,8.9,5.6,11.1C824.8,467.3,823.4,462,818.8,460.6 M818.3,473.3c0.5,6.3,1.2,12.6,2.3,18.8c0.2,1.7,1,3.3,1.9,4.8
		c1-4.1,0.6-8.4,0.3-12.5c3.9,0.7,4.6,5.1,6.7,7.8c0.9-0.9,1.7-1.9,2.6-2.8C831.1,481.8,825.4,475.7,818.3,473.3 M850.6,486
		c-2,2.9-2.7,6.7-0.7,9.7c1.4-2.1,2.6-4.3,3.9-6.5c1.3-0.2,2.7-0.3,4-0.4c-0.6,4.4-1.2,8.9-1.1,13.4c4.7-7.9,6.1-17.5,4-26.4
		C856.3,478.1,853.3,482.1,850.6,486 M207,481c-0.3,12.3,0.4,24.7,0.9,37c1.1,17,4.7,34.1,12.4,49.4c0.6,0.1,1.8,0.2,2.4,0.3
		c-1.4-6.2-2.9-12.3-3.8-18.6c-2.6-16-1.1-32.3,1.5-48.2c0.3-2.2,0.8-4.6-0.1-6.8C218,488.2,214.1,481.5,207,481 M230.5,481.6
		c-3.7,17-9.3,33.8-8.9,51.4c-0.2,13.7,4.2,27,9.8,39.3c0.4,1.6,2.2,1.6,3.4,2.2c4.4-22.5-4.6-44.7-4.2-67.2c0.8,0,2.2,0,3,0
		c1.7,15.2,1,30.6,3,45.8c0.6,4.5,2.1,8.9,4.4,12.8c3.3-3.4,3.7-8.4,4.5-12.8c1.3-13-0.4-26-2.7-38.8c-1.9-11.1-4.5-22.1-8.8-32.4
		C233.2,481.7,231.4,481.6,230.5,481.6 M252,483.5c-2.7,4.8-4.7,10-5.6,15.5c-2.1,12.6-1.8,25.7,1.9,38c1.5,4,2.5,8.9,6.6,11.1
		c-1,7-1.9,14.1-2.4,21.2c0.7-0.1,2-0.3,2.6-0.4c2.6-8.4,4-17.1,4.2-25.9c0.7-20.1-3.8-39.9-4.3-60C254,483.2,253,483.4,252,483.5
		 M838.7,482.6c-1.1,2.8-2,5.8-2.3,8.8c1.7,0.9,3.5,1.8,5.2,2.7c0.7,5.7,1.6,11.5,2.8,17.1c3.1-1.9,3.6-5.4,4-8.7
		c-0.4-0.3-1.3-1-1.8-1.3C845.3,494.6,844.4,487.1,838.7,482.6 M835.5,495.6c-1.1,3.6-1.1,7.4-1.1,11.1c0.5-0.4,1.6-1.1,2.1-1.4
		c0.8-3.6,0.7-7.4,0.9-11.1C836.9,494.6,836,495.3,835.5,495.6 M816.6,499.7c0.7,8.1,1.6,16.2,3.4,24.2c0.2,1.8,1.5,3,2.8,4.2
		c0-4.4-0.7-8.8-1.1-13.2c1.2,0.1,2.4,0.1,3.5,0.2c1.3,3.1,2.5,6.3,4,9.3c1.7-2.1,3.8-4.6,2.6-7.4
		C829.1,509.7,823.3,503.6,816.6,499.7 M846.3,526.9c4.6-2.1,7-6.7,9-11c0.8,0.1,2.5,0.2,3.4,0.3c-1.8,6.7-6.1,12.4-7.2,19.4
		c2.6-1.9,5-4.2,6.2-7.3c2.5-6,3.8-12.5,4.5-18.9C853.9,511.1,846.4,517.9,846.3,526.9 M835.1,528.8c1.2,0.5,2.4,0.9,3.6,1.4
		c0.4,4.7,0,9.3,0.5,14c1.6-1.9,3.5-3.7,4-6.2c1.3-7.2-0.5-14.5-1.4-21.7c-1.2-0.3-2.3-0.7-3.5-1
		C835.7,519.3,835.1,524.1,835.1,528.8 M817.3,529.4c-3.5,8.9-7.5,18.6-4.2,28.2c0.5-0.1,1.6-0.2,2.1-0.2c0.3-4.8-0.1-9.5-0.9-14.2
		c1.6-0.3,3.1-0.6,4.7-0.9c0.9,4.3,1.1,8.9,3.4,12.8c1.1-1.2,2.6-2.2,3.3-3.8C825.8,543.2,822.6,535.4,817.3,529.4 M842.2,551.6
		c-1.5,1.6-0.9,3.8-0.8,5.8c2.3-3.6,5.9-6.1,10-7.4c-1,5.5-3.2,10.8-4,16.4c5.4-7.8,8.5-16.9,10-26.2
		C850.1,539.8,845.8,546.3,842.2,551.6 M833.1,548c-5.6,8.3-10.6,17.3-12.3,27.3c4.9-3.8,8-9.2,11-14.5c1.9,0,3.8-0.1,5.6-0.1
		c-0.7-2.6-1.8-5.1-2.5-7.7c0.5-1.2,1.3-2.4,2-3.5C835.7,548.9,834.4,548.5,833.1,548 M805.3,559.4c-0.2,9.8,0,19.9,3.4,29.2
		c2.8-5.3,1.3-11.4-0.3-16.9c0.8,0,2.4,0,3.2,0c1.1,2.2,2.1,4.5,3.2,6.7c1-0.7,1.9-1.5,2.9-2.2c-1-4.6-1.8-9.6-5.2-13.1
		C810.7,560.9,807.9,560.1,805.3,559.4 M832.8,564.1c-0.3,3.3-0.7,6.7-0.9,10c4.5-1.8,3.7-7.4,5.3-11.1
		C835.8,563.4,834.3,563.7,832.8,564.1 M257.9,572.3c-1.1,3.5-0.6,7.3,0.2,10.8c4.2,14.5,14,26.5,18.8,40.7c1.2-0.1,2.3-0.2,3.5-0.3
		c3.2,2.5,3.5,6.9,5.5,10.2c-2.8-23.4-17.9-43.1-22.1-66.2C261.6,568.7,258.8,569.6,257.9,572.3 M836.6,580.7
		c-6.3-0.3-12.7-0.2-19-0.3c-2.2,0-4.5-0.4-6.7,0.3c8.5,0,17-0.4,25.5,0.1c-2.6,3.7-4.7,7.8-5,12.4c2.5-2,4.6-4.4,6.8-6.7
		c1.3-1.4,3.5-0.8,5.1-1.2c-1.6,3.3-3.5,6.4-5.2,9.6c0.5,0.6,1.4,1.8,1.9,2.5c1.9-1.8,3.7-3.7,4.7-6.1c2.9-6.5,5.3-13.2,6.7-20.2
		C845.8,573.1,840.8,576.5,836.6,580.7 M240.6,575.9c-0.5,8-0.3,16.1,0.5,24.1c1.3,16,6.1,32.4,16.6,44.8c3.6,4,7.3,8.3,12.4,10.6
		c0-2.1,0.4-4.3-0.7-6.2c-7.3-14-14.7-28-18.9-43.2c-1.4-5.1-1.6-10.4-1-15.7c2.3,5.4,4.1,11,6.3,16.5c5.6,14.6,12.5,28.7,18.9,43
		c0.8,0.1,2.4,0.4,3.1,0.5c0.8-14.4-4.4-28.2-10.9-40.7c-7-13.2-15.4-25.7-24.3-37.8C241.4,572.9,240.4,574.2,240.6,575.9
		 M218,581.1c0.9,3.7,2,7.2,3.4,10.8c7,17.8,15.7,34.9,24.6,51.8c0.7,0.1,2,0.3,2.7,0.4c-5.9-15-6.3-31.4-11.7-46.5
		C234.2,589.2,226.7,582.8,218,581.1 M822.9,584.1c-7.3,8.8-15.1,18.8-14.7,30.9c2.5-1.9,4.7-4.1,6.6-6.6c-0.2-3.6,1.5-6.9,3.2-9.9
		c1.3-0.2,2.5-0.4,3.8-0.5c-0.4,4.1-0.8,8.2-0.6,12.3c6.9-6.8,5.8-17.3,5.8-26.1C825.6,584,824.3,584.1,822.9,584.1 M800.5,587.1
		c-2.3,10.8-6.1,21.5-6.1,32.6c1.8-4.2,2.4-8.7,3.4-13.1c2,0.4,4,0.8,6,1c6.5-5,3.2-14.1,0.2-20.2
		C802.8,587.4,801.7,587.2,800.5,587.1 M819.4,624c3-0.7,5.9-1.6,8.8-2.5c-1.7,4.8-4.2,9.2-5.3,14.1c9-7.8,13.2-19.4,16.8-30.4
		C830.2,607.4,822.7,614.9,819.4,624 M778.1,640.4c2.8-2.8,6.7-3.7,10.4-4.6c0.8-6.1,1-12.3,0.7-18.4c-0.7-0.2-2.1-0.7-2.7-0.9
		C783.2,624.2,778.7,631.7,778.1,640.4 M800.3,629.8c-2.5,3.7-6.4,7-6.4,11.8c2.4-1.2,4.8-2.5,6.5-4.7c2.2-2.5,3.7-6.1,7.4-6.8
		c0,3-0.2,6,0,9c1-1,2.4-1.8,2.9-3.2c2.2-5.6,3.3-11.5,3.8-17.5C808.5,620.4,803.9,624.8,800.3,629.8 M809.9,645.3
		c-4.5,3.1-7.9,7.8-8.7,13.2c3.5-2.6,6.8-5.6,11.2-6.6c-2.3,4.9-5.9,9.2-7.1,14.7c2.4-1.4,4.8-3,6.7-5.1
		c6.2-6.6,11.3-14.3,14.4-22.9C820.4,639.2,814.7,641.7,809.9,645.3 M295.2,646.6c-0.2,5.8-0.4,11.8,1.4,17.4
		c1.7,5.9,5.5,10.8,9.5,15.4c5.5,6.3,11.1,12.6,15.6,19.6c0.6,0,1.9,0,2.6,0.1c-1.1-2.4-1.8-4.9-2.2-7.5c2.2,2.2,4,4.8,5.6,7.5
		c-6.6-15.5-13.8-30.9-23.6-44.7C301.9,651.1,298.8,648.3,295.2,646.6 M779.8,668c3.4-4.8,6.5-10.4,12.4-12.2
		c-2.8,6.1-6.2,12-6.6,18.9c7.4-7,12-16.8,12.4-27.1C789.1,650.8,780.4,657.9,779.8,668 M759.9,670.8c1.5,0,2.9-0.1,4.4-0.1
		c0.5-2.8,1-5.6,1.5-8.4c1.3-0.2,2.7-0.4,4-0.5c-1,4-2,7.9-2.3,12c3.9-0.5,5-4.7,6-7.8c1.7-5.4,0.5-11.4-2.9-15.9
		C767.1,657,763.2,663.8,759.9,670.8 M257.1,652.8c2.4,2.3,5,4.5,7.6,6.6c0.9-0.7,1.8-1.5,2.7-2.2
		C264.1,655.6,260.7,653.9,257.1,652.8 M276.2,659.8c2.1,13,5.9,26.1,13.5,37c7.5,11,18,19.4,28.5,27.5c1.8,1.7,4.4,1.6,6.8,1.8
		c-10.8-13.7-22.4-26.8-33.1-40.6c-1-1.4-1.6-3-2.3-4.6c2.1,1.1,4.2,2.3,5.9,4c12.2,11.9,21.1,26.7,33.5,38.2c0.6-1.6,1.5-3.3,1-5.1
		c-1.4-5.5-4.9-10-8.1-14.5c-9.3-12.2-20-23.3-31.3-33.5C286.1,666.3,281.8,662,276.2,659.8 M751.1,671.6c-2.1,3-2.7,6.7-3,10.3
		c1.2,1.8,2,3.8,2.2,6c1.7-2.3,3.8-4.4,5.1-6.9c1.7-3.8,1.4-8.1,1.5-12.2C755,669.6,752.3,669.5,751.1,671.6 M254.4,672.2
		c5.8,8.7,15.6,13.7,21.9,21.9c4.3,6.6,7.1,14,11.5,20.5c3.9,6,9.1,11.1,15.2,14.8c3.7,2.2,7.5,4.6,11.9,4.7
		c-5.4-5.2-12-9.1-16.9-14.9c5.6,2.1,8.9,7.7,14.5,10c2.6,1.2,5.5,1.4,8.4,1.5c-2.4-4.6-7.4-6.8-11.4-9.8c-4.6-3.3-9.8-6-13.5-10.5
		c-9.1-11.3-15.5-24.8-26.2-34.7C265.8,672.1,259.6,668.8,254.4,672.2 M778.8,688.4c4.1-1.8,8.3-3.4,12.8-3.7
		c-3.8,3.3-8.6,6-9.8,11.3c11.6-4.2,18.1-15.3,26.2-23.8C796.4,670.4,781.6,675.7,778.8,688.4 M758.1,688.6c-2.1,1.6-3,4.2-3.7,6.6
		c2.9-0.2,5.9-0.5,8.4-2c6.4-3.7,12-9.4,13.7-16.8C769.8,679.7,763.6,683.8,758.1,688.6 M769.6,688.9c-2.1,3.2-3.8,6.7-4.5,10.5
		c3.6-2.5,6.5-5.9,7.9-10.1C772.1,689.2,770.4,689,769.6,688.9 M730.7,695.1c-7.1,6.8-14.2,15.2-14.3,25.5c4-3.9,6.8-8.8,9.1-13.8
		c1.1-0.4,2.2-0.8,3.2-1.1c-1,4.2-2,8.3-2.5,12.6c1.2-0.5,2.5-1,3.7-1.4c4.4-6.9,6.2-15.1,6-23.2C734.2,694.1,732,693.6,730.7,695.1
		 M762.6,706.2c0,0.8-0.1,2.3-0.2,3.1c3.8-1.5,7.8-2.6,11.9-2.9c-4.1,4.6-10,7.8-12.1,13.9c9.9-3.9,16.6-12.7,23.8-20.2
		C777.6,698.9,769.7,702.1,762.6,706.2 M737.7,712.3c0.9,0.6,1.8,1.3,2.7,1.9c2.2-2.8,4.6-5.9,8.7-5.6c-2.1,5.2-5.5,9.8-7.1,15.2
		c9.2-3.9,15.1-13,16.9-22.6C750.7,702.1,744.1,707.5,737.7,712.3 M343.2,706c0.7,8.5,2.5,18.1,9.8,23.5c7.1,5.2,15.9,7.4,23.6,11.4
		c2.7,1.8,5.6,0,8.2-1.1c-7.2-7.5-15-14.5-22.9-21.3C356.2,713.6,350.3,708.8,343.2,706 M693.2,735.9c1.9-2.1,3.5-4.3,4.9-6.7
		c1.2-0.2,2.4-0.4,3.6-0.5c0.1,1.8,0.2,3.6,0.3,5.4c2.7-1.4,5.4-3,7.2-5.5c0.8-3.8-0.8-7.7-1.8-11.3
		C698.2,718.1,693.6,727.7,693.2,735.9 M752.5,724.2c-5.3,1.5-10.4,3.6-15.9,4.4c0,0.6,0,1.9,0,2.5c5.4-0.4,10.7-1.5,16.1-1.9
		c-4.8,3.3-10.3,5.5-15.5,8.1c0.3,1.1,0.7,2.3,1,3.4c6.7-1.7,13.8-3.2,19.4-7.5c3.3-2.7,7.5-5.4,8-10
		C761.4,723,756.8,722.9,752.5,724.2 M712.1,732.5c-1.7,1.9-4.3,3.5-4.5,6.3c3.3,1.1,5.8-1.9,8.1-3.6c2.3-2.1,5.2-3.4,8.2-4.2
		c-2.8,5.3-6.5,10.1-9.2,15.5c3.2-1,5.8-3.1,7.1-6.3c2.6-1.7,5.5-3.1,7.7-5.5c0.9-1.6,0.7-3.6,1.3-5.3c1-1.3,2.1-2.4,3.2-3.6
		c-2.6-1.3-5.5-2.6-8.4-1.8C720.3,725.4,716.1,729.1,712.1,732.5 M331.4,727c3,11.4,11.1,20.5,19.2,28.6
		c-10-6.1-20.5-11.8-32.2-13.5c0,0.9,0,2.6,0,3.5c14.6,9.5,28.2,20.7,43.8,28.6c3.5,1.7,7.1,4.1,11.2,3.1c-1.6-3.3-4-6.1-6.4-8.9
		c4.3,2.7,8.6,5.5,13.1,7.9c4.4,2.1,9.5,0.6,13.9-0.7c-0.6-1.4-0.7-3.2-2.2-4c-13.8-8.9-27.7-17.9-40.5-28.3
		c2.4,0.6,4.9,1.4,6.9,2.8c8.1,5.4,15.5,12,23.6,17.4c5.1,3.3,10.8,7.2,17.2,5.5c-12.8-14.2-26.2-29.2-44.4-36.3
		C347.1,730.2,339.4,727.5,331.4,727 M673.2,751.6c1.6-1.8,2.7-4,3.7-6.2c2.2,0,4,0.7,4.6,3.1c2-1,4.1-2.2,6-3.3
		c0.6-4.4,0.9-8.9,0.3-13.4C678.5,733.1,674,743.2,673.2,751.6 M720.7,747.2c-2.6,1.7-5.9,3-7.1,6.2c3.6-0.3,7.4-1.7,10.8,0.3
		c-2.7,1.2-5.6,2.1-8.5,2.9c-0.1,0.7-0.2,2.1-0.2,2.8c11.1-1,20.8-7.4,28.5-15.1c-4.4-1.1-9-2.4-13.5-1.7
		C726.9,743.1,723.8,745.3,720.7,747.2 M684.6,750.9c-5.1,2.5-8.2,7.7-9.9,13c6.7-1.7,11-7.9,17.8-9.4c-1.9,5-6.1,8.8-7.3,14.1
		c4.5-0.7,9.4-1.9,12.6-5.5c3.8-4.5,5.3-10.4,6.4-16.1C697.5,747.5,690.6,748,684.6,750.9 M663.8,751.5c-0.7,1.4-1.4,2.8-2.1,4.3
		c-0.8,0-2.3-0.2-3-0.2c-0.1,1-0.2,2-0.3,3.1c1-0.4,2.1-0.8,3.2-1.2c2-2.4,5.4-3,7-5.7C666.9,751.5,665.3,751.5,663.8,751.5
		 M458.7,766.5c-32.8,7.7-64.8,19.1-94.4,35.2c-10.1,5.8-20.4,11.5-29.3,19c0.7,8.1,5,15.4,8.1,22.8c14.4,29.8,31.3,58.2,47.8,86.8
		c4.7-1.5,8.5-4.8,12.7-7.1c30.7-17.6,65.1-28.2,100-33.7c37.4-5.6,75.9-5.5,113,2.6c25.4,5.6,50.2,15.3,71.5,30.4
		c2.9,1.9,5.4,4.4,8.5,6c3,0.2,5.6-1.8,7.5-3.9c1.2-2.4,1.3-5.2,2.2-7.7c2.4-7.4,6.8-13.8,11.1-20.2c1.7-2.4,2.4-5.3,3.4-8
		c0.1-1.8,0.2-3.7,1.3-5.1c2.8-4.1,5.7-8,7.7-12.5c-0.4-0.8-0.7-1.6-1.1-2.4c6.4-5.3,7.9-14,12.1-20.8c0-0.7,0.1-2,0.1-2.7
		c0.5-0.1,1.6-0.2,2.1-0.3c3.4-6.7,5.2-14.2,9.6-20.4c-19.6-22.4-45.4-38.8-72.9-49.7c-28.1-11.1-58.1-17-88.2-19.4
		C547,752.1,502.1,756.2,458.7,766.5 M699.1,764.8c0,0.9,0.1,2.7,0.1,3.6c3.3-0.6,6.6-1,10-1.3c-2.2,1.6-4.5,3.1-6.7,4.6
		c0,0.9-0.1,2.6-0.2,3.5c9.2-1,19.9-3.9,24.4-12.9C717.4,762,708.2,763.2,699.1,764.8 M759.2,908.5c6.5,1,11.7,5.5,18,7
		c18.5-40.4,37.3-80.7,55.8-121.1c2.3-4.9,1.8-11.7-2.9-15c-6.2-4.3-14-4.8-21.2-6.1C792.4,818.4,775.4,863.3,759.2,908.5
		 M252.7,800.1c1.7,4.6,4.5,8.7,6.7,13.1c18.6,34.5,37,69.1,55.7,103.5c5.9-3.4,11.9-7,18.7-8.2c-1.5-4.5-3.7-8.8-5.6-13.1
		c-17.2-37.8-34.6-75.5-51.7-113.4C265.5,782,257,790.8,252.7,800.1 M780.6,799c-3.6,4.5-5.5,10-8,15.1
		c-19.8,43.1-40.1,86-59.7,129.3c4.2,2.5,9.1,1.6,13.7,1.1c10.7-1.5,20.8-5.4,31-8.8c0.2-0.7,0.6-2.1,0.8-2.8
		c-6-3.2-12.8-6.8-15.2-13.6c-1.5-5.5,2.1-10.6,4-15.5c7.9-19.6,15.3-39.4,23-59.1c4.6-9.3,7.2-19.5,10.7-29.2
		c1.9-6.2,4.6-12.1,5.6-18.5C784.5,797.3,781.9,796.9,780.6,799 M298,798c1.6,5.3,4,10.3,6.1,15.5c14.4,33.7,30.1,66.9,44.5,100.6
		c2.3,4.2,0,9-2.2,12.8c-3.2,5.1-9,7.6-14.5,9.4c1.1,1.4,2.3,2.8,4,3.4c9,3.6,18.2,6.7,27.7,8.6c5.3,1.1,10.8-0.9,14.9-4.2
		c-21.8-44.2-43.4-88.5-65.1-132.7C310.4,804.9,305.1,799.4,298,798 M320.9,925.2c0.1,2,0.1,4,0.2,6c5.2-0.6,10.7-1.4,15.1-4.6
		c3.2-2.6,3-7.3,3.2-11C332.1,915.9,325.6,919.8,320.9,925.2 M754.2,916.2c0,1.7,0,3.5,0,5.2c2.4,2,4.7,4.2,7.8,5
		c3.7,0.8,7.7,0.2,11.2-1.3c-1.3-3.3-2.9-6.8-6.2-8.5C763,914.7,758.3,915.6,754.2,916.2 M479.5,280.8c1.1-2.4,4-1.7,6-1.2
		c0.6,4.9,2.3,9.9,6.1,13.3c8.5,8.4,23.6,8.7,32.3,0.5c2.3-2,4-5,7.2-5.8c4.7,5.7,10.6,11.7,18.5,11.7c6,0.5,11.6-2.6,15.9-6.5
		c4.7-4,8.2-9.1,12-13.8c1.2,0,2.5,0,3.8,0.1c2.3,11.2,1.1,24.8-8.1,32.6c-8.5,6.7-20.4,5.2-29.9,1.5c-4.3-1.6-6.8-7.1-11.8-6.7
		c-3.9,2.4-6.3,6.8-10.5,8.9c-7.7,4-17.3,3.1-24.7-1.2c-7.3-3.9-14.6-9.7-16.9-18.1C478.2,291.2,478.1,285.8,479.5,280.8 M528,318.4
		c1.6-1,3.5-3,5.3-1.2c7.1,5,14,10.1,20.9,15.2c2.3,1.3,2.7,4.2,2.7,6.6c-0.1,81.3-0.3,162.6-0.1,243.9
		c25.3-22.9,47.6-49.6,62.1-80.7c15.5-33.1,21.3-71.7,11.5-107.3c-2.7-11.1-8.9-20.8-13.7-31.1c-7.8-15.8-16-31.3-23.4-47.3
		c26.8,22.8,48.7,52.2,60.2,85.6c12.3,34.9,12.6,73.9,0.5,108.9c-10.8,32.1-31.2,60.5-56.7,82.6c-7.7,6.7-15.9,12.8-24.3,18.6
		c4,5,10.7,6,16.6,7.2c12.2,2,24.6,2.5,36.9,3c8.3,0.4,16.7-0.3,25,0.8c-16.9,8.9-36.1,12.1-55,12.6c-14.2,1-28.5-0.6-42.7-1.1
		c-4.1,7.1-8.3,14.1-12.4,21.2c-0.8,2.2-4.4,2.7-5.6,0.7c-5.2-7.3-9.3-15.3-14.6-22.5c-4.9-0.3-9.7,1-14.6,1.1
		c-18.2,1.8-36.8,1.4-54.6-3c-8.5-2.1-16.9-4.9-25-8.4c19.3,1.4,38.9,1.5,57.9-2.4c5.5-1.1,11.2-2.9,15.5-6.7
		c-14.1-7.9-27.1-17.9-38.6-29.3c-1.5-1.5-2.8-3.1-4.1-4.8c15.6-0.9,31.2,0,46.8-0.4c-15.8,0.1-31.6-0.4-47.3,0.3
		c-23.9-26.1-40.6-58.9-47.3-93.7c-6.7-34.4-3.1-71,11.9-102.8c11.8-25.3,30.6-47,52.8-63.7c-17.1,28.6-29.9,60.3-33.3,93.6
		c-4,37.3,4.3,75.7,22.7,108.3c13.1,23.6,30.7,44.4,50.5,62.6c0.2-16.4-1-32.7-1.2-49.1c-1-12.3-0.3-24.7-1.3-37
		c-0.3-27.4-1.9-54.7-2.2-82.1c-1.5-27.8-1.5-55.6-2.9-83.4C513.7,328.1,521,323.5,528,318.4 M608.9,318.8
		c33.7,5.8,65.1,23.6,87.3,49.6c19.7,23,31.8,52.4,34.2,82.6c2,22.9-1.4,46.1-9.2,67.7c-2.7,7.8-6,15.6-10.8,22.4
		c-8.8,13.4-18.9,26.1-30.9,36.9c-8.3,7.3-17.4,14-27.8,18.2c-0.1-0.8-0.2-2.5-0.3-3.3c20.9-26.4,35.1-58.3,39.4-91.8
		c5.4-38.8-2.3-79.2-20.9-113.7C655.5,360.1,634.2,336.6,608.9,318.8 M440,324.4c5.1-1.8,10.4-4.4,16-3.1c-1.3,1.7-2.7,3.3-4.4,4.7
		c-22.9,19.8-42.8,43.6-55.9,71.1c-9.6,20-15.3,41.8-16.7,63.9c-2.7,41.7,10.3,83,30.5,119.1c3.3,6.5,9.1,11.4,12,18.2
		c-13.9-5.3-26.1-14.3-36.5-24.8c-13.1-13.1-23.5-28.8-31.6-45.4c-3.5-7.1-6.8-14.3-8.7-22c-4.4-18.6-5.9-38-4.2-57.1
		c2.4-26.7,12.4-52.8,28.8-74.1C387.3,351.6,412.5,334.5,440,324.4 M532.1,799.6c12.8-9,24.1-19.9,35.3-30.7
		c1.5,0.1,3.1,0.2,4.6,0.3c-0.7,4-0.7,9.2-4.8,11.5c-7.1,4.3-12.9,10.4-19,16c-11.2,10.6-23,20.9-36.3,28.8
		c-15.3,9.1-32.7,15.1-50.5,16c-12.4,0.4-24.7,0-37.1,0c-1.8,4.5-3.5,9.8-8,12.3c-4.2,2.5-9.2,1.7-13.9,2c-2.7,0-4.9,1.9-7,3.3
		c-0.7-0.7-1.5-1.4-2.2-2c1.8-6.2,4.3-13,10.2-16.3c4.2-2.6,9.3-1.1,13.8-2.2c5.2-2.3,8.2-7.4,10.7-12.2c18.9,0.4,38.4,1.7,56.7-3.9
		C501.5,817.2,517.8,809.9,532.1,799.6 M657.9,809.3c10.8-7.8,23.8-12.9,37.2-13.7c-10.9,8.3-24.9,11-35.9,19.1
		c-8.7,6.6-11.8,17.7-13.3,28c3,0.2,6,0.3,9,0.4c-0.4,4.1-2,8.3-5.5,10.7c-3,2.5-6.9,2.8-10.7,3c-2.1-1.8-5.1-3.7-4.7-6.9
		c0.4-5.1,3.8-9.2,5.2-14.1c-7.5,2.7-15.5,4.3-23.5,4.7c-15.2,0.7-30.6-0.1-45.2-4.7c-7-2.3-14.7-6-17.7-13.1
		c-2.5-6,1.2-12.1,4.4-17.1c1.6,0,3.3,0,5-0.1c0.8,7.7,7.1,13.1,13.8,15.9c16.2,6.9,34.2,8,51.5,7.5c4.9-0.4,10.5-0.2,14.3-3.8
		C647.3,820.1,651.7,813.8,657.9,809.3 M600.4,803.8c2.1-2.7,5.9-1.1,8.7-0.7c-1.3,3.1-2.9,6.2-4.4,9.2c-3.5,0.5-7.1,0.9-10.7,0.9
		C594.9,809.4,598,806.7,600.4,803.8 M662,820c3.5-2.9,7.4-7,12.5-5.9c2.3,1.6,2.5,4.6,3.3,7.1c-3.1,2.1-6.2,5.1-10.3,4.8
		C665.2,824.5,663.6,822.2,662,820 M681.1,835.6c4.6-6.2,9.8-12.4,17.1-15.4c-3.6,8.6-10.2,15.5-13.4,24.2
		c-1.6,3.9-2.1,8.1-2.2,12.2c2.9,0,5.8,0,8.8,0c-2.8,6.3-7.4,12.1-13.9,14.7c-2.5,1-4.9-1-6.2-2.9c-2.1-3.2-1.9-7.3-1.1-10.8
		C672,849.5,676.3,842.2,681.1,835.6 M427.5,865c1.6-2.5,3-5.3,5.1-7.4c3.8-0.5,8.2,1.5,9.3,5.4c-0.8,3.2-2.7,6-4.2,8.9
		c-3.6,0.3-7.1-0.4-10.6-1.2c-0.1,1-0.3,2-0.4,3.1c3.4,1,6.8,1.8,10.2,2.5c-0.3,3.8-0.4,7.7-2.2,11.2c-0.3,1.2-1.1,1.6-2.3,1.4
		c-2.4-0.3-4.7-1.4-7-2.2c0.5-2.4,1-4.8,1.6-7.2c-4.2-0.7-8.3-1.8-12.3-3.3c0.5-4.4,2.5-8.4,4.7-12.2
		C422.2,864.2,424.8,864.6,427.5,865 M664.9,878c1.8,0.2,3.6,0.3,5.4,0.5c1,3,1.6,6.1,1.7,9.2c-3.2,1.5-6.6,2.9-10,4
		c-2.4-2.2-4.6-4.7-5.6-7.8C659.5,882.3,662.3,880.4,664.9,878L664.9,878z"/>
</g>
</svg>
