<?xml version="1.0" encoding="utf-8"?>
<!-- Generator: Adobe Illustrator 24.3.0, SVG Export Plug-In . SVG Version: 6.00 Build 0)  -->
<svg version="1.0" id="Layer_1" xmlns="http://www.w3.org/2000/svg" xmlns:xlink="http://www.w3.org/1999/xlink" x="0px" y="0px"
	 viewBox="0 0 1080 1080" style="enable-background:new 0 0 1080 1080;" xml:space="preserve">
<style type="text/css">
	.st0{fill:#DF343A;}
</style>
<g>
	<path class="st0" d="M659.8,180.3c24.5-6.6,50.8,13.7,53.4,38.3c0.9,7.8-1,15.7-4,22.8c-10,21.8-39.5,31.5-60.5,20
		c-9.2-5.3-17.1-13.5-20.3-23.8c-5.2-16-1-35,11.2-46.7C645.1,185.4,652.5,182.5,659.8,180.3 M560.8,208.2c25.7-4.9,52,18.4,51,44.4
		c-0.8,9-3.3,18.2-9.1,25.4c-13.5,17.1-40.5,22.2-58.8,10c-8.4-5.8-15.3-14.1-17.8-24.1c-4.4-16.4,1-35.4,14.2-46.4
		C546,212.5,553.4,209.9,560.8,208.2 M465.8,253.3c23.4-5.3,49.2,12.5,52.5,36.3c0.9,9.5-0.2,19.5-5.2,27.8
		c-9.1,15.4-27.9,24.4-45.6,21.8c-9.4-1.3-17.7-6.9-24.5-13.2c-16.5-16.9-14.5-47.2,2.9-62.8C451.4,258.1,458.6,255.2,465.8,253.3
		 M627.7,289.2c37.8-11.5,76.8-19,116.1-23.5c0.1,25,0.4,49.9,0.8,74.9c-56.4,5.9-113.2,16.1-165.5,38.9c-0.3,1.4-0.6,2.8-0.9,4.1
		c16.6,6.4,35,4.5,51.9,9.4c9.2,3.1,18.6,5.9,26.8,11.1c16.4,9.8,29.8,25.6,34.9,44.2c2.1,7.3,2.4,14.9,2.7,22.4
		c0.3,15.3-4.2,30.4-11.7,43.6c-8.8,15.5-21.2,28.7-35,39.9c-13.1,10.7-27.8,19.2-42.6,27.5c-65.8,36.2-139.6,56.2-214,64.4
		c0.1-25.3-0.7-50.6-0.4-75.9c40.7-3.2,81.4-9.2,120.4-21.4c30.9-9.6,60.7-23.2,87.2-41.8c12.1-8.6,23-19.7,29.1-33.5
		c-6-8-15.3-13-25-15.1c-11.6-2.6-23.5-2.5-35.3-3c0.1-20.9,1.9-41.9,0.1-62.8c-0.1-2.3-0.9-4.5-1.8-6.6c-16,10-32.5,19.6-45.7,33.2
		c-4.5,4.5-8.8,9.8-9.7,16.3c-0.8,4.5,1.3,9.5,5.5,11.7c11.1,6.3,24.1,7.6,36.6,8.4c5.1,0.2,10.3,0.9,15.4,0.8
		c-0.2,22.7-0.5,45.5-0.6,68.2c-20.5,0.6-41.2-0.4-61.1-5.7c-15.2-4.1-29.8-11-41.7-21.3c-11.8-10.4-19.4-25.1-22.3-40.5
		c-3.7-19.8-0.4-40.8,9.3-58.4c9.5-16.4,22.6-30.6,37.5-42.4c12.7-10.1,26.6-18.5,40.9-26.1C561.1,313.7,593.7,299.3,627.7,289.2
		 M746.9,683.3c10.4-10.1,19.8-21.2,31.8-29.4c1.3,33.2-0.4,66.5,0.5,99.8c0.5,9.6,8.5,18.2,18.1,19.4c14.1,1.9,28.3,0.5,42.4,0.8
		c0.1,14.8,0,29.6,0,44.4c-15.8-0.3-31.5,0.2-47.3-0.2c-13.5-0.4-25.7-9.1-32.6-20.4c-6.5,8.1-14.3,15.9-24.4,19.2
		c-4.9,1.6-10.1,1.4-15.1,1.4c-35.7,0-71.4,0-107.1,0c0-14.7-0.2-29.5,0.2-44.2c38,0,75.9,0,113.9,0c7.1,0,14.6-2.2,19.4-7.7
		c3.8-4.3,3.9-10.2,4.6-15.6C753.5,728,748,705.8,746.9,683.3 M852,680.3c9.2-9.1,18.3-18.5,28.5-26.5c2.3,32.9-0.2,65.9,0.8,98.8
		c0.1,9.9,8.1,19.1,17.9,20.4c16.2,1.9,32.5,0.7,48.7,0.8c0.5,14.8,0.1,29.6,0.2,44.4c-19.3-0.6-38.7,1.1-58-0.8
		c-11.3-2.1-21-9.7-27.3-19.1c-7.1-10.4-10.5-23.2-9.5-35.8c1.2-23-0.1-46-3-68.9C850.1,689.3,848.2,683.7,852,680.3 M287.9,717.1
		c7.8-9.6,16.7-19,28.5-23.5c5.8,2.7,9.3,8.2,12.2,13.7c7,13.2,13.1,27.2,15.5,42.1c1.8,12.2,0.5,25.1-4.2,36.5
		c-3.3,7.7-8.8,14.7-16.1,19c-6.8,3.8-14.8,4.7-22.3,6.5c6.2,12.8,13.7,25.2,23.8,35.4c2,2,4.4,4,7.2,4.5c1.8,0.4,3.5-1,4-2.7
		c5-13.9,4-29.4,10-43c5.5-11.7,14.7-21.8,26.4-27.5c9.8-4.7,21-4.3,31.6-4.2c63.6,0,127.2,0.1,190.8,0c0.1,14.8,0,29.6,0.1,44.4
		c-67.6-0.2-135.2-0.1-202.8-0.1c-8,0.1-16.2-0.2-24.1,1.5c-5.7,1.3-11.4,4.7-13.5,10.4c-2.9,7.8-1,16.5,2,24
		c3.8,10,11.2,18.7,12.6,29.6c0.7,4.6,0.1,10.2-4.3,12.8c-7.7,4.3-17.1,6.5-25.8,4.3c-9.3-2.3-17.5-8.1-23.9-15.1
		c-18.4-19.6-29.9-44.8-36-70.8c-11.5,0.3-23-0.7-34.3-2.7c0.2,19.7-1.8,40.6-12.8,57.5c-9.3,14.7-24.2,27.3-42.1,29.2
		c-20.1,2-39.9-4.8-57.8-13.2c-0.1-1.4-0.3-2.7-0.4-4c20.8-5.3,42.8-7.6,61.7-18.5c12.9-6.8,25-17.1,30-31.2
		c2.6-8.8,4.6-18.9-0.3-27.2c-5.6-9.4-16.7-13.3-24-21.1c-3-3.4-5.6-8.2-4.2-12.9c3.2-12.8,11.6-23.3,18.9-34.1
		c10.3,12.3,19.9,26.1,34.5,33.6c7.4,4.1,16,3.7,24.2,3.9C272.5,754.3,275.6,733.3,287.9,717.1 M292.2,774.3
		c10.8-0.4,21.4-2.6,31.9-4.7c0.1-15.6-7.9-30-18.6-40.8C295.4,741.5,291.6,758.2,292.2,774.3 M681.4,698.7c5-2.2,11.2-3.1,16.2-0.2
		c3.6,2,7.4,4.8,8.1,9.2c0.4,2.3-1.3,4.2-2.5,5.9c-7.2-0.9-14.1-4.8-21.4-3.3c-3.7,1-8.7,3.8-7.6,8.4c1.7,6.7,8.3,11.6,15.1,11.6
		c8,0,15.3-4,22.9-6c-0.2,4.7-0.6,9.3-0.8,14c-10.4,2.1-21.1,5.1-29.3,12.1c-5.1,3.8-8.8,9.4-14.7,12.2c-1.4,1-3.1,0-4.3-0.8
		c-3.4-2.4-5.2-6.4-7.3-9.9c0.9-1.7,1.7-3.4,2.8-4.9c4.3-2.5,8.9-4.4,13.3-6.6c-3.9-3.9-8.3-7.7-10.4-13c-1.3-3.2-0.7-6.8,0.9-9.7
		C666.7,709.7,673,702.4,681.4,698.7 M444.8,714.3c13.1-3.6,28.4,7.4,27.6,21.4c0.3,10.2-8.2,18.9-17.9,20.8
		c-10,2.4-21.3-3.6-24.6-13.3c-2.5-7.1-1.3-15.5,3.4-21.4C436.1,718,440.4,715.6,444.8,714.3 M506.8,714.5
		c10.9-3.2,23.4,3.7,27.1,14.3c2.5,7.3,0.4,16-5.1,21.3c-5.8,5.7-14.7,8.2-22.6,5.9c-4.5-1.2-8.4-4.3-11.3-7.9
		c-6.1-8.2-5-20.6,2-27.9C499.5,717.4,503.2,715.6,506.8,714.5 M567.8,714.3c12-3.2,26.1,5.6,27.3,18.2
		c2.2,12.9-10.1,25.2-22.9,24.4c-11-0.4-21.4-10.1-20.9-21.4C550.9,725.7,558.5,716.7,567.8,714.3 M811.8,714.4
		c7.2-1.8,15.2,0,20.7,5c3.6,3.1,5.8,7.7,6.9,12.3c2,10.3-5.2,21.3-15.2,24.2c-10.9,3.7-24.1-2.8-27.7-13.8
		C792.6,730.8,800.1,717.1,811.8,714.4 M909.8,857.3c12.8-3.6,26.7,7.3,27.4,20.3c0.4,4.9-1.6,9.6-4.2,13.6
		c-5.3,7.3-15.3,10.1-23.8,8c-8.9-2-16-10.5-16.2-19.7C892.6,869.5,899.7,859.5,909.8,857.3 M397.9,862.8c8.1-0.1,16.2-0.9,24.2,0.5
		c4,0.6,6.8,4.5,6.5,8.4c0,3.4-1.9,6.3-4.1,8.7c2.7,2.4,4.9,5.6,5.2,9.2c0.6,4.2-2.1,8.9-6.5,9.6c-8.4,1.3-16.9,0.5-25.3,0.5
		C398.1,887.5,398.1,875.1,397.9,862.8 M440.1,899.9c4.8-12.5,9.5-25,14.1-37.6c3.4,0.3,7-0.2,10.2,1.1c5.3,11.8,8.9,24.4,13.6,36.5
		c-3.9,0-7.8,0-11.7,0c-2.4-7.1-4.7-14.2-6.9-21.4c-2.8,7.1-5.6,14.2-8.3,21.4C447.5,899.9,443.8,899.9,440.1,899.9 M494,862.5
		c3.2,0,6.4-0.1,9.6-0.1c4.3,5.7,8.4,11.5,12.6,17.3c0-5.8,0-11.5-0.1-17.2c3.5,0.1,7,0.2,10.5,0.4c0,12.3-0.1,24.7,0.1,37
		c-3.4,0-6.9,0.1-10.3,0.2c-4.1-5.5-8.2-11-12.3-16.5c0,5.5,0.1,10.9,0.1,16.4c-3.4,0-6.8,0.1-10.2,0.1
		C493.9,887.5,493.9,875,494,862.5 M545.1,862.5c3.5,0,7,0.1,10.5,0.1c0,4.9-0.1,9.8-0.2,14.8c3.9-4.6,7.4-9.7,12-13.6
		c3.8-2,8.4-1,12.6-1.4c-4.3,5.5-8.4,11.1-12.8,16.5c4.7,7.2,9.7,14.3,14.5,21.4c-4.4-0.1-8.8-0.1-13.2-0.8
		c-5.1-5.9-9.6-12.2-13.4-19c-0.1,6.5,0.2,13,0.3,19.5c-3.5,0.1-6.9,0.1-10.4,0.2C545.1,887.5,545.1,875,545.1,862.5 M619.1,864.5
		c6.8-2.4,14.7-3.1,21.3,0c3.7,1.7,6,5.2,7.1,9c-6,0.9-11.3-2.7-17.1-3.3c-2.8-0.4-5.1,1.2-7.2,2.8c6.5,3.2,14.1,3.6,20.1,7.8
		c3.8,2.6,5.8,8.5,2.7,12.3c-8.2,11.3-29.5,9.2-33.8-4.7c3.6,0,7.2,0,10.8,0.5c2,2,4.5,3.8,7.5,3.7c3.1,0.2,5.6-1.8,7.8-3.7
		c-6.7-3.8-14.4-5.2-21.2-8.7C611.2,876.4,613,866.8,619.1,864.5 M663.5,862.5c3.5,0,7.1,0,10.6,0.1c0,12.4-0.1,24.9,0,37.3
		c-3.6,0-7.1,0-10.7,0C663.5,887.4,663.5,875,663.5,862.5 M686,862.5c3.4,0,6.8,0,10.2-0.1c0,12.5,0,24.9,0.1,37.4
		c-3.5,0-6.9,0-10.4,0.1c0-5.2,0.1-10.4,0.2-15.6c-3,0.1-5.9,0.3-8.9,0.4c0-2.2,0-4.5,0-6.8c3-0.1,6-0.2,9-0.2
		C686.1,872.7,686,867.6,686,862.5 M725.3,862.9c3.6-0.1,7.3-0.2,10.9-0.1c4.1,12.5,8.8,24.8,13.4,37.2c-4,0-8,0-11.9,0.1
		c-2.5-7-4.3-14.2-7.2-21.1c-2.6,6.9-5.1,13.8-7.5,20.8c-3.8,0.1-7.6,0.2-11.4,0.4C716.4,887.7,721.1,875.4,725.3,862.9
		 M759.6,862.5c3.4,0,6.8,0,10.1,0.1c0.1,12.5-0.1,24.9,0.1,37.4c-3.4,0-6.9,0-10.3,0C759.6,887.4,759.6,874.9,759.6,862.5
		 M781.7,862.6c3.5,0,7,0,10.5,0c0.1,12.4-0.3,24.9,0.2,37.3c-3.6,0-7.2,0.1-10.7,0.1c0-5-0.1-9.9-0.1-14.9c-2.6-0.3-5.6,0-7.8-1.9
		c-1.4-1.3-1-3.4-1.2-5.1c3-0.1,6-0.1,9-0.2C781.7,872.8,781.7,867.7,781.7,862.6 M806,862.8c9.2,0.6,18.8-2.2,27.7,1.3
		c3.4,1.1,5.8,4.8,5.2,8.3c-0.6,3.8-3.4,6.6-6.3,8.9c5.3,4.6,6.1,12,7,18.6c-3.8-0.1-7.6-0.1-11.3-0.2c-0.2-6.2-1.9-14-8.9-15.8
		c-0.2-1.5-0.3-2.9-0.4-4.4c3.1-1.2,7-1.9,8.7-5c0.3-1.5-0.6-2.8-1.1-4.2c-3.5-0.2-7.1-0.4-10.6-0.6c0,10-0.1,20,0.1,30
		c-3.4,0-6.7-0.1-10.1-0.1C806.1,887.5,806.1,875.1,806,862.8L806,862.8z"/>
</g>
</svg>
