<?xml version="1.0" encoding="utf-8"?>
<!-- Generator: Adobe Illustrator 24.3.0, SVG Export Plug-In . SVG Version: 6.00 Build 0)  -->
<svg version="1.0" id="Layer_1" xmlns="http://www.w3.org/2000/svg" xmlns:xlink="http://www.w3.org/1999/xlink" x="0px" y="0px"
	 viewBox="0 0 1080 1080" style="enable-background:new 0 0 1080 1080;" xml:space="preserve">
<style type="text/css">
	.st0{fill:#19499E;}
	.st1{fill:#FCB913;}
</style>
<g>
	<path class="st0" d="M510.8,269.3c6.9-3.8,13.6-7.8,20.7-11.3c33.7,18.1,67.6,36,101.4,53.9c-67.9,35.7-135.7,71.4-203.6,107
		c-1.2,0.9-3.8,1.2-3.5,3.2c-0.1,37.4-0.1,74.7,0,112.1c32.8,17.7,65.4,35.8,98.2,53.6c-35.4,18.5-70.8,36.9-106.1,55.4
		c-32.3-15.6-64.4-31.9-96.8-47.4c-0.2-56.2,0-112.4-0.1-168.6c0.1-17.5-0.2-35.1,0.2-52.6c11.9-7,24.3-13.5,36.4-20.4
		C408.7,326,459.7,297.6,510.8,269.3 M574.4,355.9c22.4-11.7,44.7-23.3,67.1-35c26.8,12.9,53.4,26.3,80.1,39.3
		c5.5,2.9,11.3,5.4,16.7,8.4c0.2,73.6,0,147.3,0.1,221c-69.7,38.4-139.2,77.2-208.8,115.7c-1.7,1-3.3-0.3-4.8-1
		c-32.7-17.4-65.5-34.5-98-52.1c69-36.3,138-72.6,207-108.9c0-37.4,0.1-74.8,0-112.2c0.3-1.4-1.5-1.7-2.3-2.3
		c-31.6-17.1-63-34.6-94.7-51.6c-0.2-0.3-0.7-1-0.9-1.3C548.8,369.6,561.5,362.4,574.4,355.9 M712.9,670.5
		c16-13.1,30.5-27.9,45.2-42.4c0.4,1.4,0.2,2.8-0.4,4.1c-4.9,12.3-14.7,21.7-24,30.8c-16.6,15.7-35.1,29-52.9,43.3
		c-5.4,3.9-10.3,8.6-16.2,11.9c1.5-6,5.1-11.4,9.5-15.7C686.5,691.2,699.9,681.1,712.9,670.5 M392.1,683.1c4.2,2.3,9.3,5.7,9.2,11.1
		c-0.4,5.2-3.2,10.5-7.6,13.4c-3-2.9-7.4-4.8-9.5-8.5C386.2,693.5,389,688.2,392.1,683.1 M594.7,703.2c4.7-2.4,9.6-4.7,14.9-5.1
		c0.2,3.8-2.7,6.4-4.7,9.2c-1.7,2.1-3.2,4.6-6,5.2c-7.3,2.1-13.4,6.9-19.7,10.9c-24.8,16.7-50.2,33.6-79.1,42.4
		c-14.4,4.3-29.4,6.8-44.4,7.6c-10.8,0-21.7,0.5-32.5-1.2c-5.5-1.1-11.5-1.9-15.8-5.9c-1.1-0.8-2-2.4-3.6-2.2
		c-2.9,2.5-4.7,6.2-8,8.4c-2.3-0.2-4.8-0.7-7.1-0.1c-6.8,3.7-8.6,12.6-15.5,16.2c-5.1,2.6-11.6-0.1-14-5.1c-4.6-8.8-2.4-19-1.5-28.4
		c0.4-6.5,1.9-12.8,2.6-19.3c1-8.7,4.5-16.8,8.9-24.3c-0.1,8.6-2.4,17.1-3.1,25.7c-1.3,7.9-2.3,15.9-1.8,24
		c0.2,4.1,1.8,8.7,5.9,10.5c4.6,2.6,10.7,0.8,13.8-3.3c2.2-2.4,4.1-5.7,7.7-6.2c2.1,0,4.1,0.4,6.2,0.4c5-3.4,7.5-9.4,12.6-12.6
		c2-0.8,4.2-0.5,6.2,0c13.8,4.7,28.6,5.6,43.2,5.5c35.7-0.7,70.1-13.5,100.8-31.3C572.1,717.6,582.6,709.1,594.7,703.2 M693.4,726
		c1.7-3.8,3-7.9,5.5-11.3c0.2,7.6-2.2,15-2.7,22.6c-1.4,9.8-3,19.8-1.9,29.8c0.6,4.5,5.2,7.2,9.4,6.6c2-2.5,3-5.6,4-8.7
		c0.4-0.2,1.3-0.6,1.7-0.8c0.4,5.2-1.5,10.1-2.8,14.9c-1.3,4-3.1,8-6.3,10.9c-3.7,2.6-9.4,1-11.4-3c-3.5-7.5-2.6-16-1.8-23.9
		c0.7-5.3,0.9-10.7,1.9-16C690.3,740,690.4,732.6,693.4,726 M658.3,732.6c1.9-4.4,4.1-8.7,6.8-12.7c0.2,6.3-2.2,12.2-3,18.4
		c-2.2,9.5-3.3,19.1-4,28.8c-0.2,5.1-0.7,11.2,3.5,15c1.7,2,4.4,1.7,6.8,1.8c2.4-2.9,3.4-6.5,4.7-9.9c1.5,0.6,1.8,2.3,1.4,3.7
		c-1.7,7.6-3.2,15.8-8.3,22c-3.7,4.3-11.5,2.5-13.4-2.7c-4.2-10.3-1-21.4-0.9-32.1c-4.8,2-6.9,7.4-10.8,10.7
		c-9.7,8.5-21.7,13.7-33.5,18.5c-14.8,6.3-31.1,7.4-46.9,8.4c-7.1,0.1-14.3,0.5-21.3-0.9c-4-0.7-8.4-1.8-10.8-5.4
		c-3.4-5.4-2.3-12-2-18c0.5-3.1,0.2-7,3-9.1c0.7,3.5,2,6.7,3.4,10c6,4.8,14.3,4.9,21.7,4.8c11.6-0.3,23.4,0.9,34.9-1.3
		c12.5-1.5,25.2-3.6,37-8.3c9.1-4.3,18.5-9.5,23.9-18.3C654.8,748.8,654.5,739.9,658.3,732.6 M673.8,730.2c4.5,2.4,9.6,6.4,8.8,12.1
		c-1,4.3-2.8,9.1-6.8,11.4l-1.1-0.2c-3-2.4-6.7-4.3-8.8-7.7C668.3,740.5,670.6,735.1,673.8,730.2 M395.2,809.6
		c1.9-4.4,4.1-8.6,6.6-12.7c4.5,3,10.3,7,9.1,13.2c-1.5,4.3-3.2,9.1-7.5,11.4c-3.2-2.2-6.4-4.4-9.1-7.2
		C393,812.9,394.7,811.1,395.2,809.6 M419,796.4c3,0.8,5.2,3,7.3,5.2c3.2,3,2.5,8.1,0.6,11.6c-1.5,2.7-2.9,6.3-6.2,7.2
		c-3.3-2.6-7-4.8-9.6-8.1C413.6,807,416.1,801.6,419,796.4 M687.8,812.4c2.7-5,4.7-10.2,7.8-14.9c3.5,2.5,7.8,5,8.4,9.6
		c0,4.1-2,8-4.5,11.1c-0.9,1.1-2.6,2.3-3.9,1C692.9,817.1,690,815.1,687.8,812.4L687.8,812.4z"/>
	<path class="st1" d="M516.8,394.5c1.1-0.9,2.6-1,3.9-1.1c8.3-0.6,16.8-0.7,25.1,0.5c0.4,0.2,1.2,0.5,1.6,0.7
		c9.9,1.6,19.9,4.8,28.3,10.4c0.6,0.2,1.8,0.4,2.4,0.6c0.4,1.4,1.8,1.6,2.9,2.1c0.7,1,1.8,1.5,2.9,2.1c16.6,12.2,28.7,30.1,33.9,50
		c4.4,18.5,3.4,38.6-4.1,56.2c-0.5,1.4-1.2,2.8-2,4c-5.4,12.9-15.1,23.5-25.6,32.4c-5,3.7-10.4,7-15.9,9.9
		c-7.9,3.2-15.9,6.7-24.5,7.3c-1.2,0.6-2.4,1.1-3.8,1.1c-6.5,0.5-13,0.4-19.5,0.1c-1.5-0.1-3.2-0.1-4.5-1.1c-3.5-0.6-7-1-10.6-1.3
		c0-0.3,0-0.8,0-1.1c-1.8-0.3-3.6-0.6-5.3-1c-1.4-1.4-3.4-1.5-5.2-2c-1.1-1.1-2.6-1.5-4-2.1c-10.3-4.8-19.2-12-27.3-20
		c-3.2-3.7-6.3-7.6-9-11.8c-6.8-10.4-11.1-22.3-13.4-34.4c-1.1-10-1.1-20.2,0.2-30.1c0.9-3.3,1.8-6.5,2.2-9.9
		c1.8-3.2,2.4-6.9,4.2-10c3.8-9.2,9.5-17.6,16.2-25c4.5-5.2,10.2-9.1,15.6-13.4c8.1-4.4,16-9.7,25.2-11.3
		C509.7,394.7,513.4,395.1,516.8,394.5L516.8,394.5z"/>
</g>
</svg>
