<svg viewBox="0 0 48 48" fill="none" xmlns="http://www.w3.org/2000/svg">
<path fill-rule="evenodd" clip-rule="evenodd" d="M42.917 18.5915C44.1329 21.2319 44.811 24.1699 44.811 27.2649C44.811 29.7363 44.3786 32.1076 43.5854 34.3073C43.265 34.2559 42.9363 34.2292 42.6015 34.2292C39.1955 34.2292 36.4302 36.9924 36.4302 40.3959C36.4302 41.4661 36.7036 42.4729 37.1845 43.3505C33.9799 45.9771 29.9776 47.667 25.5981 48V42.5034C33.3104 41.7037 39.3322 35.1815 39.3322 27.2649C39.3322 25.1669 38.9092 23.1667 38.1438 21.3453L42.917 18.5915ZM5.01765 18.7344L9.79567 21.491C9.06854 23.2733 8.66774 25.2227 8.66774 27.2649C8.66774 35.074 14.5273 41.5264 22.0887 42.4675V47.9738C17.8318 47.5859 13.9436 45.9144 10.8155 43.3505C11.2963 42.4729 11.5697 41.4661 11.5697 40.3959C11.5697 36.9924 8.80444 34.2292 5.39843 34.2292C5.06358 34.2292 4.73494 34.2559 4.4145 34.3073C3.62132 32.1076 3.189 29.7363 3.189 27.2649C3.189 24.2257 3.84278 21.3379 5.01765 18.7344ZM5.39843 35.7508C7.96402 35.7508 10.047 37.8322 10.047 40.3959C10.047 42.9595 7.96402 45.0409 5.39843 45.0409C2.83294 45.0409 0.75 42.9595 0.75 40.3959C0.75 37.8322 2.83294 35.7508 5.39843 35.7508ZM42.6015 35.7508C45.1671 35.7508 47.25 37.8322 47.25 40.3959C47.25 42.9595 45.1671 45.0409 42.6015 45.0409C40.0359 45.0409 37.953 42.9595 37.953 40.3959C37.953 37.8322 40.0359 35.7508 42.6015 35.7508ZM17.5532 34.9178C17.9656 35.705 18.4452 36.4573 18.988 37.1612C19.617 37.977 20.3311 38.7278 21.12 39.3909C21.5045 39.714 21.9068 40.0161 22.3247 40.2944C19.3986 39.9218 16.7715 38.5863 14.7722 36.6162C15.6171 35.9533 16.5406 35.3904 17.5136 34.936L17.5532 34.9178ZM30.471 34.929L30.4864 34.936C31.4594 35.3904 32.3828 35.9533 33.2277 36.6162C31.237 38.5779 28.6238 39.9105 25.7126 40.2896C26.1279 40.0125 26.5278 39.7121 26.91 39.3909C27.7877 38.6532 28.5727 37.8069 29.2513 36.8833C29.7065 36.2639 30.1139 35.6095 30.471 34.929ZM24.4037 33.5254C24.9782 33.5417 25.5509 33.5843 26.1208 33.6614C27.3693 33.8303 28.5974 34.1517 29.7657 34.623C29.3556 35.3973 28.8767 36.1356 28.3334 36.8234C27.7298 37.5876 27.0465 38.2894 26.293 38.907C25.7034 39.3902 25.0708 39.8214 24.4037 40.1901V33.5254ZM23.5962 33.5254V40.1733C22.9402 39.8084 22.3177 39.3829 21.7371 38.907C20.9836 38.2894 20.3002 37.5876 19.6966 36.8234C19.151 36.1326 18.6704 35.391 18.259 34.613C19.4199 34.1472 20.6394 33.8291 21.8791 33.6614C22.449 33.5843 23.0217 33.5417 23.5962 33.5254ZM37.1389 27.6684C37.0412 30.9022 35.7712 33.8437 33.7396 36.0826C32.8353 35.3656 31.844 34.7579 30.7982 34.2695C31.7611 32.2044 32.2692 29.9418 32.323 27.6684H37.1389ZM10.861 27.6684H15.7071C15.7607 29.9374 16.2671 32.1956 17.2271 34.2578L17.2017 34.2695C16.156 34.7579 15.1646 35.3656 14.2603 36.0826C12.2288 33.8437 10.9588 30.9022 10.861 27.6684ZM31.5564 27.6684C31.5028 29.8367 31.0158 31.9942 30.0949 33.9623C28.8539 33.4564 27.5479 33.112 26.2197 32.9322C25.6169 32.8507 25.0113 32.806 24.4037 32.7894V27.6684H31.5564ZM23.5962 27.6684V32.7894C22.9886 32.806 22.383 32.8507 21.7803 32.9322C20.4611 33.1108 19.1638 33.4517 17.9304 33.9521C17.0126 31.9867 16.5271 29.833 16.4737 27.6684H23.5962ZM10.861 26.8614C10.9588 23.6275 12.2289 20.686 14.2605 18.447C15.1722 19.1695 16.1717 19.7802 17.2274 20.2713C16.2678 22.3334 15.7609 24.5918 15.7072 26.8614H10.861ZM16.4737 26.8614C16.5274 24.6963 17.0132 22.5425 17.9306 20.5773C18.3867 20.7626 18.8517 20.9261 19.323 21.0673C20.7088 21.4826 22.1501 21.7061 23.5962 21.7411V26.8614H16.4737ZM32.3231 26.8614C32.2694 24.5877 31.761 22.325 30.7975 20.2596C31.8439 19.7706 32.8349 19.1639 33.7394 18.447C35.7711 20.686 37.0412 23.6275 37.1389 26.8614H32.3231ZM24.4037 21.7411C25.8499 21.7061 27.2912 21.4826 28.677 21.0673C29.1571 20.9235 29.6305 20.7565 30.0947 20.567C31.0152 22.5349 31.5026 24.6925 31.5563 26.8614H24.4037V21.7411ZM23.5962 14.3562V21.0051C22.2216 20.9703 20.8518 20.7573 19.5345 20.3625C19.103 20.2333 18.6772 20.0844 18.2591 19.9164C18.2811 19.8746 18.3034 19.833 18.326 19.7914C18.6961 19.1072 19.1203 18.452 19.5953 17.8359C20.2561 16.979 21.0159 16.1975 21.8617 15.5217C22.4064 15.0863 22.9868 14.6951 23.5962 14.3562ZM24.4037 14.3396C25.0242 14.6823 25.6147 15.0791 26.1684 15.5217C27.0141 16.1975 27.7739 16.979 28.4347 17.8359C28.9099 18.452 29.334 19.1072 29.7042 19.7914C29.7248 19.8296 29.7453 19.8679 29.7656 19.9064C29.3395 20.0785 28.9054 20.2307 28.4654 20.3625C27.1482 20.7573 25.7783 20.9703 24.4037 21.0051V14.3396ZM22.3242 14.2355C21.9534 14.4823 21.5952 14.7478 21.2508 15.0301C20.3651 15.7561 19.571 16.592 18.8826 17.5065C18.3892 18.162 17.95 18.8579 17.5678 19.5837L17.5534 19.6113C16.5654 19.1532 15.6287 18.5849 14.7725 17.9134C16.7716 15.9435 19.3984 14.6081 22.3242 14.2355ZM25.7134 14.2404C28.6242 14.6196 31.2369 15.952 33.2274 17.9134C32.3782 18.5794 31.4499 19.1439 30.4707 19.6C30.0597 18.817 29.5823 18.0687 29.0421 17.3683C28.413 16.5525 27.699 15.8017 26.91 15.1387C26.528 14.8176 26.1285 14.5173 25.7134 14.2404ZM6.72571 15.6706C9.45542 11.6193 13.5743 8.5788 18.3976 7.2328C19.3773 9.3451 21.5186 10.8117 24 10.8117C26.4814 10.8117 28.6227 9.3451 29.6024 7.2328C34.3741 8.5644 38.4563 11.5544 41.1861 15.5408L36.4229 18.2888C33.6362 14.4456 29.1081 11.944 24 11.944C18.8354 11.944 14.2639 14.5011 11.4853 18.4165L6.72571 15.6706ZM24 0C26.5655 0 28.6485 2.0814 28.6485 4.645C28.6485 7.2087 26.5655 9.2901 24 9.2901C21.4345 9.2901 19.3515 7.2087 19.3515 4.645C19.3515 2.0814 21.4345 0 24 0Z" fill="#00920A"/>
</svg>
