<?xml version="1.0" encoding="utf-8"?>
<!-- Generator: Adobe Illustrator 24.3.0, SVG Export Plug-In . SVG Version: 6.00 Build 0)  -->
<svg version="1.0" id="Layer_1" xmlns="http://www.w3.org/2000/svg" xmlns:xlink="http://www.w3.org/1999/xlink" x="0px" y="0px"
	 viewBox="0 0 1080 1080" style="enable-background:new 0 0 1080 1080;" xml:space="preserve">
<style type="text/css">
	.st0{fill:#2E428D;}
</style>
<g>
	<path class="st0" d="M520.4,201h4.6c1.5,44.9,2.9,89.9,4.6,134.8c2.6,0.4,3.8-3.2,5.5-4.7c1.9-3.1,6.3-5,6.2-9.1
		c0-40.3,0-80.7,0-121h4.2c6.5,0.8,13,1.2,19.5,2c-1.3,30.7-3,61.4-4.4,92.1c-0.7,8.8-0.4,17.7-1.6,26.4c4.7-2.3,10-3,15.1-2.1
		c3.9-37.7,7.7-75.3,11.5-113c7.2,1.9,14.2,4.1,21.4,6.1c-5.7,39.5-11.8,78.9-17.6,118.3c4.7-0.5,9.5-1.1,14.2,0.2
		c7.3-37.1,14.5-74.3,22-111.4c7.2,3.7,14.3,7.5,21.5,11.4c-8.3,33.7-16.6,67.4-25,101c-0.8,3.4-1.9,6.7-2.2,10.1
		c0.2,0.3,0.6,0.9,0.8,1.3c3.3,1.6,7,2.6,10.2,4.6c10.8-35.9,21.4-71.9,32.4-107.8c6,4.4,11.8,9,17.9,13.4
		c-18,53.1-36.5,106-54.6,159.1c-0.7,2.5,0.2,5,0.4,7.5c0.8,4.5,0.8,9.2,1.7,13.7c0.3,0.2,0.9,0.7,1.2,0.9c2.2-4,3.6-8.3,5.3-12.5
		c20.6-51.5,41.2-103,61.9-154.5c5.3,5.4,10.4,11.1,15.8,16.5c-23.5,51.3-47.4,102.4-71,153.7c2.2,2.8,5.2,6.4,3.4,10.2
		c-2.9,4.6-8.6,7-11,12c-1.3,3.7-0.1,7.6,1,11.1c0.9-1.5,1.9-3,2.7-4.5c28.8-55.7,57.7-111.4,86.5-167.1c4.4,6.6,8.1,13.7,12.4,20.5
		c-31.3,54.1-62.8,108.1-94.3,162.1c1.8,1.4,3.2,3.4,5.5,4c1.5,0.3,2.4-1.1,3.1-2.1c31.5-48.4,63-96.7,94.6-145
		c2.5,6.9,5.6,13.7,7.2,20.8c-2.4,4.1-5.5,7.8-8.2,11.7c-28,39-56,78-84.1,117c-2.9,4-7,8.1-5.6,13.5c0.2,3.1,4.1,2.3,5.3,0.3
		c32.8-41.4,65.1-83.1,98-124.3c1.4,8.1,3,16.1,4.4,24.2c-39.8,45.7-79.7,91.3-119.5,137c-1,1.5-3.2,3.6-1.1,5.2
		c1.5,0.2,3.2,0.3,4.2-1.1c38.9-39.9,77.8-79.8,116.8-119.7c0,6.1,0,12.2,0,18.4c-0.2,1.4,0.3,3.1-0.9,4.1
		c-36.9,34.8-73.8,69.6-110.6,104.4c-3,4.7-8,7.3-11.6,11.4c-14,13.6-27.9,27.4-41.7,41.2c1.5,0,3-0.1,4.5-0.1
		c39.3-34.8,78.8-69.4,118.2-104.1c13.2-11.4,26-23.3,39.5-34.4c-1.2,7.1-2.6,14.3-4,21.4c-0.5,3.2-3.8,4.6-6,6.5
		c-46.5,37-93.2,73.6-139.5,110.7c1.8-0.3,3.8,0.2,5.5-0.8c44.4-31.8,88.5-64.2,133.1-95.8c-1.9,5.3-4.2,10.5-6.2,15.8
		c-1,2.2-1.6,4.9-3.9,6.2c-22.6,15-45.3,29.9-68,44.8c-14.9,10-30.1,19.5-44.8,29.7c1.7-0.2,3.5-0.6,5-1.6
		c18.4-11,37-21.6,55.4-32.5c15.1-8.6,29.9-17.9,45.2-26.2c-7.6,14.2-17.7,27-28.8,38.6c-3.3,3.7-7.5,6.5-10.6,10.4
		c2,3.7,5.9,5.8,8.2,9.2c0.4,20,0,40,0.2,60c-109.4,0-218.9,0-328.3,0c0-19-0.1-37.9,0-56.9c2.6-2.4,5.2-4.9,7.8-7.4
		c-11.6-10.8-22.6-22.3-32.5-34.8c-3.6-4.7-7.1-9.6-10-14.9c35.6,18.1,71,36.8,106.5,55.1c1.3,0.5,2.6,0.9,4,1.1
		c-4.4-3.4-9.4-5.9-14-8.9c-34.2-20.8-68.4-41.6-102.6-62.4c-1.5-0.9-2.9-2-3.5-3.6c-2.6-5.8-5.2-11.6-7.7-17.5
		c18.9,12,37.5,24.7,56.3,36.9c27.1,18,54.3,35.7,81.3,53.8c1.5,1.1,3.4,1.4,5.2,1.7c-4.1-3.6-8.7-6.6-13.1-9.9
		c-45.4-33.2-90.7-66.4-136.1-99.6c-2.1-8.3-4.4-16.6-5.8-25.1c54.2,44.4,108.2,89,162.3,133.4c1.6,1.3,3.8,0.8,5.7,1.1
		c-36.8-34.1-74-67.9-111-101.9c-19.9-18.1-39.5-36.5-59.5-54.4c0-6.9-0.1-13.7,0.1-20.6c8.6,7.9,16.5,16.5,24.9,24.6
		c50.7,50.8,101.4,101.4,152.1,152.2c0.7,0,2.1-0.1,2.8-0.1c-49.1-53.5-98.1-107.1-147.2-160.6c-10.4-11.5-21.2-22.8-31.4-34.5
		c0.8-8.4,2.6-16.8,4.2-25.1C371.3,456.1,431.2,529.5,491,603c0.9,0,2.6,0,3.4,0c-59.7-79.7-119.5-159.2-179.3-238.9
		c2.7-7,5.4-14,8-21c20.2,29.1,39.7,58.7,59.6,88c38.7,57.3,77.4,114.6,116.1,171.9c0.8,0,2.3,0,3-0.1c-57-92.7-114-185.4-171.1-278
		c4.4-7.3,8.7-14.6,13.1-21.9c31.8,58.1,63.5,116.2,95.2,174.4c2.1-1.8,4.5-3.2,7.1-4.3c-8.2-15.8-15.8-32-23.8-47.9
		c-2.9-1.1-6.1-2.2-8.2-4.6c-2.3-2.3-2.9-5.6-3.5-8.6c-0.8-3.8-4-6.5-5.2-10.1c-0.5-4.8,2-10.2-1.1-14.5
		c-16.7-32.9-32.8-66.1-49.2-99.2c5.1-5.9,9.8-12,15.1-17.7c4.3,10,8.6,19.9,12.8,29.9c1.4-2.8,2.7-6.1,5.8-7.3
		c2.2-0.4,5-0.6,6.5,1.4c3.6,4.4,6.7,9.2,10.3,13.6c-6.8-17.4-13.4-34.8-20.2-52.2c6-4.7,11.9-9.5,18-14.2
		c7.3,21.3,14.7,42.6,21.9,64c1.1-2.3,1.9-4.8,3.4-6.8c1.8-2.4,4.9-3.1,7.6-4.2c-5.7-21-11.3-42-17.1-62.9
		c7.4-3.8,14.9-7.8,22.4-11.4c5,25.2,10,50.4,14.9,75.6c0.7,4.8,5.9,8,5.4,13.1c0,2.6-2.5,4-4,5.6c-0.8-0.3-2.4-1-3.2-1.3
		c0.7,6.5,0.7,13,1.4,19.5c1.7,4.1,6.9,4.4,10.7,5c5.5,0.5,10.7,2.8,14.8,6.5c2.8,2.2,5,5.2,8.4,6.6c2-0.5,3.9-1.5,6-1.9
		c2.5,0.5,4.7,1.9,6.9,3c5-1.3,9.6-3.6,14.4-5.6c2.9-1.6,3.8,2.6,5.2,4.3c0.8-1.1,2.2-2,1.9-3.6c-0.2-6.4-2.6-12.6-2.3-19.1
		c-0.3-6,0.8-12,2.5-17.7c-2.5,0.9-5.5,4.7-8.1,2.3c-3.6-4.6-5.9-10.3-5.7-16.2c-1.8-0.2-3.7-0.5-5.5-0.7c4.9-7.4,2-16.4,1.3-24.5
		c-1.6-22.8-3.1-45.6-4.7-68.5C508,202.2,514.2,201.7,520.4,201 M388.2,301.8c-1.2,7.3,0.9,14.5,2.1,21.7c0.8,5.4,4.6,9.6,6.1,14.8
		c2.3,5.5,1.8,11.9,5.1,17c2.6,4.5,6.5,8.2,9.9,12c2.1,2.3,2.2,5.6,2.1,8.6c0,7.9-3.5,15.3-4.5,23c-0.9,5.6,5.9,7.9,6.1,13.2
		c0.4,1.9,0.7,4,2.4,5.3c3.2,2.7,7.7,2.5,11.4,3.8c5.3,1.8,11,4.8,13.3,10.2c0.6,3.8-0.3,7.6,0.5,11.4c1.2,2.4,2.8,4.6,3.7,7.2
		c1.5,4.5,0.8,9.3,1.8,13.9c0.5,1.9,1.5,4.2,3.7,4.4c4.4-1.4,5-8.1,10-8.3c3.1-0.4,2.6,4.1,5.1,4.8c3.9,1,8.6,0.2,11.7,3.3
		c2,1.7,2.5,4.4,3.2,6.8c2.5,9.8,7.8,18.9,14.8,26.2c2.2,2.5,5.7,2.9,8.6,4.5c3.7,1.7,6.4,5.3,10.6,6c8.9,2.3,15.3,11.8,25.1,10.4
		c8.3-2.5,14.8-9.9,23.9-10c4-0.4,7.9,1.7,10.4,4.8c4.3,4.8,5.6,11.5,9.8,16.2c1.4,1.8,3.7,2,5.8,1.9c10.4-0.1,20.7,1.9,31,3.7
		c5,0.8,9.4,3.4,14.3,4.3c2.6-8.8,2.3-18.8,8.6-26.1c3.6-4.8,9.6-6.4,15.3-6.8c-2.9-1.2-6.5-1.3-8.5-3.9c-2.3-4.7,1-11.5-3.6-15.1
		c-4.3-2.9-9-5.5-12.4-9.6c-6.3-6.5-8-16.3-6-24.9c2.7-4.3,8.4-5.6,11.3-9.8c1.1-1.7,0.8-4.7-1.3-5.4c-4.6-1.9-10.6,0.2-14.5-3.5
		c-3.8-4.8-1.4-11.3-2.8-16.8c-1-4-0.5-8.1-0.3-12.1c-0.2-4.9-6.7-6.8-6.2-12c0-9.6,9.9-15,11.7-24c0.1-2.7-1.1-5.2-1.2-7.8
		c-0.5-3.8,0.5-7.4,1.5-11c0.8-1.9-0.8-3.7-2.5-4.4c-3.8-1.8-7.9-3.3-10.3-7c-1.5-0.1-3.1,0.2-4.6-0.2c-2.9-2.1-5.2-5.1-8.5-6.7
		c-4.5-0.5-9.1,1.3-13.5-0.1c-6.6-2-11.5-7.2-16-12.2c-2.7,0.1-5.5,0.1-8.2,0.1c-5,4-12.1,4.8-17.8,1.6c-4.3,5.1-8.9,10-13.7,14.6
		c-1.3,1.5-3.3,1-5.1,1.1c1,2.5,1.8,5.3,1,8c-1.7,3.2-4.7,5.6-7.9,7.3c-1.1-1.4-2.2-2.8-3.1-4.4c-5.2-0.4-9.8,2.5-14.7,3.3
		c-2.4,0.7-4.6-0.8-6.9-1.2c-3.5,0.7-7.5,2.2-10.5-0.5c-4.3-4-8.5-8.8-14.7-9.7c-6.1-1.1-12.9-2.1-17.2-7.1
		c-3.5-4.2-0.3-10-2.5-14.7c-3.5-0.3-8.4,1.4-10.8-2.2c-1.8-5.7,0.3-11.9-0.6-17.7c-0.1-1.2-1-3.6-2.7-2.4c-4.5,1-5.7,6-9,8.6
		c-4.4,3.6-9.5,6.3-15.1,7.5c-3.2,0.7-7.3,0.4-9.1-2.7c-3.7-5.8-6.8-12.6-13.1-16C389.5,298.4,388.4,300,388.2,301.8 M461,465.7
		c-1.7,3.2-3.9,6.7-8,7.1c-0.3,1.4,0.1,4-2,4.1c-3,0.3-6.9,0.9-7.8,4.4c0.4,3.9,4.4,6.1,5.3,9.8c0.5,2.2,0.9,4.5,2.6,6
		c7.1,7.6,16.5,12.4,25.6,17.3c0.4,5.8,4.6,10.2,5.9,15.8c0.8,2.6-1.8,4.5-1.6,7c0.6,1.8,2.5,2.9,3.8,4.1c0.4,2.7,1.3,5.3,2.6,7.7
		c-0.3-3.1-0.1-6.9,2.9-8.7c2.8-0.6,5,1.9,6.9,3.6c2.2,2.4,5,4.7,5.8,8c-1,2.2-2.5,4.1-3.7,6.2c11.6-1.2,23.3-0.8,34.9-0.7
		c4.5-3.2,8.4-7.2,11.6-11.8c1.4-2.6,4.6-1.9,7.1-2.4c0.2-4.9,4.9-7.6,5.8-12.2c0.7-2.9,2.6-5.6,5.4-6.8c2-0.7,3.7,0.6,5.4,1.5
		c0,5.4,0,10.9,0,16.3c0.1,1.9-0.8,3.6-1.4,5.3c2.9,2.6,6.9,3.5,9.9,5.9c1.9,1.3,3.6,3.3,6.1,2.8c19.3-0.6,38.7-0.2,58-0.8
		c3.9,0.6,7.4-2.7,6.3-6.7c-3.8-0.1-7.8,0.5-11.3-1.3c-3.2-1.7-7-0.9-10.3-2c-11.5-5.1-24.4-4.1-36.7-5.1c-6.3-0.4-10.3-6-12.9-11.2
		c-2.4-4.5-4.3-10.8-10.1-11.8c-6.8,0-12.9,3.8-18.4,7.5c-6.1,2.9-13.4,2.6-19.6,0.2c-3.7-2.6-6.5-6.6-11-7.9
		c-2.4-0.6-5.4,0.4-7-1.9c-4.2-4.6-10.1-6.8-15.5-9.5c-4.3-3.7-7.8-8.3-10.7-13.1c-4.1-6.6-6.2-14.2-8.8-21.5
		c-2.9-0.7-5.9-0.6-8.8-1.1C464.4,469.4,462.7,467.4,461,465.7 M454.9,506.8c16.1,30.3,32.2,60.7,48.2,91.1c1.4,2.2,2,5.8,5.3,5.4
		c-14.1-30.1-28.5-60.1-42.8-90.1C462.9,510.1,458.5,508.9,454.9,506.8 M558.4,542c-2.8,20.5-5.9,41-8.6,61.5
		c0.4-0.3,1.2-0.8,1.7-1.1c4.6-24.4,8.9-48.9,13.3-73.4C561.2,532.4,558.8,537.1,558.4,542 M491.7,544.4c-1.2,3.9-0.9,8.2,0.8,12
		c6.4,15,12.6,30,18.9,45c0.4,1.2,1.3,1.8,2.7,1.9c-4.7-13.6-9.5-27.2-14.5-40.7c-2.2-0.8-3.8-2.3-4.7-4.4c0.7-2.4,1.4-4.8,1.1-7.3
		C495.5,548.3,493.5,546.3,491.7,544.4 M546.1,550.9c-0.9,17.4-1.7,34.8-2.8,52.2c0.7,0,2-0.1,2.6-0.1c1.2-18.6,3.4-37.1,4.5-55.7
		C548.6,547.9,545.8,548.4,546.1,550.9 M568,552.8c-4.2,16.9-8.9,33.7-12.8,50.7c0.5-0.3,1.6-0.8,2.1-1.1
		c4.7-15.8,9.1-31.7,13.8-47.6C570.1,554.2,569.1,553.5,568,552.8 M576.5,558.8c-5,14.8-10.3,29.5-15.5,44.3c0.6,0,1.9-0.1,2.6-0.1
		c5.1-14,10.2-27.9,15.5-41.8C578.2,560.4,577.3,559.6,576.5,558.8 M534.9,561.9c0.1,13.7,0.4,27.3,0.2,41c1.4,0,2.7,0.1,4.1,0.2
		c0.1-14.7-0.1-29.4,0.1-44.1C537.9,560,536.3,560.8,534.9,561.9 M597,560.1c-8.4,14.3-16.8,28.6-24.9,43.1c0.7-0.1,2-0.3,2.6-0.5
		c9.2-14,17.7-28.5,26.7-42.6C600,560.2,598.5,560.1,597,560.1 M608,560.1c-9.8,14.2-19.3,28.6-29.1,42.8c1.3,0,2.5,0,3.8,0.1
		c10.8-14.4,21.8-28.6,32.6-42.9C612.9,560.1,610.5,560.1,608,560.1 M588.2,603c0.9,0,2.6,0,3.5,0c13.5-14.4,27-28.9,40.5-43.3
		c-2.5-0.1-5-0.1-7.4-0.2C612.6,574,600.4,588.5,588.2,603 M585.2,561c-6.3,14-12.7,28-19.1,42c0.7,0,2,0,2.6,0
		c7.1-14.1,14.2-28.1,21.4-42.1C588.5,560.9,586.8,560.9,585.2,561 M514.9,561.8c2.9,12.7,5.5,25.4,8.1,38.2
		c0.4,1.3,0.4,3.4,2.5,3.4c-1.9-13.9-4.5-27.7-6.6-41.6C517.5,561.8,516.2,561.8,514.9,561.8 M524.7,561.9
		c1.5,13.7,2.7,27.4,4.2,41.1c0.6,0,1.7,0,2.3,0c-0.6-13.7-1.8-27.4-2.4-41.1C527.5,562,526.1,561.9,524.7,561.9 M505.6,562.9
		c3.9,13.3,8,26.6,11.7,40c0.7,0.1,2,0.2,2.7,0.3c-3.7-13.4-7.3-26.8-10.9-40.2C508.2,562.9,506.5,562.9,505.6,562.9 M380.2,610.2
		c0.1,14.6,0.1,29.2,0,43.8c104.8,0.2,209.6,0.1,314.5,0.1c-0.1-14.6,0-29.3,0-43.9C589.8,610.1,485,610.1,380.2,610.2 M460.5,213.9
		c6.8-2.2,13.5-4.6,20.3-6.7c3.6,28.4,7.3,56.8,10.7,85.2c-6.1,0-12.2,0.1-18.4-0.1C468.9,266.2,464.6,240,460.5,213.9 M498.2,378.2
		c9.1-9.1,22.2-13.3,34.8-13.1c18.3-0.1,36,9.3,47.2,23.7c4.1,5.1,7.4,10.9,8.8,17.3c2.7,12.1,2.1,24.6,1.6,36.9
		c-0.1,2.4-0.1,5,1.4,7c4,5.9,10.7,9.2,17,12.2c-2.6,4.7-5.5,9.2-8.3,13.9c-5.4-2.2-10.7-4.9-14.9-8.9c-6-6.3-9.8-14.6-11-23.2
		c-1.6-1.1-3.1-2.2-4.7-3.4c1.6-3.6,2.7-7.4,3.3-11.3c1.9-0.3,3.8-0.7,5.6-1c0.2-6.7-0.3-13.4-2.2-19.8c-1.7,0.6-3.4,1.2-5.1,1.8
		c-1.4-4.1-3.6-7.9-6.3-11.2c1-1,2-2.1,3-3.1c-4.1-5.5-9.5-10-15.4-13.4c-1.1,1.5-2.3,3-3.4,4.5c-3.2-1.5-6.7-1.9-10.1-2.8
		c-0.4-1.8-0.5-3.6-0.6-5.4c-6.7-0.2-13.4-0.4-20,1c0.2,2.1,0.4,4.2,0.7,6.4c-3.7,2-7.6,3.9-11.4,5.8
		C505,387.4,501.4,382.9,498.2,378.2 M457,385.6c2.5-4.8,5.2-9.5,7.9-14.2c6,1.9,11.1,5.8,16.1,9.7c6.8,5.8,9,15.1,8.8,23.7
		c1.6,0.8,3.1,1.5,4.7,2.3c-1,3.9-1.8,7.8-2.5,11.7c-1.7,0-3.5,0-5.2,0c-0.6,7.2,0.2,14.4,2.2,21.3c1.6-0.5,3.3-0.9,4.9-1.3
		c1.7,3.3,3.7,6.5,6.1,9.3c-1.6,1.3-3.1,2.6-4.6,3.9c3.9,6,9.7,10.4,16,13.4c1.1-1.3,2.2-2.7,3.2-4c3.4,1.3,6.8,2.5,10.2,3.7
		c0.2,1.8,0.4,3.6,0.6,5.4c6.9,0.9,14,0.6,20.7-1.3c-0.4-1.9-0.8-3.8-1.2-5.7c3.9-1.6,7.8-3.4,11.7-5.1c3,4.4,6,8.9,9.2,13.2
		c-13,9.5-30.3,12.6-45.9,8.9c-11.7-2.8-22.7-8.7-31.3-17.1c-11.1-12-14.3-29.3-13.9-45.2c-0.2-6.7,1.3-14-1.6-20.3
		C469.3,392,462.8,388.9,457,385.6 M522,384.3c4.4-0.1,8.8-0.2,13.2-0.3c0,1.8,0.1,3.6,0.1,5.3c4.6,0.5,9,2,13.4,3.4
		c1.1-1.4,2.2-2.8,3.3-4.2c3.7,2.3,7.2,4.8,10.4,7.7c-1.4,1.3-2.8,2.6-4.2,3.9c4.2,3.9,7.4,8.7,8.8,14.3c1.9-0.2,3.8-0.4,5.7-0.5
		c0.3,4.2,0.3,8.4,0.3,12.7c-1.6,0.2-3.2,0.3-4.7,0.5c-0.3,5.1-1.7,10-3.7,14.7c1.3,1,2.6,1.9,3.9,2.9c-3.1,3.1-6,6.5-9.2,9.5
		c-1-1-2-2-3.1-3.1c-4,3.8-8.9,6.7-14.2,8.2c0.3,1.3,0.7,2.6,1,3.9c-4.3,1.4-8.9,1.3-13.4,0.7c0-0.8,0-2.3,0.1-3.1
		c-5.5-0.9-10.7-2.9-15.5-5.8c-0.8,1.2-1.6,2.4-2.4,3.6c-3.3-2.2-6.4-4.8-9.2-7.6c0.9-1.2,1.8-2.5,2.7-3.8
		c-3.5-3.7-5.4-8.4-7.1-13.1c-1.6-1-3.9-0.3-5.7-0.5c0-4,0-8,0-12c1.7-0.1,3.4-0.1,5-0.1c0.3-4.7,1.7-9.2,4-13.3
		c-1.4-1.4-2.7-2.9-4.1-4.3c2.4-3.3,5.3-6.4,8.3-9.2c1.6,0.8,3.3,1.5,4.9,2.3c3.4-3.2,7.7-5.2,12-7.1
		C522.4,388.1,522.2,386.2,522,384.3 M532.7,400.3c-0.3,1.6-0.6,3.2-0.9,4.8c-1.7-1-3.4-1.9-5.2-2.7c0.6,2.6,2.5,4.5,4.7,5.9
		c0,2.7-0.1,5.3-0.3,8c-3.3-1.2-6-3.7-8.9-5.6c0.1,5.1,4.3,8.4,8.4,10.7c0,2.3,0,4.5,0,6.8c-4.3-1.2-8-3.9-11.6-6.5
		c0.3,3,0.6,6.3,2.5,8.8c2,2.8,5.1,4.4,8.2,5.9c0.1,2.2,0.1,4.4,0.1,6.6c-6.1-1.5-10.5-6.2-15.1-10.2c1,6,3.9,11.9,8.9,15.5
		c4,2.8,9.4,4.2,14.1,2.3c7.7-2.4,12.3-10.2,13.5-17.8c-4.5,4-9,8.6-15,10.3c-0.1-2.2-0.1-4.4,0-6.7c3-1.5,6.2-3.1,8.2-5.9
		c1.9-2.5,2.2-5.8,2.6-8.8c-3.6,2.7-7.3,5.3-11.7,6.5c0-2.3,0.1-4.6,0.2-6.9c4-2.3,8.3-5.5,8.4-10.7c-3,1.8-5.7,4.3-9,5.5
		c-0.2-2.7-0.3-5.3-0.2-8c2.2-1.4,4-3.3,4.7-5.9c-1.7,0.9-3.5,1.8-5.2,2.8c-0.3-1.6-0.6-3.2-0.8-4.8
		C533.1,400.3,532.8,400.3,532.7,400.3 M666.9,618c0-1.4,1.6-2.1,2.3-3.1c0.9,0.9,1.8,1.8,2.7,2.7c-0.8,0.9-1.7,1.8-2.5,2.8
		C668.6,619.6,667.7,618.8,666.9,618 M624.4,615.8c1.2,0.8,2.4,1.6,3.6,2.4c0.5-0.7,1.6-2.2,2.1-2.9c0.9,1.2,2.7,1.9,2.8,3.5
		c-0.9,1-1.9,1.9-2.8,2.8c-0.5-0.7-1.6-2.2-2.1-2.9c-1.1,0.9-2.2,1.7-3.4,2.6c-1-0.9-1.9-1.9-2.8-2.8
		C622.6,617.6,623.5,616.7,624.4,615.8 M658.5,620.9c1.1-1,2.1-2,3.2-3c0.5,5.4,0.2,10.9,0.1,16.3c3,1.5,6.4,1.4,9.7,0.9
		c-1.1-1.4-2.2-2.8-3.5-4c0.9-1.8,1.9-3.5,2.9-5.2c2.4,3.4,3.8,8.1,1.8,12.1c-1.1,2.7-3.9,4.5-6.8,4.2c-2.8,0.6-4-2.4-5.4-4.2
		c-2,5.2-8,4.2-12.5,4.2c-3.1-0.1-7.6,0.6-8.8-3.2c-0.4-3-1.3-7,1.3-9.2c0.6,1.8,0.1,4.8,2.5,5.4c5,0.6,10.1,0.3,15.1,0
		C658.7,630.4,659.4,625.6,658.5,620.9 M646.2,625c0.2-3,3.4-4.3,5.8-5.3c0.2,1.7-0.7,3-1.8,4.1c0.7,1,2.7,1.6,2.2,3.2
		c0.1,2.6-2.6,3.8-4.8,4.2c0.5-1.3,1-2.5,1.5-3.8C648,626.7,647,625.9,646.2,625 M447.8,621.1c3.5,0.1,7.2-0.5,10.6,0.5
		c4.3,2.1,4.2,8,1.5,11.4c1.9,3.3,1.2,7.2,1.9,10.9c-1.4,0-2.8,0-4.1,0c-0.5-2.8-0.1-5.8-1.2-8.5c-1.6-0.2-3.2-0.3-4.8-0.3
		c0,2.9,0,5.8-0.1,8.7c-1.3,0-2.6,0-3.8,0.1C447.8,636.2,447.8,628.7,447.8,621.1 M451.7,625.5c0,1.8,0,3.7,0,5.5
		c2.3-0.2,6.5,0.5,6.3-3.1C457.7,624.7,453.9,625.8,451.7,625.5 M470.6,621.6c1.3-0.2,2.6-0.2,3.9-0.3c2,7.3,3.7,14.8,5.6,22.1
		c-1.3,0-2.7,0-4,0c-0.4-1.5-0.7-3-1.1-4.5c-1.7,0-3.3,0-5,0c-0.3,1.5-0.7,3-1,4.4c-1,0-2.9,0.1-3.8,0.2
		C466.9,636.2,468.6,628.9,470.6,621.6 M472.4,627.9c-0.5,2.4-1,4.8-1.5,7.1c0.8,0,2.4-0.1,3.2-0.1
		C473.6,632.5,473,630.2,472.4,627.9 M480.2,621.4c4.4-0.1,8.8-0.1,13.2,0.1c-0.1,1.4-0.2,2.8-0.3,4.2c-1.5,0-3,0-4.5,0
		c0,6,0.2,11.9-0.1,17.9c-0.9-0.1-2.7-0.2-3.6-0.2c0-5.9-0.1-11.8,0.1-17.6c-1.6,0-3.1-0.1-4.7-0.1
		C480.2,624.2,480.2,622.8,480.2,621.4 M548,621.1c1.2,0.1,2.4,0.1,3.6,0.1c0,2.6,0,5.3,0.1,7.9c1.8-2.6,3.5-5.3,5.3-8
		c1.4,0,2.9,0.1,4.4,0.1c-1.9,3.3-4.1,6.3-6.1,9.6c2.2,4.3,4.4,8.6,6.5,13c-1.5,0-3.1,0-4.6,0c-1.7-3.1-2.7-6.7-5.2-9.3
		c-0.4,3.1-0.3,6.2-0.3,9.2c-1.2,0-2.5,0-3.7,0.1C548,636.3,547.9,628.7,548,621.1 M599.1,624.1c1.2-1.2,2.5-2.3,3.8-3.4
		c0.5,4.6,0,9.3,0.6,13.9c3.8,1.5,8.5,0.8,12.5-0.2c-2.3-2.1-5.1-1.7-7.4,0.3c0.4-2.6,0.3-6.2,3.3-7.3c3.7,0.6,7.2,1.7,10.8,2.7
		c-0.4,1.5-0.7,3-1.1,4.5c-0.4,0.2-1.2,0.7-1.7,0.9c2.8-0.2,5.5-0.2,8.3-0.5c-1.1-1.4-2.2-2.7-3.4-4c0.8-1.7,1.7-3.3,2.6-5
		c3.7,3.7,4.2,10.1,0.6,14c-3.4,3.8-11.2,2.2-11.5-3.4c-2.1,2.2-4.1,5.5-7.6,5.4c-2.9,0-7,0.7-8.5-2.6
		C599.1,634.5,599.4,629.2,599.1,624.1 M675.9,624c1.2-1.1,2.5-2.3,3.8-3.3c0.4,4.5-0.2,9,0.5,13.4c0.3,1.8,2.4,1.1,3.7,1.3
		c1.8,0,3.6-0.2,5.4-0.4c-1.1-1.4-2.2-2.8-3.5-4c0.9-1.8,1.9-3.5,3-5.2c3.5,4.6,4.1,12.4-1.5,15.6c-3.3,1.1-8.8,1.6-10.3-2.4
		C675.8,634.1,676.4,629,675.9,624 M384.9,622.2c4.3,0,8.6,0,12.8,0c0.1,1.5,0.2,2.9,0.3,4.4c-1.6,0.1-3.2,0.1-4.8,0.2
		c0,5.8,0,11.7,0,17.5c-1,0-2.9,0-3.8,0c-0.1-5.9,0-11.7-0.1-17.6c-1.4,0-2.9,0.1-4.3,0.1C385,625.2,385,623.7,384.9,622.2
		 M401.4,622.2c4.1-0.1,8.2-0.1,12.4,0c0.1,1.4,0.1,2.9,0.2,4.3c-2.9,0.1-5.8,0.2-8.7,0.1c0,1.3,0,2.6,0,4c2.6,0,5.2,0,7.9,0
		c0,1,0,3.1,0,4.2c-2.6,0-5.2-0.1-7.7,0.2c-0.1,1.6-0.1,3.2-0.1,4.8c3,0,6,0,9,0c0,1.4,0,2.9,0,4.3c-4.3,0-8.6,0.1-12.9-0.1
		C401.4,636.7,401.3,629.5,401.4,622.2 M422.8,639.8c1.1-6,0-12.1,0.6-18.2c1,0,2.9,0.1,3.9,0.2c-0.1,6.1,0.5,12.2-0.3,18.3
		c-0.6,4-6.1,5.5-9,2.9c-2-2.1-1.8-5.2-2.1-7.8c1.3,0,2.5-0.1,3.8-0.1C419.8,636.8,419.8,641.5,422.8,639.8 M435.8,622.2
		c1.3,0,2.6,0,3.8,0c1.9,7.3,3.8,14.6,5.5,22c-1.3,0-2.6,0-3.9,0c-0.4-1.4-0.7-2.8-1.1-4.2c-1.7,0-3.4,0-5,0
		c-0.4,1.4-0.7,2.8-1.1,4.2c-1,0-2.9,0-3.8,0C432.1,636.9,433.8,629.5,435.8,622.2 M437.6,628.9c-0.5,2.2-1,4.4-1.5,6.6
		c0.8,0,2.2,0.1,3,0.1C438.7,633.4,438.2,631.1,437.6,628.9 M500.1,621.9c3.2,0,6.5-0.4,9.7,0.4c3.7,1.9,3.1,6.6,1.9,9.9
		c1.9,3.6,2.4,9.4-1.9,11.5c-3.2,0.5-6.4,0.2-9.6,0.2C500.1,636.6,500,629.2,500.1,621.9 M503.8,630.2c1.8,0.4,3.6,0,5.3-0.1
		c-0.4-1.2,0.3-3.2-1.1-3.8c-1.4-0.2-2.8-0.3-4.2-0.1C503.7,627.5,503.7,628.9,503.8,630.2 M503.7,634.7c0,1.7,0,3.5,0,5.2
		c1.7-0.1,3.5,0.1,5.1-0.6c0.8-1.4,0.5-3,0.2-4.5C507.3,634.8,505.5,634.7,503.7,634.7 M520.3,622c1.4,0,2.8,0.1,4.2,0.2
		c1.5,7.3,3.6,14.5,5.2,21.8c-1,0-3,0-3.9,0c-0.3-1.4-0.6-2.8-0.9-4.2c-1.7,0-3.4,0-5.1,0c-0.4,1.4-0.7,2.8-1,4.2
		c-1.3,0-2.5,0-3.8,0C516.6,636.6,518.5,629.3,520.3,622 M522.4,628.7c-0.6,2.2-1.2,4.4-1.8,6.6c1.1,0.1,2.1,0.2,3.2,0.3
		C523.3,633.3,522.9,631,522.4,628.7 M531.2,622.2c1.3-0.1,2.6-0.2,3.9-0.3c2,4.4,3.7,8.8,5.5,13.3c0.5-4.4,0.3-8.8,0.4-13.2
		c1.2,0.1,2.4,0.1,3.5,0.2c-0.1,7.2,0,14.4,0,21.6c-1.2,0-2.3,0-3.5-0.1c-2.5-4.4-3.9-9.2-6.1-13.8c-0.2,4.6,0,9.2-0.2,13.9
		c-1.2-0.1-2.4-0.1-3.5-0.1C531.2,636.6,531.3,629.4,531.2,622.2 M570,625.1c1-1,2-1.9,3-2.8c0.9,0.8,1.8,1.6,2.7,2.5
		c0.9-0.8,1.9-1.6,2.8-2.4c0.7,1.1,2.4,1.8,2.3,3.2c-0.8,0.9-1.7,1.8-2.6,2.6c-0.9-0.9-1.7-1.9-2.5-2.8c-0.9,0.9-1.8,1.8-2.7,2.7
		C571.9,627.1,571,626.1,570,625.1 M583.5,628.1c4.8,2.8,3.1,10.7-1.7,12.7c-4.5,1.8-9.7,1.5-14.4,0.7c-4.3-2.3-3.5-8.2-2.2-12.1
		c2.2,1.2,0.9,4.9,3.7,5.4c4.8,1.1,9.8,0.2,14.7,0.1c-0.8-0.9-1.6-1.9-2.4-2.9C581.9,630.7,582.6,629.4,583.5,628.1 M593.4,631.1
		c1.5,0,1.6,1.8,2.2,2.8c1.5,4.5,2.2,9.9-0.5,14.1c-2.3,2.8-6.3,1.4-9.2,0.4c3-2.6,6.2-5,8.7-8.1c-1.2-1.4-2.4-2.9-3.7-4.3
		C591.8,634.3,592.5,632.7,593.4,631.1 M611.9,648.3c1-1,2.1-2,3.1-2.9c1,1,2.1,2.1,3.1,3.1c-1,1-2.1,1.9-3.1,2.9
		C613.9,650.4,612.9,649.3,611.9,648.3 M684.1,646.1c1,0.9,2,1.7,3,2.6c-1,0.9-2,1.9-3,2.8c-0.8-0.9-1.5-1.8-2.2-2.6
		C682.6,647.9,683.4,647,684.1,646.1 M465.6,716.1c8.1,0,16.1,0,24.2,0c-0.1,16.3,0,32.6,0,49c0,3.2,0.3,6.9,3,9
		c1.6,1.7,4,1.8,6.2,1.8c15.6,0,31.3,0,46.9,0c3.1,0.2,6-2,7.1-4.9c0.7-2.1,0.5-4.3,0.6-6.5c-16,0-32,0-48.1,0c0-8.1,0-16.3,0-24.4
		c21.5,0,43-0.3,64.5,0.1c0,9.3,0,18.6,0,27.9c-0.4,4.2,3.6,8.2,7.8,7.8c17.3,0,34.7,0,52,0c1.4,0.2,3.4-0.5,4.2,1.1
		c0.2,7.8,0,15.7,0.1,23.5c-14.4,0.1-28.7,0.1-43.1,0c-10.3-0.1-19.4-8.3-21.3-18.4c-1.8,10.3-11.3,18.6-21.8,18.4
		c-20.3,0-40.6,0-61,0c-11.2-0.1-21.4-10.1-21.3-21.4C465.6,758,465.6,737,465.6,716.1 M361,724.1c6.1-5.1,16.4-3.5,20.6,3.2
		c3.6,4.9,3.3,12-0.5,16.7c-4.3,5.9-13.4,7.4-19.3,3.1c-3.1-1.9-4.7-5.2-6.1-8.4c-1.5,5.1-5.3,9.7-10.7,10.9
		c-7.4,2.1-15.7-3.1-17.4-10.5c-2.3-8.4,4.7-17.5,13.3-17.7c6.9-0.4,13.2,4.8,14.6,11.4C356.6,729.6,358.1,726.2,361,724.1
		 M611.3,733c1.4-6.3,7-11.8,13.7-11.7c7.7-0.7,14.9,6.1,14.8,13.8c0.5,7.9-6.9,15.2-14.9,14.6c-6.6,0-12.1-5.3-13.5-11.6
		c-1.3,9-12,14.7-20.2,10.6c-7.8-3.4-10.8-14.3-5.7-21.1c4-6.1,12.8-8,19-4.2C608.1,725.4,610.5,729,611.3,733 M645.6,755.8
		c8.1,0,16.2,0,24.3,0c0.6,17.7,0,35.5,0.3,53.2c0.3,3.8,3.9,7.1,7.7,6.9c12.1,0,24.2,0,36.2,0c0,8.2,0,16.3,0,24.5
		c-11.7,0-23.4,0-35.2,0c-10.1-0.3-19.4-8.3-21-18.4c-1.7,6.2-5.1,12-10.8,15.3c-4.2,2.6-9.3,3.4-14.2,3.2c-31.8-0.1-63.5,0-95.2,0
		c0-8.2,0-16.3,0-24.5c33.4,0,66.9,0,100.3,0c4.1,0.1,7.9-3.7,7.5-7.9C645.6,790.6,645.4,773.2,645.6,755.8 M725.7,755.8
		c8.2,0,16.3,0,24.5,0c0.1,17.4,0,34.8,0,52.2c-0.4,4.2,3.4,8,7.6,7.9c12,0.1,24,0,36,0v24.5c-14.7,0.1-29.3,0-44,0.1
		c-12.6,1.2-24.7-9.7-24.3-22.5C725.7,797.3,725.7,776.5,725.7,755.8 M285.1,763.9c44.2,0.3,88.4-0.1,132.6,0.1c0,8.1,0,16.2,0,24.3
		c-36.9,0.1-73.9,0-110.8,0C294.5,788.4,283.7,776.3,285.1,763.9 M429.5,763.9c8.1,0.3,16.2,0.1,24.4,0.2c0.1,15.7,0,31.3-0.1,47
		c0,11.1-9.9,21-21,21.2c-10.4,0.1-20.9,0-31.3,0c0-8.2-0.1-16.4,0.1-24.5c6.8,0,13.6,0.1,20.5,0c4.1,0.1,7.7-3.7,7.4-7.8
		C429.5,788,429.4,775.9,429.5,763.9 M693.3,767.5c7.6-3.5,17.3,1.5,19.3,9.6c2.7,8.5-4.8,18.1-13.7,17.9c-7.2,0.3-13.9-5.8-14.4-13
		C683.9,775.9,687.7,769.8,693.3,767.5 M499.4,814.6c7.3-3.6,17,0.6,19.4,8.4c3.3,8.5-3.7,18.9-12.8,18.8
		c-7.7,0.7-15.1-6.2-14.8-13.9C490.6,822.3,494.4,817,499.4,814.6 M754.5,868c-1.4-7.7,4.7-15.6,12.4-16.5
		c7.5-1.1,15.2,4.8,15.9,12.4c1.1,7.4-4.4,14.5-11.6,16.1h-4.2C760.9,879.2,755.5,874.2,754.5,868L754.5,868z"/>
</g>
</svg>
