<?xml version="1.0" encoding="utf-8"?>
<!-- Generator: Adobe Illustrator 24.3.0, SVG Export Plug-In . SVG Version: 6.00 Build 0)  -->
<svg version="1.0" id="Layer_1" xmlns="http://www.w3.org/2000/svg" xmlns:xlink="http://www.w3.org/1999/xlink" x="0px" y="0px"
	 viewBox="0 0 1080 1080" style="enable-background:new 0 0 1080 1080;" xml:space="preserve">
<style type="text/css">
	.st0{fill:#046B10;}
</style>
<g>
	<path class="st0" d="M484.6,328.1c20.1-0.5,40.3-0.1,60.4-0.3c13.6-1.4,27.3-0.4,41-0.7c2.3,0.2,5.2-0.7,7.1,1.2
		c8,7.1,15,15,22.8,22.3c15.5,15.5,31.2,30.8,46.8,46.2c2.2,2.2,4.7,4.1,6.4,6.7c0.3,1.6,0.2,3.2,0.2,4.9c-0.1,34,0.2,68,0,102
		c-1.6,3-4.5,5-6.8,7.5c-23,23-45.9,46.1-68.8,69.2c-23.2,0.3-46.5-0.3-69.7,0.5c-12,0-24,0-36,0c-2.8,0.2-4.4-2.3-6.2-3.9
		c-23.5-23.2-46.8-46.6-70.4-69.6c-1-1-1.9-2.2-1.8-3.7c-0.4-33.3-0.2-66.6-0.4-100c0.1-2.2-0.2-4.4,0.4-6.6
		c5.9-6.8,12.6-12.6,18.7-19.2c15.3-15.3,30.5-30.9,45.8-46.2C477.6,335,480.8,331.2,484.6,328.1 M500.3,367.8
		c-13.2,13.5-26.6,26.7-39.8,40.2c-4,4.1-8.3,8-11.8,12.6c-0.7,1.9-0.3,3.9-0.4,5.9c0.2,23-0.2,46,0.2,68.9c2.7,3.4,6.1,6.2,9.2,9.3
		c13.8,13.9,27.9,27.4,41.7,41.3c3.5,4.4,9.7,2.3,14.5,2.3c21.2-0.2,42.4,0,63.5-0.3c17.1-17.9,34.7-35.3,52.2-52.8
		c0.3-15.6-0.3-31.1,0.4-46.7c-0.7-9.5,0-19.1-0.5-28.7c-16.3-16.9-33.5-33.1-49.9-50c-1.4-1.3-2.5-3.3-4.7-3.1
		c-23.3-0.1-46.7,0-70,0C503.4,366.7,501.5,366.3,500.3,367.8 M513.5,394.6c8.5-9.4,17.8-18,26.5-27.3
		c18.6,18.4,36.9,37.1,55.4,55.7c11.1,11.5,22.7,22.5,33.6,34.3c-8.3,10.3-18.3,19.1-27.2,28.8c-1.8,2.5-5.1,1.7-7.7,1.8
		c-16.3-0.1-32.6,0-48.9,0c9.7-10.4,19.9-20.4,29.8-30.6c-10.7-11.2-21.9-22-32.7-33.2C532.7,414.3,522.5,405,513.5,394.6
		 M477.6,428c1.5-2,4.2-1.2,6.4-1.4c16.7,0.2,33.5-0.2,50.2,0.2c-9.6,10.5-20,20.1-29.5,30.7c2.9,3.8,6.6,6.9,9.8,10.4
		c16.7,16.6,33.2,33.5,49.8,50.2c0.5,0.7,2.1,1.9,1,2.7c-8.9,8.6-17.3,17.7-26.3,26.3c-28.6-28.4-56.7-57.1-85.1-85.6
		c-1.3-1.3-2.6-2.7-3.8-4.1C458.7,447,468.6,437.9,477.6,428 M741.7,578c5.4-4.6,10.1-10,15.6-14.6c-1.5,5.8-6,10.1-9.8,14.4
		c-9,8.8-18.9,16.5-29,24.1c-3.1,2.4-6,5.2-9.5,7c1.1-3.6,3.7-6.5,6.5-9C724,592.3,733.3,585.7,741.7,578 M707.3,584.2
		c2,1.4,4,2.9,5,5.2c-0.1,2.9-1.4,5.8-3.7,7.6c-2.6,0.4-4-2.3-5.9-3.7C704,590.2,705.5,587.1,707.3,584.2 M631.7,594
		c1.8-1,3.1,1.4,4.3,2.3c2.3,3.3-0.2,7.3-2.3,10c-2.6-0.3-4.4-2.2-6.1-4C628.9,599.6,630,596.6,631.7,594 M642.2,593.5
		c2.9,0,5,3.1,5,5.8c-0.6,2.6-2.1,4.8-3.6,6.9c-2.1-0.9-4.1-2.2-5.5-4.1C638.2,598.9,640.2,596,642.2,593.5 M702.6,624.5
		c1-4.8,2.5-9.6,5.6-13.5c-1.5,9.7-4.2,19.4-3.6,29.3c0.3,3.5,3.5,5.5,6.8,4.7c0.7-1.7,0.9-3.8,2.6-4.8c-0.8,4.8-1.9,10-5.2,13.8
		c-1.2,1.6-3.4,1.1-5.1,0.7c-1.9-1.1-2-3.5-2.5-5.3c-1-4.8,0-9.6,0.5-14.4c-3.2,2.1-4.7,5.9-7.6,8.4c-9.1,9.3-22.6,12.2-35.1,13.3
		c-5.8-0.1-12.5,0.9-17.3-3c-2.4-4.5-1.1-9.7-0.5-14.5c1,1.7,1.7,3.5,2.9,5.1c3.4,2.6,7.8,2.7,11.9,2.7c11.5,0.2,23.4-1.6,33.7-6.9
		C695.8,636.9,701.1,631.4,702.6,624.5 M530.9,625.8c1-4.6,1.9-9.6,4.7-13.5c-1,9-3.1,17.9-2.8,26.9c0.1,4.1,3.9,8.2,8.2,7.1
		c3.2-0.4,4-4.2,6.3-5.8c1.8-0.1,3.5,0.2,5.3,0.4c2.2-3.9,4.4-8.1,8-11c1.5-1.6,3.9-0.9,5.8-1.1c2.2,5.9-1.5,12.1-5.8,16
		c-4,3.7-10.1,4-14.9,1.8c-2.4,2.7-4,6.3-7.2,8.2c-1.9,0.4-4,0.4-5.9-0.1c-2.8-1.7-3.4-5.3-3.5-8.3
		C529.1,639.5,530.6,632.7,530.9,625.8 M554.7,640.9c4.3,0.6,7.6-2.5,10-5.6c-1.2-0.8-2.1-2.2-3.7-2.3
		C557.8,634.4,556,637.8,554.7,640.9 M722.4,622.4c0.9-3.5,1.7-7.2,4.1-10c-1.5,9.6-3.8,19.2-2.9,29c0.7,2.9,3.3,4.2,6.1,3.9
		c0.8-1.7,1.6-3.6,3-4.9c-0.7,4.4-1.9,8.8-4,12.8c-1.5,3-6.5,2.7-7.8-0.3c-0.9-3.1-1.3-6.3-1-9.4
		C720.6,636.3,721.2,629.3,722.4,622.4 M636.8,631c-0.4-5.2,1.1-10.9,4.6-14.8c-0.1,3.7,0,7.5-0.5,11.2c-0.5,3.8-3,6.8-5,10
		c-2.9,4.2-4,9.5-7.5,13.3c-4,2.9-9,3.6-13.7,4.6c5.1-4.3,12.4-6.5,15.6-12.9c-2.2-0.2-4.4-0.5-6.6-0.7c-0.9-4.5,1.1-9.1,4.3-12.2
		c1-0.7,2.4-0.4,3.5-0.6c1.1,1.3,2.2,2.6,3.3,3.9C635.4,632.2,636.3,631.4,636.8,631 M374.1,621.4c0.6-1.5,1.1-3,2.4-4
		c-0.6,6.4-1.7,12.8-2.5,19.3c-0.6,6.1-3.9,11.4-7,16.5c-0.1-1-0.4-2,0-2.9c1.9-5.8,3.5-11.7,3.7-17.8
		C370.8,628.5,372.7,625,374.1,621.4 M409.6,630.4c0.7-4.8,2.9-9.2,5.3-13.3c-0.4,7.1-1.6,14.2-2.6,21.3c-1.4,5.1-3.2,10.5-7.1,14.3
		C406.9,645.3,409.2,638,409.6,630.4 M483.3,633.3c0.3-5.8,3-11,5.4-16.1c-0.3,11.7-1.2,24-7.8,34.1c-0.4,0.3-1.3,1-1.7,1.3
		C481.2,646.3,482.8,639.9,483.3,633.3 M359.4,625.7c1.1-2.6,2.1-5.3,4.1-7.4c-1.5,8.3-1,16.9-3.8,25c-3.3,10.1-10,20.8-21.1,23.3
		c-4.3,0.3-9.3,1.1-12.7-2.2c-4.3-3.3-4.9-9.3-4.2-14.3c0.7-7.2,4.3-13.6,7.6-19.8c0.4-1,1.3-1.6,2.3-1.8
		c-2.7,6.5-7.4,12.8-6.2,20.2c0.1,3.8,3.3,6.7,6.7,7.9c5.3,0.8,11.2,0.6,15.9-2.5c4.6-3.1,8.3-7.6,10.2-12.9
		C359.2,636.2,357.3,630.7,359.4,625.7 M451.5,618.8c2.2,0,3.9,2.3,5,4.1c0.5,3.1-1.5,5.7-2.8,8.3c-2.8,0.2-4.5-2.1-6.4-3.7
		C448.4,624.5,449.4,621.4,451.5,618.8 M437,628.1c1.1-3,2.3-6,4.2-8.6c2.3,0.2,4.1,2,5.2,4c0.4,3.2-1.6,6-3.1,8.7
		C440.7,631.6,438.9,629.7,437,628.1 M512.2,631.3c0.7-3.6,2.3-7,4.7-9.7c2,1.9,4.2,3.9,5.2,6.6c2.6,10.7-3.7,23.1-14.2,26.6
		c2.7-5,8.4-8,9.8-13.7C518.5,636.8,514,634.6,512.2,631.3 M395.9,631.2c3.2-1.6,6-3.9,8.2-6.8c-0.6,3.5-1.6,7.2-3.9,10.1
		c-2.8,2.2-7,3-8.7,6.4c-2.5,4.1-2.9,9.8-7.3,12.4c-3.2,1.4-6.8,1.8-10.3,1.8c2.8-3.9,7.9-5.3,11.2-8.8
		C390.3,642.5,389.7,634.2,395.9,631.2 M674.9,625.3c1-1.3,2.7-0.6,4-0.3c-1.1,0.7-2.2,1.4-3.3,2.1c-0.6,2.3-0.9,5.8-3.8,6.3
		c-1.5,0.7-2.8-0.3-3.9-1.3c1.6-0.3,3.3-0.5,4.9-0.9C673.5,629.3,673.4,626.9,674.9,625.3 M343.2,628.6c2.8,0.4,5.5,2.9,5.2,5.9
		c0.3,2.6-1.7,4.5-3.2,6.3c-2.8,1-4.7-2.1-6.8-3.4C339.1,634.2,340.2,630.3,343.2,628.6 M609.7,637.2c3.1-2.2,5.9-4.8,8.4-7.7
		c-0.5,4.5-3.1,8.6-7,11c-3.5,2.4-7.1,4.8-10.4,7.5c-2.5,2.2-6.3,0.1-8.7,2.4c-3.1,2.2-5.9,5.8-10.1,5.8c-2.7,0.3-5.2-1-7.9-1.2
		c-2.9,0.3-5.4,2-8,3.1c2.2-4.4,5.8-8,10.2-10.3c3.7-1.9,7.8-0.1,11.7-0.2c1.7-0.3,2.7-1.8,3.8-3c-0.4-0.6-1.1-1.9-1.4-2.5
		c-1.2-0.3-2.4-0.6-3.6-0.9c2-3.3,6.3-4.4,10-4c1.4-0.1,2.5,1,2.9,2.2c-0.4,1.7-1.1,3.4-1.5,5.1
		C603.2,644.4,605.3,638.8,609.7,637.2 M469.2,639.7c2.9-1.3,4.8-4,6.9-6.3c-0.9,5.6-3.5,11.4-8.5,14.4c-7.7,4.6-16.8,6.2-25.6,7.1
		c-6.8,0.2-13.8,0.9-20.4-1c-2.1-0.5-3.7-2.2-4.9-4c-0.9-4.9,0.8-9.8,2-14.4c0.7,2.3,0.5,5.2,2.9,6.5c6,4.2,13.6,2.9,20.4,3.1
		C451.3,645.4,460.7,643.6,469.2,639.7 M502.8,641.2c1-1.7,2-3.5,3.4-5c-0.7,9.8-8.6,18.3-18.3,19.6
		C492.1,650.3,499,647.2,502.8,641.2 M398.3,663.3c2,1.4,4,2.8,5,5.1c0.4,3.4-2,6.2-4.3,8.4c-1.6-1.5-3.8-2.5-4.8-4.5
		C394.8,669.1,396.9,666.3,398.3,663.3 M388.1,664.3c1.6,0.9,3.9,1.5,4.5,3.5c1.1,3.3-0.3,7.7-3.6,9.3c-1.9-0.8-3.7-2.1-4.9-3.8
		C384.4,669.9,386.5,667.1,388.1,664.3 M725.6,664.7c1,0.1,1.9,0.1,2.9,0.2c3.5,3.4,2.4,8.5-0.2,12.1c-2.7,0.2-4.7-1.8-6.3-3.7
		C722.5,670.2,724.4,667.6,725.6,664.7 M397.4,690.1c4-0.5,8.5-0.8,11.6,2.3c4.4,3.6,4,9.8,3.6,14.8c-0.3,4.9-4.4,9.9-9.6,9.8
		c-3.7,0.3-8,0-10.4-3.2c-3.2-4.4-3.7-10.3-2.4-15.4C391,694.6,393.8,691.3,397.4,690.1 M400.3,696.3c-4.6,1.9-4.1,8.4-2.7,12.3
		c1.3,3.7,7,2.8,7.8-0.8c0.6-3.4,1.2-7.7-1.2-10.5C403.1,696.5,401.6,695.5,400.3,696.3 M515.1,690.4c3.4,0.5,6.8-0.6,10.2-0.3
		c2,6,3.1,12.3,5.3,18.3c1.9-5.8,2.6-12,4.9-17.6c1.7-1.6,4.7-0.2,6.9-0.5c-2.3,8.9-5.4,17.7-8.1,26.5c-2.5,0-5.1,0-7.6,0.1
		c-2.8-8.3-5.1-16.7-8.1-25c-0.3-0.2-1-0.5-1.3-0.6c-0.8,1.5-0.6,3.1-0.6,4.7c-3.5,0-7-0.1-10.6,0c-1.9,0.4-0.8,2.8-1,4.1
		c3.6,0,7.2-0.1,10.7,0.2c0,1.7-0.1,3.4-0.1,5.1c-3.6,0.4-7.1,0.3-10.7,0.3c0.2,1.6-1,4.4,1.1,5c3.6,0.2,7.2,0,10.8,0
		c0,2,0,4.1-0.1,6.2c-6.2-0.2-12.4-0.2-18.6-0.1c-0.8-8.8-0.1-17.8-0.3-26.6C503.6,690.2,509.4,689.8,515.1,690.4 M594.5,690.1
		c3.7-0.3,8-0.9,11,1.8c5.2,4.2,4.7,11.8,3.7,17.8c-2.4,8.9-16.5,10.2-20.7,2.2c-2.4-5.1-2.4-11.3-0.2-16.5
		C589.3,692.7,591.8,691,594.5,690.1 M596.4,696.6c-3.2,2-2.8,6.5-2.6,9.8c0.2,3,3,5.7,6.1,4.3c3.7-1.9,2.9-6.7,2.8-10.1
		C602.7,697.6,599.1,694.8,596.4,696.6 M636.4,690c3,0.1,6,0,9-0.1c0.9,5.2,2.5,10.2,3.4,15.5c1.7-4.9,2.3-10.1,3.5-15.1
		c3.1-0.3,6.2-0.3,9.3,0.1c-0.2,8.8,0,17.6-0.1,26.4c-1.8,0-3.5,0.1-5.3,0.2c-0.9-6.2-0.1-12.5-0.5-18.7c-1.7,6.2-2.6,12.5-4.3,18.7
		c-1.7-0.1-3.5-0.2-5.2-0.3c-1.1-5.8-2.2-11.7-3.8-17.4c-0.1,5.8,0,11.7-0.2,17.5c-1.9,0-3.9,0-5.8-0.1
		C636.4,707.8,636.2,698.9,636.4,690 M321.2,690.2c6.1,0,12.3-0.4,18.4,0.3c-0.1,1.8-0.1,3.7-0.2,5.5c-3.5,0.1-7-0.1-10.5,0.1
		c-1.8,0.5-0.8,2.7-1.1,4c3.6,0,7.1,0,10.7,0.1c0,1.8,0,3.7,0,5.5c-3.5,0-7.1,0-10.6,0.1c0,1.6,0,3.3-0.1,4.9c4,0.2,8,0.1,12,0.1
		c0,2-0.1,4.1-0.1,6.1c-6.2-0.2-12.3-0.1-18.5,0C320.8,708,321,699.1,321.2,690.2 M342.3,690.2c2.2-0.1,4.5-0.2,6.7-0.1
		c2.2,2.2,3.1,5.4,4.5,8.2c1.1-2,2-4.2,3.1-6.2c1.3-3.3,5.7-1.6,8.4-1.7c-1.9,4.4-5,8.3-6.7,12.8c2,4.7,5.5,8.6,7,13.6
		c-2.2,0-4.5,0.1-6.7-0.1c-2.7-1.5-2.7-5.8-5.4-7.3c-1.6,2.3-2.5,5-4.2,7.2c-2.5,0.3-5.1,0.1-7.6,0c2.2-4.6,5.1-8.8,7.3-13.4
		C347.4,698.6,343.7,694.9,342.3,690.2 M367.8,690.2c4.1-0.1,8.2-0.2,12.3,0c3,0.1,6.2,2.2,6.5,5.4c0.4,3.4,0.7,7.7-2.5,9.9
		c-2.5,2.3-6.1,1.3-9.2,1.7c-0.1,3.2-0.1,6.4-0.1,9.5c-2.4,0.1-4.7,0.1-7.1,0.1C367.8,707.9,367.6,699,367.8,690.2 M375.2,695.6
		c-0.1,1.8-0.9,3.9,0.1,5.6c1.3,1.1,3-0.2,4.5-0.3c-0.1-1.6-0.1-3.3-0.2-4.9C378,695.9,376.6,695.8,375.2,695.6 M416.5,690.3
		c5.6-0.2,11.5-0.9,17,0.7c4.1,2.1,3.4,7.1,2.9,10.9c-1.3,1-2.6,2-3.9,2.9c2.9,3.4,4.7,7.5,5.8,11.8c-2.4,0-4.8,0.2-7.2,0
		c-2.6-3.4-3.1-8.1-6.3-11.2c-2.2,3.3-0.8,7.6-1.3,11.3c-2.3,0-4.6,0-6.9,0C416.4,708,416.8,699.1,416.5,690.3 M423.6,695.8
		c0,1.7,0,3.5,0,5.2c1.9-0.2,4.2,0.2,5.7-1.3c0.2-1.1,0.4-2.2,0.5-3.2C427.8,695.9,425.7,695.7,423.6,695.8 M439.2,690.1
		c6.9,0,13.8,0,20.7,0c0.1,2.2,0.2,4.4,0.3,6.6c-2.4,0-4.7,0.1-7.1,0c-0.6,6.7-0.1,13.4-0.3,20c-2.2-0.1-4.3-0.1-6.5,0
		c-0.9-6.7-0.3-13.4-0.5-20c-2.3,0-4.6,0-7,0C438.9,694.6,439,692.3,439.2,690.1 M473.5,690.5c4.9-0.4,10.1-1,14.9,0.6
		c4.7,2,5.7,7.8,5.9,12.3c0.1,5-1.5,11.5-7,12.9c-4.5,0.9-9.2,0.2-13.7,0.5C473.5,708,473.5,699.2,473.5,690.5 M480.5,696.5
		c0,4.7,0,9.4,0,14c2.1,0.2,4.9,0.3,5.9-2c1.1-3.3,1.3-7.2-0.2-10.3C485.1,696,482.4,696.8,480.5,696.5 M544.6,690.5
		c6.2-0.6,12.6-0.6,18.9,0c0,1.8,0,3.6,0,5.4c-3.8,0.1-7.6-0.1-11.3,0.1c-0.8,1.1-0.5,2.6-0.8,3.9c3.7,0.1,7.3,0.1,11,0.2
		c0,1.8,0,3.6,0,5.4c-3.5,0.1-7.1,0.1-10.6,0.1c-0.1,1.7-0.1,3.3-0.1,5c4,0.1,8,0.1,12,0.1c0,2-0.1,4-0.1,6c-6.3,0-12.6,0-18.9,0
		C544.7,708,544.7,699.2,544.6,690.5 M567.3,690.2c2.3-0.1,4.6-0.1,6.9-0.1c0.1,6.7,0,13.3,0,20c3.6,0,7.3,0,10.9,0.2
		c0.1,2.1,0.1,4.2,0.1,6.3c-6,0.2-12,0.2-17.9,0C567.3,707.8,567.2,699,567.3,690.2 M613.8,690.2c4.6,0.1,9.4-0.5,13.9,0.4
		c6,1.5,6.3,9.6,3.3,13.8c-2.4,3.3-6.8,2.5-10.3,2.7c-0.1,3.2-0.1,6.3,0,9.5c-2.3,0.1-4.7,0.1-7,0.1
		C613.8,707.9,613.6,699,613.8,690.2 M620.8,696c-0.1,1.7-0.1,3.5-0.2,5.3c2,0.7,4.8,0.2,5.4-2.1c-0.1-1.2-0.7-2.3-1.2-3.4
		C623.4,695.8,622.1,695.9,620.8,696 M665.6,690.5c4.8-0.7,9.6-0.3,14.4-0.4c1.4,0.1,3.5-0.4,4.3,1.3c0,1.5,0.1,3,0,4.5
		c-3.9,0.1-7.8,0.1-11.7,0.1c-0.1,1.3-0.1,2.6-0.2,3.9c3.7,0.2,7.3,0.2,11,0.1c0,1.8,0,3.7-0.1,5.5c-3.6,0-7.2,0-10.9,0.1
		c0,1.6,0,3.1,0,4.7c4,0.5,8.1,0.3,12.1,0.3c0,2,0,4,0,6.1c-6.3-0.1-12.6,0-18.9-0.1C665.6,708,665.8,699.2,665.6,690.5
		 M688.4,690.3c2.3,0.1,5.2-1,7,0.7c2.8,4.1,4.4,8.9,7.7,12.7c0.3-4.5,0.2-9,0.2-13.5c2.1-0.1,4.3,0,6.4,0.1
		c-0.1,8.9,0.1,17.8-0.1,26.7c-2.4-0.5-6.1,1.2-7.4-1.7c-2.5-4-4.4-8.4-7.2-12.2c-0.4,4.5-0.2,9.1-0.2,13.6
		c-2.2,0.1-4.3,0.1-6.5-0.1C688.4,707.8,688.3,699,688.4,690.3 M712.5,690.5c7-0.6,14.1-0.4,21.1-0.1c0,2.2,0,4.3-0.1,6.5
		c-2.3,0-4.6,0-6.9,0c-0.1,6.6,0,13.3-0.1,19.9c-2.2,0-4.3,0-6.4,0c-0.9-6.6-0.3-13.2-0.4-19.8c-2.4-0.2-4.8-0.2-7.1-0.3
		C712.7,694.7,712.6,692.6,712.5,690.5 M401.6,727c5.2,0.1,10.5-0.4,15.7,0.3c2.3,1.2,4.5,3.4,4.1,6.2c0.5,2.6-1.6,4.3-3.1,6
		c5.4,2.2,5.4,11,0.1,13.2c-5.4,1.8-11.2,0.5-16.8,1C401.4,744.8,401.4,735.9,401.6,727 M408.6,733.3c0,1.3,0.1,2.7,0.1,4
		c1.7-0.1,3.5-0.2,5.2-0.3c0.2-1.4,0.2-2.9-0.1-4.3C412.1,732.9,409.9,732,408.6,733.3 M408.7,742.4c0,1.7-0.4,3.5,0.3,5.1
		c2.6,0.9,5.1-0.2,7-2C414.7,742.3,411.6,742.2,408.7,742.4 M431.4,726.9c2.6,0,5.2,0,7.8,0.1c2.7,8.9,5.5,17.8,8.4,26.6
		c-2.6,0-5.1,0.2-7.7,0.2c2.3-0.3,4.6-0.4,6.8-1.1c-2.2,0.1-4.4,0.3-6.6,0.2c-0.6-1.3-0.8-3.2-2.1-4c-2.1-0.1-4.2,0-6.3,0
		c-0.5,1.3-1,2.7-1.5,4c-2.3,0.1-4.6,0.1-6.9,0.2C425.3,744.3,428.6,735.6,431.4,726.9 M435.1,735c-0.9,2.7-1.5,5.4-2,8.2
		c1.4,0,2.9,0,4.3,0C436.8,740.4,436.5,737.5,435.1,735 M449.6,726.9c2.2,0,4.5,0,6.8,0c2.6,4.9,5.5,9.6,8.2,14.4
		c-0.1-4.8-0.1-9.7-0.1-14.5c2.1,0,4.2,0.1,6.3,0.1c0,8.9,0.3,17.9-0.2,26.8c-2-0.1-4-0.1-6-0.1c-2.9-4.7-5.6-9.5-8.4-14.4
		c-0.2,4.6-0.1,9.3-0.3,14c-2.2,0-4.4,0-6.5,0C449.7,744.4,449.5,735.7,449.6,726.9 M489.9,727.3c2.9-0.8,6.1-0.2,9.2-0.3
		c-2.4,3.6-5.3,6.7-7.7,10.2c2.9,5.2,5.6,10.6,8,16c-2.9,0-5.8,0-8.7-0.1c-1.3-3.5-2.6-6.9-4.4-10.2c-3,2.6-4.1,6.3-3.6,10.2
		c-2.3,0-4.5,0-6.8,0c-0.2-8.7,0-17.5-0.1-26.2c2.3-0.1,4.7,0,7,0.2c-0.1,2.9-0.1,5.8,0.2,8.8C485.7,733.4,487.3,730,489.9,727.3
		 M518.5,727.1c4.4-1.9,9.8-0.7,13,2.7c2.3,2.6,3.1,6.2,3,9.5c0.1,4.1-0.3,9-3.7,11.8c-3.3,3-8.3,3.2-12.4,1.9
		c-5.3-1.6-7.4-7.7-7-12.7C511,735.1,513.2,729,518.5,727.1 M521.5,732.7c-1.1,1.4-3,2.6-2.9,4.7c-0.1,3-0.7,6.6,1.5,9.1
		c1.3,0.9,3.1,1.9,4.7,0.8c3.4-1.4,2.9-5.9,2.8-8.9C527.8,735,524.8,732.2,521.5,732.7 M538.3,726.9c5.6,0.1,11.2,0,16.8,0
		c0.2,1.9,0.3,3.8,0.3,5.8c-3.4,0-6.7,0-10.1,0.1c0,1.5,0,2.9,0,4.4c2.8,0.1,5.7,0.1,8.5,0.2c0,1.8,0,3.5,0.1,5.3
		c-2.9,0-5.7,0-8.6,0.1c0,3.5,0,7,0,10.6c-2.3-0.1-4.7,0-7,0C538.4,744.4,538.3,735.6,538.3,726.9 M569.7,727c2.3,0,4.6,0,6.9,0
		c0.2,8.7-0.1,17.5,0.1,26.2c-2.3,0-4.7,0-7,0C569.7,744.4,569.6,735.7,569.7,727 M582,726.9c5.1,0.2,10.3-0.3,15.4,0.3
		c6.4,1.9,6,12.2,0,14.3c3.3,3.2,5,7.7,6.3,12c-2.7,0-5.4-0.3-8.1-0.6c-1.9-3.7-2.5-9-6.7-10.8c-0.2,3.6-0.2,7.3-0.2,10.9
		c-2.3,0-4.6,0-6.9,0C581.8,744.4,581.3,735.6,582,726.9 M588.7,732.5c0,1.7,0,3.4,0,5.2c1.9-0.1,4.1,0.3,5.7-1
		c0.6-1.1,0.4-2.4,0-3.5C592.6,732.2,590.6,732.7,588.7,732.5 M630.5,726.8c2.2,0.1,4.5-0.1,6.7,0.4c2.8,4.1,4.5,9,8,12.6
		c0.3-4.3,0.1-8.7,0.2-13c2.1,0,4.2,0,6.3,0c0.3,8.7-0.4,17.4,0.5,26.1c-1.9,1.3-4.4,0.4-6.5,0.7c-3.1-4.7-5.7-9.5-8.5-14.4
		c-0.4,4.6-0.3,9.3-0.4,13.9c-2.1,0-4.3,0-6.4,0C630.6,744.4,630.4,735.6,630.5,726.8 M612,727c2.6-0.1,5.3-0.1,7.9,0
		c2.4,8.8,5.5,17.3,8,26.1c-2.3,0-4.5,0-6.8,0c-0.6-1.4-1.2-2.8-1.9-4.2c-2.1,0-4.1,0-6.2,0.1c-1.5,0.8-1.7,2.7-2.4,4
		c-2.3,0.1-4.6,0.1-6.9,0.2C606.2,744.4,609.2,735.8,612,727 M615.7,734.4c-0.8,2.9-1.5,5.9-2.1,8.8c1.5,0,3-0.1,4.4-0.1
		C617.5,740.2,616.7,737.3,615.7,734.4L615.7,734.4z"/>
</g>
</svg>
