<?xml version="1.0" encoding="utf-8"?>
<!-- Generator: Adobe Illustrator 24.3.0, SVG Export Plug-In . SVG Version: 6.00 Build 0)  -->
<svg version="1.0" id="Layer_1" xmlns="http://www.w3.org/2000/svg" xmlns:xlink="http://www.w3.org/1999/xlink" x="0px" y="0px"
	 viewBox="0 0 1080 1080" style="enable-background:new 0 0 1080 1080;" xml:space="preserve">
<style type="text/css">
	.st0{fill:#0A8992;}
	.st1{fill:#706F6E;}
</style>
<g>
	<path class="st0" d="M534.4,56h7.2c7.6,0.6,15.7,1.8,22,6.3c24.7,18.3,49.5,36.4,74.3,54.6c-13.3,45.4-26.6,90.7-39.8,136.1
		c-14.3-7-30.1-10.6-45.9-11.7c-22.1-1.4-44.9,2-64.9,11.7c-18.1-43.4-36.3-86.9-54.4-130.3c25.4-20.3,50.7-40.6,76.1-60.9
		c2.2-1.8,5.1-2.4,7.8-3.1C522.5,57.3,528.4,56.4,534.4,56 M286.1,164.4c30.4-8.4,60.8-16.5,91.2-24.8
		c27.3,38.6,54.5,77.3,81.7,115.9c-15.7,7.4-29.3,18.8-40.6,31.9c-13.5,15.8-23.9,34.5-28.4,54.8c-45.3-12.9-90.6-25.7-135.8-38.6
		c-0.1-32.5-0.1-65.1-0.3-97.6c0.2-4.2,2.6-7.9,4.3-11.7C264.5,182.1,273.3,170.2,286.1,164.4 M625.8,264.5
		c25.1-39.8,50.5-79.5,75.7-119.2c31.2,9.2,62.5,18.4,93.7,27.6c2.6,0.7,4.6,2.6,6.6,4.3c9.3,8.1,17.5,17.8,21.9,29.4
		c1.2,3.3,2.3,6.8,2.2,10.4c-0.8,31-1.5,62-2.2,93c-44.8,15.2-89.6,30.2-134.4,45.3c-3-19.2-11.3-37.2-22.4-53.1
		C656,287,642.3,273.6,625.8,264.5 M695.8,374.9c46.8-5,93.6-10.1,140.4-15.1c12.3,30.1,24.5,60.2,36.8,90.2c1.2,2.8,0.8,6,0.7,9
		c-0.7,13.5-3.8,27.5-12,38.6c-2.5,3.5-6.3,5.8-9.6,8.4c-22.8,17.3-45.7,34.6-68.5,52c-39.8-25.5-79.5-51.3-119.3-76.9
		c12.1-13.1,20.6-29.1,26.1-46C696.7,415.8,699.1,395,695.8,374.9 M207.8,441.9c11.3-26.9,22.5-53.8,33.8-80.7
		c47.2,2.2,94.4,4.5,141.7,6.8c-5.4,24.4-2.1,50.1,6.4,73.3c4.6,12.4,11.1,24.1,19.6,34.4c-38,27.8-75.9,55.7-113.9,83.5
		c-25.7-19.9-51.3-39.8-77-59.6c-2.5-1.9-3.8-4.9-5.3-7.6c-6.1-12.1-10.4-25.7-8.8-39.4C204.7,448.7,206.4,445.3,207.8,441.9
		 M426.3,497c10.7,14.9,25.4,26.6,41.4,35.5c17.3,9.5,36.7,15.7,56.5,16.4c-4.3,46.9-8.7,93.7-12.9,140.6
		c-31.9,6.1-63.8,12.1-95.7,18.2c-3.2,0.6-6.3-0.5-9.4-1.2c-11-2.9-21.9-7.5-30.6-15c-3.1-2.8-6.2-5.7-7.9-9.5
		c-13.4-27.8-26.9-55.6-40.3-83.5C360.3,564.8,393.3,530.9,426.3,497 M601.9,540.8c18.3-8,35.1-19.7,47.8-35.1
		c34.6,31.9,69.2,63.8,103.8,95.7c-8.7,17.7-17.7,35.2-26.4,52.8c-6.3,12.1-11.9,24.6-18.6,36.5c-8.9,8.4-19.6,15.1-31.3,18.7
		c-5.6,1.5-11.5,2.8-17.3,1.6c-30.1-6.2-60.2-12.4-90.2-18.6c-6.9-46.8-13.7-93.5-20.6-140.3C567.3,552.3,585.3,548,601.9,540.8
		L601.9,540.8z"/>
	<path class="st1" d="M528.5,284.8c23.5-2.9,47.9,2.2,68.1,14.5c22.8,13.6,40.2,36,47.5,61.5c7.4,25,5.3,52.7-6,76.2
		c-12.1,25.7-35,46.1-61.9,55.3c-24.8,8.5-52.8,7.6-76.9-2.8c-24.7-10.5-45.1-30.6-55.9-55.1c-11.2-25.1-12.1-54.6-2.5-80.4
		c8.3-22.7,24.6-42.3,45.3-54.7C499.2,291.5,513.7,286.5,528.5,284.8 M835.7,777.7c12.2-11.5,24.1-23.2,36.1-34.9
		c-2.9,13.1-12.1,23.5-20.9,33.1c-22.4,23.2-48.7,42-73.8,62.1c-6.7,4.9-12.8,10.7-20,14.8c2.5-7.6,6.8-14.7,12.9-19.9
		C791.1,813.6,814.8,797.3,835.7,777.7 M441.1,795.1c5.5,3.6,12.5,8.4,11.3,15.9c-1.5,5.8-4,12.4-9.8,15.1
		c-4.1-3.4-8.5-6.3-12.2-10.1C433.6,808.8,436.7,801.6,441.1,795.1 M418.3,796.4c5.5,3.4,12.5,8.3,11.5,15.7
		c-1.5,5.9-4.1,12.4-9.8,15.3c-4.1-3.4-8.7-6.3-12.2-10.3C411.1,810.1,414.1,802.9,418.3,796.4 M600.3,796.7
		c5.1,3.3,11.4,7.5,11.6,14.3c-0.9,6.4-4,13.3-9.8,16.7c-4.2-3.4-8.8-6.2-12.4-10.4C593,810.4,596,803.2,600.3,796.7 M728.8,818
		c3.3-7.3,6.4-14.8,10.9-21.5c5.4,3.5,12.1,8.1,11.9,15.3c-1.3,6.3-4.1,13.6-10.3,16.5C737.2,824.9,732.5,822,728.8,818
		 M567.1,818.9c3.2-7.1,6.2-14.3,10.6-20.8c5.2,3.4,11.8,7.8,11.5,14.9c-1.3,6.1-4,13.2-10,16C575.2,825.6,570.7,822.7,567.1,818.9
		 M746.3,874.1c2.9-7.5,6.4-14.7,10.8-21.4c-0.1,6.9-2.3,13.6-3.4,20.4c-3.6,16.4-6,33.1-5.5,49.9c0.1,4.8,2,10.3,6.9,12
		c2.3,0.7,5.6,1.7,7.4-0.5c3-3.4,3.5-8.2,5.6-12.1c0.7,1.4,1.6,2.8,1.1,4.5c-0.9,6.1-2.6,12.1-4.6,17.9c-1.7,4.5-3.7,9.2-7.5,12.4
		c-4,3.4-10.6,2.4-13.8-1.6c-3.4-4.1-4.2-9.6-4.7-14.7c-0.9-10,1.2-20,1.7-29.9c-4.2,4.1-6.9,9.3-10.6,13.9
		c-8.9,11.8-21.3,20.3-34.7,26.1c-19.5,8.4-40.9,12-62.1,11.6c-9.4,0-19.4,0-27.8-4.8c-6.3-3.9-6.7-12.2-6.4-18.9
		c0.5-6.5-0.4-13.8,3.5-19.5c1.8,4.3,2.7,9,5.1,13.1c2.5,2.6,6,3.7,9.4,4.7c9.2,2.2,18.8,1.9,28.2,1.8c21.5-0.5,43.3-3.8,63-13
		c12.4-5.7,24-14.3,30.5-26.6C742.8,891.6,743.6,882.5,746.3,874.1 M371.8,864.8c1.7-3.7,3-7.5,5.4-10.8
		c-1.6,18.7-5.8,37.2-6.7,56.1c-0.1,5.8,0,12.1,3.4,17.1c3.8,5.4,11.5,6.1,17.3,4.1c3.6-1.1,3.6-6.1,0.9-8.2
		c-2.5-2.9-6.4-1.4-9.7-1.4c4-11.1,18.1-16.9,28.7-11.8c2.2,1.2,3.6,3.8,2.9,6.3c-0.9,3.8-3,7.2-4.7,10.7c8.1,1,17-6.3,15.6-14.9
		c-0.6-6.8,1.9-13.3,4.6-19.4c1.7-3.8,2.9-7.9,5.3-11.4c0.1,9.6,0.1,19.4-1.7,28.9c-2.3,10.8-9.1,20.6-18.5,26.5
		c-3.6,2.2-7.9,0.8-11.8,0.9c-6,4.3-9.8,11.6-16.9,14.5c-5.9,2.7-13.7,2.3-18.3-2.6c-5.6-5.9-6.9-14.5-6.5-22.4
		c0.8-16.1,3.4-32,5.8-48C367.7,874,369.8,869.4,371.8,864.8 M793.7,866.5c1.5-3.4,2.7-7,5.1-9.8c-2.1,21.5-7,42.7-7.2,64.3
		c0,4.8,0.9,10.5,5.3,13.2c2.4,1.3,5.6,2.4,8.3,1.1c3.7-3,4-8.1,6-12.1c0.3,0.1,1,0.2,1.4,0.2c0.7,3.9-0.7,7.8-1.5,11.6
		c-1.8,6.9-3.8,14.1-8.2,19.9c-2.1,2.7-5.3,4.8-8.9,4.3c-3.9-0.2-7.3-2.9-9-6.3c-2.6-5.2-3-11.2-3-17c0.5-17.8,3.4-35.4,6.1-53
		C788.9,877.2,791.4,871.8,793.7,866.5 M596.4,863.8c2,1.9,1.2,4.8,1.3,7.3c-0.3,8.6,0.6,17.6-2.6,25.9c-2.8,8.5-9.6,14.6-13.6,22.4
		c-2.9,8.4-6.5,16.9-12.9,23.2c-5.2,5.1-12.6,6.8-19.4,8.5c-4.4,1.1-8.8,2.6-13.5,2.5c6.2-5.5,14-8.6,20.7-13.3
		c6.2-4.4,13.5-8.9,16.1-16.5c-4.7,1-10,0.8-13.9-2.4c-2.5-2-2.6-5.6-1.7-8.4c1.5-5.6,4.3-10.8,7.8-15.5c1.8-2.3,4.2-4.9,7.4-4.4
		c5.4,0.4,9.1,5.1,10.6,9.9c2.1-1.9,4.4-4.1,4.7-7.1c0.3-4.1-1.5-8.4,0.4-12.3C590.7,877.1,593.3,870.4,596.4,863.8 M297.6,893.4
		c2.3-6.3,5.2-12.6,9.3-18c1,4.2-0.4,8.3-0.7,12.5c-1.1,8.6-0.9,17.4-2.7,25.9c-3.3,18.8-9.4,37.8-22.2,52.4
		c-8.8,9.9-20.6,18.2-34.1,19.6c-8.9,1.1-18.8,0-25.6-6.4c-7.5-6.9-9.8-17.6-9-27.4c1.3-16.6,8.4-32,16.2-46.4
		c1.7-2.9,3.1-6.2,6-8.1c0.4,6.1-3.3,11.3-5.5,16.8c-4.2,9-8.9,18.6-7.8,28.8c0.4,6.6,3.7,13.4,9.9,16.5c7.9,4,17.2,3.7,25.7,2.2
		c15.4-2.8,28.1-14.2,35-27.9C297.8,921.2,292.8,906.5,297.6,893.4 M336.1,893.1c3.4-3.5,9.2-1.2,11.6,2.2
		c3.7,4.4,3.2,10.5,2.3,15.7c-0.8,7.3-3.7,14.1-6.3,20.9c-1.9,4.9-4.6,9.8-9,12.8c-3.7,2.4-7.9,3.7-12,5.1
		c-4.8,1.6-9.5,3.8-14.6,3.7c5.9-6.7,14.2-10.7,20.9-16.4c4.6-3.7,8.9-8.2,10.8-13.9c-4.3,0.1-9.5,1.3-12.7-2.4
		c-3.5-3.1-1.6-8.1,0-11.7C329.6,903.6,331.9,897.6,336.1,893.1 M529.1,901.8c6.4,0.9,7.2-6.9,11-10.2c1,5.7-1.9,11.1-4.8,15.8
		c-3.7,5.5-9.5,9.2-14.3,13.6c-7.7,4-14.4,9.6-21.3,14.8c-4.2,3.1-9.7,2.5-14.5,1.3c-8,6-14.5,15.3-25.2,16.3
		c-5.9,1.2-11.3-2.1-17-2.6c-7.2-0.4-13.2,4.4-19.6,6.8c0.5-4.4,4-7.4,6.7-10.6c6.1-6.5,13.1-13.2,22.1-15.3
		c6-1.5,11.7,2.3,17.8,1.6c3.1-0.3,7-0.5,9-3.4c1.6-3.5-0.2-9.7-4.9-9.3c-1.9-0.4-5.9,1.9-5.4-1.5c1.7-3.8,5.5-5.8,9.1-7.4
		c5.3-2.4,11.4-2.8,16.9-1.2c2.4,0.7,4.8,2.7,4.5,5.5c-0.5,3.9-3.1,7-5,10.2c2.3,0,4.7,0,6.8-1.2c6.3-3.5,12.4-8,15.5-14.7
		c2,0,4.4,0.9,6.1-0.6C525.4,907.7,527.1,904.6,529.1,901.8 M250.5,917.2c2.7-6.9,5.9-13.7,10.3-19.7c4.9,2.6,10.2,5.7,12.6,10.9
		c2.7,8.1-3.8,15.3-9.5,20.2c-4-2.4-7.6-5.4-11.5-7.9C251.3,920,249.7,918.7,250.5,917.2 M800.1,992.9c5.3,3.5,11.9,7.9,11.9,15
		c-0.9,6.6-4.3,13-9.6,17.1h-0.7c-4.1-3.7-8.8-6.6-12.5-10.7C792.5,1007,795.6,999.6,800.1,992.9L800.1,992.9z"/>
</g>
</svg>
