<svg viewBox="0 0 48 48" fill="none" xmlns="http://www.w3.org/2000/svg">
<path fill-rule="evenodd" clip-rule="evenodd" d="M33.9411 48H14.0589L0 33.9411V14.0589L14.0589 0H33.9411L48 14.0589V33.9411L33.9411 48ZM31.0416 41L41 31.0416V16.9584L31.0416 7H16.9584L7 16.9584V31.0416L16.9584 41H31.0416ZM16.893 24L28.6352 35.804L23.9392 40.5L12.1971 28.7578L12.196 28.7589L7.5 24L13.3119 18.2511H22.7038L16.893 24ZM34.6881 29.7489H25.2962L31.107 24L19.3648 12.196L24.0608 7.5L35.8029 19.2422L35.804 19.2411L40.5 24L34.6881 29.7489Z" fill="#006D08"/>
</svg>
