<svg viewBox="0 0 48 48" fill="none" xmlns="http://www.w3.org/2000/svg">
<path d="M9.03783 21.1567C6.90785 21.1567 5.013 22.2382 3.94874 24.0952C2.90363 25.9189 2.87516 28.157 3.94776 29.9762C4.98698 31.7391 6.94859 32.6725 8.95781 32.6725C15.1718 32.6725 19.2054 26.3557 22.4723 21.2397C23.2177 20.0724 23.9232 18.9676 24.6055 18.0146C24.9869 17.4819 25.3836 16.9649 25.7999 16.469C26.3609 15.8005 26.9574 15.1697 27.6 14.5914C29.9813 12.4465 32.9895 11.0152 37.1341 11.0005C37.1557 11 37.1778 11 37.1999 11V18.0146C35.3202 18.0146 33.5324 18.7042 31.7873 19.8132C30.9729 20.3307 30.1678 20.9394 29.3672 21.6118C27.5291 23.1558 25.8518 24.8708 24.1743 26.586C22.3819 28.4187 20.5892 30.2516 18.5999 31.8764C17.9775 32.3846 17.3457 32.8633 16.7021 33.3018C16.2289 33.6245 15.7493 33.9262 15.2624 34.2014C13.342 35.2883 11.2267 36 9.00003 36C7.05119 35.9956 5.1583 35.3717 3.59972 34.2014C3.23498 33.9277 2.89136 33.6265 2.57277 33.3018C0.981295 31.6797 0 29.4578 0 27.0073C0 26.067 0.144323 25.1611 0.411859 24.3091C0.982277 22.4957 2.11231 20.9296 3.59923 19.8132C5.15438 18.6458 7.05462 18.0146 9.00003 18.0146C11.4039 18.0209 13.6836 18.7135 15.8023 19.8132C16.7591 20.3096 17.6893 20.8874 18.5999 21.5196C18.6441 21.55 18.6883 21.5809 18.7325 21.6118C18.7712 21.639 18.817 21.6668 18.8677 21.6974C18.9231 21.7309 18.9843 21.7679 19.0481 21.8115L19.6932 22.2495L19.7049 22.2578L18.0045 24.7157C15.4528 22.8621 12.2777 21.1567 9.03783 21.1567Z" fill="#008B9A"/>
<path d="M37.1999 18.0146L37.1999 24.9359C39.3362 24.9433 41.0701 26.6963 41.0701 28.8054C41.0701 30.9386 39.3353 32.648 37.2156 32.6744L37.1999 32.6749L37.2058 32.6744C37.1956 32.6712 37.1835 32.6717 37.1719 32.6722C37.1679 32.6723 37.1639 32.6725 37.1601 32.6725V32.6749C36.924 32.6749 36.6879 32.6602 36.4527 32.6396C33.2605 32.0314 29.428 28.7485 26.8597 26.5472L26.7866 26.4849L24.5716 28.6985C28.4418 32.1084 33.5555 35.9725 38.9528 36H39.0466C41.0548 35.9897 42.9075 35.3221 44.4003 34.2014C44.765 33.9277 45.1082 33.6265 45.4267 33.3018C47.0187 31.6797 48 29.4578 48 27.0068C48 26.0675 47.8557 25.1611 47.5881 24.3091C47.0177 22.4957 45.8877 20.9296 44.4003 19.8132C42.9075 18.6924 41.0548 18.0249 39.0466 18.0146H37.1999Z" fill="#008B9A"/>
</svg>
