<svg viewBox="0 0 48 48" fill="none" xmlns="http://www.w3.org/2000/svg">
<path fill-rule="evenodd" clip-rule="evenodd" d="M4.3103 31.4658L12 44.7847H17.7339L10.0742 31.5794L11.5354 29.0486L20.6206 44.7847H36L38.8706 39.8127L23.5832 39.819L14.4502 24.0001L17.7754 18.2406H11.9459L4.3103 31.4658ZM40.3103 37.319L48 24.0001L45.1331 19.0344L37.5268 32.2705H34.6045L43.6897 16.5344L36 3.21545H30.2589L37.908 16.4516L28.7749 32.2705H22.1244L25.0392 37.319H40.3103ZM25.8601 10.6812L24.399 8.15025L9.1331 8.18115L12 3.21545H27.3794L35.015 16.4407L32.1002 21.4892L28.7749 15.7297H10.5088L2.8706 28.9721L0 24.0001L7.6897 10.6812H25.8601Z" fill="#B11116"/>
<path fill-rule="evenodd" clip-rule="evenodd" d="M24 18.2604C27.2169 18.2604 29.8287 20.8722 29.8287 24.0891C29.8287 27.306 27.2169 29.9178 24 29.9178C20.7831 29.9178 18.1713 27.306 18.1713 24.0891C18.1713 20.8722 20.7831 18.2604 24 18.2604Z" fill="#00A1BF"/>
</svg>
