<svg viewBox="0 0 48 48" fill="none" xmlns="http://www.w3.org/2000/svg">
<path fill-rule="evenodd" clip-rule="evenodd" d="M0.00963531 22.7715C0.297889 20.3238 5.38693 14.5274 10.9476 9.56011C16.6984 4.42314 25.1687 0.0221349 27.6524 5.95786e-05C30.0448 -0.0211256 34.9037 5.61094 39.8853 11.4508C41.2501 13.0507 43.1496 15.3307 44.9127 17.4898C46.4522 19.3751 47.9573 21.1369 47.9985 22.6825C48.0744 25.5128 45.2157 25.8124 32.0078 37.2155C27.7336 40.9057 23.5815 44.7682 21.0012 47.0927C20.2848 47.74 19.333 48.0643 18.3696 47.9894C17.4062 47.9144 16.5161 47.4468 15.9089 46.6966C13.6148 43.8702 10.1777 39.6127 8.13372 36.9706C4.83361 32.7043 -0.25097 24.9858 0.00963531 22.7715ZM15.9432 45.1798C15.9432 45.1798 16.0038 45.2168 16.1055 45.2791C17.4131 46.0792 19.0843 45.9686 20.2746 45.0032C22.0735 43.5412 24.6887 41.423 26.3306 40.1249C30.4959 36.8317 43.2839 26.8583 43.2839 26.8583C39.8964 29.4984 26.0242 42.0808 20.0147 46.6764C19.3892 47.0713 18.6284 47.1911 17.9115 47.0081C17.1945 46.8251 16.5848 46.3553 16.2261 45.7092C16.1306 45.5367 16.0363 45.3601 15.9432 45.1798ZM15.4851 43.0356C15.4851 43.0356 15.5805 43.094 15.733 43.1873C17.0004 43.9629 18.6143 43.885 19.8007 42.9907C25.3043 38.8431 40.4602 27.4207 40.4602 27.4207C37.0952 30.0434 25.1767 40.4255 19.5684 44.5641C18.944 44.9569 18.185 45.076 17.4699 44.8937C16.7546 44.7114 16.146 44.2437 15.7864 43.6003C15.685 43.4164 15.5844 43.2281 15.4851 43.0356ZM14.9774 40.893C14.9774 40.893 15.0982 40.9669 15.2849 41.0812C16.5225 41.8386 18.094 41.7834 19.2752 40.9413C24.3682 37.311 37.6838 27.8195 37.6838 27.8195C34.3436 30.4227 24.27 38.7738 19.0718 42.457C18.4482 42.8467 17.6919 42.9644 16.9792 42.7828C16.2662 42.601 15.659 42.136 15.2989 41.4957C15.1913 41.2993 15.0836 41.0987 14.9774 40.893ZM14.5813 38.8803C14.5813 38.8803 14.7166 38.9631 14.9223 39.0889C16.1428 39.8359 17.69 39.7934 18.8676 38.9807C23.3928 35.8577 34.2758 28.3469 34.2758 28.3469C30.9482 30.9403 23.2128 37.2179 18.6309 40.3597C18.0187 40.7412 17.2788 40.8614 16.5773 40.6931C15.8757 40.5249 15.2712 40.0823 14.8997 39.4649C14.7948 39.2771 14.6863 39.0839 14.5813 38.8803ZM1.85136 19.917C1.85136 19.917 1.69332 20.3074 1.5046 20.7737C1.10557 21.7587 1.16212 22.8692 1.65889 23.809C2.30639 25.0276 3.2871 26.8478 4.33719 28.6993C6.1377 31.874 11.9898 40.4499 11.9898 40.4499C9.8595 37.636 7.65782 34.8063 5.56405 31.7918C3.96635 29.4913 2.43411 27.0012 0.852278 24.116C0.573835 23.6072 0.467702 23.0223 0.549576 22.4484C0.637872 21.8114 0.794663 21.2173 1.85136 19.917ZM14.2027 36.7445C14.2027 36.7445 14.4125 36.8552 14.7065 37.0106C15.8427 37.6109 17.2132 37.5638 18.3054 36.8864C22.1504 34.5021 30.9463 29.0477 30.9463 29.0477C27.6645 31.6054 22.2227 35.7018 18.262 38.2666C17.6523 38.6426 16.9176 38.7603 16.2207 38.5935C15.5236 38.4268 14.9221 37.9896 14.5493 37.3786C14.4354 37.1753 14.3173 36.9661 14.2027 36.7445ZM3.0586 19.1444C3.0586 19.1444 2.89003 19.6099 2.70024 20.134C2.36329 21.0648 2.42412 22.0929 2.86845 22.9775C3.48884 24.1984 4.4633 26.0645 5.54443 27.9266C7.03012 30.4854 11.0566 36.9207 11.0566 36.9207C8.92624 34.1068 8.86506 34.0335 6.77129 31.019C5.16556 28.7069 3.75355 26.323 2.18349 23.438C1.93769 22.9864 1.82692 22.4738 1.8642 21.9611C1.91361 21.2177 1.912 20.5552 3.0586 19.1444ZM13.6548 34.5476C13.6548 34.5476 13.7937 34.6409 14.0012 34.7801C15.12 35.5309 16.5644 35.5978 17.7483 34.9539C21.0556 33.1544 27.4622 29.6688 27.4622 29.6688C24.2749 32.0243 21.0591 34.1853 17.8252 36.2229C17.2118 36.6081 16.4686 36.7304 15.7639 36.562C15.0589 36.3936 14.4519 35.9487 14.0798 35.3279C13.9368 35.073 13.7921 34.8138 13.6548 34.5476ZM4.46937 18.3749C4.46937 18.3749 4.3008 18.8405 4.11119 19.3646C3.77406 20.2953 3.83489 21.3234 4.2794 22.208C4.89978 23.4291 5.68909 25.2406 6.77022 27.1025C8.25591 29.6613 11.7397 35.8136 11.7397 35.8136C9.66418 32.9643 9.23394 32.1674 7.30107 29.0477C5.81538 26.6495 5.15147 25.7298 3.64367 22.9408C3.37521 22.4448 3.15367 21.5347 3.22627 20.9757C3.31153 20.2902 3.38449 19.71 4.46937 18.3749ZM13.1971 32.4115C13.1971 32.4115 13.3325 32.5042 13.5319 32.6408C14.5304 33.3244 15.8056 33.4636 16.9287 33.0114C19.5818 31.9435 24.2346 30.0704 24.2346 30.0704C24.2346 30.0704 19.9569 32.6082 17.3336 34.1645C16.0625 34.9188 14.4198 34.5088 13.6539 33.2464C13.5 32.9742 13.3444 32.6969 13.1971 32.4115ZM5.92009 17.572C5.92009 17.572 5.71121 18.0248 5.56173 18.5617C5.25725 19.6557 5.28347 20.5465 5.62595 21.3491C6.16357 22.6086 6.66427 23.555 7.68422 25.5282C9.06876 28.207 11.9898 34.0281 11.9898 34.0281C9.91426 31.1788 6.60202 24.9267 5.09439 22.1377C4.82594 21.6419 4.60439 20.7318 4.67681 20.1728C4.76208 19.4873 4.83521 18.9069 5.92009 17.572ZM29.5228 10.0992C29.4105 9.63435 29.1049 9.23949 28.6829 9.01321C28.2608 8.78712 27.7623 8.75116 27.3119 8.91441C23.67 10.2348 15.4005 13.2328 12.0997 14.4295C11.2883 14.7238 10.8011 15.5521 10.9392 16.4028C11.4501 19.5467 12.6543 26.9589 13.27 30.7485C13.3642 31.3285 13.7079 31.8386 14.2108 32.1444C14.7134 32.4503 15.3251 32.5215 15.885 32.3392C19.8571 31.0464 28.063 28.3753 31.7051 27.1898C32.7264 26.8572 33.3201 25.7967 33.0679 24.7544C32.2165 21.2344 30.3705 13.6033 29.5228 10.0992ZM7.47605 16.6418C7.25772 17.0894 7.08523 17.5934 6.96412 18.1373C6.78021 18.9631 6.82391 19.7025 7.16639 20.505C7.70401 21.7646 8.03169 22.482 8.96067 24.4994C10.2136 27.2204 11.7397 30.6417 11.7397 30.6417C9.49133 27.2238 8.19455 24.3969 6.68674 21.6079C6.41829 21.1119 6.14484 19.888 6.21726 19.3288C6.3027 18.6432 6.39118 17.9767 7.47605 16.6418ZM9.0841 15.7715C8.86595 16.219 8.69328 16.723 8.57217 17.2671C8.38826 18.0929 8.53132 18.7969 8.77462 19.6348C9.18364 21.0441 11.5658 27.8195 11.5658 27.8195C9.46422 23.7106 9.34043 23.1753 8.20453 20.6704C7.97176 20.1568 7.69563 19.0333 7.76805 18.4743C7.85331 17.7885 7.99922 17.1065 9.0841 15.7715ZM33.0507 27.1025C33.0507 27.1025 33.1438 26.9674 33.2805 26.7684C33.9654 25.7718 34.2136 24.3919 33.829 23.2459C32.8534 20.3395 31.829 16.6418 31.829 16.6418C31.829 16.6418 34.3621 22.0921 34.7182 23.0957C35.2153 24.4971 35.1522 25.8822 33.8873 26.6466C33.6146 26.8002 33.3367 26.9555 33.0507 27.1025ZM35.0052 26.8583C35.0052 26.8583 35.0983 26.7232 35.2349 26.5243C35.9199 25.5275 36.2192 24.1072 35.7388 22.9979C34.5141 20.1693 30.9463 12.3313 30.9463 12.3313C30.9463 12.3313 36.3191 21.7705 36.6821 22.7715C37.3226 24.5386 37.1068 25.6379 35.8418 26.4024C35.569 26.556 35.2911 26.7112 35.0052 26.8583ZM37.0064 26.6067C37.0064 26.6067 37.0993 26.4716 37.2361 26.2726C37.9211 25.276 38.2097 23.7188 37.74 22.7462C36.1816 19.5198 30.9463 9.89463 30.9463 9.89463C30.9463 9.89463 38.2527 21.1493 38.6833 22.5199C39.2464 24.313 38.9924 25.2555 37.8429 26.1508C37.5961 26.3431 37.2923 26.4597 37.0064 26.6067ZM39.0796 26.3879C39.0796 26.3879 39.1726 26.2526 39.3094 26.0538C39.9943 25.0572 40.292 23.4275 39.8133 22.5274C37.9785 19.0781 30.45 7.06827 30.45 7.06827C30.45 7.06827 40.2819 20.8444 40.8423 22.2832C41.5246 24.0344 41.0657 25.0367 39.9162 25.932C39.6693 26.1243 39.3656 26.2409 39.0796 26.3879ZM40.9577 26.1558C40.9577 26.1558 41.0507 26.0207 41.1873 25.8216C41.8723 24.825 42.2235 23.1649 41.6912 22.2953C38.9562 17.827 30.45 5.25934 30.45 5.25934C31.6423 6.53294 40.9677 18.6107 42.7203 22.051C43.5736 23.7261 42.9436 24.8046 41.7941 25.6999C41.5473 25.8921 41.2437 26.0087 40.9577 26.1558ZM43.1462 25.8473C43.1462 25.8473 43.2391 25.712 43.3758 25.5131C44.0609 24.5163 44.3304 22.4708 43.7297 21.6467C40.2845 16.9212 30.45 3.76052 30.45 3.76052C32.3126 5.59349 42.5283 18.2407 44.9089 21.7423C45.575 22.7222 45.1321 24.496 43.9826 25.3912C43.7357 25.5834 43.4322 25.7002 43.1462 25.8473ZM30.1245 2.18338C30.0993 2.1638 30.0749 2.14511 30.0514 2.12748C30.0589 2.12606 30.0836 2.14511 30.1245 2.18338C32.8936 4.33627 44.7566 17.8124 46.9087 21.4233C47.5374 22.4785 47.132 24.177 45.9826 25.0721C45.7357 25.2644 45.4319 25.3812 45.146 25.5282C45.146 25.5282 45.2389 25.3929 45.3757 25.1941C46.0607 24.1973 46.4374 22.5625 45.8138 21.5752C42.8291 16.8487 31.1733 3.16609 30.1245 2.18338ZM10.7011 14.9367C10.4829 15.3843 10.3243 15.762 10.2032 16.3061C10.0193 17.1318 10.0405 17.7349 10.2022 18.5921C10.5814 20.6038 11.0566 23.6417 11.0566 23.6417C10.1879 20.8762 10.1329 20.711 9.79778 19.5948C9.63564 19.0548 9.27193 18.131 9.34435 17.572C9.42961 16.8863 9.48562 16.2883 10.7011 14.9367ZM6.20549 15.1121C12.259 7.81972 24.2256 0.32674 27.4622 0.440678C28.4412 0.475215 29.1734 1.43656 29.1734 1.43656C29.1734 1.43656 28.2746 1.05184 27.4622 1.04757C24.0335 1.02977 12.4759 8.47166 6.20549 15.1121ZM8.17439 14.1459C13.5756 8.31143 24.2256 1.39757 27.4622 1.51151C28.4412 1.54605 29.0482 2.40129 29.0482 2.40129C29.0482 2.40129 28.2746 2.12268 27.4622 2.1184C24.0335 2.1006 14.7156 8.30466 8.17439 14.1459ZM9.3349 13.9942C14.6603 8.74546 24.5405 2.47998 27.4622 2.55048C28.5769 2.57736 28.9251 3.42583 28.9251 3.42583C28.9251 3.42583 28.2746 3.16182 27.4622 3.15737C24.3312 3.13992 15.8691 8.75579 9.3349 13.9942ZM11.0566 13.4229C16.1101 8.73229 24.8763 3.53425 27.5145 3.71032C28.627 3.78456 28.9774 4.58568 28.9774 4.58568C28.9774 4.58568 28.3267 4.33092 27.5145 4.31721C24.8858 4.27235 17.7922 8.558 11.0566 13.4229ZM13.1971 12.6694C18.6512 8.46311 25.4507 4.74288 27.5145 4.8262C28.6286 4.87106 28.9774 5.70138 28.9774 5.70138C28.9774 5.70138 28.3249 5.48881 27.5145 5.43291C26.0322 5.33072 19.8398 8.3716 13.1971 12.6694ZM15.9432 11.8686C20.753 8.63829 25.4507 6.08004 27.5145 6.16336C28.6286 6.2084 28.9774 6.92051 28.9774 6.92051C28.9774 6.92051 28.3898 6.79144 27.4622 6.77702C25.9766 6.75405 22.1274 8.49818 15.9432 11.8686ZM18.6113 11.2599C21.9232 9.08585 25.7217 7.48378 27.5145 7.48378C28.6295 7.48378 28.9774 8.24075 28.9774 8.24075C28.9774 8.24075 28.3873 8.02605 27.4622 8.09744C25.6212 8.23969 22.4488 9.56296 18.6113 11.2599Z" fill="url(#paint0_linear_0_1078)"/>
<defs>
<linearGradient id="paint0_linear_0_1078" x1="48.0002" y1="22.7891" x2="0.000183105" y2="22.7891" gradientUnits="userSpaceOnUse">
<stop stop-color="#007773"/>
<stop offset="1" stop-color="#0ED068"/>
</linearGradient>
</defs>
</svg>
