<svg viewBox="0 0 48 48" fill="none" xmlns="http://www.w3.org/2000/svg">
<path fill-rule="evenodd" clip-rule="evenodd" d="M25.94 48H22.06V45.058H20.293V41.427L12.471 41.419L12.48 32.166H10.637L10.631 31.352H8.35501V30.108H6.92701V28.254H8.35501V26.624H10.577L9.93701 25.638H6.22701C5.71101 25.638 5.37401 26.278 5.37401 26.278L4.73801 26.078C4.79661 25.8151 4.87901 25.558 4.98401 25.31C5.08401 25.027 5.31101 24.472 5.31101 24.472L5.34101 24.397C5.39201 24.275 5.44101 24.154 5.50201 24.036C5.80201 23.3163 6.33491 22.7175 7.01501 22.336C7.10591 22.2918 7.19981 22.2541 7.29601 22.223C7.46891 22.168 7.64791 22.1345 7.82901 22.123C7.88401 22.123 7.93901 22.123 7.99401 22.123L8.00901 22.086L8.03201 22.032C8.09821 21.8836 8.18291 21.7442 8.28401 21.617C8.34971 21.5386 8.42191 21.466 8.50001 21.4C8.81461 21.117 9.19751 20.9209 9.61101 20.831L9.59201 17.356L11.465 17.362L11.46 14.9L13.293 14.889L13.3 13.248L14.417 13.243L13.121 11H11.381L14.281 8.093L19.272 8.099V2.599H22.1V0H25.9V2.6H28.724V8.1L33.715 8.094L36.619 11H34.879L33.579 13.245L34.696 13.25L34.703 14.891L36.536 14.902L36.528 17.36L38.402 17.354L38.383 20.829C38.7988 20.9185 39.184 21.1154 39.5 21.4C39.5799 21.469 39.6535 21.545 39.72 21.627C39.8211 21.7542 39.9058 21.8936 39.972 22.042L39.995 22.096L40.009 22.133C40.064 22.133 40.119 22.133 40.174 22.133C40.3551 22.1445 40.5341 22.178 40.707 22.233C40.8032 22.2641 40.8971 22.3018 40.988 22.346C41.6681 22.7275 42.201 23.3263 42.501 24.046C42.558 24.165 42.611 24.286 42.662 24.407L42.692 24.482C42.692 24.482 42.919 25.038 43.019 25.32C43.124 25.568 43.2064 25.8251 43.265 26.088L42.629 26.288C42.629 26.288 42.292 25.648 41.776 25.648H38.066L37.426 26.634H39.648V28.264H41.077V30.1H39.642V31.344H37.373L37.367 32.158H35.525L35.534 41.411L27.712 41.419V45.05H25.94V48Z" fill="url(#paint0_linear_0_1081)"/>
<path fill-rule="evenodd" clip-rule="evenodd" d="M25.125 47.2001H22.875V44.258H21.111V41.419H22.879V43.047H25.122V41.419H26.89V44.258H25.125V47.2001ZM34.695 40.619H13.306V31.719H34.694L34.695 40.619ZM31.172 39.55C31.1812 39.5994 31.1774 39.6505 31.161 39.698C31.1403 39.76 31.1138 39.82 31.082 39.877C31.0445 39.9459 30.9951 40.0075 30.936 40.059C30.9124 40.0876 30.8795 40.1071 30.843 40.114C30.8053 40.1013 30.7711 40.0801 30.743 40.052C30.701 40.0173 30.657 39.9817 30.611 39.945C30.5759 39.9185 30.5425 39.8897 30.511 39.859C30.4885 39.8423 30.4731 39.8176 30.468 39.79C30.496 39.731 30.518 39.685 30.532 39.653C30.58 39.5517 30.6157 39.4783 30.639 39.433C30.6817 39.3663 30.7247 39.2953 30.768 39.22L30.811 39.158C30.8242 39.1707 30.8386 39.182 30.854 39.192L30.911 39.226C30.9834 39.2789 31.0504 39.3389 31.111 39.405C31.1444 39.4467 31.1664 39.4963 31.175 39.549L31.172 39.55ZM25.816 38.558C26.1386 38.5589 26.4605 38.5279 26.777 38.465C27.0574 38.4104 27.3334 38.3355 27.603 38.241C27.8468 38.1533 28.0776 38.0329 28.289 37.883C28.4888 37.7453 28.6691 37.5811 28.825 37.3951C28.8677 37.3397 28.9343 37.2527 29.025 37.134C29.068 37.074 29.099 37.034 29.118 37.01C29.137 36.986 29.142 36.991 29.147 36.996C29.1527 37.0038 29.1552 37.0134 29.154 37.023L29.147 37.099C29.1423 37.1404 29.1317 37.2287 29.115 37.364C29.0995 37.4827 29.0911 37.6023 29.09 37.722C29.0841 37.9005 29.1143 38.0785 29.179 38.245C29.2305 38.3769 29.3627 38.4608 29.504 38.451C29.604 38.451 29.7017 38.3767 29.797 38.228C29.9102 38.0329 29.9899 37.8203 30.033 37.599L30.051 37.51C30.0571 37.4827 30.0607 37.4549 30.062 37.427C30.062 37.381 30.05 37.358 30.026 37.358C30.002 37.358 29.991 37.379 29.98 37.42C29.969 37.461 29.957 37.498 29.948 37.53C29.896 37.672 29.8363 37.743 29.769 37.743C29.6905 37.7453 29.6131 37.7236 29.547 37.681C29.4322 37.5853 29.3731 37.4376 29.39 37.289V37.182C29.39 37.0993 29.3973 36.9767 29.412 36.814C29.428 36.6334 29.4493 36.4533 29.476 36.274L29.626 35.552C29.6327 35.5167 29.6397 35.4813 29.647 35.446L29.814 35.333L30.482 34.827C30.6733 34.7038 30.864 34.579 31.054 34.453C31.2187 34.3438 31.3807 34.231 31.54 34.115C31.7973 33.927 31.9903 33.7837 32.119 33.685C32.2903 33.5517 32.412 33.4557 32.484 33.397C32.556 33.3383 32.6263 33.274 32.695 33.204C32.781 33.122 32.8633 33.037 32.942 32.949C33.0125 32.8678 33.077 32.7816 33.135 32.691C33.193 32.6123 33.2389 32.5253 33.271 32.433C33.2806 32.4163 33.2854 32.3973 33.285 32.378C33.285 32.386 33.1063 32.5373 32.749 32.832C32.563 32.9893 32.3747 33.1447 32.184 33.298C31.9793 33.4607 31.7697 33.6184 31.555 33.771C31.251 33.9831 30.946 34.1937 30.64 34.403C30.3448 34.6124 30.0619 34.8388 29.793 35.081C29.7291 35.136 29.6735 35.2001 29.628 35.271C29.6193 35.283 29.6113 35.2952 29.604 35.308C29.5714 35.3629 29.542 35.4197 29.516 35.478L29.484 35.541C29.4234 35.6541 29.3709 35.7714 29.327 35.892L29.227 36.284C29.1771 36.4656 29.0973 36.6376 28.991 36.793C28.8436 36.9884 28.656 37.15 28.441 37.267C27.8523 37.5922 27.1968 37.778 26.525 37.81C26.363 37.824 26.1463 37.831 25.875 37.831C25.5485 37.8757 25.2165 37.8027 24.939 37.625C24.88 37.5596 24.8448 37.476 24.839 37.388C24.832 37.298 24.821 37.254 24.807 37.254C24.769 37.254 24.7393 37.3321 24.718 37.488C24.697 37.6384 24.6864 37.7901 24.686 37.942C24.6752 38.0807 24.7146 38.2188 24.797 38.331C24.9129 38.4354 25.0596 38.4993 25.215 38.513C25.3804 38.5389 25.5476 38.5507 25.715 38.548L25.816 38.558ZM18.472 36.7C18.4674 36.7925 18.4553 36.8844 18.436 36.975C18.412 37.103 18.388 37.2153 18.364 37.312L18.278 37.649C18.23 37.777 18.192 37.871 18.164 37.931C18.1288 38.0042 18.0894 38.0753 18.046 38.144C18.0163 38.1922 17.9788 38.2351 17.935 38.271C17.8742 38.3143 17.8096 38.3522 17.742 38.384L17.485 38.484C17.4299 38.5011 17.3738 38.5148 17.317 38.525C17.2618 38.5385 17.2056 38.5479 17.149 38.553C17.125 38.553 17.111 38.545 17.106 38.529C17.1021 38.5086 17.1072 38.4874 17.12 38.471C17.1698 38.4041 17.2307 38.3463 17.3 38.3C17.398 38.2267 17.4947 38.1557 17.59 38.087C17.6993 37.9903 17.7803 37.9147 17.833 37.86C17.9149 37.7746 17.9868 37.6799 18.047 37.578C18.0713 37.5328 18.0918 37.4857 18.108 37.437C18.134 37.3663 18.1757 37.2507 18.233 37.09L18.319 36.842C18.3283 36.8053 18.3427 36.7607 18.362 36.708C18.381 36.656 18.405 36.629 18.434 36.629C18.4519 36.6484 18.4643 36.6722 18.47 36.698L18.472 36.7ZM23.701 37.479V37.4851C23.801 37.3871 23.8603 37.327 23.879 37.305C23.9535 37.2206 24.014 37.1247 24.058 37.021C24.1158 36.8766 24.1577 36.7264 24.183 36.573C24.2129 36.4311 24.2306 36.2869 24.236 36.142C24.236 36.022 24.236 35.896 24.236 35.764C24.236 35.632 24.2443 35.4987 24.261 35.364C24.261 35.239 24.268 35.1641 24.268 35.1301C24.268 35.1241 24.268 35.118 24.268 35.113C24.283 35.105 24.302 35.093 24.324 35.079L24.535 34.9351L25.046 34.5891C25.246 34.4604 25.4433 34.3304 25.638 34.1991C25.8087 34.0851 25.9753 33.9671 26.138 33.8451C26.4047 33.6451 26.6047 33.4943 26.738 33.393C26.9167 33.255 27.0433 33.155 27.118 33.093C27.1927 33.031 27.2667 32.9623 27.34 32.8871C27.4307 32.7998 27.5177 32.709 27.601 32.615C27.6765 32.5271 27.7456 32.4337 27.808 32.336C27.8709 32.2498 27.9214 32.1553 27.958 32.055C27.9686 32.0364 27.9744 32.0154 27.975 31.994C27.975 32.0033 27.788 32.1637 27.414 32.475C27.2193 32.6418 27.0227 32.8063 26.824 32.969C26.6107 33.141 26.3923 33.3077 26.169 33.469C25.8537 33.691 25.5373 33.9114 25.22 34.1301C24.9761 34.292 24.7423 34.4686 24.52 34.659C24.4526 34.7173 24.3937 34.7845 24.345 34.8591C24.297 34.9336 24.2546 35.0113 24.218 35.092L24.206 35.12V35.126L23.964 35.687C23.9414 35.7434 23.9292 35.8033 23.928 35.864C23.9233 35.942 23.921 36.0323 23.921 36.135L23.928 36.583C23.9347 36.7291 23.9105 36.8749 23.857 37.011C23.8348 37.0573 23.8073 37.101 23.775 37.141C23.7524 37.1713 23.7246 37.1973 23.693 37.218L23.65 37.238C23.6161 37.2419 23.5818 37.2374 23.55 37.225C23.526 37.261 23.502 37.2941 23.478 37.3251C23.44 37.3751 23.3877 37.4124 23.328 37.432C23.2997 37.4474 23.2644 37.442 23.242 37.419C23.209 37.45 23.178 37.4821 23.149 37.5131C23.1041 37.5608 23.0425 37.5894 22.977 37.593C22.9124 37.5933 22.8479 37.5887 22.784 37.579C22.6787 37.6503 22.576 37.7217 22.476 37.793C22.3908 37.8477 22.2912 37.8755 22.19 37.8731C22.0201 37.8879 21.8551 37.8083 21.761 37.666C21.704 37.5617 21.677 37.4437 21.683 37.3251C21.683 37.271 21.683 37.185 21.697 37.064C21.709 36.9207 21.7257 36.778 21.747 36.636L21.869 35.82L21.898 35.646C21.9064 35.611 21.9088 35.5748 21.905 35.539L21.876 35.552C21.8333 35.6367 21.7763 35.7613 21.705 35.926C21.6337 36.0907 21.5957 36.182 21.591 36.2001C21.5577 36.4188 21.5147 36.7341 21.462 37.146C21.4093 37.558 21.383 37.7914 21.383 37.8461C21.3841 37.9076 21.3888 37.969 21.397 38.03C21.4019 38.0882 21.4136 38.1456 21.432 38.201C21.4819 38.4086 21.6695 38.5559 21.883 38.555C22.0805 38.5457 22.2595 38.4341 22.355 38.261C22.4883 38.065 22.5957 37.967 22.677 37.967L22.777 37.9771C22.8042 37.9807 22.8318 37.9807 22.859 37.9771C22.9105 37.9573 22.9577 37.9277 22.998 37.89C23.0388 37.854 23.0818 37.8205 23.127 37.7901C23.1577 37.7729 23.1919 37.7626 23.227 37.76C23.2574 37.7579 23.2869 37.7487 23.313 37.733C23.351 37.697 23.383 37.669 23.413 37.649C23.4372 37.63 23.4638 37.6143 23.492 37.6021C23.518 37.591 23.572 37.565 23.653 37.525L23.696 37.4911L23.701 37.479ZM17.786 34.785C17.791 34.7698 17.7884 34.7531 17.779 34.7401C17.7654 34.7236 17.7483 34.7103 17.729 34.701C17.6407 34.7202 17.5562 34.754 17.479 34.801C17.3871 34.8478 17.2985 34.9009 17.214 34.96C17.1233 35.0227 17.0493 35.0778 16.992 35.125C16.8623 35.2398 16.7404 35.3631 16.627 35.494C16.4751 35.6646 16.3475 35.8554 16.248 36.0611C16.1696 36.2084 16.1232 36.3705 16.112 36.537C16.108 36.6063 16.1281 36.6749 16.169 36.731C16.2133 36.7828 16.2696 36.823 16.333 36.848C16.3651 36.8629 16.3986 36.8746 16.433 36.883C16.4617 36.8897 16.5093 36.9028 16.576 36.9221C16.6427 36.9413 16.676 36.9703 16.676 37.009C16.6715 37.0878 16.6455 37.1639 16.601 37.229C16.5395 37.3251 16.4663 37.4132 16.383 37.4911C16.2786 37.5899 16.1578 37.6698 16.026 37.7271C15.84 37.8127 15.6377 37.857 15.433 37.857C15.23 37.8695 15.0283 37.8162 14.858 37.7051C14.7273 37.6099 14.6522 37.4556 14.658 37.294C14.682 37.0372 14.7521 36.7869 14.865 36.555L14.951 36.3741C15.0083 36.2533 15.0513 36.167 15.08 36.1151C15.132 36.0151 15.167 35.945 15.18 35.904C15.193 35.863 15.219 35.81 15.248 35.745C15.2585 35.7229 15.2633 35.6986 15.262 35.674C15.262 35.635 15.245 35.6161 15.212 35.6161C15.198 35.6161 15.18 35.633 15.158 35.668C15.136 35.703 15.116 35.7371 15.097 35.7681L14.933 36.086L14.726 36.494C14.6396 36.6635 14.5654 36.839 14.504 37.0191C14.4668 37.1281 14.438 37.2397 14.418 37.3531C14.3986 37.4654 14.3889 37.5791 14.389 37.6931C14.3901 37.7906 14.4045 37.8874 14.432 37.981C14.4625 38.0859 14.5135 38.1838 14.582 38.2691C14.7463 38.4621 14.9946 38.5635 15.247 38.541C15.4903 38.5461 15.7302 38.4833 15.94 38.3601C16.046 38.2985 16.1444 38.2248 16.233 38.14C16.318 38.0597 16.3969 37.9731 16.469 37.8811C16.6101 37.6802 16.7188 37.4585 16.791 37.224C16.8657 37.0079 16.9069 36.7817 16.913 36.5531C16.9278 36.4448 16.8844 36.3363 16.799 36.2681C16.7761 36.2514 16.7508 36.2383 16.724 36.229L16.635 36.197L16.506 36.1381C16.4768 36.1085 16.4591 36.0695 16.456 36.028C16.4743 35.9641 16.5087 35.9058 16.556 35.8591C16.6418 35.7556 16.7387 35.6622 16.845 35.5801C16.9329 35.5018 17.0316 35.4365 17.138 35.3861C17.2092 35.3493 17.2871 35.3272 17.367 35.321C17.3835 35.3218 17.3995 35.3274 17.413 35.3371L17.467 35.3731C17.496 35.3731 17.529 35.347 17.567 35.2951C17.577 35.2821 17.604 35.2311 17.649 35.1431C17.6858 35.0758 17.7192 35.0068 17.749 34.9361C17.7681 34.8869 17.7825 34.8359 17.792 34.784L17.786 34.785ZM20.771 37.563L20.671 37.8171C20.6285 37.9081 20.5769 37.9944 20.517 38.0751C20.4769 38.1351 20.4277 38.1883 20.371 38.233C20.3031 38.2715 20.2314 38.3027 20.157 38.326L20.007 38.3811C19.9303 38.405 19.854 38.4304 19.778 38.4571C19.7038 38.4821 19.627 38.4981 19.549 38.5051L19.52 38.4911C19.52 38.459 19.6057 38.3904 19.777 38.285L20.056 38.093C20.1033 38.061 20.1557 38.022 20.213 37.976C20.2795 37.9219 20.342 37.8631 20.4 37.8C20.4591 37.7395 20.5042 37.6668 20.532 37.587C20.5327 37.5731 20.5351 37.5595 20.539 37.5461L20.353 37.5601C20.2741 37.563 20.1971 37.5345 20.139 37.481C20.0861 37.4394 20.0588 37.3728 20.067 37.306C20.074 37.2612 20.086 37.2171 20.103 37.175C20.122 37.125 20.165 37.0331 20.232 36.9001C20.2689 36.8234 20.3121 36.7497 20.361 36.68C20.423 36.597 20.483 36.556 20.54 36.556C20.6364 36.5566 20.7278 36.5994 20.79 36.673C20.8611 36.7495 20.8995 36.8507 20.897 36.955C20.897 37.0103 20.8923 37.0655 20.883 37.12L20.858 37.264C20.851 37.305 20.84 37.355 20.826 37.412C20.814 37.4628 20.7972 37.5124 20.776 37.5601L20.771 37.563ZM19.694 36.646C19.6893 36.7385 19.6773 36.8304 19.658 36.921C19.634 37.049 19.61 37.1614 19.586 37.258L19.5 37.6C19.452 37.7287 19.414 37.8228 19.386 37.882C19.3508 37.9552 19.3114 38.0263 19.268 38.095C19.2381 38.143 19.2006 38.186 19.157 38.222C19.0961 38.2654 19.0315 38.3032 18.964 38.335L18.707 38.435C18.6519 38.4521 18.5958 38.4658 18.539 38.476C18.4838 38.4895 18.4276 38.4989 18.371 38.504C18.347 38.504 18.333 38.496 18.328 38.48C18.3241 38.4596 18.3292 38.4384 18.342 38.422C18.3922 38.3545 18.4538 38.2963 18.524 38.25C18.622 38.1768 18.7187 38.1057 18.814 38.037C18.9233 37.941 19.0043 37.8653 19.057 37.81C19.1389 37.7245 19.2108 37.6299 19.271 37.528C19.2953 37.4828 19.3157 37.4357 19.332 37.387C19.358 37.3157 19.3997 37.2 19.457 37.04L19.543 36.792C19.553 36.7551 19.567 36.711 19.586 36.658C19.605 36.605 19.629 36.579 19.658 36.579C19.6755 36.5979 19.6879 36.621 19.694 36.646ZM30.764 37.19C30.764 37.135 30.764 37.0461 30.778 36.9221C30.79 36.7747 30.8067 36.628 30.828 36.482L30.95 35.6431L30.979 35.4641C30.9876 35.4281 30.99 35.3909 30.986 35.354L30.957 35.368C30.9143 35.4553 30.857 35.5837 30.785 35.753C30.713 35.9223 30.675 36.0163 30.671 36.035C30.6377 36.2598 30.5947 36.584 30.542 37.008C30.4893 37.432 30.463 37.6707 30.463 37.724C30.4571 37.9025 30.4873 38.0806 30.552 38.2471C30.6035 38.379 30.7357 38.4627 30.877 38.453C30.977 38.453 31.0747 38.3787 31.17 38.23C31.2832 38.035 31.3629 37.8223 31.406 37.6011L31.424 37.5121C31.4301 37.4847 31.4337 37.457 31.435 37.4291C31.435 37.383 31.423 37.3601 31.399 37.3601C31.375 37.3601 31.365 37.3811 31.353 37.4221L31.321 37.5321C31.2683 37.674 31.2087 37.745 31.142 37.745C31.0635 37.7472 30.9861 37.7256 30.92 37.683C30.8052 37.5872 30.7461 37.4397 30.763 37.291V37.1911L30.764 37.19ZM18.8 35.1431C18.8092 35.1926 18.8054 35.2435 18.789 35.291C18.7681 35.353 18.7417 35.413 18.71 35.4701C18.6725 35.5389 18.6231 35.6006 18.564 35.6521C18.5404 35.6808 18.5075 35.7002 18.471 35.7071C18.4333 35.6945 18.399 35.6732 18.371 35.6451C18.327 35.6083 18.2817 35.5727 18.235 35.538C18.1999 35.5115 18.1665 35.4828 18.135 35.452C18.1125 35.4353 18.0971 35.4106 18.092 35.383C18.1207 35.3237 18.142 35.278 18.156 35.246C18.204 35.146 18.239 35.0721 18.263 35.0261C18.306 34.9571 18.349 34.8861 18.392 34.813L18.435 34.751C18.4482 34.764 18.4626 34.7757 18.478 34.786L18.535 34.82C18.6075 34.8728 18.6745 34.9328 18.735 34.9991C18.7687 35.0406 18.7911 35.0903 18.8 35.1431ZM22.547 34.229C22.5384 34.1763 22.5163 34.1267 22.483 34.085C22.4224 34.0188 22.3554 33.9589 22.283 33.906L22.226 33.872C22.2106 33.8621 22.1962 33.8507 22.183 33.838L22.14 33.9C22.0973 33.9733 22.0543 34.0443 22.011 34.113C21.987 34.159 21.9513 34.2323 21.904 34.333C21.89 34.3651 21.868 34.411 21.84 34.47C21.8452 34.4976 21.8605 34.5222 21.883 34.539C21.9145 34.5697 21.9479 34.5985 21.983 34.625C22.029 34.659 22.0743 34.6943 22.119 34.731C22.1469 34.7593 22.1812 34.7806 22.219 34.793C22.2555 34.7862 22.2885 34.7668 22.312 34.738C22.3714 34.6866 22.4211 34.625 22.459 34.556C22.4908 34.499 22.5172 34.439 22.538 34.377C22.5544 34.3295 22.5582 34.2785 22.549 34.229H22.547ZM23.283 34.188C23.2922 34.2375 23.2884 34.2884 23.272 34.336C23.2512 34.398 23.2248 34.458 23.193 34.515C23.1556 34.584 23.1062 34.6456 23.047 34.697C23.0235 34.7258 22.9905 34.7452 22.954 34.752C22.9163 34.7393 22.8821 34.7181 22.854 34.69C22.81 34.6533 22.7647 34.6177 22.718 34.583C22.6829 34.5565 22.6495 34.5278 22.618 34.497C22.5955 34.4802 22.5802 34.4556 22.575 34.428C22.604 34.369 22.625 34.322 22.639 34.291C22.6737 34.217 22.7093 34.1437 22.746 34.071C22.7827 33.9983 22.8257 33.9273 22.875 33.858L22.918 33.796C22.9311 33.8088 22.9455 33.8202 22.961 33.83L23.018 33.865C23.0904 33.9179 23.1574 33.9779 23.218 34.044C23.252 34.0855 23.2748 34.1352 23.284 34.188H23.283ZM29.85 34.1371C29.8591 34.1866 29.8553 34.2374 29.839 34.285C29.8183 34.347 29.7918 34.407 29.76 34.4641C29.7224 34.5329 29.673 34.5944 29.614 34.646C29.5904 34.6748 29.5575 34.6942 29.521 34.701C29.4833 34.6884 29.4491 34.6671 29.421 34.639C29.377 34.6023 29.3317 34.5667 29.285 34.5321C29.2498 34.5056 29.2164 34.4769 29.185 34.446C29.1625 34.4293 29.1471 34.4046 29.142 34.377C29.1707 34.3177 29.192 34.272 29.206 34.24C29.254 34.14 29.289 34.0661 29.313 34.0201C29.356 33.951 29.399 33.8801 29.442 33.807L29.485 33.745C29.4982 33.758 29.5126 33.7697 29.528 33.78L29.585 33.814C29.6575 33.8668 29.7246 33.9268 29.785 33.993C29.8192 34.0345 29.8409 34.0842 29.85 34.1371ZM22.911 33.337C22.9021 33.2842 22.8797 33.2346 22.846 33.1931C22.7856 33.1267 22.7186 33.0667 22.646 33.014L22.589 32.98C22.5735 32.9702 22.5591 32.9588 22.546 32.946L22.503 33.008C22.46 33.0811 22.417 33.1521 22.374 33.2211C22.35 33.2671 22.314 33.34 22.267 33.441C22.253 33.473 22.231 33.5191 22.202 33.578C22.2071 33.6056 22.2225 33.6303 22.245 33.647C22.274 33.675 22.308 33.704 22.345 33.737L22.481 33.844C22.5095 33.8707 22.5437 33.8907 22.581 33.9021C22.6175 33.8952 22.6504 33.8758 22.674 33.847C22.7331 33.7956 22.7825 33.7339 22.82 33.6651C22.8517 33.608 22.8782 33.548 22.899 33.486C22.9154 33.4384 22.9191 33.3876 22.91 33.3381L22.911 33.337ZM19.544 8.84905L20.815 11.049V21.48L23.6 23.5061V30.923H20.357V24.091L17.157 20.891V13.18L15.287 9.94105H13.579L14.679 8.84105L19.544 8.84905ZM16.761 21.627L19.561 24.427V30.927H16.931L12.972 24.839H6.047C6.599 23.402 7.507 22.539 8.647 23.114C8.659 22.2 8.989 21.631 10.531 21.631L16.761 21.627ZM12.537 25.635L15.976 30.923H14.34L10.909 25.635H12.537ZM27.643 30.923H24.4V23.5061L27.185 21.481V11.05L28.456 8.85005H33.318L34.418 9.95005H32.71L30.84 13.189V20.9L27.64 24.1L27.643 30.923ZM35.028 24.835L31.069 30.923H28.443V24.423L31.243 21.623H37.47C39.012 21.623 39.343 22.192 39.354 23.106C40.497 22.528 41.405 23.394 41.954 24.831L35.028 24.835ZM32.028 30.923L35.467 25.635H37.096L33.66 30.923H32.028ZM12.458 29.492H10.534V28.582H11.867L12.458 29.492ZM37.467 29.492H35.542L36.133 28.582H37.466L37.467 29.492ZM25.079 3.40005H27.9L27.909 8.20005L26.385 10.84V21.077L24.4 22.517V20.143L25.112 19.625V4.83605H22.888V19.624L23.6 20.142V22.516L21.615 21.072V10.836L20.091 8.20005L20.1 3.40005H22.921V0.800049H25.08L25.079 3.40005ZM13.942 20.827H14.742V18.442H13.942V20.827ZM15.562 20.827H16.362V13.4L14.83 10.746H13.923L15.562 13.585V20.827ZM33.262 20.827H34.062V18.442H33.262V20.827ZM32.442 20.827H31.642V13.4L33.174 10.746H34.081L32.442 13.585V20.827Z" fill="#1F261A"/>
<defs>
<linearGradient id="paint0_linear_0_1081" x1="43.265" y1="0" x2="4.73801" y2="0" gradientUnits="userSpaceOnUse">
<stop stop-color="#D8AC4E"/>
<stop offset="1" stop-color="#ECE482"/>
</linearGradient>
</defs>
</svg>
