<svg viewBox="0 0 48 48" fill="none" xmlns="http://www.w3.org/2000/svg">
<path fill-rule="evenodd" clip-rule="evenodd" d="M25.671 47.3078C25.2278 47.751 24.6267 48.0001 24 48C23.3732 47.9999 22.7722 47.751 22.329 47.3078C20.5508 45.5297 17.9909 42.9698 17.9909 42.9698C17.9909 42.9698 20.7323 42.9698 22.4968 42.9698C23.4282 42.9698 24.3214 42.5998 24.98 41.9412C27.8897 39.0316 35.9696 30.9516 35.9696 30.9516L36.0182 36.9607C36.0182 36.9607 28.9732 44.0056 25.671 47.3078ZM9.5253 36.3527C10.1827 37.01 11.0743 37.3793 12.004 37.3793C16.1166 37.3793 27.5482 37.3793 27.5482 37.3793L23.3335 41.6627H6.3373V33.1646C6.3373 33.1646 8.2777 35.105 9.5253 36.3527ZM41.6627 41.6627H33.1646C33.1646 41.6627 35.105 39.7223 36.3527 38.4747C37.01 37.8173 37.3793 36.9257 37.3793 35.996C37.3793 31.8834 37.3793 20.4518 37.3793 20.4518L41.6627 24.6665V41.6627ZM0.6922 25.671C0.249 25.2278 -9.99699e-05 24.6267 3.00968e-08 24C0.00010003 23.3732 0.249 22.7722 0.6922 22.329C2.4703 20.5508 5.0302 17.9909 5.0302 17.9909C5.0302 17.9909 5.0302 20.7323 5.0302 22.4968C5.0302 23.4282 5.4002 24.3214 6.0588 24.98C8.9684 27.8897 17.0484 35.9696 17.0484 35.9696L11.0393 36.0182C11.0393 36.0182 3.9944 28.9732 0.6922 25.671ZM24 12.9834C30.0803 12.9834 35.0166 17.9197 35.0166 24C35.0166 30.0803 30.0803 35.0166 24 35.0166C17.9197 35.0166 12.9834 30.0803 12.9834 24C12.9834 17.9197 17.9197 12.9834 24 12.9834ZM47.3078 22.329C47.751 22.7722 48 23.3733 48 24C48 24.6268 47.751 25.2278 47.3078 25.671C45.5297 27.4492 42.9698 30.0091 42.9698 30.0091C42.9698 30.0091 42.9698 27.2677 42.9698 25.5032C42.9698 24.5718 42.5998 23.6786 41.9412 23.02C39.0316 20.1103 30.9516 12.0304 30.9516 12.0304L36.9607 11.9818C36.9607 11.9818 44.0056 19.0268 47.3078 22.329ZM6.3373 6.3373H14.8354C14.8354 6.3373 12.895 8.2777 11.6473 9.5253C10.99 10.1827 10.6207 11.0743 10.6207 12.004C10.6207 16.1166 10.6207 27.5482 10.6207 27.5482L6.3373 23.3335V6.3373ZM30.0091 5.0302C30.0091 5.0302 27.2677 5.0302 25.5032 5.0302C24.5718 5.0302 23.6786 5.4002 23.02 6.0588C20.1103 8.9684 12.0304 17.0484 12.0304 17.0484L11.9818 11.0393C11.9818 11.0393 19.0268 3.9944 22.329 0.6922C22.7722 0.249 23.3733 0 24 0C24.6268 0 25.2278 0.249 25.671 0.6922C27.4492 2.4703 30.0091 5.0302 30.0091 5.0302ZM41.6627 6.3373V14.8354C41.6627 14.8354 39.7223 12.895 38.4747 11.6473C37.8173 10.99 36.9257 10.6207 35.996 10.6207C31.8834 10.6207 20.4518 10.6207 20.4518 10.6207L24.6665 6.3373H41.6627Z" fill="#00194A"/>
</svg>
