<svg viewBox="0 0 48 48" fill="none" xmlns="http://www.w3.org/2000/svg">
<path fill-rule="evenodd" clip-rule="evenodd" d="M31.6217 45.8425C31.6217 45.581 31.5179 45.3303 31.3333 45.1454C31.1486 44.9604 30.8982 44.8566 30.637 44.8566C27.9656 44.8566 20.6029 44.8566 17.9315 44.8566C17.6704 44.8566 17.42 44.9604 17.2353 45.1454C17.0506 45.3303 16.9469 45.581 16.9469 45.8425C16.9469 46.2159 16.9469 46.6407 16.9469 47.0141C16.9469 47.2756 17.0506 47.5263 17.2353 47.7112C17.42 47.8962 17.6704 48.0001 17.9315 48C20.6029 48 27.9656 48 30.637 48C30.8982 48.0001 31.1486 47.8962 31.3333 47.7112C31.5179 47.5263 31.6217 47.2756 31.6217 47.0141C31.6217 46.6407 31.6217 46.2159 31.6217 45.8425ZM24.7296 30.9934C24.7296 30.9934 29.3642 25.7711 33.7567 23.3035C38.9397 20.3919 46.75 21.068 46.75 21.068C46.75 21.068 40.5383 22.9404 36.7921 28.432C33.4356 33.3523 31.3535 43.5296 31.3535 43.5296C31.3535 43.5296 28.2178 35.8893 24.7296 30.9934ZM29.5434 43.4203H16.9763C16.9763 43.4203 15.2266 41.1121 14.5823 37.9352C13.8847 34.4949 12.749 30.4091 10.993 28.1586C7.66886 23.8986 1.25 21.2491 1.25 21.2491C1.25 21.2491 13.3368 19.2479 20.7146 28.5492C24.2936 33.0613 29.5389 43.4108 29.5434 43.4203Z" fill="#002263"/>
<path fill-rule="evenodd" clip-rule="evenodd" d="M24 14.7728C27.32 14.7728 30.0154 17.5123 30.0154 20.8864C30.0154 24.2606 27.32 27 24 27C20.68 27 17.9846 24.2606 17.9846 20.8864C17.9846 17.5123 20.68 14.7728 24 14.7728ZM31.1295 18.519C33.4385 17.148 38.2546 14.3964 40.8542 13.6908C41.0727 13.6314 41.2923 13.6034 41.5083 13.604L41.5237 13.6041C42.6183 13.614 43.6174 14.3579 43.9144 15.4806C44.2713 16.8301 43.4796 18.2192 42.1476 18.5808C39.795 19.2194 35.0429 19.3264 32.1777 19.3278H32.0784C31.8146 19.3277 31.5676 19.3268 31.3413 19.3253C31.285 19.0508 31.2141 18.7817 31.1295 18.519ZM16.6587 19.3253C13.9831 19.343 8.4524 19.2865 5.85243 18.5808C4.52034 18.2192 3.72871 16.8301 4.08562 15.4806C4.44252 14.1312 5.81374 13.3292 7.14584 13.6908C9.74526 14.3964 14.5614 17.148 16.8703 18.519C16.7859 18.7817 16.715 19.0508 16.6587 19.3253ZM17.54 17.0157C14.9994 16.1605 9.78438 14.3068 7.54752 12.7924C6.40105 12.0162 6.09218 10.443 6.85838 9.28142C7.62469 8.11985 9.17762 7.80705 10.3242 8.58327C12.5606 10.0974 16.2452 14.2681 17.9976 16.3194C17.833 16.5424 17.6801 16.7748 17.54 17.0157ZM29.9575 16.2592C31.7033 14.2058 35.3828 10.0203 37.6177 8.49959C38.7625 7.72074 40.3161 8.0299 41.085 9.18959C41.8539 10.3494 41.5487 11.9233 40.4039 12.7023C38.1704 14.222 32.9593 16.0881 30.4208 16.9493C30.2786 16.7104 30.1238 16.4801 29.9575 16.2592ZM19.1239 15.0977C16.9928 13.4521 12.6594 9.98827 11.03 7.82236C10.194 6.71122 10.4058 5.12158 11.5026 4.27479C12.5994 3.42789 14.1686 3.64248 15.0044 4.75362C16.6332 6.91865 18.78 12.0665 19.7819 14.5857C19.5532 14.7441 19.3336 14.9152 19.1239 15.0977ZM28.1827 14.5612C29.1819 12.0516 31.3405 6.87901 32.9759 4.70804C33.8125 3.59745 35.3818 3.38396 36.478 4.23152C37.5743 5.07908 37.7851 6.66883 36.9485 7.77942C35.3136 9.94962 30.9607 13.4222 28.8342 15.0616C28.6264 14.8833 28.409 14.7161 28.1827 14.5612ZM21.2093 13.8109C19.7102 11.5564 16.7087 6.8756 15.8522 4.29769C15.4124 2.97361 16.1163 1.53679 17.4233 1.09121C18.7303 0.645523 20.1486 1.35865 20.5884 2.68273C21.4447 5.26008 21.8479 10.8249 21.9995 13.5396C21.7298 13.6153 21.4661 13.7062 21.2093 13.8109ZM25.9992 13.5391C26.1502 10.8245 26.5525 5.25964 27.4083 2.68217C27.8481 1.35799 29.2661 0.644642 30.5732 1.09C31.8802 1.53547 32.5845 2.97207 32.1448 4.29626C31.2888 6.87439 28.2882 11.5557 26.7894 13.8104C26.5327 13.7057 26.2689 13.615 25.9992 13.5391ZM23.5825 13.2765C22.8714 10.6546 21.5013 5.25062 21.5013 2.53134C21.5013 1.13426 22.621 0 24 0C25.379 0 26.4986 1.13426 26.4986 2.53134C26.4986 5.25062 25.1286 10.6546 24.4176 13.2765C24.2793 13.2688 24.1401 13.2649 24 13.2649C23.8599 13.2649 23.7207 13.2688 23.5825 13.2765Z" fill="#0BBBB9"/>
</svg>
