<svg width="47" height="48" viewBox="0 0 47 48" fill="none" xmlns="http://www.w3.org/2000/svg">
<path d="M31.3103 47.9992H47V8.12359C41.514 -4.84106 22.0335 0.357977 20.6418 5.61712C25.4597 2.92621 29.4696 2.38214 31.3103 6.65234V47.9992Z" fill="#2D2A68"/>
<path d="M15.6897 0.000699788H0V39.8764C5.48602 52.8411 24.9665 47.642 26.3581 42.3829C21.5401 45.0738 17.5304 45.6179 15.6897 41.3475V0.000699788Z" fill="#2D2A68"/>
<path d="M31.1847 23.9999C31.1847 28.2042 27.7326 31.6332 23.4999 31.6332C19.2674 31.6332 15.8152 28.2042 15.8152 23.9999C15.8152 19.7958 19.2674 16.3667 23.4999 16.3667C27.7326 16.3667 31.1847 19.7958 31.1847 23.9999Z" fill="#2D2A68"/>
</svg>
