<svg viewBox="0 0 48 48" fill="none" xmlns="http://www.w3.org/2000/svg">
<path fill-rule="evenodd" clip-rule="evenodd" d="M16.437 8.38092L16.4368 8.38072C18.3011 5.64392 20.9577 2.88752 23.844 0.292725C25.515 2.29622 26.9759 4.80682 27.4994 7.70462C29.5678 6.51612 31.8978 5.52752 34.3542 4.70362C35.9713 4.16132 37.6397 3.69112 39.32 3.28102C39.1121 7.03822 38.3996 11.0282 36.7703 14.6105V14.6106L36.7704 14.6105C40.6103 14.6896 44.4792 15.8171 48 17.3511C45.1882 20.9651 42.0341 24.3486 38.6891 26.7556L38.689 26.7558L38.6892 26.7557C41.0904 28.7392 42.7487 31.5121 43.866 34.2944C40.0817 35.8835 36.2745 37.1408 32.8978 37.5795L32.8973 37.5797L32.8979 37.5796C33.3329 39.9907 32.8979 42.5557 32.1644 44.8133C30.9606 44.7134 29.7715 44.5755 28.6277 44.3894C26.8766 44.1061 25.2259 43.7065 23.7809 43.149L23.7795 43.1486L23.7809 43.1491C22.963 44.9443 21.5448 46.4929 20.0993 47.7073C18.2027 46.5275 16.3945 45.1718 15.1109 43.6844L15.1105 43.684L15.111 43.6846C13.7876 44.6336 12.1477 45.1905 10.6257 45.5061C9.6845 44.0016 8.8458 42.3523 8.4359 40.7525C7.564 40.8647 6.6481 40.8157 5.7584 40.6693C5.2163 40.5814 4.6805 40.4581 4.1681 40.3136C3.9591 38.7621 3.8854 37.088 4.1528 35.5971V35.5965L4.1527 35.597C2.877 35.108 1.6494 34.2006 0.5926 33.2324C0.9916 31.7653 1.5686 30.2242 2.4061 28.9937L2.4062 28.9936C1.4262 27.8548 0.6306 26.3116 0 24.7608C0.9779 23.5202 2.1835 22.2858 3.5183 21.5148L3.5076 21.4723C3.0575 19.6712 2.9467 17.4997 3.0065 15.3546C3.5968 15.067 4.2168 14.8082 4.8565 14.5922C5.9099 14.2406 7.0016 14.0193 8.0606 14.038H8.0608C8.5035 11.5888 9.5184 8.83792 10.733 6.15092C12.723 6.41072 14.8222 7.04502 16.4367 8.38072L16.437 8.38092Z" fill="#7DCDF1"/>
<path fill-rule="evenodd" clip-rule="evenodd" d="M19.7025 14.4643V14.4642C20.9039 13.0325 22.3446 11.5709 24.0253 10.1366C25.0648 9.23809 26.2364 8.43499 27.4994 7.70459C27.7032 8.83629 27.7615 10.0116 27.6309 11.2141C27.4166 13.2003 26.9872 15.1164 26.3904 16.9015C28.2325 16.1262 30.2895 15.4715 32.5191 14.9935C33.9091 14.6981 35.3329 14.5793 36.7703 14.6106C36.1543 15.9617 35.4118 17.241 34.5304 18.4132C33.1093 20.3045 31.6055 21.9531 30.0929 23.3506C31.9011 23.631 33.7644 24.1368 35.6063 24.8905C36.7369 25.3543 37.7624 25.9906 38.6892 26.7557C37.4511 27.644 36.1885 28.3991 34.901 28.9869C32.8427 29.9263 30.881 30.6122 29.0602 31.0793V31.0794L29.0603 31.0793C30.1504 32.1641 31.1312 33.4294 31.9316 34.8496C32.4117 35.6966 32.7238 36.6203 32.8979 37.5795C31.6409 37.7438 30.4355 37.7961 29.2995 37.7104C27.4611 37.5752 25.7944 37.2869 24.3114 36.8825C24.5291 38.1653 24.5746 39.5095 24.4299 40.8574C24.3438 41.649 24.1131 42.4177 23.7808 43.1492C22.8801 42.8008 22.0515 42.3942 21.3229 41.908C20.121 41.1078 19.0828 40.2435 18.2112 39.3474L18.2045 39.3418L18.2111 39.3486C17.7889 40.3917 17.2295 41.3896 16.5368 42.3063C16.1403 42.8375 15.653 43.2927 15.1109 43.6844C14.6108 43.108 14.1845 42.504 13.8569 41.8738C13.3036 40.8214 12.8926 39.7622 12.6071 38.7234V38.7233C11.8451 39.3508 11.0015 39.8815 10.0953 40.2917C9.5742 40.532 9.0149 40.6759 8.436 40.7525C8.2729 40.1151 8.1766 39.4812 8.1677 38.8591C8.15 37.803 8.247 36.779 8.442 35.8102V35.81L8.4419 35.8102C7.5618 35.9813 6.6506 36.0363 5.7353 35.9685C5.2034 35.9296 4.673 35.7985 4.1528 35.5969C4.2638 34.9935 4.4291 34.4136 4.6642 33.8833C5.072 32.97 5.5702 32.1272 6.1428 31.3717V31.3716C5.3047 31.0842 4.4786 30.6786 3.6901 30.1524C3.2273 29.8432 2.8005 29.4502 2.4061 28.9938C2.7507 28.4894 3.1367 28.0365 3.5729 27.6612C4.3285 27.0129 5.1415 26.4801 5.9859 26.0651L5.9861 26.0649L5.9859 26.065C5.3433 25.3167 4.7543 24.4502 4.2426 23.4673C3.9385 22.8849 3.6997 22.226 3.5183 21.5134C4.0713 21.1974 4.643 20.9588 5.226 20.8345C6.2373 20.6181 7.2511 20.5562 8.2363 20.6373C7.9822 19.452 7.8363 18.145 7.8147 16.7309C7.7982 15.879 7.8894 14.9757 8.0607 14.0379C8.756 14.0523 9.4298 14.1736 10.0595 14.4322C11.1379 14.8711 12.125 15.4823 12.9996 16.2255L13 16.2257L12.9997 16.2254C13.3865 14.7302 13.9426 13.131 14.6919 11.4579C15.1512 10.4294 15.7423 9.40249 16.4367 8.38069C17.0881 8.91639 17.6509 9.56199 18.0836 10.3287C18.8151 11.6226 19.3522 13.0258 19.7024 14.4642L19.7025 14.4643Z" fill="#00AAE7"/>
<path fill-rule="evenodd" clip-rule="evenodd" d="M15.9915 20.2413C15.9686 20.2932 16.0145 20.2939 15.9915 20.2413L15.9923 20.2395L15.9915 20.2378C16.7981 18.4087 18.0391 16.4441 19.7024 14.4641C20.2045 16.5547 20.3006 18.6871 20.0208 20.6667C19.9835 20.6978 19.9811 20.7352 20.0047 20.7786C20.0102 20.7414 20.0156 20.7041 20.0209 20.6667C21.7084 19.2627 23.8596 17.964 26.3903 16.9013C25.55 19.4119 24.3957 21.632 23.0666 23.4272L23.0663 23.4273H23.0666C23.4716 23.3468 23.885 23.2813 24.3111 23.2282C26.1003 23.0075 28.0557 23.0343 30.0928 23.3513C28.0092 25.2717 25.8978 26.7181 23.9179 27.6649C25.7201 28.3708 27.4936 29.5245 29.0603 31.0792C27.0364 31.5972 25.1632 31.8424 23.5018 31.848C23.1045 31.8488 22.7185 31.8356 22.3461 31.8101L22.346 31.81L22.3461 31.8101C23.3058 33.2396 23.9903 34.9798 24.3111 36.882C22.2384 36.313 20.4909 35.5037 19.1266 34.5339V34.5329L19.1265 34.5337C19.1592 36.1111 18.8492 37.7667 18.211 39.3472C16.9589 38.0634 16.0216 36.6892 15.4233 35.3144C15.441 35.2812 15.3993 35.259 15.4233 35.3144C14.7374 36.5962 13.7739 37.7651 12.607 38.7232C12.1901 37.1905 12.0473 35.6778 12.1716 34.2734L12.1717 34.2733H12.1716V34.2734C11.0659 35.0252 9.78949 35.5503 8.44169 35.8101C8.73689 34.3528 9.25999 33.0037 9.97459 31.8531C10.018 31.8492 10.0057 31.8029 9.97469 31.8531C9.72079 31.8759 9.46799 31.8881 9.21149 31.8881C8.19289 31.8906 7.15629 31.7203 6.14259 31.3716C7.01159 30.2179 8.04559 29.2635 9.17279 28.5755C8.02569 28.0217 6.94159 27.171 5.98579 26.0649C7.02009 25.5558 8.09839 25.2291 9.16239 25.0977C9.42729 25.0636 9.69389 25.0448 9.96009 25.0372C9.98949 25.083 10.0163 25.0355 9.95999 25.0372C9.19339 23.846 8.60189 22.3566 8.23839 20.6374C9.73419 20.7633 11.1434 21.2224 12.3422 21.9681V21.9682C12.345 22.0194 12.3866 21.9958 12.3422 21.9682V21.9681C12.2452 20.2829 12.4562 18.3364 12.9995 16.2254C14.3047 17.3365 15.3278 18.723 15.9915 20.2378L15.9907 20.2396L15.9915 20.2413Z" fill="#006FBA"/>
<path fill-rule="evenodd" clip-rule="evenodd" d="M20.0239 20.644C20.0229 20.6516 20.0219 20.6593 20.0208 20.6669C18.6658 21.7953 17.5918 23.0077 16.8426 24.2445C16.8511 22.9027 16.5588 21.5369 15.9915 20.2415C15.3317 21.7406 14.9485 23.1751 14.8604 24.4872C14.2553 23.4743 13.3876 22.6183 12.3422 21.9684C12.4208 23.3808 12.7177 24.6372 13.2235 25.6779C12.2411 25.2099 11.1269 25.0014 9.96 25.0374C9.9468 25.0169 9.9207 25.0196 9.8848 25.0399C9.9099 25.039 9.935 25.0381 9.9601 25.0374C10.6144 26.0581 11.4088 26.8773 12.312 27.4379C11.2421 27.5645 10.1724 27.9643 9.1729 28.5757C10.1724 29.0611 11.2307 29.3192 12.2866 29.3141C11.3859 29.9638 10.6034 30.8359 9.9747 31.8533C11.086 31.753 12.1595 31.4286 13.1205 30.8824C12.5978 31.899 12.2822 33.0527 12.1717 34.2735C13.16 33.6044 14.002 32.7641 14.6336 31.7901C14.6421 32.951 14.915 34.1426 15.4233 35.3146C16.0292 34.1806 16.4032 32.9763 16.5049 31.7837C17.11 32.8009 18 33.7321 19.1265 34.5339L19.1266 34.5338C19.0992 33.1669 18.8149 31.8828 18.2745 30.7813C19.3984 31.3522 20.774 31.7017 22.346 31.8102C21.5355 30.6049 20.5424 29.6387 19.4326 28.9866C20.8109 28.8694 22.3312 28.4245 23.9178 27.6651C22.4434 27.0881 20.9606 26.8217 19.5673 26.876C20.8016 26.0478 21.9908 24.8801 23.0666 23.4275L23.0665 23.4274C21.3679 23.7634 19.8535 24.3347 18.5959 25.1114C19.3047 23.8204 19.7895 22.3077 20.0209 20.6669C20.0269 20.6619 20.0276 20.6542 20.0239 20.644Z" fill="white"/>
</svg>
