<?xml version="1.0" encoding="utf-8"?>
<!-- Generator: Adobe Illustrator 24.3.0, SVG Export Plug-In . SVG Version: 6.00 Build 0)  -->
<svg version="1.0" id="Layer_1" xmlns="http://www.w3.org/2000/svg" xmlns:xlink="http://www.w3.org/1999/xlink" x="0px" y="0px"
	 viewBox="0 0 1080 1080" style="enable-background:new 0 0 1080 1080;" xml:space="preserve">
<style type="text/css">
	.st0{fill:#A88B53;}
	.st1{fill:#446272;}
</style>
<g>
	<path class="st0" d="M302.9,172.1c44.2-0.1,88.5-0.1,132.8,0c4-0.4,6.3,3.3,8.8,5.7c32.7,32.7,65.4,65.5,98.1,98.2
		c33.8-34,67.7-67.8,101.6-101.7c1.3-1.6,3.2-2.6,5.3-2.3c44.2,0.1,88.4-0.1,132.6,0.1c0.1,113.9,0,227.8,0,341.6
		c-0.1,45.8,0.2,91.6-0.1,137.4c-24.9,0.6-49.7,0.1-74.6,0.3c-116.6,0-233.2,0-349.9,0c-18.2-0.2-36.4,0.3-54.6-0.3
		C302.8,491.5,302.9,331.8,302.9,172.1 M353.4,222.6c-0.1,126.1-0.1,252.2,0,378.3c126.1,0,252.2,0,378.2,0
		c-0.1-125.4,0-250.9,0-376.4c0.5-2-1.8-2.1-3.1-2c-19.7,0.1-39.4,0-59.1,0c-1.7-0.2-3,0.7-4.1,1.9c-29,29.1-58.1,58.1-87.1,87.2
		c16.9,16.9,33.8,33.7,50.7,50.6c0.8,1.1,2.2,1.3,3.5,1.3c31.4,0.2,62.8-0.3,94.2,0.3c-14.9,20-30.4,39.5-45.6,59.3
		c-20.5,0.2-40.9-0.1-61.4,0.2c11.6,11.4,23.1,22.9,34.5,34.5c-2.4,3.7-5.8,6.6-8.8,9.7c-33.5,33.6-67.1,67-100.6,100.7
		c-0.5,0.1-1.6,0.3-2.2,0.3c-28.9-29.1-58-58-87-87.1c-32-0.2-64,0.2-96.1-0.2c2.6-5.3,6.8-9.5,10.3-14.3
		c10.7-14,21.5-27.9,32.3-41.9c1.4-1.7,2.8-4,5.4-3.6c19.7-0.1,39.4,0,59.1,0c-11.5-11.7-23.2-23.1-34.7-34.8
		c24.7-25.3,50.1-49.9,74.8-75.2c-28.4-28.9-57.4-57.3-85.9-86.1c-1.5-1.4-2.9-3.3-5.2-3C394.9,222.6,374.2,222.6,353.4,222.6
		 M469.8,420.1c-1.6,1.1-1.1,3.1,0.3,4.1c24.4,24.6,48.9,49,73.4,73.5c24-24.2,48.2-48.3,72.3-72.4c0.9-1.1,2.8-2.5,0.9-3.7
		c-24.7-24.8-49.5-49.5-74.2-74.2C518.3,371.6,494.1,395.9,469.8,420.1L469.8,420.1z"/>
	<path class="st1" d="M628.6,704.7c5.4,0,10.8,0,16.2,0.1c-0.1,4.2-0.1,8.4,0,12.6c-5.4,0-10.8,0-16.2,0
		C628.5,713.2,628.5,708.9,628.6,704.7 M803.8,715c4.9-5.8,12.1-9.5,19.7-10.1c7.1-0.5,14.3-0.1,21.5-0.2c0,4.7,0,9.4,0,14
		c-6.2,0.1-12.4-0.3-18.5,0.2c-3.7,0.2-6.9,2.3-9.8,4.6c10.3,0.4,20.6,0,31,0.2c9.4,0.4,18.1,7.5,20.1,16.7
		c1.2,4.3,0.5,8.7,0.2,13.1c3,2.3,6.9,2,10.5,2.1c5-0.1,10,0.2,15-0.2c2.5-0.1,4.3-2.4,4.3-4.8c0.2-8.7,0-17.3,0.1-26
		c5.3,0,10.7,0,16.1,0c0,8.7,0,17.3,0,26c-0.1,5.6-1.5,11.7-6,15.4c-3.6,3.2-8.7,4-13.4,3.8c-7.7-0.1-15.3,0.1-23-0.1
		c-4.1-0.1-7.9-2-11-4.5c-5.2,4.7-12.4,4.9-19,4.6c-20,0-40,0-60,0c-9.2-0.1-17.9-6.7-20.6-15.5c-2-7.7-0.2-16.1,4.4-22.6
		c5.5,0.3,8.4,5.9,12.5,8.8c-1.2,3.2-3.2,6.8-1.5,10.2c1.3,3.3,4.9,4.9,8.3,4.8c18.7,0.1,37.4,0,56.1,0.1c3.7,0.2,7.7-0.9,9.8-4.1
		c3-3.7,1.9-9.9-2.2-12.4c-2.7-1.4-5.8-1.2-8.7-1.3c-14.4,0.1-28.7,0-43.1,0.1C796.3,729.8,798.2,721.2,803.8,715 M895.1,704.7
		c5.4,0.1,10.7,0,16.1,0.1c0,4.2,0,8.4,0,12.7c-5.4,0-10.7,0-16.1,0C895.2,713.2,895.2,708.9,895.1,704.7 M925.9,704.7
		c5.3,0,10.6-0.1,15.9,0c0,15.3-0.1,30.7,0,46c-0.1,2.3,1.5,4.6,4,4.7c6.9,0.6,13.9,0.2,20.9,0.2c2.6,0.2,5.8-1,6-4.1
		c0.5-8.9,0.1-17.9,0.2-26.9c5.3,0,10.7,0,16,0c0,8.7,0,17.4,0,26c-0.1,5.3-1.4,11.1-5.4,14.9c-3.4,3.3-8.4,4.4-13,4.3
		c-9.3,0-18.6,0-27.9,0c-4.8,0-9.7-1.8-12.8-5.6c-3-3.8-4.1-8.8-4-13.6C925.9,735.4,925.9,720.1,925.9,704.7 M234,733.2
		c3-6.3,9.5-10.5,16.4-11.2c6.9-0.6,14.5-0.6,20.5,3.4c6.2,4.3,9.9,11.8,10.2,19.3c-1.7,4.3-5.4,7.5-8.3,11.1
		c8.2,0.1,16.4,0,24.7,0.1c2.6,0,5.9,0,7.1-2.8c1-2.9,0.4-6.1,0.6-9.2c0.2-9.2,6.3-18.4,15.2-21.1c4.5-1.4,9.3-1.4,13.9-0.9
		c7.2,0.8,13.8,5.4,17.1,11.9c5.5,10.7,2.8,25-6.6,32.6c-5.1,4.3-12.1,5.2-18.5,4.7c-4.7-0.1-9-2.1-12.9-4.7
		c-3.1,1.9-6.5,3.8-10.2,3.7c-9,0.1-18,0-27,0c-6.3-0.1-12.7,0.7-18.7-1.5c-1.9-0.8-3.8,0.2-5.6,0.6c-4.4,1.3-9.1,0.8-13.6,0.9
		c-23.5,0-46.9,0-70.4,0c0-4.8,0-9.5,0-14.2c8.7,0,17.5,0,26.2,0c-0.1-5.7,0.2-11.3-0.1-17c0.1-3-3.8-6-6.3-3.7
		c-1.7,1-2.1,3-2.9,4.6c-5,0.1-10,0.1-15.1,0.1c0.2-4.5,1.6-9.4,5.4-12.2c5.8-4.3,13.5-4.1,20.3-3.6c5.9,0.6,12.1,3.9,13.8,9.9
		c2,7.1,0.6,14.6,1.1,21.9c9.5,0,18.9,0.1,28.4,0c-2.9-3.5-6.6-6.7-8-11C230.7,740.6,232.4,736.7,234,733.2 M327,734.3
		c-4.2,2.5-5.6,7.8-5.2,12.5c0.2,4.2,1.5,9.3,5.8,11.1c3.5,1.8,7.7-1,9-4.3c2-4.9,2.2-10.8-0.2-15.6
		C334.8,734.6,330.4,732.3,327,734.3 M247.6,741.9c2.2,3.6,5.1,6.6,8.4,9.3c3.2-2.8,6.2-5.8,8.5-9.4c-2.1-3.1-4.8-6.6-8.8-6.8
		C251.9,735.6,249.4,738.7,247.6,741.9 M558,733.2c3.2-6.7,10.2-10.9,17.4-11.4c6.8-0.5,14.3-0.3,20.1,3.9
		c5.8,4.4,9.4,11.7,9.6,18.9c-1.7,4.4-5.4,7.5-8.2,11c7.5,0,15.1,0.1,22.6,0c2.4-0.1,5.3,0,7.1-1.9c2.1-1.7,2.2-4.6,2.2-7.1
		c0-6.3,0-12.7,0-19c5.3,0,10.6,0,15.9,0.1c0.1,6.7-0.3,13.4,0.2,20.1c0.2,3.4,2.4,6.8,6,7.4c7.3,1,14.6,0.3,22,0.5
		c0-9.5,0-19.1,0-28.6c5.3,0,10.5,0,15.8,0c-0.2,1.7-0.4,3.4-0.5,5.2c6.9-5.5,15.5-9,24.4-8.6c9.2-0.3,18.7,3.6,24.2,11.1
		c3.8,5.2,4.1,12.1,3.1,18.2c-1.8,9.8-11.5,16.9-21.2,16.9c-22,0.1-44,0-66,0c-4.7,0.2-9.1-1.8-12.7-4.8c-3.1,2.9-7.1,4.8-11.3,4.7
		c-12.6,0.1-25.3,0-38,0.1c-3.5,0.1-6.8-1-10.2-1.8c-3.6,0.5-7.1,2-10.8,1.8c-10.3-0.1-20.6,0.1-30.9-0.1c-4.3,0-8.3-1.8-11.5-4.5
		c-3.5,2.9-7.9,4.7-12.5,4.6c-14.6,0-29.3,0-43.9,0c-8.5,0-16.6-5.6-19.9-13.4c-3.2-8-1.6-17.4,3.4-24.3c0.8,0,2.5,0.1,3.3,0.1
		c3.2,2.8,6.3,5.5,9.4,8.3c-1.3,3.2-3.2,6.8-1.5,10.3c1.4,3.7,5.7,5,9.3,4.8c12-0.1,24.1,0.1,36.1-0.1c2.8,0.2,5.2-2.2,5.1-5
		c0.3-8.6,0-17.3,0.1-25.9c5.4,0,10.7,0,16.1,0c0.1,7.7-0.1,15.4,0.1,23c0.1,4,3.3,7.7,7.4,7.7c7.8,0.5,15.7,0.1,23.6,0.2
		c-2.8-3.3-6.1-6.4-7.9-10.4C554.4,741.1,556.3,736.9,558,733.2 M571.6,742.1c2.3,3.4,5.2,6.4,8.3,9.1c3.2-2.7,6.3-5.8,8.5-9.4
		c-2-3.1-4.7-6.4-8.7-6.8C575.9,735.6,573.2,738.7,571.6,742.1 M688.1,755.7c8.5,0.1,17,0.1,25.5,0c4.9,0.2,10.6-3.6,10.3-8.9
		c-0.6-6.4-7.6-9.5-13.3-9.5C700.1,737.9,691.5,746,688.1,755.7 M141.9,724.7c5.3,0,10.6,0,15.9,0c0,10.3,0.1,20.6,0,30.9
		c-0.2,10-5.1,20-13.5,25.7c-7.4,5.2-16.9,6.3-25.7,5.3c-9.4-1.1-17.9-7.1-22.7-15.2c-6.3-10.1-5.6-23-2.8-34.1c5.6,0,11.2,0,16.8,0
		c-2.1,6.4-4.2,13.1-2.7,19.8c2,7.6,8.5,14.2,16.5,15.2c10.5-0.1,18.9-10.3,18.2-20.6C141.9,742.8,141.9,733.7,141.9,724.7
		 M386.6,732.7c4.3-5.3,11.2-7.7,17.8-7.9c8.4-0.2,16.7,0,25.1-0.1c0,13.7,0,27.4,0,41c0,6-2,12.2-6.9,16c-7.5,5.9-17.9,5.8-26.8,4
		c-1.3-4.4-2.7-8.8-3.7-13.3c6.6,1.1,15,3.7,20-2.4c-4.4-0.2-8.9,0.2-13.2-0.9c-7.9-1.9-14.5-8.4-16.3-16.4
		C381.4,746,381.9,738.2,386.6,732.7 M401.9,740c-4,3.1-4.6,9.7-0.7,13.2c3.2,3.2,8,2.4,12.1,2.5c0-5.9,0-11.8,0-17.7
		C409.5,738.1,404.9,737,401.9,740 M472.6,726.1c5.4,0,10.8,0,16.2,0c0,4.1,0,8.2,0,12.3c-5.4,0.1-10.9,0-16.3,0.1
		C472.5,734.3,472.5,730.2,472.6,726.1 M492.3,726.1c5.3-0.1,10.6,0,15.9,0c0,4.1,0,8.2,0,12.4c-5.3,0-10.6,0-15.9-0.1
		C492.4,734.2,492.4,730.2,492.3,726.1 M117.2,732.5c5.4,0,10.7,0,16.1,0c0,4.2,0,8.4,0,12.7c-5.4-0.1-10.7,0-16.1,0
		C117.2,740.9,117.2,736.7,117.2,732.5 M969.9,786.9c0-4.2,0-8.5,0-12.7c5.3,0.1,10.7,0.1,16,0c0,4.2,0,8.4,0,12.7
		C980.6,786.9,975.2,787,969.9,786.9 M381.6,837.8c4.5-3.9,11.1-3.5,16.5-2.2c-0.3,2.2-0.6,4.4-1,6.7c-1.9-0.4-3.8-0.9-5.7-1.3
		c-5,1.6-5.8,7.2-5.8,11.8c3,0,6.1,0,9.1,0.1c0,2,0,4,0,6c-3,0-6,0-9.1,0c0,10.7,0,21.3,0,32c-3,0-5.9,0-8.9,0c0-10.6,0-21.3,0-31.9
		c-1.8,0-3.6-0.1-5.3-0.1c0-2,0-4-0.1-6c1.8,0,3.5,0,5.3,0C376.9,847.5,377.3,841.5,381.6,837.8 M281.2,835.5c2.9,0,5.8,0,8.8,0
		c0,10.5-0.1,21,0.1,31.5c4.1-4.6,7.7-9.5,12-13.9c3.4-1,7.3-0.3,10.9-0.2c-4.6,5.4-9.6,10.4-14.4,15.6c5.4,7.3,11.1,14.5,16.3,22
		c-3.6,0.3-7.2,0.3-10.8,0.2c-3.8-5.5-7.8-10.8-11.7-16.3c-0.8,0.9-1.6,1.7-2.4,2.6c0.1,4.6,0.1,9.2,0,13.8c-2.9,0-5.8,0-8.7,0
		C281.1,872.3,281.2,853.9,281.2,835.5 M503.3,835.5c3,0,5.9,0,8.9,0c0.2,18.4-0.5,36.9,0.4,55.3c-2.8,0-5.6,0-8.3,0
		c0-0.9,0.1-2.6,0.1-3.5c-7.1,6-19.7,6-25.2-2.2c-4.9-7.6-4.9-18.2-0.2-25.9c5-8,16.7-9,24.4-4.4
		C503.3,848.3,503.4,841.9,503.3,835.5 M493,858.3c-6.2,1.5-8.8,8.7-8.4,14.5c0,5.4,3.2,11.4,8.9,12.2c5.4,0.3,9.8-5,9.8-10.1
		c0-3.9,0.7-8.1-1.2-11.6C500.4,860,496.7,857.5,493,858.3 M159.3,838.7c8.8-0.7,18.3-2.4,26.7,1.6c5.9,2.9,7.5,10.9,4.7,16.5
		c-1.2,2.5-3.6,4.1-5.9,5.6c2.7,1.4,5.7,3,7.2,5.8c4,6.8,1.9,17.2-5.7,20.5c-8.5,3.6-18,2.4-27,2C159.3,873.3,159.4,856,159.3,838.7
		 M168.2,844.1c0,5.4,0,10.7,0,16.1c4.5,0,9.9,0.2,13-3.7c2.8-3,2.3-8-0.9-10.5C176.9,843.3,172.3,843.7,168.2,844.1 M168.2,865.9
		c0,6.4,0,12.8,0,19.2c4.7,0.3,10,0.3,13.7-3c4-3.3,3.8-10.3-0.4-13.3C177.8,865.8,172.8,865.9,168.2,865.9 M705.5,843.7
		c3.6-6.5,12.6-7.6,19-5c5.2,2.2,7.2,8.6,5.6,13.7c-1.3,5.1-6.2,8-10.4,10.5c3.6,4.2,7.2,8.3,10.9,12.4c1.9-4.3,3.3-8.8,4-13.5
		c2.8-0.1,5.7-0.1,8.5-0.1c-1.2,6.8-3,13.7-7.1,19.5c2.9,3.1,5.8,6.1,8.4,9.4c-3.5,0.2-7.1,0.2-10.6,0.2c-1.2-1.3-2.5-2.7-3.7-4
		c-5.3,3.9-12,5.3-18.4,4.5c-5.1-0.4-10.3-3.3-12.4-8.1c-1.8-4.3-1.8-9.4,0.2-13.6c1.7-3.5,4.9-6,8.1-8.1
		C704.1,856.3,702.4,849.3,705.5,843.7 M714.3,844.5c-4.2,3.7-1.9,9.5,0.7,13.4c3.6-2.1,8.1-5.3,7.2-10.1
		C721.8,844.2,717.2,841.4,714.3,844.5 M707.1,872.5c-1.9,4.9,1.3,10.9,6.3,12.3c4.3,1.7,8.6-1.1,12-3.4c-4.7-4.9-9-10.1-13.7-15
		C709.9,868.3,707.9,870,707.1,872.5 M416.3,838.3c3,0,5.9,0,8.9-0.1c0,17.5,0,35,0,52.5c-3,0-5.9,0-8.9,0
		C416.4,873.3,416.3,855.8,416.3,838.3 M767.6,838.3c3.6,0,7.2,0,10.8,0c4.2,12.8,9.2,25.4,12.9,38.5c3.9-13,9-25.6,13.5-38.4
		c3.6,0,7.2,0,10.8,0c1,17.5,2.1,34.9,3.3,52.4c-2.9,0-5.8,0-8.7,0c-0.9-12.8-1.5-25.6-2.2-38.3c-4.3,12.8-9,25.4-13.6,38.1
		c-2.4,0-4.9,0-7.3,0c-4-12.5-8.5-24.7-12.3-37.2c-0.7,12.5-1.5,25-2.2,37.6c-2.9,0-5.8,0-8.6,0.1
		C765.2,873.3,766.6,855.8,767.6,838.3 M828.9,839.2c2.1-1.4,5.1-1.3,7.3-0.1c2.5,2,2.3,7-1,8c-1.9,0.4-4,0.5-5.8-0.2
		C826.6,845.5,826.6,841.1,828.9,839.2 M596.9,843.9c2.8-0.7,5.7-1.4,8.6-1.8c0.1,3.5,0.1,7.1,0.1,10.7c3.1,0,6.3,0,9.4,0
		c0,2,0,4,0,6c-3.1,0-6.3,0-9.4,0c0.1,7.4-0.4,14.7,0.2,22.1c-0.1,2.2,2,3.3,3.6,4.3c1.7-0.3,3.4-0.6,5.1-0.8
		c0.1,2.1,0.2,4.1,0.4,6.2c-4.3,0.9-8.9,1.6-13-0.1c-3.7-1.7-4.8-6.1-4.9-9.8c-0.1-7.3,0-14.6,0-21.9c-1.9,0-3.9,0-5.8,0
		c0-2,0-4,0-6c1.9,0,3.8,0,5.7,0C596.9,849.8,596.9,846.8,596.9,843.9 M200.9,855.3c5.9-3.3,13.1-4.1,19.6-2.6
		c5.3,1.2,8.3,6.6,8.6,11.7c0.5,8.8-0.4,17.6,0.8,26.3c-2.8,0-5.5,0-8.3,0.1c0-0.7-0.1-2-0.1-2.7c-4.9,3.6-11.7,4.4-17.3,2.2
		c-7.4-3.3-7.7-14.8-1.5-19.4c5.1-4,11.8-4.3,18-4.7c-0.4-2.9-1.2-6.2-4.2-7.5c-4.7-2.2-9.4,1.1-13.8,2.4
		C202,859.1,201.4,857.2,200.9,855.3 M209.6,874.8c-1.5,1.3-1.9,3.3-2.8,5c1,2,1.8,4.6,4.2,5.3c2.9,0.8,6.1-1,7.8-3.2
		c2.4-2.9,1.5-6.8,1.6-10.2C216.7,872.2,212.7,872.5,209.6,874.8 M245.9,855.9c5.1-3.9,12.2-5.2,18.2-2.7c4.8,2.2,7.3,7.4,7.5,12.5
		c0.2,8.3,0,16.6,0.1,25c-3,0-5.9,0-8.9,0c-0.1-7.3,0.1-14.7,0-22c-0.1-3.8-1.4-8.5-5.4-9.8c-5.3-1.6-10.2,3.6-10.4,8.6
		c-0.2,7.7,0,15.4,0,23.1c-3,0-5.9,0-8.9,0c-0.1-12.7,0.4-25.3-0.3-38c2.7,0,5.4,0,8.1,0C245.9,853.5,245.9,855.1,245.9,855.9
		 M346,852.5c6.5-1.1,14.3-0.4,18.9,4.9c5.9,6.8,6.2,17.3,2.3,25.1c-5.1,9.3-18.2,11.2-27.1,6.5c-7.6-4.3-9.9-14.1-8.1-22.1
		C333.1,859.8,338.9,853.6,346,852.5 M349,858.3c-10.8,3.6-11.3,21.4-1.4,26.3c3,1.7,6.6,0.2,9-1.9c5.4-5.5,5.6-14.9,1-21
		C355.6,859.3,352.2,857.4,349,858.3 M568.5,853.6c5.9-2.5,12.8-1.8,18.5,0.8c-0.7,2-1.4,4.1-2.1,6.1c-3.2-0.9-6.5-2.9-9.9-2.2
		c-2.8,0.6-5.1,4.5-2.6,6.7c3.3,3,8.1,3.6,11.7,6.3c6.2,4.5,5,15.7-2.2,18.6c-6.6,2.5-14.2,1.9-20.6-1c0.7-2.1,1.3-4.3,2.2-6.3
		c4.2,1,8.6,4.4,13,2.1c2.8-1.2,3.8-5.1,1.5-7.3c-3.7-3.3-9.3-3.6-12.8-7.3C560.5,865.3,562.4,856.3,568.5,853.6 M628.9,856.5
		c3.1-3.6,7.8-5.1,12.4-4.4c0.4,2.4,0.3,4.8,0.3,7.2c-5.7-1.1-10.8,3.3-11.4,8.9c-0.6,7.5-0.1,15-0.2,22.5c-2.9,0-5.9,0-8.8,0
		c-0.1-12.7,0.4-25.3-0.4-38c2.7,0,5.5,0,8.2,0C628.9,854,628.9,855.2,628.9,856.5 M853.9,856.2c5.6-4.7,14.6-5.9,20.7-1.4
		c3.7,2.8,5.1,7.6,5.2,12.1c0.1,8,0,16,0.1,23.9c-3,0-5.9,0-8.9,0c-0.1-7.3,0.1-14.6,0-21.9c0-4.1-1.7-9.2-6.2-10
		c-5.1-0.7-9.4,4.1-9.6,9c-0.2,7.7,0,15.3,0,23c-3,0-5.9,0-8.9,0.1c-0.1-12.7,0.4-25.3-0.3-38c2.7,0,5.4,0,8.1,0
		C853.9,853.6,853.9,855.3,853.9,856.2 M434.8,852.8c2.7,0,5.4,0,8.2,0c0,0.9-0.1,2.6-0.1,3.4c5.1-4.1,12.3-5.4,18.4-2.9
		c4.7,2.2,7.3,7.4,7.5,12.4c0.3,8.3,0,16.7,0.1,25c-3,0-5.9,0-8.9,0.1c-0.1-7.4,0.1-14.7,0-22.1c0-4.1-1.8-9.1-6.3-10
		c-5-0.6-9.3,4.1-9.6,8.9c-0.2,7.7,0,15.4-0.1,23.2c-2.9,0-5.9,0-8.8,0C435,878.1,435.5,865.4,434.8,852.8 M521.9,852.7
		c3,0,5.9,0,8.9,0c0,7,0,14,0,21.1c0,3.7,0.8,8.1,4.1,10.2c5.3,2.8,11.6-2.8,11.4-8.3c0.1-7.7,0-15.4,0-23c3,0,5.9,0,8.9,0
		c0.2,12.7-0.4,25.4,0.4,38c-2.8,0-5.5,0-8.3-0.1c0-0.8,0-2.5,0-3.4c-5.8,4.8-15.4,6-21.2,0.9c-3.3-3.2-4.1-8-4.2-12.5
		C521.9,868.1,521.9,860.4,521.9,852.7 M643.1,852.7c3.2,0,6.5,0,9.7,0c3.1,8.5,6.3,17,9.4,25.5c3.1-8.5,5.9-17,8.7-25.5
		c3.2,0,6.3,0,9.5,0c-2.2,6.6-4.9,13-7.3,19.5c-3.2,8.3-6,16.8-10.5,24.5c-3.3,5.6-8.7,10.7-15.5,10.8c-0.6-2.2-1.3-4.3-1.9-6.5
		c5.6-2.1,10.1-6.7,12.3-12.2C652.7,876.8,647.7,864.9,643.1,852.7 M828.2,852.7c2.9,0,5.9,0,8.8,0c0,12.7-0.1,25.3,0,38
		c-3,0-5.9,0-8.9,0C828.2,878,828.1,865.4,828.2,852.7 M890.4,858.5c5-6.9,15-8,22.4-5c7.3,3.5,8.9,12.5,8.4,19.9
		c-8.8,0.1-17.6,0-26.5,0c0.8,3.9,2,8.3,5.8,10.2c5.3,3.5,11.8,1.1,17.3-0.4c0.5,2,0.9,4.1,1.3,6.1c-6.3,2-13.1,2.6-19.6,1.5
		c-5.1-1-9.8-4.6-11.7-9.5C885.1,873.9,885.9,865.1,890.4,858.5 M895,867.6c5.9,0.1,11.9,0.1,17.8,0c-0.7-4.1-2.5-8.9-7.2-9.7
		C899.9,857,896.3,862.8,895,867.6L895,867.6z"/>
</g>
</svg>
