<svg viewBox="0 0 48 48" fill="none" xmlns="http://www.w3.org/2000/svg">
<path d="M14.1858 16.416V30.43C23.1648 30.2602 32.1438 26.8255 41.1234 16.1047L41.085 0.0666504C32.9508 9.84575 24.1383 16.0947 14.1858 16.416Z" fill="#1F1F48"/>
<path d="M33.2868 41.971C33.2868 45.2917 30.5784 48.0001 27.2574 48.0001C23.9367 48.0001 21.2283 45.2917 21.2283 41.971C21.2283 38.65 23.9367 35.9416 27.2574 35.9416C30.5784 35.9416 33.2868 38.65 33.2868 41.971Z" fill="#1F1F48"/>
<path fill-rule="evenodd" clip-rule="evenodd" d="M33.027 17.6367V31.6506C23.0748 31.9719 14.262 38.2209 6.1278 48L6.0894 31.962C15.069 21.2412 24.048 17.8065 33.027 17.6367Z" fill="#AFB2AE"/>
</svg>
