<svg viewBox="0 0 48 48" fill="none" xmlns="http://www.w3.org/2000/svg">
<path fill-rule="evenodd" clip-rule="evenodd" d="M24.0381 2.93737C26.4812 2.93737 28.4641 4.94096 28.4641 7.41253C28.4641 9.88436 26.481 11.888 24.0381 11.888C21.5912 11.888 19.608 9.88436 19.608 7.41253C19.608 4.94096 21.5912 2.93737 24.0381 2.93737ZM34.3442 0C36.7917 0 38.7735 2.00386 38.7735 4.47543C38.7737 6.94726 36.7917 8.95112 34.344 8.95112C31.9005 8.95112 29.9174 6.94726 29.9174 4.47543C29.9174 2.00386 31.9008 0 34.3442 0ZM14.593 7.51631C17.0389 7.51631 19.0214 9.52071 19.0214 11.9934C19.0214 14.4644 17.0389 16.4685 14.593 16.4685C12.1475 16.4685 10.1646 14.4644 10.1646 11.9934C10.1646 9.52071 12.1475 7.51631 14.593 7.51631ZM24.0105 28.441C24.3038 28.4269 27.2563 28.3107 29.0713 29.2255C29.7359 29.5601 29.8043 29.9915 29.8032 30.4481C29.8021 32.5712 24.0673 35.6026 23.5035 35.8901C16.2413 39.5957 6 40.2257 6 40.2257L6.09625 48C10.478 47.3927 18.3834 46.4991 27.9233 41.3305C32.6418 38.7738 37.7485 34.5653 36.796 28.5415C35.8756 22.7302 29.7893 21.0927 24.0576 21.3436L23.9901 28.4158C23.6997 28.4302 20.7453 28.5467 18.93 27.6322C18.2651 27.2975 18.1981 26.8664 18.1981 26.4092C18.1987 24.2859 23.933 21.2545 24.4973 20.9678C31.7603 17.2614 42 16.6314 42 16.6314L41.904 8.85682C37.5209 9.46543 29.6166 10.3583 20.0775 15.5266C15.3582 18.083 10.2531 22.2918 11.2064 28.3156C12.1265 34.1282 18.2129 35.7644 23.9429 35.5129L24.0105 28.441Z" fill="#D8262C"/>
</svg>
