<?xml version="1.0" encoding="utf-8"?>
<!-- Generator: Adobe Illustrator 24.3.0, SVG Export Plug-In . SVG Version: 6.00 Build 0)  -->
<svg version="1.0" id="Layer_1" xmlns="http://www.w3.org/2000/svg" xmlns:xlink="http://www.w3.org/1999/xlink" x="0px" y="0px"
	 viewBox="0 0 1080 1080" style="enable-background:new 0 0 1080 1080;" xml:space="preserve">
<style type="text/css">
	.st0{fill:#7D99CB;}
	.st1{fill:#5F92E4;}
</style>
<g>
	<path class="st0" d="M140.8,129c0-2.7,2.9-4.2,5.2-4c92.7,0,185.4,0,278.1,0c3.7-0.2,7.3,0.4,11,0.5c168.7,0,337.4,0,506.1,0
		c-0.4,2.6-0.9,5.2-1.3,7.8c-13.3,0.6-26.6,0.1-39.8,0.2c-103.8-0.1-207.6,0.1-311.4-0.1c-1.2-0.3-2.4-0.4-3.6-0.4
		c-146.3,0-292.7,0-439,0C143.7,133.3,140.8,131.8,140.8,129 M466.8,146.7c20.3-0.8,40.7-1.2,61,0.7c7.6,0.6,15.1,2.2,22.4,4.6
		c129.8,0.2,259.7,0,389.5,0.1c0,2.5,0,5,0,7.5c-127.8,0-255.6,0-383.5,0c-7.4-0.5-14.3,2.4-21.6,2.9c-3.7,0.4-7.4,0.4-11,1
		c-3.3,0.2-6.7-0.1-10,0.4c-6.9,0.6-13.8-0.3-20.6,0.5c-3.1,0.4-6.3,0.3-9.4-0.1c-6.3-0.7-12.7,0.4-19-0.6
		c-13.2-0.5-26.6-1.3-39.5-4.5c-50.6-0.2-101.3,0-152-0.1c-2.3-0.1-4.6-0.5-7-0.5c-40.3,0-80.7,0-121,0c-2.1,0.2-4.8-1-4.6-3.5
		c-0.2-2.5,2.4-3.8,4.6-3.6c41.3,0,82.6,0,123.9,0c11,0.2,22-0.5,33,0.5c41,0,82.1,0.1,123.1-0.1c11-2.3,22.1-4,33.3-4.6
		C461.3,146.9,464.1,147.3,466.8,146.7 M401.6,173.4c17.5-1.2,35.1-2.1,52.6-1.9c17.3,0.1,34.6-0.5,51.9,0.9c2.8,0.2,5.7,0,8.5,0.2
		c4.3,0.6,8.7,0.7,13,1c2.6,0.5,5.3,0.8,8,1c5.2,0.7,10.4,2.2,15.5,3.4c129.5,0,259.1,0,388.6,0c0,2.5,0,5,0,7.5
		c-129.5,0-259.1,0-388.6,0c-11.3,1.8-22.8,2.9-34.3,3.1c-4.2,0.8-8.4,0.2-12.7,0.4c-10.3,1-20.6,0.2-30.9,0.6c-6,0.7-12,0.3-18,0.4
		c-10.6-1.2-21.2,0.2-31.8-0.9c-11.2-0.2-22.4-0.7-33.6-1.7c-6.2-0.5-12.4-1.6-18.5-2.8c-62.7-0.1-125.4,0-188.1,0
		c-3.7,0.1-7.3,0.1-11-0.4c-10.5-0.1-21.1,0-31.6-0.1c0-2.3,0-4.7,0-7c7.5-0.4,15,0.8,22.5,0.5c68.7,0,137.3,0,206,0
		c3,0.1,5.9-1.2,8.8-1.6C385.8,174.6,393.7,173.9,401.6,173.4 M137,205.9c0-5.2,5.5-8.4,10.2-8.4c13.6,0,27.3,0,40.9,0
		c5.6-0.1,11.1,0.4,16.6,0.9c4.3,0.2,8.5,0.9,12.8,1.3c2,0.4,4,0.7,6,1c8.4,2.3,17.1,0.8,25.6,1.9c26.3,0,52.7,0,79,0
		c5.5-0.2,11,1.2,16.5,0.3c13.2-3.1,26.9-3.7,40.4-4.5c4.2-0.6,8.5,0.3,12.7-0.6c7.5,0.1,14.9-0.8,22.4-0.6
		c21.8,0.1,43.6-0.3,65.4,0.6c3.5,0.8,7,0.2,10.6,0.4c10.7,0.8,21.4,1.2,32,3.2c2.3,0.4,4.6,1.3,7,1.3c134.9,0,269.7,0,404.5,0
		c0,2.7,0,5.3,0,8c-132.2,0-264.3,0-396.5,0c-4.5,0.1-9.2-0.6-13.5,0.9c-5,1.1-10.1,1.4-15.1,2c-7.8,0.6-15.6,1.2-23.4,1.2
		c-5.5,0.9-11.1-0.2-16.6,0.8c-22.6,0.2-45.2,0.2-67.8,0c-13.3-0.9-26.7-0.9-40-2c-3.3-0.5-6.7-0.6-10-1c-4.5-0.6-9-1.9-13.5-2.4
		c-37.1,0-74.2,0-111.3,0c-4.8,0.7-9.6,1.7-14.4,2.3c-2.7,0.2-5.3,0.5-8,1c-5.4,0.3-10.9,0.8-16.3,1.1c-15.6,0-31.3,0-46.9,0
		C141.8,214.5,136.5,210.9,137,205.9 M412.2,223c6-0.8,12-0.4,18-0.5c4.9,0.1,9.9-0.3,14.8,0.4c9,0.5,18.1-0.4,27.1,0.6
		c7.6,0,15.2,0.3,22.7,0.9c5.6,0,11.2,0.9,16.8,1.2c4.5,0.5,9,1.6,13.4,2.3c125,0.1,250.1,0,375.1,0c4.6,0,9.3-0.2,14,0.4
		c8.5,0.2,17.1,0,25.6,0.1c0,2.5,0,5,0,7.5c-137.8,0-275.7,0-413.5,0c-11,2-22.1,3.4-33.3,3.6c-3.5,0.8-7.2,0.2-10.8,0.5
		c-7,0.9-14-0.1-20.9,0.9c-21.3,0-42.6,0-64,0c-21.4-1.1-42.9-1-64.2-3.9c-3.6-0.4-7.1-1.8-10.8-1.7c-12.7,0-25.4,0-38,0
		c-7.6-0.5-15,1.9-22.6,2.9c-2.7,0.2-5.3,0.5-8,1c-5.3,0.3-10.7,0.4-16,1c-26.9,0.2-53.9,0.1-80.8,0c-2.5-0.4-5.2-0.4-7.2-2
		c-4-2.3-4.6-8.3-1.6-11.6c2.7-3.2,7.2-3.7,11.2-3.9c20.4,0,40.7-0.1,61.1,0c8.1,0.9,16.2,0.2,24.3,0.6c2.7,0.6,5.5,0.2,8.2,0.7
		c8.5,0.8,16.8,2.5,25.2,4c13.1,0.3,26.1,0,39.2,0.1c8.7,0.6,17-2.5,25.6-2.9C365.9,223.8,389,223,412.2,223 M156.3,250.2
		c2.7-1.6,5.9-1.1,8.9-1.1c33.7,0,67.3,0,101,0c6.8,0.5,13.6,0.6,20.4,1.6c5.5,1.1,11,2.3,16.6,1.9c9.9-0.4,19.9,0.9,29.6-0.9
		c8.1-0.8,16.3-1.1,24.5-1.6c4.6,0,9.3,0.2,13.9-0.4c24-0.1,48,0,72.1-0.1c16.1,0.8,32.3,0.9,48.4,2.1c4.8,0.5,9.7,1.1,14.5,1.8
		c43.1,0.1,86.1,0,129.2,0c2.3,0,4.6,0.5,6.9,0.5c99.2,0,198.4,0,297.6,0c0,2.5,0,5,0,7.5c-143.5,0-287,0-430.5,0
		c-5.2,0.3-10.2,2-15.4,2.2c-2.4,0.4-4.8,0.3-7.2,0.7c-5.3,0.4-10.7,0.4-16,1c-4.2,0.3-8.3-0.1-12.5,0.2c-9.3,1.1-18.6-0.2-27.9,0.9
		c-13.5,0-27,0.1-40.4-0.1c-7.4-1.1-15.1,0.2-22.5-0.8c-9.2,0.1-18.3-0.8-27.5-1.2c-4.6-0.6-9.1-1.1-13.7-1.8
		c-9.6-0.1-19.2-0.1-28.9,0c-5.6,0.8-11,2.3-16.7,2.9c-4.1,0-8.3,0.1-12.4,0.6c-35.3,0.1-70.7,0-106,0c-4.5,0.2-10-2.1-10.9-7
		C150.5,255.3,153.2,251.9,156.3,250.2 M165,281.1c1.3-5.2,7.3-7.2,12.1-7c7.7,0.2,15.4-0.4,23,0.4c17.3,0.5,34.7-0.5,52.1,0.6
		c13.5-0.2,27.1,0.3,40.6,1.3c4.9,0.2,9.9,0.7,14.8,1.3c7.1,0.8,14.3,0.4,21.4-0.8c26-2.7,52.1-1.6,78.2-1.8
		c7.5,0.2,15.1-0.5,22.6,0.4c5.7,0.3,11.5-0.3,17.2,0.5c3.9,0.4,7.9-0.3,11.8,0.5c7.3,0,14.5,0.8,21.8,1.2c4.3,0.5,8.5,1.1,12.7,1.8
		c105.7,0.2,211.5-0.1,317.2,0.2c1.2,0.3,2.3,0.4,3.6,0.4c41.9,0,83.7,0,125.6,0c0,2.5,0,5,0,7.5c-148.2,0-296.4,0-444.6,0
		c-12.4,2.5-25,3-37.5,3.9c-3.8,0.2-7.6-0.1-11.4,0.2c-8.6,1-17.4-0.3-26,0.8c-13,0.1-26.1,0.1-39.1,0c-7.3-1-14.6,0.1-21.9-0.9
		c-11.2-0.1-22.4-0.8-33.5-2.2c-9.3-2.2-18.9-0.3-28.2,1c-3.7,0.5-7.4,0.4-11,1c-10.1-0.1-20.2,1.4-30.3,0.1
		c-18.7-0.1-37.4,0-56.1-0.1c-9-1-18.1-0.2-27.2-0.5c-1.5-0.2-2.9-0.7-4.4-1.2C166.2,287.6,163.6,284.5,165,281.1 M192.6,299.2
		c6.9-0.3,13.8-0.3,20.6,0.3c25.7,0,51.3,0,76.9,0c6.4-0.2,12.6,0.8,19,0.5c15.7,1.7,31.3-1,47-0.5c12.4,0.4,24.8-1,37.2-0.4
		c6.6,0.8,13.2,0.2,19.8,0.4c7.1,0.5,14.3,0.8,21.4,1.1c10.9,1,21.8,2.5,32.6,3.9c157.5,0,315,0,472.5,0c0,2.5,0,5,0,7.5
		c-152.5,0-305,0-457.5,0c-6.8,0.2-13.6-0.5-20.4,0.6c-7.7,1.2-15.5,1.8-23.2,2.7c-6.6,0.5-13.2,1.2-19.8,1.2
		c-3.7,0.9-7.5-0.1-11.2,0.8c-6.5,0.2-13-0.2-19.4,0.6c-18.1-0.2-36.3,0.5-54.3-0.6c-4.5-0.8-9.1-0.2-13.6-0.4
		c-7.2,0.2-14.4-0.5-21.6,0.4c-7.8,0.1-15.6,0.4-23.3-0.4c-23.7,0-47.4,0-71.1,0c-3.4,0-6.7-0.2-10,0.5c-4.8-0.1-10.7-2.4-11.2-7.9
		C182.1,304,187.4,299.5,192.6,299.2 M211.5,330.2c1.8-4.6,7.1-6.1,11.6-5.7c11.4,0.4,22.7-0.7,34-0.5c19.4,0,38.7,0,58,0
		c4.9,0.1,9.9-0.3,14.8,0.3c5.9,0.4,11.7-0.1,17.6,0.3c9.6,0.7,19.4,1.1,29,2c3.3,0.5,6.7,0.7,10,1c2.6,0.5,5.3,0.7,8,1
		c2.6,0.4,5.3,0.7,8,1c5.5,0.8,11.1,0.2,16.6-0.2c112.3,0,224.7,0,337,0c12-0.2,24,0.5,36-0.5c49.2,0,98.4,0,147.5,0
		c0,2.5,0,5,0,7.5c-3.6,0-7.3-0.1-10.9,0.1c-2.8,0.6-5.7,0.4-8.6,0.4c-83.4,0-166.7,0-250.1,0c-10,0.2-20-0.4-30,0.5
		c-76,0-152,0-228,0c-3.6,0-7.3-0.2-10.9,0.4c-15,2.1-30,3.3-45.1,4.1c-5.3-0.1-10.7-0.2-16,0.5c-9.3-0.1-18.7,0.4-28-0.5
		c-16.3,0-32.7,0-49,0c-1.5,0-3.1,0.1-4.5,0.4c-13.1,0.2-26.1,0.1-39.2,0.1C213.5,342.5,208.3,335.7,211.5,330.2 M257.2,359
		c0.4-5.4,5.9-9,10.9-8.9c43-0.1,86,0,129,0c8.8,0.9,17.6,0.2,26.4,0.6c3.5,0.8,7.1,0.2,10.6,0.4c8.5,0.7,17,0.9,25.4,1.6
		c8.9,0.8,17.8,1.7,26.6,2.8c88,0.1,176,0,264,0c8.3-0.1,16.7,0.3,25-0.5c55,0,110.1,0,165.1,0c-0.5,2.5-0.7,5-0.6,7.5
		c-15.2,0.2-30.4-0.5-45.5,0.5c-72.7,0-145.3,0-218,0c-5.9,0.2-11.8-0.5-17.6,0.4c-55.1,0.2-110.3,0.1-165.4,0.1
		c-4.9-0.3-9.6,0.8-14.4,1.2c-1.7,0.3-3.5,0.5-5.2,0.7c-12.2,0.9-24.5,2.2-36.8,2.2c-9.2,1.1-18.6-0.3-27.8,0.8
		c-6.1,0.2-12.2,0.1-18.2,0c-1.5-0.4-3.1-0.4-4.6-0.4c-40,0.1-79.9-0.1-119.9,0.1C261.4,368.1,257,363.9,257.2,359 M293.8,379.7
		c2.4-3.2,6.5-4.3,10.4-4.2c12,0.1,24-0.1,36,0.1c9.6,1.2,19.4-0.2,29,0.9c3.3,0.3,6.7,0.1,10-0.3c5.2-0.5,10.5,0.4,15.7-0.5
		c3.4-0.1,6.8-0.1,10.2-0.5c8.7-0.4,17.5,0.4,26.2-0.5c7-0.4,14,0.8,20.9,0.5c7.2-0.3,14.3,0.5,21.4,0.6c2.7,0.6,5.5,0.2,8.2,0.7
		c4.6,0.3,9.2,0.8,13.8,1.3c2.6,0.4,5.3,0.7,8,1c5,0.8,9.9,1.7,15,2c3.2,0.6,6.4,0.3,9.6,0.3c137.2,0,274.3,0,411.5,0
		c0,2.5,0,5,0,7.5c-137.8,0-275.7,0-413.5,0c-10-0.5-19.7,2-29.6,2.9c-8.6,1-17.4,1.3-26,2c-7.5-0.1-14.9,0.8-22.4,0.6
		c-13.7,0-27.3,0-41,0c-5.1-0.7-10.3-0.4-15.4-0.6c-2.5-0.6-5.1-0.4-7.6-0.4c-13.7,0-27.3,0-41,0c-11,1-22,0.3-33,0.5
		c-5.4-0.3-11.5,1.3-15.9-2.6c-0.6-1-1.3-2.1-2-3.1C291.8,385.1,291.7,381.9,293.8,379.7 M286.7,408.7c1.4-4.8,6.7-7.3,11.5-7.2
		c15.5,0.1,31-0.1,46.4,0.1c8.6,0.7,17.4,1,26,2c4.7,0.7,9.4,1.2,14,2.1c8.5,1.4,16.7-1.8,25.2-2.1c5.6-0.6,11.4-0.4,17-1
		c18.8-0.3,37.6-1.3,56.4-0.1c4.1,0,8.3-0.1,12.4,0.1c6.3,0.6,12.7,0.5,19,1c3.3,0.5,6.7,0.7,10,1c6.5,1.3,13,1.5,19.6,1.9
		c106.7,0,213.4,0,320.1,0c2.4,0,4.9,0,7.4,0.1c6.8,0.9,13.7,0.2,20.6,0.4c15.8,0,31.7,0,47.5,0c0,2.5,0,5,0,7.5
		c-96.8,0-193.7,0-290.5,0c-4.4,0.3-8.7-0.7-13-0.5c-30.3,0.1-60.6,0-90.9,0c-4.3,0.2-8.7-0.5-13,0.6c-4.4,1.1-8.9,1.7-13.4,2.1
		c-4,0.5-8,0.8-12,1c-8.6,0.6-17.3,0.9-26,1c-1.5,0.3-3.1,0.4-4.6,0.4c-11.3-0.1-22.7,0-34,0c-1.2,0-2.5-0.2-3.6-0.4
		c-9.6,0-19.2-0.6-28.8-1.2c-3-0.5-6-0.7-9-1c-7.9-2.2-16.2-1.7-24.2,0c-2.7,0.2-5.3,0.5-8,1c-5.3,0.6-10.7,0.3-16,1
		c-19.1,0.2-38.2,0.1-57.3,0.1C290.2,418.7,285.6,413.9,286.7,408.7 M301.7,427.6c7.1-0.4,14.3,0.4,21.4-0.5
		c6.4-0.3,12.7-0.2,19.1,0.4c10.2-0.3,20.3,1.2,30.4,2.1c10.2,1,20.3,3.2,30.6,2.9c4.9-0.1,9.9,0.2,14.9-0.2
		c9.1-1.7,18.3-2.6,27.6-2.9c4.8-0.9,9.8,0,14.7-0.8c24.1-0.3,48.3-0.5,72.4,2c3.9,0.5,7.7,1.5,11.5,1.9c118,0,236.1,0,354.1,0
		c13.8,1,27.6,0.3,41.5,0.5c0,2.5,0,5,0,7.5c-132.2,0-264.3,0-396.5,0c-8.4,1.5-16.8,2.9-25.4,3.1c-19.3,1.4-38.7,0.8-58,0.8
		c-3.7-0.9-7.5,0.1-11.2-0.8c-10.2-0.3-20.5-1.1-30.5-3.4c-5.6-0.5-11.2-0.1-16.9-0.2c-6.5-0.3-13,1.2-19.4,1.7
		c-10.5,1.3-21,2.1-31.5,2.8c-16.4,0-32.7,0-49.1,0c-4.5,0-9.3-3.7-9-8.5C292.7,431.3,297.1,428,301.7,427.6 M315.8,453.8
		c5.1-2.5,11-1.5,16.5-1.7c4.2,0.2,8.4-0.4,12.6,0.4c5.3,0.1,10.7,0.2,16,1c10.8,0.7,21.5,2.5,32.3,3.6c29,0.1,58,0,87.1,0
		c2.5,0,5,0.1,7.5-0.6c18.5-4.7,38.1-3.4,56.5,1.1c131.9,0.1,263.8,0,395.6,0c0,2.7,0,5.3,0,8c-94.5,0-189,0-283.5,0
		c-4.7,0.3-9.3-0.7-14-0.5c-30.3,0-60.7,0-91,0c-3.6,0.1-7.3-0.4-10.8,0.8c-5.5,1.8-11.1,2.8-16.8,3.5c-5.7,0.4-11.4,1.2-17,0.3
		c-7.2-0.3-14.4-1.7-21.2-4c-2-0.8-4.1-0.6-6.2-0.6c-28.4,0.1-56.8-0.1-85.2,0.1c-12.8,1.8-25.5,3.3-38.4,4.3
		c-10.8,0.2-21.6,0-32.4,0.1c-4,0.1-8.8-0.7-11-4.5C309.6,461.2,311.8,455.8,315.8,453.8 M343.7,487.8c-0.8-5.7,5.1-10.1,10.4-9.8
		c5.4-0.5,9.8,3.3,15,4.2c3.6,1,7.3,0.8,11,0.8c141.3,0,282.6,0,424,0c15,1,30,0.3,45,0.5c30.2,0,60.3,0,90.5,0c0,2.5,0,5,0,7.5
		c-188.8,0-377.7,0-566.5,0c-6.1-0.1-11.4,3.7-17.5,3.9C350.6,496.1,344.5,493.3,343.7,487.8L343.7,487.8z"/>
	<path class="st1" d="M824.8,520.8c6.2-5.6,12.4-11.3,18.5-17c-1.3,7.8-7,13.8-12.3,19.2c-15,15.7-33.3,27.6-50.5,40.7
		c-4.1,2.7-7.6,6.4-12.2,8.1c2.5-8.2,9.6-13.5,16-18.6C797.9,542.4,812.2,532.7,824.8,520.8 M680,536.6c7.9-7,15.7-14,23.4-21.3
		c-2.2,8.8-8.8,15.6-14.8,22.1c-8.3,8.1-17.7,14.9-26.6,22.2c3,1.5,5.4,4,7.1,6.8c-0.9,4.2-2.9,8.6-6.4,11.3c-2.5-2-5.7-3.1-7.6-5.6
		c0.2-4.1,2.9-7.5,4.7-11c-8.3,6.3-17,12-25.3,18.3c-3.1,1.9-5.6,5-9.2,5.9c2-4.6,4.3-9.2,8.4-12.3
		C648.7,560.2,665.3,549.7,680,536.6 M932.1,535.3c-3.8,10.7-12.2,18.9-20.5,26.3c-17,14.9-36,27.4-54.3,40.6
		c1-5.4,4.8-9.8,8.9-13.2c11.6-9.8,24.5-18,36.2-27.8C912.7,553,922.1,543.8,932.1,535.3 M226,557.7c1.7-2.7,3.3-5.4,5.2-8
		c3.2,1,5.6,3.7,6.9,6.6c0.5,4.6-2.8,9-6.7,11.2c-2-1.7-4-3.4-5.9-5.3c-1.3,3-3.3,5.5-5.4,7.9c-2.9-1.5-5.3-3.7-7.6-5.8
		c1.4-4.1,3.9-7.7,5.7-11.6c1.9-0.6,3.4,0.4,4.8,1.6C224,555.5,225,556.6,226,557.7 M443.3,574.9c2.2-4.2,4-8.7,6.8-12.6
		c2.9,2.4,7,4.8,7,9.1c-0.7,4-2.5,8.1-6.2,10.2C448.2,579.5,445.4,577.5,443.3,574.9 M731.5,573.2c1.6-2.9,3.3-5.7,5.4-8.2
		c3.2,1.8,5.9,4.4,7,7.9c-1,4-3.4,7.5-6.5,10.2c-2.1-1.7-4.3-3.5-6.3-5.3c-1.5,3-3.3,6-6.2,7.8c-2.3-1.9-4.6-3.8-6.9-5.8
		c1.7-4.2,3.8-8.3,6.4-12.1c0.6,0.2,1.7,0.4,2.3,0.6C728.5,569.8,730,571.5,731.5,573.2 M777.4,573.5c0.9-1.8,1.5-3.7,3.2-4.9
		c0,0.7,0,2.1,0.1,2.8c-1.3,5.2-1.9,10.6-2.1,16c-0.4,2.4-0.3,4.8-0.7,7.2c-0.4,9.3-2.6,18.6-6.9,27c-2.2,4.7-5.9,9.8-11.6,9.6
		c-1-0.9-1.9-1.8-2.9-2.7c-2.8,4.3-6.2,8.3-10.3,11.5c-2.8,2-6.5,0.6-9.7,1.2c-9.2,1.6-17.8,6.6-23.7,13.8
		c-5,6.5-8.9,14.1-15.4,19.3c-5.2,4.9-11.1,8.9-17.3,12.4c-2.8,1.3-5.5,3.4-8.8,2.8c4.6-5.7,11.6-8.6,16.8-13.6
		c15.4-12.2,21.5-33,38.6-43.4c7.3-3.6,15.4-5.8,23.6-5.5c2,0.1,3.5-2,3.8-3.8c0.6-8.4,0.8-16.8,1.6-25.2c0.4-7.9,4.5-14.9,8-21.8
		c0.3,0.3,0.8,1,1.1,1.4c-2.3,11.3-5.3,22.8-3.7,34.5c0.4,1.8,1.7,3.1,3,4.2c1.9-0.3,4.2,0.1,5.5-1.7c2-2.4,1.6-5.8,2-8.7
		c0.2-6.8,0.7-13.5,1.3-20.2C772.9,581.2,775.6,577.5,777.4,573.5 M887.7,588.9c1.7-4.2,3.2-9.1,6.6-12.3c2.9,0.7,5.2,3.1,6.3,5.8
		c0.9,4.8-2.3,8.9-4.9,12.7C892.7,593.5,890.4,591,887.7,588.9 M334,583.9c2.1-2,3.8-4.6,6.2-6.3c0,7.4-5,13.5-10.2,18.3
		c-4,5.3-9.6,9.1-14.1,14c-7.8,7.8-16,15.1-24,22.6c0.9,0,2.7,0,3.6,0c3,0.7,6.4,2.3,7.3,5.6c1.7,8.7-1.5,17.4-5.6,24.9
		c-2.5,4.6-7.3,9-13,8.1c-4-0.4-6.3-4.3-7.2-7.9c-2.1-8.7,0-17.7,0.8-26.5c1.3-7.5,1.7-15.3,4.7-22.4c1.1-2.6,2-5.4,3.3-7.9
		c1.5,1.2,0.8,3.1,0.7,4.7c-0.9,7.5-1.7,15-2.8,22.5c4.6-3.6,8.3-8.3,12.9-12C308.8,608.7,322.3,597.2,334,583.9 M284.1,648.9
		c-1.8,1.6-0.7,4.2,0.5,5.8c3.3,2.9,8.8,2.4,12.3,0c1.9-1.2,1.3-3.6,1.5-5.5C294.6,645.3,287.8,644.8,284.1,648.9 M614.8,617.7
		c1.2-9.3,3.2-19.5,9.9-26.6c-0.7,7.7-2.6,15.2-3.3,22.9c0.1,4,0.9,9,5,10.9c3.2,1.1,7,1.2,10-0.5c2.7-2.2,4.7-5.2,7.9-6.9
		c2.3-1.4,5.2,0.8,7.4-1c1.9-1.9,3.2-4.4,5.7-5.6c-0.4,5.1-2.9,10-6.7,13.5c-1.9,1.9-4.7,0.8-7,1.3c-6.6,2.6-8,11.3-14.8,13.6
		c-4.5,2-9.3-0.9-12.1-4.4l1-1c-0.7-0.2-1.5-0.5-1.8,0.3c-1.7,2-2.7,4.4-3.8,6.7c3.1,2.9,7.7,4.9,8.7,9.4c0.6,5.6-1.5,10.9-3.3,16.1
		c-4.2,11.5-12.5,22.1-24.2,26.6c-7.8,2.6-17.9,2.3-23.5-4.5c-4.2-4.7-4.4-11.5-4-17.4c1.6-11.2,6.6-21.6,12.2-31.3
		c2.2-3.8,3.9-8,7.2-11c0.6,4.2-1.9,7.8-3.5,11.5c-3.2,7-6.5,14-8.8,21.3c-1.4,4.5-0.6,9.7,2.7,13.2c2.7,2.6,6.5,3.6,10.1,4
		c11.5,1.3,24.7-4.3,28.4-16c-3.1-3.7-8.3-4.8-11-8.9c0.1-2.3,0.1-4.7,1.2-6.7c3.1-6.2,6.8-12.2,9.5-18.6
		C614.8,625,614.6,621.3,614.8,617.7 M895,599.2c1.7-2.7,3.3-5.6,5.2-8.2c3.1,0.9,5.2,3.4,7.1,5.9c0.4,4.7-2.4,9.2-6,12
		c-2.6-0.7-4.1-3.6-6.5-5c-1.6,2.9-3,6-5.8,7.9c-2.6-1.9-5.1-3.8-7.4-6c1.8-4.3,3.9-8.6,6.8-12.3C891,594.7,893.5,596.6,895,599.2
		 M221.3,608.1c1.3-4.5,2.9-9,4.7-13.3c5.1,3.1,6.8,9.6,7.1,15.2c-1,10.2-6,19.4-9.6,28.9c2.6,3.3,7.7,4.7,8.1,9.5
		c1,11.7-3.7,23.1-9.4,33c-4.8,7.4-11.6,14.2-20.5,16.2c-2.6,0-5.3,0-7.9,0c-5.3-1.2-9.9-4.9-12-9.9c-4.9-9.9-2.5-21.3,0.6-31.3
		c2.7-8.8,6.6-17.2,10.7-25.5c0.6-1.5,1.8-2.7,3.3-3.5c-0.1,3.9-1.9,7.4-3.2,10.9c-3.3,8.1-7.2,16.2-8.3,24.9
		c0,4.9,0.7,10.4,4.6,13.8c4.3,3.8,10.6,4,16.1,3c9.8-1.1,19.7-8.5,21-18.7c-3.5-2.9-8.5-4.1-10.6-8.5c-0.8-5.4,2.1-10.3,4.2-15
		c2.3-5.6,5-11.1,6.2-17.1c-1-3-2.1-6.1-3.7-8.8C221.8,610.7,220.7,609.5,221.3,608.1 M472.2,625.1c-0.5-8.6,3.1-16.9,7.2-24.2
		c0.7,1.3,1,2.8,0.7,4.3c-0.5,3.4-0.4,6.9-0.5,10.3c-1,5.5,0.1,11.2-0.7,16.8c-0.8,7.7-2.4,15.8-7.7,21.8c-1.9-1.6-0.3-4-0.2-5.9
		C472.6,640.5,472.1,632.7,472.2,625.1 M855.6,604.3c1.7,1.8,0.6,4.2,0.2,6.4c-0.4,4.9-1.1,9.8-1.2,14.8c-0.8,4.9-1,10.7,2.6,14.6
		c2.5,3.6,7.7,4.6,11.6,2.7c3.5-2,5.2-6.1,8.6-8.2c1.7-1,3.8-0.2,5.6,0.1c2-1.3,3.4-3.3,4.6-5.4c3.2,2.6,4.1-1.6,5.2-3.7
		c3.6,0,4.8-3.3,5.8-6.1c0.3,0.4,1,1.2,1.3,1.5c-1,3.8-2.1,7.8-4.7,10.9c-2.9,2.6-5.6,5.8-9.6,6.6c-1.3,1.3-2.6,2.8-4,4
		c-2.1,1.7-5,0.8-7.2,2.1c-4.5,3.1-5.7,9.5-10.6,12.2c-1.2,0.8-2.7,1-4,1.5c-3.5-0.6-6.7-2.6-8.3-5.8c-3.9,6.4-7.2,14.1-14.8,16.9
		c-4.4,2.2-9.1-1-13.6,0.1c-3,0.4-5.7,1.8-8.6,2.7c0-3.6,2.8-6.2,4.9-8.7c3.7-3.6,8-7.5,13.5-7.5c2.5,0.3,4.9,1.1,7.4,1.2
		c3.5-0.4,6-3.8,6.4-7.1c1.5-9.7,0.8-19.6,2.5-29.2C850.9,615.1,853.2,609.6,855.6,604.3 M374.7,610.5c3.1,2.5,7.4,5.1,7.1,9.6
		c-0.4,3.9-2.7,7.4-5.6,9.8c-2.8-1.8-5.3-4-7.9-6C369.8,619.2,372.2,614.8,374.7,610.5 M361.1,611.3c3.3,2.6,8,5.7,7,10.6
		c-1.1,3.4-2.8,6.9-5.9,8.9c-2.7-2.1-5.6-4.1-7.8-6.7C356.6,619.8,358.4,615.3,361.1,611.3 M795.7,618.5c0.7-1.5,1.5-3.3,3.3-3.6
		c-0.9,8.4-0.6,16.8-1.3,25.2c0.3,7.1-1,14.3-3.7,20.8c-1.2,2.5-2.4,5.3-5.1,6.6c0.2-4.2,1.4-8.2,1.8-12.3c0.2-6.5-0.1-13,0.1-19.5
		C791.2,629.6,793.2,623.9,795.7,618.5 M441.7,616c3.7,0.6,7.1,2.4,10.7,3.4c2.9,0.7,5.4-1.2,7.9-2.5c-0.1,3.2-0.9,6.6-3.5,8.7
		c-8.4,6.6-15.4,14.7-23,22c-2.3,2-4.2,5.2-7.6,5.3c-3.2-0.8-6.4-2-9.6-2.9c-2.9,3.8-5.8,7.8-10,10.2c-11.4,7.1-25,9.1-38,11
		c-12.2,1.1-24.8,2.3-36.8-1.2c-4.9-1.2-8.1-6.2-7.7-11.2c0.3-5.4-1-11.2,1.8-16.2c2.1,2.6,2.1,6.3,4.4,8.8c3.3,2.9,8,3.3,12.2,4.2
		c12.5,1.6,25.2,0.4,37.6-0.9c11.4-1.8,23.2-2.9,33.5-8.6c2.1-1.1,3.8-2.8,5.5-4.5c0.1,0.8,0.3,2.5,0.4,3.4
		c12.1-1.6,20.8-10.9,28.9-19.2c-3.2-1.6-6.3-3.7-10-3.6c-2.7,0.3-4.2,2.8-5.5,4.8c-0.4,0.1-1.2,0.3-1.6,0.4
		C432.8,622.4,435.7,616.6,441.7,616 M551.5,628.5c0.6-1,2.3-4.5,3.3-1.8c-1.3,4.8-2.7,9.9-5.9,13.9c-3.1,4.2-9.7,4.1-12.2,9
		c-3.7,6.2-4.4,14.7-11.1,18.7c-4.7,2.2-10,2.9-15.1,2.8c0-1.4,0.5-2.4,1.6-3.2c5.5-4.5,12.4-7.3,17.1-12.8
		c3.7-5.9,5-13.7,10.9-18.1C543.8,634,549.5,633.3,551.5,628.5 M494,642.7c1.5-5.1,4-9.8,6.5-14.5c5.9,2.9,10.5,8.5,10.6,15.3
		c-0.4,7.4-3.3,14.6-8.3,20c-4.4,4-10,6.5-15.9,7c1.5-4,6-5.2,8.7-8.2c2.5-2.8,5.9-5,7.4-8.5C502.1,648.9,497.4,646,494,642.7
		 M683.6,630.1c4.8-1.4,8.9,3.5,8.6,8c0,7.7-2.8,15.1-6.4,21.8c-1.6,3-4,5.7-7.4,6.6c-4.6,1.3-9.1,3.8-14,3.8
		c5.9-7.7,17.9-9.8,20.6-20.2c-3.5,2.1-7.6,0.3-9.8-2.9C676.3,640.8,679.4,634.9,683.6,630.1 M254.8,658.7c6.5-7,8.2-16.9,13.3-24.7
		c2.1,2.1,0.9,5.2,0.3,7.6c-2.2,7.6-4.6,15.2-8.5,22c-2.6,4.8-8.4,6.1-13.2,7.4c-2.7,0.4-5.9,2.2-8.3,0.2
		C243,666,249.6,663.3,254.8,658.7 M627.6,685.2c1.8-2.7,3-6,5.7-8.1c2.8,1.9,6.1,4.2,6.5,7.9c-0.6,4.1-3.2,7.6-6.3,10.1
		c-2.2-1.7-4.3-3.4-6.3-5.3c-1.6,2.9-3.1,6.2-6.2,7.8c-2.3-1.9-4.7-3.8-6.9-5.8c1.7-4.1,3.6-8.2,6.3-11.7
		C623.8,679.6,625.3,683.4,627.6,685.2 M539.2,699.8c1.5-2.8,3.1-5.4,4.9-8c3.9,1.3,7.8,5.6,6.4,9.9c-1.2,2.9-2.7,5.9-5.2,7.9
		c-2.9-0.1-4.3-3.5-6.4-5.1c-1.2,2.8-2.7,5.6-5,7.6c-3.3-0.3-5.2-3.7-7.7-5.6c2.1-4.2,3.4-9.1,6.9-12.5
		C535.4,695.7,537.6,697.5,539.2,699.8 M850.7,709.2c0.3-4.9,3.4-9.3,6.3-13.1c2.7,1.8,5.7,3.9,7.1,7c0.5,4.6-2.8,8.6-5.8,11.7
		C855.8,712.9,852.7,711.6,850.7,709.2 M538.1,709.8c1.7-2.1,4,0.8,5.1,2.1c3.8,4.7-0.6,10.5-3.7,14.3c-2.4-2.1-4.6-4.4-7-6.5
		C534.1,716.3,535.8,712.9,538.1,709.8 M583.8,751.7c2.5-2.4,4.2-5.7,7.4-7.3c-1.8,8.5-7.5,15.3-13,21.8
		c-18.3,17.9-39.1,33-59.2,48.7c-1.9,1.5-3.8,2.9-5.8,4.2c0.7-4.8,3.5-8.9,6.7-12.5c8.9-8.8,19.2-16,28.7-24.1
		C560.8,772.8,572.8,762.8,583.8,751.7 M578.1,788.2c3.9,1.2,6.5,4.7,7.6,8.5c-1.2,4.4-2.8,9.1-6.3,12.2c-2.8-2.2-5.4-4.5-8.1-6.8
		C573.1,797.3,575,792.4,578.1,788.2 M584.9,804.6c3.7,1.3,7.4,4.2,7.6,8.5c-0.4,4.1-2.8,7.8-5.7,10.5c-1.1,1.2-2.6,0-3.5-0.8
		c-1.5-1.4-2.9-2.9-4.4-4.4c-1.2,3.2-3.3,6-5.4,8.6c-3.5-0.9-5.8-4-8.7-6.1c1.7-4.5,3.7-9.2,6.8-12.9c0.4-0.2,1.2-0.5,1.6-0.7
		c2.3,1.9,4.8,3.8,6.4,6.4C580.8,810.4,582.9,807.5,584.9,804.6 M502.7,843.1c-0.6-9.2,4.9-17.3,8.7-25.2c0.9,1.5,0.9,3.2,0.5,4.9
		c-2.2,13.4,0,27.1-2.6,40.4c-1.6,10.2-4.4,20.3-10.5,28.8c-6.1,9.9-17.4,16.2-29,16.4c-5.4,0-11.6,0-15.9-3.9
		c-3.3-3.2-2.9-8.1-2.6-12.3c0.7-5.2,1.3-10.4,3.3-15.3c3.3,1.5,0.5,5.8,2.4,8.2c0.9,2.5,3.3,3.9,5.8,4.6c8.7,2.2,18.1,2,26.4-1.6
		c6-2.4,11.1-7.6,12.2-14C503.4,863.8,502.5,853.4,502.7,843.1 M559.6,847.6c2.1-4.9,2.9-10.6,6.5-14.7c0.2,3.5-0.3,7-0.6,10.5
		c-0.4,2.6-0.8,5.3-1,8c-0.4,2.6-0.8,5.3-1,8c-0.7,8.9-3.2,18.1-0.7,26.9c1.7,5.5,8.5,6,13.2,4.8c3.1-2,5.6-4.8,8.8-6.5
		c0.8,0.2,2.5,0.5,3.3,0.6c3.1-1.1,2.8-5.1,5.1-7c1.6-0.1,3.3,0.7,4.8,0.1c1.4-2.3,2.2-5,3.4-7.5c1.8,2.5,0.7,5.8-0.1,8.6
		c-1.6,4.3-4.5,8.3-8.9,9.9c-1.4,1.7-2.7,3.5-4.5,4.8c-2.2,0.8-4.7-0.5-6.8,0.8c-4.8,3.4-6.9,9.9-12.9,11.7
		c-4.8,1.8-10.5-1.3-11.9-6.2c-3.2-9.2-1.2-19.1-0.5-28.6C556.9,863.6,557.9,855.6,559.6,847.6 M642.1,840.9c-0.5-1-2-3.2,0.1-3.6
		c16,10,25,31.2,18.5,49.3c-2.8,9.7-9.6,17.7-17.7,23.6c-0.5,0-1.6,0-2.1,0c2-5.2,5.4-9.8,7.5-15c4.9-10.4,6.5-22.5,3.2-33.5
		C649.5,854.2,646.1,847.3,642.1,840.9 M400.7,880.1c-1.3-16,7.4-31.6,20.7-40.3c1.6,1.9-0.3,3.7-1.1,5.5
		c-5.6,9.5-10.2,20.1-10.3,31.3c0.3,11.7,5,22.9,11.1,32.8c0.8,1.2,1.2,2.6,1.4,4c-1.9-0.2-3.5-1.4-4.9-2.6
		C408.1,903.4,401.9,892,400.7,880.1 M548.7,863.7c2.8-2.1,3.4-6.1,6.5-8c0.4,3.8-1.2,7.4-2.6,11c-1.3,2.9-2.5,5.9-4.8,8.1
		c-3.9,2.9-9.2,3.9-12.3,7.8c-4.2,6.8-5.7,15.4-12.3,20.5c-5.7,2.8-12.4,4.3-18.7,3.1c1.7-3.1,5.1-4.6,7.8-6.6
		c5.8-4.1,12.7-7.4,16.2-13.8c3-4.6,4-10.3,8-14.2C539.9,867.8,544.7,866.3,548.7,863.7 M481.5,860.4c1.3-1.8,3.7-1.9,5.6-2.6
		c0.5,1,1,2.2,1.4,3.3c-2.1,0.7-4.5,1-6.2,2.5c0.4,1,1.2,2.9,1.5,3.8c-0.9,3.2-3.8,4.7-6.8,5.4c-1.4-0.6-5.1-2.5-2.7-4.1
		c2-0.2,4.1-0.4,6.2-0.7C481,865.5,479.2,862.4,481.5,860.4 M545.7,916.9c4.4,1.3,8.5,5.8,7.4,10.7c-1.1,3.6-3.3,7-6.2,9.4
		c-3.2-0.1-4.8-4.1-7.2-5.8c-1.6,3-2.8,6.3-5.5,8.5c-3.7-0.1-6.3-3.9-8.9-6.2c2.3-4.8,4.1-10,7.6-14c2.9,1.6,5.5,3.9,7.3,6.8
		C541.7,923,543.5,919.8,545.7,916.9 M539.7,936c2.9,1.2,4.9,3.7,6.6,6.3c0.5,5.3-2.6,9.9-6,13.6c-2.4-2.5-5.2-4.6-7.6-7.1
		C534,944.1,537,940,539.7,936L539.7,936z"/>
</g>
</svg>
