<?xml version="1.0" encoding="utf-8"?>
<!-- Generator: Adobe Illustrator 24.3.0, SVG Export Plug-In . SVG Version: 6.00 Build 0)  -->
<svg version="1.0" id="Layer_1" xmlns="http://www.w3.org/2000/svg" xmlns:xlink="http://www.w3.org/1999/xlink" x="0px" y="0px"
	 viewBox="0 0 1080 1080" style="enable-background:new 0 0 1080 1080;" xml:space="preserve">
<style type="text/css">
	.st0{fill:#3497FD;}
</style>
<g>
	<path class="st0" d="M230.1,239.6c3.5,0,6.9-0.6,10.4-0.6c197.3,0,394.6,0,592,0c3.5,0.1,7.1-0.3,10.6,0.4
		c17.9,0.3,35.2,8.7,47.3,21.8c12.3,13.1,19.3,30.9,19.2,48.8c0,10.7,0,21.3,0,32c-118.7,0-237.3,0-356,0
		c-6.4-0.7-12.9-0.3-19.4-0.6c-4.5-0.9-9.2,0-13.7-0.6c-3.7-0.5-7.5-0.2-11.3-0.4c-15-1-30-1.7-45-3.1c-17-1.2-33.5-5.6-50.4-7.9
		c-19.1-3.1-38.5-2.8-57.6-0.8c-8.8,1.1-18.3,2.6-25,9c-3.2,2.7-4.2,7.6-2.5,11.4c3.3,5.3,9.4,8.1,15.3,9.5c3.9,1.2,8.1,0.1,12.1,1
		c5.4,0.3,10.8-0.2,16.1,0.5c18.3,0.6,36.7-0.3,54.8-3.3c0.9-0.1,1.8-0.1,2.8-0.2c6.1-1,12.1-1.9,18.2-2.8c23.6-3.1,47.4-3.7,71.1-5
		c9.8-0.1,19.6-0.6,29.4-1.1c120.3,0,240.7,0,361,0c0,10,0,20,0,30c-126.8,0-253.6,0.1-380.4-0.1c-1.7-0.3-3.5-0.5-5.2-0.8
		c-4-0.3-7.9-0.8-11.8-1.3c-24.6-3.1-49.2-7.2-74-8c-7.8-1.1-15.8,0.3-23.6-0.8c-32.3-0.1-64.6,0-96.9,0c-9,1-18-0.1-27,1
		c-9.6,0.1-20.2-0.6-28.5,5.2c-4.6,2.8-8.1,8.7-5.9,14.1c2.3,5.5,8.2,7.9,13.5,9.4c10.7,2.7,21.8,1.7,32.7,1.9
		c12.3,1,24.7,0.3,37.1,0.5c13.7,0.2,27.4-0.5,41,0.5c22.2-0.1,44.5,0.5,66.6-1.4c4.3-0.2,8.7-0.5,13-1c9.7-0.8,19.3-1.9,29-3
		c2.7-0.3,5.3-0.6,8-1c5.7-0.6,11.3-1.3,17-2c0.9-0.1,1.8-0.2,2.7-0.3c14.8-2.5,29.8-0.5,44.6-1.9c62,0,124,0,186,0
		c2.7,0,5.3-0.5,8-0.5c51.3,0,102.7,0,154,0c0,9.8,0,19.7,0,29.5c-107,0-214,0-321,0c-5.9,0.2-11.8-0.2-17.6-0.8
		c-17.9-1.2-35.8-3.1-53.8-4.3c-14.6-1.3-29.3-2.3-44-3c-23.2-1.5-46.4-2.1-69.6-1.9c-14-1-28-0.3-42-0.5c-23.3,0-46.7,0-70,0
		c-1.6,0-3.1,0.1-4.7,0.4c-6.1,0.3-12.3,0-18.5,0.2c-9.8,1.2-20.1-0.8-29.4,3c-5.8,2.1-11.3,6.9-11.5,13.5c0.5,3.4,2.5,6.6,5.5,8.3
		c6.8,4.2,15,5.2,22.9,5.2c9.1,0.9,18.4,0.2,27.6,0.4c16.6,1,33.3,0.3,50,0.5c16,0,32,0,48,0c17.3,1.4,34.7-0.2,52-0.5
		c38.2-1.9,76.4-4.6,114.5-7.4c12.8-0.8,25.6-1.5,38.4-2.1c56,0,112,0,168,0c7-0.1,14,0.3,21-0.5c44.7-0.1,89.3,0,134,0
		c0,9.5,0,19,0,28.5c-105.7,0-211.3,0-317,0c-8.9,0.3-17.6-1.6-26.4-2.2c-3-0.4-6-0.7-9-1c-3-0.4-6-0.7-9-1c-3-0.4-6-0.7-9-1
		c-6.6-0.8-13.3-1.5-20-2c-16.6-1.6-33.3-2.6-50-2.9c-6.4-1-12.9,0.2-19.4-0.7c-10.4-0.6-20.9,0.4-31.3-0.7c-42.6,0-85.3,0-127.9,0
		c-1.2,0-2.4,0.2-3.6,0.4c-10.1,0.4-20.3-0.4-30.4,0.6c-7-0.4-14,0.6-20.9,0.5c-6.9,0.4-14.1,2.3-18.9,7.6
		c-3.6,3.4-4.5,9.7-1.2,13.5c4.7,5.5,12.3,7.1,19.1,7.9c7,1,14,0,21,0.9c11.3,0.4,22.6-0.5,33.9,0.6c12,0.1,24,0,36,0
		c6.6,0.7,13.3,0.4,20,0.5c12.7,0,25.4,0,38,0c14,1,28,0.4,42.1,0.5c7.5-1,15,0,22.5-0.8c30.7-1,61.4-3,92-5.5
		c9.6-0.6,19.2-1.6,28.8-2.3c2.4-0.3,4.8-0.3,7.2-0.7c14.8-1.8,29.6-1,44.4-1.2c48.3,0,96.7,0,145,0c16.3-1,32.7-0.3,49-0.5
		c31.7,0,63.3,0,95,0c0,9,0,18,0,27c-100.7,0-201.3,0-302,0c-5.5,0.2-10.9-1.2-16.4-1.7c-2.7-0.4-5.3-0.7-8-1c-6-0.9-12-1.3-18-2
		c-3.3-0.5-6.7-0.8-10-1c-11.9-1.2-23.9-2-35.8-2.5c-5.6-0.8-11.2,0.1-16.8-0.7c-6.6-0.5-13.2,0.3-19.8-0.6
		c-14.7-0.4-29.5,0.5-44.2-0.6c-54,0-108,0-162,0c-3.2,0-6.4-0.3-9.6,0.4c-7.8,0.4-15.6-0.3-23.4,0.6c-9.3,0-19.3-0.5-27.5,4.6
		c-4.5,2.4-7.8,7.5-7,12.7c0.7,4.4,4.8,7,8.4,8.8c6.7,2.9,14.2,3.4,21.4,3.5c9.4,1.1,19-0.3,28.5,0.8c9.1,0.2,18.1,0,27.2,0.1
		c15.3,1.3,30.7-0.3,45.9,1c18,0.2,36.1-0.5,54.1,0.5c18-0.1,36.1,0.1,54.1-0.1c6.9-1,13.9,0,20.8-0.7c28.3-0.9,56.5-2.2,84.7-4.6
		c5.6-0.1,11.2-0.9,16.8-1.3c3.6-0.5,7.3-0.7,11-1c3-0.4,6-0.7,9-1c5.5-0.6,11-1.5,16.5-1.8c54.7,0,109.4,0,164.1,0
		c9.6-0.9,19.3-0.3,29-0.5c36.4,0,72.7,0,109.1,0c0,9.5,0,19,0,28.5c-106.3,0-212.7,0-319,0c-2.9,0-5.7-0.5-8.6-0.9
		c-4.3-0.4-8.6-0.9-12.8-1.3c-3-0.4-6-0.7-9-1c-3-0.4-6-0.7-9-1c-6.3-0.8-12.7-1.4-19-2c-3.6-0.5-7.3-0.8-11-1c-9.3-1-18.7-1.6-28-2
		c-7.6-0.6-15.3-0.9-23-1c-6.4-1-13,0.2-19.4-0.7c-8.5-0.5-17.1,0.1-25.6-0.3c-2.5-0.5-5.1-0.4-7.6-0.4c-43,0.1-86.1-0.1-129.1,0.1
		c-10.2,1.2-20.5-0.2-30.8,0.9c-4.9,0.4-9.9-0.4-14.8,0.5c-7.4-0.1-15.3,0.1-21.8,4.1c-3.9,2.5-8.1,6.4-7.6,11.5
		c-0.3,3.4,2.1,6.2,4.7,8.2c5.4,3.9,12.2,5.1,18.8,5.5c6.4,0.8,13-0.2,19.4,0.8c9.1,0.2,18.1,0,27.2,0.1c13.6,1,27.3,0.3,41,0.5
		c23.6,1.4,47.4-0.3,71,1c9.7-0.1,19.4,0.1,29.1-0.1c7.8-1,15.7,0.1,23.5-0.8c27-0.9,54-2.5,81-4.5c8.7-0.6,17.3-1.2,26-2
		c4-0.3,8-0.5,12-1c8.5-0.6,16.9-1.5,25.3-2.1c55.7,0,111.4,0,167.1,0c13.6-1,27.3-0.3,40.9-0.5c36.3,0,72.7,0,109,0c0,9,0,18,0,27
		c-108.7,0-217.3,0-326,0c-3.5,0-6.9-0.6-10.4-0.7c-2.4-0.3-4.8-0.4-7.2-0.7c-46.6-3.4-93.2-6.9-139.8-8.3c-7.6-0.8-15.4,0.1-23-0.5
		c-3.5-0.5-7-0.3-10.5-0.3c-31.3,0-62.7,0-94,0c-10-0.2-20,0.9-30,0.5c-9.3,1.1-19-0.7-28.1,2.5c-5.4,2-11.4,5.5-12.5,11.6
		c-1.5,5,2.6,9.5,6.7,11.7c6.1,2.9,13,4.2,19.7,4.2c11.4,0.9,22.8,0.3,34.1,0.5c17.9,1,35.9,0.3,53.9,0.5c17.3,0.2,34.7-0.5,52,0.5
		c16.5-0.1,33.2,0.4,49.6-0.9c6.7-0.2,13.4-0.4,20-1c5-0.3,10-0.5,15-1c9.4-0.4,18.7-1.2,28-2c22.2-1.5,44.4-3.6,66.6-5
		c12.6-1,25.2-0.6,37.8-0.7c45.3,0,90.7,0,136,0c3.2,0,6.4,0.2,9.6-0.4c50.8-0.3,101.6,0,152.4-0.1c0,9.5,0,19,0,28.5
		c-126,0-252.1,0-378.1,0c-9.8,0.3-19.6-1.7-29.3-2.7c-4-0.6-8.1-1-12.1-1.7c-3.3-0.4-6.6-1-9.9-1.3c-8.6-1.2-17.3-2.3-26-3
		c-9.2-0.8-18.5-1.5-27.7-1.4c-5.6-0.7-11.3-0.4-17-0.5c-29.3,0-58.6,0-87.9,0c-3.7,0-7.3-0.2-11,0.3c-6.5,0.7-13.1-0.4-19.6,0.6
		c-7.9,0.3-16.1-0.6-23.7,2.4c-5.3,1.9-10.4,5.9-11.6,11.7c-0.9,4.1,1.9,7.9,5.1,10.3c6.8,4.2,15,5.2,22.8,5.3
		c13.6,1.2,27.3-0.3,40.9,0.9c30,0,60,0,90,0c6.5-0.2,13.1,0.5,19.6-0.4c5.7-0.1,11.4-0.3,17-1c10-0.6,20-1.8,30-3
		c2.7-0.3,5.3-0.6,8-1c2.7-0.3,5.3-0.6,8-1c5.7-0.5,11.4-1.3,17-2c3-0.3,6-0.6,9-1.1c13.8-0.4,27.6,0.5,41.4-0.6
		c59.3,0,118.7,0,178,0c6.6-0.1,13.3,0.3,19.9-0.5c49-0.1,98.1,0,147.1,0c0,10.2,0,20.3,0,30.5c-106,0-212,0-318,0
		c-18.8-0.1-37.6,0.3-56.4-0.6c-7.6-0.6-15.3-0.8-23-1c-20-1.2-40.1-2.1-60.1-4.6c-11-1.7-22-3.6-33.1-5.2c-3.6-0.5-7.2-1-10.9-1.3
		c-5.2-0.7-10.4-0.9-15.7-0.9c-9-1.3-18,0.5-27,0c-6.8,0.7-13.7,0.3-20.4,1.1c-6.3,1.6-13.3,4.4-16.4,10.6
		c-2.6,4.8-0.6,10.9,3.5,14.2c6.6,5.5,15.4,7.6,23.8,8.4c3.3,0.5,6.6,0.9,10,1c17.7,1.6,35.7,0.7,53.2-2.8
		c11.1-2.1,22.2-4.2,33.3-6.5c14.2-1.7,28.5-2.7,42.7-3.8c21.1-1.2,42.3-2,63.4-2.6c117,0,234,0,351,0c-0.3,13.8,0.7,27.7-0.6,41.4
		c-3.1,23.5-18.6,45-40.2,54.8c-7.4,3.8-15.6,5.3-23.8,6.2c-202.1,0.2-404.2,0-606.4,0.1c-14.5,0-29-4.7-40.6-13.4
		c-17.3-12.6-28-33.4-28.8-54.7c-0.3-127.1,0-254.3-0.1-381.4c0.1-17.1,5.7-34.4,17.1-47.4C197.1,250.5,213.1,241.7,230.1,239.6
		 M729.7,805.6c1.2-7.2,5-13.6,9.8-18.9c1.2,1.3,2.3,2.6,3.5,4c-4.4,5.9-8.3,12.8-8.5,20.4c-0.5,8.4,2.3,17.2,8.4,23.3
		c-1.1,1.2-2.1,2.5-3.1,3.8C731.2,829.9,727.2,817.2,729.7,805.6 M882.5,790.4c1.1-1.2,2.2-2.3,3.4-3.5c6.9,7.1,10.9,16.9,10.2,26.8
		c0.3,9.2-4.3,17.6-10.2,24.3c-1.2-1.1-2.3-2.2-3.5-3.3c8-8.9,11.1-22.4,6.2-33.6C887.1,797.3,884.4,794,882.5,790.4 M218.9,796.8
		c5.9-3,12.5-4.5,18.7-6.7c0.8,2.1,1.7,4.1,2.6,6.2c-5.2,1.8-10.9,2.4-15.5,5.4c2.9,4.8,3.9,11,8.5,14.6c3.6,2.8,8.4,1.6,12.6,1.6
		c-0.5-3.1-2.3-5.8-3.8-8.4c2.1-1.4,4.1-2.8,6-4.3c2.5,4.8,6,10.2,4.1,15.8c-0.7,2.8-3.3,5.2-6.3,5.1c-5.5,0.1-12.4,1.1-15.8-4.4
		c-3.2,5.2-9.6,4.6-14.9,4.4c0,0.6,0.1,1.9,0.1,2.5c-2,7.7-10.2,11.6-17.5,12.5c-5.4,1-11.8-0.2-15.2-4.8c-3.9-5.9-3.3-13.6-1.1-20
		c2,0.6,3.9,1.2,5.9,1.9c-0.9,4.2-2,9,0.7,12.8c2.1,2.5,5.8,2.8,8.8,2.6c4.5,0,8.8-1.7,12.1-4.8c-3.8-2.3-8.3-2.8-12.5-3.9
		c0.9-2.1,0.6-5.2,2.4-6.7c8.3-0.4,16.7,0.1,25-0.3c0.1-6.9-6.3-12-6.1-18.9C217.8,798.5,218.5,797.4,218.9,796.8 M256.5,791
		c2.2,0,4.3,0,6.5,0c0.3,8.5-0.7,17.2,0.6,25.6c0.4,0.3,1.2,1,1.6,1.4c3.2,0,6.4,0,9.6,0c0.2-3.3-2-5.9-3.3-8.7c2-1.4,4-2.8,6-4.2
		c2.7,5.2,6.4,11.5,3.4,17.4c-3.1,5.6-10.4,2.8-15.5,3.5c-5.5,0.9-8.7-5.1-8.9-9.8C256.5,807.9,256.6,799.4,256.5,791 M344,791
		c2.3,0,4.7,0,7,0c0,6.3,0,12.7,0,19c0,2.3-0.1,4.7,0.6,7c2.3,1.7,5.3,0.8,7.9,1c-0.5-3.1-1.6-6.3-0.2-9.3c1.7-4.1,6.3-5.8,10.4-6.2
		c4.2,0.4,8.2,1.8,11.7,4.1c-1,1.7-2,3.4-2.9,5.2c-3.2-1.6-6.6-2.1-10.1-2c-1,1.3-2,2.7-2.8,4.1c1.1,1.5,2.1,3.7,4.3,3.8
		c4,0.3,8.1,0.1,12.2,0.1c0,2.7,0,5.3,0,8c-10.2,0-20.4,0.1-30.6,0c-5-0.3-7.1-5.8-7.4-10.1C344,807.6,344.1,799.3,344,791
		 M387.1,794.5c1.9-1,3.8-2.2,5.6-3.5c3.6,8.1,7.6,16.1,11.5,24.1c3-7.5,1.4-15.8,1.8-23.6c2.2,0,4.3,0,6.5,0c0,5.5,0,11,0,16.6
		c0.1,3.5,0.2,7.6,3.2,10c2.1-0.1,4.3-0.2,6.4-0.5c0.8-8.7,0.2-17.4,0.4-26.1c2.3,0,4.6,0,7,0c0,6.6,0,13.2,0,19.8
		c3.6-4.2,8-9,13.9-8.8c6.2,0.7,10.1,7.9,8.7,13.7c-0.6,5.2-5.2,10-10.6,9.8c-8.4,0-16.9,0-25.3,0c-3.8,0-6.4-3.5-7.1-6.9
		c-4.7,7.9-16.2,9-23.2,3.6c0-1.6,0.1-3.2,0.1-4.7c4.1,0,8.1,0,12.2,0C394.6,810.2,390.5,802.5,387.1,794.5 M442,810.1
		c-2.9,0.3-4.9,2.7-7,4.4c-1,1.2-2,2.4-3.1,3.6c3.9,0,7.7-0.1,11.6,0c2.2-1.2,2.7-3.6,2.8-5.9C444.9,811.5,443.7,809.7,442,810.1
		 M544,791c2.3,0,4.7,0,7,0c0,7.3,0,14.7,0,22c-0.1,1.7,0.6,3.2,1.2,4.8c2.4,0.2,4.9,0.2,7.3,0.3c2.4-3.4,1.2-7.7,1.5-11.6
		c2.1,0,4.3,0,6.4,0c0.2,4-0.1,8.7,3.2,11.5c2.8,0,5.7,0,8.5,0c0.1-3.2-2.1-5.8-3.4-8.5c2-1.6,4-3.1,6.1-4.4
		c2.8,5.4,6.4,12.2,2.8,18.1c-2.4,3.9-7.5,2.6-11.2,2.8c-3.2,0.5-5.6-1.8-7.5-4c-0.8,2.2-2.9,3.9-5.3,3.9c-3.3,0.1-6.7,0.2-10-0.1
		c-3.7-0.7-5.2-4.6-6-7.8C543.5,809.1,544.3,800.1,544,791 M628.3,796.7c5.2-2,10.6-3.7,15.9-5.6c0.9,2,1.8,3.9,2.8,5.9
		c-5,1.7-10.2,2.6-15,5c1.7,3.9,3.4,7.7,5.5,11.4c1.7,3.2,5.5,4.8,9.1,4.8c1.6,0.1,3.1-0.9,3.3-2.5c0.2-3,0-6,0.1-9
		c2.2,0,4.3,0,6.5,0c0.1,3.2-0.5,6.5,1,9.5c1.1,2.2,4,2.1,6.1,2c2.9-2.8,1-7.4,1.5-11c2.1,0,4.3,0,6.4,0c0.7,3.5-0.4,8.1,2.9,10.5
		c0.7-0.1,2.2-0.2,2.9-0.2c1.5-3.2,0.5-6.9,0.8-10.3c2,0.1,4-0.2,6,0.3c0.8,3.3,0,7.4,2.8,9.9c1.3,0.3,3.3,0.9,4.2-0.4
		c0.4-3.1-1.4-5.9-2.4-8.7c1.7-1.1,3.4-2.2,5.1-3.3c3.4,5.2,6,12.7,1.6,18.1c-3.6,3.9-10,2.6-13.1-1.3c-1.6,3.1-4.9,4.2-8.2,4.1
		c-1.6-1.2-3.1-2.5-4.5-3.8c-3.5,4.9-11.4,5.2-14.7,0c-1.5,3.7-5.8,4-9.2,3.7c-3.4,0.3-6.5-1.7-8.6-4.2c-3.1,5.1-9.4,4.3-14.4,4.2
		c-3.5,0.2-6.3-2.3-8.9-4.4c-3.3,0.3-6.7,1.4-10,0.4c-4.7-0.6-8.1-5.6-7.1-10.2c1.5-4.2,5.7-6.3,9.5-8.2c-0.3-0.8-1-2.5-1.3-3.4
		c1.8-1.3,3.6-2.4,5.4-3.6c2.7,6.9,4.4,14.3,8.3,20.7c4.1,1.6,8.6,1.2,12.8,0.6c-0.6-6.6-6.3-11.6-5.9-18.5
		C626.3,798.2,627,797.1,628.3,796.7 M602.1,814.1c2.7,1.1,5.5,1,8.4,1c-0.8-2-1.6-4.1-2.4-6.1C605.8,810.4,603,811.3,602.1,814.1
		 M805,791c2.2,0,4.3,0,6.5,0c0,7,0,14,0,21c0,2,0.1,4.6,2,5.9c2.1,0.2,4.2,0.1,6.3,0.1c0.5-0.8,1.1-1.5,1.7-2.2c0-3.1,0-6.2,0-9.3
		c2.1,0,4.3,0,6.4,0c0.3,4,0,8.6,3.2,11.6c1.8,0,3.5-0.1,5.3,0c1.8-3.6,0.9-7.7,1.1-11.5c2.1,0,4.3,0,6.4,0
		c0.9,3.5-0.2,7.7,2.4,10.5c1.4,1.9,4.4,0.6,4.6-1.5c0.2-3,0-6,0.1-9c2.1,0,4.3,0,6.5,0c-0.1,3.5,0.1,7.3,2,10.4
		c1.4,1.7,3.5,0.9,5.2,0.3c0-3.4-1.4-6.4-2.8-9.4c1.8-1.1,3.6-2.3,5.4-3.5c2.1,4,4.6,8.2,4.2,12.9c-0.4,3.3-2.1,7-5.4,8.1
		c-3.8,1.7-8.3-0.1-10.7-3.4c-1.4,2.5-3.9,4.5-6.9,4.2c-2.8,0.2-4.8-2.1-6.4-4c-3.3,5.2-12.3,5.6-15.4,0c-1.1,1.8-2.7,3.5-4.8,3.9
		c-3.7,0.2-7.4,0-11.1,0.1c-3.7-1.9-5.7-5.9-5.7-10C805,807.7,805,799.4,805,791 M456.5,791.5c2.2,0,4.3,0,6.5,0c0,11.5,0,23,0,34.4
		c-2.2,0-4.4,0-6.5,0.1C456.5,814.5,456.5,803,456.5,791.5 M503.5,791.5c2,0,4,0,6,0c-0.2,11.4,0.5,22.8-0.4,34.2
		c0,0.4-0.1,1.3-0.1,1.7c-1,3.1-2.2,6.2-4.6,8.5c-5.8,5.3-16.5,5.2-21.1-1.7c-4.5-6.2-3.8-14.4-1.5-21.2c1.8,0.8,3.6,1.5,5.4,2.4
		c-1,4.2-2.2,8.9,0.2,12.8c2.7,3.7,8.3,3.5,12.1,1.9c3.2-1.1,3.7-5,3.9-8C503.6,811.9,503.5,801.7,503.5,791.5 M849.5,791.5
		c2.2,0,4.3,0,6.5,0c0,2.2,0,4.3,0,6.5c-2.2,0-4.3,0-6.5,0C849.5,795.9,849.5,793.7,849.5,791.5 M677,792.5c1.8,0,3.7,0,5.5,0
		c0,2.2,0,4.3,0,6.5c-1.8,0-3.7,0-5.5,0C677,796.9,677,794.7,677,792.5 M522.6,801.6c2.2-1.4,3.6-5.2,6.4-5l-0.9,0.7
		c3.4,4.4,6.9,8.7,10.2,13.1c3.3,4.2,2.7,11.4-2,14.4c-4,2-8.6,1-12.8,1.2c-4.5,0.5-7.6-3.4-10.4-6.3c1.6-1.5,3.2-3.1,4.8-4.7
		c3.5,5,10,2.3,15.1,3c0.3-1.6,0.2-3.2-1-4.5C528.8,809.5,525.6,805.7,522.6,801.6 M242,797c2.2,0,4.3,0,6.5,0c0,2.3,0,4.7,0,7
		c-2.2,0-4.3,0-6.5,0C242,801.7,242,799.4,242,797 M575.5,797.5c2,0,4,0,6,0c0,2.2,0,4.3,0,6.5c-2,0-4,0-6,0
		C575.5,801.9,575.5,799.7,575.5,797.5 M583,797.5c2,0,4,0,6,0c0,2.2,0,4.3,0,6.5c-2,0-4,0-6,0C583,801.9,583,799.7,583,797.5
		 M820,797.5c2,0,4,0,6,0c0,2.2,0,4.3,0,6.5c-2,0-4,0-6,0C820,801.9,820,799.7,820,797.5 M827.5,797.5c2,0,4,0,6,0
		c0,2.2,0,4.3,0,6.5c-2,0-4,0-6,0C827.5,801.9,827.5,799.7,827.5,797.5 M846.5,798.5c2,0,4,0,6,0c0,2.1,0,4.3,0,6.5c-2,0-4,0-6,0
		C846.5,802.9,846.5,800.7,846.5,798.5 M853.5,798.5c2,0,4,0,6,0c0,2.2,0,4.3,0,6.5c-2,0-4,0-6,0
		C853.5,802.9,853.5,800.7,853.5,798.5 M674,799.5c1.8,0,3.7,0,5.5,0c0,2,0,4,0,6c-1.8,0-3.7,0-5.5,0C674,803.5,674,801.5,674,799.5
		 M680.5,799.5c1.8,0,3.6,0,5.5,0c0,2,0,4,0,6c-1.8,0-3.7,0-5.5,0C680.5,803.5,680.5,801.5,680.5,799.5 M307,804c2,0,4,0,6,0
		c0,2.2,0,4.3,0,6.5c-2,0-4,0-6,0C307,808.4,307,806.2,307,804 M314.5,804c2,0,4,0,6,0c0,2.2,0,4.3,0,6.5c-2,0-4,0-6,0
		C314.5,808.4,314.5,806.2,314.5,804 M329.4,809.3c2.1-1.3,4-2.7,5.9-4.2c2.7,5.4,6.8,11.5,3.5,17.6c-0.9,0.9-1.8,1.8-2.6,2.7
		c-1.5,0.4-3,0.8-4.6,0.7c-10.7-0.1-21.4,0-32.2,0c-3.6,0.3-6.8-2.2-8.1-5.5c-1.1-2.9-0.8-6-0.8-9c2.3,0,4.6,0,6.9,0
		c0.1,2,0.2,4.1,0.5,6.1c11.6,0.8,23.2,0.2,34.8,0.4C332.6,814.8,330.7,812.1,329.4,809.3 M790.4,809.4c2-1.4,3.9-2.8,5.8-4.3
		c2,3.8,3.9,7.7,5,11.9c-0.3,3.9-2.3,8.4-6.6,9.1c-11.9,0-23.8,0.2-35.6-0.1c-6.4-1.5-6.9-9.1-6.4-14.4c2.1,0,4.2,0,6.4,0
		c0,2.3,0.2,4.6,1.6,6.6c11.1-0.2,22.1,0,33.2-0.1C793.7,814.8,791.8,812.1,790.4,809.4 M710.7,814.1c1.2-2.6,4.3-3.8,7.1-3.3
		c-2.8,1.8-5.3,4.1-5,7.7c1.4,0,2.8,0,4.2,0c0,2.5,0,5,0,7.5c-2.5,0-5,0-7.5,0C709.7,822,708.9,817.8,710.7,814.1 M650,830
		c2.2,0,4.3,0,6.5,0c0,2.2,0,4.3,0,6.5c-2.2,0-4.3,0-6.5,0C650,834.4,650,832.2,650,830 M272,830.5c2.3,0,4.7,0,7,0c0,2.3,0,4.7,0,7
		c-2.3,0-4.7,0-7,0C272,835.2,272,832.9,272,830.5 M562.5,830.5c2.3,0,4.7,0,7,0c0,2.3,0,4.7,0,7c-2.3,0-4.7,0-7,0
		C562.5,835.2,562.5,832.9,562.5,830.5 M771.5,830.5c2.3,0,4.7,0,7,0c0,2.5,0,5,0,7.5c-2.3,0-4.7,0-7,0
		C771.5,835.5,771.5,833,771.5,830.5L771.5,830.5z"/>
</g>
</svg>
