<svg viewBox="0 0 48 48" fill="none" xmlns="http://www.w3.org/2000/svg">
<path fill-rule="evenodd" clip-rule="evenodd" d="M31.2681 25.0022C31.2681 20.9687 27.9909 17.6914 24.0077 17.6914C19.9741 17.6914 16.6969 20.9182 16.6969 24.9518C16.6969 28.9854 19.9741 32.2122 23.9573 32.2626C28.0413 32.3131 31.2681 29.0358 31.2681 25.0022Z" fill="#CDCCCC"/>
<path d="M21.6884 15.7251C21.033 15.9268 20.3775 15.5234 20.1254 14.9184L16.4952 5.79254C16.3439 5.38914 16.4952 4.93534 16.8481 4.68324L21.4363 1.35554C22.9993 0.19594 25.1169 0.19594 26.6295 1.35554L31.2177 4.73364C31.5707 4.93534 31.6715 5.38914 31.5707 5.79254L27.9404 14.9184C27.6883 15.5739 27.0329 15.9268 26.327 15.7755C25.6211 15.5739 24.8144 15.473 24.0077 15.473C23.2514 15.473 22.4447 15.5739 21.6884 15.7251Z" fill="#51B5D1"/>
<path d="M29.7556 17.4394C31.016 18.3974 32.0244 19.6578 32.6295 21.0696C32.932 21.6746 33.7387 22.0276 34.3437 21.8259L43.6714 19.0024C44.0747 18.9016 44.3268 18.4478 44.3268 18.0444L44.1251 12.347C44.0243 10.4311 42.7134 8.81764 40.8983 8.31344L35.4025 6.80084C34.9488 6.70004 34.5454 6.85134 34.3437 7.20424L29.4026 15.7251C29.1505 16.1789 29.2514 17.036 29.7556 17.4394Z" fill="#51B5D1"/>
<path d="M13.6213 21.8763L4.2432 19.1536C3.8399 18.952 3.5878 18.599 3.6382 18.1957L3.8399 12.4983C3.8903 10.5823 5.2012 8.96894 6.9659 8.41434L12.4616 6.85134C12.865 6.75044 13.2683 6.90174 13.5204 7.25464L18.4616 15.7251C18.8145 16.2797 18.6632 17.0864 18.159 17.4898C16.8986 18.4478 15.9406 19.7083 15.2851 21.1704C14.9826 21.7755 14.2263 22.078 13.6213 21.8763Z" fill="#51B5D1"/>
<path d="M47.6041 27.5233L45.3352 22.3301C45.184 21.9267 44.7806 21.6746 44.3772 21.7755L34.6967 23.3385C33.9908 23.4393 33.4866 24.0444 33.537 24.7502V25.0527C33.537 26.5653 33.1841 28.0275 32.5286 29.288C32.2261 29.893 32.4278 30.6493 32.9824 31.0023L41.1 36.498C41.4529 36.7501 41.9571 36.6997 42.2596 36.3972L46.4949 32.6157C47.957 31.3048 48.4108 29.288 47.6041 27.5233Z" fill="#51B5D1"/>
<path d="M14.428 25.0023C14.428 26.5149 14.8313 27.9771 15.4868 29.2376C15.7389 29.893 15.5876 30.6493 14.9826 31.0527L6.9155 36.5484C6.5121 36.8005 6.1088 36.7501 5.7558 36.4476L1.5206 32.7165C0.0584034 31.456 -0.395397 29.3888 0.360903 27.6241L2.6298 22.4309C2.7811 22.078 3.1844 21.8763 3.5878 21.8763L13.2683 23.3889C13.9742 23.4897 14.4784 24.0948 14.428 24.8006V25.0023Z" fill="#51B5D1"/>
<path d="M31.974 32.2627C31.4698 31.809 30.7135 31.809 30.1589 32.2123C28.9993 33.2207 27.5875 33.9266 26.0245 34.2795C25.369 34.3804 24.8649 35.0358 24.9153 35.7417L25.722 45.5231C25.7724 45.9265 26.1253 46.2794 26.5287 46.3298L32.1757 47.2878C34.0412 47.6407 35.9067 46.6828 36.8143 44.9685L39.4361 39.9265C39.6378 39.5736 39.5874 39.0694 39.2849 38.7669L31.974 32.2627Z" fill="#51B5D1"/>
<path d="M22.0414 34.33C20.4783 33.977 19.0162 33.2711 17.8565 32.3132C17.3523 31.8594 16.5456 31.9602 16.0918 32.3636L8.8314 39.0694C8.5289 39.3719 8.4785 39.8257 8.6802 40.1786L11.3524 45.2206C12.2599 46.8844 14.1759 47.792 16.0414 47.439L21.6884 46.4307C22.0918 46.3298 22.3943 45.9769 22.4447 45.5735L23.1506 35.7921C23.201 35.0862 22.6968 34.4308 22.0414 34.33Z" fill="#51B5D1"/>
</svg>
